<?xml version="1.0" encoding="UTF-8" standalone="no"?>
<!-- Created with Inkscape (http://www.inkscape.org/) -->

<svg
   xmlns:dc="http://purl.org/dc/elements/1.1/"
   xmlns:cc="http://creativecommons.org/ns#"
   xmlns:rdf="http://www.w3.org/1999/02/22-rdf-syntax-ns#"
   xmlns:svg="http://www.w3.org/2000/svg"
   xmlns="http://www.w3.org/2000/svg"
   xmlns:sodipodi="http://sodipodi.sourceforge.net/DTD/sodipodi-0.dtd"
   xmlns:inkscape="http://www.inkscape.org/namespaces/inkscape"
   id="svg2"
   version="1.1"
   inkscape:version="0.92.1 r15371"
   width="546.13336"
   height="546.13336"
   sodipodi:docname="deepin-launcher.svg"
   viewBox="0 0 512 512">
  <metadata
     id="metadata8">
    <rdf:RDF>
      <cc:Work
         rdf:about="">
        <dc:format>image/svg+xml</dc:format>
        <dc:type
           rdf:resource="http://purl.org/dc/dcmitype/StillImage" />
        <dc:title></dc:title>
      </cc:Work>
    </rdf:RDF>
  </metadata>
  <defs
     id="defs6" />
  <sodipodi:namedview
     pagecolor="#ffffff"
     bordercolor="#666666"
     borderopacity="1"
     objecttolerance="10"
     gridtolerance="10"
     guidetolerance="10"
     inkscape:pageopacity="0"
     inkscape:pageshadow="2"
     inkscape:window-width="1024"
     inkscape:window-height="682"
     id="namedview4"
     showgrid="false"
     inkscape:zoom="0.41259765"
     inkscape:cx="-68.487919"
     inkscape:cy="280.38955"
     inkscape:window-x="0"
     inkscape:window-y="0"
     inkscape:window-maximized="1"
     inkscape:current-layer="svg2"
     inkscape:document-units="px"
     inkscape:snap-global="false" />
  <ellipse
     style="fill:#a9ecff;fill-opacity:1;fill-rule:nonzero;stroke:none;stroke-width:0.9176231"
     id="path2998"
     cx="256"
     cy="256"
     rx="225"
     ry="224.86916" />
  <path
     style="opacity:0.3;fill:#000000;fill-opacity:1;fill-rule:nonzero;stroke:none;stroke-width:1.17870998"
     d="m 380.38331,66.297505 c -4.10796,-0.08156 -8.72165,0.494338 -13.8814,1.690962 -10.27398,2.382717 -29.34312,10.049431 -32.61238,12.900448 -0.25702,-0.08709 -0.48902,-0.140502 -0.67237,-0.140502 -1.76249,0 -12.53018,6.401854 -23.9293,14.227618 -34.32885,23.567399 -70.67661,64.851419 -96.4598,109.558449 -9.92473,17.2091 -28.6115,61.5403 -43.29,101.29937 -6.23982,-2.92648 -13.72508,-4.68757 -20.58753,-4.70407 -1.50028,-0.003 -2.97016,0.0752 -4.39047,0.24334 -10.65471,1.2619 -24.81196,8.12904 -30.35944,14.72188 -6.3628,7.56174 -16.736388,26.12042 -20.896126,37.38669 -8.381261,22.69991 -11.64577,58.00711 -5.895757,63.75711 4.771353,4.77138 11.615353,1.91308 13.251683,-5.537 1.5537,-7.0741 10.95181,-17.20794 21.25235,-22.91321 8.14473,-4.51127 10.44242,-4.97504 24.46871,-4.97504 h 0.34371 c -6.92436,7.08902 -13.49241,15.4997 -19.21771,24.60919 -4.25197,6.80665 -7.95969,13.88198 -10.96863,20.93123 l -4.80693,13.08609 c -6.43668,21.23816 -4.56515,37.85745 4.93738,43.84448 15.05302,9.43256 44.30947,-10.13052 65.34772,-43.69644 6.6599,-10.65217 11.94501,-21.89636 15.32649,-32.60737 1.38489,0.51408 2.35428,0.75058 2.65435,0.5695 0.0484,-0.0291 0.10194,-0.0634 0.15053,-0.0929 -0.17634,0.25709 -0.30777,0.47536 -0.3387,0.60462 -0.30248,1.26419 1.01831,5.53845 2.93534,9.49847 6.93941,14.3349 2.54558,37.31604 -9.10456,47.63029 -6.79888,6.01929 -7.33913,9.28648 -2.14005,12.92804 4.39156,3.07596 6.50973,2.5751 22.96089,-5.42412 21.61556,-10.5103 41.64548,-26.8013 56.57681,-46.02212 9.71393,-12.50469 12.36377,-19.17899 12.31839,-31.01675 -0.0587,-15.42172 -8.65461,-29.75465 -21.97742,-36.6441 -0.70014,-0.36207 -1.29043,-0.64272 -1.84149,-0.88311 22.33096,-20.89536 45.28864,-43.79795 62.26185,-60.85188 18.28083,-18.36777 38.41619,-46.75324 47.52491,-61.41133 19.50993,-31.39628 38.19646,-76.19567 38.85939,-101.54021 l 0.47167,-18.026 -0.21576,-0.0376 c 0.47124,-2.66515 0.30951,-6.51745 -0.0603,-11.94207 -1.90672,-27.975076 -10.19501,-40.668805 -27.99613,-41.022011 z"
     id="path3009-8"
     inkscape:connector-curvature="0"
     sodipodi:nodetypes="cccscsccccscccsccccccccccccccccccsccccccc" />
  <g
     id="g4234"
     transform="matrix(1.283531,0,0,1.283531,-66.005967,-80.94031)">
    <path
       inkscape:connector-curvature="0"
       id="path3023"
       d="m 357.00768,94.922497 c -3.19804,-0.0635 -6.79032,0.38572 -10.80717,1.31729 -8.76566,2.03291 -25.80456,9.021213 -25.80456,10.583143 0,2.01876 8.28066,12.5738 13.10122,16.70002 7.62862,6.52974 19.63,12.56972 29.03058,14.61207 16.5181,3.5887 17.25377,3.08006 16.27526,-11.27672 -1.48438,-21.77854 -7.93719,-31.660833 -21.79533,-31.935803 z M 176.83812,277.73919 c -1.16797,-0.003 -2.31208,0.059 -3.41779,0.18997 -8.29467,0.98238 -19.31726,6.32704 -23.63596,11.45954 -4.95342,5.8868 -13.02976,20.33508 -16.2681,29.10585 -6.5248,17.67183 -9.06627,45.15953 -4.5899,49.63589 3.71449,3.71451 9.044,1.48777 10.31788,-4.31211 1.20956,-5.50717 8.52515,-13.39475 16.5441,-17.8363 6.34065,-3.51199 8.13021,-3.87481 19.04964,-3.87481 h 12.05097 l 6.3893,-18.28257 c 3.51403,-10.05537 7.40059,-21.79169 8.63677,-26.08056 l 2.24746,-7.79801 -4.60424,-4.22071 c -5.21769,-4.78167 -14.54437,-7.96653 -22.72013,-7.98618 z m 83.92308,46.20375 c -1.33603,0.0886 -2.77373,1.02224 -5.72977,3.08981 -7.33542,5.13056 -38.0562,34.00991 -38.6011,36.28733 -0.23548,0.98416 0.79269,4.31188 2.2851,7.39475 5.40231,11.1597 1.98311,29.05168 -7.08649,37.0813 -5.29291,4.686 -5.71425,7.22844 -1.66677,10.06339 3.41882,2.39463 5.06853,2.00486 17.87572,-4.22251 16.82767,-8.18226 32.42011,-20.86516 44.04411,-35.82852 7.56228,-9.73488 9.62557,-14.92929 9.59024,-24.14496 -0.0457,-12.00577 -6.73866,-23.16533 -17.11044,-28.52875 -1.58247,-0.81835 -2.56146,-1.26072 -3.6006,-1.19184 z"
       style="fill:#ff5555;fill-opacity:1;stroke-width:0.9176231" />
    <path
       sodipodi:nodetypes="scsssss"
       inkscape:connector-curvature="0"
       id="path3017"
       d="M 300.8015,227.60113 C 277.56828,223.6287 260.60994,205.2455 260.60735,183.304 c -9.1e-4,-17.79712 12.21707,-34.79703 29.88568,-41.57834 12.51403,-4.80289 27.41564,-4.34605 39.27598,1.20409 17.5604,8.2175 27.28452,22.65294 27.28452,40.50364 0,20.86614 -16.48533,40.30827 -37.04775,43.69252 -10.79817,1.77723 -12.60529,1.60353 -19.20428,0.47522 z"
       style="fill:#ff5555;fill-opacity:1;stroke-width:0.9176231" />
    <path
       style="fill:#f4faff;fill-opacity:1;stroke-width:0.9176231"
       d="m 302.3011,216.82141 c -28.6365,-5.46293 -39.88872,-37.52469 -20.11059,-57.30272 18.30323,-18.30321 50.17118,-13.21577 61.04442,9.74522 11.91366,25.15782 -12.10065,53.05796 -40.93383,47.5575 z"
       id="path2984"
       inkscape:connector-curvature="0" />
    <ellipse
       ry="25.041489"
       rx="55.842518"
       cy="366.03284"
       cx="-195.83363"
       transform="rotate(-54.084737)"
       id="path3005"
       style="fill:#ffc831;fill-opacity:1;fill-rule:nonzero;stroke:none;stroke-width:0.9176231" />
    <path
       sodipodi:nodetypes="ssssssssssscssssssssscs"
       inkscape:connector-curvature="0"
       id="path3007"
       d="m 197.12731,353.45841 c -4.88137,-3.56934 -1.92061,-1.50791 13.21883,-23.73894 15.66508,-23.0029 21.21839,-27.17715 12.2856,-27.17715 -4.09529,0 -6.02259,7.65708 -25.09142,35.44505 -9.06611,13.21156 -6.15511,12.78156 -17.36692,5.05667 -5.65419,-3.89573 -6.90457,-2.02136 1.79339,-30.01822 10.60956,-34.1499 34.01697,-92.13777 44.59926,-110.48705 20.07216,-34.80433 48.36853,-66.94299 75.09347,-85.29015 8.87418,-6.09234 17.25762,-11.07699 18.62972,-11.07699 1.3721,0 5.56376,3.26682 9.31479,7.25961 10.18073,10.83694 23.48699,18.21246 37.18644,20.61198 l 12.22707,2.14164 -0.36708,14.03286 c -0.51609,19.73067 -15.06389,54.6063 -30.25233,79.04824 -7.09112,11.41129 -22.76636,33.50964 -36.99796,47.80892 -26.75028,26.87749 -72.60083,72.43825 -94.82337,85.84834 -1.22446,0.73889 -16.59233,-7.3756 -19.44949,-9.46481 z M 322.29117,225.33665 c 14.56918,-4.04473 29.48903,-22.14675 31.12433,-33.04127 4.85231,-32.32626 -13.3894,-52.12629 -43.8095,-52.12629 -41.93336,0 -62.96873,45.35922 -33.80183,72.88813 8.0072,7.55743 21.9436,13.29319 30.21759,13.95603 2.33729,0.10982 10.07178,0.0439 16.26941,-1.6766 z"
       style="fill:#fffed1;fill-opacity:1;fill-rule:nonzero;stroke:none;stroke-width:0.9176231" />
    <path
       inkscape:connector-curvature="0"
       id="path3021"
       d="m 171.36303,378.48666 c 0,-1.64157 8.27894,-15.59829 18.39766,-31.01493 31.82028,-48.48071 30.20375,-46.27025 34.17191,-46.72669 4.31918,-0.49682 5.89477,2.39282 3.80522,6.97886 -0.78528,1.72351 -8.36024,12.70449 -16.83326,24.40219 -8.473,11.69769 -17.5205,24.50063 -20.10555,28.45095 -11.77364,17.99182 -19.43598,25.05239 -19.43598,17.90962 z"
       style="fill:#ff5555;fill-opacity:1;stroke-width:0.9176231" />
    <ellipse
       ry="21.28631"
       rx="47.468472"
       cy="290.24976"
       cx="367.17401"
       transform="rotate(0.22979815)"
       id="path3005-3"
       style="fill:#ffffff;fill-opacity:1;fill-rule:nonzero;stroke:none;stroke-width:0.78001797" />
    <ellipse
       ry="17.774916"
       rx="39.638058"
       cy="-123.05021"
       cx="-226.33064"
       transform="rotate(-176.79615)"
       id="path3005-6"
       style="fill:#ffffff;fill-opacity:1;fill-rule:nonzero;stroke:none;stroke-width:0.65134597" />
    <ellipse
       ry="25.041489"
       rx="55.842518"
       cy="163.58018"
       cx="179.42911"
       transform="rotate(0.54894266)"
       id="path3005-7"
       style="fill:#ffffff;fill-opacity:1;fill-rule:nonzero;stroke:none;stroke-width:0.9176231" />
    <ellipse
       ry="27.848831"
       rx="62.102894"
       cy="334.31604"
       cx="337.38315"
       transform="rotate(-1.4245803)"
       id="path3005-5"
       style="fill:#ffffff;fill-opacity:1;fill-rule:nonzero;stroke:none;stroke-width:1.02049565" />
    <ellipse
       ry="15.24755"
       rx="34.002033"
       cy="-274.99738"
       cx="-107.34213"
       transform="rotate(177.88121)"
       id="path3005-6-3"
       style="fill:#ffffff;fill-opacity:1;fill-rule:nonzero;stroke:none;stroke-width:0.55873293" />
  </g>
</svg>
