<?xml version="1.0" encoding="UTF-8" standalone="no"?>
<!-- Created with Inkscape (http://www.inkscape.org/) -->

<svg
   xmlns:dc="http://purl.org/dc/elements/1.1/"
   xmlns:cc="http://creativecommons.org/ns#"
   xmlns:rdf="http://www.w3.org/1999/02/22-rdf-syntax-ns#"
   xmlns:svg="http://www.w3.org/2000/svg"
   xmlns="http://www.w3.org/2000/svg"
   xmlns:xlink="http://www.w3.org/1999/xlink"
   xmlns:sodipodi="http://sodipodi.sourceforge.net/DTD/sodipodi-0.dtd"
   xmlns:inkscape="http://www.inkscape.org/namespaces/inkscape"
   width="512px"
   height="512px"
   viewBox="0 0 512 512"
   version="1.1"
   id="SVGRoot"
   inkscape:version="0.92.1 r15371"
   sodipodi:docname="folder-pictures.svg">
  <sodipodi:namedview
     id="base"
     pagecolor="#ffffff"
     bordercolor="#666666"
     borderopacity="1.0"
     inkscape:pageopacity="0.0"
     inkscape:pageshadow="2"
     inkscape:zoom="0.69999999"
     inkscape:cx="253.30636"
     inkscape:cy="260.37487"
     inkscape:document-units="px"
     inkscape:current-layer="layer1"
     showgrid="false"
     inkscape:window-width="1024"
     inkscape:window-height="682"
     inkscape:window-x="0"
     inkscape:window-y="0"
     inkscape:window-maximized="1" />
  <defs
     id="defs5052">
    <linearGradient
       inkscape:collect="always"
       id="linearGradient4509">
      <stop
         style="stop-color:#e1a3b4;stop-opacity:1;"
         offset="0"
         id="stop4505" />
      <stop
         style="stop-color:#a96476;stop-opacity:1"
         offset="1"
         id="stop4507" />
    </linearGradient>
    <linearGradient
       inkscape:collect="always"
       id="linearGradient5801">
      <stop
         style="stop-color:#6f3971;stop-opacity:0.12156863"
         offset="0"
         id="stop5797" />
      <stop
         style="stop-color:#f8f8f8;stop-opacity:0.18431373"
         offset="1"
         id="stop5799" />
    </linearGradient>
    <linearGradient
       inkscape:collect="always"
       id="Frontal-7-5">
      <stop
         style="stop-color:#935d6c;stop-opacity:0.97777778"
         offset="0"
         id="stop5757" />
      <stop
         style="stop-color:#e1a6b6;stop-opacity:1"
         offset="1"
         id="stop5759" />
    </linearGradient>
    <linearGradient
       inkscape:collect="always"
       xlink:href="#Frontal-7-5"
       id="linearGradient5763"
       x1="285.46176"
       y1="390.34119"
       x2="293.29785"
       y2="184.87946"
       gradientUnits="userSpaceOnUse"
       gradientTransform="matrix(1.010512,0,0,1.1014406,-18.641516,-12.897038)" />
    <linearGradient
       inkscape:collect="always"
       xlink:href="#linearGradient5801"
       id="linearGradient5803"
       x1="334.29922"
       y1="398.82269"
       x2="334.22922"
       y2="381.82639"
       gradientUnits="userSpaceOnUse"
       gradientTransform="matrix(1.010512,0,0,1.1014406,-5.6478947,-22.337963)" />
    <linearGradient
       inkscape:collect="always"
       xlink:href="#linearGradient4509"
       id="linearGradient4511"
       x1="220.71428"
       y1="94.85714"
       x2="211.42857"
       y2="192.71429"
       gradientUnits="userSpaceOnUse"
       gradientTransform="matrix(1.1204185,0,0,1,-31.436097,-7.4992721)" />
  </defs>
  <metadata
     id="metadata5055">
    <rdf:RDF>
      <cc:Work
         rdf:about="">
        <dc:format>image/svg+xml</dc:format>
        <dc:type
           rdf:resource="http://purl.org/dc/dcmitype/StillImage" />
        <dc:title></dc:title>
      </cc:Work>
    </rdf:RDF>
  </metadata>
  <g
     id="layer1"
     inkscape:groupmode="layer"
     inkscape:label="Capa 1">
    <path
       style="fill:url(#linearGradient4511);fill-opacity:1;stroke:#6e1f34;stroke-width:1.08910859;stroke-linecap:butt;stroke-linejoin:miter;stroke-miterlimit:4;stroke-dasharray:none;stroke-opacity:1"
       d="m 53.362481,170.89464 1.198646,-41.90589 c 0.67913,-8.83572 13.734427,-9.63499 20.227074,-15.14671 8.540334,-6.05867 8.959499,-19.477352 19.643593,-19.502582 l 119.264056,-0.01 c 13.06295,-0.0193 11.75125,24.074872 22.69632,24.111322 h 212.34007 c 8.85747,0.0197 9.8888,0.0631 9.92091,6.6347 l -2.54711,48.34324 z"
       id="path5718"
       inkscape:connector-curvature="0"
       sodipodi:nodetypes="cccccccccc" />
    <path
       style="fill:url(#linearGradient5763);fill-opacity:1;stroke:#6e1f34;stroke-width:1.05499709;stroke-linecap:butt;stroke-linejoin:miter;stroke-miterlimit:4;stroke-dasharray:none;stroke-opacity:1"
       d="m 21.41807,153.73519 c -0.564057,-10.89232 5.047344,-14.50773 13.353192,-14.94812 H 474.34402 c 16.27261,-0.27982 16.44156,8.21672 16.24037,16.91498 l -11.54871,254.51144 c -0.2462,6.06899 -5.68317,6.82607 -9.38333,7.08069 l -426.219559,0.39338 c -4.338786,-0.92251 -9.094337,0.49936 -10.826907,-8.65419 C 26.534929,324.3855 24.7794,238.68634 21.41807,153.73519 Z"
       id="path5622"
       inkscape:connector-curvature="0"
       sodipodi:nodetypes="ccccccccc" />
    <path
       sodipodi:nodetypes="ccccccccc"
       inkscape:connector-curvature="0"
       id="path5787"
       d="m 21.419393,153.73519 c -0.564053,-10.89232 5.04735,-14.50773 13.3532,-14.94812 H 474.34535 c 16.27259,-0.27982 16.44154,8.21672 16.24036,16.91498 L 479.037,410.21349 c -0.24621,6.06899 -5.68317,6.82607 -9.38333,7.08069 l -426.219547,0.39338 c -4.338798,-0.92251 -9.094348,0.49936 -10.826918,-8.65419 C 26.536254,324.3855 24.780726,238.68634 21.419393,153.73519 Z"
       style="fill:url(#linearGradient5803);fill-opacity:1;stroke:none;stroke-width:1.05499709;stroke-linecap:butt;stroke-linejoin:miter;stroke-miterlimit:4;stroke-dasharray:none;stroke-opacity:1" />
    <g
       id="g5407"
       transform="matrix(1.187067,0,0,1.187067,10.336092,291.4368)"
       style="fill:#ffffff;fill-opacity:0.78431373;stroke:#ffffff;stroke-width:5;stroke-miterlimit:4;stroke-dasharray:none;stroke-opacity:0.15686275">
      <g
         id="g5392"
         transform="matrix(1.655754,0,0,1.655754,196.25629,-75.914542)"
         style="fill:#ffffff;fill-opacity:0.78431373;stroke:#ffffff;stroke-width:3.01977229;stroke-miterlimit:4;stroke-dasharray:none;stroke-opacity:0.15686275">
        <path
           id="path5388"
           d="m 64,48 c -8.8,0 -16,7.2 -16,16 0,8.8 7.2,16 16,16 8.8,0 16,-7.2 16,-16 0,-8.8 -7.2,-16 -16,-16 z"
           class="st1"
           inkscape:connector-curvature="0"
           style="fill:#ffffff;fill-opacity:0.78431373;stroke:#ffffff;stroke-width:3.01977229;stroke-miterlimit:4;stroke-dasharray:none;stroke-opacity:0.15686275" />
        <path
           id="path5390"
           d="M 100,39 H 78.5 L 77.2,36.9 C 76.5,35.7 75.2,35 73.8,35 H 54.2 c -1.4,0 -2.7,0.7 -3.4,1.9 L 49.5,39 H 28 c -2.2,0 -4,1.8 -4,4 v 42 c 0,2.2 1.8,4 4,4 h 72 c 2.2,0 4,-1.8 4,-4 V 43 c 0,-2.2 -1.8,-4 -4,-4 z M 64,84 C 53,84 44,75 44,64 44,53 53,44 64,44 c 11,0 20,9 20,20 0,11 -9,20 -20,20 z"
           class="st1"
           inkscape:connector-curvature="0"
           style="fill:#ffffff;fill-opacity:0.78431373;stroke:#ffffff;stroke-width:3.01977229;stroke-miterlimit:4;stroke-dasharray:none;stroke-opacity:0.15686275" />
      </g>
    </g>
  </g>
  <style
     id="style5382"
     type="text/css">
	.st0{fill:#4D4D4D;}
	.st1{fill:#FFFFFF;}
</style>
</svg>
