<?xml version="1.0" encoding="UTF-8" standalone="no"?>
<!-- Created with Inkscape (http://www.inkscape.org/) -->

<svg
   xmlns:osb="http://www.openswatchbook.org/uri/2009/osb"
   xmlns:dc="http://purl.org/dc/elements/1.1/"
   xmlns:cc="http://creativecommons.org/ns#"
   xmlns:rdf="http://www.w3.org/1999/02/22-rdf-syntax-ns#"
   xmlns:svg="http://www.w3.org/2000/svg"
   xmlns="http://www.w3.org/2000/svg"
   xmlns:xlink="http://www.w3.org/1999/xlink"
   xmlns:sodipodi="http://sodipodi.sourceforge.net/DTD/sodipodi-0.dtd"
   xmlns:inkscape="http://www.inkscape.org/namespaces/inkscape"
   width="512px"
   height="512px"
   viewBox="0 0 512 512"
   version="1.1"
   id="SVGRoot"
   inkscape:version="0.92.1 r15371"
   sodipodi:docname="adress.svg">
  <sodipodi:namedview
     id="base"
     pagecolor="#ffffff"
     bordercolor="#666666"
     borderopacity="1.0"
     inkscape:pageopacity="0.0"
     inkscape:pageshadow="2"
     inkscape:zoom="0.35355339"
     inkscape:cx="-80.525236"
     inkscape:cy="628.53098"
     inkscape:document-units="px"
     inkscape:current-layer="layer1"
     showgrid="false"
     inkscape:window-width="1280"
     inkscape:window-height="947"
     inkscape:window-x="0"
     inkscape:window-y="0"
     inkscape:window-maximized="1"
     showguides="false" />
  <defs
     id="defs4710">
    <linearGradient
       id="linearGradient8384"
       inkscape:collect="always">
      <stop
         id="stop8380"
         offset="0"
         style="stop-color:#181818;stop-opacity:0.62365592" />
      <stop
         id="stop8382"
         offset="1"
         style="stop-color:#404040;stop-opacity:0" />
    </linearGradient>
    <linearGradient
       inkscape:collect="always"
       id="linearGradient4573">
      <stop
         style="stop-color:#181818;stop-opacity:0.30645162"
         offset="0"
         id="stop4569" />
      <stop
         style="stop-color:#404040;stop-opacity:0"
         offset="1"
         id="stop4571" />
    </linearGradient>
    <marker
       inkscape:stockid="DotM"
       orient="auto"
       refY="0.0"
       refX="0.0"
       id="DotM"
       style="overflow:visible"
       inkscape:isstock="true">
      <path
         id="path4618"
         d="M -2.5,-1.0 C -2.5,1.7600000 -4.7400000,4.0 -7.5,4.0 C -10.260000,4.0 -12.5,1.7600000 -12.5,-1.0 C -12.5,-3.7600000 -10.260000,-6.0 -7.5,-6.0 C -4.7400000,-6.0 -2.5,-3.7600000 -2.5,-1.0 z "
         style="fill-rule:evenodd;stroke:#000000;stroke-width:1.0pt"
         transform="scale(0.4) translate(7.4, 1)" />
    </marker>
    <linearGradient
       osb:paint="solid"
       id="linearGradient5207">
      <stop
         id="stop5209"
         offset="0"
         style="stop-color:#000015;stop-opacity:1;" />
    </linearGradient>
    <clipPath
       id="clipPath3006-9-8"
       clipPathUnits="userSpaceOnUse">
      <path
         inkscape:export-ydpi="90"
         inkscape:export-xdpi="90"
         transform="matrix(1.2020779,0,0,1.2020779,-93.20363,-75.172465)"
         d="m 483,275.5 a 192.5,192.5 0 1 1 -385,0 192.5,192.5 0 1 1 385,0 z"
         sodipodi:ry="192.5"
         sodipodi:rx="192.5"
         sodipodi:cy="275.5"
         sodipodi:cx="290.5"
         id="path3008-1-1"
         style="fill:#ffffff;fill-opacity:1;stroke:none;display:inline"
         sodipodi:type="arc" />
    </clipPath>
    <mask
       id="mask3818-4"
       maskUnits="userSpaceOnUse">
      <path
         sodipodi:type="arc"
         style="fill:#ffffff;fill-opacity:1;stroke:none;display:inline"
         id="path3820-9"
         sodipodi:cx="290.5"
         sodipodi:cy="275.5"
         sodipodi:rx="192.5"
         sodipodi:ry="192.5"
         d="m 483,275.5 a 192.5,192.5 0 1 1 -385,0 192.5,192.5 0 1 1 385,0 z"
         transform="matrix(1.2020779,0,0,1.2020779,-93.20363,-75.172466)"
         inkscape:export-xdpi="90"
         inkscape:export-ydpi="90" />
    </mask>
    <clipPath
       id="clipPath3006"
       clipPathUnits="userSpaceOnUse">
      <path
         inkscape:export-ydpi="90"
         inkscape:export-xdpi="90"
         transform="matrix(1.2020779,0,0,1.2020779,-93.20363,-75.172465)"
         d="m 483,275.5 a 192.5,192.5 0 1 1 -385,0 192.5,192.5 0 1 1 385,0 z"
         sodipodi:ry="192.5"
         sodipodi:rx="192.5"
         sodipodi:cy="275.5"
         sodipodi:cx="290.5"
         id="path3008"
         style="fill:#ffffff;fill-opacity:1;stroke:none;display:inline"
         sodipodi:type="arc" />
    </clipPath>
    <clipPath
       id="clipPath3006-9"
       clipPathUnits="userSpaceOnUse">
      <path
         inkscape:export-ydpi="90"
         inkscape:export-xdpi="90"
         transform="matrix(1.2020779,0,0,1.2020779,-93.20363,-75.172465)"
         d="m 483,275.5 a 192.5,192.5 0 1 1 -385,0 192.5,192.5 0 1 1 385,0 z"
         sodipodi:ry="192.5"
         sodipodi:rx="192.5"
         sodipodi:cy="275.5"
         sodipodi:cx="290.5"
         id="path3008-1"
         style="fill:#ffffff;fill-opacity:1;stroke:none;display:inline"
         sodipodi:type="arc" />
    </clipPath>
    <mask
       maskUnits="userSpaceOnUse"
       id="mask3818-0">
      <path
         inkscape:export-ydpi="90"
         inkscape:export-xdpi="90"
         transform="matrix(1.2020779,0,0,1.2020779,-93.20363,-75.172466)"
         d="m 483,275.5 a 192.5,192.5 0 1 1 -385,0 192.5,192.5 0 1 1 385,0 z"
         sodipodi:ry="192.5"
         sodipodi:rx="192.5"
         sodipodi:cy="275.5"
         sodipodi:cx="290.5"
         id="path3820-8"
         style="fill:#ffffff;fill-opacity:1;stroke:none;display:inline"
         sodipodi:type="arc" />
    </mask>
    <mask
       maskUnits="userSpaceOnUse"
       id="mask3818-2">
      <path
         inkscape:export-ydpi="90"
         inkscape:export-xdpi="90"
         transform="matrix(1.2020779,0,0,1.2020779,-93.20363,-75.172466)"
         d="m 483,275.5 a 192.5,192.5 0 1 1 -385,0 192.5,192.5 0 1 1 385,0 z"
         sodipodi:ry="192.5"
         sodipodi:rx="192.5"
         sodipodi:cy="275.5"
         sodipodi:cx="290.5"
         id="path3820-2-2"
         style="fill:#ffffff;fill-opacity:1;stroke:none;display:inline"
         sodipodi:type="arc" />
    </mask>
    <clipPath
       id="clipPath3934"
       clipPathUnits="userSpaceOnUse">
      <path
         id="path3936"
         d="m 0,0 0,1024 1024,0 L 1024,0 0,0 z m 278.4375,333.84375 119.78125,0 c 9.83697,42.31453 19.85954,84.58596 29.9375,126.84375 9.86978,-42.28798 20.05132,-84.50237 29.6875,-126.84375 l 108.90625,0 c 9.63586,42.34141 19.8178,84.55578 29.6875,126.84375 10.07827,-42.25772 20.10031,-84.52927 29.9375,-126.84375 l 119.1875,0 c -26.26221,110.73099 -52.49625,221.46929 -78.28125,332.3125 l -122.8125,0 c -10.59439,-45.55681 -21.46638,-91.04874 -32.375,-136.53125 -10.66279,45.51136 -21.5615,90.96897 -32,136.53125 l -122.8125,0 c -25.71418,-110.03502 -52.0286,-219.92873 -78.25,-329.84375 l -0.59375,-2.46875 z"
         style="fill:#ff3232;fill-opacity:1;stroke:none"
         inkscape:connector-curvature="0" />
    </clipPath>
    <clipPath
       id="clipPath3929"
       clipPathUnits="userSpaceOnUse">
      <path
         inkscape:connector-curvature="0"
         style="fill:#ff3232;fill-opacity:1;stroke:none"
         d="m 0,0 0,1024 1024,0 L 1024,0 0,0 z m 278.4375,333.84375 119.78125,0 c 9.83697,42.31453 19.85954,84.58596 29.9375,126.84375 9.86978,-42.28798 20.05132,-84.50237 29.6875,-126.84375 l 108.90625,0 c 9.63586,42.34141 19.8178,84.55578 29.6875,126.84375 10.07827,-42.25772 20.10031,-84.52927 29.9375,-126.84375 l 119.1875,0 c -26.26221,110.73099 -52.49625,221.46929 -78.28125,332.3125 l -122.8125,0 c -10.59439,-45.55681 -21.46638,-91.04874 -32.375,-136.53125 -10.66279,45.51136 -21.5615,90.96897 -32,136.53125 l -122.8125,0 c -25.71418,-110.03502 -52.0286,-219.92873 -78.25,-329.84375 l -0.59375,-2.46875 z"
         id="path3931" />
    </clipPath>
    <mask
       maskUnits="userSpaceOnUse"
       id="mask3818">
      <path
         inkscape:export-ydpi="90"
         inkscape:export-xdpi="90"
         transform="matrix(1.2020779,0,0,1.2020779,-93.20363,-75.172466)"
         d="m 483,275.5 a 192.5,192.5 0 1 1 -385,0 192.5,192.5 0 1 1 385,0 z"
         sodipodi:ry="192.5"
         sodipodi:rx="192.5"
         sodipodi:cy="275.5"
         sodipodi:cx="290.5"
         id="path3820"
         style="fill:#ffffff;fill-opacity:1;stroke:none;display:inline"
         sodipodi:type="arc" />
    </mask>
    <linearGradient
       inkscape:collect="always"
       xlink:href="#linearGradient4573"
       id="linearGradient4575"
       x1="408.84314"
       y1="89.26915"
       x2="420.61133"
       y2="138.41306"
       gradientUnits="userSpaceOnUse"
       gradientTransform="matrix(0.99657796,0,0,1,1.2520606,0)" />
    <linearGradient
       inkscape:collect="always"
       xlink:href="#linearGradient8384"
       id="linearGradient6771"
       gradientUnits="userSpaceOnUse"
       gradientTransform="matrix(0.99657796,0,0,1,1.2520606,0)"
       x1="408.84314"
       y1="89.26915"
       x2="420.61133"
       y2="138.41306" />
    <clipPath
       clipPathUnits="userSpaceOnUse"
       id="clipPath4575">
      <path
         sodipodi:nodetypes="cccsccccccscccscccscccccscccs"
         clip-path="none"
         id="path4577"
         d="m 620.59829,374.66954 c 0,0.0306 0.0191,0.0582 0.0191,0.0827 6.91471,-2.09972 15.03926,-3.06693 19.89773,-3.64542 15.09665,-1.79669 35.03742,-2.7884 56.13064,-2.7884 h 0.5308 c 21.22711,0.0153 41.28265,1.03149 56.48928,2.8588 4.86326,0.58461 12.95911,1.55795 19.87861,3.64542 v -0.0276 z m 76.5783,-0.42239 h -0.5308 c -41.99517,0 -75.96142,5.95633 -75.97099,10.96994 l -0.0765,16.63241 c -0.0144,5.03196 34.2197,9.14262 76.46353,9.17628 h 0.54993 c 41.98082,0 75.92316,-4.04026 75.93273,-9.05385 l 0.0813,-16.63241 c 0.01,-5.03197 -34.20535,-11.05563 -76.44918,-11.09237 z m -0.53558,-36.74191 h 0.5308 c 21.22711,0.0183 41.28743,1.60386 56.48928,3.43116 4.86325,0.58461 12.95911,1.55795 19.88339,3.64848 l 0.0765,-22.33164 c 0.01,-5.03502 -34.20536,-9.14262 -76.44918,-9.17629 h -0.54037 c -41.9856,0 -75.95186,4.04026 -75.96142,9.0508 l -0.0717,22.38979 c 6.91471,-2.10277 15.04404,-3.06998 19.91208,-3.64848 15.09664,-1.79975 35.03263,-3.36382 56.13064,-3.36382 z"
         inkscape:connector-curvature="0"
         style="fill:none;fill-opacity:1;stroke:#2bc96d;stroke-width:0.59329051;stroke-miterlimit:4;stroke-dasharray:none;stroke-opacity:1" />
    </clipPath>
    <clipPath
       clipPathUnits="userSpaceOnUse"
       id="clipPath4579">
      <path
         style="fill:none;fill-opacity:1;stroke:#2bc96d;stroke-width:0.59329051;stroke-miterlimit:4;stroke-dasharray:none;stroke-opacity:1"
         inkscape:connector-curvature="0"
         d="m 620.59829,374.66954 c 0,0.0306 0.0191,0.0582 0.0191,0.0827 6.91471,-2.09972 15.03926,-3.06693 19.89773,-3.64542 15.09665,-1.79669 35.03742,-2.7884 56.13064,-2.7884 h 0.5308 c 21.22711,0.0153 41.28265,1.03149 56.48928,2.8588 4.86326,0.58461 12.95911,1.55795 19.87861,3.64542 v -0.0276 z m 76.5783,-0.42239 h -0.5308 c -41.99517,0 -75.96142,5.95633 -75.97099,10.96994 l -0.0765,16.63241 c -0.0144,5.03196 34.2197,9.14262 76.46353,9.17628 h 0.54993 c 41.98082,0 75.92316,-4.04026 75.93273,-9.05385 l 0.0813,-16.63241 c 0.01,-5.03197 -34.20535,-11.05563 -76.44918,-11.09237 z m -0.53558,-36.74191 h 0.5308 c 21.22711,0.0183 41.28743,1.60386 56.48928,3.43116 4.86325,0.58461 12.95911,1.55795 19.88339,3.64848 l 0.0765,-22.33164 c 0.01,-5.03502 -34.20536,-9.14262 -76.44918,-9.17629 h -0.54037 c -41.9856,0 -75.95186,4.04026 -75.96142,9.0508 l -0.0717,22.38979 c 6.91471,-2.10277 15.04404,-3.06998 19.91208,-3.64848 15.09664,-1.79975 35.03263,-3.36382 56.13064,-3.36382 z"
         id="path4581"
         clip-path="none"
         sodipodi:nodetypes="cccsccccccscccscccscccccscccs" />
    </clipPath>
  </defs>
  <metadata
     id="metadata4713">
    <rdf:RDF>
      <cc:Work
         rdf:about="">
        <dc:format>image/svg+xml</dc:format>
        <dc:type
           rdf:resource="http://purl.org/dc/dcmitype/StillImage" />
        <dc:title></dc:title>
      </cc:Work>
    </rdf:RDF>
  </metadata>
  <g
     id="layer1"
     inkscape:groupmode="layer"
     inkscape:label="Capa 1">
    <path
       style="opacity:1;fill:#626170;fill-opacity:1;fill-rule:evenodd;stroke:#d6d6dc;stroke-width:2;stroke-linejoin:round;stroke-miterlimit:4;stroke-dasharray:none;stroke-dashoffset:0;stroke-opacity:1;paint-order:normal"
       d="m 97.583979,29.700195 c -11.07875,0 -19.99804,9.65194 -19.99804,21.64062 V 460.66113 c 0,11.9887 8.91929,21.63867 19.99804,21.63867 H 414.41602 c 11.07874,0 19.99804,-9.64997 19.99804,-21.63867 V 113.7959 c -0.33411,-0.32981 -0.46874,-0.43168 -0.81445,-0.77345 -9.64188,-9.53205 -23.80681,-23.701345 -37.64453,-37.822255 -6.91884,-7.06045 -13.75546,-14.10994 -19.9043,-20.56055 -6.14876,-6.45062 -11.60929,-12.30327 -15.77539,-16.97265 -3.0827,-3.45513 -4.82334,-5.68286 -6.625,-7.9668 z"
       id="path4506"
       inkscape:connector-curvature="0"
       sodipodi:nodetypes="ssssssccccccs" />
    <g
       id="g4584"
       transform="matrix(0.3829248,0,0,0.3829248,74.406719,31.973725)"
       style="fill:#75abd3;fill-opacity:1;stroke:#9dc4df;stroke-opacity:1" />
    <path
       style="opacity:1;fill:#d6d6dc;fill-opacity:1;fill-rule:evenodd;stroke:#5d5c6a;stroke-width:1.05900002;stroke-linecap:square;stroke-linejoin:miter;stroke-miterlimit:4;stroke-dasharray:none;stroke-dashoffset:0;stroke-opacity:1;paint-order:markers fill stroke"
       d="M 122.80664 381.44531 C 121.20235 381.44531 119.59843 381.51479 117.99414 381.6543 C 116.45961 381.7938 114.7862 381.96848 112.97266 382.17773 L 89.535156 456.88086 C 91.557952 457.22962 93.372277 457.47378 94.976562 457.61328 C 96.6506 457.82254 98.115566 457.92773 99.371094 457.92773 C 100.62662 457.92773 101.91691 457.85825 103.24219 457.71875 C 104.56747 457.57925 106.03243 457.36885 107.63672 457.08984 L 111.50781 442.75586 C 113.32135 443.24412 115.06424 443.6292 116.73828 443.9082 C 118.41232 444.11746 120.05196 444.2207 121.65625 444.2207 C 123.40004 444.2207 125.14293 444.08174 126.88672 443.80273 C 128.70026 443.52373 130.58407 443.10489 132.53711 442.54688 L 136.51367 457.08984 C 138.11796 457.36885 139.61669 457.57925 141.01172 457.71875 C 142.40675 457.85825 143.80223 457.92773 145.19727 457.92773 C 148.19658 457.92773 151.68432 457.61409 155.66016 456.98633 L 132.53711 382.17773 C 130.51431 381.96848 128.69999 381.7938 127.0957 381.6543 C 125.56117 381.51479 124.13192 381.44531 122.80664 381.44531 z M 122.2832 401.84766 L 128.98047 428.8418 C 127.72494 429.19055 126.50414 429.46848 125.31836 429.67773 C 124.20233 429.81724 123.05101 429.88672 121.86523 429.88672 C 120.74921 429.88672 119.66737 429.78347 118.62109 429.57422 C 117.57482 429.36496 116.45921 429.08509 115.27344 428.73633 L 122.2832 401.84766 z M 180.62109 401.95117 C 177.76128 401.95117 174.69239 402.12585 171.41406 402.47461 C 168.13574 402.75362 165.03308 403.06726 162.10352 403.41602 L 162.10352 457.19531 C 165.03308 457.61382 167.8221 457.92746 170.47266 458.13672 C 173.19297 458.41572 176.26186 458.55469 179.67969 458.55469 C 185.53882 458.55469 190.52724 457.89364 194.64258 456.56836 C 198.82767 455.17333 202.21021 453.22004 204.79102 450.70898 C 207.44157 448.19793 209.35915 445.1628 210.54492 441.60547 C 211.80045 438.04814 212.42773 434.07208 212.42773 429.67773 C 212.42773 425.49264 211.83617 421.69126 210.65039 418.27344 C 209.46461 414.85561 207.58081 411.9614 205 409.58984 C 202.41919 407.14854 199.10614 405.26473 195.06055 403.93945 C 191.08471 402.61417 186.27097 401.95117 180.62109 401.95117 z M 241.76172 401.95117 C 238.6229 401.95117 235.27413 402.09209 231.7168 402.37109 C 228.22922 402.6501 224.84668 402.99751 221.56836 403.41602 L 221.56836 457.19531 C 223.3819 457.54407 224.98583 457.75251 226.38086 457.82227 C 227.77589 457.96177 229.06618 458.0332 230.25195 458.0332 C 231.36798 458.0332 232.65826 457.96177 234.12305 457.82227 C 235.58783 457.75251 237.22748 457.54407 239.04102 457.19531 L 239.04102 416.07617 C 239.73853 415.93667 240.75089 415.86719 242.07617 415.86719 C 244.44772 415.86719 246.15685 416.46071 247.20312 417.64648 C 248.31915 418.76251 248.87695 420.22748 248.87695 422.04102 C 248.87695 423.85456 248.4224 425.56368 247.51562 427.16797 C 246.60885 428.7025 244.93545 430.16747 242.49414 431.5625 L 241.0293 432.39844 L 252.64258 457.08984 C 253.82835 457.36885 255.32904 457.57925 257.14258 457.71875 C 258.95612 457.85825 260.83797 457.92773 262.79102 457.92773 C 264.3953 457.92773 266.03495 457.85825 267.70898 457.71875 C 269.45277 457.57925 271.02294 457.36885 272.41797 457.08984 L 260.49023 434.28125 C 260.9785 433.86274 261.60578 433.30494 262.37305 432.60742 C 263.14031 431.90991 263.8728 431.00274 264.57031 429.88672 C 265.26783 428.70094 265.86135 427.30741 266.34961 425.70312 C 266.83787 424.09884 267.08203 422.21503 267.08203 420.05273 C 267.08203 414.33311 264.95406 409.90445 260.69922 406.76562 C 256.51413 403.55705 250.20166 401.95117 241.76172 401.95117 z M 301.11719 401.95117 C 296.65309 401.95117 292.74651 402.71937 289.39844 404.25391 C 286.05036 405.71869 283.25939 407.74146 281.02734 410.32227 C 278.79529 412.90307 277.12188 415.9382 276.00586 419.42578 C 274.88983 422.91336 274.33203 426.6433 274.33203 430.61914 C 274.33203 434.66473 274.85412 438.39663 275.90039 441.81445 C 277.01642 445.23228 278.69178 448.19793 280.92383 450.70898 C 283.22563 453.15029 286.15556 455.06786 289.71289 456.46289 C 293.33997 457.85792 297.66343 458.55469 302.68555 458.55469 C 309.17244 458.55469 315.52063 457.40532 321.72852 455.10352 C 321.65876 452.3832 321.23992 449.76692 320.47266 447.25586 C 319.77514 444.7448 318.93746 442.58307 317.96094 440.76953 C 315.51963 441.74605 313.04426 442.47854 310.5332 442.9668 C 308.02215 443.45506 305.75522 443.69922 303.73242 443.69922 C 300.5936 443.69922 298.04679 443.1057 296.09375 441.91992 C 294.21046 440.73415 292.88641 438.71138 292.11914 435.85156 L 323.92578 435.85156 C 324.06528 434.87504 324.20425 433.65424 324.34375 432.18945 C 324.553 430.65492 324.6582 428.94579 324.6582 427.0625 C 324.6582 423.43542 324.1004 420.08665 322.98438 417.01758 C 321.9381 413.87876 320.40365 411.2287 318.38086 409.06641 C 316.35806 406.83436 313.88074 405.09147 310.95117 403.83594 C 308.09136 402.58041 304.81402 401.95117 301.11719 401.95117 z M 353.65039 401.95117 C 350.30232 401.95117 347.23342 402.37001 344.44336 403.20703 C 341.72305 404.04405 339.35092 405.26485 337.32812 406.86914 C 335.30533 408.40367 333.73712 410.28748 332.62109 412.51953 C 331.50507 414.75158 330.94727 417.22695 330.94727 419.94727 C 330.94727 424.27186 332.16807 427.69012 334.60938 430.20117 C 337.05068 432.71223 340.11957 434.49084 343.81641 435.53711 L 350.92969 437.52539 C 352.11546 437.87415 353.16354 438.29299 354.07031 438.78125 C 354.97708 439.19976 355.42969 439.86276 355.42969 440.76953 C 355.42969 441.46705 355.18553 442.02485 354.69727 442.44336 C 354.27876 442.86187 353.72095 443.20928 353.02344 443.48828 C 352.32592 443.69754 351.52396 443.83845 350.61719 443.9082 C 349.71042 443.97795 348.83702 444.01172 348 444.01172 C 345.5587 444.01172 343.11904 443.76756 340.67773 443.2793 C 338.23643 442.72128 335.90002 441.91932 333.66797 440.87305 C 331.43592 445.75566 330.14368 450.56939 329.79492 455.3125 C 333.00349 456.49828 336.03862 457.334 338.89844 457.82227 C 341.75825 458.31053 344.86286 458.55469 348.21094 458.55469 C 352.25653 458.55469 355.81374 458.06637 358.88281 457.08984 C 362.02163 456.11332 364.63597 454.78927 366.72852 453.11523 C 368.89081 451.4412 370.4967 449.45219 371.54297 447.15039 C 372.65899 444.84859 373.2168 442.37322 373.2168 439.72266 C 373.2168 437.14185 372.86744 434.9444 372.16992 433.13086 C 371.47241 431.31732 370.49576 429.78287 369.24023 428.52734 C 368.05446 427.27182 366.58949 426.26141 364.8457 425.49414 C 363.17167 424.65712 361.28786 423.9584 359.19531 423.40039 L 352.39453 421.62109 C 351.41801 421.34209 350.54656 420.99468 349.7793 420.57617 C 349.01203 420.15766 348.62891 419.56414 348.62891 418.79688 C 348.62891 416.98333 350.26855 416.07617 353.54688 416.07617 C 355.77892 416.07617 358.21858 416.38981 360.86914 417.01758 C 363.5197 417.64534 365.78663 418.34406 367.66992 419.11133 C 368.64644 417.15828 369.51984 414.92512 370.28711 412.41406 C 371.05438 409.83325 371.50698 407.42736 371.64648 405.19531 C 368.57742 404.14904 365.4728 403.34707 362.33398 402.78906 C 359.19516 402.23105 356.30095 401.95117 353.65039 401.95117 z M 402.89844 401.95117 C 399.55036 401.95117 396.48147 402.37001 393.69141 403.20703 C 390.9711 404.04405 388.60092 405.26485 386.57812 406.86914 C 384.55533 408.40367 382.98517 410.28748 381.86914 412.51953 C 380.75312 414.75158 380.19531 417.22695 380.19531 419.94727 C 380.19531 424.27186 381.41612 427.69012 383.85742 430.20117 C 386.29873 432.71223 389.36762 434.49084 393.06445 435.53711 L 400.17969 437.52539 C 401.36546 437.87415 402.41159 438.29299 403.31836 438.78125 C 404.22513 439.19976 404.67773 439.86276 404.67773 440.76953 C 404.67773 441.46705 404.43357 442.02485 403.94531 442.44336 C 403.5268 442.86187 402.969 443.20928 402.27148 443.48828 C 401.57397 443.69754 400.772 443.83845 399.86523 443.9082 C 398.95846 443.97795 398.08702 444.01172 397.25 444.01172 C 394.8087 444.01172 392.36709 443.76756 389.92578 443.2793 C 387.48448 442.72128 385.14807 441.91932 382.91602 440.87305 C 380.68397 445.75566 379.39368 450.56939 379.04492 455.3125 C 382.25349 456.49828 385.28667 457.334 388.14648 457.82227 C 391.0063 458.31053 394.11091 458.55469 397.45898 458.55469 C 401.50457 458.55469 405.06179 458.06637 408.13086 457.08984 C 411.26968 456.11332 413.88597 454.78927 415.97852 453.11523 C 418.14081 451.4412 419.74474 449.45219 420.79102 447.15039 C 421.90704 444.84859 422.46484 442.37322 422.46484 439.72266 C 422.46484 437.14185 422.11548 434.9444 421.41797 433.13086 C 420.72045 431.31732 419.74381 429.78287 418.48828 428.52734 C 417.3025 427.27182 415.83754 426.26141 414.09375 425.49414 C 412.41971 424.65712 410.53786 423.9584 408.44531 423.40039 L 401.64453 421.62109 C 400.66801 421.34209 399.79461 420.99468 399.02734 420.57617 C 398.26008 420.15766 397.87695 419.56414 397.87695 418.79688 C 397.87695 416.98333 399.5166 416.07617 402.79492 416.07617 C 405.02697 416.07617 407.46858 416.38981 410.11914 417.01758 C 412.7697 417.64534 415.03663 418.34406 416.91992 419.11133 C 417.89644 417.15828 418.76789 414.92512 419.53516 412.41406 C 420.30242 409.83325 420.75503 407.42736 420.89453 405.19531 C 417.82546 404.14904 414.7228 403.34707 411.58398 402.78906 C 408.44516 402.23105 405.549 401.95117 402.89844 401.95117 z M 300.48828 415.24023 C 303.06909 415.24023 305.02238 416.07596 306.34766 417.75 C 307.74269 419.35429 308.51089 421.37705 308.65039 423.81836 L 291.91016 423.81836 C 292.18916 420.88879 293.13009 418.72706 294.73438 417.33203 C 296.33866 415.937 298.25623 415.24023 300.48828 415.24023 z M 183.65625 416.80859 C 187.14383 416.80859 189.8296 417.85472 191.71289 419.94727 C 193.59618 421.97006 194.53711 425.21363 194.53711 429.67773 C 194.53711 434.69985 193.56047 438.32654 191.60742 440.55859 C 189.72413 442.72089 186.82992 443.80273 182.92383 443.80273 C 182.01706 443.80273 181.31834 443.76897 180.83008 443.69922 C 180.41157 443.62947 180.06416 443.59375 179.78516 443.59375 L 179.78516 417.12305 C 180.13391 417.0533 180.656 416.98381 181.35352 416.91406 C 182.05103 416.84431 182.81923 416.80859 183.65625 416.80859 z "
       id="rect4610-6" />
    <path
       style="opacity:1;fill:#d6d6dc;fill-opacity:1;fill-rule:evenodd;stroke:#5d5c6a;stroke-width:2.04551268;stroke-linecap:square;stroke-linejoin:miter;stroke-miterlimit:4;stroke-dasharray:none;stroke-dashoffset:0;stroke-opacity:1;paint-order:markers fill stroke"
       d="m 263.39394,141.54883 c -19.87032,0 -38.45068,5.00299 -55.74242,15.01398 -17.14004,10.011 -30.79182,23.511 -40.95451,40.49938 -10.01101,16.83667 -15.01695,34.96465 -15.01695,54.37993 0,16.53333 4.55059,31.77737 13.65151,45.73209 9.25258,13.95473 21.84187,24.95176 37.76846,32.99091 15.9266,8.19081 33.29565,12.28606 52.1042,12.28606 17.29172,0 34.43161,-3.18751 51.41997,-9.55815 l -6.37208,-15.24304 c -17.29173,4.85381 -31.92865,7.27942 -43.91151,7.27942 -24.11742,0 -44.36742,-7.35417 -60.74906,-22.06732 -16.38163,-14.8648 -24.57211,-33.14458 -24.57211,-54.83508 0,-23.81406 8.875,-44.59383 26.62178,-62.34058 17.89845,-17.74678 38.83,-26.61882 62.79573,-26.61882 21.6905,0 40.42266,6.9018 56.19757,20.70484 15.92658,13.80305 23.89087,30.184 23.89087,49.14423 0,13.34799 -3.94345,25.40753 -11.83089,36.17693 -7.88747,10.76941 -16.68508,16.15335 -26.39273,16.15335 -3.03363,0 -5.6884,-0.98512 -7.96361,-2.95698 -2.27523,-1.97187 -3.41215,-4.32305 -3.41215,-7.05333 0,-2.27523 0.90775,-6.06987 2.72793,-11.37874 l 20.47875,-63.70604 h -18.88425 l -5.00664,15.01696 c -5.76391,-13.19632 -15.01689,-19.79454 -27.75816,-19.79454 -15.31987,0 -28.89427,6.37202 -40.72546,19.1133 -11.83118,12.74128 -17.74784,27.37819 -17.74784,43.91151 0,11.83118 3.49107,21.76571 10.46842,29.80485 7.12906,7.88745 16.00108,11.83092 26.61881,11.83092 11.52782,0 22.29569,-5.46133 32.30667,-16.38241 2.12356,11.6795 10.4688,17.52175 25.03025,17.52175 19.11191,0 34.20419,-7.20535 45.27695,-21.61513 11.07278,-14.40977 16.6085,-30.86812 16.6085,-49.3733 0,-23.05564 -9.55655,-42.92469 -28.66847,-59.60969 -18.96023,-16.68501 -41.71321,-25.02727 -68.25753,-25.02726 z m -2.27574,64.38728 c 6.06726,0 11.15059,1.97321 15.246,5.91695 4.09541,3.94372 6.14304,8.79789 6.14304,14.56179 0,11.52783 -3.4881,23.58438 -10.46547,36.17397 -6.82568,12.58959 -15.16795,18.88424 -25.02726,18.88424 -6.21895,0 -11.52848,-2.57739 -15.92725,-7.73458 -4.39877,-5.30886 -6.59818,-11.68088 -6.59818,-19.11328 0,-12.74128 3.71428,-24.04187 11.1467,-33.9012 7.4324,-9.85932 15.92646,-14.78789 25.48242,-14.78789 z"
       id="rect4662"
       inkscape:connector-curvature="0" />
    <path
       style="opacity:1;fill:#ffffff;fill-opacity:1;fill-rule:evenodd;stroke:none;stroke-width:1.13259768;stroke-linecap:square;stroke-linejoin:miter;stroke-miterlimit:4;stroke-dasharray:none;stroke-dashoffset:0;stroke-opacity:1;paint-order:markers fill stroke"
       d="m 433.41016,153 h -23.12942 c -11.70957,0 -21.1359,9.38314 -21.1359,21.03906 v 22.92188 c 0,11.65592 9.42633,21.03906 21.1359,21.03906 h 23.12942 z"
       id="path4691"
       inkscape:connector-curvature="0" />
    <path
       style="opacity:1;fill:#8694ff;fill-opacity:1;fill-rule:evenodd;stroke:none;stroke-width:1.22759724;stroke-linecap:square;stroke-linejoin:miter;stroke-miterlimit:4;stroke-dasharray:none;stroke-dashoffset:0;stroke-opacity:1;paint-order:markers fill stroke"
       d="m 433.41016,221 h -38.75767 c -11.70957,0 -21.1359,9.38314 -21.1359,21.03906 v 22.92188 c 0,11.65592 9.42633,21.03906 21.1359,21.03906 h 38.75767 z"
       id="path4694"
       inkscape:connector-curvature="0" />
    <path
       style="opacity:1;fill:#9eff86;fill-opacity:1;fill-rule:evenodd;stroke:none;stroke-width:1.31769025;stroke-linecap:square;stroke-linejoin:miter;stroke-miterlimit:4;stroke-dasharray:none;stroke-dashoffset:0;stroke-opacity:1;paint-order:markers fill stroke"
       d="m 433.41016,289 h -54.73909 c -11.70957,0 -21.13787,9.38314 -21.13787,21.03906 v 22.92188 c 0,11.65592 9.4283,21.03906 21.13787,21.03906 h 54.73909 z"
       id="path4697"
       inkscape:connector-curvature="0" />
    <path
       style="opacity:1;fill:url(#linearGradient6771);fill-opacity:1;fill-rule:evenodd;stroke:none;stroke-width:8.77774811;stroke-linecap:square;stroke-linejoin:miter;stroke-miterlimit:4;stroke-dasharray:none;stroke-dashoffset:0;stroke-opacity:1;paint-order:markers fill stroke"
       d="m 433.28939,182.37584 v -69.47028 c 0,-0.0394 -0.0309,-0.0705 -0.0703,-0.0705 h -67.33747 c 4.09851,4.50878 8.40749,9.2132 13.77948,14.86279 7.205,7.57734 15.21697,15.8602 23.32513,24.15489 11.13885,11.3951 20.83136,21.05949 30.30308,30.52302 z"
       id="path4566"
       inkscape:connector-curvature="0" />
    <path
       style="opacity:1;fill:#d6d6dc;fill-opacity:1;fill-rule:evenodd;stroke:none;stroke-width:1.05391276;stroke-linejoin:round;stroke-miterlimit:4;stroke-dasharray:none;stroke-dashoffset:0;stroke-opacity:1;paint-order:normal"
       d="m 435.00048,114.60612 c -1.83541,-2.30475 -3.6077,-4.55306 -6.74972,-8.04125 -4.24635,-4.71409 -9.8132,-10.623129 -16.08223,-17.137261 C 405.8996,82.913483 398.92921,75.794273 391.8744,68.663457 377.76477,54.401804 363.32068,40.090503 353.48814,30.462087 c -0.35278,-0.345219 -0.4898,-0.448268 -0.83055,-0.781422 l -0.24394,62.802323 c -0.0467,12.055462 9.04538,21.800782 20.38588,21.850482 z"
       id="rect4485"
       inkscape:connector-curvature="0" />
  </g>
</svg>
