<?xml version="1.0" encoding="UTF-8" standalone="no"?>
<!-- Created with Inkscape (http://www.inkscape.org/) -->

<svg
   xmlns:osb="http://www.openswatchbook.org/uri/2009/osb"
   xmlns:dc="http://purl.org/dc/elements/1.1/"
   xmlns:cc="http://creativecommons.org/ns#"
   xmlns:rdf="http://www.w3.org/1999/02/22-rdf-syntax-ns#"
   xmlns:svg="http://www.w3.org/2000/svg"
   xmlns="http://www.w3.org/2000/svg"
   xmlns:xlink="http://www.w3.org/1999/xlink"
   xmlns:sodipodi="http://sodipodi.sourceforge.net/DTD/sodipodi-0.dtd"
   xmlns:inkscape="http://www.inkscape.org/namespaces/inkscape"
   width="512px"
   height="512px"
   viewBox="0 0 512 512"
   version="1.1"
   id="SVGRoot"
   inkscape:version="0.92.1 r15371"
   sodipodi:docname="afm.svg">
  <sodipodi:namedview
     id="base"
     pagecolor="#ffffff"
     bordercolor="#666666"
     borderopacity="1.0"
     inkscape:pageopacity="0.0"
     inkscape:pageshadow="2"
     inkscape:zoom="1"
     inkscape:cx="468.94376"
     inkscape:cy="255.55986"
     inkscape:document-units="px"
     inkscape:current-layer="layer1"
     showgrid="false"
     inkscape:window-width="1280"
     inkscape:window-height="947"
     inkscape:window-x="0"
     inkscape:window-y="0"
     inkscape:window-maximized="1" />
  <defs
     id="defs4710">
    <linearGradient
       inkscape:collect="always"
       id="linearGradient4573">
      <stop
         style="stop-color:#181818;stop-opacity:0.30645162"
         offset="0"
         id="stop4569" />
      <stop
         style="stop-color:#404040;stop-opacity:0"
         offset="1"
         id="stop4571" />
    </linearGradient>
    <marker
       inkscape:stockid="DotM"
       orient="auto"
       refY="0.0"
       refX="0.0"
       id="DotM"
       style="overflow:visible"
       inkscape:isstock="true">
      <path
         id="path4618"
         d="M -2.5,-1.0 C -2.5,1.7600000 -4.7400000,4.0 -7.5,4.0 C -10.260000,4.0 -12.5,1.7600000 -12.5,-1.0 C -12.5,-3.7600000 -10.260000,-6.0 -7.5,-6.0 C -4.7400000,-6.0 -2.5,-3.7600000 -2.5,-1.0 z "
         style="fill-rule:evenodd;stroke:#000000;stroke-width:1.0pt"
         transform="scale(0.4) translate(7.4, 1)" />
    </marker>
    <linearGradient
       osb:paint="solid"
       id="linearGradient5207">
      <stop
         id="stop5209"
         offset="0"
         style="stop-color:#000015;stop-opacity:1;" />
    </linearGradient>
    <clipPath
       id="clipPath3006-9-8"
       clipPathUnits="userSpaceOnUse">
      <path
         inkscape:export-ydpi="90"
         inkscape:export-xdpi="90"
         transform="matrix(1.2020779,0,0,1.2020779,-93.20363,-75.172465)"
         d="m 483,275.5 a 192.5,192.5 0 1 1 -385,0 192.5,192.5 0 1 1 385,0 z"
         sodipodi:ry="192.5"
         sodipodi:rx="192.5"
         sodipodi:cy="275.5"
         sodipodi:cx="290.5"
         id="path3008-1-1"
         style="fill:#ffffff;fill-opacity:1;stroke:none;display:inline"
         sodipodi:type="arc" />
    </clipPath>
    <mask
       id="mask3818-4"
       maskUnits="userSpaceOnUse">
      <path
         sodipodi:type="arc"
         style="fill:#ffffff;fill-opacity:1;stroke:none;display:inline"
         id="path3820-9"
         sodipodi:cx="290.5"
         sodipodi:cy="275.5"
         sodipodi:rx="192.5"
         sodipodi:ry="192.5"
         d="m 483,275.5 a 192.5,192.5 0 1 1 -385,0 192.5,192.5 0 1 1 385,0 z"
         transform="matrix(1.2020779,0,0,1.2020779,-93.20363,-75.172466)"
         inkscape:export-xdpi="90"
         inkscape:export-ydpi="90" />
    </mask>
    <clipPath
       id="clipPath3006"
       clipPathUnits="userSpaceOnUse">
      <path
         inkscape:export-ydpi="90"
         inkscape:export-xdpi="90"
         transform="matrix(1.2020779,0,0,1.2020779,-93.20363,-75.172465)"
         d="m 483,275.5 a 192.5,192.5 0 1 1 -385,0 192.5,192.5 0 1 1 385,0 z"
         sodipodi:ry="192.5"
         sodipodi:rx="192.5"
         sodipodi:cy="275.5"
         sodipodi:cx="290.5"
         id="path3008"
         style="fill:#ffffff;fill-opacity:1;stroke:none;display:inline"
         sodipodi:type="arc" />
    </clipPath>
    <clipPath
       id="clipPath3006-9"
       clipPathUnits="userSpaceOnUse">
      <path
         inkscape:export-ydpi="90"
         inkscape:export-xdpi="90"
         transform="matrix(1.2020779,0,0,1.2020779,-93.20363,-75.172465)"
         d="m 483,275.5 a 192.5,192.5 0 1 1 -385,0 192.5,192.5 0 1 1 385,0 z"
         sodipodi:ry="192.5"
         sodipodi:rx="192.5"
         sodipodi:cy="275.5"
         sodipodi:cx="290.5"
         id="path3008-1"
         style="fill:#ffffff;fill-opacity:1;stroke:none;display:inline"
         sodipodi:type="arc" />
    </clipPath>
    <mask
       maskUnits="userSpaceOnUse"
       id="mask3818-0">
      <path
         inkscape:export-ydpi="90"
         inkscape:export-xdpi="90"
         transform="matrix(1.2020779,0,0,1.2020779,-93.20363,-75.172466)"
         d="m 483,275.5 a 192.5,192.5 0 1 1 -385,0 192.5,192.5 0 1 1 385,0 z"
         sodipodi:ry="192.5"
         sodipodi:rx="192.5"
         sodipodi:cy="275.5"
         sodipodi:cx="290.5"
         id="path3820-8"
         style="fill:#ffffff;fill-opacity:1;stroke:none;display:inline"
         sodipodi:type="arc" />
    </mask>
    <mask
       maskUnits="userSpaceOnUse"
       id="mask3818-2">
      <path
         inkscape:export-ydpi="90"
         inkscape:export-xdpi="90"
         transform="matrix(1.2020779,0,0,1.2020779,-93.20363,-75.172466)"
         d="m 483,275.5 a 192.5,192.5 0 1 1 -385,0 192.5,192.5 0 1 1 385,0 z"
         sodipodi:ry="192.5"
         sodipodi:rx="192.5"
         sodipodi:cy="275.5"
         sodipodi:cx="290.5"
         id="path3820-2-2"
         style="fill:#ffffff;fill-opacity:1;stroke:none;display:inline"
         sodipodi:type="arc" />
    </mask>
    <clipPath
       id="clipPath3934"
       clipPathUnits="userSpaceOnUse">
      <path
         id="path3936"
         d="m 0,0 0,1024 1024,0 L 1024,0 0,0 z m 278.4375,333.84375 119.78125,0 c 9.83697,42.31453 19.85954,84.58596 29.9375,126.84375 9.86978,-42.28798 20.05132,-84.50237 29.6875,-126.84375 l 108.90625,0 c 9.63586,42.34141 19.8178,84.55578 29.6875,126.84375 10.07827,-42.25772 20.10031,-84.52927 29.9375,-126.84375 l 119.1875,0 c -26.26221,110.73099 -52.49625,221.46929 -78.28125,332.3125 l -122.8125,0 c -10.59439,-45.55681 -21.46638,-91.04874 -32.375,-136.53125 -10.66279,45.51136 -21.5615,90.96897 -32,136.53125 l -122.8125,0 c -25.71418,-110.03502 -52.0286,-219.92873 -78.25,-329.84375 l -0.59375,-2.46875 z"
         style="fill:#ff3232;fill-opacity:1;stroke:none"
         inkscape:connector-curvature="0" />
    </clipPath>
    <clipPath
       id="clipPath3929"
       clipPathUnits="userSpaceOnUse">
      <path
         inkscape:connector-curvature="0"
         style="fill:#ff3232;fill-opacity:1;stroke:none"
         d="m 0,0 0,1024 1024,0 L 1024,0 0,0 z m 278.4375,333.84375 119.78125,0 c 9.83697,42.31453 19.85954,84.58596 29.9375,126.84375 9.86978,-42.28798 20.05132,-84.50237 29.6875,-126.84375 l 108.90625,0 c 9.63586,42.34141 19.8178,84.55578 29.6875,126.84375 10.07827,-42.25772 20.10031,-84.52927 29.9375,-126.84375 l 119.1875,0 c -26.26221,110.73099 -52.49625,221.46929 -78.28125,332.3125 l -122.8125,0 c -10.59439,-45.55681 -21.46638,-91.04874 -32.375,-136.53125 -10.66279,45.51136 -21.5615,90.96897 -32,136.53125 l -122.8125,0 c -25.71418,-110.03502 -52.0286,-219.92873 -78.25,-329.84375 l -0.59375,-2.46875 z"
         id="path3931" />
    </clipPath>
    <mask
       maskUnits="userSpaceOnUse"
       id="mask3818">
      <path
         inkscape:export-ydpi="90"
         inkscape:export-xdpi="90"
         transform="matrix(1.2020779,0,0,1.2020779,-93.20363,-75.172466)"
         d="m 483,275.5 a 192.5,192.5 0 1 1 -385,0 192.5,192.5 0 1 1 385,0 z"
         sodipodi:ry="192.5"
         sodipodi:rx="192.5"
         sodipodi:cy="275.5"
         sodipodi:cx="290.5"
         id="path3820"
         style="fill:#ffffff;fill-opacity:1;stroke:none;display:inline"
         sodipodi:type="arc" />
    </mask>
    <linearGradient
       inkscape:collect="always"
       xlink:href="#linearGradient4573"
       id="linearGradient4575"
       x1="408.84314"
       y1="89.26915"
       x2="420.61133"
       y2="138.41306"
       gradientUnits="userSpaceOnUse"
       gradientTransform="matrix(0.99657796,0,0,1,1.2520606,0)" />
    <linearGradient
       inkscape:collect="always"
       xlink:href="#linearGradient4573"
       id="linearGradient6771"
       gradientUnits="userSpaceOnUse"
       gradientTransform="matrix(0.99657796,0,0,1,1.2520606,0)"
       x1="408.84314"
       y1="89.26915"
       x2="420.61133"
       y2="138.41306" />
  </defs>
  <metadata
     id="metadata4713">
    <rdf:RDF>
      <cc:Work
         rdf:about="">
        <dc:format>image/svg+xml</dc:format>
        <dc:type
           rdf:resource="http://purl.org/dc/dcmitype/StillImage" />
        <dc:title></dc:title>
      </cc:Work>
    </rdf:RDF>
  </metadata>
  <g
     id="layer1"
     inkscape:groupmode="layer"
     inkscape:label="Capa 1">
    <path
       style="opacity:1;fill:#f5f7f8;fill-opacity:1;fill-rule:evenodd;stroke:#7794a1;stroke-width:2;stroke-linejoin:round;stroke-miterlimit:4;stroke-dasharray:none;stroke-dashoffset:0;stroke-opacity:1;paint-order:normal"
       d="m 97.583979,29.700195 c -11.07875,0 -19.99804,9.65194 -19.99804,21.64062 V 460.66113 c 0,11.9887 8.91929,21.63867 19.99804,21.63867 H 414.41602 c 11.07874,0 19.99804,-9.64997 19.99804,-21.63867 V 113.7959 c -0.33411,-0.32981 -0.46874,-0.43168 -0.81445,-0.77345 -9.64188,-9.53205 -23.80681,-23.701345 -37.64453,-37.822255 -6.91884,-7.06045 -13.75546,-14.10994 -19.9043,-20.56055 -6.14876,-6.45062 -11.60929,-12.30327 -15.77539,-16.97265 -3.0827,-3.45513 -4.82334,-5.68286 -6.625,-7.9668 z"
       id="path4506"
       inkscape:connector-curvature="0"
       sodipodi:nodetypes="ssssssccccccs" />
    <g
       id="g4584"
       transform="matrix(0.3829248,0,0,0.3829248,74.406719,31.973725)"
       style="fill:#75abd3;fill-opacity:1;stroke:#9dc4df;stroke-opacity:1" />
    <path
       style="opacity:1;fill:#ccd7dc;fill-opacity:1;fill-rule:evenodd;stroke:#7794a1;stroke-width:1.14248979;stroke-linecap:square;stroke-linejoin:miter;stroke-miterlimit:4;stroke-dasharray:none;stroke-dashoffset:0;stroke-opacity:1;paint-order:markers fill stroke"
       d="M 134.50586 381.44531 C 132.90157 381.44531 131.29765 381.51479 129.69336 381.6543 C 128.15883 381.7938 126.48542 381.96848 124.67188 382.17773 L 101.23438 456.88086 C 103.25717 457.22962 105.0715 457.47378 106.67578 457.61328 C 108.34982 457.82254 109.81478 457.92773 111.07031 457.92773 C 112.32584 457.92773 113.61613 457.85825 114.94141 457.71875 C 116.26669 457.57925 117.73165 457.36885 119.33594 457.08984 L 123.20703 442.75586 C 125.02057 443.24412 126.76346 443.6292 128.4375 443.9082 C 130.11154 444.11746 131.75118 444.2207 133.35547 444.2207 C 135.09926 444.2207 136.84215 444.08174 138.58594 443.80273 C 140.39948 443.52373 142.28328 443.10489 144.23633 442.54688 L 148.21289 457.08984 C 149.81718 457.36885 151.31591 457.57925 152.71094 457.71875 C 154.10597 457.85825 155.50145 457.92773 156.89648 457.92773 C 159.8958 457.92773 163.38354 457.61409 167.35938 456.98633 L 144.23633 382.17773 C 142.21353 381.96848 140.40116 381.7938 138.79688 381.6543 C 137.26234 381.51479 135.83114 381.44531 134.50586 381.44531 z M 239.27344 381.44531 C 237.80865 381.44531 236.20473 381.54856 234.46094 381.75781 C 232.7869 381.89732 231.21869 382.072 229.75391 382.28125 L 226.71875 456.98633 C 229.92732 457.61409 232.75205 457.92773 235.19336 457.92773 C 237.84392 457.92773 240.63489 457.61409 243.56445 456.98633 L 244.71484 414.08789 L 254.96875 442.23242 C 256.15453 442.51143 257.30585 442.72183 258.42188 442.86133 C 259.5379 442.93108 260.61779 442.96484 261.66406 442.96484 C 262.71034 442.96484 263.86166 442.89536 265.11719 442.75586 C 266.37272 442.61636 267.62924 442.44168 268.88477 442.23242 L 280.39258 413.66992 L 281.85742 456.98633 C 285.2055 457.61409 288.09971 457.92773 290.54102 457.92773 C 292.77307 457.92773 294.55167 457.82254 295.87695 457.61328 C 297.27198 457.40403 298.52851 457.19558 299.64453 456.98633 L 296.08789 382.28125 C 294.62311 382.072 293.12242 381.89732 291.58789 381.75781 C 290.05336 381.54856 288.55463 381.44531 287.08984 381.44531 C 285.69481 381.44531 284.26361 381.54856 282.79883 381.75781 C 281.4038 381.89732 280.00831 382.072 278.61328 382.28125 L 263.23438 421.20312 L 248.37695 382.28125 C 246.98192 382.072 245.44747 381.89732 243.77344 381.75781 C 242.16915 381.54856 240.66847 381.44531 239.27344 381.44531 z M 174.2207 382.07227 L 174.2207 456.98633 C 177.84778 457.61409 180.9524 457.92773 183.5332 457.92773 C 185.97451 457.92773 189.0434 457.61409 192.74023 456.98633 L 192.74023 427.58594 L 212.93359 427.58594 C 213.56136 424.44712 213.875 421.69187 213.875 419.32031 C 213.875 417.01851 213.56136 414.29702 212.93359 411.1582 L 192.74023 411.1582 L 192.74023 398.39453 L 218.37305 398.39453 C 218.93106 395.18596 219.21094 392.43071 219.21094 390.12891 C 219.21094 388.94313 219.14146 387.68661 219.00195 386.36133 C 218.86245 385.03605 218.65205 383.6068 218.37305 382.07227 L 174.2207 382.07227 z M 133.98242 401.84766 L 140.67969 428.8418 C 139.42416 429.19055 138.20335 429.46848 137.01758 429.67773 C 135.90155 429.81724 134.75023 429.88672 133.56445 429.88672 C 132.44843 429.88672 131.36854 429.78347 130.32227 429.57422 C 129.27599 429.36496 128.15843 429.08509 126.97266 428.73633 L 133.98242 401.84766 z "
       id="rect4610" />
    <path
       style="opacity:1;fill:url(#linearGradient6771);fill-opacity:1;fill-rule:evenodd;stroke:none;stroke-width:8.77774811;stroke-linecap:square;stroke-linejoin:miter;stroke-miterlimit:4;stroke-dasharray:none;stroke-dashoffset:0;stroke-opacity:1;paint-order:markers fill stroke"
       d="m 433.28939,182.37584 v -69.47028 c 0,-0.0394 -0.0309,-0.0705 -0.0703,-0.0705 h -67.33747 c 4.09851,4.50878 8.40749,9.2132 13.77948,14.86279 7.205,7.57734 15.21697,15.8602 23.32513,24.15489 11.13885,11.3951 20.83136,21.05949 30.30308,30.52302 z"
       id="path4566"
       inkscape:connector-curvature="0" />
    <g
       id="g7106"
       transform="translate(-429,-161)">
      <path
         id="rect7093"
         style="opacity:1;fill:#e6ebee;fill-opacity:1;fill-rule:evenodd;stroke:none;stroke-width:2.63473868;stroke-linecap:square;stroke-linejoin:miter;stroke-miterlimit:4;stroke-dasharray:none;stroke-dashoffset:0;stroke-opacity:1;paint-order:markers fill stroke"
         d="m 555.64648,303.33594 v 24.4707 H 538.5625 v 8.08008 h 15.23828 c -3.77068,15.39055 -9.73559,29.39537 -17.89258,42.01562 1.38515,3.15507 2.69259,6.73479 3.92383,10.73633 6.31013,-9.23433 11.58205,-20.89421 15.81445,-34.97656 v 61.75586 h 8.31055 v -60.48438 c 2.92421,4.38631 5.88752,9.11839 8.88867,14.19727 l 6.69532,-4.84766 c -3.15507,-4.84802 -6.81135,-10.11995 -10.9668,-15.81445 l -4.61719,3.46289 v -16.04492 h 15.35352 v -8.08008 h -15.35352 v -24.4707 z m 58.17579,0.3457 -7.61719,3.34766 c 2.7703,6.46403 5.81017,14.54419 9.11914,24.24023 l 8.08008,-3.92383 c -3.53983,-9.00347 -6.73478,-16.89222 -9.58203,-23.66406 z m 28.62695,3.46289 c -4.2324,10.61948 -8.3883,19.85395 -12.4668,27.70313 l 7.38867,4.15625 c 5.23279,-10.54253 9.61838,-19.93208 13.15821,-28.16602 z m -53.78906,2.19336 -7.27344,3.92578 c 3.38592,7.0027 6.81056,14.81294 10.27344,23.43164 l 7.73437,-4.73242 c -2.61639,-6.07927 -6.19416,-13.62153 -10.73437,-22.625 z m 88.1875,9.92773 c -1.61601,12.3894 -2.98185,22.77817 -4.09766,31.16602 -1.11581,8.34937 -2.23184,15.39007 -3.34766,21.12305 -1.11581,5.6945 -2.23184,10.00353 -3.34765,12.92773 -1.11582,2.88573 -2.32852,4.9627 -3.63672,6.23242 -1.26972,1.23125 -2.92364,1.84766 -4.96289,1.84766 -1.42363,0 -2.50137,-0.13496 -3.23242,-0.4043 v 8.77344 c 1.07733,0.38476 2.73321,0.57617 4.96484,0.57617 5.00193,0 8.8879,-1.42228 11.6582,-4.26953 2.7703,-2.88573 5.0588,-7.69632 6.86719,-14.42969 1.84687,-6.73336 3.7506,-17.75671 5.71289,-33.07031 L 686.25391,328.5 h 24.125 v 72.08398 h 10.73632 v -81.31836 z m -70.18164,13.27344 c -2.23163,6.92575 -4.61681,13.62191 -7.15625,20.08594 h -17.77539 v 8.07812 h 14.54296 c -2.7703,6.46404 -5.65509,12.69886 -8.65625,18.70118 8.23395,4.3863 15.92934,8.69533 23.08594,12.92773 -7.61832,5.84841 -19.1614,10.81213 -34.62891,14.89063 1.84687,2.9242 3.34767,5.80899 4.50196,8.65625 17.08351,-5.5406 29.74066,-11.77348 37.97461,-18.69922 10.00385,6.23317 18.93207,12.50433 26.78125,18.81445 l 4.96289,-8.77148 c -8.23395,-5.61755 -16.69887,-11.04261 -25.39453,-16.27539 6.92574,-7.84918 11.85118,-17.93171 14.77539,-30.24415 h 11.42773 V 352.625 h -42.47851 c 2.38553,-5.5406 4.73243,-11.15901 7.04101,-16.85352 z m -1.5,28.16406 h 25.85546 c -2.38553,9.773 -7.00276,18.35473 -13.85156,25.74219 -6.15622,-3.61678 -12.42737,-7.0797 -18.81445,-10.38867 2.30858,-5.07888 4.57892,-10.19768 6.81055,-15.35352 z m 152.77343,0.16602 c -0.63039,0 -1.77489,0.82763 -3.42968,2.48242 -1.6548,1.65479 -2.48047,2.79734 -2.48047,3.42774 0,0.70919 0.78729,1.89208 2.36328,3.54687 1.65479,1.57599 2.83768,2.36328 3.54687,2.36328 0.7092,0 1.85175,-0.78729 3.42774,-2.36328 1.65479,-1.65479 2.48047,-2.79734 2.48047,-3.42773 0,-0.6304 -0.82568,-1.77295 -2.48047,-3.42774 -1.57599,-1.73359 -2.71854,-2.60156 -3.42774,-2.60156 z m 16.54688,0 c -0.6304,0 -1.77294,0.82763 -3.42774,2.48242 -1.65479,1.65479 -2.48242,2.79734 -2.48242,3.42774 0,0.70919 0.78924,1.89208 2.36524,3.54687 1.65479,1.57599 2.83572,2.36328 3.54492,2.36328 0.70919,0 1.85174,-0.78729 3.42773,-2.36328 1.65479,-1.65479 2.48242,-2.79734 2.48242,-3.42773 0,-0.6304 -0.82763,-1.77295 -2.48242,-3.42774 -1.57599,-1.73359 -2.71854,-2.60156 -3.42773,-2.60156 z m 19.97656,14.06641 c -1.57599,0 -2.36523,1.06381 -2.36523,3.1914 v 17.73047 h -52.00782 v -0.5918 l 3.31055,-9.45507 c 0.1576,-0.4728 0.23633,-0.82806 0.23633,-1.06446 0,-0.70919 -0.27653,-1.2603 -0.82813,-1.65429 -0.47279,-0.394 -1.0239,-0.5918 -1.65429,-0.5918 -1.2608,0 -2.04809,0.5511 -2.36328,1.6543 l -3.31055,9.45703 v 6.97265 h 61.46289 v -22.45703 c 0,-2.12759 -0.82568,-3.1914 -2.48047,-3.1914 z M 571.12109,221.39258 c -1.10933,0 -2.18461,0.0342 -3.22461,0.10351 -1.04,0.0693 -2.01077,0.17384 -2.9121,0.3125 l -24.33594,74.77539 c 0.76266,0.13867 1.59476,0.24317 2.49609,0.3125 0.97067,0.0693 1.94144,0.10352 2.91211,0.10352 0.90133,0 1.80375,-0.0342 2.70508,-0.10352 0.90133,-0.0693 1.80179,-0.17383 2.70312,-0.3125 l 5.09571,-17.26367 h 28.39257 l 5.19922,17.26367 c 0.832,0.13867 1.69828,0.24317 2.59961,0.3125 0.97067,0.0693 1.90726,0.10352 2.8086,0.10352 0.97066,0 1.97562,-0.0342 3.01562,-0.10352 1.04,-0.0693 1.9766,-0.17383 2.8086,-0.3125 l -24.23243,-74.77539 c -0.97066,-0.13866 -1.97562,-0.24316 -3.01562,-0.3125 -1.04,-0.0693 -2.04496,-0.10351 -3.01563,-0.10351 z m 114.02539,0.625 c -2.288,0 -4.26373,0.51859 -5.92773,1.55859 -1.664,0.97067 -3.01469,2.15044 -4.05469,3.53711 0.27734,1.10933 0.69143,2.18266 1.2461,3.22266 0.55466,0.97066 1.21389,1.94144 1.97656,2.91211 1.38667,-1.17867 2.56644,-2.01076 3.53711,-2.4961 0.97066,-0.48533 2.14849,-0.72656 3.53515,-0.72656 1.31734,0 2.56548,0.24123 3.74414,0.72656 1.248,0.48534 2.49615,1.00588 3.74415,1.56055 1.248,0.55467 2.53032,1.07521 3.84765,1.56055 1.31734,0.48533 2.70416,0.72851 4.16016,0.72851 2.21866,0 4.16022,-0.48636 5.82422,-1.45703 1.73333,-0.97067 3.15434,-2.11431 4.26367,-3.43164 -0.69333,-2.35733 -1.80279,-4.47175 -3.32813,-6.34375 -1.456,1.31733 -2.70414,2.18361 -3.74414,2.59961 -0.97066,0.416 -2.04399,0.625 -3.22265,0.625 -1.38667,0 -2.70513,-0.24318 -3.95313,-0.72852 -1.248,-0.48533 -2.49614,-1.00588 -3.74414,-1.56054 -1.17867,-0.55467 -2.42681,-1.07522 -3.74414,-1.56055 -1.31733,-0.48533 -2.70416,-0.72656 -4.16016,-0.72656 z m -62.21484,0.93554 c -0.832,0 -1.73246,0.0342 -2.70312,0.10352 -0.90134,0.0693 -1.76761,0.17383 -2.59961,0.3125 -0.13867,0.90133 -0.24317,1.80179 -0.3125,2.70313 -0.0693,0.832 -0.10352,1.66409 -0.10352,2.49609 0,0.90133 0.0342,1.76761 0.10352,2.59961 0.0693,0.832 0.17383,1.70023 0.3125,2.60156 0.832,0.13867 1.73245,0.24121 2.70312,0.31055 h 2.59961 c 1.73333,0 3.50202,-0.10255 5.30469,-0.31055 0.13866,-0.90133 0.24316,-1.76956 0.3125,-2.60156 0.0693,-0.90133 0.10351,-1.76761 0.10351,-2.59961 0,-1.872 -0.13868,-3.60455 -0.41601,-5.19922 -0.90134,-0.13867 -1.83793,-0.24317 -2.8086,-0.3125 -0.90133,-0.0693 -1.73342,-0.10352 -2.49609,-0.10352 z m 21.11328,0 c -0.76266,0 -1.62894,0.0342 -2.59961,0.10352 -0.90133,0.0693 -1.76956,0.17383 -2.60156,0.3125 -0.13867,0.90133 -0.24121,1.80179 -0.31055,2.70313 -0.0693,0.832 -0.10547,1.66409 -0.10547,2.49609 0,1.872 0.13869,3.6065 0.41602,5.20117 0.832,0.13867 1.73441,0.24121 2.70508,0.31055 h 2.59961 c 1.73333,0 3.50202,-0.10255 5.30468,-0.31055 0.208,-1.73333 0.31055,-3.46784 0.31055,-5.20117 0,-1.664 -0.10254,-3.39655 -0.31055,-5.19922 -0.90133,-0.13867 -1.83792,-0.24317 -2.80859,-0.3125 -0.90133,-0.0693 -1.76761,-0.10352 -2.59961,-0.10352 z m -73.33984,8.94336 11.43945,38.16797 h -22.77539 z m 177.95508,8.52344 c -6.66927,1.08334 -11.89974,4.14714 -15.69141,9.19141 -3.75781,5.04427 -5.63672,11.47656 -5.63672,19.29687 0,9.00521 2.06511,15.92839 6.19531,20.76953 4.16407,4.84115 10.34245,7.44792 18.53516,7.82032 v 20.66797 h 8.63281 v -20.66797 c 8.36198,-0.47396 14.67578,-3.21615 18.94141,-8.22657 4.29948,-5.04427 6.44922,-12.17057 6.44922,-21.3789 0,-8.36198 -1.625,-15.01432 -4.875,-19.95703 -3.21615,-4.94271 -7.65104,-7.41407 -13.30469,-7.41407 -5.34896,0 -9.32682,1.79428 -11.93359,5.38282 -2.60677,3.58854 -3.91016,8.64974 -3.91016,15.18359 v 29.45313 c -5.11198,-0.27084 -8.92057,-2.09896 -11.42578,-5.48438 -2.47136,-3.41927 -3.70703,-8.73437 -3.70703,-15.94531 0,-6.22917 1.08333,-11.1888 3.25,-14.87891 2.16666,-3.6901 5.34896,-5.99219 9.54687,-6.90625 z m -50.72071,1.56446 c -2.14933,-10e-6 -4.12506,0.31154 -5.92773,0.93554 -1.80267,0.55467 -3.39849,1.3184 -4.78516,2.28906 -1.38666,0.90134 -2.6348,1.94048 -3.74414,3.11914 -1.04,1.17867 -1.90627,2.35845 -2.59961,3.53711 0,-1.17866 -0.1045,-2.6358 -0.3125,-4.36914 -0.208,-1.80266 -0.41504,-3.22367 -0.62304,-4.26367 -0.76267,-0.13866 -1.49026,-0.24316 -2.1836,-0.3125 -0.624,-0.0693 -1.31741,-0.10351 -2.08008,-0.10351 -0.76266,0 -1.52639,0.0342 -2.28906,0.10351 -0.69333,0.0693 -1.42093,0.17384 -2.18359,0.3125 v 53.35156 c 0.76266,0.13867 1.62894,0.24317 2.59961,0.3125 0.97066,0.0693 1.83694,0.10352 2.59961,0.10352 0.76266,0 1.59476,-0.0342 2.49609,-0.10352 0.97067,-0.0693 1.8389,-0.17383 2.60156,-0.3125 v -27.03906 c 0,-3.25866 0.37991,-6.03231 1.14258,-8.32031 0.832,-2.35733 1.90728,-4.2647 3.22461,-5.7207 1.31733,-1.456 2.84284,-2.52933 4.57617,-3.22266 1.73334,-0.69333 3.57039,-1.04102 5.51172,-1.04102 3.328,0 5.75396,1.17978 7.2793,3.53711 1.52533,2.288 2.28906,5.89374 2.28906,10.81641 v 30.99023 c 0.76267,0.13867 1.59476,0.24317 2.49609,0.3125 0.97067,0.0693 1.83695,0.10352 2.59961,0.10352 0.76267,0 1.62895,-0.0342 2.59961,-0.10352 0.97067,-0.0693 1.83695,-0.17383 2.59961,-0.3125 v -33.79882 c 0,-6.864 -1.45519,-12.02943 -4.36719,-15.4961 -2.912,-3.536 -7.41819,-5.30468 -13.51953,-5.30468 z m -81.97461,0.83203 c -0.69333,0 -1.52542,0.0342 -2.49609,0.10351 -0.97067,0.0693 -1.83694,0.17384 -2.59961,0.3125 v 29.64063 c 0,5.33866 0.65728,9.63781 1.97461,12.89648 1.31733,3.25867 3.1202,5.78913 5.4082,7.5918 2.288,1.80266 4.92297,2.98049 7.9043,3.53515 3.05067,0.624 6.27454,0.93555 9.67187,0.93555 3.60534,0 7.0724,-0.31155 10.4004,-0.93555 3.39733,-0.624 6.30966,-1.28322 8.73632,-1.97656 v -51.6875 c -0.76266,-0.13866 -1.62894,-0.24316 -2.59961,-0.3125 -0.90133,-0.0693 -1.73342,-0.10351 -2.49609,-0.10351 -0.76267,0 -1.6309,0.0342 -2.60156,0.10351 -0.90134,0.0693 -1.73343,0.17384 -2.4961,0.3125 v 44.82422 c -2.496,0.76267 -5.51087,1.14453 -9.04687,1.14453 -2.35733,0 -4.43757,-0.24318 -6.24023,-0.72851 -1.80267,-0.48534 -3.32818,-1.35161 -4.57618,-2.59961 -1.248,-1.248 -2.18459,-2.94637 -2.80859,-5.09571 -0.624,-2.21866 -0.93555,-4.99231 -0.93555,-8.32031 v -29.22461 c -0.76266,-0.13866 -1.62894,-0.24316 -2.59961,-0.3125 -0.97066,-0.0693 -1.83694,-0.10351 -2.59961,-0.10351 z m 152.04297,4.45898 c 2.70834,0 4.79037,1.79427 6.2461,5.38281 1.48958,3.55469 2.23437,8.59896 2.23437,15.13282 0,7.54947 -1.26953,13.16927 -3.80859,16.85937 -2.50521,3.6901 -6.5,5.65365 -11.98438,5.89063 v -29.60547 c 0,-9.10677 2.4375,-13.66016 7.3125,-13.66016 z M 744.83594,418.4707 v 7.44532 h 22.33398 c 0,9.08042 -1.76877,17.50511 -5.30859,25.27734 l 8.48437,2.36719 c 1.73144,-4.42479 3.05704,-9.57991 3.98047,-15.4668 0.96191,-5.92536 1.44336,-10.44787 1.44336,-13.56445 v -6.0586 z m 38.0332,0 v 7.44532 h 28.62695 c 0,10.61947 -0.44316,19.5639 -1.32812,26.83593 l 8.42578,0.34766 c 0.92343,-10.00386 1.38477,-21.54694 1.38477,-34.62891 z m -141.11328,1.67383 v 13.67774 h -24.58594 v 7.44531 h 24.70313 v 10.67773 h 7.56054 v -10.79297 h 34.85938 v 12.69727 h 7.67578 l -0.23047,-12.69727 h 24.70117 v -7.44531 h -24.70117 v -13.5625 h -7.56055 v 13.67774 h -34.85937 v -13.67774 z m 139.49609,21.12305 v 21.0664 h -48.36328 v 7.56055 h 103.3086 v -7.56055 h -46.46094 v -21.0664 z m -247.44922,2.86133 v 8.6289 h 54.3711 v 11.34571 h -22.8125 c -1.49719,0 -3.22923,0.67017 -5.19922,2.00976 -1.89119,1.2608 -2.83789,3.23097 -2.83789,5.91016 0,4.49158 2.36382,9.37667 7.0918,14.65625 4.80677,5.20077 9.33857,7.80273 13.59375,7.80273 1.57599,-0.1576 3.78235,-0.67031 6.61914,-1.53711 2.83678,-0.86679 4.72823,-1.30078 5.67382,-1.30078 2.44279,0 3.66407,1.34035 3.66407,4.01953 0,8.82556 -4.45307,13.23828 -13.35742,13.23828 -3.54599,0 -7.20981,-1.06381 -10.99219,-3.1914 -3.70358,-2.20639 -7.13122,-5.04454 -10.28321,-8.51172 -3.15198,-3.46718 -5.75199,-6.57795 -7.80078,-9.33594 -2.04879,-2.75799 -3.90185,-5.47706 -5.55664,-8.15625 l -6.02734,5.4375 c 0,0.394 0.70856,1.694 2.12695,3.90039 1.41839,2.12759 3.42891,4.80633 6.0293,8.03711 2.60039,3.15199 5.51531,6.26471 8.74609,9.33789 3.23079,2.99439 6.97334,5.55601 11.22852,7.6836 4.25518,2.12759 8.43172,3.1914 12.5293,3.1914 2.67918,0 5.20046,-0.35525 7.56445,-1.06445 2.44279,-0.7092 4.76822,-1.85174 6.97461,-3.42774 2.28519,-1.57599 4.0979,-3.86108 5.4375,-6.85546 1.33959,-2.99439 2.00976,-6.5411 2.00976,-10.63868 0,-2.52158 -0.86797,-5.20032 -2.60156,-8.03711 -1.73359,-2.91558 -3.50597,-4.37304 -5.31836,-4.37304 -1.81239,0 -3.98036,0.27457 -6.50195,0.82617 -2.44279,0.4728 -4.57042,0.94712 -6.38281,1.41992 -1.7336,0.4728 -2.71868,0.70899 -2.95508,0.70899 -2.04879,0 -4.13608,-1.18289 -6.26367,-3.54688 -2.12759,-2.44279 -3.9787,-5.5939 -5.55469,-9.45508 h 29.66797 v -20.09375 h 11.70117 v -8.6289 z m 117.30469,8.62304 c -7.88765,14.35169 -20.85497,27.31901 -38.90039,38.90039 l 4.50195,6.23243 c 8.46481,-5.5406 14.77424,-10.42581 18.92969,-14.65821 v 40.80274 h 7.44531 v -47.49805 c 6.11775,-7.31051 10.83166,-13.81331 14.14063,-19.50781 z m 19.50586,3.81055 v 32.72266 c -5.80993,2.96268 -12.86879,6.00255 -21.17969,9.11914 l 4.84766,6.11914 c 5.88689,-2.07773 11.37034,-4.36818 16.44922,-6.86914 v 14.42968 c 0,6.23318 3.15472,9.34961 9.46484,9.34961 h 25.625 c 4.46326,0 7.69454,-1.69415 9.69531,-5.08007 2.03925,-3.4244 3.4252,-9.73384 4.15626,-18.92969 l -7.67579,-3.28906 c -0.11543,2.88572 -0.61699,6.40509 -1.50195,10.56054 -0.84648,4.15545 -1.84571,6.73399 -3,7.73438 -1.11581,0.96191 -2.65489,1.44336 -4.61719,1.44336 h -20.3164 c -3.00116,0 -4.50196,-1.5008 -4.50196,-4.50196 v -15.46875 c 15.35208,-8.34937 27.1268,-17.69868 35.32227,-28.04882 l -5.31055,-5.65625 c -8.4648,10.04233 -18.4688,18.39241 -30.01172,25.04882 V 456.5625 Z m 109.54297,18.17969 v 11.83203 h -34.16602 v 7.56055 h 33.24219 c -1.61601,5.61755 -6.21312,10.77268 -13.79297,15.46679 -7.57984,4.65564 -15.83324,7.32891 -24.75976,8.02149 l 4.96289,6.98437 c 7.38746,-0.96191 15.08285,-3.75197 23.08594,-8.36914 8.00308,-4.65564 13.27501,-9.27287 15.81445,-13.85156 2.46249,4.34783 7.86742,8.9469 16.2168,13.79492 8.34937,4.84802 16.10316,7.65625 23.25976,8.42578 l 4.38672,-6.98437 c -8.92652,-0.84648 -17.16176,-3.65471 -24.70313,-8.42578 -7.54136,-4.77107 -12.1586,-9.79124 -13.85156,-15.0625 h 33.24414 v -7.56055 h -34.16601 v -11.83203 z"
         inkscape:connector-curvature="0" />
    </g>
    <path
       style="opacity:1;fill:#7794a1;fill-opacity:1;fill-rule:evenodd;stroke:none;stroke-width:1.05391276;stroke-linejoin:round;stroke-miterlimit:4;stroke-dasharray:none;stroke-dashoffset:0;stroke-opacity:1;paint-order:normal"
       d="m 435.00048,114.60612 c -1.83541,-2.30475 -3.6077,-4.55306 -6.74972,-8.04125 -4.24635,-4.71409 -9.8132,-10.623129 -16.08223,-17.137261 C 405.8996,82.913483 398.92921,75.794273 391.8744,68.663457 377.76477,54.401804 363.32068,40.090503 353.48814,30.462087 c -0.35278,-0.345219 -0.4898,-0.448268 -0.83055,-0.781422 l -0.24394,62.802323 c -0.0467,12.055462 9.04538,21.800782 20.38588,21.850482 z"
       id="rect4485"
       inkscape:connector-curvature="0" />
  </g>
</svg>
