<?xml version="1.0" encoding="UTF-8" standalone="no"?>
<!-- Created with Inkscape (http://www.inkscape.org/) -->

<svg
   xmlns:osb="http://www.openswatchbook.org/uri/2009/osb"
   xmlns:dc="http://purl.org/dc/elements/1.1/"
   xmlns:cc="http://creativecommons.org/ns#"
   xmlns:rdf="http://www.w3.org/1999/02/22-rdf-syntax-ns#"
   xmlns:svg="http://www.w3.org/2000/svg"
   xmlns="http://www.w3.org/2000/svg"
   xmlns:xlink="http://www.w3.org/1999/xlink"
   xmlns:sodipodi="http://sodipodi.sourceforge.net/DTD/sodipodi-0.dtd"
   xmlns:inkscape="http://www.inkscape.org/namespaces/inkscape"
   width="512px"
   height="512px"
   viewBox="0 0 512 512"
   version="1.1"
   id="SVGRoot"
   inkscape:version="0.92.1 r15371"
   sodipodi:docname="rss.svg">
  <sodipodi:namedview
     id="base"
     pagecolor="#ffffff"
     bordercolor="#666666"
     borderopacity="1.0"
     inkscape:pageopacity="0.0"
     inkscape:pageshadow="2"
     inkscape:zoom="0.1767767"
     inkscape:cx="1714.387"
     inkscape:cy="237.55796"
     inkscape:document-units="px"
     inkscape:current-layer="layer1"
     showgrid="false"
     inkscape:window-width="1280"
     inkscape:window-height="947"
     inkscape:window-x="0"
     inkscape:window-y="0"
     inkscape:window-maximized="1" />
  <defs
     id="defs4710">
    <linearGradient
       id="linearGradient8384"
       inkscape:collect="always">
      <stop
         id="stop8380"
         offset="0"
         style="stop-color:#181818;stop-opacity:0.62365592" />
      <stop
         id="stop8382"
         offset="1"
         style="stop-color:#404040;stop-opacity:0" />
    </linearGradient>
    <linearGradient
       inkscape:collect="always"
       id="linearGradient4573">
      <stop
         style="stop-color:#181818;stop-opacity:0.30645162"
         offset="0"
         id="stop4569" />
      <stop
         style="stop-color:#404040;stop-opacity:0"
         offset="1"
         id="stop4571" />
    </linearGradient>
    <marker
       inkscape:stockid="DotM"
       orient="auto"
       refY="0.0"
       refX="0.0"
       id="DotM"
       style="overflow:visible"
       inkscape:isstock="true">
      <path
         id="path4618"
         d="M -2.5,-1.0 C -2.5,1.7600000 -4.7400000,4.0 -7.5,4.0 C -10.260000,4.0 -12.5,1.7600000 -12.5,-1.0 C -12.5,-3.7600000 -10.260000,-6.0 -7.5,-6.0 C -4.7400000,-6.0 -2.5,-3.7600000 -2.5,-1.0 z "
         style="fill-rule:evenodd;stroke:#000000;stroke-width:1.0pt"
         transform="scale(0.4) translate(7.4, 1)" />
    </marker>
    <linearGradient
       osb:paint="solid"
       id="linearGradient5207">
      <stop
         id="stop5209"
         offset="0"
         style="stop-color:#000015;stop-opacity:1;" />
    </linearGradient>
    <clipPath
       id="clipPath3006-9-8"
       clipPathUnits="userSpaceOnUse">
      <path
         inkscape:export-ydpi="90"
         inkscape:export-xdpi="90"
         transform="matrix(1.2020779,0,0,1.2020779,-93.20363,-75.172465)"
         d="m 483,275.5 a 192.5,192.5 0 1 1 -385,0 192.5,192.5 0 1 1 385,0 z"
         sodipodi:ry="192.5"
         sodipodi:rx="192.5"
         sodipodi:cy="275.5"
         sodipodi:cx="290.5"
         id="path3008-1-1"
         style="fill:#ffffff;fill-opacity:1;stroke:none;display:inline"
         sodipodi:type="arc" />
    </clipPath>
    <mask
       id="mask3818-4"
       maskUnits="userSpaceOnUse">
      <path
         sodipodi:type="arc"
         style="fill:#ffffff;fill-opacity:1;stroke:none;display:inline"
         id="path3820-9"
         sodipodi:cx="290.5"
         sodipodi:cy="275.5"
         sodipodi:rx="192.5"
         sodipodi:ry="192.5"
         d="m 483,275.5 a 192.5,192.5 0 1 1 -385,0 192.5,192.5 0 1 1 385,0 z"
         transform="matrix(1.2020779,0,0,1.2020779,-93.20363,-75.172466)"
         inkscape:export-xdpi="90"
         inkscape:export-ydpi="90" />
    </mask>
    <clipPath
       id="clipPath3006"
       clipPathUnits="userSpaceOnUse">
      <path
         inkscape:export-ydpi="90"
         inkscape:export-xdpi="90"
         transform="matrix(1.2020779,0,0,1.2020779,-93.20363,-75.172465)"
         d="m 483,275.5 a 192.5,192.5 0 1 1 -385,0 192.5,192.5 0 1 1 385,0 z"
         sodipodi:ry="192.5"
         sodipodi:rx="192.5"
         sodipodi:cy="275.5"
         sodipodi:cx="290.5"
         id="path3008"
         style="fill:#ffffff;fill-opacity:1;stroke:none;display:inline"
         sodipodi:type="arc" />
    </clipPath>
    <clipPath
       id="clipPath3006-9"
       clipPathUnits="userSpaceOnUse">
      <path
         inkscape:export-ydpi="90"
         inkscape:export-xdpi="90"
         transform="matrix(1.2020779,0,0,1.2020779,-93.20363,-75.172465)"
         d="m 483,275.5 a 192.5,192.5 0 1 1 -385,0 192.5,192.5 0 1 1 385,0 z"
         sodipodi:ry="192.5"
         sodipodi:rx="192.5"
         sodipodi:cy="275.5"
         sodipodi:cx="290.5"
         id="path3008-1"
         style="fill:#ffffff;fill-opacity:1;stroke:none;display:inline"
         sodipodi:type="arc" />
    </clipPath>
    <mask
       maskUnits="userSpaceOnUse"
       id="mask3818-0">
      <path
         inkscape:export-ydpi="90"
         inkscape:export-xdpi="90"
         transform="matrix(1.2020779,0,0,1.2020779,-93.20363,-75.172466)"
         d="m 483,275.5 a 192.5,192.5 0 1 1 -385,0 192.5,192.5 0 1 1 385,0 z"
         sodipodi:ry="192.5"
         sodipodi:rx="192.5"
         sodipodi:cy="275.5"
         sodipodi:cx="290.5"
         id="path3820-8"
         style="fill:#ffffff;fill-opacity:1;stroke:none;display:inline"
         sodipodi:type="arc" />
    </mask>
    <mask
       maskUnits="userSpaceOnUse"
       id="mask3818-2">
      <path
         inkscape:export-ydpi="90"
         inkscape:export-xdpi="90"
         transform="matrix(1.2020779,0,0,1.2020779,-93.20363,-75.172466)"
         d="m 483,275.5 a 192.5,192.5 0 1 1 -385,0 192.5,192.5 0 1 1 385,0 z"
         sodipodi:ry="192.5"
         sodipodi:rx="192.5"
         sodipodi:cy="275.5"
         sodipodi:cx="290.5"
         id="path3820-2-2"
         style="fill:#ffffff;fill-opacity:1;stroke:none;display:inline"
         sodipodi:type="arc" />
    </mask>
    <clipPath
       id="clipPath3934"
       clipPathUnits="userSpaceOnUse">
      <path
         id="path3936"
         d="m 0,0 0,1024 1024,0 L 1024,0 0,0 z m 278.4375,333.84375 119.78125,0 c 9.83697,42.31453 19.85954,84.58596 29.9375,126.84375 9.86978,-42.28798 20.05132,-84.50237 29.6875,-126.84375 l 108.90625,0 c 9.63586,42.34141 19.8178,84.55578 29.6875,126.84375 10.07827,-42.25772 20.10031,-84.52927 29.9375,-126.84375 l 119.1875,0 c -26.26221,110.73099 -52.49625,221.46929 -78.28125,332.3125 l -122.8125,0 c -10.59439,-45.55681 -21.46638,-91.04874 -32.375,-136.53125 -10.66279,45.51136 -21.5615,90.96897 -32,136.53125 l -122.8125,0 c -25.71418,-110.03502 -52.0286,-219.92873 -78.25,-329.84375 l -0.59375,-2.46875 z"
         style="fill:#ff3232;fill-opacity:1;stroke:none"
         inkscape:connector-curvature="0" />
    </clipPath>
    <clipPath
       id="clipPath3929"
       clipPathUnits="userSpaceOnUse">
      <path
         inkscape:connector-curvature="0"
         style="fill:#ff3232;fill-opacity:1;stroke:none"
         d="m 0,0 0,1024 1024,0 L 1024,0 0,0 z m 278.4375,333.84375 119.78125,0 c 9.83697,42.31453 19.85954,84.58596 29.9375,126.84375 9.86978,-42.28798 20.05132,-84.50237 29.6875,-126.84375 l 108.90625,0 c 9.63586,42.34141 19.8178,84.55578 29.6875,126.84375 10.07827,-42.25772 20.10031,-84.52927 29.9375,-126.84375 l 119.1875,0 c -26.26221,110.73099 -52.49625,221.46929 -78.28125,332.3125 l -122.8125,0 c -10.59439,-45.55681 -21.46638,-91.04874 -32.375,-136.53125 -10.66279,45.51136 -21.5615,90.96897 -32,136.53125 l -122.8125,0 c -25.71418,-110.03502 -52.0286,-219.92873 -78.25,-329.84375 l -0.59375,-2.46875 z"
         id="path3931" />
    </clipPath>
    <mask
       maskUnits="userSpaceOnUse"
       id="mask3818">
      <path
         inkscape:export-ydpi="90"
         inkscape:export-xdpi="90"
         transform="matrix(1.2020779,0,0,1.2020779,-93.20363,-75.172466)"
         d="m 483,275.5 a 192.5,192.5 0 1 1 -385,0 192.5,192.5 0 1 1 385,0 z"
         sodipodi:ry="192.5"
         sodipodi:rx="192.5"
         sodipodi:cy="275.5"
         sodipodi:cx="290.5"
         id="path3820"
         style="fill:#ffffff;fill-opacity:1;stroke:none;display:inline"
         sodipodi:type="arc" />
    </mask>
    <linearGradient
       inkscape:collect="always"
       xlink:href="#linearGradient4573"
       id="linearGradient4575"
       x1="408.84314"
       y1="89.26915"
       x2="420.61133"
       y2="138.41306"
       gradientUnits="userSpaceOnUse"
       gradientTransform="matrix(0.99657796,0,0,1,1.2520606,0)" />
    <linearGradient
       inkscape:collect="always"
       xlink:href="#linearGradient8384"
       id="linearGradient6771"
       gradientUnits="userSpaceOnUse"
       gradientTransform="matrix(0.99657796,0,0,1,1.2520606,0)"
       x1="408.84314"
       y1="89.26915"
       x2="420.61133"
       y2="138.41306" />
  </defs>
  <metadata
     id="metadata4713">
    <rdf:RDF>
      <cc:Work
         rdf:about="">
        <dc:format>image/svg+xml</dc:format>
        <dc:type
           rdf:resource="http://purl.org/dc/dcmitype/StillImage" />
        <dc:title></dc:title>
      </cc:Work>
    </rdf:RDF>
  </metadata>
  <g
     id="layer1"
     inkscape:groupmode="layer"
     inkscape:label="Capa 1">
    <path
       style="opacity:1;fill:#fe8400;fill-opacity:1;fill-rule:evenodd;stroke:#ffd7ac;stroke-width:2;stroke-linejoin:round;stroke-miterlimit:4;stroke-dasharray:none;stroke-dashoffset:0;stroke-opacity:1;paint-order:normal"
       d="m 97.583979,29.700195 c -11.07875,0 -19.99804,9.65194 -19.99804,21.64062 V 460.66113 c 0,11.9887 8.91929,21.63867 19.99804,21.63867 H 414.41602 c 11.07874,0 19.99804,-9.64997 19.99804,-21.63867 V 113.7959 c -0.33411,-0.32981 -0.46874,-0.43168 -0.81445,-0.77345 -9.64188,-9.53205 -23.80681,-23.701345 -37.64453,-37.822255 -6.91884,-7.06045 -13.75546,-14.10994 -19.9043,-20.56055 -6.14876,-6.45062 -11.60929,-12.30327 -15.77539,-16.97265 -3.0827,-3.45513 -4.82334,-5.68286 -6.625,-7.9668 z"
       id="path4506"
       inkscape:connector-curvature="0"
       sodipodi:nodetypes="ssssssccccccs" />
    <g
       id="g4584"
       transform="matrix(0.3829248,0,0,0.3829248,74.406719,31.973725)"
       style="fill:#75abd3;fill-opacity:1;stroke:#9dc4df;stroke-opacity:1" />
    <path
       style="opacity:1;fill:#ffffff;fill-opacity:1;fill-rule:evenodd;stroke:#ffd7ac;stroke-width:0.85055965;stroke-linecap:square;stroke-linejoin:miter;stroke-miterlimit:4;stroke-dasharray:none;stroke-dashoffset:0;stroke-opacity:1;paint-order:markers fill stroke"
       d="M 125.61328 380.81641 C 122.40471 380.81641 119.33582 380.99109 116.40625 381.33984 C 113.54644 381.61885 110.40806 381.93249 106.99023 382.28125 L 106.99023 456.98633 C 110.61732 457.61409 113.71997 457.92773 116.30078 457.92773 C 118.67233 457.92773 121.70746 457.61409 125.4043 456.98633 L 125.4043 397.13867 C 125.5438 397.06892 125.85744 396.99944 126.3457 396.92969 C 126.83396 396.85994 127.42748 396.82422 128.125 396.82422 C 130.98481 396.82422 133.39071 397.62814 135.34375 399.23242 C 137.29679 400.83671 138.27344 403.38156 138.27344 406.86914 C 138.27344 408.68268 137.9598 410.42753 137.33203 412.10156 C 136.77402 413.7756 136.04154 415.31005 135.13477 416.70508 C 134.29775 418.03036 133.35487 419.17973 132.30859 420.15625 C 131.33207 421.13277 130.42686 421.83149 129.58984 422.25 L 128.64648 422.77344 L 143.50391 456.98633 C 144.89894 457.26533 146.50287 457.47378 148.31641 457.61328 C 150.1997 457.75278 151.83934 457.82227 153.23438 457.82227 C 154.83866 457.82227 156.61727 457.75278 158.57031 457.61328 C 160.59311 457.47378 162.4412 457.26533 164.11523 456.98633 L 147.79492 424.75977 C 148.91095 423.92275 150.02655 422.91234 151.14258 421.72656 C 152.32835 420.54079 153.37448 419.1453 154.28125 417.54102 C 155.25777 415.93673 156.02402 414.12436 156.58203 412.10156 C 157.2098 410.00902 157.52539 407.67065 157.52539 405.08984 C 157.52539 400.27699 156.58251 396.30093 154.69922 393.16211 C 152.81593 390.02329 150.37432 387.54792 147.375 385.73438 C 144.37568 383.92083 140.95938 382.66627 137.12305 381.96875 C 133.28671 381.20148 129.44962 380.81641 125.61328 380.81641 z M 196.36523 380.81641 C 192.3894 380.81641 188.79842 381.34045 185.58984 382.38672 C 182.38127 383.36324 179.62602 384.86197 177.32422 386.88477 C 175.09217 388.83781 173.34732 391.24565 172.0918 394.10547 C 170.83627 396.96528 170.20898 400.24262 170.20898 403.93945 C 170.20898 406.93877 170.59211 409.55506 171.35938 411.78711 C 172.19639 414.01916 173.34772 416.00621 174.8125 417.75 C 176.27728 419.42404 178.02017 420.889 180.04297 422.14453 C 182.13552 423.40006 184.43816 424.4819 186.94922 425.38867 L 192.80859 427.58594 C 193.71536 427.9347 194.58681 428.31782 195.42383 428.73633 C 196.3306 429.08509 197.13256 429.53769 197.83008 430.0957 C 198.52759 430.65372 199.0854 431.35243 199.50391 432.18945 C 199.92242 432.95672 200.13281 433.89765 200.13281 435.01367 C 200.13281 437.66423 199.12045 439.54804 197.09766 440.66406 C 195.14461 441.71034 192.38936 442.23242 188.83203 442.23242 C 184.08893 442.23242 178.50894 440.83889 172.0918 438.04883 C 171.11528 440.90864 170.27955 443.73338 169.58203 446.52344 C 168.88452 449.24375 168.39619 451.82432 168.11719 454.26562 C 171.95352 455.73041 175.51074 456.81225 178.78906 457.50977 C 182.13714 458.20728 185.97228 458.55469 190.29688 458.55469 C 195.03998 458.55469 199.22643 457.99688 202.85352 456.88086 C 206.55035 455.69508 209.65301 454.05544 212.16406 451.96289 C 214.67512 449.80059 216.55893 447.25574 217.81445 444.32617 C 219.13973 441.32685 219.80273 437.97808 219.80273 434.28125 C 219.80273 430.86342 219.34818 427.96921 218.44141 425.59766 C 217.53464 423.15635 216.24435 421.09787 214.57031 419.42383 C 212.89628 417.68004 210.87351 416.21507 208.50195 415.0293 C 206.20015 413.77377 203.58582 412.55492 200.65625 411.36914 L 195.63281 409.38086 C 193.81927 408.68334 192.25106 407.84566 190.92578 406.86914 C 189.6005 405.89262 188.9375 404.39389 188.9375 402.37109 C 188.9375 401.18532 189.18166 400.20867 189.66992 399.44141 C 190.15818 398.60439 190.78547 397.97515 191.55273 397.55664 C 192.38975 397.06838 193.29692 396.72097 194.27344 396.51172 C 195.31971 396.30246 196.3996 396.19727 197.51562 396.19727 C 201.14271 396.19727 204.17784 396.61611 206.61914 397.45312 C 209.06045 398.29014 211.18841 399.09211 213.00195 399.85938 C 214.11798 397.48782 215.02514 394.97673 215.72266 392.32617 C 216.48992 389.60586 217.01201 387.13049 217.29102 384.89844 C 213.52443 383.57316 209.96722 382.5608 206.61914 381.86328 C 203.34082 381.16577 199.92256 380.81641 196.36523 380.81641 z M 253.37891 380.81641 C 249.40307 380.81641 245.81209 381.34045 242.60352 382.38672 C 239.39494 383.36324 236.63969 384.86197 234.33789 386.88477 C 232.10584 388.83781 230.361 391.24565 229.10547 394.10547 C 227.84994 396.96528 227.22266 400.24262 227.22266 403.93945 C 227.22266 406.93877 227.60578 409.55506 228.37305 411.78711 C 229.21007 414.01916 230.36139 416.00621 231.82617 417.75 C 233.29095 419.42404 235.03385 420.889 237.05664 422.14453 C 239.14919 423.40006 241.45183 424.4819 243.96289 425.38867 L 249.82227 427.58594 C 250.72904 427.9347 251.60048 428.31782 252.4375 428.73633 C 253.34427 429.08509 254.14623 429.53769 254.84375 430.0957 C 255.54127 430.65372 256.09907 431.35243 256.51758 432.18945 C 256.93609 432.95672 257.14648 433.89765 257.14648 435.01367 C 257.14648 437.66423 256.13412 439.54804 254.11133 440.66406 C 252.15828 441.71034 249.40303 442.23242 245.8457 442.23242 C 241.1026 442.23242 235.52261 440.83889 229.10547 438.04883 C 228.12895 440.90864 227.29322 443.73338 226.5957 446.52344 C 225.89819 449.24375 225.40987 451.82432 225.13086 454.26562 C 228.9672 455.73041 232.52441 456.81225 235.80273 457.50977 C 239.15081 458.20728 242.98595 458.55469 247.31055 458.55469 C 252.05365 458.55469 256.24011 457.99688 259.86719 456.88086 C 263.56402 455.69508 266.66668 454.05544 269.17773 451.96289 C 271.68879 449.80059 273.5726 447.25574 274.82812 444.32617 C 276.1534 441.32685 276.81641 437.97808 276.81641 434.28125 C 276.81641 430.86342 276.36185 427.96921 275.45508 425.59766 C 274.54831 423.15635 273.25802 421.09787 271.58398 419.42383 C 269.90995 417.68004 267.88718 416.21507 265.51562 415.0293 C 263.21382 413.77377 260.59949 412.55492 257.66992 411.36914 L 252.64648 409.38086 C 250.83294 408.68334 249.26473 407.84566 247.93945 406.86914 C 246.61417 405.89262 245.95117 404.39389 245.95117 402.37109 C 245.95117 401.18532 246.19533 400.20867 246.68359 399.44141 C 247.17185 398.60439 247.79914 397.97515 248.56641 397.55664 C 249.40342 397.06838 250.31059 396.72097 251.28711 396.51172 C 252.33338 396.30246 253.41523 396.19727 254.53125 396.19727 C 258.15833 396.19727 261.19151 396.61611 263.63281 397.45312 C 266.07412 398.29014 268.20208 399.09211 270.01562 399.85938 C 271.13165 397.48782 272.03881 394.97673 272.73633 392.32617 C 273.5036 389.60586 274.02568 387.13049 274.30469 384.89844 C 270.5381 383.57316 266.98089 382.5608 263.63281 381.86328 C 260.35449 381.16577 256.93624 380.81641 253.37891 380.81641 z "
       id="rect4610" />
    <path
       style="opacity:1;fill:url(#linearGradient6771);fill-opacity:1;fill-rule:evenodd;stroke:none;stroke-width:8.77774811;stroke-linecap:square;stroke-linejoin:miter;stroke-miterlimit:4;stroke-dasharray:none;stroke-dashoffset:0;stroke-opacity:1;paint-order:markers fill stroke"
       d="m 433.28939,182.37584 v -69.47028 c 0,-0.0394 -0.0309,-0.0705 -0.0703,-0.0705 h -67.33747 c 4.09851,4.50878 8.40749,9.2132 13.77948,14.86279 7.205,7.57734 15.21697,15.8602 23.32513,24.15489 11.13885,11.3951 20.83136,21.05949 30.30308,30.52302 z"
       id="path4566"
       inkscape:connector-curvature="0" />
    <path
       style="opacity:1;fill:#ffd7ac;fill-opacity:1;fill-rule:evenodd;stroke:none;stroke-width:1.05391276;stroke-linejoin:round;stroke-miterlimit:4;stroke-dasharray:none;stroke-dashoffset:0;stroke-opacity:1;paint-order:normal"
       d="m 435.00048,114.60612 c -1.83541,-2.30475 -3.6077,-4.55306 -6.74972,-8.04125 -4.24635,-4.71409 -9.8132,-10.623129 -16.08223,-17.137261 C 405.8996,82.913483 398.92921,75.794273 391.8744,68.663457 377.76477,54.401804 363.32068,40.090503 353.48814,30.462087 c -0.35278,-0.345219 -0.4898,-0.448268 -0.83055,-0.781422 l -0.24394,62.802323 c -0.0467,12.055462 9.04538,21.800782 20.38588,21.850482 z"
       id="rect4485"
       inkscape:connector-curvature="0" />
    <path
       id="rect4116-7-3"
       d="m 136.00006,106.00005 v 47.99993 h 47.99998 c 79.77591,0 143.99994,64.22411 143.99994,144.00002 v 47.99995 h 47.99996 V 298 c 0,-106.36787 -85.63199,-191.99995 -191.9999,-191.99995 z m 0,96.00003 v 47.99998 h 47.99998 c 26.59194,0 47.99999,21.40803 47.99999,47.99994 v 47.99995 h 47.99999 V 298 c 0,-53.18397 -42.81605,-95.99992 -95.99998,-95.99992 z m 28.00001,87.9999 c -15.51203,0 -28.00001,12.48802 -28.00001,28.00005 0,15.51206 12.48798,27.99992 28.00001,27.99992 15.51197,0 27.99995,-12.48786 27.99995,-27.99992 0,-15.51203 -12.48798,-28.00005 -27.99995,-28.00005 z"
       style="fill:#ffffff;fill-opacity:1;stroke:#ffd7ac;stroke-width:0.87272722;stroke-opacity:1"
       inkscape:connector-curvature="0" />
  </g>
</svg>
