<?xml version="1.0" encoding="UTF-8" standalone="no"?>
<!-- Created with Inkscape (http://www.inkscape.org/) -->

<svg
   xmlns:osb="http://www.openswatchbook.org/uri/2009/osb"
   xmlns:dc="http://purl.org/dc/elements/1.1/"
   xmlns:cc="http://creativecommons.org/ns#"
   xmlns:rdf="http://www.w3.org/1999/02/22-rdf-syntax-ns#"
   xmlns:svg="http://www.w3.org/2000/svg"
   xmlns="http://www.w3.org/2000/svg"
   xmlns:xlink="http://www.w3.org/1999/xlink"
   xmlns:sodipodi="http://sodipodi.sourceforge.net/DTD/sodipodi-0.dtd"
   xmlns:inkscape="http://www.inkscape.org/namespaces/inkscape"
   width="512px"
   height="512px"
   viewBox="0 0 512 512"
   version="1.1"
   id="SVGRoot"
   inkscape:version="0.92.1 r15371"
   sodipodi:docname="pdf.svg">
  <sodipodi:namedview
     id="base"
     pagecolor="#ffffff"
     bordercolor="#666666"
     borderopacity="1.0"
     inkscape:pageopacity="0.0"
     inkscape:pageshadow="2"
     inkscape:zoom="1"
     inkscape:cx="265.67244"
     inkscape:cy="194.74216"
     inkscape:document-units="px"
     inkscape:current-layer="layer1"
     showgrid="false"
     inkscape:window-width="1280"
     inkscape:window-height="947"
     inkscape:window-x="0"
     inkscape:window-y="0"
     inkscape:window-maximized="1" />
  <defs
     id="defs4710">
    <linearGradient
       inkscape:collect="always"
       id="linearGradient4573">
      <stop
         style="stop-color:#181818;stop-opacity:0.30645162"
         offset="0"
         id="stop4569" />
      <stop
         style="stop-color:#404040;stop-opacity:0"
         offset="1"
         id="stop4571" />
    </linearGradient>
    <marker
       inkscape:stockid="DotM"
       orient="auto"
       refY="0.0"
       refX="0.0"
       id="DotM"
       style="overflow:visible"
       inkscape:isstock="true">
      <path
         id="path4618"
         d="M -2.5,-1.0 C -2.5,1.7600000 -4.7400000,4.0 -7.5,4.0 C -10.260000,4.0 -12.5,1.7600000 -12.5,-1.0 C -12.5,-3.7600000 -10.260000,-6.0 -7.5,-6.0 C -4.7400000,-6.0 -2.5,-3.7600000 -2.5,-1.0 z "
         style="fill-rule:evenodd;stroke:#000000;stroke-width:1.0pt"
         transform="scale(0.4) translate(7.4, 1)" />
    </marker>
    <linearGradient
       osb:paint="solid"
       id="linearGradient5207">
      <stop
         id="stop5209"
         offset="0"
         style="stop-color:#000015;stop-opacity:1;" />
    </linearGradient>
    <clipPath
       id="clipPath3006-9-8"
       clipPathUnits="userSpaceOnUse">
      <path
         inkscape:export-ydpi="90"
         inkscape:export-xdpi="90"
         transform="matrix(1.2020779,0,0,1.2020779,-93.20363,-75.172465)"
         d="m 483,275.5 a 192.5,192.5 0 1 1 -385,0 192.5,192.5 0 1 1 385,0 z"
         sodipodi:ry="192.5"
         sodipodi:rx="192.5"
         sodipodi:cy="275.5"
         sodipodi:cx="290.5"
         id="path3008-1-1"
         style="fill:#ffffff;fill-opacity:1;stroke:none;display:inline"
         sodipodi:type="arc" />
    </clipPath>
    <mask
       id="mask3818-4"
       maskUnits="userSpaceOnUse">
      <path
         sodipodi:type="arc"
         style="fill:#ffffff;fill-opacity:1;stroke:none;display:inline"
         id="path3820-9"
         sodipodi:cx="290.5"
         sodipodi:cy="275.5"
         sodipodi:rx="192.5"
         sodipodi:ry="192.5"
         d="m 483,275.5 a 192.5,192.5 0 1 1 -385,0 192.5,192.5 0 1 1 385,0 z"
         transform="matrix(1.2020779,0,0,1.2020779,-93.20363,-75.172466)"
         inkscape:export-xdpi="90"
         inkscape:export-ydpi="90" />
    </mask>
    <clipPath
       id="clipPath3006"
       clipPathUnits="userSpaceOnUse">
      <path
         inkscape:export-ydpi="90"
         inkscape:export-xdpi="90"
         transform="matrix(1.2020779,0,0,1.2020779,-93.20363,-75.172465)"
         d="m 483,275.5 a 192.5,192.5 0 1 1 -385,0 192.5,192.5 0 1 1 385,0 z"
         sodipodi:ry="192.5"
         sodipodi:rx="192.5"
         sodipodi:cy="275.5"
         sodipodi:cx="290.5"
         id="path3008"
         style="fill:#ffffff;fill-opacity:1;stroke:none;display:inline"
         sodipodi:type="arc" />
    </clipPath>
    <clipPath
       id="clipPath3006-9"
       clipPathUnits="userSpaceOnUse">
      <path
         inkscape:export-ydpi="90"
         inkscape:export-xdpi="90"
         transform="matrix(1.2020779,0,0,1.2020779,-93.20363,-75.172465)"
         d="m 483,275.5 a 192.5,192.5 0 1 1 -385,0 192.5,192.5 0 1 1 385,0 z"
         sodipodi:ry="192.5"
         sodipodi:rx="192.5"
         sodipodi:cy="275.5"
         sodipodi:cx="290.5"
         id="path3008-1"
         style="fill:#ffffff;fill-opacity:1;stroke:none;display:inline"
         sodipodi:type="arc" />
    </clipPath>
    <mask
       maskUnits="userSpaceOnUse"
       id="mask3818-0">
      <path
         inkscape:export-ydpi="90"
         inkscape:export-xdpi="90"
         transform="matrix(1.2020779,0,0,1.2020779,-93.20363,-75.172466)"
         d="m 483,275.5 a 192.5,192.5 0 1 1 -385,0 192.5,192.5 0 1 1 385,0 z"
         sodipodi:ry="192.5"
         sodipodi:rx="192.5"
         sodipodi:cy="275.5"
         sodipodi:cx="290.5"
         id="path3820-8"
         style="fill:#ffffff;fill-opacity:1;stroke:none;display:inline"
         sodipodi:type="arc" />
    </mask>
    <mask
       maskUnits="userSpaceOnUse"
       id="mask3818-2">
      <path
         inkscape:export-ydpi="90"
         inkscape:export-xdpi="90"
         transform="matrix(1.2020779,0,0,1.2020779,-93.20363,-75.172466)"
         d="m 483,275.5 a 192.5,192.5 0 1 1 -385,0 192.5,192.5 0 1 1 385,0 z"
         sodipodi:ry="192.5"
         sodipodi:rx="192.5"
         sodipodi:cy="275.5"
         sodipodi:cx="290.5"
         id="path3820-2-2"
         style="fill:#ffffff;fill-opacity:1;stroke:none;display:inline"
         sodipodi:type="arc" />
    </mask>
    <clipPath
       id="clipPath3934"
       clipPathUnits="userSpaceOnUse">
      <path
         id="path3936"
         d="m 0,0 0,1024 1024,0 L 1024,0 0,0 z m 278.4375,333.84375 119.78125,0 c 9.83697,42.31453 19.85954,84.58596 29.9375,126.84375 9.86978,-42.28798 20.05132,-84.50237 29.6875,-126.84375 l 108.90625,0 c 9.63586,42.34141 19.8178,84.55578 29.6875,126.84375 10.07827,-42.25772 20.10031,-84.52927 29.9375,-126.84375 l 119.1875,0 c -26.26221,110.73099 -52.49625,221.46929 -78.28125,332.3125 l -122.8125,0 c -10.59439,-45.55681 -21.46638,-91.04874 -32.375,-136.53125 -10.66279,45.51136 -21.5615,90.96897 -32,136.53125 l -122.8125,0 c -25.71418,-110.03502 -52.0286,-219.92873 -78.25,-329.84375 l -0.59375,-2.46875 z"
         style="fill:#ff3232;fill-opacity:1;stroke:none"
         inkscape:connector-curvature="0" />
    </clipPath>
    <clipPath
       id="clipPath3929"
       clipPathUnits="userSpaceOnUse">
      <path
         inkscape:connector-curvature="0"
         style="fill:#ff3232;fill-opacity:1;stroke:none"
         d="m 0,0 0,1024 1024,0 L 1024,0 0,0 z m 278.4375,333.84375 119.78125,0 c 9.83697,42.31453 19.85954,84.58596 29.9375,126.84375 9.86978,-42.28798 20.05132,-84.50237 29.6875,-126.84375 l 108.90625,0 c 9.63586,42.34141 19.8178,84.55578 29.6875,126.84375 10.07827,-42.25772 20.10031,-84.52927 29.9375,-126.84375 l 119.1875,0 c -26.26221,110.73099 -52.49625,221.46929 -78.28125,332.3125 l -122.8125,0 c -10.59439,-45.55681 -21.46638,-91.04874 -32.375,-136.53125 -10.66279,45.51136 -21.5615,90.96897 -32,136.53125 l -122.8125,0 c -25.71418,-110.03502 -52.0286,-219.92873 -78.25,-329.84375 l -0.59375,-2.46875 z"
         id="path3931" />
    </clipPath>
    <mask
       maskUnits="userSpaceOnUse"
       id="mask3818">
      <path
         inkscape:export-ydpi="90"
         inkscape:export-xdpi="90"
         transform="matrix(1.2020779,0,0,1.2020779,-93.20363,-75.172466)"
         d="m 483,275.5 a 192.5,192.5 0 1 1 -385,0 192.5,192.5 0 1 1 385,0 z"
         sodipodi:ry="192.5"
         sodipodi:rx="192.5"
         sodipodi:cy="275.5"
         sodipodi:cx="290.5"
         id="path3820"
         style="fill:#ffffff;fill-opacity:1;stroke:none;display:inline"
         sodipodi:type="arc" />
    </mask>
    <linearGradient
       inkscape:collect="always"
       xlink:href="#linearGradient4573"
       id="linearGradient4575"
       x1="408.84314"
       y1="89.26915"
       x2="420.61133"
       y2="138.41306"
       gradientUnits="userSpaceOnUse"
       gradientTransform="matrix(0.99657796,0,0,1,1.2520606,0)" />
  </defs>
  <metadata
     id="metadata4713">
    <rdf:RDF>
      <cc:Work
         rdf:about="">
        <dc:format>image/svg+xml</dc:format>
        <dc:type
           rdf:resource="http://purl.org/dc/dcmitype/StillImage" />
        <dc:title></dc:title>
      </cc:Work>
    </rdf:RDF>
  </metadata>
  <g
     id="layer1"
     inkscape:groupmode="layer"
     inkscape:label="Capa 1">
    <path
       style="opacity:1;fill:#f0efef;fill-opacity:1;fill-rule:evenodd;stroke:#ff0000;stroke-width:2;stroke-linejoin:round;stroke-miterlimit:4;stroke-dasharray:none;stroke-dashoffset:0;stroke-opacity:1;paint-order:normal"
       d="m 97.583979,29.700195 c -11.07875,0 -19.99804,9.65194 -19.99804,21.64062 V 460.66113 c 0,11.9887 8.91929,21.63867 19.99804,21.63867 H 414.41602 c 11.07874,0 19.99804,-9.64997 19.99804,-21.63867 V 113.7959 c -0.33411,-0.32981 -0.46874,-0.43168 -0.81445,-0.77345 -9.64188,-9.53205 -23.80681,-23.701345 -37.64453,-37.822255 -6.91884,-7.06045 -13.75546,-14.10994 -19.9043,-20.56055 -6.14876,-6.45062 -11.60929,-12.30327 -15.77539,-16.97265 -3.0827,-3.45513 -4.82334,-5.68286 -6.625,-7.9668 z"
       id="path4506"
       inkscape:connector-curvature="0"
       sodipodi:nodetypes="ssssssccccccs" />
    <g
       id="g4584"
       transform="matrix(0.3829248,0,0,0.3829248,74.406719,31.973725)"
       style="fill:#75abd3;fill-opacity:1;stroke:#9dc4df;stroke-opacity:1" />
    <path
       style="opacity:1;fill:url(#linearGradient4575);fill-opacity:1;fill-rule:evenodd;stroke:none;stroke-width:8.77774811;stroke-linecap:square;stroke-linejoin:miter;stroke-miterlimit:4;stroke-dasharray:none;stroke-dashoffset:0;stroke-opacity:1;paint-order:markers fill stroke"
       d="m 433.28939,182.37584 v -69.47028 c 0,-0.0394 -0.0309,-0.0705 -0.0703,-0.0705 h -67.33747 c 4.09851,4.50878 8.40749,9.2132 13.77948,14.86279 7.205,7.57734 15.21697,15.8602 23.32513,24.15489 11.13885,11.3951 20.83136,21.05949 30.30308,30.52302 z"
       id="path4566"
       inkscape:connector-curvature="0" />
    <path
       style="opacity:1;fill:#ff0000;fill-opacity:1;fill-rule:evenodd;stroke:none;stroke-width:1.05391276;stroke-linejoin:round;stroke-miterlimit:4;stroke-dasharray:none;stroke-dashoffset:0;stroke-opacity:1;paint-order:normal"
       d="m 435.00048,114.60612 c -1.83541,-2.30475 -3.6077,-4.55306 -6.74972,-8.04125 -4.24635,-4.71409 -9.8132,-10.623129 -16.08223,-17.137261 C 405.8996,82.913483 398.92921,75.794273 391.8744,68.663457 377.76477,54.401804 363.32068,40.090503 353.48814,30.462087 c -0.35278,-0.345219 -0.4898,-0.448268 -0.83055,-0.781422 l -0.24394,62.802323 c -0.0467,12.055462 9.04538,21.800782 20.38588,21.850482 z"
       id="rect4485"
       inkscape:connector-curvature="0" />
    <path
       style="opacity:1;fill:#ff0000;fill-opacity:1;fill-rule:evenodd;stroke:#edebeb;stroke-width:0.85055965;stroke-linecap:square;stroke-linejoin:miter;stroke-miterlimit:4;stroke-dasharray:none;stroke-dashoffset:0;stroke-opacity:1;paint-order:markers fill stroke"
       d="M 126.86914 380.81641 C 121.84703 380.81641 117.66057 381.0268 114.3125 381.44531 C 111.03418 381.79407 108.59257 382.072 106.98828 382.28125 L 106.98828 456.98633 C 110.61536 457.61409 113.65049 457.92773 116.0918 457.92773 C 117.34732 457.92773 118.70709 457.85825 120.17188 457.71875 C 121.63666 457.57925 123.2763 457.33509 125.08984 456.98633 L 125.08984 432.60742 C 125.64786 432.74692 126.58878 432.88784 127.91406 433.02734 C 129.30909 433.0971 130.66886 433.13086 131.99414 433.13086 C 135.34222 433.13086 138.58579 432.71202 141.72461 431.875 C 144.93318 431.03798 147.75791 429.6425 150.19922 427.68945 C 152.71027 425.73641 154.69928 423.12207 156.16406 419.84375 C 157.6986 416.56543 158.46484 412.45041 158.46484 407.49805 C 158.46484 401.91792 157.52392 397.38406 155.64062 393.89648 C 153.75733 390.40891 151.28196 387.72314 148.21289 385.83984 C 145.21357 383.8868 141.82908 382.5608 138.0625 381.86328 C 134.29592 381.16577 130.56597 380.81641 126.86914 380.81641 z M 189.11523 380.81641 C 187.23194 380.81641 185.27865 380.88784 183.25586 381.02734 C 181.30282 381.0971 179.38525 381.20034 177.50195 381.33984 C 175.61866 381.47935 173.87382 381.65403 172.26953 381.86328 C 170.66525 382.00278 169.3412 382.14175 168.29492 382.28125 L 168.29492 456.98633 C 171.43374 457.40484 174.60588 457.7542 177.81445 458.0332 C 181.09278 458.38196 184.47727 458.55469 187.96484 458.55469 C 201.63615 458.55469 211.95844 455.48579 218.93359 449.34766 C 225.90875 443.13977 229.39648 433.40905 229.39648 420.15625 C 229.39648 407.11271 225.97823 397.31446 219.14258 390.75781 C 212.30693 384.13141 202.29828 380.81641 189.11523 380.81641 z M 240.02148 382.07227 L 240.02148 456.98633 C 243.64857 457.61409 246.75122 457.92773 249.33203 457.92773 C 251.77334 457.92773 254.84418 457.61409 258.54102 456.98633 L 258.54102 427.58594 L 278.73242 427.58594 C 279.36019 424.44712 279.67383 421.69187 279.67383 419.32031 C 279.67383 417.01851 279.36019 414.29898 278.73242 411.16016 L 258.54102 411.16016 L 258.54102 398.39453 L 284.17383 398.39453 C 284.73184 395.18596 285.01172 392.43071 285.01172 390.12891 C 285.01172 388.94313 284.94028 387.68856 284.80078 386.36328 C 284.66128 385.038 284.45283 383.6068 284.17383 382.07227 L 240.02148 382.07227 z M 126.76367 396.40625 L 128.22852 396.40625 C 129.76305 396.40625 131.22802 396.58093 132.62305 396.92969 C 134.01808 397.27845 135.23888 397.90573 136.28516 398.8125 C 137.33143 399.64952 138.13339 400.80084 138.69141 402.26562 C 139.31917 403.66066 139.63281 405.4055 139.63281 407.49805 C 139.63281 411.05538 138.69189 413.70543 136.80859 415.44922 C 134.9253 417.19301 132.48369 418.06445 129.48438 418.06445 C 128.5776 418.06445 127.70616 418.03069 126.86914 417.96094 C 126.03212 417.89119 125.4386 417.78599 125.08984 417.64648 L 125.08984 396.51172 C 125.64786 396.44197 126.20566 396.40625 126.76367 396.40625 z M 191.10352 397.24414 C 193.61457 397.24414 196.02046 397.62726 198.32227 398.39453 C 200.62407 399.09205 202.61112 400.31285 204.28516 402.05664 C 206.02895 403.73068 207.42443 406.03333 208.4707 408.96289 C 209.51698 411.89246 210.04102 415.55292 210.04102 419.94727 C 210.04102 424.41137 209.51698 428.07378 208.4707 430.93359 C 207.49418 433.79341 206.13441 436.06034 204.39062 437.73438 C 202.64684 439.40841 200.55459 440.5935 198.11328 441.29102 C 195.74173 441.91878 193.19492 442.23438 190.47461 442.23438 L 188.48633 442.23438 C 187.85856 442.23437 187.30076 442.19866 186.8125 442.12891 L 186.8125 397.34766 L 188.06836 397.34766 C 188.69612 397.2779 189.70848 397.24414 191.10352 397.24414 z "
       id="rect4610" />
    <path
       inkscape:connector-curvature="0"
       d="m 356.09427,264.37101 c -1.32488,0.82016 -5.11025,1.32488 -7.50765,1.32488 -7.82309,0 -17.41269,-3.5961 -30.97692,-9.40033 5.23642,-0.37854 9.96813,-0.5678 14.25821,-0.5678 7.8231,0 10.09432,0 17.79123,1.95577 7.63383,1.89268 7.69692,5.86732 6.43513,6.68748 z m -135.70543,1.1987 c 3.02829,-5.29951 6.11967,-10.91448 9.27415,-16.90797 7.69691,-14.57367 12.61789,-26.05595 16.21399,-35.45628 7.25529,13.1857 16.27708,24.35253 26.81302,33.31123 1.32488,1.13561 2.71285,2.20814 4.22699,3.34375 -21.5135,4.29008 -40.12489,9.46341 -56.52815,15.70927 z m 25.1096,-138.10283 c 4.29008,0 6.75057,10.76306 6.93984,20.92047 0.18927,10.09431 -2.14504,17.16033 -5.11024,22.45984 -2.46049,-7.82309 -3.5961,-20.06245 -3.5961,-28.07481 0,0 -0.18927,-15.3055 1.7665,-15.3055 z M 161.3371,321.27771 c 2.46049,-6.6244 12.05009,-19.74701 26.24521,-31.41856 0.88326,-0.69398 3.09139,-2.77593 5.11025,-4.66862 -14.82602,23.72164 -24.79416,33.12197 -31.35546,36.08718 z m 198.85798,-70.84947 c -4.29008,-4.22699 -13.87968,-6.43512 -28.39026,-6.62439 -9.84195,-0.12618 -21.63968,0.75707 -34.13139,2.46049 -5.55188,-3.21757 -11.29302,-6.68749 -15.83546,-10.91448 -12.11318,-11.3561 -22.20749,-27.06538 -28.51644,-44.35189 0.37854,-1.64033 0.75708,-3.0283 1.07252,-4.47935 0,0 6.81367,-38.80002 4.98407,-51.92263 -0.25236,-1.8296 -0.37853,-2.33431 -0.88325,-3.72228 l -0.56781,-1.57724 c -1.82959,-4.26484 -5.48878,-8.80728 -11.22992,-8.56124 l -3.34374,-0.10725 h -0.0631 c -6.37204,0 -11.60846,3.26173 -12.93334,8.10069 -4.1639,15.33074 0.12618,38.16912 7.88618,67.75808 l -2.01886,4.85789 c -5.55187,13.50114 -12.49171,27.12847 -18.61139,39.11547 l -0.82016,1.57723 c -6.43513,12.61789 -12.30245,23.3431 -17.60196,32.42799 l -5.48879,2.90211 c -0.37853,0.25236 -9.77886,5.17334 -11.98699,6.49822 -18.67449,11.16683 -31.09049,23.84781 -33.14721,33.94213 -0.65613,3.15447 -0.16403,7.25528 3.16078,9.21106 l 5.29952,2.64975 c 2.29015,1.13561 4.75063,1.70342 7.21112,1.70342 13.31188,0 28.7688,-16.52944 50.02995,-53.68913 24.60489,-8.01236 52.61661,-14.69985 77.15841,-18.35904 18.67448,10.53594 41.63904,17.85432 56.14962,17.85432 2.58667,0 4.7948,-0.25236 6.62439,-0.75707 2.77594,-0.69399 5.11025,-2.27122 6.56131,-4.47935 2.77593,-4.227 3.40683,-10.03123 2.58667,-16.02473 -0.18927,-1.7665 -1.64033,-3.97463 -3.15448,-5.48878 z"
       id="path6"
       style="fill:#ff0000;stroke-width:0.6308946" />
  </g>
</svg>
