<?xml version="1.0" encoding="UTF-8" standalone="no"?>
<!-- Created with Inkscape (http://www.inkscape.org/) -->

<svg
   xmlns:osb="http://www.openswatchbook.org/uri/2009/osb"
   xmlns:dc="http://purl.org/dc/elements/1.1/"
   xmlns:cc="http://creativecommons.org/ns#"
   xmlns:rdf="http://www.w3.org/1999/02/22-rdf-syntax-ns#"
   xmlns:svg="http://www.w3.org/2000/svg"
   xmlns="http://www.w3.org/2000/svg"
   xmlns:xlink="http://www.w3.org/1999/xlink"
   xmlns:sodipodi="http://sodipodi.sourceforge.net/DTD/sodipodi-0.dtd"
   xmlns:inkscape="http://www.inkscape.org/namespaces/inkscape"
   width="512px"
   height="512px"
   viewBox="0 0 512 512"
   version="1.1"
   id="SVGRoot"
   inkscape:version="0.92.1 r15371"
   sodipodi:docname="atom.svg">
  <sodipodi:namedview
     id="base"
     pagecolor="#ffffff"
     bordercolor="#666666"
     borderopacity="1.0"
     inkscape:pageopacity="0.0"
     inkscape:pageshadow="2"
     inkscape:zoom="1"
     inkscape:cx="266.16827"
     inkscape:cy="252.13104"
     inkscape:document-units="px"
     inkscape:current-layer="layer1"
     showgrid="false"
     inkscape:window-width="1280"
     inkscape:window-height="947"
     inkscape:window-x="0"
     inkscape:window-y="0"
     inkscape:window-maximized="1" />
  <defs
     id="defs4710">
    <linearGradient
       id="linearGradient8384"
       inkscape:collect="always">
      <stop
         id="stop8380"
         offset="0"
         style="stop-color:#181818;stop-opacity:0.62365592" />
      <stop
         id="stop8382"
         offset="1"
         style="stop-color:#404040;stop-opacity:0" />
    </linearGradient>
    <linearGradient
       inkscape:collect="always"
       id="linearGradient4573">
      <stop
         style="stop-color:#181818;stop-opacity:0.30645162"
         offset="0"
         id="stop4569" />
      <stop
         style="stop-color:#404040;stop-opacity:0"
         offset="1"
         id="stop4571" />
    </linearGradient>
    <marker
       inkscape:stockid="DotM"
       orient="auto"
       refY="0.0"
       refX="0.0"
       id="DotM"
       style="overflow:visible"
       inkscape:isstock="true">
      <path
         id="path4618"
         d="M -2.5,-1.0 C -2.5,1.7600000 -4.7400000,4.0 -7.5,4.0 C -10.260000,4.0 -12.5,1.7600000 -12.5,-1.0 C -12.5,-3.7600000 -10.260000,-6.0 -7.5,-6.0 C -4.7400000,-6.0 -2.5,-3.7600000 -2.5,-1.0 z "
         style="fill-rule:evenodd;stroke:#000000;stroke-width:1.0pt"
         transform="scale(0.4) translate(7.4, 1)" />
    </marker>
    <linearGradient
       osb:paint="solid"
       id="linearGradient5207">
      <stop
         id="stop5209"
         offset="0"
         style="stop-color:#000015;stop-opacity:1;" />
    </linearGradient>
    <clipPath
       id="clipPath3006-9-8"
       clipPathUnits="userSpaceOnUse">
      <path
         inkscape:export-ydpi="90"
         inkscape:export-xdpi="90"
         transform="matrix(1.2020779,0,0,1.2020779,-93.20363,-75.172465)"
         d="m 483,275.5 a 192.5,192.5 0 1 1 -385,0 192.5,192.5 0 1 1 385,0 z"
         sodipodi:ry="192.5"
         sodipodi:rx="192.5"
         sodipodi:cy="275.5"
         sodipodi:cx="290.5"
         id="path3008-1-1"
         style="fill:#ffffff;fill-opacity:1;stroke:none;display:inline"
         sodipodi:type="arc" />
    </clipPath>
    <mask
       id="mask3818-4"
       maskUnits="userSpaceOnUse">
      <path
         sodipodi:type="arc"
         style="fill:#ffffff;fill-opacity:1;stroke:none;display:inline"
         id="path3820-9"
         sodipodi:cx="290.5"
         sodipodi:cy="275.5"
         sodipodi:rx="192.5"
         sodipodi:ry="192.5"
         d="m 483,275.5 a 192.5,192.5 0 1 1 -385,0 192.5,192.5 0 1 1 385,0 z"
         transform="matrix(1.2020779,0,0,1.2020779,-93.20363,-75.172466)"
         inkscape:export-xdpi="90"
         inkscape:export-ydpi="90" />
    </mask>
    <clipPath
       id="clipPath3006"
       clipPathUnits="userSpaceOnUse">
      <path
         inkscape:export-ydpi="90"
         inkscape:export-xdpi="90"
         transform="matrix(1.2020779,0,0,1.2020779,-93.20363,-75.172465)"
         d="m 483,275.5 a 192.5,192.5 0 1 1 -385,0 192.5,192.5 0 1 1 385,0 z"
         sodipodi:ry="192.5"
         sodipodi:rx="192.5"
         sodipodi:cy="275.5"
         sodipodi:cx="290.5"
         id="path3008"
         style="fill:#ffffff;fill-opacity:1;stroke:none;display:inline"
         sodipodi:type="arc" />
    </clipPath>
    <clipPath
       id="clipPath3006-9"
       clipPathUnits="userSpaceOnUse">
      <path
         inkscape:export-ydpi="90"
         inkscape:export-xdpi="90"
         transform="matrix(1.2020779,0,0,1.2020779,-93.20363,-75.172465)"
         d="m 483,275.5 a 192.5,192.5 0 1 1 -385,0 192.5,192.5 0 1 1 385,0 z"
         sodipodi:ry="192.5"
         sodipodi:rx="192.5"
         sodipodi:cy="275.5"
         sodipodi:cx="290.5"
         id="path3008-1"
         style="fill:#ffffff;fill-opacity:1;stroke:none;display:inline"
         sodipodi:type="arc" />
    </clipPath>
    <mask
       maskUnits="userSpaceOnUse"
       id="mask3818-0">
      <path
         inkscape:export-ydpi="90"
         inkscape:export-xdpi="90"
         transform="matrix(1.2020779,0,0,1.2020779,-93.20363,-75.172466)"
         d="m 483,275.5 a 192.5,192.5 0 1 1 -385,0 192.5,192.5 0 1 1 385,0 z"
         sodipodi:ry="192.5"
         sodipodi:rx="192.5"
         sodipodi:cy="275.5"
         sodipodi:cx="290.5"
         id="path3820-8"
         style="fill:#ffffff;fill-opacity:1;stroke:none;display:inline"
         sodipodi:type="arc" />
    </mask>
    <mask
       maskUnits="userSpaceOnUse"
       id="mask3818-2">
      <path
         inkscape:export-ydpi="90"
         inkscape:export-xdpi="90"
         transform="matrix(1.2020779,0,0,1.2020779,-93.20363,-75.172466)"
         d="m 483,275.5 a 192.5,192.5 0 1 1 -385,0 192.5,192.5 0 1 1 385,0 z"
         sodipodi:ry="192.5"
         sodipodi:rx="192.5"
         sodipodi:cy="275.5"
         sodipodi:cx="290.5"
         id="path3820-2-2"
         style="fill:#ffffff;fill-opacity:1;stroke:none;display:inline"
         sodipodi:type="arc" />
    </mask>
    <clipPath
       id="clipPath3934"
       clipPathUnits="userSpaceOnUse">
      <path
         id="path3936"
         d="m 0,0 0,1024 1024,0 L 1024,0 0,0 z m 278.4375,333.84375 119.78125,0 c 9.83697,42.31453 19.85954,84.58596 29.9375,126.84375 9.86978,-42.28798 20.05132,-84.50237 29.6875,-126.84375 l 108.90625,0 c 9.63586,42.34141 19.8178,84.55578 29.6875,126.84375 10.07827,-42.25772 20.10031,-84.52927 29.9375,-126.84375 l 119.1875,0 c -26.26221,110.73099 -52.49625,221.46929 -78.28125,332.3125 l -122.8125,0 c -10.59439,-45.55681 -21.46638,-91.04874 -32.375,-136.53125 -10.66279,45.51136 -21.5615,90.96897 -32,136.53125 l -122.8125,0 c -25.71418,-110.03502 -52.0286,-219.92873 -78.25,-329.84375 l -0.59375,-2.46875 z"
         style="fill:#ff3232;fill-opacity:1;stroke:none"
         inkscape:connector-curvature="0" />
    </clipPath>
    <clipPath
       id="clipPath3929"
       clipPathUnits="userSpaceOnUse">
      <path
         inkscape:connector-curvature="0"
         style="fill:#ff3232;fill-opacity:1;stroke:none"
         d="m 0,0 0,1024 1024,0 L 1024,0 0,0 z m 278.4375,333.84375 119.78125,0 c 9.83697,42.31453 19.85954,84.58596 29.9375,126.84375 9.86978,-42.28798 20.05132,-84.50237 29.6875,-126.84375 l 108.90625,0 c 9.63586,42.34141 19.8178,84.55578 29.6875,126.84375 10.07827,-42.25772 20.10031,-84.52927 29.9375,-126.84375 l 119.1875,0 c -26.26221,110.73099 -52.49625,221.46929 -78.28125,332.3125 l -122.8125,0 c -10.59439,-45.55681 -21.46638,-91.04874 -32.375,-136.53125 -10.66279,45.51136 -21.5615,90.96897 -32,136.53125 l -122.8125,0 c -25.71418,-110.03502 -52.0286,-219.92873 -78.25,-329.84375 l -0.59375,-2.46875 z"
         id="path3931" />
    </clipPath>
    <mask
       maskUnits="userSpaceOnUse"
       id="mask3818">
      <path
         inkscape:export-ydpi="90"
         inkscape:export-xdpi="90"
         transform="matrix(1.2020779,0,0,1.2020779,-93.20363,-75.172466)"
         d="m 483,275.5 a 192.5,192.5 0 1 1 -385,0 192.5,192.5 0 1 1 385,0 z"
         sodipodi:ry="192.5"
         sodipodi:rx="192.5"
         sodipodi:cy="275.5"
         sodipodi:cx="290.5"
         id="path3820"
         style="fill:#ffffff;fill-opacity:1;stroke:none;display:inline"
         sodipodi:type="arc" />
    </mask>
    <linearGradient
       inkscape:collect="always"
       xlink:href="#linearGradient4573"
       id="linearGradient4575"
       x1="408.84314"
       y1="89.26915"
       x2="420.61133"
       y2="138.41306"
       gradientUnits="userSpaceOnUse"
       gradientTransform="matrix(0.99657796,0,0,1,1.2520606,0)" />
    <linearGradient
       inkscape:collect="always"
       xlink:href="#linearGradient8384"
       id="linearGradient6771"
       gradientUnits="userSpaceOnUse"
       gradientTransform="matrix(0.99657796,0,0,1,1.2520606,0)"
       x1="408.84314"
       y1="89.26915"
       x2="420.61133"
       y2="138.41306" />
  </defs>
  <metadata
     id="metadata4713">
    <rdf:RDF>
      <cc:Work
         rdf:about="">
        <dc:format>image/svg+xml</dc:format>
        <dc:type
           rdf:resource="http://purl.org/dc/dcmitype/StillImage" />
        <dc:title></dc:title>
      </cc:Work>
    </rdf:RDF>
  </metadata>
  <g
     id="layer1"
     inkscape:groupmode="layer"
     inkscape:label="Capa 1">
    <path
       style="opacity:1;fill:#fe8400;fill-opacity:1;fill-rule:evenodd;stroke:#ffd7ac;stroke-width:2;stroke-linejoin:round;stroke-miterlimit:4;stroke-dasharray:none;stroke-dashoffset:0;stroke-opacity:1;paint-order:normal"
       d="m 97.583979,29.700195 c -11.07875,0 -19.99804,9.65194 -19.99804,21.64062 V 460.66113 c 0,11.9887 8.91929,21.63867 19.99804,21.63867 H 414.41602 c 11.07874,0 19.99804,-9.64997 19.99804,-21.63867 V 113.7959 c -0.33411,-0.32981 -0.46874,-0.43168 -0.81445,-0.77345 -9.64188,-9.53205 -23.80681,-23.701345 -37.64453,-37.822255 -6.91884,-7.06045 -13.75546,-14.10994 -19.9043,-20.56055 -6.14876,-6.45062 -11.60929,-12.30327 -15.77539,-16.97265 -3.0827,-3.45513 -4.82334,-5.68286 -6.625,-7.9668 z"
       id="path4506"
       inkscape:connector-curvature="0"
       sodipodi:nodetypes="ssssssccccccs" />
    <g
       id="g4584"
       transform="matrix(0.3829248,0,0,0.3829248,74.406719,31.973725)"
       style="fill:#75abd3;fill-opacity:1;stroke:#9dc4df;stroke-opacity:1" />
    <path
       style="opacity:1;fill:#ffffff;fill-opacity:1;fill-rule:evenodd;stroke:#ffd7ac;stroke-width:0.85055965;stroke-linecap:square;stroke-linejoin:miter;stroke-miterlimit:4;stroke-dasharray:none;stroke-dashoffset:0;stroke-opacity:1;paint-order:markers fill stroke"
       d="M 155.71875 401.95117 C 153.06819 401.95117 150.06878 402.23105 146.7207 402.78906 C 143.44238 403.34707 140.12932 404.18476 136.78125 405.30078 C 136.78125 406.69581 136.81501 407.95038 136.88477 409.06641 C 137.02427 410.11268 137.19895 411.1588 137.4082 412.20508 C 137.68721 413.1816 138.03657 414.15824 138.45508 415.13477 C 138.94334 416.11129 139.50114 417.19313 140.12891 418.37891 C 142.50046 417.54189 144.80115 416.94837 147.0332 416.59961 C 149.26525 416.1811 151.21854 415.97266 152.89258 415.97266 C 154.14811 415.97266 155.36891 416.0759 156.55469 416.28516 C 157.74046 416.42466 158.82231 416.7383 159.79883 417.22656 C 160.77535 417.64507 161.57731 418.27431 162.20508 419.11133 C 162.83284 419.94835 163.1822 420.99447 163.25195 422.25 L 156.86914 422.25 C 154.21858 422.25 151.49709 422.52793 148.70703 423.08594 C 145.91697 423.5742 143.37211 424.48136 141.07031 425.80664 C 138.76851 427.13192 136.8847 428.91053 135.41992 431.14258 C 133.95514 433.37463 133.22266 436.19936 133.22266 439.61719 C 133.22266 443.10477 133.81618 446.07041 135.00195 448.51172 C 136.25748 450.88327 137.96661 452.80084 140.12891 454.26562 C 142.2912 455.73041 144.87178 456.77653 147.87109 457.4043 C 150.94016 458.10181 154.28893 458.45117 157.91602 458.45117 C 162.10111 458.45117 166.07521 458.0661 169.8418 457.29883 C 173.60838 456.53156 176.81819 455.76531 179.46875 454.99805 L 179.46875 424.3418 C 179.46875 420.43571 178.91095 417.08694 177.79492 414.29688 C 176.6789 411.43706 175.07497 409.10065 172.98242 407.28711 C 170.95963 405.47357 168.4823 404.14952 165.55273 403.3125 C 162.62317 402.40573 159.34583 401.95117 155.71875 401.95117 z M 265.86523 401.95117 C 261.47089 401.95117 257.60003 402.64989 254.25195 404.04492 C 250.90388 405.3702 248.07915 407.28777 245.77734 409.79883 C 243.54529 412.30988 241.83617 415.34501 240.65039 418.90234 C 239.53437 422.38992 238.97656 426.26078 238.97656 430.51562 C 238.97656 434.70072 239.53437 438.53586 240.65039 442.02344 C 241.83617 445.44126 243.54529 448.40691 245.77734 450.91797 C 248.07915 453.35927 250.90388 455.24113 254.25195 456.56641 C 257.60003 457.89169 261.47089 458.55469 265.86523 458.55469 C 270.32933 458.55469 274.23591 457.89169 277.58398 456.56641 C 280.93206 455.24113 283.72303 453.35927 285.95508 450.91797 C 288.25688 448.40691 289.96601 445.44126 291.08203 442.02344 C 292.26781 438.53586 292.85938 434.70072 292.85938 430.51562 C 292.85938 426.26078 292.26781 422.38992 291.08203 418.90234 C 289.96601 415.34501 288.25688 412.30988 285.95508 409.79883 C 283.72303 407.28777 280.93206 405.3702 277.58398 404.04492 C 274.23591 402.64989 270.32933 401.95117 265.86523 401.95117 z M 323.63867 402.16016 C 318.4073 402.16016 314.08189 402.579 310.66406 403.41602 C 307.24624 404.18328 304.3163 404.98525 301.875 405.82227 L 301.875 457.19531 C 303.68854 457.54407 305.32819 457.75251 306.79297 457.82227 C 308.25775 457.96177 309.58375 458.03125 310.76953 458.03125 C 311.88556 458.03125 313.17584 457.96177 314.64062 457.82227 C 316.10541 457.75251 317.74505 457.54407 319.55859 457.19531 L 319.55859 418.06445 C 319.76785 417.92495 320.28993 417.78599 321.12695 417.64648 C 322.03372 417.50698 322.8714 417.4375 323.63867 417.4375 C 326.49849 417.4375 328.52125 418.23946 329.70703 419.84375 C 330.89281 421.44804 331.48633 424.09809 331.48633 427.79492 L 331.48633 457.19531 C 333.29987 457.54407 334.93756 457.75251 336.40234 457.82227 C 337.86713 457.96177 339.19313 458.03125 340.37891 458.03125 C 341.49493 458.03125 342.78522 457.96177 344.25 457.82227 C 345.71478 457.75251 347.35443 457.54407 349.16797 457.19531 L 349.16797 426.64453 C 349.16797 423.50571 348.85433 420.71474 348.22656 418.27344 C 348.57532 418.13393 349.2026 417.95925 350.10938 417.75 C 351.0859 417.54075 352.06254 417.4375 353.03906 417.4375 C 355.89888 417.4375 357.95541 418.23946 359.21094 419.84375 C 360.46647 421.44804 361.0957 424.09809 361.0957 427.79492 L 361.0957 457.19531 C 362.90924 457.54407 364.54694 457.75251 366.01172 457.82227 C 367.4765 457.96177 368.8025 458.03125 369.98828 458.03125 C 371.10431 458.03125 372.39459 457.96177 373.85938 457.82227 C 375.32416 457.75251 376.9638 457.54407 378.77734 457.19531 L 378.77734 425.91211 C 378.77734 420.75049 378.00914 416.59976 376.47461 413.46094 C 375.00983 410.32212 373.09226 407.91622 370.7207 406.24219 C 368.4189 404.56815 365.80261 403.48631 362.87305 402.99805 C 360.01323 402.44003 357.22422 402.16016 354.50391 402.16016 C 351.43484 402.16016 348.67959 402.50952 346.23828 403.20703 C 343.79698 403.90455 341.66901 404.70651 339.85547 405.61328 C 337.48392 404.21825 334.90334 403.31109 332.11328 402.89258 C 329.32322 402.40432 326.49849 402.16016 323.63867 402.16016 z M 185.62109 403.20703 C 185.27234 404.60206 185.02817 405.89235 184.88867 407.07812 C 184.81892 408.2639 184.78516 409.41523 184.78516 410.53125 C 184.78516 411.64727 184.81892 412.83236 184.88867 414.08789 C 185.02817 415.27367 185.27234 416.56395 185.62109 417.95898 L 201.10742 417.95898 L 201.10742 457.19531 C 202.85121 457.47432 204.45514 457.68276 205.91992 457.82227 C 207.3847 457.96177 208.70875 458.03125 209.89453 458.03125 C 211.08031 458.03125 212.40631 457.96177 213.87109 457.82227 C 215.33588 457.68276 216.97552 457.47432 218.78906 457.19531 L 218.78906 417.95898 L 234.27344 417.95898 C 234.6222 416.56395 234.83064 415.27367 234.90039 414.08789 C 235.03989 412.83236 235.11133 411.64727 235.11133 410.53125 C 235.11133 409.41523 235.03989 408.2639 234.90039 407.07812 C 234.83064 405.89235 234.6222 404.60206 234.27344 403.20703 L 185.62109 403.20703 z M 265.86523 416.70508 C 268.9343 416.70508 271.20123 417.89017 272.66602 420.26172 C 274.20055 422.63327 274.96875 426.05153 274.96875 430.51562 C 274.96875 434.90997 274.20055 438.29251 272.66602 440.66406 C 271.20123 443.03562 268.9343 444.2207 265.86523 444.2207 C 262.79617 444.2207 260.52924 443.03562 259.06445 440.66406 C 257.59967 438.29251 256.86719 434.90997 256.86719 430.51562 C 256.86719 426.05153 257.59967 422.63327 259.06445 420.26172 C 260.52924 417.89017 262.79617 416.70508 265.86523 416.70508 z M 157.28711 433.33984 L 163.25195 433.33984 L 163.25195 444.84961 C 162.69394 444.98911 161.82054 445.12808 160.63477 445.26758 C 159.44899 445.40708 158.54378 445.47656 157.91602 445.47656 C 157.00925 445.47656 155.99688 445.40708 154.88086 445.26758 C 153.83459 445.12808 152.82418 444.8482 151.84766 444.42969 C 150.94089 444.01118 150.17269 443.41961 149.54492 442.65234 C 148.91716 441.81533 148.60352 440.69972 148.60352 439.30469 C 148.60352 437.4214 149.4412 435.95643 151.11523 434.91016 C 152.78927 433.86388 154.8458 433.33984 157.28711 433.33984 z "
       id="rect4610" />
    <path
       style="opacity:1;fill:url(#linearGradient6771);fill-opacity:1;fill-rule:evenodd;stroke:none;stroke-width:8.77774811;stroke-linecap:square;stroke-linejoin:miter;stroke-miterlimit:4;stroke-dasharray:none;stroke-dashoffset:0;stroke-opacity:1;paint-order:markers fill stroke"
       d="m 433.28939,182.37584 v -69.47028 c 0,-0.0394 -0.0309,-0.0705 -0.0703,-0.0705 h -67.33747 c 4.09851,4.50878 8.40749,9.2132 13.77948,14.86279 7.205,7.57734 15.21697,15.8602 23.32513,24.15489 11.13885,11.3951 20.83136,21.05949 30.30308,30.52302 z"
       id="path4566"
       inkscape:connector-curvature="0" />
    <path
       style="opacity:1;fill:#ffd7ac;fill-opacity:1;fill-rule:evenodd;stroke:none;stroke-width:1.05391276;stroke-linejoin:round;stroke-miterlimit:4;stroke-dasharray:none;stroke-dashoffset:0;stroke-opacity:1;paint-order:normal"
       d="m 435.00048,114.60612 c -1.83541,-2.30475 -3.6077,-4.55306 -6.74972,-8.04125 -4.24635,-4.71409 -9.8132,-10.623129 -16.08223,-17.137261 C 405.8996,82.913483 398.92921,75.794273 391.8744,68.663457 377.76477,54.401804 363.32068,40.090503 353.48814,30.462087 c -0.35278,-0.345219 -0.4898,-0.448268 -0.83055,-0.781422 l -0.24394,62.802323 c -0.0467,12.055462 9.04538,21.800782 20.38588,21.850482 z"
       id="rect4485"
       inkscape:connector-curvature="0" />
    <path
       id="rect4116-7-3"
       d="m 136.00006,106.00005 v 47.99993 h 47.99998 c 79.77591,0 143.99994,64.22411 143.99994,144.00002 v 47.99995 h 47.99996 V 298 c 0,-106.36787 -85.63199,-191.99995 -191.9999,-191.99995 z m 0,96.00003 v 47.99998 h 47.99998 c 26.59194,0 47.99999,21.40803 47.99999,47.99994 v 47.99995 h 47.99999 V 298 c 0,-53.18397 -42.81605,-95.99992 -95.99998,-95.99992 z m 28.00001,87.9999 c -15.51203,0 -28.00001,12.48802 -28.00001,28.00005 0,15.51206 12.48798,27.99992 28.00001,27.99992 15.51197,0 27.99995,-12.48786 27.99995,-27.99992 0,-15.51203 -12.48798,-28.00005 -27.99995,-28.00005 z"
       style="fill:#ffffff;fill-opacity:1;stroke:#ffd7ac;stroke-width:0.87272722;stroke-opacity:1"
       inkscape:connector-curvature="0" />
  </g>
</svg>
