<?xml version="1.0" encoding="UTF-8" standalone="no"?>
<!-- Created with Inkscape (http://www.inkscape.org/) -->

<svg
   xmlns:osb="http://www.openswatchbook.org/uri/2009/osb"
   xmlns:dc="http://purl.org/dc/elements/1.1/"
   xmlns:cc="http://creativecommons.org/ns#"
   xmlns:rdf="http://www.w3.org/1999/02/22-rdf-syntax-ns#"
   xmlns:svg="http://www.w3.org/2000/svg"
   xmlns="http://www.w3.org/2000/svg"
   xmlns:xlink="http://www.w3.org/1999/xlink"
   xmlns:sodipodi="http://sodipodi.sourceforge.net/DTD/sodipodi-0.dtd"
   xmlns:inkscape="http://www.inkscape.org/namespaces/inkscape"
   width="512px"
   height="512px"
   viewBox="0 0 512 512"
   version="1.1"
   id="SVGRoot"
   inkscape:version="0.92.1 r15371"
   sodipodi:docname="authors.svg">
  <sodipodi:namedview
     id="base"
     pagecolor="#ffffff"
     bordercolor="#666666"
     borderopacity="1.0"
     inkscape:pageopacity="0.0"
     inkscape:pageshadow="2"
     inkscape:zoom="1"
     inkscape:cx="331.24519"
     inkscape:cy="282.25941"
     inkscape:document-units="px"
     inkscape:current-layer="layer1"
     showgrid="false"
     inkscape:window-width="1280"
     inkscape:window-height="947"
     inkscape:window-x="0"
     inkscape:window-y="0"
     inkscape:window-maximized="1" />
  <defs
     id="defs4710">
    <linearGradient
       id="linearGradient8384"
       inkscape:collect="always">
      <stop
         id="stop8380"
         offset="0"
         style="stop-color:#181818;stop-opacity:0.62365592" />
      <stop
         id="stop8382"
         offset="1"
         style="stop-color:#404040;stop-opacity:0" />
    </linearGradient>
    <linearGradient
       inkscape:collect="always"
       id="linearGradient4573">
      <stop
         style="stop-color:#181818;stop-opacity:0.30645162"
         offset="0"
         id="stop4569" />
      <stop
         style="stop-color:#404040;stop-opacity:0"
         offset="1"
         id="stop4571" />
    </linearGradient>
    <marker
       inkscape:stockid="DotM"
       orient="auto"
       refY="0.0"
       refX="0.0"
       id="DotM"
       style="overflow:visible"
       inkscape:isstock="true">
      <path
         id="path4618"
         d="M -2.5,-1.0 C -2.5,1.7600000 -4.7400000,4.0 -7.5,4.0 C -10.260000,4.0 -12.5,1.7600000 -12.5,-1.0 C -12.5,-3.7600000 -10.260000,-6.0 -7.5,-6.0 C -4.7400000,-6.0 -2.5,-3.7600000 -2.5,-1.0 z "
         style="fill-rule:evenodd;stroke:#000000;stroke-width:1.0pt"
         transform="scale(0.4) translate(7.4, 1)" />
    </marker>
    <linearGradient
       osb:paint="solid"
       id="linearGradient5207">
      <stop
         id="stop5209"
         offset="0"
         style="stop-color:#000015;stop-opacity:1;" />
    </linearGradient>
    <clipPath
       id="clipPath3006-9-8"
       clipPathUnits="userSpaceOnUse">
      <path
         inkscape:export-ydpi="90"
         inkscape:export-xdpi="90"
         transform="matrix(1.2020779,0,0,1.2020779,-93.20363,-75.172465)"
         d="m 483,275.5 a 192.5,192.5 0 1 1 -385,0 192.5,192.5 0 1 1 385,0 z"
         sodipodi:ry="192.5"
         sodipodi:rx="192.5"
         sodipodi:cy="275.5"
         sodipodi:cx="290.5"
         id="path3008-1-1"
         style="fill:#ffffff;fill-opacity:1;stroke:none;display:inline"
         sodipodi:type="arc" />
    </clipPath>
    <mask
       id="mask3818-4"
       maskUnits="userSpaceOnUse">
      <path
         sodipodi:type="arc"
         style="fill:#ffffff;fill-opacity:1;stroke:none;display:inline"
         id="path3820-9"
         sodipodi:cx="290.5"
         sodipodi:cy="275.5"
         sodipodi:rx="192.5"
         sodipodi:ry="192.5"
         d="m 483,275.5 a 192.5,192.5 0 1 1 -385,0 192.5,192.5 0 1 1 385,0 z"
         transform="matrix(1.2020779,0,0,1.2020779,-93.20363,-75.172466)"
         inkscape:export-xdpi="90"
         inkscape:export-ydpi="90" />
    </mask>
    <clipPath
       id="clipPath3006"
       clipPathUnits="userSpaceOnUse">
      <path
         inkscape:export-ydpi="90"
         inkscape:export-xdpi="90"
         transform="matrix(1.2020779,0,0,1.2020779,-93.20363,-75.172465)"
         d="m 483,275.5 a 192.5,192.5 0 1 1 -385,0 192.5,192.5 0 1 1 385,0 z"
         sodipodi:ry="192.5"
         sodipodi:rx="192.5"
         sodipodi:cy="275.5"
         sodipodi:cx="290.5"
         id="path3008"
         style="fill:#ffffff;fill-opacity:1;stroke:none;display:inline"
         sodipodi:type="arc" />
    </clipPath>
    <clipPath
       id="clipPath3006-9"
       clipPathUnits="userSpaceOnUse">
      <path
         inkscape:export-ydpi="90"
         inkscape:export-xdpi="90"
         transform="matrix(1.2020779,0,0,1.2020779,-93.20363,-75.172465)"
         d="m 483,275.5 a 192.5,192.5 0 1 1 -385,0 192.5,192.5 0 1 1 385,0 z"
         sodipodi:ry="192.5"
         sodipodi:rx="192.5"
         sodipodi:cy="275.5"
         sodipodi:cx="290.5"
         id="path3008-1"
         style="fill:#ffffff;fill-opacity:1;stroke:none;display:inline"
         sodipodi:type="arc" />
    </clipPath>
    <mask
       maskUnits="userSpaceOnUse"
       id="mask3818-0">
      <path
         inkscape:export-ydpi="90"
         inkscape:export-xdpi="90"
         transform="matrix(1.2020779,0,0,1.2020779,-93.20363,-75.172466)"
         d="m 483,275.5 a 192.5,192.5 0 1 1 -385,0 192.5,192.5 0 1 1 385,0 z"
         sodipodi:ry="192.5"
         sodipodi:rx="192.5"
         sodipodi:cy="275.5"
         sodipodi:cx="290.5"
         id="path3820-8"
         style="fill:#ffffff;fill-opacity:1;stroke:none;display:inline"
         sodipodi:type="arc" />
    </mask>
    <mask
       maskUnits="userSpaceOnUse"
       id="mask3818-2">
      <path
         inkscape:export-ydpi="90"
         inkscape:export-xdpi="90"
         transform="matrix(1.2020779,0,0,1.2020779,-93.20363,-75.172466)"
         d="m 483,275.5 a 192.5,192.5 0 1 1 -385,0 192.5,192.5 0 1 1 385,0 z"
         sodipodi:ry="192.5"
         sodipodi:rx="192.5"
         sodipodi:cy="275.5"
         sodipodi:cx="290.5"
         id="path3820-2-2"
         style="fill:#ffffff;fill-opacity:1;stroke:none;display:inline"
         sodipodi:type="arc" />
    </mask>
    <clipPath
       id="clipPath3934"
       clipPathUnits="userSpaceOnUse">
      <path
         id="path3936"
         d="m 0,0 0,1024 1024,0 L 1024,0 0,0 z m 278.4375,333.84375 119.78125,0 c 9.83697,42.31453 19.85954,84.58596 29.9375,126.84375 9.86978,-42.28798 20.05132,-84.50237 29.6875,-126.84375 l 108.90625,0 c 9.63586,42.34141 19.8178,84.55578 29.6875,126.84375 10.07827,-42.25772 20.10031,-84.52927 29.9375,-126.84375 l 119.1875,0 c -26.26221,110.73099 -52.49625,221.46929 -78.28125,332.3125 l -122.8125,0 c -10.59439,-45.55681 -21.46638,-91.04874 -32.375,-136.53125 -10.66279,45.51136 -21.5615,90.96897 -32,136.53125 l -122.8125,0 c -25.71418,-110.03502 -52.0286,-219.92873 -78.25,-329.84375 l -0.59375,-2.46875 z"
         style="fill:#ff3232;fill-opacity:1;stroke:none"
         inkscape:connector-curvature="0" />
    </clipPath>
    <clipPath
       id="clipPath3929"
       clipPathUnits="userSpaceOnUse">
      <path
         inkscape:connector-curvature="0"
         style="fill:#ff3232;fill-opacity:1;stroke:none"
         d="m 0,0 0,1024 1024,0 L 1024,0 0,0 z m 278.4375,333.84375 119.78125,0 c 9.83697,42.31453 19.85954,84.58596 29.9375,126.84375 9.86978,-42.28798 20.05132,-84.50237 29.6875,-126.84375 l 108.90625,0 c 9.63586,42.34141 19.8178,84.55578 29.6875,126.84375 10.07827,-42.25772 20.10031,-84.52927 29.9375,-126.84375 l 119.1875,0 c -26.26221,110.73099 -52.49625,221.46929 -78.28125,332.3125 l -122.8125,0 c -10.59439,-45.55681 -21.46638,-91.04874 -32.375,-136.53125 -10.66279,45.51136 -21.5615,90.96897 -32,136.53125 l -122.8125,0 c -25.71418,-110.03502 -52.0286,-219.92873 -78.25,-329.84375 l -0.59375,-2.46875 z"
         id="path3931" />
    </clipPath>
    <mask
       maskUnits="userSpaceOnUse"
       id="mask3818">
      <path
         inkscape:export-ydpi="90"
         inkscape:export-xdpi="90"
         transform="matrix(1.2020779,0,0,1.2020779,-93.20363,-75.172466)"
         d="m 483,275.5 a 192.5,192.5 0 1 1 -385,0 192.5,192.5 0 1 1 385,0 z"
         sodipodi:ry="192.5"
         sodipodi:rx="192.5"
         sodipodi:cy="275.5"
         sodipodi:cx="290.5"
         id="path3820"
         style="fill:#ffffff;fill-opacity:1;stroke:none;display:inline"
         sodipodi:type="arc" />
    </mask>
    <linearGradient
       inkscape:collect="always"
       xlink:href="#linearGradient4573"
       id="linearGradient4575"
       x1="408.84314"
       y1="89.26915"
       x2="420.61133"
       y2="138.41306"
       gradientUnits="userSpaceOnUse"
       gradientTransform="matrix(0.99657796,0,0,1,1.2520606,0)" />
    <linearGradient
       inkscape:collect="always"
       xlink:href="#linearGradient8384"
       id="linearGradient6771"
       gradientUnits="userSpaceOnUse"
       gradientTransform="matrix(0.99657796,0,0,1,1.2520606,0)"
       x1="408.84314"
       y1="89.26915"
       x2="420.61133"
       y2="138.41306" />
  </defs>
  <metadata
     id="metadata4713">
    <rdf:RDF>
      <cc:Work
         rdf:about="">
        <dc:format>image/svg+xml</dc:format>
        <dc:type
           rdf:resource="http://purl.org/dc/dcmitype/StillImage" />
        <dc:title></dc:title>
      </cc:Work>
    </rdf:RDF>
  </metadata>
  <g
     id="layer1"
     inkscape:groupmode="layer"
     inkscape:label="Capa 1">
    <path
       style="opacity:1;fill:#394050;fill-opacity:1;fill-rule:evenodd;stroke:#e5e7ec;stroke-width:2;stroke-linejoin:round;stroke-miterlimit:4;stroke-dasharray:none;stroke-dashoffset:0;stroke-opacity:1;paint-order:normal"
       d="m 97.583979,29.700195 c -11.07875,0 -19.99804,9.65194 -19.99804,21.64062 V 460.66113 c 0,11.9887 8.91929,21.63867 19.99804,21.63867 H 414.41602 c 11.07874,0 19.99804,-9.64997 19.99804,-21.63867 V 113.7959 c -0.33411,-0.32981 -0.46874,-0.43168 -0.81445,-0.77345 -9.64188,-9.53205 -23.80681,-23.701345 -37.64453,-37.822255 -6.91884,-7.06045 -13.75546,-14.10994 -19.9043,-20.56055 -6.14876,-6.45062 -11.60929,-12.30327 -15.77539,-16.97265 -3.0827,-3.45513 -4.82334,-5.68286 -6.625,-7.9668 z"
       id="path4506"
       inkscape:connector-curvature="0"
       sodipodi:nodetypes="ssssssccccccs" />
    <g
       id="g4584"
       transform="matrix(0.3829248,0,0,0.3829248,74.406719,31.973725)"
       style="fill:#75abd3;fill-opacity:1;stroke:#9dc4df;stroke-opacity:1" />
    <path
       style="opacity:1;fill:#e5e7ec;fill-opacity:1;fill-rule:evenodd;stroke:#303643;stroke-width:1.03970885;stroke-linecap:square;stroke-linejoin:miter;stroke-miterlimit:4;stroke-dasharray:none;stroke-dashoffset:0;stroke-opacity:1;paint-order:markers fill stroke"
       d="M 110.73047 392.33398 C 109.35108 392.33398 107.97119 392.39372 106.5918 392.51367 C 105.27238 392.63362 103.83275 392.78297 102.27344 392.96289 L 82.123047 457.19531 C 83.862277 457.49518 85.421392 457.70427 86.800781 457.82422 C 88.240144 458.00414 89.500556 458.09375 90.580078 458.09375 C 91.6596 458.09375 92.768708 458.03401 93.908203 457.91406 C 95.047698 457.79412 96.306158 457.61489 97.685547 457.375 L 101.01562 445.05078 C 102.57493 445.4706 104.07431 445.79917 105.51367 446.03906 C 106.95303 446.21898 108.36085 446.31055 109.74023 446.31055 C 111.23957 446.31055 112.73895 446.18911 114.23828 445.94922 C 115.79759 445.70932 117.4184 445.35088 119.09766 444.87109 L 122.51562 457.375 C 123.89501 457.61489 125.18334 457.79412 126.38281 457.91406 C 127.58228 458.03401 128.78295 458.09375 129.98242 458.09375 C 132.56128 458.09375 135.56003 457.82492 138.97852 457.28516 L 119.09766 392.96289 C 117.35843 392.78297 115.79736 392.63362 114.41797 392.51367 C 113.09855 392.39372 111.86996 392.33398 110.73047 392.33398 z M 110.28125 409.87695 L 116.03906 433.08594 C 114.95954 433.3858 113.90822 433.62477 112.88867 433.80469 C 111.9291 433.92463 110.93947 433.98437 109.91992 433.98438 C 108.96035 433.98437 108.03241 433.89476 107.13281 433.71484 C 106.23321 433.53492 105.27345 433.29596 104.25391 432.99609 L 110.28125 409.87695 z M 315.08789 409.9668 C 311.30956 409.9668 307.98029 410.56616 305.10156 411.76562 C 302.22284 412.90512 299.79358 414.55385 297.81445 416.71289 C 295.8953 418.87193 294.42775 421.48042 293.4082 424.53906 C 292.44863 427.53773 291.96875 430.86701 291.96875 434.52539 C 291.96875 438.1238 292.44863 441.42125 293.4082 444.41992 C 294.42775 447.35862 295.8953 449.90736 297.81445 452.06641 C 299.79358 454.16548 302.22284 455.78629 305.10156 456.92578 C 307.98029 458.06528 311.30956 458.63477 315.08789 458.63477 C 318.92619 458.63477 322.28534 458.06528 325.16406 456.92578 C 328.04279 455.78629 330.44022 454.16548 332.35938 452.06641 C 334.3385 449.90736 335.808 447.35862 336.76758 444.41992 C 337.78713 441.42125 338.29688 438.1238 338.29688 434.52539 C 338.29688 430.86701 337.78713 427.53773 336.76758 424.53906 C 335.808 421.48042 334.3385 418.87193 332.35938 416.71289 C 330.44022 414.55385 328.04279 412.90512 325.16406 411.76562 C 322.28534 410.56616 318.92619 409.9668 315.08789 409.9668 z M 363.41211 409.9668 C 360.7133 409.9668 357.83404 410.08628 354.77539 410.32617 C 351.77672 410.56607 348.86758 410.86477 346.04883 411.22461 L 346.04883 457.46484 C 347.60814 457.76471 348.98803 457.94393 350.1875 458.00391 C 351.38697 458.12385 352.49608 458.18555 353.51562 458.18555 C 354.4752 458.18555 355.58431 458.12385 356.84375 458.00391 C 358.10319 457.94393 359.51296 457.76471 361.07227 457.46484 L 361.07227 422.11133 C 361.672 421.99138 362.54215 421.92969 363.68164 421.92969 C 365.72074 421.92969 367.19024 422.44139 368.08984 423.46094 C 369.04942 424.42051 369.5293 425.67897 369.5293 427.23828 C 369.5293 428.79759 369.13903 430.2671 368.35938 431.64648 C 367.57972 432.9659 366.14009 434.22436 364.04102 435.42383 L 362.78125 436.14453 L 372.76758 457.375 C 373.78713 457.61489 375.07741 457.79412 376.63672 457.91406 C 378.19603 458.03401 379.81488 458.09375 381.49414 458.09375 C 382.87353 458.09375 384.28329 458.03401 385.72266 457.91406 C 387.22199 457.79412 388.57006 457.61489 389.76953 457.375 L 379.51367 437.76367 C 379.93349 437.40383 380.47506 436.92395 381.13477 436.32422 C 381.79447 435.72448 382.4237 434.94395 383.02344 433.98438 C 383.62317 432.96483 384.13292 431.76611 384.55273 430.38672 C 384.97255 429.00733 385.18164 427.38847 385.18164 425.5293 C 385.18164 420.61147 383.35369 416.80232 379.69531 414.10352 C 376.09691 411.34474 370.6689 409.9668 363.41211 409.9668 z M 413.05469 409.9668 C 410.17596 409.9668 407.53761 410.32524 405.13867 411.04492 C 402.79971 411.7646 400.75876 412.81397 399.01953 414.19336 C 397.2803 415.51278 395.93223 417.13358 394.97266 419.05273 C 394.01308 420.97188 393.5332 423.10049 393.5332 425.43945 C 393.5332 429.15781 394.58257 432.09682 396.68164 434.25586 C 398.78071 436.4149 401.41906 437.94415 404.59766 438.84375 L 410.71484 440.55273 C 411.73439 440.8526 412.63441 441.213 413.41406 441.63281 C 414.19372 441.99265 414.58398 442.56214 414.58398 443.3418 C 414.58398 443.94153 414.37294 444.42141 413.95312 444.78125 C 413.59328 445.14109 413.11341 445.43979 412.51367 445.67969 C 411.91394 445.85961 411.22497 445.97909 410.44531 446.03906 C 409.66566 446.09904 408.91695 446.13086 408.19727 446.13086 C 406.0982 446.13086 403.99751 445.91981 401.89844 445.5 C 399.79937 445.02021 397.79024 444.33124 395.87109 443.43164 C 393.95194 447.62978 392.84284 451.76751 392.54297 455.8457 C 395.30175 456.86525 397.91023 457.58409 400.36914 458.00391 C 402.82805 458.42372 405.49823 458.63477 408.37695 458.63477 C 411.85541 458.63477 414.9139 458.21463 417.55273 457.375 C 420.25154 456.53537 422.49962 455.39639 424.29883 453.95703 C 426.158 452.51767 427.5379 450.80725 428.4375 448.82812 C 429.39708 446.849 429.87695 444.7204 429.87695 442.44141 C 429.87695 440.22239 429.5763 438.33275 428.97656 436.77344 C 428.37683 435.21413 427.53851 433.89593 426.45898 432.81641 C 425.43944 431.73688 424.17902 430.86674 422.67969 430.20703 C 421.24032 429.48735 419.62147 428.88799 417.82227 428.4082 L 411.97461 426.87891 C 411.13498 426.63901 410.38627 426.33836 409.72656 425.97852 C 409.06685 425.61867 408.73633 425.10893 408.73633 424.44922 C 408.73633 422.88991 410.14609 422.11133 412.96484 422.11133 C 414.88399 422.11133 416.98273 422.38016 419.26172 422.91992 C 421.54071 423.45968 423.49009 424.05904 425.10938 424.71875 C 425.949 423.03949 426.69771 421.12193 427.35742 418.96289 C 428.01713 416.74387 428.4074 414.67306 428.52734 412.75391 C 425.88851 411.8543 423.22029 411.16533 420.52148 410.68555 C 417.82268 410.20576 415.33368 409.9668 413.05469 409.9668 z M 150.83594 410.23633 C 149.63647 410.23633 148.37606 410.29607 147.05664 410.41602 C 145.7972 410.53596 144.50887 410.74505 143.18945 411.04492 L 143.18945 437.31445 C 143.18945 441.99238 143.81868 445.73984 145.07812 448.55859 C 146.33757 451.31737 148.01616 453.44598 150.11523 454.94531 C 152.27428 456.38468 154.76328 457.34443 157.58203 457.82422 C 160.40078 458.30401 163.33979 458.54492 166.39844 458.54492 C 168.01772 458.54492 169.6684 458.45531 171.34766 458.27539 C 173.02691 458.09547 174.64577 457.85455 176.20508 457.55469 C 177.82436 457.19485 179.32374 456.83445 180.70312 456.47461 C 182.14249 456.11477 183.37108 455.75633 184.39062 455.39648 L 184.39062 411.04492 C 183.13118 410.74505 181.84285 410.53596 180.52344 410.41602 C 179.20402 410.29607 177.97348 410.23633 176.83398 410.23633 C 175.63452 410.23633 174.37606 410.29607 173.05664 410.41602 C 171.7972 410.53596 170.50692 410.74505 169.1875 411.04492 L 169.1875 445.14062 C 168.94761 445.2006 168.55734 445.26034 168.01758 445.32031 C 167.47782 445.38029 166.69924 445.41016 165.67969 445.41016 C 163.22078 445.41016 161.39088 444.75106 160.19141 443.43164 C 158.99194 442.11222 158.39258 439.65309 158.39258 436.05469 L 158.39258 411.04492 C 157.13314 410.74505 155.84285 410.53596 154.52344 410.41602 C 153.20402 410.29607 151.97543 410.23633 150.83594 410.23633 z M 248.09766 410.23633 C 246.89819 410.23633 245.63973 410.29607 244.32031 410.41602 C 243.06087 410.53596 241.77059 410.74505 240.45117 411.04492 L 240.45117 457.46484 C 241.95051 457.70474 243.3304 457.88396 244.58984 458.00391 C 245.84929 458.12385 246.98826 458.18555 248.00781 458.18555 C 249.02736 458.18555 250.16829 458.12385 251.42773 458.00391 C 252.68718 457.88396 254.09499 457.70474 255.6543 457.46484 L 255.6543 440.37305 L 268.96875 440.37305 L 268.96875 457.46484 C 270.46809 457.70474 271.84798 457.88396 273.10742 458.00391 C 274.36686 458.12385 275.50584 458.18555 276.52539 458.18555 C 277.54494 458.18555 278.68392 458.12385 279.94336 458.00391 C 281.2028 457.88396 282.61257 457.70474 284.17188 457.46484 L 284.17188 411.04492 C 282.91243 410.74505 281.6241 410.53596 280.30469 410.41602 C 278.98527 410.29607 277.75473 410.23633 276.61523 410.23633 C 275.41577 410.23633 274.15731 410.29607 272.83789 410.41602 C 271.57845 410.53596 270.28817 410.74505 268.96875 411.04492 L 268.96875 426.87891 L 255.6543 426.87891 L 255.6543 411.04492 C 254.39485 410.74505 253.10653 410.53596 251.78711 410.41602 C 250.46769 410.29607 249.23715 410.23633 248.09766 410.23633 z M 191.44922 411.04492 C 191.14935 412.24439 190.93831 413.3535 190.81836 414.37305 C 190.75839 415.3926 190.72852 416.38222 190.72852 417.3418 C 190.72852 418.30137 190.75839 419.32087 190.81836 420.40039 C 190.93831 421.41994 191.14935 422.531 191.44922 423.73047 L 204.76367 423.73047 L 204.76367 457.46484 C 206.26301 457.70474 207.64095 457.88396 208.90039 458.00391 C 210.15983 458.12385 211.30076 458.18555 212.32031 458.18555 C 213.33986 458.18555 214.47884 458.12385 215.73828 458.00391 C 216.99772 457.88396 218.40749 457.70474 219.9668 457.46484 L 219.9668 423.73047 L 233.2793 423.73047 C 233.57916 422.531 233.76034 421.41994 233.82031 420.40039 C 233.94026 419.32087 234 418.30137 234 417.3418 C 234 416.38222 233.94026 415.3926 233.82031 414.37305 C 233.76034 413.3535 233.57916 412.24439 233.2793 411.04492 L 191.44922 411.04492 z M 315.08789 422.65039 C 317.72672 422.65039 319.6761 423.66989 320.93555 425.70898 C 322.25496 427.74808 322.91406 430.68709 322.91406 434.52539 C 322.91406 438.30372 322.25496 441.21286 320.93555 443.25195 C 319.6761 445.29105 317.72672 446.31055 315.08789 446.31055 C 312.44906 446.31055 310.49968 445.29105 309.24023 443.25195 C 307.98079 441.21286 307.35156 438.30372 307.35156 434.52539 C 307.35156 430.68709 307.98079 427.74808 309.24023 425.70898 C 310.49968 423.66989 312.44906 422.65039 315.08789 422.65039 z "
       id="rect4610" />
    <path
       style="opacity:1;fill:url(#linearGradient6771);fill-opacity:1;fill-rule:evenodd;stroke:none;stroke-width:8.77774811;stroke-linecap:square;stroke-linejoin:miter;stroke-miterlimit:4;stroke-dasharray:none;stroke-dashoffset:0;stroke-opacity:1;paint-order:markers fill stroke"
       d="m 433.28939,182.37584 v -69.47028 c 0,-0.0394 -0.0309,-0.0705 -0.0703,-0.0705 h -67.33747 c 4.09851,4.50878 8.40749,9.2132 13.77948,14.86279 7.205,7.57734 15.21697,15.8602 23.32513,24.15489 11.13885,11.3951 20.83136,21.05949 30.30308,30.52302 z"
       id="path4566"
       inkscape:connector-curvature="0" />
    <path
       style="opacity:1;fill:#e5e7ec;fill-opacity:1;fill-rule:evenodd;stroke:none;stroke-width:1.05391276;stroke-linejoin:round;stroke-miterlimit:4;stroke-dasharray:none;stroke-dashoffset:0;stroke-opacity:1;paint-order:normal"
       d="m 435.00048,114.60612 c -1.83541,-2.30475 -3.6077,-4.55306 -6.74972,-8.04125 -4.24635,-4.71409 -9.8132,-10.623129 -16.08223,-17.137261 C 405.8996,82.913483 398.92921,75.794273 391.8744,68.663457 377.76477,54.401804 363.32068,40.090503 353.48814,30.462087 c -0.35278,-0.345219 -0.4898,-0.448268 -0.83055,-0.781422 l -0.24394,62.802323 c -0.0467,12.055462 9.04538,21.800782 20.38588,21.850482 z"
       id="rect4485"
       inkscape:connector-curvature="0" />
    <g
       id="g3791"
       transform="matrix(0.76770121,0,0,0.76770121,31.276798,-412.23391)"
       style="stroke:#e5e7ec;stroke-opacity:1">
      <path
         sodipodi:nodetypes="czzzc"
         inkscape:connector-curvature="0"
         id="path3800"
         d="m 376.84986,785.16805 c 0,0 -27.5293,-43.69122 -85.71429,-44.50549 -58.18498,-0.81427 -93.56011,45.68468 -92.30769,93.95605 1.25242,48.27137 40.383,86.88013 95.60439,86.53843 55.22139,-0.3417 84.89012,-43.68129 84.89012,-43.68129"
         style="fill:none;stroke:#e5e7ec;stroke-width:30;stroke-linecap:butt;stroke-linejoin:miter;stroke-miterlimit:4;stroke-dasharray:none;stroke-opacity:1" />
      <path
         sodipodi:open="true"
         sodipodi:end="6.2784904"
         sodipodi:start="0"
         transform="matrix(0.83509787,0,0,0.89309081,12.394749,569.0658)"
         d="M 515.1778,299.52356 A 179.49634,167.84073 0 0 1 335.89214,467.36417 179.49634,167.84073 0 0 1 156.18561,299.91756 179.49634,167.84073 0 0 1 335.04942,131.68387 a 179.49634,167.84073 0 0 1 180.1264,167.0517"
         sodipodi:ry="167.84073"
         sodipodi:rx="179.49634"
         sodipodi:cy="299.52356"
         sodipodi:cx="335.68146"
         id="path3789"
         style="fill:none;stroke:#e5e7ec;stroke-width:28.94832993;stroke-linecap:round;stroke-linejoin:round;stroke-miterlimit:4;stroke-dasharray:none;stroke-opacity:1"
         sodipodi:type="arc" />
    </g>
  </g>
</svg>
