<?xml version="1.0" encoding="UTF-8" standalone="no"?>
<!-- Created with Inkscape (http://www.inkscape.org/) -->

<svg
   xmlns:osb="http://www.openswatchbook.org/uri/2009/osb"
   xmlns:dc="http://purl.org/dc/elements/1.1/"
   xmlns:cc="http://creativecommons.org/ns#"
   xmlns:rdf="http://www.w3.org/1999/02/22-rdf-syntax-ns#"
   xmlns:svg="http://www.w3.org/2000/svg"
   xmlns="http://www.w3.org/2000/svg"
   xmlns:xlink="http://www.w3.org/1999/xlink"
   xmlns:sodipodi="http://sodipodi.sourceforge.net/DTD/sodipodi-0.dtd"
   xmlns:inkscape="http://www.inkscape.org/namespaces/inkscape"
   width="512px"
   height="512px"
   viewBox="0 0 512 512"
   version="1.1"
   id="SVGRoot"
   inkscape:version="0.92.1 r15371"
   sodipodi:docname="changelog.svg">
  <sodipodi:namedview
     id="base"
     pagecolor="#ffffff"
     bordercolor="#666666"
     borderopacity="1.0"
     inkscape:pageopacity="0.0"
     inkscape:pageshadow="2"
     inkscape:zoom="0.70710678"
     inkscape:cx="441.63813"
     inkscape:cy="392.57844"
     inkscape:document-units="px"
     inkscape:current-layer="layer1"
     showgrid="false"
     inkscape:window-width="1280"
     inkscape:window-height="947"
     inkscape:window-x="0"
     inkscape:window-y="0"
     inkscape:window-maximized="1" />
  <defs
     id="defs4710">
    <linearGradient
       inkscape:collect="always"
       id="linearGradient4573">
      <stop
         style="stop-color:#181818;stop-opacity:0.30645162"
         offset="0"
         id="stop4569" />
      <stop
         style="stop-color:#404040;stop-opacity:0"
         offset="1"
         id="stop4571" />
    </linearGradient>
    <marker
       inkscape:stockid="DotM"
       orient="auto"
       refY="0.0"
       refX="0.0"
       id="DotM"
       style="overflow:visible"
       inkscape:isstock="true">
      <path
         id="path4618"
         d="M -2.5,-1.0 C -2.5,1.7600000 -4.7400000,4.0 -7.5,4.0 C -10.260000,4.0 -12.5,1.7600000 -12.5,-1.0 C -12.5,-3.7600000 -10.260000,-6.0 -7.5,-6.0 C -4.7400000,-6.0 -2.5,-3.7600000 -2.5,-1.0 z "
         style="fill-rule:evenodd;stroke:#000000;stroke-width:1.0pt"
         transform="scale(0.4) translate(7.4, 1)" />
    </marker>
    <linearGradient
       osb:paint="solid"
       id="linearGradient5207">
      <stop
         id="stop5209"
         offset="0"
         style="stop-color:#000015;stop-opacity:1;" />
    </linearGradient>
    <clipPath
       id="clipPath3006-9-8"
       clipPathUnits="userSpaceOnUse">
      <path
         inkscape:export-ydpi="90"
         inkscape:export-xdpi="90"
         transform="matrix(1.2020779,0,0,1.2020779,-93.20363,-75.172465)"
         d="m 483,275.5 a 192.5,192.5 0 1 1 -385,0 192.5,192.5 0 1 1 385,0 z"
         sodipodi:ry="192.5"
         sodipodi:rx="192.5"
         sodipodi:cy="275.5"
         sodipodi:cx="290.5"
         id="path3008-1-1"
         style="fill:#ffffff;fill-opacity:1;stroke:none;display:inline"
         sodipodi:type="arc" />
    </clipPath>
    <mask
       id="mask3818-4"
       maskUnits="userSpaceOnUse">
      <path
         sodipodi:type="arc"
         style="fill:#ffffff;fill-opacity:1;stroke:none;display:inline"
         id="path3820-9"
         sodipodi:cx="290.5"
         sodipodi:cy="275.5"
         sodipodi:rx="192.5"
         sodipodi:ry="192.5"
         d="m 483,275.5 a 192.5,192.5 0 1 1 -385,0 192.5,192.5 0 1 1 385,0 z"
         transform="matrix(1.2020779,0,0,1.2020779,-93.20363,-75.172466)"
         inkscape:export-xdpi="90"
         inkscape:export-ydpi="90" />
    </mask>
    <clipPath
       id="clipPath3006"
       clipPathUnits="userSpaceOnUse">
      <path
         inkscape:export-ydpi="90"
         inkscape:export-xdpi="90"
         transform="matrix(1.2020779,0,0,1.2020779,-93.20363,-75.172465)"
         d="m 483,275.5 a 192.5,192.5 0 1 1 -385,0 192.5,192.5 0 1 1 385,0 z"
         sodipodi:ry="192.5"
         sodipodi:rx="192.5"
         sodipodi:cy="275.5"
         sodipodi:cx="290.5"
         id="path3008"
         style="fill:#ffffff;fill-opacity:1;stroke:none;display:inline"
         sodipodi:type="arc" />
    </clipPath>
    <clipPath
       id="clipPath3006-9"
       clipPathUnits="userSpaceOnUse">
      <path
         inkscape:export-ydpi="90"
         inkscape:export-xdpi="90"
         transform="matrix(1.2020779,0,0,1.2020779,-93.20363,-75.172465)"
         d="m 483,275.5 a 192.5,192.5 0 1 1 -385,0 192.5,192.5 0 1 1 385,0 z"
         sodipodi:ry="192.5"
         sodipodi:rx="192.5"
         sodipodi:cy="275.5"
         sodipodi:cx="290.5"
         id="path3008-1"
         style="fill:#ffffff;fill-opacity:1;stroke:none;display:inline"
         sodipodi:type="arc" />
    </clipPath>
    <mask
       maskUnits="userSpaceOnUse"
       id="mask3818-0">
      <path
         inkscape:export-ydpi="90"
         inkscape:export-xdpi="90"
         transform="matrix(1.2020779,0,0,1.2020779,-93.20363,-75.172466)"
         d="m 483,275.5 a 192.5,192.5 0 1 1 -385,0 192.5,192.5 0 1 1 385,0 z"
         sodipodi:ry="192.5"
         sodipodi:rx="192.5"
         sodipodi:cy="275.5"
         sodipodi:cx="290.5"
         id="path3820-8"
         style="fill:#ffffff;fill-opacity:1;stroke:none;display:inline"
         sodipodi:type="arc" />
    </mask>
    <mask
       maskUnits="userSpaceOnUse"
       id="mask3818-2">
      <path
         inkscape:export-ydpi="90"
         inkscape:export-xdpi="90"
         transform="matrix(1.2020779,0,0,1.2020779,-93.20363,-75.172466)"
         d="m 483,275.5 a 192.5,192.5 0 1 1 -385,0 192.5,192.5 0 1 1 385,0 z"
         sodipodi:ry="192.5"
         sodipodi:rx="192.5"
         sodipodi:cy="275.5"
         sodipodi:cx="290.5"
         id="path3820-2-2"
         style="fill:#ffffff;fill-opacity:1;stroke:none;display:inline"
         sodipodi:type="arc" />
    </mask>
    <clipPath
       id="clipPath3934"
       clipPathUnits="userSpaceOnUse">
      <path
         id="path3936"
         d="m 0,0 0,1024 1024,0 L 1024,0 0,0 z m 278.4375,333.84375 119.78125,0 c 9.83697,42.31453 19.85954,84.58596 29.9375,126.84375 9.86978,-42.28798 20.05132,-84.50237 29.6875,-126.84375 l 108.90625,0 c 9.63586,42.34141 19.8178,84.55578 29.6875,126.84375 10.07827,-42.25772 20.10031,-84.52927 29.9375,-126.84375 l 119.1875,0 c -26.26221,110.73099 -52.49625,221.46929 -78.28125,332.3125 l -122.8125,0 c -10.59439,-45.55681 -21.46638,-91.04874 -32.375,-136.53125 -10.66279,45.51136 -21.5615,90.96897 -32,136.53125 l -122.8125,0 c -25.71418,-110.03502 -52.0286,-219.92873 -78.25,-329.84375 l -0.59375,-2.46875 z"
         style="fill:#ff3232;fill-opacity:1;stroke:none"
         inkscape:connector-curvature="0" />
    </clipPath>
    <clipPath
       id="clipPath3929"
       clipPathUnits="userSpaceOnUse">
      <path
         inkscape:connector-curvature="0"
         style="fill:#ff3232;fill-opacity:1;stroke:none"
         d="m 0,0 0,1024 1024,0 L 1024,0 0,0 z m 278.4375,333.84375 119.78125,0 c 9.83697,42.31453 19.85954,84.58596 29.9375,126.84375 9.86978,-42.28798 20.05132,-84.50237 29.6875,-126.84375 l 108.90625,0 c 9.63586,42.34141 19.8178,84.55578 29.6875,126.84375 10.07827,-42.25772 20.10031,-84.52927 29.9375,-126.84375 l 119.1875,0 c -26.26221,110.73099 -52.49625,221.46929 -78.28125,332.3125 l -122.8125,0 c -10.59439,-45.55681 -21.46638,-91.04874 -32.375,-136.53125 -10.66279,45.51136 -21.5615,90.96897 -32,136.53125 l -122.8125,0 c -25.71418,-110.03502 -52.0286,-219.92873 -78.25,-329.84375 l -0.59375,-2.46875 z"
         id="path3931" />
    </clipPath>
    <mask
       maskUnits="userSpaceOnUse"
       id="mask3818">
      <path
         inkscape:export-ydpi="90"
         inkscape:export-xdpi="90"
         transform="matrix(1.2020779,0,0,1.2020779,-93.20363,-75.172466)"
         d="m 483,275.5 a 192.5,192.5 0 1 1 -385,0 192.5,192.5 0 1 1 385,0 z"
         sodipodi:ry="192.5"
         sodipodi:rx="192.5"
         sodipodi:cy="275.5"
         sodipodi:cx="290.5"
         id="path3820"
         style="fill:#ffffff;fill-opacity:1;stroke:none;display:inline"
         sodipodi:type="arc" />
    </mask>
    <linearGradient
       inkscape:collect="always"
       xlink:href="#linearGradient4573"
       id="linearGradient4575"
       x1="408.84314"
       y1="89.26915"
       x2="420.61133"
       y2="138.41306"
       gradientUnits="userSpaceOnUse"
       gradientTransform="matrix(0.99657796,0,0,1,1.2520606,0)" />
    <linearGradient
       inkscape:collect="always"
       xlink:href="#linearGradient4573"
       id="linearGradient6771"
       gradientUnits="userSpaceOnUse"
       gradientTransform="matrix(0.99657796,0,0,1,1.2520606,0)"
       x1="408.84314"
       y1="89.26915"
       x2="420.61133"
       y2="138.41306" />
  </defs>
  <metadata
     id="metadata4713">
    <rdf:RDF>
      <cc:Work
         rdf:about="">
        <dc:format>image/svg+xml</dc:format>
        <dc:type
           rdf:resource="http://purl.org/dc/dcmitype/StillImage" />
        <dc:title />
      </cc:Work>
    </rdf:RDF>
  </metadata>
  <g
     id="layer1"
     inkscape:groupmode="layer"
     inkscape:label="Capa 1">
    <path
       style="opacity:1;fill:#607b89;fill-opacity:1;fill-rule:evenodd;stroke:#ccd7dc;stroke-width:2;stroke-linejoin:round;stroke-miterlimit:4;stroke-dasharray:none;stroke-dashoffset:0;stroke-opacity:1;paint-order:normal"
       d="m 97.583979,29.700195 c -11.07875,0 -19.99804,9.65194 -19.99804,21.64062 V 460.66113 c 0,11.9887 8.91929,21.63867 19.99804,21.63867 H 414.41602 c 11.07874,0 19.99804,-9.64997 19.99804,-21.63867 V 113.7959 c -0.33411,-0.32981 -0.46874,-0.43168 -0.81445,-0.77345 -9.64188,-9.53205 -23.80681,-23.701345 -37.64453,-37.822255 -6.91884,-7.06045 -13.75546,-14.10994 -19.9043,-20.56055 -6.14876,-6.45062 -11.60929,-12.30327 -15.77539,-16.97265 -3.0827,-3.45513 -4.82334,-5.68286 -6.625,-7.9668 z"
       id="path4506"
       inkscape:connector-curvature="0"
       sodipodi:nodetypes="ssssssccccccs" />
    <g
       id="g4584"
       transform="matrix(0.3829248,0,0,0.3829248,74.406719,31.973725)"
       style="fill:#75abd3;fill-opacity:1;stroke:#9dc4df;stroke-opacity:1" />
    <path
       style="opacity:1;fill:#ccd7dc;fill-opacity:1;fill-rule:evenodd;stroke:#7794a1;stroke-width:1.14248979;stroke-linecap:square;stroke-linejoin:miter;stroke-miterlimit:4;stroke-dasharray:none;stroke-dashoffset:0;stroke-opacity:1;paint-order:markers fill stroke"
       d="M 185.16406 380.81641 C 179.44443 380.81641 174.49173 381.82877 170.30664 383.85156 C 166.1913 385.80461 162.77305 388.52414 160.05273 392.01172 C 157.40218 395.4993 155.41512 399.65003 154.08984 404.46289 C 152.83432 409.206 152.20703 414.36714 152.20703 419.94727 C 152.20703 425.52739 152.83432 430.68853 154.08984 435.43164 C 155.41512 440.105 157.40218 444.18625 160.05273 447.67383 C 162.77305 451.09165 166.1913 453.77743 170.30664 455.73047 C 174.49173 457.61376 179.44443 458.55469 185.16406 458.55469 C 190.88369 458.55469 195.80067 457.61376 199.91602 455.73047 C 204.03136 453.77743 207.41389 451.09165 210.06445 447.67383 C 212.78476 444.18625 214.77377 440.105 216.0293 435.43164 C 217.35458 430.68853 218.01758 425.52739 218.01758 419.94727 C 218.01758 414.36714 217.35458 409.206 216.0293 404.46289 C 214.77377 399.65003 212.78476 395.4993 210.06445 392.01172 C 207.41389 388.52414 204.03136 385.80461 199.91602 383.85156 C 195.80067 381.82877 190.88369 380.81641 185.16406 380.81641 z M 262.37305 380.81641 C 256.72317 380.81641 251.66527 381.79305 247.20117 383.74609 C 242.73707 385.69914 238.97141 388.42063 235.90234 391.9082 C 232.90303 395.39578 230.60038 399.54456 228.99609 404.35742 C 227.39181 409.10053 226.58984 414.26363 226.58984 419.84375 C 226.58984 425.42387 227.35804 430.58502 228.89258 435.32812 C 230.42711 440.07123 232.72781 444.15053 235.79688 447.56836 C 238.9357 450.98619 242.80655 453.67196 247.41016 455.625 C 252.01376 457.50829 257.3853 458.45117 263.52344 458.45117 C 266.38325 458.45117 269.8015 458.20701 273.77734 457.71875 C 277.82293 457.23049 281.90224 456.21813 286.01758 454.68359 L 286.01758 416.59961 C 284.41329 416.3206 282.7756 416.11216 281.10156 415.97266 C 279.42753 415.83315 277.99632 415.76172 276.81055 415.76172 C 275.55502 415.76172 274.19525 415.83315 272.73047 415.97266 C 271.26569 416.11216 269.59228 416.3206 267.70898 416.59961 L 267.70898 441.71094 C 266.66271 441.92019 265.47567 442.02344 264.15039 442.02344 C 258.22151 442.02344 253.75908 440.21107 250.75977 436.58398 C 247.76045 432.88715 246.25977 427.30717 246.25977 419.84375 C 246.25977 412.31058 247.79421 406.65916 250.86328 402.89258 C 253.93235 399.05624 258.29153 397.13867 263.94141 397.13867 C 265.12718 397.13867 266.24279 397.20815 267.28906 397.34766 C 268.33534 397.41741 269.38341 397.55832 270.42969 397.76758 C 271.47596 397.97683 272.55585 398.25476 273.67188 398.60352 C 274.85765 398.95227 276.14794 399.37111 277.54297 399.85938 C 278.51949 397.97608 279.46237 395.67344 280.36914 392.95312 C 281.27591 390.23281 281.798 387.4438 281.9375 384.58398 C 278.31042 383.04945 274.96165 382.03709 271.89258 381.54883 C 268.89326 381.06057 265.72112 380.81641 262.37305 380.81641 z M 116.19727 381.44531 C 115.01149 381.44531 113.64977 381.51479 112.11523 381.6543 C 110.5807 381.7938 108.87353 382.00224 106.99023 382.28125 L 106.99023 457.29883 L 149.67773 457.29883 C 150.02649 455.48529 150.23494 453.95084 150.30469 452.69531 C 150.44419 451.37003 150.51367 450.11546 150.51367 448.92969 C 150.51367 447.88341 150.44419 446.73209 150.30469 445.47656 C 150.23494 444.15128 150.02649 442.61684 149.67773 440.87305 L 125.50781 440.87305 L 125.50781 382.28125 C 123.69427 382.00224 121.98515 381.7938 120.38086 381.6543 C 118.84633 381.51479 117.45279 381.44531 116.19727 381.44531 z M 185.26953 397.13867 C 194.12798 397.13867 198.55664 404.74143 198.55664 419.94727 C 198.55664 435.0136 194.09226 442.54688 185.16406 442.54688 C 180.56046 442.54688 177.14221 440.69879 174.91016 437.00195 C 172.74786 433.23537 171.66797 427.55019 171.66797 419.94727 C 171.66797 404.74143 176.20183 397.13867 185.26953 397.13867 z "
       id="rect4610" />
    <path
       style="opacity:1;fill:url(#linearGradient6771);fill-opacity:1;fill-rule:evenodd;stroke:none;stroke-width:8.77774811;stroke-linecap:square;stroke-linejoin:miter;stroke-miterlimit:4;stroke-dasharray:none;stroke-dashoffset:0;stroke-opacity:1;paint-order:markers fill stroke"
       d="m 433.28939,182.37584 v -69.47028 c 0,-0.0394 -0.0309,-0.0705 -0.0703,-0.0705 h -67.33747 c 4.09851,4.50878 8.40749,9.2132 13.77948,14.86279 7.205,7.57734 15.21697,15.8602 23.32513,24.15489 11.13885,11.3951 20.83136,21.05949 30.30308,30.52302 z"
       id="path4566"
       inkscape:connector-curvature="0" />
    <path
       style="opacity:1;fill:#ccd7dc;fill-opacity:1;fill-rule:evenodd;stroke:none;stroke-width:1.05391276;stroke-linejoin:round;stroke-miterlimit:4;stroke-dasharray:none;stroke-dashoffset:0;stroke-opacity:1;paint-order:normal"
       d="m 435.00048,114.60612 c -1.83541,-2.30475 -3.6077,-4.55306 -6.74972,-8.04125 -4.24635,-4.71409 -9.8132,-10.623129 -16.08223,-17.137261 C 405.8996,82.913483 398.92921,75.794273 391.8744,68.663457 377.76477,54.401804 363.32068,40.090503 353.48814,30.462087 c -0.35278,-0.345219 -0.4898,-0.448268 -0.83055,-0.781422 l -0.24394,62.802323 c -0.0467,12.055462 9.04538,21.800782 20.38588,21.850482 z"
       id="rect4485"
       inkscape:connector-curvature="0" />
    <path
       style="opacity:1;fill:#ccd7dc;fill-opacity:1;fill-rule:evenodd;stroke:#7794a1;stroke-width:1.14248979;stroke-linecap:square;stroke-linejoin:miter;stroke-miterlimit:4;stroke-dasharray:none;stroke-dashoffset:0;stroke-opacity:1;paint-order:markers fill stroke"
       d="M 121.10156 338.46875 C 118.71384 338.46875 116.59465 338.85281 114.74609 339.62305 C 112.89754 340.39328 111.33729 341.47296 110.06641 342.85938 C 108.79552 344.20728 107.83439 345.84395 107.17969 347.76953 C 106.52499 349.69511 106.19727 351.81235 106.19727 354.12305 C 106.19727 356.51077 106.52499 358.66817 107.17969 360.59375 C 107.83439 362.48082 108.79552 364.11749 110.06641 365.50391 C 111.3758 366.85181 112.97426 367.89133 114.86133 368.62305 C 116.7484 369.35477 118.92393 369.7207 121.38867 369.7207 C 122.85211 369.7207 124.31585 369.6242 125.7793 369.43164 C 127.24274 369.23908 128.86128 368.79673 130.63281 368.10352 C 130.63281 366.44752 130.4398 364.98377 130.05469 363.71289 C 129.66957 362.40349 129.14884 361.22927 128.49414 360.18945 C 127.3773 360.61308 126.39608 360.92072 125.54883 361.11328 C 124.74008 361.30584 123.77699 361.40234 122.66016 361.40234 C 121.77439 361.40234 120.92789 361.28576 120.11914 361.05469 C 119.34891 360.82362 118.65525 360.43955 118.03906 359.90039 C 117.46139 359.36123 116.98082 358.62936 116.5957 357.70508 C 116.2491 356.74229 116.07422 355.54798 116.07422 354.12305 C 116.07422 351.42723 116.67137 349.54122 117.86523 348.46289 C 119.09761 347.34605 120.63777 346.78711 122.48633 346.78711 C 122.98698 346.78711 123.44942 346.80524 123.87305 346.84375 C 124.33519 346.84375 124.79763 346.88391 125.25977 346.96094 C 125.72191 347.03796 126.20443 347.15259 126.70508 347.30664 C 127.24424 347.42218 127.83944 347.5951 128.49414 347.82617 C 129.14884 346.5938 129.63136 345.34315 129.93945 344.07227 C 130.24755 342.76287 130.36218 341.45393 130.28516 340.14453 C 129.36088 339.79793 128.51437 339.50841 127.74414 339.27734 C 127.01242 339.04627 126.28055 338.87335 125.54883 338.75781 C 124.85562 338.64228 124.14383 338.5639 123.41211 338.52539 C 122.68039 338.48688 121.91031 338.46875 121.10156 338.46875 z M 180.27539 338.46875 C 178.81195 338.46875 177.1552 338.62159 175.30664 338.92969 C 173.49659 339.23778 171.66887 339.70022 169.82031 340.31641 C 169.82031 341.08664 169.83844 341.7803 169.87695 342.39648 C 169.95398 342.97416 170.05048 343.55123 170.16602 344.12891 C 170.32006 344.66807 170.51307 345.20693 170.74414 345.74609 C 171.01372 346.28526 171.32136 346.88241 171.66797 347.53711 C 172.97736 347.07497 174.2481 346.7492 175.48047 346.55664 C 176.71284 346.32557 177.79056 346.20898 178.71484 346.20898 C 179.40805 346.20898 180.08358 346.26728 180.73828 346.38281 C 181.39298 346.45984 181.98818 346.63276 182.52734 346.90234 C 183.06651 347.13341 183.51082 347.47927 183.85742 347.94141 C 184.20403 348.40355 184.39704 348.98257 184.43555 349.67578 L 180.91016 349.67578 C 179.44671 349.67578 177.94476 349.82863 176.4043 350.13672 C 174.86383 350.4063 173.45838 350.90695 172.1875 351.63867 C 170.91662 352.37039 169.8771 353.35357 169.06836 354.58594 C 168.25961 355.81831 167.85547 357.3766 167.85547 359.26367 C 167.85547 361.18925 168.18319 362.82787 168.83789 364.17578 C 169.5311 365.48518 170.47411 366.54282 171.66797 367.35156 C 172.86183 368.16031 174.28736 368.73933 175.94336 369.08594 C 177.63787 369.47105 179.48568 369.66211 181.48828 369.66211 C 183.79898 369.66211 185.99459 369.45097 188.07422 369.02734 C 190.15385 368.60372 191.92523 368.17949 193.38867 367.75586 L 193.38867 350.83008 C 193.38867 348.67343 193.08103 346.82562 192.46484 345.28516 C 191.84866 343.70618 190.96199 342.41537 189.80664 341.41406 C 188.6898 340.41276 187.32257 339.68089 185.70508 339.21875 C 184.08759 338.7181 182.278 338.46875 180.27539 338.46875 z M 246.52734 338.46875 C 243.94706 338.46875 241.67503 338.8729 239.71094 339.68164 C 237.74684 340.49039 236.09205 341.58819 234.74414 342.97461 C 233.43474 344.36103 232.43344 345.9977 231.74023 347.88477 C 231.08554 349.77184 230.75781 351.77444 230.75781 353.89258 C 230.75781 356.08774 231.02724 358.14864 231.56641 360.07422 C 232.14408 361.9998 233.04888 363.67468 234.28125 365.09961 C 235.51362 366.52454 237.092 367.66056 239.01758 368.50781 C 240.98167 369.31656 243.35021 369.7207 246.12305 369.7207 C 248.78035 369.7207 251.11068 369.4694 253.11328 368.96875 C 255.11589 368.4681 256.67613 368.00761 257.79297 367.58398 L 257.79297 352.91016 C 255.94441 352.56355 254.34595 352.39063 252.99805 352.39062 C 252.30484 352.39062 251.57297 352.42884 250.80273 352.50586 C 250.07101 352.58288 249.22451 352.7176 248.26172 352.91016 L 248.26172 361.40234 L 247.2207 361.40234 C 245.06405 361.40234 243.42738 360.80519 242.31055 359.61133 C 241.19371 358.37896 240.63672 356.47286 240.63672 353.89258 C 240.63672 352.9683 240.75135 352.08163 240.98242 351.23438 C 241.252 350.34861 241.65615 349.57853 242.19531 348.92383 C 242.73448 348.26913 243.44822 347.75035 244.33398 347.36523 C 245.21975 346.98012 246.29748 346.78711 247.56836 346.78711 C 248.3771 346.78711 249.34019 346.92182 250.45703 347.19141 C 251.57387 347.42248 252.78631 347.80654 254.0957 348.3457 C 254.44231 347.49845 254.73182 346.74845 254.96289 346.09375 C 255.23247 345.40054 255.44361 344.76517 255.59766 344.1875 C 255.79021 343.57131 255.94501 342.97416 256.06055 342.39648 C 256.17608 341.81881 256.2525 341.20353 256.29102 340.54883 C 254.36543 339.7786 252.59405 339.23778 250.97656 338.92969 C 249.35907 338.62159 247.87525 338.46875 246.52734 338.46875 z M 276.46094 338.46875 C 273.99619 338.46875 271.83879 338.89103 269.99023 339.73828 C 268.14168 340.54703 266.60151 341.66491 265.36914 343.08984 C 264.13677 344.51477 263.21189 346.18965 262.5957 348.11523 C 261.97952 350.04082 261.67188 352.10171 261.67188 354.29688 C 261.67188 356.53055 261.96139 358.59145 262.53906 360.47852 C 263.15525 362.36559 264.08013 364.00225 265.3125 365.38867 C 266.58338 366.73658 268.19997 367.79422 270.16406 368.56445 C 272.16667 369.33469 274.55529 369.7207 277.32812 369.7207 C 280.90971 369.7207 284.41426 369.08534 287.8418 367.81445 C 287.80329 366.3125 287.57207 364.86884 287.14844 363.48242 C 286.76332 362.096 286.30088 360.90169 285.76172 359.90039 C 284.41381 360.43955 283.04658 360.8437 281.66016 361.11328 C 280.27374 361.38286 279.02113 361.51758 277.9043 361.51758 C 276.17127 361.51758 274.76583 361.18985 273.6875 360.53516 C 272.64769 359.88046 271.91582 358.76452 271.49219 357.18555 L 289.05469 357.18555 C 289.13171 356.64638 289.20813 355.97281 289.28516 355.16406 C 289.40069 354.31681 289.45898 353.37185 289.45898 352.33203 C 289.45898 350.32943 289.15134 348.48162 288.53516 346.78711 C 287.95748 345.05409 287.10902 343.59035 285.99219 342.39648 C 284.87535 341.16411 283.50811 340.20102 281.89062 339.50781 C 280.31165 338.8146 278.50205 338.46875 276.46094 338.46875 z M 211.72656 338.58398 C 208.83819 338.58398 206.43144 338.8152 204.50586 339.27734 C 202.58028 339.70097 200.94361 340.14333 199.5957 340.60547 L 199.5957 368.96875 C 200.59701 369.16131 201.5018 369.27789 202.31055 369.31641 C 203.11929 369.39343 203.85116 369.43164 204.50586 369.43164 C 205.12205 369.43164 205.83383 369.39343 206.64258 369.31641 C 207.45132 369.27789 208.35612 369.16131 209.35742 368.96875 L 209.35742 347.36523 C 209.47296 347.28821 209.76247 347.20984 210.22461 347.13281 C 210.72526 347.05579 211.1877 347.01758 211.61133 347.01758 C 213.19031 347.01758 214.36453 347.45994 215.13477 348.3457 C 215.905 349.23147 216.28906 350.69521 216.28906 352.73633 L 216.28906 368.96875 C 217.29037 369.16131 218.19516 369.27789 219.00391 369.31641 C 219.81265 369.39343 220.54452 369.43164 221.19922 369.43164 C 221.8154 369.43164 222.52915 369.39343 223.33789 369.31641 C 224.14664 369.27789 225.05143 369.16131 226.05273 368.96875 L 226.05273 351.69727 C 226.05273 348.8474 225.61038 346.55529 224.72461 344.82227 C 223.87735 343.08924 222.75947 341.76022 221.37305 340.83594 C 220.02514 339.91166 218.50506 339.31646 216.81055 339.04688 C 215.11603 338.73878 213.42107 338.58398 211.72656 338.58398 z M 139.74219 338.64062 C 138.97195 338.64063 138.16366 338.68079 137.31641 338.75781 C 136.50766 338.83484 135.67929 338.96955 134.83203 339.16211 L 134.83203 368.96875 C 135.79482 369.1228 136.68149 369.23938 137.49023 369.31641 C 138.29898 369.39343 139.03085 369.43164 139.68555 369.43164 C 140.34024 369.43164 141.07016 369.39343 141.87891 369.31641 C 142.68765 369.23938 143.5944 369.1228 144.5957 368.96875 L 144.5957 357.99414 L 153.14453 357.99414 L 153.14453 368.96875 C 154.10732 369.1228 154.99399 369.23938 155.80273 369.31641 C 156.61148 369.39343 157.3414 369.43164 157.99609 369.43164 C 158.65079 369.43164 159.38266 369.39343 160.19141 369.31641 C 161.00015 369.23938 161.90495 369.1228 162.90625 368.96875 L 162.90625 339.16211 C 162.09751 338.96955 161.27108 338.83484 160.42383 338.75781 C 159.57657 338.68079 158.78641 338.64063 158.05469 338.64062 C 157.28445 338.64063 156.47616 338.68079 155.62891 338.75781 C 154.82016 338.83484 153.99179 338.96955 153.14453 339.16211 L 153.14453 349.32812 L 144.5957 349.32812 L 144.5957 339.16211 C 143.78696 338.96955 142.95858 338.83484 142.11133 338.75781 C 141.26407 338.68079 140.47391 338.64063 139.74219 338.64062 z M 276.11328 345.80469 C 277.53821 345.80469 278.61789 346.26713 279.34961 347.19141 C 280.11984 348.07717 280.54212 349.19311 280.61914 350.54102 L 271.37695 350.54102 C 271.531 348.92353 272.05173 347.73117 272.9375 346.96094 C 273.82327 346.1907 274.88091 345.80469 276.11328 345.80469 z M 181.14258 355.79883 L 184.43555 355.79883 L 184.43555 362.15234 C 184.12745 362.22937 183.64493 362.30774 182.99023 362.38477 C 182.33554 362.46179 181.83489 362.5 181.48828 362.5 C 180.98763 362.5 180.42869 362.46179 179.8125 362.38477 C 179.23483 362.30774 178.67783 362.15294 178.13867 361.92188 C 177.63802 361.69081 177.21379 361.36308 176.86719 360.93945 C 176.52058 360.47731 176.34766 359.86203 176.34766 359.0918 C 176.34766 358.05198 176.8101 357.24369 177.73438 356.66602 C 178.65865 356.08834 179.79467 355.79883 181.14258 355.79883 z "
       id="rect7856" />
    <path
       style="opacity:1;fill:#ccd7dc;fill-opacity:1;fill-rule:evenodd;stroke:none;stroke-width:2.65701866;stroke-linejoin:round;stroke-miterlimit:4;stroke-dasharray:none;stroke-dashoffset:0;stroke-opacity:1;paint-order:normal"
       d="m 133.54526,162.53906 v 17.14258 h 32.80449 v -17.14258 z m 51.04601,0 v 17.14258 h 175.63741 v -17.14258 z m -51.04601,42.44532 v 17.14257 h 32.80449 v -17.14257 z m 51.04601,0 v 17.14257 h 193.86347 v -17.14257 z m -51.04601,42.44335 v 17.14454 h 32.80449 v -17.14454 z m 51.04601,0 v 17.14454 h 175.63741 v -17.14454 z m -51.04601,42.44532 v 17.14257 h 32.80449 v -17.14257 z m 51.04601,0 v 17.14257 h 193.86347 v -17.14257 z"
       id="rect4507-6"
       inkscape:connector-curvature="0"
       sodipodi:nodetypes="cccccccccccccccccccccccccccccccccccccccc" />
    <circle
       r="65.879265"
       cy="130.55934"
       cx="417.98584"
       style="fill:#a9d2e7;fill-opacity:0.72727272;stroke:#7794a1;stroke-width:22.31641769;stroke-miterlimit:4;stroke-dasharray:none;stroke-opacity:1"
       id="path3806-4"
       transform="rotate(21.689943)" />
    <rect
       style="fill:#7794a1;fill-opacity:1;fill-rule:evenodd;stroke:none"
       id="rect3808-0"
       width="24.378231"
       height="111.44333"
       x="153.86678"
       y="458.11075"
       ry="11.183331"
       transform="rotate(-27.989261)" />
  </g>
</svg>
