<?xml version="1.0" encoding="UTF-8" standalone="no"?>
<!-- Created with Inkscape (http://www.inkscape.org/) -->

<svg
   xmlns:osb="http://www.openswatchbook.org/uri/2009/osb"
   xmlns:dc="http://purl.org/dc/elements/1.1/"
   xmlns:cc="http://creativecommons.org/ns#"
   xmlns:rdf="http://www.w3.org/1999/02/22-rdf-syntax-ns#"
   xmlns:svg="http://www.w3.org/2000/svg"
   xmlns="http://www.w3.org/2000/svg"
   xmlns:xlink="http://www.w3.org/1999/xlink"
   xmlns:sodipodi="http://sodipodi.sourceforge.net/DTD/sodipodi-0.dtd"
   xmlns:inkscape="http://www.inkscape.org/namespaces/inkscape"
   width="512px"
   height="512px"
   viewBox="0 0 512 512"
   version="1.1"
   id="SVGRoot"
   inkscape:version="0.92.1 r15371"
   sodipodi:docname="copying.svg">
  <sodipodi:namedview
     id="base"
     pagecolor="#ffffff"
     bordercolor="#666666"
     borderopacity="1.0"
     inkscape:pageopacity="0.0"
     inkscape:pageshadow="2"
     inkscape:zoom="1"
     inkscape:cx="331.24519"
     inkscape:cy="282.25941"
     inkscape:document-units="px"
     inkscape:current-layer="layer1"
     showgrid="false"
     inkscape:window-width="1280"
     inkscape:window-height="947"
     inkscape:window-x="0"
     inkscape:window-y="0"
     inkscape:window-maximized="1" />
  <defs
     id="defs4710">
    <linearGradient
       id="linearGradient8384"
       inkscape:collect="always">
      <stop
         id="stop8380"
         offset="0"
         style="stop-color:#181818;stop-opacity:0.62365592" />
      <stop
         id="stop8382"
         offset="1"
         style="stop-color:#404040;stop-opacity:0" />
    </linearGradient>
    <linearGradient
       inkscape:collect="always"
       id="linearGradient4573">
      <stop
         style="stop-color:#181818;stop-opacity:0.30645162"
         offset="0"
         id="stop4569" />
      <stop
         style="stop-color:#404040;stop-opacity:0"
         offset="1"
         id="stop4571" />
    </linearGradient>
    <marker
       inkscape:stockid="DotM"
       orient="auto"
       refY="0.0"
       refX="0.0"
       id="DotM"
       style="overflow:visible"
       inkscape:isstock="true">
      <path
         id="path4618"
         d="M -2.5,-1.0 C -2.5,1.7600000 -4.7400000,4.0 -7.5,4.0 C -10.260000,4.0 -12.5,1.7600000 -12.5,-1.0 C -12.5,-3.7600000 -10.260000,-6.0 -7.5,-6.0 C -4.7400000,-6.0 -2.5,-3.7600000 -2.5,-1.0 z "
         style="fill-rule:evenodd;stroke:#000000;stroke-width:1.0pt"
         transform="scale(0.4) translate(7.4, 1)" />
    </marker>
    <linearGradient
       osb:paint="solid"
       id="linearGradient5207">
      <stop
         id="stop5209"
         offset="0"
         style="stop-color:#000015;stop-opacity:1;" />
    </linearGradient>
    <clipPath
       id="clipPath3006-9-8"
       clipPathUnits="userSpaceOnUse">
      <path
         inkscape:export-ydpi="90"
         inkscape:export-xdpi="90"
         transform="matrix(1.2020779,0,0,1.2020779,-93.20363,-75.172465)"
         d="m 483,275.5 a 192.5,192.5 0 1 1 -385,0 192.5,192.5 0 1 1 385,0 z"
         sodipodi:ry="192.5"
         sodipodi:rx="192.5"
         sodipodi:cy="275.5"
         sodipodi:cx="290.5"
         id="path3008-1-1"
         style="fill:#ffffff;fill-opacity:1;stroke:none;display:inline"
         sodipodi:type="arc" />
    </clipPath>
    <mask
       id="mask3818-4"
       maskUnits="userSpaceOnUse">
      <path
         sodipodi:type="arc"
         style="fill:#ffffff;fill-opacity:1;stroke:none;display:inline"
         id="path3820-9"
         sodipodi:cx="290.5"
         sodipodi:cy="275.5"
         sodipodi:rx="192.5"
         sodipodi:ry="192.5"
         d="m 483,275.5 a 192.5,192.5 0 1 1 -385,0 192.5,192.5 0 1 1 385,0 z"
         transform="matrix(1.2020779,0,0,1.2020779,-93.20363,-75.172466)"
         inkscape:export-xdpi="90"
         inkscape:export-ydpi="90" />
    </mask>
    <clipPath
       id="clipPath3006"
       clipPathUnits="userSpaceOnUse">
      <path
         inkscape:export-ydpi="90"
         inkscape:export-xdpi="90"
         transform="matrix(1.2020779,0,0,1.2020779,-93.20363,-75.172465)"
         d="m 483,275.5 a 192.5,192.5 0 1 1 -385,0 192.5,192.5 0 1 1 385,0 z"
         sodipodi:ry="192.5"
         sodipodi:rx="192.5"
         sodipodi:cy="275.5"
         sodipodi:cx="290.5"
         id="path3008"
         style="fill:#ffffff;fill-opacity:1;stroke:none;display:inline"
         sodipodi:type="arc" />
    </clipPath>
    <clipPath
       id="clipPath3006-9"
       clipPathUnits="userSpaceOnUse">
      <path
         inkscape:export-ydpi="90"
         inkscape:export-xdpi="90"
         transform="matrix(1.2020779,0,0,1.2020779,-93.20363,-75.172465)"
         d="m 483,275.5 a 192.5,192.5 0 1 1 -385,0 192.5,192.5 0 1 1 385,0 z"
         sodipodi:ry="192.5"
         sodipodi:rx="192.5"
         sodipodi:cy="275.5"
         sodipodi:cx="290.5"
         id="path3008-1"
         style="fill:#ffffff;fill-opacity:1;stroke:none;display:inline"
         sodipodi:type="arc" />
    </clipPath>
    <mask
       maskUnits="userSpaceOnUse"
       id="mask3818-0">
      <path
         inkscape:export-ydpi="90"
         inkscape:export-xdpi="90"
         transform="matrix(1.2020779,0,0,1.2020779,-93.20363,-75.172466)"
         d="m 483,275.5 a 192.5,192.5 0 1 1 -385,0 192.5,192.5 0 1 1 385,0 z"
         sodipodi:ry="192.5"
         sodipodi:rx="192.5"
         sodipodi:cy="275.5"
         sodipodi:cx="290.5"
         id="path3820-8"
         style="fill:#ffffff;fill-opacity:1;stroke:none;display:inline"
         sodipodi:type="arc" />
    </mask>
    <mask
       maskUnits="userSpaceOnUse"
       id="mask3818-2">
      <path
         inkscape:export-ydpi="90"
         inkscape:export-xdpi="90"
         transform="matrix(1.2020779,0,0,1.2020779,-93.20363,-75.172466)"
         d="m 483,275.5 a 192.5,192.5 0 1 1 -385,0 192.5,192.5 0 1 1 385,0 z"
         sodipodi:ry="192.5"
         sodipodi:rx="192.5"
         sodipodi:cy="275.5"
         sodipodi:cx="290.5"
         id="path3820-2-2"
         style="fill:#ffffff;fill-opacity:1;stroke:none;display:inline"
         sodipodi:type="arc" />
    </mask>
    <clipPath
       id="clipPath3934"
       clipPathUnits="userSpaceOnUse">
      <path
         id="path3936"
         d="m 0,0 0,1024 1024,0 L 1024,0 0,0 z m 278.4375,333.84375 119.78125,0 c 9.83697,42.31453 19.85954,84.58596 29.9375,126.84375 9.86978,-42.28798 20.05132,-84.50237 29.6875,-126.84375 l 108.90625,0 c 9.63586,42.34141 19.8178,84.55578 29.6875,126.84375 10.07827,-42.25772 20.10031,-84.52927 29.9375,-126.84375 l 119.1875,0 c -26.26221,110.73099 -52.49625,221.46929 -78.28125,332.3125 l -122.8125,0 c -10.59439,-45.55681 -21.46638,-91.04874 -32.375,-136.53125 -10.66279,45.51136 -21.5615,90.96897 -32,136.53125 l -122.8125,0 c -25.71418,-110.03502 -52.0286,-219.92873 -78.25,-329.84375 l -0.59375,-2.46875 z"
         style="fill:#ff3232;fill-opacity:1;stroke:none"
         inkscape:connector-curvature="0" />
    </clipPath>
    <clipPath
       id="clipPath3929"
       clipPathUnits="userSpaceOnUse">
      <path
         inkscape:connector-curvature="0"
         style="fill:#ff3232;fill-opacity:1;stroke:none"
         d="m 0,0 0,1024 1024,0 L 1024,0 0,0 z m 278.4375,333.84375 119.78125,0 c 9.83697,42.31453 19.85954,84.58596 29.9375,126.84375 9.86978,-42.28798 20.05132,-84.50237 29.6875,-126.84375 l 108.90625,0 c 9.63586,42.34141 19.8178,84.55578 29.6875,126.84375 10.07827,-42.25772 20.10031,-84.52927 29.9375,-126.84375 l 119.1875,0 c -26.26221,110.73099 -52.49625,221.46929 -78.28125,332.3125 l -122.8125,0 c -10.59439,-45.55681 -21.46638,-91.04874 -32.375,-136.53125 -10.66279,45.51136 -21.5615,90.96897 -32,136.53125 l -122.8125,0 c -25.71418,-110.03502 -52.0286,-219.92873 -78.25,-329.84375 l -0.59375,-2.46875 z"
         id="path3931" />
    </clipPath>
    <mask
       maskUnits="userSpaceOnUse"
       id="mask3818">
      <path
         inkscape:export-ydpi="90"
         inkscape:export-xdpi="90"
         transform="matrix(1.2020779,0,0,1.2020779,-93.20363,-75.172466)"
         d="m 483,275.5 a 192.5,192.5 0 1 1 -385,0 192.5,192.5 0 1 1 385,0 z"
         sodipodi:ry="192.5"
         sodipodi:rx="192.5"
         sodipodi:cy="275.5"
         sodipodi:cx="290.5"
         id="path3820"
         style="fill:#ffffff;fill-opacity:1;stroke:none;display:inline"
         sodipodi:type="arc" />
    </mask>
    <linearGradient
       inkscape:collect="always"
       xlink:href="#linearGradient4573"
       id="linearGradient4575"
       x1="408.84314"
       y1="89.26915"
       x2="420.61133"
       y2="138.41306"
       gradientUnits="userSpaceOnUse"
       gradientTransform="matrix(0.99657796,0,0,1,1.2520606,0)" />
    <linearGradient
       inkscape:collect="always"
       xlink:href="#linearGradient8384"
       id="linearGradient6771"
       gradientUnits="userSpaceOnUse"
       gradientTransform="matrix(0.99657796,0,0,1,1.2520606,0)"
       x1="408.84314"
       y1="89.26915"
       x2="420.61133"
       y2="138.41306" />
  </defs>
  <metadata
     id="metadata4713">
    <rdf:RDF>
      <cc:Work
         rdf:about="">
        <dc:format>image/svg+xml</dc:format>
        <dc:type
           rdf:resource="http://purl.org/dc/dcmitype/StillImage" />
        <dc:title></dc:title>
      </cc:Work>
    </rdf:RDF>
  </metadata>
  <g
     id="layer1"
     inkscape:groupmode="layer"
     inkscape:label="Capa 1">
    <path
       style="opacity:1;fill:#394050;fill-opacity:1;fill-rule:evenodd;stroke:#e5e7ec;stroke-width:2;stroke-linejoin:round;stroke-miterlimit:4;stroke-dasharray:none;stroke-dashoffset:0;stroke-opacity:1;paint-order:normal"
       d="m 97.583979,29.700195 c -11.07875,0 -19.99804,9.65194 -19.99804,21.64062 V 460.66113 c 0,11.9887 8.91929,21.63867 19.99804,21.63867 H 414.41602 c 11.07874,0 19.99804,-9.64997 19.99804,-21.63867 V 113.7959 c -0.33411,-0.32981 -0.46874,-0.43168 -0.81445,-0.77345 -9.64188,-9.53205 -23.80681,-23.701345 -37.64453,-37.822255 -6.91884,-7.06045 -13.75546,-14.10994 -19.9043,-20.56055 -6.14876,-6.45062 -11.60929,-12.30327 -15.77539,-16.97265 -3.0827,-3.45513 -4.82334,-5.68286 -6.625,-7.9668 z"
       id="path4506"
       inkscape:connector-curvature="0"
       sodipodi:nodetypes="ssssssccccccs" />
    <g
       id="g4584"
       transform="matrix(0.3829248,0,0,0.3829248,74.406719,31.973725)"
       style="fill:#75abd3;fill-opacity:1;stroke:#9dc4df;stroke-opacity:1" />
    <path
       style="opacity:1;fill:#e5e7ec;fill-opacity:1;fill-rule:evenodd;stroke:#303643;stroke-width:1.03970885;stroke-linecap:square;stroke-linejoin:miter;stroke-miterlimit:4;stroke-dasharray:none;stroke-dashoffset:0;stroke-opacity:1;paint-order:markers fill stroke"
       d="M 116.39844 384.78906 C 111.03511 384.78906 106.23574 385.71632 101.99805 387.57031 C 97.760354 389.4243 94.184898 392.00571 91.271484 395.31641 C 88.424285 398.6271 86.237764 402.566 84.714844 407.13477 C 83.191923 411.63731 82.431641 416.53882 82.431641 421.83594 C 82.431641 427.13305 83.160481 432.03261 84.617188 436.53516 C 86.073894 441.0377 88.225066 444.90981 91.072266 448.1543 C 93.985679 451.39878 97.561136 453.94874 101.79883 455.80273 C 106.10273 457.59051 111.06908 458.48438 116.69727 458.48438 C 118.2864 458.48438 119.80892 458.41758 121.26562 458.28516 C 122.78855 458.21894 124.31106 458.05392 125.83398 457.78906 C 127.35691 457.59042 128.94621 457.26037 130.60156 456.79688 C 132.25691 456.33338 134.04464 455.73617 135.96484 455.00781 C 135.23649 449.97555 133.78076 445.076 131.5957 440.30859 C 128.88093 441.23559 126.56278 441.89764 124.64258 442.29492 C 122.78859 442.69221 120.80244 442.89062 118.68359 442.89062 C 106.89751 442.89062 101.00391 435.87329 101.00391 421.83594 C 101.00391 414.68483 102.46159 409.31969 105.375 405.74414 C 108.35463 402.10237 112.52534 400.2832 117.88867 400.2832 C 119.01431 400.2832 120.0732 400.34804 121.06641 400.48047 C 122.05962 400.54668 123.05367 400.68026 124.04688 400.87891 C 125.04008 401.07755 126.06558 401.34276 127.125 401.67383 C 128.25064 402.0049 129.4765 402.40174 130.80078 402.86523 C 131.72778 400.94503 132.62164 398.72707 133.48242 396.21094 C 134.3432 393.62859 134.84023 390.97844 134.97266 388.26367 C 131.46332 386.87318 128.2847 385.94787 125.4375 385.48438 C 122.5903 385.02088 119.57671 384.78906 116.39844 384.78906 z M 163.60742 404.85156 C 159.43594 404.85156 155.7603 405.51361 152.58203 406.83789 C 149.40376 408.09596 146.72217 409.91708 144.53711 412.30078 C 142.41826 414.68448 140.79751 417.5645 139.67188 420.94141 C 138.61245 424.2521 138.08203 427.92579 138.08203 431.96484 C 138.08203 435.93768 138.61245 439.57993 139.67188 442.89062 C 140.79751 446.13511 142.41826 448.95028 144.53711 451.33398 C 146.72217 453.65147 149.40376 455.4392 152.58203 456.69727 C 155.7603 457.95533 159.43594 458.58398 163.60742 458.58398 C 167.84511 458.58398 171.5522 457.95533 174.73047 456.69727 C 177.90874 455.4392 180.55889 453.65147 182.67773 451.33398 C 184.86279 448.95028 186.48355 446.13511 187.54297 442.89062 C 188.66861 439.57993 189.23242 435.93768 189.23242 431.96484 C 189.23242 427.92579 188.66861 424.2521 187.54297 420.94141 C 186.48355 417.5645 184.86279 414.68448 182.67773 412.30078 C 180.55889 409.91708 177.90874 408.09596 174.73047 406.83789 C 171.5522 405.51361 167.84511 404.85156 163.60742 404.85156 z M 216.46289 404.85156 C 213.48326 404.85156 210.37144 404.98319 207.12695 405.24805 C 203.94868 405.44669 200.83686 405.77869 197.79102 406.24219 L 197.79102 457.29297 C 199.51258 457.62404 201.0017 457.82246 202.25977 457.88867 C 203.58404 458.0211 204.80991 458.08789 205.93555 458.08789 C 206.99497 458.08789 208.18744 458.0211 209.51172 457.88867 C 210.90221 457.82246 212.45812 457.62404 214.17969 457.29297 L 214.17969 445.07617 C 214.37833 445.14239 214.8734 445.20918 215.66797 445.27539 C 216.46254 445.3416 217.42319 445.375 218.54883 445.375 C 221.32981 445.375 224.0448 445.043 226.69336 444.38086 C 229.40813 443.65251 231.82451 442.49343 233.94336 440.9043 C 236.06221 439.31516 237.7517 437.23078 239.00977 434.64844 C 240.33404 432.06609 240.99609 428.88748 240.99609 425.11328 C 240.99609 420.9418 240.26725 417.56477 238.81055 414.98242 C 237.42005 412.33386 235.56553 410.28093 233.24805 408.82422 C 230.93056 407.3013 228.31576 406.27385 225.40234 405.74414 C 222.48893 405.14822 219.50873 404.85156 216.46289 404.85156 z M 410.20117 404.85156 C 405.76484 404.85156 401.85738 405.54701 398.48047 406.9375 C 395.10356 408.32799 392.25694 410.21395 389.93945 412.59766 C 387.68818 414.98136 385.96724 417.79653 384.77539 421.04102 C 383.64975 424.2855 383.08594 427.72737 383.08594 431.36914 C 383.08594 435.14334 383.54957 438.68735 384.47656 441.99805 C 385.46977 445.30874 387.02569 448.18876 389.14453 450.63867 C 391.26338 453.08859 393.97837 455.04134 397.28906 456.49805 C 400.66597 457.88854 404.73846 458.58398 409.50586 458.58398 C 414.07462 458.58398 418.08031 458.15375 421.52344 457.29297 C 424.96656 456.43219 427.64816 455.63656 429.56836 454.9082 L 429.56836 429.68164 C 426.39009 429.08572 423.64171 428.78711 421.32422 428.78711 C 420.13237 428.78711 418.87506 428.8539 417.55078 428.98633 C 416.29272 429.11876 414.83699 429.35057 413.18164 429.68164 L 413.18164 444.28125 L 411.39258 444.28125 C 407.6846 444.28125 404.87138 443.25576 402.95117 441.20312 C 401.03097 439.08428 400.07031 435.80547 400.07031 431.36914 C 400.07031 429.78001 400.26873 428.25749 400.66602 426.80078 C 401.12951 425.27786 401.82496 423.95376 402.75195 422.82812 C 403.67895 421.70249 404.90481 420.80862 406.42773 420.14648 C 407.95066 419.48434 409.80322 419.1543 411.98828 419.1543 C 413.37877 419.1543 415.03487 419.38611 416.95508 419.84961 C 418.87528 420.24689 420.96162 420.90894 423.21289 421.83594 C 423.80882 420.37923 424.30389 419.08657 424.70117 417.96094 C 425.16467 416.76909 425.53007 415.6768 425.79492 414.68359 C 426.12599 413.62417 426.3912 412.59868 426.58984 411.60547 C 426.78849 410.61226 426.92011 409.55142 426.98633 408.42578 C 423.67563 407.1015 420.6306 406.1762 417.84961 405.64648 C 415.06862 405.11677 412.51866 404.85156 410.20117 404.85156 z M 350.36523 405.05078 C 345.39919 405.05078 341.25992 405.44762 337.94922 406.24219 C 334.63852 406.97054 331.8253 407.73082 329.50781 408.52539 L 329.50781 457.29297 C 331.22938 457.62404 332.78529 457.82246 334.17578 457.88867 C 335.56627 458.0211 336.82358 458.08789 337.94922 458.08789 C 339.00864 458.08789 340.23451 458.0211 341.625 457.88867 C 343.01549 457.82246 344.57141 457.62404 346.29297 457.29297 L 346.29297 420.14648 C 346.49161 420.01406 346.98864 419.88243 347.7832 419.75 C 348.64398 419.61757 349.43766 419.55078 350.16602 419.55078 C 352.88079 419.55078 354.90033 420.31302 356.22461 421.83594 C 357.54889 423.35886 358.21094 425.87347 358.21094 429.38281 L 358.21094 457.29297 C 359.9325 457.62404 361.48841 457.82246 362.87891 457.88867 C 364.2694 458.0211 365.52866 458.08789 366.6543 458.08789 C 367.71372 458.08789 368.93763 458.0211 370.32812 457.88867 C 371.71862 457.82246 373.27453 457.62404 374.99609 457.29297 L 374.99609 427.5957 C 374.99609 422.69587 374.23581 418.75697 372.71289 415.77734 C 371.25618 412.79772 369.33487 410.51296 366.95117 408.92383 C 364.63368 407.33469 362.01888 406.30725 359.10547 405.84375 C 356.19206 405.31404 353.27865 405.05078 350.36523 405.05078 z M 310.01562 405.14844 C 308.69135 405.14844 307.30046 405.21523 305.84375 405.34766 C 304.45326 405.48008 303.03093 405.7119 301.57422 406.04297 L 301.57422 457.29297 C 303.22957 457.55782 304.75209 457.75624 306.14258 457.88867 C 307.53307 458.0211 308.79038 458.08789 309.91602 458.08789 C 311.04165 458.08789 312.30091 458.0211 313.69141 457.88867 C 315.0819 457.75624 316.63781 457.55782 318.35938 457.29297 L 318.35938 406.04297 C 316.96888 405.7119 315.5446 405.48008 314.08789 405.34766 C 312.63118 405.21523 311.27369 405.14844 310.01562 405.14844 z M 251.24805 405.44727 C 249.06299 405.44727 247.04344 405.51406 245.18945 405.64648 C 243.40168 405.77891 242.14437 405.91054 241.41602 406.04297 L 260.48633 439.31641 L 260.48633 457.29297 C 262.14168 457.55782 263.66419 457.75624 265.05469 457.88867 C 266.44518 458.0211 267.70249 458.08789 268.82812 458.08789 C 269.95376 458.08789 271.21302 458.0211 272.60352 457.88867 C 273.99401 457.75624 275.54992 457.55782 277.27148 457.29297 L 277.27148 439.31641 L 296.43945 406.04297 C 295.7111 405.91054 294.48719 405.77891 292.76562 405.64648 C 291.04406 405.51406 289.08936 405.44727 286.9043 405.44727 C 285.18273 405.44727 283.56198 405.51406 282.03906 405.64648 C 280.58236 405.77891 279.58831 405.91054 279.05859 406.04297 L 269.32617 425.60938 L 259.5918 406.04297 C 259.06209 405.91054 257.9698 405.77891 256.31445 405.64648 C 254.6591 405.51406 252.96961 405.44727 251.24805 405.44727 z M 215.66797 417.66406 L 216.86133 417.66406 C 219.04639 417.66406 220.86556 418.32611 222.32227 419.65039 C 223.84519 420.90846 224.60742 422.72958 224.60742 425.11328 C 224.60742 427.89427 223.84519 429.88041 222.32227 431.07227 C 220.86556 432.1979 218.9796 432.75977 216.66211 432.75977 L 215.37109 432.75977 C 214.9076 432.69355 214.51076 432.62871 214.17969 432.5625 L 214.17969 417.76367 C 214.7094 417.69746 215.20447 417.66406 215.66797 417.66406 z M 163.60742 418.85547 C 166.52084 418.85547 168.67201 419.98115 170.0625 422.23242 C 171.51921 424.4837 172.24805 427.72715 172.24805 431.96484 C 172.24805 436.13632 171.51921 439.34834 170.0625 441.59961 C 168.67201 443.85088 166.52084 444.97656 163.60742 444.97656 C 160.69401 444.97656 158.54284 443.85088 157.15234 441.59961 C 155.76185 439.34834 155.06641 436.13632 155.06641 431.96484 C 155.06641 427.72715 155.76185 424.4837 157.15234 422.23242 C 158.54284 419.98115 160.69401 418.85547 163.60742 418.85547 z "
       id="rect4610" />
    <path
       style="opacity:1;fill:url(#linearGradient6771);fill-opacity:1;fill-rule:evenodd;stroke:none;stroke-width:8.77774811;stroke-linecap:square;stroke-linejoin:miter;stroke-miterlimit:4;stroke-dasharray:none;stroke-dashoffset:0;stroke-opacity:1;paint-order:markers fill stroke"
       d="m 433.28939,182.37584 v -69.47028 c 0,-0.0394 -0.0309,-0.0705 -0.0703,-0.0705 h -67.33747 c 4.09851,4.50878 8.40749,9.2132 13.77948,14.86279 7.205,7.57734 15.21697,15.8602 23.32513,24.15489 11.13885,11.3951 20.83136,21.05949 30.30308,30.52302 z"
       id="path4566"
       inkscape:connector-curvature="0" />
    <path
       style="opacity:1;fill:#e5e7ec;fill-opacity:1;fill-rule:evenodd;stroke:none;stroke-width:1.05391276;stroke-linejoin:round;stroke-miterlimit:4;stroke-dasharray:none;stroke-dashoffset:0;stroke-opacity:1;paint-order:normal"
       d="m 435.00048,114.60612 c -1.83541,-2.30475 -3.6077,-4.55306 -6.74972,-8.04125 -4.24635,-4.71409 -9.8132,-10.623129 -16.08223,-17.137261 C 405.8996,82.913483 398.92921,75.794273 391.8744,68.663457 377.76477,54.401804 363.32068,40.090503 353.48814,30.462087 c -0.35278,-0.345219 -0.4898,-0.448268 -0.83055,-0.781422 l -0.24394,62.802323 c -0.0467,12.055462 9.04538,21.800782 20.38588,21.850482 z"
       id="rect4485"
       inkscape:connector-curvature="0" />
    <g
       id="g3791"
       transform="matrix(0.76770121,0,0,0.76770121,31.276798,-412.23391)"
       style="stroke:#e5e7ec;stroke-opacity:1">
      <path
         sodipodi:nodetypes="czzzc"
         inkscape:connector-curvature="0"
         id="path3800"
         d="m 376.84986,785.16805 c 0,0 -27.5293,-43.69122 -85.71429,-44.50549 -58.18498,-0.81427 -93.56011,45.68468 -92.30769,93.95605 1.25242,48.27137 40.383,86.88013 95.60439,86.53843 55.22139,-0.3417 84.89012,-43.68129 84.89012,-43.68129"
         style="fill:none;stroke:#e5e7ec;stroke-width:30;stroke-linecap:butt;stroke-linejoin:miter;stroke-miterlimit:4;stroke-dasharray:none;stroke-opacity:1" />
      <path
         sodipodi:open="true"
         sodipodi:end="6.2784904"
         sodipodi:start="0"
         transform="matrix(0.83509787,0,0,0.89309081,12.394749,569.0658)"
         d="M 515.1778,299.52356 A 179.49634,167.84073 0 0 1 335.89214,467.36417 179.49634,167.84073 0 0 1 156.18561,299.91756 179.49634,167.84073 0 0 1 335.04942,131.68387 a 179.49634,167.84073 0 0 1 180.1264,167.0517"
         sodipodi:ry="167.84073"
         sodipodi:rx="179.49634"
         sodipodi:cy="299.52356"
         sodipodi:cx="335.68146"
         id="path3789"
         style="fill:none;stroke:#e5e7ec;stroke-width:28.94832993;stroke-linecap:round;stroke-linejoin:round;stroke-miterlimit:4;stroke-dasharray:none;stroke-opacity:1"
         sodipodi:type="arc" />
    </g>
  </g>
</svg>
