<?xml version="1.0" encoding="UTF-8" standalone="no"?>
<!-- Created with Inkscape (http://www.inkscape.org/) -->

<svg
   xmlns:osb="http://www.openswatchbook.org/uri/2009/osb"
   xmlns:dc="http://purl.org/dc/elements/1.1/"
   xmlns:cc="http://creativecommons.org/ns#"
   xmlns:rdf="http://www.w3.org/1999/02/22-rdf-syntax-ns#"
   xmlns:svg="http://www.w3.org/2000/svg"
   xmlns="http://www.w3.org/2000/svg"
   xmlns:xlink="http://www.w3.org/1999/xlink"
   xmlns:sodipodi="http://sodipodi.sourceforge.net/DTD/sodipodi-0.dtd"
   xmlns:inkscape="http://www.inkscape.org/namespaces/inkscape"
   width="512px"
   height="512px"
   viewBox="0 0 512 512"
   version="1.1"
   id="SVGRoot"
   inkscape:version="0.92.1 r15371"
   sodipodi:docname="credits.svg">
  <sodipodi:namedview
     id="base"
     pagecolor="#ffffff"
     bordercolor="#666666"
     borderopacity="1.0"
     inkscape:pageopacity="0.0"
     inkscape:pageshadow="2"
     inkscape:zoom="1"
     inkscape:cx="331.24519"
     inkscape:cy="282.25941"
     inkscape:document-units="px"
     inkscape:current-layer="layer1"
     showgrid="false"
     inkscape:window-width="1280"
     inkscape:window-height="947"
     inkscape:window-x="0"
     inkscape:window-y="0"
     inkscape:window-maximized="1" />
  <defs
     id="defs4710">
    <linearGradient
       id="linearGradient8384"
       inkscape:collect="always">
      <stop
         id="stop8380"
         offset="0"
         style="stop-color:#181818;stop-opacity:0.62365592" />
      <stop
         id="stop8382"
         offset="1"
         style="stop-color:#404040;stop-opacity:0" />
    </linearGradient>
    <linearGradient
       inkscape:collect="always"
       id="linearGradient4573">
      <stop
         style="stop-color:#181818;stop-opacity:0.30645162"
         offset="0"
         id="stop4569" />
      <stop
         style="stop-color:#404040;stop-opacity:0"
         offset="1"
         id="stop4571" />
    </linearGradient>
    <marker
       inkscape:stockid="DotM"
       orient="auto"
       refY="0.0"
       refX="0.0"
       id="DotM"
       style="overflow:visible"
       inkscape:isstock="true">
      <path
         id="path4618"
         d="M -2.5,-1.0 C -2.5,1.7600000 -4.7400000,4.0 -7.5,4.0 C -10.260000,4.0 -12.5,1.7600000 -12.5,-1.0 C -12.5,-3.7600000 -10.260000,-6.0 -7.5,-6.0 C -4.7400000,-6.0 -2.5,-3.7600000 -2.5,-1.0 z "
         style="fill-rule:evenodd;stroke:#000000;stroke-width:1.0pt"
         transform="scale(0.4) translate(7.4, 1)" />
    </marker>
    <linearGradient
       osb:paint="solid"
       id="linearGradient5207">
      <stop
         id="stop5209"
         offset="0"
         style="stop-color:#000015;stop-opacity:1;" />
    </linearGradient>
    <clipPath
       id="clipPath3006-9-8"
       clipPathUnits="userSpaceOnUse">
      <path
         inkscape:export-ydpi="90"
         inkscape:export-xdpi="90"
         transform="matrix(1.2020779,0,0,1.2020779,-93.20363,-75.172465)"
         d="m 483,275.5 a 192.5,192.5 0 1 1 -385,0 192.5,192.5 0 1 1 385,0 z"
         sodipodi:ry="192.5"
         sodipodi:rx="192.5"
         sodipodi:cy="275.5"
         sodipodi:cx="290.5"
         id="path3008-1-1"
         style="fill:#ffffff;fill-opacity:1;stroke:none;display:inline"
         sodipodi:type="arc" />
    </clipPath>
    <mask
       id="mask3818-4"
       maskUnits="userSpaceOnUse">
      <path
         sodipodi:type="arc"
         style="fill:#ffffff;fill-opacity:1;stroke:none;display:inline"
         id="path3820-9"
         sodipodi:cx="290.5"
         sodipodi:cy="275.5"
         sodipodi:rx="192.5"
         sodipodi:ry="192.5"
         d="m 483,275.5 a 192.5,192.5 0 1 1 -385,0 192.5,192.5 0 1 1 385,0 z"
         transform="matrix(1.2020779,0,0,1.2020779,-93.20363,-75.172466)"
         inkscape:export-xdpi="90"
         inkscape:export-ydpi="90" />
    </mask>
    <clipPath
       id="clipPath3006"
       clipPathUnits="userSpaceOnUse">
      <path
         inkscape:export-ydpi="90"
         inkscape:export-xdpi="90"
         transform="matrix(1.2020779,0,0,1.2020779,-93.20363,-75.172465)"
         d="m 483,275.5 a 192.5,192.5 0 1 1 -385,0 192.5,192.5 0 1 1 385,0 z"
         sodipodi:ry="192.5"
         sodipodi:rx="192.5"
         sodipodi:cy="275.5"
         sodipodi:cx="290.5"
         id="path3008"
         style="fill:#ffffff;fill-opacity:1;stroke:none;display:inline"
         sodipodi:type="arc" />
    </clipPath>
    <clipPath
       id="clipPath3006-9"
       clipPathUnits="userSpaceOnUse">
      <path
         inkscape:export-ydpi="90"
         inkscape:export-xdpi="90"
         transform="matrix(1.2020779,0,0,1.2020779,-93.20363,-75.172465)"
         d="m 483,275.5 a 192.5,192.5 0 1 1 -385,0 192.5,192.5 0 1 1 385,0 z"
         sodipodi:ry="192.5"
         sodipodi:rx="192.5"
         sodipodi:cy="275.5"
         sodipodi:cx="290.5"
         id="path3008-1"
         style="fill:#ffffff;fill-opacity:1;stroke:none;display:inline"
         sodipodi:type="arc" />
    </clipPath>
    <mask
       maskUnits="userSpaceOnUse"
       id="mask3818-0">
      <path
         inkscape:export-ydpi="90"
         inkscape:export-xdpi="90"
         transform="matrix(1.2020779,0,0,1.2020779,-93.20363,-75.172466)"
         d="m 483,275.5 a 192.5,192.5 0 1 1 -385,0 192.5,192.5 0 1 1 385,0 z"
         sodipodi:ry="192.5"
         sodipodi:rx="192.5"
         sodipodi:cy="275.5"
         sodipodi:cx="290.5"
         id="path3820-8"
         style="fill:#ffffff;fill-opacity:1;stroke:none;display:inline"
         sodipodi:type="arc" />
    </mask>
    <mask
       maskUnits="userSpaceOnUse"
       id="mask3818-2">
      <path
         inkscape:export-ydpi="90"
         inkscape:export-xdpi="90"
         transform="matrix(1.2020779,0,0,1.2020779,-93.20363,-75.172466)"
         d="m 483,275.5 a 192.5,192.5 0 1 1 -385,0 192.5,192.5 0 1 1 385,0 z"
         sodipodi:ry="192.5"
         sodipodi:rx="192.5"
         sodipodi:cy="275.5"
         sodipodi:cx="290.5"
         id="path3820-2-2"
         style="fill:#ffffff;fill-opacity:1;stroke:none;display:inline"
         sodipodi:type="arc" />
    </mask>
    <clipPath
       id="clipPath3934"
       clipPathUnits="userSpaceOnUse">
      <path
         id="path3936"
         d="m 0,0 0,1024 1024,0 L 1024,0 0,0 z m 278.4375,333.84375 119.78125,0 c 9.83697,42.31453 19.85954,84.58596 29.9375,126.84375 9.86978,-42.28798 20.05132,-84.50237 29.6875,-126.84375 l 108.90625,0 c 9.63586,42.34141 19.8178,84.55578 29.6875,126.84375 10.07827,-42.25772 20.10031,-84.52927 29.9375,-126.84375 l 119.1875,0 c -26.26221,110.73099 -52.49625,221.46929 -78.28125,332.3125 l -122.8125,0 c -10.59439,-45.55681 -21.46638,-91.04874 -32.375,-136.53125 -10.66279,45.51136 -21.5615,90.96897 -32,136.53125 l -122.8125,0 c -25.71418,-110.03502 -52.0286,-219.92873 -78.25,-329.84375 l -0.59375,-2.46875 z"
         style="fill:#ff3232;fill-opacity:1;stroke:none"
         inkscape:connector-curvature="0" />
    </clipPath>
    <clipPath
       id="clipPath3929"
       clipPathUnits="userSpaceOnUse">
      <path
         inkscape:connector-curvature="0"
         style="fill:#ff3232;fill-opacity:1;stroke:none"
         d="m 0,0 0,1024 1024,0 L 1024,0 0,0 z m 278.4375,333.84375 119.78125,0 c 9.83697,42.31453 19.85954,84.58596 29.9375,126.84375 9.86978,-42.28798 20.05132,-84.50237 29.6875,-126.84375 l 108.90625,0 c 9.63586,42.34141 19.8178,84.55578 29.6875,126.84375 10.07827,-42.25772 20.10031,-84.52927 29.9375,-126.84375 l 119.1875,0 c -26.26221,110.73099 -52.49625,221.46929 -78.28125,332.3125 l -122.8125,0 c -10.59439,-45.55681 -21.46638,-91.04874 -32.375,-136.53125 -10.66279,45.51136 -21.5615,90.96897 -32,136.53125 l -122.8125,0 c -25.71418,-110.03502 -52.0286,-219.92873 -78.25,-329.84375 l -0.59375,-2.46875 z"
         id="path3931" />
    </clipPath>
    <mask
       maskUnits="userSpaceOnUse"
       id="mask3818">
      <path
         inkscape:export-ydpi="90"
         inkscape:export-xdpi="90"
         transform="matrix(1.2020779,0,0,1.2020779,-93.20363,-75.172466)"
         d="m 483,275.5 a 192.5,192.5 0 1 1 -385,0 192.5,192.5 0 1 1 385,0 z"
         sodipodi:ry="192.5"
         sodipodi:rx="192.5"
         sodipodi:cy="275.5"
         sodipodi:cx="290.5"
         id="path3820"
         style="fill:#ffffff;fill-opacity:1;stroke:none;display:inline"
         sodipodi:type="arc" />
    </mask>
    <linearGradient
       inkscape:collect="always"
       xlink:href="#linearGradient4573"
       id="linearGradient4575"
       x1="408.84314"
       y1="89.26915"
       x2="420.61133"
       y2="138.41306"
       gradientUnits="userSpaceOnUse"
       gradientTransform="matrix(0.99657796,0,0,1,1.2520606,0)" />
    <linearGradient
       inkscape:collect="always"
       xlink:href="#linearGradient8384"
       id="linearGradient6771"
       gradientUnits="userSpaceOnUse"
       gradientTransform="matrix(0.99657796,0,0,1,1.2520606,0)"
       x1="408.84314"
       y1="89.26915"
       x2="420.61133"
       y2="138.41306" />
  </defs>
  <metadata
     id="metadata4713">
    <rdf:RDF>
      <cc:Work
         rdf:about="">
        <dc:format>image/svg+xml</dc:format>
        <dc:type
           rdf:resource="http://purl.org/dc/dcmitype/StillImage" />
        <dc:title></dc:title>
      </cc:Work>
    </rdf:RDF>
  </metadata>
  <g
     id="layer1"
     inkscape:groupmode="layer"
     inkscape:label="Capa 1">
    <path
       style="opacity:1;fill:#394050;fill-opacity:1;fill-rule:evenodd;stroke:#e5e7ec;stroke-width:2;stroke-linejoin:round;stroke-miterlimit:4;stroke-dasharray:none;stroke-dashoffset:0;stroke-opacity:1;paint-order:normal"
       d="m 97.583979,29.700195 c -11.07875,0 -19.99804,9.65194 -19.99804,21.64062 V 460.66113 c 0,11.9887 8.91929,21.63867 19.99804,21.63867 H 414.41602 c 11.07874,0 19.99804,-9.64997 19.99804,-21.63867 V 113.7959 c -0.33411,-0.32981 -0.46874,-0.43168 -0.81445,-0.77345 -9.64188,-9.53205 -23.80681,-23.701345 -37.64453,-37.822255 -6.91884,-7.06045 -13.75546,-14.10994 -19.9043,-20.56055 -6.14876,-6.45062 -11.60929,-12.30327 -15.77539,-16.97265 -3.0827,-3.45513 -4.82334,-5.68286 -6.625,-7.9668 z"
       id="path4506"
       inkscape:connector-curvature="0"
       sodipodi:nodetypes="ssssssccccccs" />
    <g
       id="g4584"
       transform="matrix(0.3829248,0,0,0.3829248,74.406719,31.973725)"
       style="fill:#75abd3;fill-opacity:1;stroke:#9dc4df;stroke-opacity:1" />
    <path
       style="opacity:1;fill:#e5e7ec;fill-opacity:1;fill-rule:evenodd;stroke:#303643;stroke-width:1.03970885;stroke-linecap:square;stroke-linejoin:miter;stroke-miterlimit:4;stroke-dasharray:none;stroke-dashoffset:0;stroke-opacity:1;paint-order:markers fill stroke"
       d="M 119.37891 384.78906 C 114.01558 384.78906 109.21425 385.71632 104.97656 387.57031 C 100.73887 389.4243 97.163414 392.00571 94.25 395.31641 C 91.4028 398.6271 89.218233 402.566 87.695312 407.13477 C 86.172392 411.63731 85.410156 416.53882 85.410156 421.83594 C 85.410156 427.13305 86.138996 432.03261 87.595703 436.53516 C 89.05241 441.0377 91.205535 444.90981 94.052734 448.1543 C 96.966148 451.39878 100.5416 453.94874 104.7793 455.80273 C 109.0832 457.59051 114.0476 458.48438 119.67578 458.48438 C 121.26492 458.48438 122.78939 458.41758 124.24609 458.28516 C 125.76901 458.21894 127.29153 458.05392 128.81445 457.78906 C 130.33737 457.59042 131.92668 457.26037 133.58203 456.79688 C 135.23738 456.33338 137.02511 455.73617 138.94531 455.00781 C 138.21696 449.97555 136.75928 445.076 134.57422 440.30859 C 131.85945 441.23559 129.54325 441.89764 127.62305 442.29492 C 125.76906 442.69221 123.78096 442.89062 121.66211 442.89062 C 109.87603 442.89062 103.98438 435.87329 103.98438 421.83594 C 103.98438 414.68483 105.4401 409.31969 108.35352 405.74414 C 111.33314 402.10237 115.50581 400.2832 120.86914 400.2832 C 121.99478 400.2832 123.05367 400.34804 124.04688 400.48047 C 125.04008 400.54668 126.03218 400.68026 127.02539 400.87891 C 128.0186 401.07755 129.04605 401.34276 130.10547 401.67383 C 131.23111 402.0049 132.45502 402.40174 133.7793 402.86523 C 134.70629 400.94503 135.60016 398.72707 136.46094 396.21094 C 137.32172 393.62859 137.81874 390.97844 137.95117 388.26367 C 134.44183 386.87318 131.26322 385.94787 128.41602 385.48438 C 125.56882 385.02088 122.55718 384.78906 119.37891 384.78906 z M 166.59375 404.85156 C 163.61412 404.85156 160.4355 404.98319 157.05859 405.24805 C 153.7479 405.5129 150.53588 405.8449 147.42383 406.24219 L 147.42383 457.29297 C 149.14539 457.62404 150.66791 457.82246 151.99219 457.88867 C 153.31647 458.0211 154.54233 458.08789 155.66797 458.08789 C 156.72739 458.08789 157.95326 458.0211 159.34375 457.88867 C 160.73424 457.82246 162.29016 457.62404 164.01172 457.29297 L 164.01172 418.25977 C 164.67386 418.12734 165.63256 418.06055 166.89062 418.06055 C 169.1419 418.06055 170.7646 418.62436 171.75781 419.75 C 172.81724 420.80942 173.34766 422.19836 173.34766 423.91992 C 173.34766 425.64148 172.91742 427.26419 172.05664 428.78711 C 171.19586 430.24382 169.60655 431.63471 167.28906 432.95898 L 165.89844 433.75391 L 176.92188 457.19336 C 178.04751 457.45822 179.4718 457.65663 181.19336 457.78906 C 182.91492 457.92149 184.70265 457.98828 186.55664 457.98828 C 188.07956 457.98828 189.63547 457.92149 191.22461 457.78906 C 192.87996 457.65663 194.37103 457.45822 195.69531 457.19336 L 184.37109 435.54102 C 184.83459 435.14373 185.4318 434.61526 186.16016 433.95312 C 186.88851 433.29099 187.58395 432.42856 188.24609 431.36914 C 188.90823 430.2435 189.4701 428.91941 189.93359 427.39648 C 190.39709 425.87356 190.62891 424.08584 190.62891 422.0332 C 190.62891 416.60366 188.60936 412.39955 184.57031 409.41992 C 180.59748 406.37408 174.60564 404.85156 166.59375 404.85156 z M 222.9375 404.85156 C 218.69981 404.85156 214.99272 405.5804 211.81445 407.03711 C 208.63618 408.4276 205.98603 410.34696 203.86719 412.79688 C 201.74834 415.24679 200.16099 418.1268 199.10156 421.4375 C 198.04214 424.7482 197.51172 428.29026 197.51172 432.06445 C 197.51172 435.90486 198.00874 439.44888 199.00195 442.69336 C 200.06138 445.93784 201.65069 448.75106 203.76953 451.13477 C 205.95459 453.45225 208.73442 455.27338 212.11133 456.59766 C 215.55445 457.92194 219.66033 458.58398 224.42773 458.58398 C 230.58563 458.58398 236.61087 457.4917 242.50391 455.30664 C 242.43769 452.7243 242.04085 450.24112 241.3125 447.85742 C 240.65036 445.47372 239.85473 443.42078 238.92773 441.69922 C 236.61025 442.62621 234.26066 443.32166 231.87695 443.78516 C 229.49325 444.24865 227.34013 444.48047 225.41992 444.48047 C 222.44029 444.48047 220.02391 443.91665 218.16992 442.79102 C 216.38215 441.66538 215.12484 439.74602 214.39648 437.03125 L 244.58984 437.03125 C 244.72227 436.10425 244.8539 434.94518 244.98633 433.55469 C 245.18497 432.09798 245.28516 430.47528 245.28516 428.6875 C 245.28516 425.24437 244.75474 422.06771 243.69531 419.1543 C 242.7021 416.17467 241.24638 413.6581 239.32617 411.60547 C 237.40597 409.48662 235.05442 407.83052 232.27344 406.63867 C 229.55867 405.44682 226.44684 404.85156 222.9375 404.85156 z M 270.91992 404.85156 C 268.20515 404.85156 265.29174 405.01659 262.17969 405.34766 C 259.06763 405.61251 256.12278 405.91112 253.3418 406.24219 L 253.3418 457.29297 C 256.12278 457.69025 258.77098 457.98886 261.28711 458.1875 C 263.86945 458.45236 266.78286 458.58398 270.02734 458.58398 C 275.58932 458.58398 280.32385 457.95533 284.23047 456.69727 C 288.20331 455.37299 291.41337 453.51847 293.86328 451.13477 C 296.37941 448.75106 298.20053 445.87105 299.32617 442.49414 C 300.51802 439.11723 301.11328 435.34335 301.11328 431.17188 C 301.11328 427.19904 300.55142 423.59019 299.42578 420.3457 C 298.30014 417.10122 296.51242 414.35284 294.0625 412.10156 C 291.61258 409.78407 288.46736 407.99635 284.62695 406.73828 C 280.85276 405.48022 276.28325 404.85156 270.91992 404.85156 z M 408.01562 404.85156 C 404.83736 404.85156 401.92395 405.2484 399.27539 406.04297 C 396.69305 406.83754 394.44169 407.99661 392.52148 409.51953 C 390.60128 410.97624 389.11216 412.76397 388.05273 414.88281 C 386.99331 417.00166 386.46289 419.35125 386.46289 421.93359 C 386.46289 426.03886 387.62197 429.28427 389.93945 431.66797 C 392.25694 434.05167 395.17035 435.73921 398.67969 436.73242 L 405.43359 438.62109 C 406.55923 438.95216 407.55328 439.349 408.41406 439.8125 C 409.27484 440.20978 409.70508 440.83844 409.70508 441.69922 C 409.70508 442.36136 409.47326 442.89178 409.00977 443.28906 C 408.61248 443.68635 408.08206 444.01639 407.41992 444.28125 C 406.75778 444.47989 405.9975 444.61347 405.13672 444.67969 C 404.27594 444.7459 403.44691 444.77734 402.65234 444.77734 C 400.33486 444.77734 398.01866 444.54553 395.70117 444.08203 C 393.38368 443.55232 391.16377 442.79204 389.04492 441.79883 C 386.92608 446.4338 385.70216 451.00136 385.37109 455.50391 C 388.41694 456.62954 391.29695 457.42517 394.01172 457.88867 C 396.72649 458.35217 399.67329 458.58398 402.85156 458.58398 C 406.69197 458.58398 410.06901 458.12035 412.98242 457.19336 C 415.96205 456.26636 418.44522 455.00906 420.43164 453.41992 C 422.48427 451.83079 424.00679 449.94287 425 447.75781 C 426.05942 445.57275 426.58984 443.22121 426.58984 440.70508 C 426.58984 438.25516 426.25784 436.17078 425.5957 434.44922 C 424.93356 432.72766 424.0063 431.26998 422.81445 430.07812 C 421.68882 428.88627 420.29793 427.92757 418.64258 427.19922 C 417.05344 426.40465 415.26572 425.7426 413.2793 425.21289 L 406.82422 423.52344 C 405.89722 423.25858 405.07015 422.92853 404.3418 422.53125 C 403.61344 422.13397 403.24805 421.57015 403.24805 420.8418 C 403.24805 419.12023 404.80396 418.25977 407.91602 418.25977 C 410.03486 418.25977 412.35301 418.55837 414.86914 419.1543 C 417.38527 419.75022 419.53644 420.41227 421.32422 421.14062 C 422.25121 419.28663 423.08024 417.16691 423.80859 414.7832 C 424.53695 412.33329 424.96718 410.04853 425.09961 407.92969 C 422.1862 406.93648 419.23939 406.1762 416.25977 405.64648 C 413.28014 405.11677 410.53175 404.85156 408.01562 404.85156 z M 318.23242 405.14844 C 316.90814 405.14844 315.51921 405.21523 314.0625 405.34766 C 312.67201 405.48008 311.24772 405.7119 309.79102 406.04297 L 309.79102 457.29297 C 311.44636 457.55782 312.96888 457.75624 314.35938 457.88867 C 315.74987 458.0211 317.00718 458.08789 318.13281 458.08789 C 319.25845 458.08789 320.51771 458.0211 321.9082 457.88867 C 323.2987 457.75624 324.85461 457.55782 326.57617 457.29297 L 326.57617 406.04297 C 325.18568 405.7119 323.76139 405.48008 322.30469 405.34766 C 320.84798 405.21523 319.49049 405.14844 318.23242 405.14844 z M 334.44727 406.04297 C 334.1162 407.36725 333.88438 408.59311 333.75195 409.71875 C 333.68574 410.84439 333.65234 411.93667 333.65234 412.99609 C 333.65234 414.05552 333.68574 415.1812 333.75195 416.37305 C 333.88438 417.49868 334.1162 418.7226 334.44727 420.04688 L 349.14648 420.04688 L 349.14648 457.29297 C 350.80183 457.55782 352.32435 457.75624 353.71484 457.88867 C 355.10534 458.0211 356.3646 458.08789 357.49023 458.08789 C 358.61587 458.08789 359.87318 458.0211 361.26367 457.88867 C 362.65416 457.75624 364.21008 457.55782 365.93164 457.29297 L 365.93164 420.04688 L 380.63086 420.04688 C 380.96193 418.7226 381.16035 417.49868 381.22656 416.37305 C 381.35899 415.1812 381.42578 414.05552 381.42578 412.99609 C 381.42578 411.93667 381.35899 410.84439 381.22656 409.71875 C 381.16035 408.59311 380.96193 407.36725 380.63086 406.04297 L 334.44727 406.04297 z M 222.3418 417.46484 C 224.79171 417.46484 226.64623 418.26047 227.9043 419.84961 C 229.22858 421.37253 229.95742 423.29189 230.08984 425.60938 L 214.19727 425.60938 C 214.46212 422.82839 215.35599 420.77545 216.87891 419.45117 C 218.40183 418.12689 220.22295 417.46484 222.3418 417.46484 z M 273.80078 418.95508 C 277.11148 418.95508 279.66144 419.94718 281.44922 421.93359 C 283.237 423.8538 284.13086 426.93418 284.13086 431.17188 C 284.13086 435.93928 283.2036 439.38115 281.34961 441.5 C 279.56183 443.55263 276.81345 444.58008 273.10547 444.58008 C 272.24469 444.58008 271.58264 444.54668 271.11914 444.48047 C 270.72186 444.41425 270.39181 444.38086 270.12695 444.38086 L 270.12695 419.25195 C 270.45802 419.18574 270.95309 419.1209 271.61523 419.05469 C 272.27737 418.98847 273.00621 418.95508 273.80078 418.95508 z "
       id="rect4610" />
    <path
       style="opacity:1;fill:url(#linearGradient6771);fill-opacity:1;fill-rule:evenodd;stroke:none;stroke-width:8.77774811;stroke-linecap:square;stroke-linejoin:miter;stroke-miterlimit:4;stroke-dasharray:none;stroke-dashoffset:0;stroke-opacity:1;paint-order:markers fill stroke"
       d="m 433.28939,182.37584 v -69.47028 c 0,-0.0394 -0.0309,-0.0705 -0.0703,-0.0705 h -67.33747 c 4.09851,4.50878 8.40749,9.2132 13.77948,14.86279 7.205,7.57734 15.21697,15.8602 23.32513,24.15489 11.13885,11.3951 20.83136,21.05949 30.30308,30.52302 z"
       id="path4566"
       inkscape:connector-curvature="0" />
    <path
       style="opacity:1;fill:#e5e7ec;fill-opacity:1;fill-rule:evenodd;stroke:none;stroke-width:1.05391276;stroke-linejoin:round;stroke-miterlimit:4;stroke-dasharray:none;stroke-dashoffset:0;stroke-opacity:1;paint-order:normal"
       d="m 435.00048,114.60612 c -1.83541,-2.30475 -3.6077,-4.55306 -6.74972,-8.04125 -4.24635,-4.71409 -9.8132,-10.623129 -16.08223,-17.137261 C 405.8996,82.913483 398.92921,75.794273 391.8744,68.663457 377.76477,54.401804 363.32068,40.090503 353.48814,30.462087 c -0.35278,-0.345219 -0.4898,-0.448268 -0.83055,-0.781422 l -0.24394,62.802323 c -0.0467,12.055462 9.04538,21.800782 20.38588,21.850482 z"
       id="rect4485"
       inkscape:connector-curvature="0" />
    <g
       id="g3791"
       transform="matrix(0.76770121,0,0,0.76770121,31.276798,-412.23391)"
       style="stroke:#e5e7ec;stroke-opacity:1">
      <path
         sodipodi:nodetypes="czzzc"
         inkscape:connector-curvature="0"
         id="path3800"
         d="m 376.84986,785.16805 c 0,0 -27.5293,-43.69122 -85.71429,-44.50549 -58.18498,-0.81427 -93.56011,45.68468 -92.30769,93.95605 1.25242,48.27137 40.383,86.88013 95.60439,86.53843 55.22139,-0.3417 84.89012,-43.68129 84.89012,-43.68129"
         style="fill:none;stroke:#e5e7ec;stroke-width:30;stroke-linecap:butt;stroke-linejoin:miter;stroke-miterlimit:4;stroke-dasharray:none;stroke-opacity:1" />
      <path
         sodipodi:open="true"
         sodipodi:end="6.2784904"
         sodipodi:start="0"
         transform="matrix(0.83509787,0,0,0.89309081,12.394749,569.0658)"
         d="M 515.1778,299.52356 A 179.49634,167.84073 0 0 1 335.89214,467.36417 179.49634,167.84073 0 0 1 156.18561,299.91756 179.49634,167.84073 0 0 1 335.04942,131.68387 a 179.49634,167.84073 0 0 1 180.1264,167.0517"
         sodipodi:ry="167.84073"
         sodipodi:rx="179.49634"
         sodipodi:cy="299.52356"
         sodipodi:cx="335.68146"
         id="path3789"
         style="fill:none;stroke:#e5e7ec;stroke-width:28.94832993;stroke-linecap:round;stroke-linejoin:round;stroke-miterlimit:4;stroke-dasharray:none;stroke-opacity:1"
         sodipodi:type="arc" />
    </g>
  </g>
</svg>
