<?xml version="1.0" encoding="UTF-8" standalone="no"?>
<!-- Created with Inkscape (http://www.inkscape.org/) -->

<svg
   xmlns:osb="http://www.openswatchbook.org/uri/2009/osb"
   xmlns:dc="http://purl.org/dc/elements/1.1/"
   xmlns:cc="http://creativecommons.org/ns#"
   xmlns:rdf="http://www.w3.org/1999/02/22-rdf-syntax-ns#"
   xmlns:svg="http://www.w3.org/2000/svg"
   xmlns="http://www.w3.org/2000/svg"
   xmlns:xlink="http://www.w3.org/1999/xlink"
   xmlns:sodipodi="http://sodipodi.sourceforge.net/DTD/sodipodi-0.dtd"
   xmlns:inkscape="http://www.inkscape.org/namespaces/inkscape"
   width="512px"
   height="512px"
   viewBox="0 0 512 512"
   version="1.1"
   id="SVGRoot"
   inkscape:version="0.92.1 r15371"
   sodipodi:docname="dng.svg">
  <sodipodi:namedview
     id="base"
     pagecolor="#ffffff"
     bordercolor="#666666"
     borderopacity="1.0"
     inkscape:pageopacity="0.0"
     inkscape:pageshadow="2"
     inkscape:zoom="0.70710678"
     inkscape:cx="533.39144"
     inkscape:cy="220.27598"
     inkscape:document-units="px"
     inkscape:current-layer="layer1"
     showgrid="false"
     inkscape:window-width="1280"
     inkscape:window-height="947"
     inkscape:window-x="0"
     inkscape:window-y="0"
     inkscape:window-maximized="1"
     inkscape:lockguides="false" />
  <defs
     id="defs4710">
    <linearGradient
       id="linearGradient8384"
       inkscape:collect="always">
      <stop
         id="stop8380"
         offset="0"
         style="stop-color:#181818;stop-opacity:0.38709676" />
      <stop
         id="stop8382"
         offset="1"
         style="stop-color:#404040;stop-opacity:0" />
    </linearGradient>
    <linearGradient
       inkscape:collect="always"
       id="linearGradient4573">
      <stop
         style="stop-color:#181818;stop-opacity:0.30645162"
         offset="0"
         id="stop4569" />
      <stop
         style="stop-color:#404040;stop-opacity:0"
         offset="1"
         id="stop4571" />
    </linearGradient>
    <marker
       inkscape:stockid="DotM"
       orient="auto"
       refY="0.0"
       refX="0.0"
       id="DotM"
       style="overflow:visible"
       inkscape:isstock="true">
      <path
         id="path4618"
         d="M -2.5,-1.0 C -2.5,1.7600000 -4.7400000,4.0 -7.5,4.0 C -10.260000,4.0 -12.5,1.7600000 -12.5,-1.0 C -12.5,-3.7600000 -10.260000,-6.0 -7.5,-6.0 C -4.7400000,-6.0 -2.5,-3.7600000 -2.5,-1.0 z "
         style="fill-rule:evenodd;stroke:#000000;stroke-width:1.0pt"
         transform="scale(0.4) translate(7.4, 1)" />
    </marker>
    <linearGradient
       osb:paint="solid"
       id="linearGradient5207">
      <stop
         id="stop5209"
         offset="0"
         style="stop-color:#000015;stop-opacity:1;" />
    </linearGradient>
    <clipPath
       id="clipPath3006-9-8"
       clipPathUnits="userSpaceOnUse">
      <path
         inkscape:export-ydpi="90"
         inkscape:export-xdpi="90"
         transform="matrix(1.2020779,0,0,1.2020779,-93.20363,-75.172465)"
         d="m 483,275.5 a 192.5,192.5 0 1 1 -385,0 192.5,192.5 0 1 1 385,0 z"
         sodipodi:ry="192.5"
         sodipodi:rx="192.5"
         sodipodi:cy="275.5"
         sodipodi:cx="290.5"
         id="path3008-1-1"
         style="fill:#ffffff;fill-opacity:1;stroke:none;display:inline"
         sodipodi:type="arc" />
    </clipPath>
    <mask
       id="mask3818-4"
       maskUnits="userSpaceOnUse">
      <path
         sodipodi:type="arc"
         style="fill:#ffffff;fill-opacity:1;stroke:none;display:inline"
         id="path3820-9"
         sodipodi:cx="290.5"
         sodipodi:cy="275.5"
         sodipodi:rx="192.5"
         sodipodi:ry="192.5"
         d="m 483,275.5 a 192.5,192.5 0 1 1 -385,0 192.5,192.5 0 1 1 385,0 z"
         transform="matrix(1.2020779,0,0,1.2020779,-93.20363,-75.172466)"
         inkscape:export-xdpi="90"
         inkscape:export-ydpi="90" />
    </mask>
    <clipPath
       id="clipPath3006"
       clipPathUnits="userSpaceOnUse">
      <path
         inkscape:export-ydpi="90"
         inkscape:export-xdpi="90"
         transform="matrix(1.2020779,0,0,1.2020779,-93.20363,-75.172465)"
         d="m 483,275.5 a 192.5,192.5 0 1 1 -385,0 192.5,192.5 0 1 1 385,0 z"
         sodipodi:ry="192.5"
         sodipodi:rx="192.5"
         sodipodi:cy="275.5"
         sodipodi:cx="290.5"
         id="path3008"
         style="fill:#ffffff;fill-opacity:1;stroke:none;display:inline"
         sodipodi:type="arc" />
    </clipPath>
    <clipPath
       id="clipPath3006-9"
       clipPathUnits="userSpaceOnUse">
      <path
         inkscape:export-ydpi="90"
         inkscape:export-xdpi="90"
         transform="matrix(1.2020779,0,0,1.2020779,-93.20363,-75.172465)"
         d="m 483,275.5 a 192.5,192.5 0 1 1 -385,0 192.5,192.5 0 1 1 385,0 z"
         sodipodi:ry="192.5"
         sodipodi:rx="192.5"
         sodipodi:cy="275.5"
         sodipodi:cx="290.5"
         id="path3008-1"
         style="fill:#ffffff;fill-opacity:1;stroke:none;display:inline"
         sodipodi:type="arc" />
    </clipPath>
    <mask
       maskUnits="userSpaceOnUse"
       id="mask3818-0">
      <path
         inkscape:export-ydpi="90"
         inkscape:export-xdpi="90"
         transform="matrix(1.2020779,0,0,1.2020779,-93.20363,-75.172466)"
         d="m 483,275.5 a 192.5,192.5 0 1 1 -385,0 192.5,192.5 0 1 1 385,0 z"
         sodipodi:ry="192.5"
         sodipodi:rx="192.5"
         sodipodi:cy="275.5"
         sodipodi:cx="290.5"
         id="path3820-8"
         style="fill:#ffffff;fill-opacity:1;stroke:none;display:inline"
         sodipodi:type="arc" />
    </mask>
    <mask
       maskUnits="userSpaceOnUse"
       id="mask3818-2">
      <path
         inkscape:export-ydpi="90"
         inkscape:export-xdpi="90"
         transform="matrix(1.2020779,0,0,1.2020779,-93.20363,-75.172466)"
         d="m 483,275.5 a 192.5,192.5 0 1 1 -385,0 192.5,192.5 0 1 1 385,0 z"
         sodipodi:ry="192.5"
         sodipodi:rx="192.5"
         sodipodi:cy="275.5"
         sodipodi:cx="290.5"
         id="path3820-2-2"
         style="fill:#ffffff;fill-opacity:1;stroke:none;display:inline"
         sodipodi:type="arc" />
    </mask>
    <clipPath
       id="clipPath3934"
       clipPathUnits="userSpaceOnUse">
      <path
         id="path3936"
         d="m 0,0 0,1024 1024,0 L 1024,0 0,0 z m 278.4375,333.84375 119.78125,0 c 9.83697,42.31453 19.85954,84.58596 29.9375,126.84375 9.86978,-42.28798 20.05132,-84.50237 29.6875,-126.84375 l 108.90625,0 c 9.63586,42.34141 19.8178,84.55578 29.6875,126.84375 10.07827,-42.25772 20.10031,-84.52927 29.9375,-126.84375 l 119.1875,0 c -26.26221,110.73099 -52.49625,221.46929 -78.28125,332.3125 l -122.8125,0 c -10.59439,-45.55681 -21.46638,-91.04874 -32.375,-136.53125 -10.66279,45.51136 -21.5615,90.96897 -32,136.53125 l -122.8125,0 c -25.71418,-110.03502 -52.0286,-219.92873 -78.25,-329.84375 l -0.59375,-2.46875 z"
         style="fill:#ff3232;fill-opacity:1;stroke:none"
         inkscape:connector-curvature="0" />
    </clipPath>
    <clipPath
       id="clipPath3929"
       clipPathUnits="userSpaceOnUse">
      <path
         inkscape:connector-curvature="0"
         style="fill:#ff3232;fill-opacity:1;stroke:none"
         d="m 0,0 0,1024 1024,0 L 1024,0 0,0 z m 278.4375,333.84375 119.78125,0 c 9.83697,42.31453 19.85954,84.58596 29.9375,126.84375 9.86978,-42.28798 20.05132,-84.50237 29.6875,-126.84375 l 108.90625,0 c 9.63586,42.34141 19.8178,84.55578 29.6875,126.84375 10.07827,-42.25772 20.10031,-84.52927 29.9375,-126.84375 l 119.1875,0 c -26.26221,110.73099 -52.49625,221.46929 -78.28125,332.3125 l -122.8125,0 c -10.59439,-45.55681 -21.46638,-91.04874 -32.375,-136.53125 -10.66279,45.51136 -21.5615,90.96897 -32,136.53125 l -122.8125,0 c -25.71418,-110.03502 -52.0286,-219.92873 -78.25,-329.84375 l -0.59375,-2.46875 z"
         id="path3931" />
    </clipPath>
    <mask
       maskUnits="userSpaceOnUse"
       id="mask3818">
      <path
         inkscape:export-ydpi="90"
         inkscape:export-xdpi="90"
         transform="matrix(1.2020779,0,0,1.2020779,-93.20363,-75.172466)"
         d="m 483,275.5 a 192.5,192.5 0 1 1 -385,0 192.5,192.5 0 1 1 385,0 z"
         sodipodi:ry="192.5"
         sodipodi:rx="192.5"
         sodipodi:cy="275.5"
         sodipodi:cx="290.5"
         id="path3820"
         style="fill:#ffffff;fill-opacity:1;stroke:none;display:inline"
         sodipodi:type="arc" />
    </mask>
    <linearGradient
       inkscape:collect="always"
       xlink:href="#linearGradient4573"
       id="linearGradient4575"
       x1="408.84314"
       y1="89.26915"
       x2="420.61133"
       y2="138.41306"
       gradientUnits="userSpaceOnUse"
       gradientTransform="matrix(0.99657796,0,0,1,1.2520606,0)" />
    <linearGradient
       inkscape:collect="always"
       xlink:href="#linearGradient8384"
       id="linearGradient6771"
       gradientUnits="userSpaceOnUse"
       gradientTransform="matrix(0.99657796,0,0,1,1.2520606,0)"
       x1="408.84314"
       y1="89.26915"
       x2="420.61133"
       y2="138.41306" />
  </defs>
  <metadata
     id="metadata4713">
    <rdf:RDF>
      <cc:Work
         rdf:about="">
        <dc:format>image/svg+xml</dc:format>
        <dc:type
           rdf:resource="http://purl.org/dc/dcmitype/StillImage" />
        <dc:title></dc:title>
      </cc:Work>
    </rdf:RDF>
  </metadata>
  <g
     id="layer1"
     inkscape:groupmode="layer"
     inkscape:label="Capa 1">
    <path
       style="opacity:1;fill:#e9ebec;fill-opacity:1;fill-rule:evenodd;stroke:#00bbf2;stroke-width:2;stroke-linejoin:round;stroke-miterlimit:4;stroke-dasharray:none;stroke-dashoffset:0;stroke-opacity:1;paint-order:normal"
       d="m 97.583979,29.700195 c -11.07875,0 -19.99804,9.65194 -19.99804,21.64062 V 460.66113 c 0,11.9887 8.91929,21.63867 19.99804,21.63867 H 414.41602 c 11.07874,0 19.99804,-9.64997 19.99804,-21.63867 V 113.7959 c -0.33411,-0.32981 -0.46874,-0.43168 -0.81445,-0.77345 -9.64188,-9.53205 -23.80681,-23.701345 -37.64453,-37.822255 -6.91884,-7.06045 -13.75546,-14.10994 -19.9043,-20.56055 -6.14876,-6.45062 -11.60929,-12.30327 -15.77539,-16.97265 -3.0827,-3.45513 -4.82334,-5.68286 -6.625,-7.9668 z"
       id="path4506"
       inkscape:connector-curvature="0"
       sodipodi:nodetypes="ssssssccccccs" />
    <g
       id="g4584"
       transform="matrix(0.3829248,0,0,0.3829248,74.406719,31.973725)"
       style="fill:#75abd3;fill-opacity:1;stroke:#9dc4df;stroke-opacity:1" />
    <path
       style="opacity:1;fill:url(#linearGradient6771);fill-opacity:1;fill-rule:evenodd;stroke:none;stroke-width:8.77774811;stroke-linecap:square;stroke-linejoin:miter;stroke-miterlimit:4;stroke-dasharray:none;stroke-dashoffset:0;stroke-opacity:1;paint-order:markers fill stroke"
       d="m 433.28939,182.37584 v -69.47028 c 0,-0.0394 -0.0309,-0.0705 -0.0703,-0.0705 h -67.33747 c 4.09851,4.50878 8.40749,9.2132 13.77948,14.86279 7.205,7.57734 15.21697,15.8602 23.32513,24.15489 11.13885,11.3951 20.83136,21.05949 30.30308,30.52302 z"
       id="path4566"
       inkscape:connector-curvature="0" />
    <path
       style="opacity:1;fill:#00bbf2;fill-opacity:1;fill-rule:evenodd;stroke:none;stroke-width:1.05391276;stroke-linejoin:round;stroke-miterlimit:4;stroke-dasharray:none;stroke-dashoffset:0;stroke-opacity:1;paint-order:normal"
       d="m 435.00048,114.60612 c -1.83541,-2.30475 -3.6077,-4.55306 -6.74972,-8.04125 -4.24635,-4.71409 -9.8132,-10.623129 -16.08223,-17.137261 C 405.8996,82.913483 398.92921,75.794273 391.8744,68.663457 377.76477,54.401804 363.32068,40.090503 353.48814,30.462087 c -0.35278,-0.345219 -0.4898,-0.448268 -0.83055,-0.781422 l -0.24394,62.802323 c -0.0467,12.055462 9.04538,21.800782 20.38588,21.850482 z"
       id="rect4485"
       inkscape:connector-curvature="0" />
    <path
       style="opacity:1;fill:#00bbf2;fill-opacity:1;fill-rule:evenodd;stroke:#d0dce1;stroke-width:1.05900002;stroke-linecap:square;stroke-linejoin:miter;stroke-miterlimit:4;stroke-dasharray:none;stroke-dashoffset:0;stroke-opacity:1;paint-order:markers fill stroke"
       d="M 127.81055 380.81641 C 125.92725 380.81641 123.97397 380.88784 121.95117 381.02734 C 119.99813 381.0971 118.08056 381.20034 116.19727 381.33984 C 114.31397 381.47935 112.56913 381.65403 110.96484 381.86328 C 109.36056 382.00278 108.03455 382.14175 106.98828 382.28125 L 106.98828 456.98633 C 110.1271 457.40484 113.30119 457.75224 116.50977 458.03125 C 119.78809 458.38001 123.17063 458.55469 126.6582 458.55469 C 140.32951 458.55469 150.65375 455.48579 157.62891 449.34766 C 164.60406 443.13977 168.0918 433.40905 168.0918 420.15625 C 168.0918 407.11271 164.67354 397.31251 157.83789 390.75586 C 151.00224 384.12946 140.99359 380.81641 127.81055 380.81641 z M 281.37695 380.81641 C 275.72708 380.81641 270.66918 381.79305 266.20508 383.74609 C 261.74098 385.69914 257.97532 388.42063 254.90625 391.9082 C 251.90693 395.39578 249.60429 399.54456 248 404.35742 C 246.39571 409.10053 245.59375 414.26363 245.59375 419.84375 C 245.59375 425.42387 246.36195 430.58502 247.89648 435.32812 C 249.43102 440.07123 251.73171 444.15249 254.80078 447.57031 C 257.9396 450.98814 261.81241 453.67196 266.41602 455.625 C 271.01962 457.50829 276.38921 458.45117 282.52734 458.45117 C 285.38716 458.45117 288.80541 458.20701 292.78125 457.71875 C 296.82684 457.23049 300.9081 456.21813 305.02344 454.68359 L 305.02344 416.59961 C 303.41915 416.3206 301.77951 416.11216 300.10547 415.97266 C 298.43143 415.83315 297.00023 415.76367 295.81445 415.76367 C 294.55893 415.76367 293.19916 415.83315 291.73438 415.97266 C 290.26959 416.11216 288.59618 416.3206 286.71289 416.59961 L 286.71289 441.71094 C 285.66662 441.92019 284.48153 442.02344 283.15625 442.02344 C 277.22737 442.02344 272.76299 440.21107 269.76367 436.58398 C 266.76435 432.88715 265.26367 427.30717 265.26367 419.84375 C 265.26367 412.31058 266.79812 406.66112 269.86719 402.89453 C 272.93626 399.0582 277.29544 397.13867 282.94531 397.13867 C 284.13109 397.13867 285.24865 397.20815 286.29492 397.34766 C 287.3412 397.41741 288.38732 397.55832 289.43359 397.76758 C 290.47987 397.97683 291.55976 398.25476 292.67578 398.60352 C 293.86156 398.95227 295.15184 399.37111 296.54688 399.85938 C 297.5234 397.97608 298.46628 395.67344 299.37305 392.95312 C 300.27982 390.23281 300.8019 387.4438 300.94141 384.58398 C 297.31433 383.04945 293.96751 382.03709 290.89844 381.54883 C 287.89912 381.06057 284.72503 380.81641 281.37695 380.81641 z M 186.5625 381.44531 C 185.37672 381.44531 184.15592 381.51479 182.90039 381.6543 C 181.64486 381.7938 180.25133 382.00224 178.7168 382.28125 L 178.7168 456.98633 C 181.85562 457.61409 184.68035 457.92773 187.19141 457.92773 C 189.70246 457.92773 192.49148 457.61409 195.56055 456.98633 L 195.56055 416.18164 L 219.93945 456.98633 C 220.56722 457.12583 221.57763 457.30051 222.97266 457.50977 C 224.36769 457.78877 225.93785 457.92773 227.68164 457.92773 C 229.21617 457.92773 230.64542 457.82254 231.9707 457.61328 C 233.29598 457.40403 234.30834 457.19558 235.00586 456.98633 L 235.10938 382.28125 C 233.64459 382.00224 232.25106 381.7938 230.92578 381.6543 C 229.6005 381.51479 228.34398 381.44531 227.1582 381.44531 C 225.97243 381.44531 224.64838 381.51479 223.18359 381.6543 C 221.71881 381.7938 220.07917 382.00224 218.26562 382.28125 L 218.26562 423.29492 L 193.99219 382.28125 C 193.01567 382.072 191.82862 381.89927 190.43359 381.75977 C 189.10831 381.55051 187.81803 381.44531 186.5625 381.44531 z M 129.79883 397.24414 C 132.30988 397.24414 134.71578 397.62726 137.01758 398.39453 C 139.31938 399.09205 141.30643 400.31285 142.98047 402.05664 C 144.72426 403.73068 146.11974 406.03333 147.16602 408.96289 C 148.21229 411.89246 148.73633 415.55292 148.73633 419.94727 C 148.73633 424.41137 148.21229 428.07378 147.16602 430.93359 C 146.18949 433.79341 144.82973 436.06034 143.08594 437.73438 C 141.34215 439.40841 139.2499 440.5935 136.80859 441.29102 C 134.43704 441.91878 131.89023 442.23438 129.16992 442.23438 L 127.18164 442.23438 C 126.55388 442.23437 125.99607 442.19866 125.50781 442.12891 L 125.50781 397.34766 L 126.76367 397.34766 C 127.39144 397.2779 128.4038 397.24414 129.79883 397.24414 z "
       id="rect4610-6" />
    <path
       inkscape:connector-curvature="0"
       style="fill:#00bbf2;fill-opacity:1;fill-rule:evenodd;stroke:#cedae0;stroke-opacity:1"
       d="m 233.27274,106.99998 v 45.4545 h 45.45454 v -45.4545 z m 11.36363,11.36365 h 22.72728 v 22.72715 h -22.72728 z m -18.90977,14.29325 -21.95046,5.8816 2.95193,10.9863 21.95046,-5.8815 z m -34.09091,11.3636 -21.95046,5.8816 2.95193,10.9864 21.95046,-5.8816 z m 98.45523,3.1294 v 11.7633 l 69.80205,18.6878 -69.80205,19.9307 v 11.7409 84.4728 11.7631 39.75064 11.7409 h 0.33296 L 381,331.12108 v -0.6432 -0.6215 -10.5426 -135.9197 -0.133 -11.9407 l -90.90908,-24.1699 z m -136.36365,5.3046 a 11.363637,11.363637 0 0 0 -11.36363,11.3637 11.363637,11.363637 0 0 0 11.36363,11.3635 11.363637,11.363637 0 0 0 11.36364,-11.3635 11.363637,11.363637 0 0 0 -11.36364,-11.3637 z M 131,175.18168 v 159.09104 l 136.36365,22.7273 V 197.90908 Z m 238.63638,11.4525 v 128.4403 l -68.18183,-18.2885 v -90.6649 z m -68.18183,121.915 60.48035,16.202 -60.48035,17.26734 z"
       id="path4166" />
  </g>
</svg>
