<?xml version="1.0" encoding="UTF-8" standalone="no"?>
<!-- Created with Inkscape (http://www.inkscape.org/) -->

<svg
   xmlns:osb="http://www.openswatchbook.org/uri/2009/osb"
   xmlns:dc="http://purl.org/dc/elements/1.1/"
   xmlns:cc="http://creativecommons.org/ns#"
   xmlns:rdf="http://www.w3.org/1999/02/22-rdf-syntax-ns#"
   xmlns:svg="http://www.w3.org/2000/svg"
   xmlns="http://www.w3.org/2000/svg"
   xmlns:xlink="http://www.w3.org/1999/xlink"
   xmlns:sodipodi="http://sodipodi.sourceforge.net/DTD/sodipodi-0.dtd"
   xmlns:inkscape="http://www.inkscape.org/namespaces/inkscape"
   width="512px"
   height="512px"
   viewBox="0 0 512 512"
   version="1.1"
   id="SVGRoot"
   inkscape:version="0.92.1 r15371"
   sodipodi:docname="doc.svg">
  <sodipodi:namedview
     id="base"
     pagecolor="#ffffff"
     bordercolor="#666666"
     borderopacity="1.0"
     inkscape:pageopacity="0.0"
     inkscape:pageshadow="2"
     inkscape:zoom="0.7071068"
     inkscape:cx="369.93591"
     inkscape:cy="375.81803"
     inkscape:document-units="px"
     inkscape:current-layer="layer1"
     showgrid="false"
     inkscape:window-width="1280"
     inkscape:window-height="947"
     inkscape:window-x="0"
     inkscape:window-y="0"
     inkscape:window-maximized="1" />
  <defs
     id="defs4710">
    <linearGradient
       inkscape:collect="always"
       id="linearGradient4573">
      <stop
         style="stop-color:#181818;stop-opacity:0.30645162"
         offset="0"
         id="stop4569" />
      <stop
         style="stop-color:#404040;stop-opacity:0"
         offset="1"
         id="stop4571" />
    </linearGradient>
    <marker
       inkscape:stockid="DotM"
       orient="auto"
       refY="0.0"
       refX="0.0"
       id="DotM"
       style="overflow:visible"
       inkscape:isstock="true">
      <path
         id="path4618"
         d="M -2.5,-1.0 C -2.5,1.7600000 -4.7400000,4.0 -7.5,4.0 C -10.260000,4.0 -12.5,1.7600000 -12.5,-1.0 C -12.5,-3.7600000 -10.260000,-6.0 -7.5,-6.0 C -4.7400000,-6.0 -2.5,-3.7600000 -2.5,-1.0 z "
         style="fill-rule:evenodd;stroke:#000000;stroke-width:1.0pt"
         transform="scale(0.4) translate(7.4, 1)" />
    </marker>
    <linearGradient
       osb:paint="solid"
       id="linearGradient5207">
      <stop
         id="stop5209"
         offset="0"
         style="stop-color:#000015;stop-opacity:1;" />
    </linearGradient>
    <clipPath
       id="clipPath3006-9-8"
       clipPathUnits="userSpaceOnUse">
      <path
         inkscape:export-ydpi="90"
         inkscape:export-xdpi="90"
         transform="matrix(1.2020779,0,0,1.2020779,-93.20363,-75.172465)"
         d="m 483,275.5 a 192.5,192.5 0 1 1 -385,0 192.5,192.5 0 1 1 385,0 z"
         sodipodi:ry="192.5"
         sodipodi:rx="192.5"
         sodipodi:cy="275.5"
         sodipodi:cx="290.5"
         id="path3008-1-1"
         style="fill:#ffffff;fill-opacity:1;stroke:none;display:inline"
         sodipodi:type="arc" />
    </clipPath>
    <mask
       id="mask3818-4"
       maskUnits="userSpaceOnUse">
      <path
         sodipodi:type="arc"
         style="fill:#ffffff;fill-opacity:1;stroke:none;display:inline"
         id="path3820-9"
         sodipodi:cx="290.5"
         sodipodi:cy="275.5"
         sodipodi:rx="192.5"
         sodipodi:ry="192.5"
         d="m 483,275.5 a 192.5,192.5 0 1 1 -385,0 192.5,192.5 0 1 1 385,0 z"
         transform="matrix(1.2020779,0,0,1.2020779,-93.20363,-75.172466)"
         inkscape:export-xdpi="90"
         inkscape:export-ydpi="90" />
    </mask>
    <clipPath
       id="clipPath3006"
       clipPathUnits="userSpaceOnUse">
      <path
         inkscape:export-ydpi="90"
         inkscape:export-xdpi="90"
         transform="matrix(1.2020779,0,0,1.2020779,-93.20363,-75.172465)"
         d="m 483,275.5 a 192.5,192.5 0 1 1 -385,0 192.5,192.5 0 1 1 385,0 z"
         sodipodi:ry="192.5"
         sodipodi:rx="192.5"
         sodipodi:cy="275.5"
         sodipodi:cx="290.5"
         id="path3008"
         style="fill:#ffffff;fill-opacity:1;stroke:none;display:inline"
         sodipodi:type="arc" />
    </clipPath>
    <clipPath
       id="clipPath3006-9"
       clipPathUnits="userSpaceOnUse">
      <path
         inkscape:export-ydpi="90"
         inkscape:export-xdpi="90"
         transform="matrix(1.2020779,0,0,1.2020779,-93.20363,-75.172465)"
         d="m 483,275.5 a 192.5,192.5 0 1 1 -385,0 192.5,192.5 0 1 1 385,0 z"
         sodipodi:ry="192.5"
         sodipodi:rx="192.5"
         sodipodi:cy="275.5"
         sodipodi:cx="290.5"
         id="path3008-1"
         style="fill:#ffffff;fill-opacity:1;stroke:none;display:inline"
         sodipodi:type="arc" />
    </clipPath>
    <mask
       maskUnits="userSpaceOnUse"
       id="mask3818-0">
      <path
         inkscape:export-ydpi="90"
         inkscape:export-xdpi="90"
         transform="matrix(1.2020779,0,0,1.2020779,-93.20363,-75.172466)"
         d="m 483,275.5 a 192.5,192.5 0 1 1 -385,0 192.5,192.5 0 1 1 385,0 z"
         sodipodi:ry="192.5"
         sodipodi:rx="192.5"
         sodipodi:cy="275.5"
         sodipodi:cx="290.5"
         id="path3820-8"
         style="fill:#ffffff;fill-opacity:1;stroke:none;display:inline"
         sodipodi:type="arc" />
    </mask>
    <mask
       maskUnits="userSpaceOnUse"
       id="mask3818-2">
      <path
         inkscape:export-ydpi="90"
         inkscape:export-xdpi="90"
         transform="matrix(1.2020779,0,0,1.2020779,-93.20363,-75.172466)"
         d="m 483,275.5 a 192.5,192.5 0 1 1 -385,0 192.5,192.5 0 1 1 385,0 z"
         sodipodi:ry="192.5"
         sodipodi:rx="192.5"
         sodipodi:cy="275.5"
         sodipodi:cx="290.5"
         id="path3820-2-2"
         style="fill:#ffffff;fill-opacity:1;stroke:none;display:inline"
         sodipodi:type="arc" />
    </mask>
    <clipPath
       id="clipPath3934"
       clipPathUnits="userSpaceOnUse">
      <path
         id="path3936"
         d="m 0,0 0,1024 1024,0 L 1024,0 0,0 z m 278.4375,333.84375 119.78125,0 c 9.83697,42.31453 19.85954,84.58596 29.9375,126.84375 9.86978,-42.28798 20.05132,-84.50237 29.6875,-126.84375 l 108.90625,0 c 9.63586,42.34141 19.8178,84.55578 29.6875,126.84375 10.07827,-42.25772 20.10031,-84.52927 29.9375,-126.84375 l 119.1875,0 c -26.26221,110.73099 -52.49625,221.46929 -78.28125,332.3125 l -122.8125,0 c -10.59439,-45.55681 -21.46638,-91.04874 -32.375,-136.53125 -10.66279,45.51136 -21.5615,90.96897 -32,136.53125 l -122.8125,0 c -25.71418,-110.03502 -52.0286,-219.92873 -78.25,-329.84375 l -0.59375,-2.46875 z"
         style="fill:#ff3232;fill-opacity:1;stroke:none"
         inkscape:connector-curvature="0" />
    </clipPath>
    <clipPath
       id="clipPath3929"
       clipPathUnits="userSpaceOnUse">
      <path
         inkscape:connector-curvature="0"
         style="fill:#ff3232;fill-opacity:1;stroke:none"
         d="m 0,0 0,1024 1024,0 L 1024,0 0,0 z m 278.4375,333.84375 119.78125,0 c 9.83697,42.31453 19.85954,84.58596 29.9375,126.84375 9.86978,-42.28798 20.05132,-84.50237 29.6875,-126.84375 l 108.90625,0 c 9.63586,42.34141 19.8178,84.55578 29.6875,126.84375 10.07827,-42.25772 20.10031,-84.52927 29.9375,-126.84375 l 119.1875,0 c -26.26221,110.73099 -52.49625,221.46929 -78.28125,332.3125 l -122.8125,0 c -10.59439,-45.55681 -21.46638,-91.04874 -32.375,-136.53125 -10.66279,45.51136 -21.5615,90.96897 -32,136.53125 l -122.8125,0 c -25.71418,-110.03502 -52.0286,-219.92873 -78.25,-329.84375 l -0.59375,-2.46875 z"
         id="path3931" />
    </clipPath>
    <mask
       maskUnits="userSpaceOnUse"
       id="mask3818">
      <path
         inkscape:export-ydpi="90"
         inkscape:export-xdpi="90"
         transform="matrix(1.2020779,0,0,1.2020779,-93.20363,-75.172466)"
         d="m 483,275.5 a 192.5,192.5 0 1 1 -385,0 192.5,192.5 0 1 1 385,0 z"
         sodipodi:ry="192.5"
         sodipodi:rx="192.5"
         sodipodi:cy="275.5"
         sodipodi:cx="290.5"
         id="path3820"
         style="fill:#ffffff;fill-opacity:1;stroke:none;display:inline"
         sodipodi:type="arc" />
    </mask>
    <linearGradient
       inkscape:collect="always"
       xlink:href="#linearGradient4573"
       id="linearGradient4575"
       x1="408.84314"
       y1="89.26915"
       x2="420.61133"
       y2="138.41306"
       gradientUnits="userSpaceOnUse"
       gradientTransform="matrix(0.99657796,0,0,1,1.2520606,0)" />
  </defs>
  <metadata
     id="metadata4713">
    <rdf:RDF>
      <cc:Work
         rdf:about="">
        <dc:format>image/svg+xml</dc:format>
        <dc:type
           rdf:resource="http://purl.org/dc/dcmitype/StillImage" />
        <dc:title></dc:title>
      </cc:Work>
    </rdf:RDF>
  </metadata>
  <g
     id="layer1"
     inkscape:groupmode="layer"
     inkscape:label="Capa 1">
    <path
       style="opacity:1;fill:#f4f5f6;fill-opacity:1;fill-rule:evenodd;stroke:#295497;stroke-width:2;stroke-linejoin:round;stroke-miterlimit:4;stroke-dasharray:none;stroke-dashoffset:0;stroke-opacity:1;paint-order:normal"
       d="m 97.583979,29.700195 c -11.07875,0 -19.99804,9.65194 -19.99804,21.64062 V 460.66113 c 0,11.9887 8.91929,21.63867 19.99804,21.63867 H 414.41602 c 11.07874,0 19.99804,-9.64997 19.99804,-21.63867 V 113.7959 c -0.33411,-0.32981 -0.46874,-0.43168 -0.81445,-0.77345 -9.64188,-9.53205 -23.80681,-23.701345 -37.64453,-37.822255 -6.91884,-7.06045 -13.75546,-14.10994 -19.9043,-20.56055 -6.14876,-6.45062 -11.60929,-12.30327 -15.77539,-16.97265 -3.0827,-3.45513 -4.82334,-5.68286 -6.625,-7.9668 z"
       id="path4506"
       inkscape:connector-curvature="0"
       sodipodi:nodetypes="ssssssccccccs" />
    <g
       id="g4584"
       transform="matrix(0.3829248,0,0,0.3829248,74.406719,31.973725)"
       style="fill:#75abd3;fill-opacity:1;stroke:#9dc4df;stroke-opacity:1" />
    <path
       style="opacity:1;fill:#295597;fill-opacity:1;fill-rule:evenodd;stroke:#ccd7dc;stroke-width:1.16438401;stroke-linecap:square;stroke-linejoin:miter;stroke-miterlimit:4;stroke-dasharray:none;stroke-dashoffset:0;stroke-opacity:1;paint-order:markers fill stroke"
       d="M 127.81055 380.81641 C 125.92725 380.81641 123.97397 380.88589 121.95117 381.02539 C 119.99813 381.09514 118.08056 381.20034 116.19727 381.33984 C 114.31397 381.47935 112.56913 381.65403 110.96484 381.86328 C 109.36056 382.00278 108.03651 382.14175 106.99023 382.28125 L 106.99023 456.98633 C 110.12905 457.40484 113.30119 457.75224 116.50977 458.03125 C 119.78809 458.38001 123.17258 458.55469 126.66016 458.55469 C 140.33146 458.55469 150.65375 455.48579 157.62891 449.34766 C 164.60406 443.13977 168.0918 433.40905 168.0918 420.15625 C 168.0918 407.11271 164.67354 397.31251 157.83789 390.75586 C 151.00224 384.12946 140.99359 380.81641 127.81055 380.81641 z M 209.68555 380.81641 C 203.96592 380.81641 199.01322 381.82877 194.82812 383.85156 C 190.71278 385.80461 187.29648 388.52414 184.57617 392.01172 C 181.92561 395.4993 179.93661 399.65003 178.61133 404.46289 C 177.3558 409.206 176.72852 414.36714 176.72852 419.94727 C 176.72852 425.52739 177.3558 430.68853 178.61133 435.43164 C 179.93661 440.105 181.92561 444.18625 184.57617 447.67383 C 187.29648 451.09165 190.71278 453.77743 194.82812 455.73047 C 199.01322 457.61376 203.96592 458.55469 209.68555 458.55469 C 215.40517 458.55469 220.32411 457.61376 224.43945 455.73047 C 228.5548 453.77743 231.93733 451.09165 234.58789 447.67383 C 237.3082 444.18625 239.29525 440.105 240.55078 435.43164 C 241.87606 430.68853 242.53906 425.52739 242.53906 419.94727 C 242.53906 414.36714 241.87606 409.206 240.55078 404.46289 C 239.29525 399.65003 237.3082 395.4993 234.58789 392.01172 C 231.93733 388.52414 228.5548 385.80461 224.43945 383.85156 C 220.32411 381.82877 215.40517 380.81641 209.68555 380.81641 z M 286.89453 380.81641 C 281.24465 380.81641 276.18676 381.79305 271.72266 383.74609 C 267.25856 385.69914 263.4929 388.42063 260.42383 391.9082 C 257.42451 395.39578 255.12186 399.54456 253.51758 404.35742 C 251.91329 409.10053 251.11133 414.26363 251.11133 419.84375 C 251.11133 425.42387 251.87953 430.58502 253.41406 435.32812 C 254.9486 440.07123 257.21553 444.15053 260.21484 447.56836 C 263.28391 450.98619 267.04957 453.67196 271.51367 455.625 C 276.04752 457.50829 281.2801 458.45117 287.20898 458.45117 C 288.88302 458.45117 290.48695 458.38169 292.02148 458.24219 C 293.62577 458.17244 295.2297 457.99776 296.83398 457.71875 C 298.43827 457.5095 300.11168 457.16014 301.85547 456.67188 C 303.59926 456.18361 305.48306 455.55633 307.50586 454.78906 C 306.73859 449.48794 305.20415 444.3268 302.90234 439.30469 C 300.04253 440.28121 297.60092 440.97798 295.57812 441.39648 C 293.62508 441.81499 291.53283 442.02344 289.30078 442.02344 C 276.885 442.02344 270.67773 434.63108 270.67773 419.84375 C 270.67773 412.31058 272.21218 406.65916 275.28125 402.89258 C 278.42007 399.05624 282.81497 397.13867 288.46484 397.13867 C 289.65062 397.13867 290.76623 397.20815 291.8125 397.34766 C 292.85877 397.41741 293.9049 397.55832 294.95117 397.76758 C 295.99745 397.97683 297.07733 398.25476 298.19336 398.60352 C 299.37914 398.95227 300.67138 399.37111 302.06641 399.85938 C 303.04293 397.83658 303.98385 395.50017 304.89062 392.84961 C 305.7974 390.1293 306.31948 387.33833 306.45898 384.47852 C 302.76215 383.01373 299.41533 382.03709 296.41602 381.54883 C 293.4167 381.06057 290.24261 380.81641 286.89453 380.81641 z M 209.79102 397.13867 C 218.64946 397.13867 223.07813 404.74143 223.07812 419.94727 C 223.07812 435.0136 218.61375 442.54688 209.68555 442.54688 C 205.08194 442.54688 201.66369 440.69879 199.43164 437.00195 C 197.26934 433.23537 196.18945 427.55019 196.18945 419.94727 C 196.18945 404.74143 200.72331 397.13867 209.79102 397.13867 z M 129.79883 397.24414 C 132.30988 397.24414 134.71578 397.62726 137.01758 398.39453 C 139.31938 399.09205 141.30643 400.31285 142.98047 402.05664 C 144.72426 403.73068 146.11974 406.03137 147.16602 408.96094 C 148.21229 411.8905 148.73633 415.55292 148.73633 419.94727 C 148.73633 424.41137 148.21229 428.07378 147.16602 430.93359 C 146.18949 433.79341 144.82973 436.06034 143.08594 437.73438 C 141.34215 439.40841 139.2499 440.5935 136.80859 441.29102 C 134.43704 441.91878 131.89023 442.23242 129.16992 442.23242 L 127.18164 442.23242 C 126.55388 442.23242 125.99607 442.19866 125.50781 442.12891 L 125.50781 397.34766 L 126.76367 397.34766 C 127.39144 397.2779 128.4038 397.24414 129.79883 397.24414 z "
       id="rect4610" />
    <rect
       y="134.58284"
       x="123.57294"
       height="18.371382"
       width="264.85406"
       id="rect4503"
       style="opacity:1;fill:#ccd7dc;fill-opacity:1;fill-rule:evenodd;stroke:none;stroke-width:3.21499181;stroke-linejoin:round;stroke-miterlimit:4;stroke-dasharray:none;stroke-dashoffset:0;stroke-opacity:1;paint-order:normal" />
    <rect
       y="168.87611"
       x="123.57294"
       height="18.371382"
       width="133.42549"
       id="rect4507"
       style="opacity:1;fill:#ccd7dc;fill-opacity:1;fill-rule:evenodd;stroke:none;stroke-width:2.28189659;stroke-linejoin:round;stroke-miterlimit:4;stroke-dasharray:none;stroke-dashoffset:0;stroke-opacity:1;paint-order:normal" />
    <rect
       y="203.1693"
       x="123.57294"
       height="18.371382"
       width="133.42549"
       id="rect4511"
       style="opacity:1;fill:#ccd7dc;fill-opacity:1;fill-rule:evenodd;stroke:none;stroke-width:2.28189659;stroke-linejoin:round;stroke-miterlimit:4;stroke-dasharray:none;stroke-dashoffset:0;stroke-opacity:1;paint-order:normal" />
    <rect
       y="237.46255"
       x="123.57294"
       height="18.371382"
       width="133.60406"
       id="rect4515"
       style="opacity:1;fill:#ccd7dc;fill-opacity:1;fill-rule:evenodd;stroke:none;stroke-width:2.28342295;stroke-linejoin:round;stroke-miterlimit:4;stroke-dasharray:none;stroke-dashoffset:0;stroke-opacity:1;paint-order:normal" />
    <rect
       y="100.28961"
       x="201.26862"
       height="18.371382"
       width="187.15845"
       id="rect4517"
       style="opacity:1;fill:#ccd7dc;fill-opacity:1;fill-rule:evenodd;stroke:none;stroke-width:2.70259643;stroke-linejoin:round;stroke-miterlimit:4;stroke-dasharray:none;stroke-dashoffset:0;stroke-opacity:1;paint-order:normal" />
    <rect
       style="opacity:1;fill:#ccd7dc;fill-opacity:1;fill-rule:evenodd;stroke:none;stroke-width:3.21499181;stroke-linejoin:round;stroke-miterlimit:4;stroke-dasharray:none;stroke-dashoffset:0;stroke-opacity:1;paint-order:normal"
       id="rect4501"
       width="264.85406"
       height="18.371382"
       x="123.57294"
       y="325.33902" />
    <rect
       style="opacity:1;fill:#ccd7dc;fill-opacity:1;fill-rule:evenodd;stroke:none;stroke-width:2.70259643;stroke-linejoin:round;stroke-miterlimit:4;stroke-dasharray:none;stroke-dashoffset:0;stroke-opacity:1;paint-order:normal"
       id="rect4506"
       width="187.15845"
       height="18.371382"
       x="201.26862"
       y="291.04572" />
    <rect
       style="fill:#ccd7dc;fill-opacity:1;stroke:none;stroke-width:3.50236893;stroke-linecap:round;stroke-linejoin:round;stroke-miterlimit:4;stroke-dasharray:none;stroke-opacity:1"
       id="rect2997"
       width="114.80023"
       height="85.045166"
       x="270.59323"
       y="170.23178"
       transform="matrix(0.99999986,5.2631278e-4,-6.6188717e-4,0.99999978,0,0)" />
    <path
       sodipodi:type="arc"
       style="fill:#90a8b3;fill-opacity:1;stroke:none;stroke-width:0.77722216"
       id="path3767"
       sodipodi:cx="363.24817"
       sodipodi:cy="195.06142"
       sodipodi:rx="11.913802"
       sodipodi:ry="11.913801"
       d="m 375.16197,195.06142 a 11.913802,11.913801 0 0 1 -11.89982,11.91379 11.913802,11.913801 0 0 1 -11.92775,-11.88583 11.913802,11.913801 0 0 1 11.87182,-11.94169 11.913802,11.913801 0 0 1 11.95562,11.85779"
       transform="matrix(0.99999982,6.0156637e-4,-5.7908376e-4,0.99999983,0,0)"
       sodipodi:start="0"
       sodipodi:end="6.2784904"
       sodipodi:open="true" />
    <path
       style="fill:#90a8b3;fill-opacity:1;stroke:none;stroke-width:0.15021271px;stroke-linecap:butt;stroke-linejoin:miter;stroke-opacity:1"
       d="m 270.60622,223.05218 -0.1822,32.36714 114.78574,-0.083 0.009,-26.90475 c 0,0 -9.44972,-4.81701 -30.53883,3.68731 -21.08911,8.50432 -32.86433,0.57152 -48.28688,-16.69985 -15.42256,-17.27136 -35.78685,7.63296 -35.78685,7.63296 z"
       id="path3787"
       inkscape:connector-curvature="0"
       sodipodi:nodetypes="cccczzcc" />
    <path
       style="opacity:1;fill:url(#linearGradient4575);fill-opacity:1;fill-rule:evenodd;stroke:none;stroke-width:8.77774811;stroke-linecap:square;stroke-linejoin:miter;stroke-miterlimit:4;stroke-dasharray:none;stroke-dashoffset:0;stroke-opacity:1;paint-order:markers fill stroke"
       d="m 433.28939,182.37584 v -69.47028 c 0,-0.0394 -0.0309,-0.0705 -0.0703,-0.0705 h -67.33747 c 4.09851,4.50878 8.40749,9.2132 13.77948,14.86279 7.205,7.57734 15.21697,15.8602 23.32513,24.15489 11.13885,11.3951 20.83136,21.05949 30.30308,30.52302 z"
       id="path4566"
       inkscape:connector-curvature="0" />
    <path
       style="opacity:1;fill:#295497;fill-opacity:1;fill-rule:evenodd;stroke:none;stroke-width:1.05391276;stroke-linejoin:round;stroke-miterlimit:4;stroke-dasharray:none;stroke-dashoffset:0;stroke-opacity:1;paint-order:normal"
       d="m 435.00048,114.60612 c -1.83541,-2.30475 -3.6077,-4.55306 -6.74972,-8.04125 -4.24635,-4.71409 -9.8132,-10.623129 -16.08223,-17.137261 C 405.8996,82.913483 398.92921,75.794273 391.8744,68.663457 377.76477,54.401804 363.32068,40.090503 353.48814,30.462087 c -0.35278,-0.345219 -0.4898,-0.448268 -0.83055,-0.781422 l -0.24394,62.802323 c -0.0467,12.055462 9.04538,21.800782 20.38588,21.850482 z"
       id="rect4485"
       inkscape:connector-curvature="0" />
  </g>
</svg>
