<?xml version="1.0" encoding="UTF-8" standalone="no"?>
<!-- Created with Inkscape (http://www.inkscape.org/) -->

<svg
   xmlns:osb="http://www.openswatchbook.org/uri/2009/osb"
   xmlns:dc="http://purl.org/dc/elements/1.1/"
   xmlns:cc="http://creativecommons.org/ns#"
   xmlns:rdf="http://www.w3.org/1999/02/22-rdf-syntax-ns#"
   xmlns:svg="http://www.w3.org/2000/svg"
   xmlns="http://www.w3.org/2000/svg"
   xmlns:xlink="http://www.w3.org/1999/xlink"
   xmlns:sodipodi="http://sodipodi.sourceforge.net/DTD/sodipodi-0.dtd"
   xmlns:inkscape="http://www.inkscape.org/namespaces/inkscape"
   width="512px"
   height="512px"
   viewBox="0 0 512 512"
   version="1.1"
   id="SVGRoot"
   inkscape:version="0.92.1 r15371"
   sodipodi:docname="epub.svg">
  <sodipodi:namedview
     id="base"
     pagecolor="#ffffff"
     bordercolor="#666666"
     borderopacity="1.0"
     inkscape:pageopacity="0.0"
     inkscape:pageshadow="2"
     inkscape:zoom="0.70710678"
     inkscape:cx="187.7674"
     inkscape:cy="110.04587"
     inkscape:document-units="px"
     inkscape:current-layer="layer1"
     showgrid="false"
     inkscape:window-width="1280"
     inkscape:window-height="947"
     inkscape:window-x="0"
     inkscape:window-y="0"
     inkscape:window-maximized="1" />
  <defs
     id="defs4710">
    <linearGradient
       inkscape:collect="always"
       id="linearGradient4573">
      <stop
         style="stop-color:#181818;stop-opacity:0.30645162"
         offset="0"
         id="stop4569" />
      <stop
         style="stop-color:#404040;stop-opacity:0"
         offset="1"
         id="stop4571" />
    </linearGradient>
    <marker
       inkscape:stockid="DotM"
       orient="auto"
       refY="0.0"
       refX="0.0"
       id="DotM"
       style="overflow:visible"
       inkscape:isstock="true">
      <path
         id="path4618"
         d="M -2.5,-1.0 C -2.5,1.7600000 -4.7400000,4.0 -7.5,4.0 C -10.260000,4.0 -12.5,1.7600000 -12.5,-1.0 C -12.5,-3.7600000 -10.260000,-6.0 -7.5,-6.0 C -4.7400000,-6.0 -2.5,-3.7600000 -2.5,-1.0 z "
         style="fill-rule:evenodd;stroke:#000000;stroke-width:1.0pt"
         transform="scale(0.4) translate(7.4, 1)" />
    </marker>
    <linearGradient
       osb:paint="solid"
       id="linearGradient5207">
      <stop
         id="stop5209"
         offset="0"
         style="stop-color:#000015;stop-opacity:1;" />
    </linearGradient>
    <clipPath
       id="clipPath3006-9-8"
       clipPathUnits="userSpaceOnUse">
      <path
         inkscape:export-ydpi="90"
         inkscape:export-xdpi="90"
         transform="matrix(1.2020779,0,0,1.2020779,-93.20363,-75.172465)"
         d="m 483,275.5 a 192.5,192.5 0 1 1 -385,0 192.5,192.5 0 1 1 385,0 z"
         sodipodi:ry="192.5"
         sodipodi:rx="192.5"
         sodipodi:cy="275.5"
         sodipodi:cx="290.5"
         id="path3008-1-1"
         style="fill:#ffffff;fill-opacity:1;stroke:none;display:inline"
         sodipodi:type="arc" />
    </clipPath>
    <mask
       id="mask3818-4"
       maskUnits="userSpaceOnUse">
      <path
         sodipodi:type="arc"
         style="fill:#ffffff;fill-opacity:1;stroke:none;display:inline"
         id="path3820-9"
         sodipodi:cx="290.5"
         sodipodi:cy="275.5"
         sodipodi:rx="192.5"
         sodipodi:ry="192.5"
         d="m 483,275.5 a 192.5,192.5 0 1 1 -385,0 192.5,192.5 0 1 1 385,0 z"
         transform="matrix(1.2020779,0,0,1.2020779,-93.20363,-75.172466)"
         inkscape:export-xdpi="90"
         inkscape:export-ydpi="90" />
    </mask>
    <clipPath
       id="clipPath3006"
       clipPathUnits="userSpaceOnUse">
      <path
         inkscape:export-ydpi="90"
         inkscape:export-xdpi="90"
         transform="matrix(1.2020779,0,0,1.2020779,-93.20363,-75.172465)"
         d="m 483,275.5 a 192.5,192.5 0 1 1 -385,0 192.5,192.5 0 1 1 385,0 z"
         sodipodi:ry="192.5"
         sodipodi:rx="192.5"
         sodipodi:cy="275.5"
         sodipodi:cx="290.5"
         id="path3008"
         style="fill:#ffffff;fill-opacity:1;stroke:none;display:inline"
         sodipodi:type="arc" />
    </clipPath>
    <clipPath
       id="clipPath3006-9"
       clipPathUnits="userSpaceOnUse">
      <path
         inkscape:export-ydpi="90"
         inkscape:export-xdpi="90"
         transform="matrix(1.2020779,0,0,1.2020779,-93.20363,-75.172465)"
         d="m 483,275.5 a 192.5,192.5 0 1 1 -385,0 192.5,192.5 0 1 1 385,0 z"
         sodipodi:ry="192.5"
         sodipodi:rx="192.5"
         sodipodi:cy="275.5"
         sodipodi:cx="290.5"
         id="path3008-1"
         style="fill:#ffffff;fill-opacity:1;stroke:none;display:inline"
         sodipodi:type="arc" />
    </clipPath>
    <mask
       maskUnits="userSpaceOnUse"
       id="mask3818-0">
      <path
         inkscape:export-ydpi="90"
         inkscape:export-xdpi="90"
         transform="matrix(1.2020779,0,0,1.2020779,-93.20363,-75.172466)"
         d="m 483,275.5 a 192.5,192.5 0 1 1 -385,0 192.5,192.5 0 1 1 385,0 z"
         sodipodi:ry="192.5"
         sodipodi:rx="192.5"
         sodipodi:cy="275.5"
         sodipodi:cx="290.5"
         id="path3820-8"
         style="fill:#ffffff;fill-opacity:1;stroke:none;display:inline"
         sodipodi:type="arc" />
    </mask>
    <mask
       maskUnits="userSpaceOnUse"
       id="mask3818-2">
      <path
         inkscape:export-ydpi="90"
         inkscape:export-xdpi="90"
         transform="matrix(1.2020779,0,0,1.2020779,-93.20363,-75.172466)"
         d="m 483,275.5 a 192.5,192.5 0 1 1 -385,0 192.5,192.5 0 1 1 385,0 z"
         sodipodi:ry="192.5"
         sodipodi:rx="192.5"
         sodipodi:cy="275.5"
         sodipodi:cx="290.5"
         id="path3820-2-2"
         style="fill:#ffffff;fill-opacity:1;stroke:none;display:inline"
         sodipodi:type="arc" />
    </mask>
    <clipPath
       id="clipPath3934"
       clipPathUnits="userSpaceOnUse">
      <path
         id="path3936"
         d="m 0,0 0,1024 1024,0 L 1024,0 0,0 z m 278.4375,333.84375 119.78125,0 c 9.83697,42.31453 19.85954,84.58596 29.9375,126.84375 9.86978,-42.28798 20.05132,-84.50237 29.6875,-126.84375 l 108.90625,0 c 9.63586,42.34141 19.8178,84.55578 29.6875,126.84375 10.07827,-42.25772 20.10031,-84.52927 29.9375,-126.84375 l 119.1875,0 c -26.26221,110.73099 -52.49625,221.46929 -78.28125,332.3125 l -122.8125,0 c -10.59439,-45.55681 -21.46638,-91.04874 -32.375,-136.53125 -10.66279,45.51136 -21.5615,90.96897 -32,136.53125 l -122.8125,0 c -25.71418,-110.03502 -52.0286,-219.92873 -78.25,-329.84375 l -0.59375,-2.46875 z"
         style="fill:#ff3232;fill-opacity:1;stroke:none"
         inkscape:connector-curvature="0" />
    </clipPath>
    <clipPath
       id="clipPath3929"
       clipPathUnits="userSpaceOnUse">
      <path
         inkscape:connector-curvature="0"
         style="fill:#ff3232;fill-opacity:1;stroke:none"
         d="m 0,0 0,1024 1024,0 L 1024,0 0,0 z m 278.4375,333.84375 119.78125,0 c 9.83697,42.31453 19.85954,84.58596 29.9375,126.84375 9.86978,-42.28798 20.05132,-84.50237 29.6875,-126.84375 l 108.90625,0 c 9.63586,42.34141 19.8178,84.55578 29.6875,126.84375 10.07827,-42.25772 20.10031,-84.52927 29.9375,-126.84375 l 119.1875,0 c -26.26221,110.73099 -52.49625,221.46929 -78.28125,332.3125 l -122.8125,0 c -10.59439,-45.55681 -21.46638,-91.04874 -32.375,-136.53125 -10.66279,45.51136 -21.5615,90.96897 -32,136.53125 l -122.8125,0 c -25.71418,-110.03502 -52.0286,-219.92873 -78.25,-329.84375 l -0.59375,-2.46875 z"
         id="path3931" />
    </clipPath>
    <mask
       maskUnits="userSpaceOnUse"
       id="mask3818">
      <path
         inkscape:export-ydpi="90"
         inkscape:export-xdpi="90"
         transform="matrix(1.2020779,0,0,1.2020779,-93.20363,-75.172466)"
         d="m 483,275.5 a 192.5,192.5 0 1 1 -385,0 192.5,192.5 0 1 1 385,0 z"
         sodipodi:ry="192.5"
         sodipodi:rx="192.5"
         sodipodi:cy="275.5"
         sodipodi:cx="290.5"
         id="path3820"
         style="fill:#ffffff;fill-opacity:1;stroke:none;display:inline"
         sodipodi:type="arc" />
    </mask>
    <linearGradient
       inkscape:collect="always"
       xlink:href="#linearGradient4573"
       id="linearGradient4575"
       x1="408.84314"
       y1="89.26915"
       x2="420.61133"
       y2="138.41306"
       gradientUnits="userSpaceOnUse"
       gradientTransform="matrix(0.99657796,0,0,1,1.2520606,0)" />
    <clipPath
       id="clip1">
      <path
         id="path4553"
         d="M 0 340.15625 L 481.890625 340.15625 L 481.890625 0 L 0 0 L 0 340.15625 Z M 0 340.15625 " />
    </clipPath>
    <radialGradient
       cx="2.5969999"
       cy="1044.5"
       r="8"
       id="0"
       gradientUnits="userSpaceOnUse"
       gradientTransform="matrix(18.019924,-6.4946038,4.7611087,13.21037,-4859.3975,-13543.977)">
      <stop
         stop-color="#1b6e03"
         id="stop7" />
      <stop
         offset="1"
         stop-color="#379f18"
         id="stop9" />
    </radialGradient>
    <linearGradient
       gradientTransform="matrix(14.042083,0,0,14.042083,143.67034,113.63391)"
       x1="2.21"
       y1="8.4429998"
       x2="22.495001"
       y2="2.6530001"
       id="1"
       gradientUnits="userSpaceOnUse">
      <stop
         stop-color="#9ad51a"
         id="stop2" />
      <stop
         offset="1"
         stop-color="#d4f292"
         id="stop4" />
    </linearGradient>
  </defs>
  <metadata
     id="metadata4713">
    <rdf:RDF>
      <cc:Work
         rdf:about="">
        <dc:format>image/svg+xml</dc:format>
        <dc:type
           rdf:resource="http://purl.org/dc/dcmitype/StillImage" />
        <dc:title />
      </cc:Work>
    </rdf:RDF>
  </metadata>
  <g
     id="layer1"
     inkscape:groupmode="layer"
     inkscape:label="Capa 1">
    <path
       style="opacity:1;fill:#f7fced;fill-opacity:1;fill-rule:evenodd;stroke:#369d17;stroke-width:2;stroke-linejoin:round;stroke-miterlimit:4;stroke-dasharray:none;stroke-dashoffset:0;stroke-opacity:1;paint-order:normal"
       d="m 97.583979,29.700195 c -11.07875,0 -19.99804,9.65194 -19.99804,21.64062 V 460.66113 c 0,11.9887 8.91929,21.63867 19.99804,21.63867 H 414.41602 c 11.07874,0 19.99804,-9.64997 19.99804,-21.63867 V 113.7959 c -0.33411,-0.32981 -0.46874,-0.43168 -0.81445,-0.77345 -9.64188,-9.53205 -23.80681,-23.701345 -37.64453,-37.822255 -6.91884,-7.06045 -13.75546,-14.10994 -19.9043,-20.56055 -6.14876,-6.45062 -11.60929,-12.30327 -15.77539,-16.97265 -3.0827,-3.45513 -4.82334,-5.68286 -6.625,-7.9668 z"
       id="path4506"
       inkscape:connector-curvature="0"
       sodipodi:nodetypes="ssssssccccccs" />
    <g
       id="g4584"
       transform="matrix(0.3829248,0,0,0.3829248,74.406719,31.973725)"
       style="fill:#75abd3;fill-opacity:1;stroke:#9dc4df;stroke-opacity:1" />
    <path
       style="opacity:1;fill:url(#linearGradient4575);fill-opacity:1;fill-rule:evenodd;stroke:none;stroke-width:8.77774811;stroke-linecap:square;stroke-linejoin:miter;stroke-miterlimit:4;stroke-dasharray:none;stroke-dashoffset:0;stroke-opacity:1;paint-order:markers fill stroke"
       d="m 433.28939,182.37584 v -69.47028 c 0,-0.0394 -0.0309,-0.0705 -0.0703,-0.0705 h -67.33747 c 4.09851,4.50878 8.40749,9.2132 13.77948,14.86279 7.205,7.57734 15.21697,15.8602 23.32513,24.15489 11.13885,11.3951 20.83136,21.05949 30.30308,30.52302 z"
       id="path4566"
       inkscape:connector-curvature="0" />
    <path
       style="opacity:1;fill:#369d17;fill-opacity:1;fill-rule:evenodd;stroke:none;stroke-width:1.05391276;stroke-linejoin:round;stroke-miterlimit:4;stroke-dasharray:none;stroke-dashoffset:0;stroke-opacity:1;paint-order:normal"
       d="m 435.00048,114.60612 c -1.83541,-2.30475 -3.6077,-4.55306 -6.74972,-8.04125 -4.24635,-4.71409 -9.8132,-10.623129 -16.08223,-17.137261 C 405.8996,82.913483 398.92921,75.794273 391.8744,68.663457 377.76477,54.401804 363.32068,40.090503 353.48814,30.462087 c -0.35278,-0.345219 -0.4898,-0.448268 -0.83055,-0.781422 l -0.24394,62.802323 c -0.0467,12.055462 9.04538,21.800782 20.38588,21.850482 z"
       id="rect4485"
       inkscape:connector-curvature="0" />
    <path
       style="opacity:1;fill:#369d17;fill-opacity:1;fill-rule:evenodd;stroke:#d4f292;stroke-width:0.85055965;stroke-linecap:square;stroke-linejoin:miter;stroke-miterlimit:4;stroke-dasharray:none;stroke-dashoffset:0;stroke-opacity:1;paint-order:markers fill stroke"
       d="M 171.97461 401.95117 C 167.51051 401.95117 163.60393 402.71937 160.25586 404.25391 C 156.90778 405.71869 154.11877 407.74146 151.88672 410.32227 C 149.65467 412.90307 147.97931 415.9382 146.86328 419.42578 C 145.74726 422.91336 145.18945 426.6433 145.18945 430.61914 C 145.18945 434.66473 145.71349 438.39663 146.75977 441.81445 C 147.87579 445.23228 149.5492 448.19793 151.78125 450.70898 C 154.08305 453.15029 157.01298 455.06786 160.57031 456.46289 C 164.19739 457.85792 168.52086 458.55469 173.54297 458.55469 C 180.02986 458.55469 186.37805 457.40532 192.58594 455.10352 C 192.51619 452.3832 192.09735 449.76692 191.33008 447.25586 C 190.63256 444.7448 189.79683 442.58307 188.82031 440.76953 C 186.37901 441.74605 183.90168 442.47854 181.39062 442.9668 C 178.87957 443.45506 176.61264 443.69922 174.58984 443.69922 C 171.45102 443.69922 168.90617 443.1057 166.95312 441.91992 C 165.06983 440.73415 163.74383 438.71138 162.97656 435.85156 L 194.7832 435.85156 C 194.92271 434.87504 195.06167 433.65424 195.20117 432.18945 C 195.41043 430.65492 195.51562 428.94579 195.51562 427.0625 C 195.51562 423.43542 194.95782 420.08665 193.8418 417.01758 C 192.79552 413.87876 191.26108 411.2287 189.23828 409.06641 C 187.21549 406.83436 184.73816 405.09147 181.80859 403.83594 C 178.94878 402.58041 175.67144 401.95117 171.97461 401.95117 z M 223.67188 401.95117 C 220.53305 401.95117 217.25376 402.09209 213.83594 402.37109 C 210.48786 402.58035 207.21052 402.92775 204.00195 403.41602 L 204.00195 457.19531 C 205.81549 457.54407 207.38566 457.75251 208.71094 457.82227 C 210.10597 457.96177 211.39625 458.0332 212.58203 458.0332 C 213.69806 458.0332 214.95263 457.96177 216.34766 457.82227 C 217.81244 457.75251 219.45208 457.54407 221.26562 457.19531 L 221.26562 444.32617 C 221.47488 444.39592 221.99697 444.4654 222.83398 444.53516 C 223.671 444.60491 224.68336 444.64063 225.86914 444.64062 C 228.79871 444.64063 231.65916 444.29127 234.44922 443.59375 C 237.30903 442.82648 239.85389 441.60568 242.08594 439.93164 C 244.31799 438.2576 246.0966 436.06015 247.42188 433.33984 C 248.81691 430.61953 249.51562 427.27271 249.51562 423.29688 C 249.51562 418.90253 248.74742 415.34531 247.21289 412.625 C 245.74811 409.83494 243.79482 407.67125 241.35352 406.13672 C 238.91221 404.53243 236.15696 403.45254 233.08789 402.89453 C 230.01882 402.26677 226.88045 401.95117 223.67188 401.95117 z M 337.51367 401.95117 C 336.18839 401.95117 334.62018 401.98689 332.80664 402.05664 C 331.06285 402.12639 329.24853 402.23159 327.36523 402.37109 C 325.48194 402.5106 323.63385 402.68528 321.82031 402.89453 C 320.00677 403.03403 318.40284 403.20676 317.00781 403.41602 L 317.00781 457.19531 C 321.12315 457.75332 325.13298 458.10268 329.03906 458.24219 C 333.0149 458.45144 336.22471 458.55469 338.66602 458.55469 C 347.94297 458.55469 354.95221 457.33388 359.69531 454.89258 C 364.43842 452.38152 366.81055 447.9191 366.81055 441.50195 C 366.81055 437.94462 365.86767 435.18937 363.98438 433.23633 C 362.10108 431.28328 359.69519 429.7826 356.76562 428.73633 C 358.85817 427.41105 360.49782 425.84284 361.68359 424.0293 C 362.93912 422.146 363.56641 419.87907 363.56641 417.22852 C 363.56641 411.99715 361.40467 408.16005 357.08008 405.71875 C 352.75548 403.20769 346.23262 401.95117 337.51367 401.95117 z M 266.32031 402.26562 C 264.92528 402.26562 263.46032 402.33511 261.92578 402.47461 C 260.461 402.61411 258.96227 402.85827 257.42773 403.20703 L 257.42773 433.75781 C 257.42773 439.19843 258.16022 443.55957 259.625 446.83789 C 261.08978 450.04646 263.04307 452.52184 265.48438 454.26562 C 267.99543 455.93966 270.88965 457.05527 274.16797 457.61328 C 277.44629 458.17129 280.86455 458.45117 284.42188 458.45117 C 286.30517 458.45117 288.22274 458.34597 290.17578 458.13672 C 292.12882 457.92746 294.01263 457.64954 295.82617 457.30078 C 297.70946 456.88227 299.45235 456.46343 301.05664 456.04492 C 302.73068 455.62641 304.15993 455.20757 305.3457 454.78906 L 305.3457 403.20703 C 303.88092 402.85827 302.38219 402.61411 300.84766 402.47461 C 299.31312 402.33511 297.88387 402.26562 296.55859 402.26562 C 295.16356 402.26562 293.6986 402.33511 292.16406 402.47461 C 290.69928 402.61411 289.1986 402.85827 287.66406 403.20703 L 287.66406 442.86133 C 287.38506 442.93108 286.93245 443.00056 286.30469 443.07031 C 285.67692 443.14006 284.76976 443.17578 283.58398 443.17578 C 280.72417 443.17578 278.5962 442.40758 277.20117 440.87305 C 275.80614 439.33851 275.10937 436.48002 275.10938 432.29492 L 275.10938 403.20703 C 273.64459 402.85827 272.14391 402.61411 270.60938 402.47461 C 269.07484 402.33511 267.64559 402.26562 266.32031 402.26562 z M 339.71094 413.77539 C 342.22199 413.77539 343.93112 414.29748 344.83789 415.34375 C 345.81441 416.32027 346.30273 417.40211 346.30273 418.58789 C 346.30273 419.84342 345.85013 421.06422 344.94336 422.25 C 344.03659 423.36602 342.25798 423.92383 339.60742 423.92383 L 334.48047 423.92383 L 334.48047 413.98438 C 335.17798 413.91462 336.01567 413.87891 336.99219 413.87891 C 338.03846 413.80915 338.94367 413.77539 339.71094 413.77539 z M 171.3457 415.24023 C 173.92651 415.24023 175.8798 416.07596 177.20508 417.75 C 178.60011 419.35429 179.36831 421.37705 179.50781 423.81836 L 162.76758 423.81836 C 163.04658 420.88879 163.98751 418.72706 165.5918 417.33203 C 167.19608 415.937 169.11365 415.24023 171.3457 415.24023 z M 222.83398 415.44922 L 224.08984 415.44922 C 226.39165 415.44922 228.31117 416.14598 229.8457 417.54102 C 231.44999 418.8663 232.25195 420.78582 232.25195 423.29688 C 232.25195 426.22644 231.44999 428.31869 229.8457 429.57422 C 228.31117 430.76 226.32216 431.35156 223.88086 431.35156 L 222.52148 431.35156 C 222.03322 431.28181 221.61438 431.21233 221.26562 431.14258 L 221.26562 415.55273 C 221.82364 415.48298 222.34572 415.44922 222.83398 415.44922 z M 334.48047 434.91016 L 339.29297 434.91016 C 341.10651 434.91016 342.57148 435.08484 343.6875 435.43359 C 344.80352 435.7126 345.67497 436.09572 346.30273 436.58398 C 346.9305 437.07225 347.34934 437.66577 347.55859 438.36328 C 347.8376 438.99105 347.97656 439.65209 347.97656 440.34961 C 347.97656 442.0934 347.34928 443.45512 346.09375 444.43164 C 344.83822 445.40816 342.74597 445.89648 339.81641 445.89648 C 338.28187 445.89648 337.06107 445.86077 336.1543 445.79102 C 335.24753 445.72126 334.68972 445.68555 334.48047 445.68555 L 334.48047 434.91016 z "
       id="rect4610-3" />
    <path
       inkscape:connector-curvature="0"
       style="fill:#9ad51a;fill-opacity:1;stroke:none;stroke-width:17.62451744"
       d="m 256.0088,300.16662 -83.08198,-83.08198 83.08198,-83.06436 27.68813,27.68813 -55.39387,55.37623 27.68812,27.68812 83.082,-83.06435 -72.36629,-72.366282 c -5.90422,-5.921838 -15.49195,-5.921838 -21.41379,0 L 128.24867,206.38656 c -5.90421,5.90421 -5.90421,15.49195 0,21.41379 L 245.2931,344.84478 c 5.92184,5.92183 15.49195,5.92183 21.41379,0 L 383.75133,227.80035 c 5.90421,-5.92184 5.90421,-15.50958 0,-21.41379 L 366.7613,189.39653 255.99118,300.16662 Z"
       id="path14" />
  </g>
</svg>
