<?xml version="1.0" encoding="UTF-8" standalone="no"?>
<!-- Created with Inkscape (http://www.inkscape.org/) -->

<svg
   xmlns:osb="http://www.openswatchbook.org/uri/2009/osb"
   xmlns:dc="http://purl.org/dc/elements/1.1/"
   xmlns:cc="http://creativecommons.org/ns#"
   xmlns:rdf="http://www.w3.org/1999/02/22-rdf-syntax-ns#"
   xmlns:svg="http://www.w3.org/2000/svg"
   xmlns="http://www.w3.org/2000/svg"
   xmlns:xlink="http://www.w3.org/1999/xlink"
   xmlns:sodipodi="http://sodipodi.sourceforge.net/DTD/sodipodi-0.dtd"
   xmlns:inkscape="http://www.inkscape.org/namespaces/inkscape"
   width="512px"
   height="512px"
   viewBox="0 0 512 512"
   version="1.1"
   id="SVGRoot"
   inkscape:version="0.92.1 r15371"
   sodipodi:docname="javaapplet.svg">
  <sodipodi:namedview
     id="base"
     pagecolor="#ffffff"
     bordercolor="#666666"
     borderopacity="1.0"
     inkscape:pageopacity="0.0"
     inkscape:pageshadow="2"
     inkscape:zoom="1.4142136"
     inkscape:cx="275.85031"
     inkscape:cy="269.95263"
     inkscape:document-units="px"
     inkscape:current-layer="layer1"
     showgrid="false"
     inkscape:window-width="1280"
     inkscape:window-height="947"
     inkscape:window-x="0"
     inkscape:window-y="0"
     inkscape:window-maximized="1" />
  <defs
     id="defs4710">
    <linearGradient
       inkscape:collect="always"
       id="linearGradient4573">
      <stop
         style="stop-color:#181818;stop-opacity:0.30645162"
         offset="0"
         id="stop4569" />
      <stop
         style="stop-color:#404040;stop-opacity:0"
         offset="1"
         id="stop4571" />
    </linearGradient>
    <marker
       inkscape:stockid="DotM"
       orient="auto"
       refY="0.0"
       refX="0.0"
       id="DotM"
       style="overflow:visible"
       inkscape:isstock="true">
      <path
         id="path4618"
         d="M -2.5,-1.0 C -2.5,1.7600000 -4.7400000,4.0 -7.5,4.0 C -10.260000,4.0 -12.5,1.7600000 -12.5,-1.0 C -12.5,-3.7600000 -10.260000,-6.0 -7.5,-6.0 C -4.7400000,-6.0 -2.5,-3.7600000 -2.5,-1.0 z "
         style="fill-rule:evenodd;stroke:#000000;stroke-width:1.0pt"
         transform="scale(0.4) translate(7.4, 1)" />
    </marker>
    <linearGradient
       osb:paint="solid"
       id="linearGradient5207">
      <stop
         id="stop5209"
         offset="0"
         style="stop-color:#000015;stop-opacity:1;" />
    </linearGradient>
    <clipPath
       id="clipPath3006-9-8"
       clipPathUnits="userSpaceOnUse">
      <path
         inkscape:export-ydpi="90"
         inkscape:export-xdpi="90"
         transform="matrix(1.2020779,0,0,1.2020779,-93.20363,-75.172465)"
         d="m 483,275.5 a 192.5,192.5 0 1 1 -385,0 192.5,192.5 0 1 1 385,0 z"
         sodipodi:ry="192.5"
         sodipodi:rx="192.5"
         sodipodi:cy="275.5"
         sodipodi:cx="290.5"
         id="path3008-1-1"
         style="fill:#ffffff;fill-opacity:1;stroke:none;display:inline"
         sodipodi:type="arc" />
    </clipPath>
    <mask
       id="mask3818-4"
       maskUnits="userSpaceOnUse">
      <path
         sodipodi:type="arc"
         style="fill:#ffffff;fill-opacity:1;stroke:none;display:inline"
         id="path3820-9"
         sodipodi:cx="290.5"
         sodipodi:cy="275.5"
         sodipodi:rx="192.5"
         sodipodi:ry="192.5"
         d="m 483,275.5 a 192.5,192.5 0 1 1 -385,0 192.5,192.5 0 1 1 385,0 z"
         transform="matrix(1.2020779,0,0,1.2020779,-93.20363,-75.172466)"
         inkscape:export-xdpi="90"
         inkscape:export-ydpi="90" />
    </mask>
    <clipPath
       id="clipPath3006"
       clipPathUnits="userSpaceOnUse">
      <path
         inkscape:export-ydpi="90"
         inkscape:export-xdpi="90"
         transform="matrix(1.2020779,0,0,1.2020779,-93.20363,-75.172465)"
         d="m 483,275.5 a 192.5,192.5 0 1 1 -385,0 192.5,192.5 0 1 1 385,0 z"
         sodipodi:ry="192.5"
         sodipodi:rx="192.5"
         sodipodi:cy="275.5"
         sodipodi:cx="290.5"
         id="path3008"
         style="fill:#ffffff;fill-opacity:1;stroke:none;display:inline"
         sodipodi:type="arc" />
    </clipPath>
    <clipPath
       id="clipPath3006-9"
       clipPathUnits="userSpaceOnUse">
      <path
         inkscape:export-ydpi="90"
         inkscape:export-xdpi="90"
         transform="matrix(1.2020779,0,0,1.2020779,-93.20363,-75.172465)"
         d="m 483,275.5 a 192.5,192.5 0 1 1 -385,0 192.5,192.5 0 1 1 385,0 z"
         sodipodi:ry="192.5"
         sodipodi:rx="192.5"
         sodipodi:cy="275.5"
         sodipodi:cx="290.5"
         id="path3008-1"
         style="fill:#ffffff;fill-opacity:1;stroke:none;display:inline"
         sodipodi:type="arc" />
    </clipPath>
    <mask
       maskUnits="userSpaceOnUse"
       id="mask3818-0">
      <path
         inkscape:export-ydpi="90"
         inkscape:export-xdpi="90"
         transform="matrix(1.2020779,0,0,1.2020779,-93.20363,-75.172466)"
         d="m 483,275.5 a 192.5,192.5 0 1 1 -385,0 192.5,192.5 0 1 1 385,0 z"
         sodipodi:ry="192.5"
         sodipodi:rx="192.5"
         sodipodi:cy="275.5"
         sodipodi:cx="290.5"
         id="path3820-8"
         style="fill:#ffffff;fill-opacity:1;stroke:none;display:inline"
         sodipodi:type="arc" />
    </mask>
    <mask
       maskUnits="userSpaceOnUse"
       id="mask3818-2">
      <path
         inkscape:export-ydpi="90"
         inkscape:export-xdpi="90"
         transform="matrix(1.2020779,0,0,1.2020779,-93.20363,-75.172466)"
         d="m 483,275.5 a 192.5,192.5 0 1 1 -385,0 192.5,192.5 0 1 1 385,0 z"
         sodipodi:ry="192.5"
         sodipodi:rx="192.5"
         sodipodi:cy="275.5"
         sodipodi:cx="290.5"
         id="path3820-2-2"
         style="fill:#ffffff;fill-opacity:1;stroke:none;display:inline"
         sodipodi:type="arc" />
    </mask>
    <clipPath
       id="clipPath3934"
       clipPathUnits="userSpaceOnUse">
      <path
         id="path3936"
         d="m 0,0 0,1024 1024,0 L 1024,0 0,0 z m 278.4375,333.84375 119.78125,0 c 9.83697,42.31453 19.85954,84.58596 29.9375,126.84375 9.86978,-42.28798 20.05132,-84.50237 29.6875,-126.84375 l 108.90625,0 c 9.63586,42.34141 19.8178,84.55578 29.6875,126.84375 10.07827,-42.25772 20.10031,-84.52927 29.9375,-126.84375 l 119.1875,0 c -26.26221,110.73099 -52.49625,221.46929 -78.28125,332.3125 l -122.8125,0 c -10.59439,-45.55681 -21.46638,-91.04874 -32.375,-136.53125 -10.66279,45.51136 -21.5615,90.96897 -32,136.53125 l -122.8125,0 c -25.71418,-110.03502 -52.0286,-219.92873 -78.25,-329.84375 l -0.59375,-2.46875 z"
         style="fill:#ff3232;fill-opacity:1;stroke:none"
         inkscape:connector-curvature="0" />
    </clipPath>
    <clipPath
       id="clipPath3929"
       clipPathUnits="userSpaceOnUse">
      <path
         inkscape:connector-curvature="0"
         style="fill:#ff3232;fill-opacity:1;stroke:none"
         d="m 0,0 0,1024 1024,0 L 1024,0 0,0 z m 278.4375,333.84375 119.78125,0 c 9.83697,42.31453 19.85954,84.58596 29.9375,126.84375 9.86978,-42.28798 20.05132,-84.50237 29.6875,-126.84375 l 108.90625,0 c 9.63586,42.34141 19.8178,84.55578 29.6875,126.84375 10.07827,-42.25772 20.10031,-84.52927 29.9375,-126.84375 l 119.1875,0 c -26.26221,110.73099 -52.49625,221.46929 -78.28125,332.3125 l -122.8125,0 c -10.59439,-45.55681 -21.46638,-91.04874 -32.375,-136.53125 -10.66279,45.51136 -21.5615,90.96897 -32,136.53125 l -122.8125,0 c -25.71418,-110.03502 -52.0286,-219.92873 -78.25,-329.84375 l -0.59375,-2.46875 z"
         id="path3931" />
    </clipPath>
    <mask
       maskUnits="userSpaceOnUse"
       id="mask3818">
      <path
         inkscape:export-ydpi="90"
         inkscape:export-xdpi="90"
         transform="matrix(1.2020779,0,0,1.2020779,-93.20363,-75.172466)"
         d="m 483,275.5 a 192.5,192.5 0 1 1 -385,0 192.5,192.5 0 1 1 385,0 z"
         sodipodi:ry="192.5"
         sodipodi:rx="192.5"
         sodipodi:cy="275.5"
         sodipodi:cx="290.5"
         id="path3820"
         style="fill:#ffffff;fill-opacity:1;stroke:none;display:inline"
         sodipodi:type="arc" />
    </mask>
    <linearGradient
       inkscape:collect="always"
       xlink:href="#linearGradient4573"
       id="linearGradient4575"
       x1="408.84314"
       y1="89.26915"
       x2="420.61133"
       y2="138.41306"
       gradientUnits="userSpaceOnUse"
       gradientTransform="matrix(0.99657796,0,0,1,1.2520606,0)" />
    <linearGradient
       inkscape:collect="always"
       xlink:href="#linearGradient4573"
       id="linearGradient6771"
       gradientUnits="userSpaceOnUse"
       gradientTransform="matrix(0.99657796,0,0,1,1.2520606,0)"
       x1="408.84314"
       y1="89.26915"
       x2="420.61133"
       y2="138.41306" />
  </defs>
  <metadata
     id="metadata4713">
    <rdf:RDF>
      <cc:Work
         rdf:about="">
        <dc:format>image/svg+xml</dc:format>
        <dc:type
           rdf:resource="http://purl.org/dc/dcmitype/StillImage" />
        <dc:title></dc:title>
      </cc:Work>
    </rdf:RDF>
  </metadata>
  <g
     id="layer1"
     inkscape:groupmode="layer"
     inkscape:label="Capa 1">
    <path
       style="opacity:1;fill:#c75e00;fill-opacity:1;fill-rule:evenodd;stroke:#f17100;stroke-width:2;stroke-linejoin:round;stroke-miterlimit:4;stroke-dasharray:none;stroke-dashoffset:0;stroke-opacity:1;paint-order:normal"
       d="m 97.583979,29.700195 c -11.07875,0 -19.99804,9.65194 -19.99804,21.64062 V 460.66113 c 0,11.9887 8.91929,21.63867 19.99804,21.63867 H 414.41602 c 11.07874,0 19.99804,-9.64997 19.99804,-21.63867 V 113.7959 c -0.33411,-0.32981 -0.46874,-0.43168 -0.81445,-0.77345 -9.64188,-9.53205 -23.80681,-23.701345 -37.64453,-37.822255 -6.91884,-7.06045 -13.75546,-14.10994 -19.9043,-20.56055 -6.14876,-6.45062 -11.60929,-12.30327 -15.77539,-16.97265 -3.0827,-3.45513 -4.82334,-5.68286 -6.625,-7.9668 z"
       id="path4506"
       inkscape:connector-curvature="0"
       sodipodi:nodetypes="ssssssccccccs" />
    <g
       id="g4584"
       transform="matrix(0.3829248,0,0,0.3829248,74.406719,31.973725)"
       style="fill:#75abd3;fill-opacity:1;stroke:#9dc4df;stroke-opacity:1" />
    <path
       style="opacity:1;fill:#ffffff;fill-opacity:1;fill-rule:evenodd;stroke:#b45500;stroke-width:1.35059643;stroke-linecap:square;stroke-linejoin:miter;stroke-miterlimit:4;stroke-dasharray:none;stroke-dashoffset:0;stroke-opacity:1;paint-order:markers fill stroke"
       d="M 125.54688 381.44531 C 123.94259 381.44531 122.33866 381.51479 120.73438 381.6543 C 119.19984 381.7938 117.52448 381.96848 115.71094 382.17773 L 92.275391 456.88086 C 94.298186 457.22962 96.112511 457.47378 97.716797 457.61328 C 99.390834 457.82254 100.85385 457.92773 102.10938 457.92773 C 103.3649 457.92773 104.65714 457.85825 105.98242 457.71875 C 107.3077 457.57925 108.77071 457.36885 110.375 457.08984 L 114.24805 442.75586 C 116.06159 443.24412 117.80448 443.6292 119.47852 443.9082 C 121.15255 444.11746 122.7922 444.2207 124.39648 444.2207 C 126.14027 444.2207 127.88316 444.08174 129.62695 443.80273 C 131.44049 443.52373 133.3243 443.10489 135.27734 442.54688 L 139.25391 457.08984 C 140.85819 457.36885 142.35692 457.57925 143.75195 457.71875 C 145.14698 457.85825 146.54247 457.92773 147.9375 457.92773 C 150.93682 457.92773 154.42455 457.61409 158.40039 456.98633 L 135.27734 382.17773 C 133.25455 381.96848 131.44022 381.7938 129.83594 381.6543 C 128.3014 381.51479 126.87215 381.44531 125.54688 381.44531 z M 125.02344 401.84766 L 131.7207 428.8418 C 130.46518 429.19055 129.24437 429.46848 128.05859 429.67773 C 126.94257 429.81724 125.79125 429.88672 124.60547 429.88672 C 123.48944 429.88672 122.4076 429.78347 121.36133 429.57422 C 120.31505 429.36496 119.19945 429.08509 118.01367 428.73633 L 125.02344 401.84766 z M 184.51172 401.95117 C 181.3729 401.95117 178.09556 402.09209 174.67773 402.37109 C 171.32966 402.58035 168.05037 402.92775 164.8418 403.41602 L 164.8418 457.19531 C 166.65534 457.54407 168.2255 457.75251 169.55078 457.82227 C 170.94581 457.96177 172.2361 458.03125 173.42188 458.03125 C 174.5379 458.03125 175.79442 457.96177 177.18945 457.82227 C 178.65424 457.75251 180.29193 457.54407 182.10547 457.19531 L 182.10547 444.32617 C 182.31472 444.39592 182.83876 444.4654 183.67578 444.53516 C 184.5128 444.60491 185.52321 444.64063 186.70898 444.64062 C 189.63855 444.64063 192.499 444.29127 195.28906 443.59375 C 198.14888 442.82648 200.69568 441.60568 202.92773 439.93164 C 205.15978 438.2576 206.93839 436.06015 208.26367 433.33984 C 209.6587 430.61953 210.35547 427.27076 210.35547 423.29492 C 210.35547 418.90057 209.58727 415.34336 208.05273 412.62305 C 206.58795 409.83298 204.63662 407.67125 202.19531 406.13672 C 199.75401 404.53243 196.99876 403.45059 193.92969 402.89258 C 190.86062 402.26481 187.72029 401.95117 184.51172 401.95117 z M 238.46094 401.95117 C 235.32212 401.95117 232.04478 402.09209 228.62695 402.37109 C 225.27888 402.58035 221.99959 402.92775 218.79102 403.41602 L 218.79102 457.19531 C 220.60456 457.54407 222.17472 457.75251 223.5 457.82227 C 224.89503 457.96177 226.18532 458.03125 227.37109 458.03125 C 228.48712 458.03125 229.74169 457.96177 231.13672 457.82227 C 232.6015 457.75251 234.24115 457.54407 236.05469 457.19531 L 236.05469 444.32617 C 236.26394 444.39592 236.78603 444.4654 237.62305 444.53516 C 238.46007 444.60491 239.47243 444.64063 240.6582 444.64062 C 243.58777 444.64063 246.44822 444.29127 249.23828 443.59375 C 252.0981 442.82648 254.64295 441.60568 256.875 439.93164 C 259.10705 438.2576 260.88566 436.06015 262.21094 433.33984 C 263.60597 430.61953 264.30469 427.27076 264.30469 423.29492 C 264.30469 418.90057 263.53649 415.34336 262.00195 412.62305 C 260.53717 409.83298 258.58388 407.67125 256.14258 406.13672 C 253.70127 404.53243 250.94602 403.45059 247.87695 402.89258 C 244.80788 402.26481 241.66951 401.95117 238.46094 401.95117 z M 341.66211 401.95117 C 337.19801 401.95117 333.29143 402.71937 329.94336 404.25391 C 326.59528 405.71869 323.80432 407.74146 321.57227 410.32227 C 319.34022 412.90307 317.66681 415.93625 316.55078 419.42383 C 315.43476 422.91141 314.87695 426.6433 314.87695 430.61914 C 314.87695 434.66473 315.39904 438.39663 316.44531 441.81445 C 317.56134 445.23228 319.2367 448.19793 321.46875 450.70898 C 323.77055 453.15029 326.69853 455.06786 330.25586 456.46289 C 333.88294 457.85792 338.20836 458.55469 343.23047 458.55469 C 349.71736 458.55469 356.06555 457.40336 362.27344 455.10156 C 362.20369 452.38125 361.78485 449.76692 361.01758 447.25586 C 360.32006 444.7448 359.48238 442.58112 358.50586 440.76758 C 356.06455 441.7441 353.58918 442.47658 351.07812 442.96484 C 348.56707 443.4531 346.30014 443.69727 344.27734 443.69727 C 341.13852 443.69727 338.59172 443.1057 336.63867 441.91992 C 334.75538 440.73415 333.43133 438.71138 332.66406 435.85156 L 364.4707 435.85156 C 364.61021 434.87504 364.74917 433.65424 364.88867 432.18945 C 365.09793 430.65492 365.20313 428.94579 365.20312 427.0625 C 365.20312 423.43542 364.64337 420.08665 363.52734 417.01758 C 362.48107 413.87876 360.94662 411.2287 358.92383 409.06641 C 356.90103 406.83436 354.42566 405.09147 351.49609 403.83594 C 348.63628 402.58041 345.35894 401.95117 341.66211 401.95117 z M 281.73828 402.26562 C 280.34325 402.26562 278.87828 402.33511 277.34375 402.47461 C 275.87897 402.61411 274.37828 402.85827 272.84375 403.20703 L 272.74023 457.29883 L 310.19531 457.29883 C 310.54407 455.9038 310.75447 454.61351 310.82422 453.42773 C 310.96372 452.17221 311.0332 450.98712 311.0332 449.87109 C 311.0332 448.75507 310.96372 447.60375 310.82422 446.41797 C 310.75447 445.23219 310.54407 443.94191 310.19531 442.54688 L 290.42188 442.54688 L 290.52539 403.20703 C 289.06061 402.85827 287.56188 402.61411 286.02734 402.47461 C 284.49281 402.33511 283.06356 402.26562 281.73828 402.26562 z M 370.23633 403.20703 C 369.88757 404.60206 369.64341 405.89235 369.50391 407.07812 C 369.43415 408.2639 369.39844 409.41523 369.39844 410.53125 C 369.39844 411.64727 369.43415 412.83236 369.50391 414.08789 C 369.64341 415.27367 369.88757 416.56395 370.23633 417.95898 L 385.7207 417.95898 L 385.7207 457.19531 C 387.46449 457.47432 389.06842 457.68276 390.5332 457.82227 C 391.99799 457.96177 393.32399 458.03125 394.50977 458.03125 C 395.69554 458.03125 397.01959 457.96177 398.48438 457.82227 C 399.94916 457.68276 401.5888 457.47432 403.40234 457.19531 L 403.40234 417.95898 L 418.88672 417.95898 C 419.23548 416.56395 419.44587 415.27367 419.51562 414.08789 C 419.65513 412.83236 419.72461 411.64727 419.72461 410.53125 C 419.72461 409.41523 419.65513 408.2639 419.51562 407.07812 C 419.44587 405.89235 419.23548 404.60206 418.88672 403.20703 L 370.23633 403.20703 z M 341.0332 415.24023 C 343.61401 415.24023 345.5673 416.07596 346.89258 417.75 C 348.28761 419.35429 349.05581 421.37705 349.19531 423.81836 L 332.45312 423.81836 C 332.73213 420.88879 333.67501 418.72706 335.2793 417.33203 C 336.88358 415.937 338.80115 415.24023 341.0332 415.24023 z M 183.67578 415.44922 L 184.93164 415.44922 C 187.23344 415.44922 189.15101 416.14598 190.68555 417.54102 C 192.28983 418.8663 193.0918 420.78387 193.0918 423.29492 C 193.0918 426.22449 192.28983 428.31869 190.68555 429.57422 C 189.15101 430.76 187.16396 431.35156 184.72266 431.35156 L 183.36133 431.35156 C 182.87307 431.28181 182.45423 431.21233 182.10547 431.14258 L 182.10547 415.55273 C 182.66348 415.48298 183.18752 415.44922 183.67578 415.44922 z M 237.62305 415.44922 L 238.87891 415.44922 C 241.18071 415.44922 243.10023 416.14598 244.63477 417.54102 C 246.23905 418.8663 247.04102 420.78387 247.04102 423.29492 C 247.04102 426.22449 246.23905 428.31869 244.63477 429.57422 C 243.10023 430.76 241.11123 431.35156 238.66992 431.35156 L 237.31055 431.35156 C 236.82229 431.28181 236.40345 431.21233 236.05469 431.14258 L 236.05469 415.55273 C 236.6127 415.48298 237.13479 415.44922 237.62305 415.44922 z "
       id="rect4610" />
    <path
       style="opacity:1;fill:url(#linearGradient6771);fill-opacity:1;fill-rule:evenodd;stroke:none;stroke-width:8.77774811;stroke-linecap:square;stroke-linejoin:miter;stroke-miterlimit:4;stroke-dasharray:none;stroke-dashoffset:0;stroke-opacity:1;paint-order:markers fill stroke"
       d="m 433.28939,182.37584 v -69.47028 c 0,-0.0394 -0.0309,-0.0705 -0.0703,-0.0705 h -67.33747 c 4.09851,4.50878 8.40749,9.2132 13.77948,14.86279 7.205,7.57734 15.21697,15.8602 23.32513,24.15489 11.13885,11.3951 20.83136,21.05949 30.30308,30.52302 z"
       id="path4566"
       inkscape:connector-curvature="0" />
    <path
       style="opacity:1;fill:#f17100;fill-opacity:1;fill-rule:evenodd;stroke:none;stroke-width:1.05391276;stroke-linejoin:round;stroke-miterlimit:4;stroke-dasharray:none;stroke-dashoffset:0;stroke-opacity:1;paint-order:normal"
       d="m 435.00048,114.60612 c -1.83541,-2.30475 -3.6077,-4.55306 -6.74972,-8.04125 -4.24635,-4.71409 -9.8132,-10.623129 -16.08223,-17.137261 C 405.8996,82.913483 398.92921,75.794273 391.8744,68.663457 377.76477,54.401804 363.32068,40.090503 353.48814,30.462087 c -0.35278,-0.345219 -0.4898,-0.448268 -0.83055,-0.781422 l -0.24394,62.802323 c -0.0467,12.055462 9.04538,21.800782 20.38588,21.850482 z"
       id="rect4485"
       inkscape:connector-curvature="0" />
    <g
       id="g4735"
       transform="matrix(0.67569786,0,0,0.67569786,153.7192,95.680712)"
       style="fill:#fffcf9;fill-opacity:1">
      <path
         id="path4704"
         d="m 102.681,291.324 c 0,0 -14.178,8.245 10.09,11.035 29.4,3.354 44.426,2.873 76.825,-3.259 0,0 8.518,5.341 20.414,9.967 -72.63,31.128 -164.376,-1.803 -107.329,-17.743"
         style="fill:#fffcf9;fill-opacity:1"
         inkscape:connector-curvature="0" />
      <path
         id="path4706"
         d="m 93.806,250.704 c 0,0 -15.902,11.771 8.384,14.283 31.406,3.24 56.208,3.505 99.125,-4.759 0,0 5.936,6.018 15.27,9.309 -87.814,25.678 -185.623,2.025 -122.779,-18.833"
         style="fill:#fffcf9;fill-opacity:1"
         inkscape:connector-curvature="0" />
      <path
         id="path4708"
         d="m 168.625,181.799 c 17.896,20.604 -4.702,39.145 -4.702,39.145 0,0 45.441,-23.458 24.572,-52.833 -19.491,-27.394 -34.438,-41.005 46.479,-87.934 0,0 -127.013,31.722 -66.349,101.622"
         style="fill:#fffcf9;fill-opacity:1"
         inkscape:connector-curvature="0" />
      <path
         id="path4710"
         d="m 264.684,321.369 c 0,0 10.492,8.645 -11.555,15.333 -41.923,12.7 -174.488,16.535 -211.314,0.506 -13.238,-5.759 11.587,-13.751 19.396,-15.428 8.144,-1.766 12.798,-1.437 12.798,-1.437 -14.722,-10.371 -95.157,20.364 -40.857,29.166 148.084,24.015 269.943,-10.814 231.532,-28.14"
         style="fill:#fffcf9;fill-opacity:1"
         inkscape:connector-curvature="0" />
      <path
         id="path4712"
         d="m 109.499,208.617 c 0,0 -67.431,16.016 -23.879,21.832 18.389,2.462 55.047,1.905 89.193,-0.956 27.906,-2.354 55.927,-7.359 55.927,-7.359 0,0 -9.84,4.214 -16.959,9.075 -68.475,18.009 -200.756,9.631 -162.674,-8.79 32.206,-15.568 58.392,-13.802 58.392,-13.802"
         style="fill:#fffcf9;fill-opacity:1"
         inkscape:connector-curvature="0" />
      <path
         id="path4714"
         d="m 230.462,276.231 c 69.608,-36.171 37.424,-70.931 14.96,-66.248 -5.506,1.146 -7.961,2.139 -7.961,2.139 0,0 2.044,-3.202 5.948,-4.588 44.441,-15.624 78.619,46.081 -14.346,70.52 0,0.001 1.077,-0.962 1.399,-1.823"
         style="fill:#fffcf9;fill-opacity:1"
         inkscape:connector-curvature="0" />
      <path
         id="path4716"
         d="m 188.495,4.399 c 0,0 38.55,38.563 -36.563,97.862 -60.233,47.568 -13.735,74.69 -0.025,105.678 C 116.748,176.217 90.946,148.292 108.256,122.302 133.663,84.151 204.049,65.654 188.495,4.399"
         style="fill:#fffcf9;fill-opacity:1"
         inkscape:connector-curvature="0" />
      <path
         id="path4718"
         d="m 116.339,374.246 c 66.815,4.277 169.417,-2.373 171.847,-33.988 0,0 -4.671,11.985 -55.219,21.503 -57.028,10.732 -127.364,9.479 -169.081,2.601 10e-4,-0.001 8.54,7.068 52.453,9.884"
         style="fill:#fffcf9;fill-opacity:1"
         inkscape:connector-curvature="0" />
    </g>
  </g>
</svg>
