<?xml version="1.0" encoding="UTF-8" standalone="no"?>
<!-- Created with Inkscape (http://www.inkscape.org/) -->

<svg
   xmlns:osb="http://www.openswatchbook.org/uri/2009/osb"
   xmlns:dc="http://purl.org/dc/elements/1.1/"
   xmlns:cc="http://creativecommons.org/ns#"
   xmlns:rdf="http://www.w3.org/1999/02/22-rdf-syntax-ns#"
   xmlns:svg="http://www.w3.org/2000/svg"
   xmlns="http://www.w3.org/2000/svg"
   xmlns:xlink="http://www.w3.org/1999/xlink"
   xmlns:sodipodi="http://sodipodi.sourceforge.net/DTD/sodipodi-0.dtd"
   xmlns:inkscape="http://www.inkscape.org/namespaces/inkscape"
   width="512px"
   height="512px"
   viewBox="0 0 512 512"
   version="1.1"
   id="SVGRoot"
   inkscape:version="0.92.1 r15371"
   sodipodi:docname="javaclass.svg">
  <sodipodi:namedview
     id="base"
     pagecolor="#ffffff"
     bordercolor="#666666"
     borderopacity="1.0"
     inkscape:pageopacity="0.0"
     inkscape:pageshadow="2"
     inkscape:zoom="1.4142136"
     inkscape:cx="210.34429"
     inkscape:cy="269.95263"
     inkscape:document-units="px"
     inkscape:current-layer="layer1"
     showgrid="false"
     inkscape:window-width="1280"
     inkscape:window-height="947"
     inkscape:window-x="0"
     inkscape:window-y="0"
     inkscape:window-maximized="1" />
  <defs
     id="defs4710">
    <linearGradient
       inkscape:collect="always"
       id="linearGradient4573">
      <stop
         style="stop-color:#181818;stop-opacity:0.30645162"
         offset="0"
         id="stop4569" />
      <stop
         style="stop-color:#404040;stop-opacity:0"
         offset="1"
         id="stop4571" />
    </linearGradient>
    <marker
       inkscape:stockid="DotM"
       orient="auto"
       refY="0.0"
       refX="0.0"
       id="DotM"
       style="overflow:visible"
       inkscape:isstock="true">
      <path
         id="path4618"
         d="M -2.5,-1.0 C -2.5,1.7600000 -4.7400000,4.0 -7.5,4.0 C -10.260000,4.0 -12.5,1.7600000 -12.5,-1.0 C -12.5,-3.7600000 -10.260000,-6.0 -7.5,-6.0 C -4.7400000,-6.0 -2.5,-3.7600000 -2.5,-1.0 z "
         style="fill-rule:evenodd;stroke:#000000;stroke-width:1.0pt"
         transform="scale(0.4) translate(7.4, 1)" />
    </marker>
    <linearGradient
       osb:paint="solid"
       id="linearGradient5207">
      <stop
         id="stop5209"
         offset="0"
         style="stop-color:#000015;stop-opacity:1;" />
    </linearGradient>
    <clipPath
       id="clipPath3006-9-8"
       clipPathUnits="userSpaceOnUse">
      <path
         inkscape:export-ydpi="90"
         inkscape:export-xdpi="90"
         transform="matrix(1.2020779,0,0,1.2020779,-93.20363,-75.172465)"
         d="m 483,275.5 a 192.5,192.5 0 1 1 -385,0 192.5,192.5 0 1 1 385,0 z"
         sodipodi:ry="192.5"
         sodipodi:rx="192.5"
         sodipodi:cy="275.5"
         sodipodi:cx="290.5"
         id="path3008-1-1"
         style="fill:#ffffff;fill-opacity:1;stroke:none;display:inline"
         sodipodi:type="arc" />
    </clipPath>
    <mask
       id="mask3818-4"
       maskUnits="userSpaceOnUse">
      <path
         sodipodi:type="arc"
         style="fill:#ffffff;fill-opacity:1;stroke:none;display:inline"
         id="path3820-9"
         sodipodi:cx="290.5"
         sodipodi:cy="275.5"
         sodipodi:rx="192.5"
         sodipodi:ry="192.5"
         d="m 483,275.5 a 192.5,192.5 0 1 1 -385,0 192.5,192.5 0 1 1 385,0 z"
         transform="matrix(1.2020779,0,0,1.2020779,-93.20363,-75.172466)"
         inkscape:export-xdpi="90"
         inkscape:export-ydpi="90" />
    </mask>
    <clipPath
       id="clipPath3006"
       clipPathUnits="userSpaceOnUse">
      <path
         inkscape:export-ydpi="90"
         inkscape:export-xdpi="90"
         transform="matrix(1.2020779,0,0,1.2020779,-93.20363,-75.172465)"
         d="m 483,275.5 a 192.5,192.5 0 1 1 -385,0 192.5,192.5 0 1 1 385,0 z"
         sodipodi:ry="192.5"
         sodipodi:rx="192.5"
         sodipodi:cy="275.5"
         sodipodi:cx="290.5"
         id="path3008"
         style="fill:#ffffff;fill-opacity:1;stroke:none;display:inline"
         sodipodi:type="arc" />
    </clipPath>
    <clipPath
       id="clipPath3006-9"
       clipPathUnits="userSpaceOnUse">
      <path
         inkscape:export-ydpi="90"
         inkscape:export-xdpi="90"
         transform="matrix(1.2020779,0,0,1.2020779,-93.20363,-75.172465)"
         d="m 483,275.5 a 192.5,192.5 0 1 1 -385,0 192.5,192.5 0 1 1 385,0 z"
         sodipodi:ry="192.5"
         sodipodi:rx="192.5"
         sodipodi:cy="275.5"
         sodipodi:cx="290.5"
         id="path3008-1"
         style="fill:#ffffff;fill-opacity:1;stroke:none;display:inline"
         sodipodi:type="arc" />
    </clipPath>
    <mask
       maskUnits="userSpaceOnUse"
       id="mask3818-0">
      <path
         inkscape:export-ydpi="90"
         inkscape:export-xdpi="90"
         transform="matrix(1.2020779,0,0,1.2020779,-93.20363,-75.172466)"
         d="m 483,275.5 a 192.5,192.5 0 1 1 -385,0 192.5,192.5 0 1 1 385,0 z"
         sodipodi:ry="192.5"
         sodipodi:rx="192.5"
         sodipodi:cy="275.5"
         sodipodi:cx="290.5"
         id="path3820-8"
         style="fill:#ffffff;fill-opacity:1;stroke:none;display:inline"
         sodipodi:type="arc" />
    </mask>
    <mask
       maskUnits="userSpaceOnUse"
       id="mask3818-2">
      <path
         inkscape:export-ydpi="90"
         inkscape:export-xdpi="90"
         transform="matrix(1.2020779,0,0,1.2020779,-93.20363,-75.172466)"
         d="m 483,275.5 a 192.5,192.5 0 1 1 -385,0 192.5,192.5 0 1 1 385,0 z"
         sodipodi:ry="192.5"
         sodipodi:rx="192.5"
         sodipodi:cy="275.5"
         sodipodi:cx="290.5"
         id="path3820-2-2"
         style="fill:#ffffff;fill-opacity:1;stroke:none;display:inline"
         sodipodi:type="arc" />
    </mask>
    <clipPath
       id="clipPath3934"
       clipPathUnits="userSpaceOnUse">
      <path
         id="path3936"
         d="m 0,0 0,1024 1024,0 L 1024,0 0,0 z m 278.4375,333.84375 119.78125,0 c 9.83697,42.31453 19.85954,84.58596 29.9375,126.84375 9.86978,-42.28798 20.05132,-84.50237 29.6875,-126.84375 l 108.90625,0 c 9.63586,42.34141 19.8178,84.55578 29.6875,126.84375 10.07827,-42.25772 20.10031,-84.52927 29.9375,-126.84375 l 119.1875,0 c -26.26221,110.73099 -52.49625,221.46929 -78.28125,332.3125 l -122.8125,0 c -10.59439,-45.55681 -21.46638,-91.04874 -32.375,-136.53125 -10.66279,45.51136 -21.5615,90.96897 -32,136.53125 l -122.8125,0 c -25.71418,-110.03502 -52.0286,-219.92873 -78.25,-329.84375 l -0.59375,-2.46875 z"
         style="fill:#ff3232;fill-opacity:1;stroke:none"
         inkscape:connector-curvature="0" />
    </clipPath>
    <clipPath
       id="clipPath3929"
       clipPathUnits="userSpaceOnUse">
      <path
         inkscape:connector-curvature="0"
         style="fill:#ff3232;fill-opacity:1;stroke:none"
         d="m 0,0 0,1024 1024,0 L 1024,0 0,0 z m 278.4375,333.84375 119.78125,0 c 9.83697,42.31453 19.85954,84.58596 29.9375,126.84375 9.86978,-42.28798 20.05132,-84.50237 29.6875,-126.84375 l 108.90625,0 c 9.63586,42.34141 19.8178,84.55578 29.6875,126.84375 10.07827,-42.25772 20.10031,-84.52927 29.9375,-126.84375 l 119.1875,0 c -26.26221,110.73099 -52.49625,221.46929 -78.28125,332.3125 l -122.8125,0 c -10.59439,-45.55681 -21.46638,-91.04874 -32.375,-136.53125 -10.66279,45.51136 -21.5615,90.96897 -32,136.53125 l -122.8125,0 c -25.71418,-110.03502 -52.0286,-219.92873 -78.25,-329.84375 l -0.59375,-2.46875 z"
         id="path3931" />
    </clipPath>
    <mask
       maskUnits="userSpaceOnUse"
       id="mask3818">
      <path
         inkscape:export-ydpi="90"
         inkscape:export-xdpi="90"
         transform="matrix(1.2020779,0,0,1.2020779,-93.20363,-75.172466)"
         d="m 483,275.5 a 192.5,192.5 0 1 1 -385,0 192.5,192.5 0 1 1 385,0 z"
         sodipodi:ry="192.5"
         sodipodi:rx="192.5"
         sodipodi:cy="275.5"
         sodipodi:cx="290.5"
         id="path3820"
         style="fill:#ffffff;fill-opacity:1;stroke:none;display:inline"
         sodipodi:type="arc" />
    </mask>
    <linearGradient
       inkscape:collect="always"
       xlink:href="#linearGradient4573"
       id="linearGradient4575"
       x1="408.84314"
       y1="89.26915"
       x2="420.61133"
       y2="138.41306"
       gradientUnits="userSpaceOnUse"
       gradientTransform="matrix(0.99657796,0,0,1,1.2520606,0)" />
    <linearGradient
       inkscape:collect="always"
       xlink:href="#linearGradient4573"
       id="linearGradient6771"
       gradientUnits="userSpaceOnUse"
       gradientTransform="matrix(0.99657796,0,0,1,1.2520606,0)"
       x1="408.84314"
       y1="89.26915"
       x2="420.61133"
       y2="138.41306" />
  </defs>
  <metadata
     id="metadata4713">
    <rdf:RDF>
      <cc:Work
         rdf:about="">
        <dc:format>image/svg+xml</dc:format>
        <dc:type
           rdf:resource="http://purl.org/dc/dcmitype/StillImage" />
        <dc:title></dc:title>
      </cc:Work>
    </rdf:RDF>
  </metadata>
  <g
     id="layer1"
     inkscape:groupmode="layer"
     inkscape:label="Capa 1">
    <path
       style="opacity:1;fill:#c75e00;fill-opacity:1;fill-rule:evenodd;stroke:#f17100;stroke-width:2;stroke-linejoin:round;stroke-miterlimit:4;stroke-dasharray:none;stroke-dashoffset:0;stroke-opacity:1;paint-order:normal"
       d="m 97.583979,29.700195 c -11.07875,0 -19.99804,9.65194 -19.99804,21.64062 V 460.66113 c 0,11.9887 8.91929,21.63867 19.99804,21.63867 H 414.41602 c 11.07874,0 19.99804,-9.64997 19.99804,-21.63867 V 113.7959 c -0.33411,-0.32981 -0.46874,-0.43168 -0.81445,-0.77345 -9.64188,-9.53205 -23.80681,-23.701345 -37.64453,-37.822255 -6.91884,-7.06045 -13.75546,-14.10994 -19.9043,-20.56055 -6.14876,-6.45062 -11.60929,-12.30327 -15.77539,-16.97265 -3.0827,-3.45513 -4.82334,-5.68286 -6.625,-7.9668 z"
       id="path4506"
       inkscape:connector-curvature="0"
       sodipodi:nodetypes="ssssssccccccs" />
    <g
       id="g4584"
       transform="matrix(0.3829248,0,0,0.3829248,74.406719,31.973725)"
       style="fill:#75abd3;fill-opacity:1;stroke:#9dc4df;stroke-opacity:1" />
    <path
       style="opacity:1;fill:#ffffff;fill-opacity:1;fill-rule:evenodd;stroke:#b45500;stroke-width:1.35059643;stroke-linecap:square;stroke-linejoin:miter;stroke-miterlimit:4;stroke-dasharray:none;stroke-dashoffset:0;stroke-opacity:1;paint-order:markers fill stroke"
       d="M 164.18945 380.81641 C 158.53958 380.81641 153.48168 381.79305 149.01758 383.74609 C 144.55348 385.69914 140.78782 388.42063 137.71875 391.9082 C 134.71943 395.39578 132.41679 399.54456 130.8125 404.35742 C 129.20821 409.10053 128.40625 414.26363 128.40625 419.84375 C 128.40625 425.42387 129.1725 430.58502 130.70703 435.32812 C 132.24157 440.07123 134.5085 444.15053 137.50781 447.56836 C 140.57688 450.98619 144.34449 453.67196 148.80859 455.625 C 153.34245 457.50829 158.57307 458.45117 164.50195 458.45117 C 166.17599 458.45117 167.77992 458.38169 169.31445 458.24219 C 170.91874 458.17244 172.52462 457.99776 174.12891 457.71875 C 175.73319 457.5095 177.4066 457.16014 179.15039 456.67188 C 180.89418 456.18361 182.77799 455.55633 184.80078 454.78906 C 184.03351 449.48794 182.49907 444.3268 180.19727 439.30469 C 177.33745 440.28121 174.89584 440.97798 172.87305 441.39648 C 170.92 441.81499 168.82775 442.02344 166.5957 442.02344 C 154.17993 442.02344 147.9707 434.63108 147.9707 419.84375 C 147.9707 412.31058 149.50515 406.65916 152.57422 402.89258 C 155.71304 399.05624 160.10794 397.13867 165.75781 397.13867 C 166.94359 397.13867 168.0592 397.20815 169.10547 397.34766 C 170.15174 397.41741 171.19787 397.55832 172.24414 397.76758 C 173.29041 397.97683 174.37226 398.25476 175.48828 398.60352 C 176.67406 398.95227 177.96434 399.37111 179.35938 399.85938 C 180.3359 397.83658 181.27878 395.50017 182.18555 392.84961 C 183.09232 390.1293 183.6144 387.33833 183.75391 384.47852 C 180.05707 383.01373 176.7083 382.03709 173.70898 381.54883 C 170.70967 381.06057 167.53753 380.81641 164.18945 380.81641 z M 259.28125 401.95117 C 256.63069 401.95117 253.63128 402.23105 250.2832 402.78906 C 247.00488 403.34707 243.69182 404.18476 240.34375 405.30078 C 240.34375 406.69581 240.37947 407.95038 240.44922 409.06641 C 240.58872 410.11268 240.7634 411.1588 240.97266 412.20508 C 241.25166 413.1816 241.59907 414.15824 242.01758 415.13477 C 242.50584 416.11129 243.0656 417.19313 243.69336 418.37891 C 246.06491 417.54189 248.36561 416.94837 250.59766 416.59961 C 252.82971 416.1811 254.78299 415.97266 256.45703 415.97266 C 257.71256 415.97266 258.93336 416.0759 260.11914 416.28516 C 261.30492 416.42466 262.38676 416.7383 263.36328 417.22656 C 264.3398 417.64507 265.14177 418.27431 265.76953 419.11133 C 266.3973 419.94835 266.7447 420.99447 266.81445 422.25 L 260.43359 422.25 C 257.78303 422.25 255.06155 422.52793 252.27148 423.08594 C 249.48142 423.5742 246.93657 424.48136 244.63477 425.80664 C 242.33296 427.13192 240.44916 428.91053 238.98438 431.14258 C 237.51959 433.37463 236.78711 436.19936 236.78711 439.61719 C 236.78711 443.10477 237.38063 446.07041 238.56641 448.51172 C 239.82193 450.88327 241.53106 452.80084 243.69336 454.26562 C 245.85566 455.73041 248.43623 456.77653 251.43555 457.4043 C 254.50462 458.10181 257.85143 458.45117 261.47852 458.45117 C 265.66361 458.45117 269.63967 458.0661 273.40625 457.29883 C 277.17283 456.53156 280.38264 455.76531 283.0332 454.99805 L 283.0332 424.3418 C 283.0332 420.43571 282.47345 417.08694 281.35742 414.29688 C 280.2414 411.43706 278.63747 409.10065 276.54492 407.28711 C 274.52213 405.47357 272.04675 404.14952 269.11719 403.3125 C 266.18762 402.40573 262.90833 401.95117 259.28125 401.95117 z M 314.7793 401.95117 C 311.43122 401.95117 308.36233 402.37001 305.57227 403.20703 C 302.85195 404.04405 300.48178 405.26485 298.45898 406.86914 C 296.43619 408.40367 294.86602 410.28748 293.75 412.51953 C 292.63398 414.75158 292.07617 417.22695 292.07617 419.94727 C 292.07617 424.27186 293.29698 427.69012 295.73828 430.20117 C 298.17959 432.71223 301.24848 434.49084 304.94531 435.53711 L 312.06055 437.52539 C 313.24632 437.87415 314.29245 438.29299 315.19922 438.78125 C 316.10599 439.19976 316.55859 439.86081 316.55859 440.76758 C 316.55859 441.46509 316.31443 442.02485 315.82617 442.44336 C 315.40766 442.86187 314.84986 443.20928 314.15234 443.48828 C 313.45483 443.69754 312.65286 443.83845 311.74609 443.9082 C 310.83932 443.97795 309.96788 444.01172 309.13086 444.01172 C 306.68955 444.01172 304.24795 443.76756 301.80664 443.2793 C 299.36534 442.72128 297.02892 441.91932 294.79688 440.87305 C 292.56483 445.75566 291.27454 450.56939 290.92578 455.3125 C 294.13435 456.49828 297.16753 457.334 300.02734 457.82227 C 302.88716 458.31053 305.99177 458.55469 309.33984 458.55469 C 313.38543 458.55469 316.94265 458.06637 320.01172 457.08984 C 323.15054 456.11332 325.76683 454.78927 327.85938 453.11523 C 330.02167 451.4412 331.6256 449.45219 332.67188 447.15039 C 333.7879 444.84859 334.3457 442.37322 334.3457 439.72266 C 334.3457 437.14185 333.99634 434.9444 333.29883 433.13086 C 332.60131 431.31732 331.62467 429.78287 330.36914 428.52734 C 329.18336 427.27182 327.7184 426.25945 325.97461 425.49219 C 324.30057 424.65517 322.41872 423.9584 320.32617 423.40039 L 313.52539 421.62109 C 312.54887 421.34209 311.67547 420.99468 310.9082 420.57617 C 310.14094 420.15766 309.75781 419.56414 309.75781 418.79688 C 309.75781 416.98333 311.39746 416.07617 314.67578 416.07617 C 316.90783 416.07617 319.34944 416.38981 322 417.01758 C 324.65056 417.64534 326.91749 418.34406 328.80078 419.11133 C 329.7773 417.15828 330.64875 414.92512 331.41602 412.41406 C 332.18328 409.83325 332.63589 407.42736 332.77539 405.19531 C 329.70632 404.14904 326.60366 403.34707 323.46484 402.78906 C 320.32602 402.23105 317.42986 401.95117 314.7793 401.95117 z M 364.0293 401.95117 C 360.68122 401.95117 357.61233 402.37001 354.82227 403.20703 C 352.10195 404.04405 349.72983 405.26485 347.70703 406.86914 C 345.68424 408.40367 344.11407 410.28748 342.99805 412.51953 C 341.88202 414.75158 341.32422 417.22695 341.32422 419.94727 C 341.32422 424.27186 342.54502 427.69012 344.98633 430.20117 C 347.42763 432.71223 350.49653 434.49084 354.19336 435.53711 L 361.30859 437.52539 C 362.49437 437.87415 363.5405 438.29299 364.44727 438.78125 C 365.35404 439.19976 365.80664 439.86081 365.80664 440.76758 C 365.80664 441.46509 365.56248 442.02485 365.07422 442.44336 C 364.65571 442.86187 364.09791 443.20928 363.40039 443.48828 C 362.70288 443.69754 361.90091 443.83845 360.99414 443.9082 C 360.08737 443.97795 359.21592 444.01172 358.37891 444.01172 C 355.9376 444.01172 353.49599 443.76756 351.05469 443.2793 C 348.61338 442.72128 346.27697 441.91932 344.04492 440.87305 C 341.81287 445.75566 340.52259 450.56939 340.17383 455.3125 C 343.3824 456.49828 346.41558 457.334 349.27539 457.82227 C 352.1352 458.31053 355.23982 458.55469 358.58789 458.55469 C 362.63348 458.55469 366.1907 458.06637 369.25977 457.08984 C 372.39859 456.11332 375.01488 454.78927 377.10742 453.11523 C 379.26972 451.4412 380.87365 449.45219 381.91992 447.15039 C 383.03595 444.84859 383.59375 442.37322 383.59375 439.72266 C 383.59375 437.14185 383.24439 434.9444 382.54688 433.13086 C 381.84936 431.31732 380.87272 429.78287 379.61719 428.52734 C 378.43141 427.27182 376.9684 426.25945 375.22461 425.49219 C 373.55057 424.65517 371.66677 423.9584 369.57422 423.40039 L 362.77344 421.62109 C 361.79692 421.34209 360.92547 420.99468 360.1582 420.57617 C 359.39094 420.15766 359.00586 419.56414 359.00586 418.79688 C 359.00586 416.98333 360.6455 416.07617 363.92383 416.07617 C 366.15588 416.07617 368.59749 416.38981 371.24805 417.01758 C 373.89861 417.64534 376.16554 418.34406 378.04883 419.11133 C 379.02535 417.15828 379.8968 414.92512 380.66406 412.41406 C 381.43133 409.83325 381.88589 407.42736 382.02539 405.19531 C 378.95632 404.14904 375.85171 403.34707 372.71289 402.78906 C 369.57407 402.23105 366.67986 401.95117 364.0293 401.95117 z M 202.73047 402.26562 C 201.33544 402.26562 199.87047 402.33511 198.33594 402.47461 C 196.87115 402.61411 195.37242 402.85827 193.83789 403.20703 L 193.73242 457.29883 L 231.18945 457.29883 C 231.53821 455.9038 231.74665 454.61351 231.81641 453.42773 C 231.95591 452.17221 232.02734 450.98712 232.02734 449.87109 C 232.02734 448.75507 231.95591 447.60375 231.81641 446.41797 C 231.74665 445.23219 231.53821 443.94191 231.18945 442.54688 L 211.41406 442.54688 L 211.51953 403.20703 C 210.05475 402.85827 208.55407 402.61411 207.01953 402.47461 C 205.485 402.33511 204.05575 402.26562 202.73047 402.26562 z M 260.85156 433.33984 L 266.81445 433.33984 L 266.81445 444.84961 C 266.25644 444.98911 265.385 445.12808 264.19922 445.26758 C 263.01344 445.40708 262.10628 445.47656 261.47852 445.47656 C 260.57175 445.47656 259.56134 445.40708 258.44531 445.26758 C 257.39904 445.12808 256.38668 444.8482 255.41016 444.42969 C 254.50339 444.01118 253.73714 443.41961 253.10938 442.65234 C 252.48161 441.81533 252.16797 440.69972 252.16797 439.30469 C 252.16797 437.4214 253.0037 435.95643 254.67773 434.91016 C 256.35177 433.86388 258.41026 433.33984 260.85156 433.33984 z "
       id="rect4610" />
    <path
       style="opacity:1;fill:url(#linearGradient6771);fill-opacity:1;fill-rule:evenodd;stroke:none;stroke-width:8.77774811;stroke-linecap:square;stroke-linejoin:miter;stroke-miterlimit:4;stroke-dasharray:none;stroke-dashoffset:0;stroke-opacity:1;paint-order:markers fill stroke"
       d="m 433.28939,182.37584 v -69.47028 c 0,-0.0394 -0.0309,-0.0705 -0.0703,-0.0705 h -67.33747 c 4.09851,4.50878 8.40749,9.2132 13.77948,14.86279 7.205,7.57734 15.21697,15.8602 23.32513,24.15489 11.13885,11.3951 20.83136,21.05949 30.30308,30.52302 z"
       id="path4566"
       inkscape:connector-curvature="0" />
    <path
       style="opacity:1;fill:#f17100;fill-opacity:1;fill-rule:evenodd;stroke:none;stroke-width:1.05391276;stroke-linejoin:round;stroke-miterlimit:4;stroke-dasharray:none;stroke-dashoffset:0;stroke-opacity:1;paint-order:normal"
       d="m 435.00048,114.60612 c -1.83541,-2.30475 -3.6077,-4.55306 -6.74972,-8.04125 -4.24635,-4.71409 -9.8132,-10.623129 -16.08223,-17.137261 C 405.8996,82.913483 398.92921,75.794273 391.8744,68.663457 377.76477,54.401804 363.32068,40.090503 353.48814,30.462087 c -0.35278,-0.345219 -0.4898,-0.448268 -0.83055,-0.781422 l -0.24394,62.802323 c -0.0467,12.055462 9.04538,21.800782 20.38588,21.850482 z"
       id="rect4485"
       inkscape:connector-curvature="0" />
    <g
       id="g4735"
       transform="matrix(0.67569786,0,0,0.67569786,153.7192,95.680712)"
       style="fill:#fffcf9;fill-opacity:1">
      <path
         id="path4704"
         d="m 102.681,291.324 c 0,0 -14.178,8.245 10.09,11.035 29.4,3.354 44.426,2.873 76.825,-3.259 0,0 8.518,5.341 20.414,9.967 -72.63,31.128 -164.376,-1.803 -107.329,-17.743"
         style="fill:#fffcf9;fill-opacity:1"
         inkscape:connector-curvature="0" />
      <path
         id="path4706"
         d="m 93.806,250.704 c 0,0 -15.902,11.771 8.384,14.283 31.406,3.24 56.208,3.505 99.125,-4.759 0,0 5.936,6.018 15.27,9.309 -87.814,25.678 -185.623,2.025 -122.779,-18.833"
         style="fill:#fffcf9;fill-opacity:1"
         inkscape:connector-curvature="0" />
      <path
         id="path4708"
         d="m 168.625,181.799 c 17.896,20.604 -4.702,39.145 -4.702,39.145 0,0 45.441,-23.458 24.572,-52.833 -19.491,-27.394 -34.438,-41.005 46.479,-87.934 0,0 -127.013,31.722 -66.349,101.622"
         style="fill:#fffcf9;fill-opacity:1"
         inkscape:connector-curvature="0" />
      <path
         id="path4710"
         d="m 264.684,321.369 c 0,0 10.492,8.645 -11.555,15.333 -41.923,12.7 -174.488,16.535 -211.314,0.506 -13.238,-5.759 11.587,-13.751 19.396,-15.428 8.144,-1.766 12.798,-1.437 12.798,-1.437 -14.722,-10.371 -95.157,20.364 -40.857,29.166 148.084,24.015 269.943,-10.814 231.532,-28.14"
         style="fill:#fffcf9;fill-opacity:1"
         inkscape:connector-curvature="0" />
      <path
         id="path4712"
         d="m 109.499,208.617 c 0,0 -67.431,16.016 -23.879,21.832 18.389,2.462 55.047,1.905 89.193,-0.956 27.906,-2.354 55.927,-7.359 55.927,-7.359 0,0 -9.84,4.214 -16.959,9.075 -68.475,18.009 -200.756,9.631 -162.674,-8.79 32.206,-15.568 58.392,-13.802 58.392,-13.802"
         style="fill:#fffcf9;fill-opacity:1"
         inkscape:connector-curvature="0" />
      <path
         id="path4714"
         d="m 230.462,276.231 c 69.608,-36.171 37.424,-70.931 14.96,-66.248 -5.506,1.146 -7.961,2.139 -7.961,2.139 0,0 2.044,-3.202 5.948,-4.588 44.441,-15.624 78.619,46.081 -14.346,70.52 0,0.001 1.077,-0.962 1.399,-1.823"
         style="fill:#fffcf9;fill-opacity:1"
         inkscape:connector-curvature="0" />
      <path
         id="path4716"
         d="m 188.495,4.399 c 0,0 38.55,38.563 -36.563,97.862 -60.233,47.568 -13.735,74.69 -0.025,105.678 C 116.748,176.217 90.946,148.292 108.256,122.302 133.663,84.151 204.049,65.654 188.495,4.399"
         style="fill:#fffcf9;fill-opacity:1"
         inkscape:connector-curvature="0" />
      <path
         id="path4718"
         d="m 116.339,374.246 c 66.815,4.277 169.417,-2.373 171.847,-33.988 0,0 -4.671,11.985 -55.219,21.503 -57.028,10.732 -127.364,9.479 -169.081,2.601 10e-4,-0.001 8.54,7.068 52.453,9.884"
         style="fill:#fffcf9;fill-opacity:1"
         inkscape:connector-curvature="0" />
    </g>
  </g>
</svg>
