<?xml version="1.0" encoding="UTF-8" standalone="no"?>
<!-- Created with Inkscape (http://www.inkscape.org/) -->

<svg
   xmlns:osb="http://www.openswatchbook.org/uri/2009/osb"
   xmlns:dc="http://purl.org/dc/elements/1.1/"
   xmlns:cc="http://creativecommons.org/ns#"
   xmlns:rdf="http://www.w3.org/1999/02/22-rdf-syntax-ns#"
   xmlns:svg="http://www.w3.org/2000/svg"
   xmlns="http://www.w3.org/2000/svg"
   xmlns:xlink="http://www.w3.org/1999/xlink"
   xmlns:sodipodi="http://sodipodi.sourceforge.net/DTD/sodipodi-0.dtd"
   xmlns:inkscape="http://www.inkscape.org/namespaces/inkscape"
   width="512px"
   height="512px"
   viewBox="0 0 512 512"
   version="1.1"
   id="SVGRoot"
   inkscape:version="0.92.1 r15371"
   sodipodi:docname="javasource.svg">
  <sodipodi:namedview
     id="base"
     pagecolor="#ffffff"
     bordercolor="#666666"
     borderopacity="1.0"
     inkscape:pageopacity="0.0"
     inkscape:pageshadow="2"
     inkscape:zoom="1.4142136"
     inkscape:cx="210.34429"
     inkscape:cy="269.95263"
     inkscape:document-units="px"
     inkscape:current-layer="layer1"
     showgrid="false"
     inkscape:window-width="1280"
     inkscape:window-height="947"
     inkscape:window-x="0"
     inkscape:window-y="0"
     inkscape:window-maximized="1" />
  <defs
     id="defs4710">
    <linearGradient
       inkscape:collect="always"
       id="linearGradient4573">
      <stop
         style="stop-color:#181818;stop-opacity:0.30645162"
         offset="0"
         id="stop4569" />
      <stop
         style="stop-color:#404040;stop-opacity:0"
         offset="1"
         id="stop4571" />
    </linearGradient>
    <marker
       inkscape:stockid="DotM"
       orient="auto"
       refY="0.0"
       refX="0.0"
       id="DotM"
       style="overflow:visible"
       inkscape:isstock="true">
      <path
         id="path4618"
         d="M -2.5,-1.0 C -2.5,1.7600000 -4.7400000,4.0 -7.5,4.0 C -10.260000,4.0 -12.5,1.7600000 -12.5,-1.0 C -12.5,-3.7600000 -10.260000,-6.0 -7.5,-6.0 C -4.7400000,-6.0 -2.5,-3.7600000 -2.5,-1.0 z "
         style="fill-rule:evenodd;stroke:#000000;stroke-width:1.0pt"
         transform="scale(0.4) translate(7.4, 1)" />
    </marker>
    <linearGradient
       osb:paint="solid"
       id="linearGradient5207">
      <stop
         id="stop5209"
         offset="0"
         style="stop-color:#000015;stop-opacity:1;" />
    </linearGradient>
    <clipPath
       id="clipPath3006-9-8"
       clipPathUnits="userSpaceOnUse">
      <path
         inkscape:export-ydpi="90"
         inkscape:export-xdpi="90"
         transform="matrix(1.2020779,0,0,1.2020779,-93.20363,-75.172465)"
         d="m 483,275.5 a 192.5,192.5 0 1 1 -385,0 192.5,192.5 0 1 1 385,0 z"
         sodipodi:ry="192.5"
         sodipodi:rx="192.5"
         sodipodi:cy="275.5"
         sodipodi:cx="290.5"
         id="path3008-1-1"
         style="fill:#ffffff;fill-opacity:1;stroke:none;display:inline"
         sodipodi:type="arc" />
    </clipPath>
    <mask
       id="mask3818-4"
       maskUnits="userSpaceOnUse">
      <path
         sodipodi:type="arc"
         style="fill:#ffffff;fill-opacity:1;stroke:none;display:inline"
         id="path3820-9"
         sodipodi:cx="290.5"
         sodipodi:cy="275.5"
         sodipodi:rx="192.5"
         sodipodi:ry="192.5"
         d="m 483,275.5 a 192.5,192.5 0 1 1 -385,0 192.5,192.5 0 1 1 385,0 z"
         transform="matrix(1.2020779,0,0,1.2020779,-93.20363,-75.172466)"
         inkscape:export-xdpi="90"
         inkscape:export-ydpi="90" />
    </mask>
    <clipPath
       id="clipPath3006"
       clipPathUnits="userSpaceOnUse">
      <path
         inkscape:export-ydpi="90"
         inkscape:export-xdpi="90"
         transform="matrix(1.2020779,0,0,1.2020779,-93.20363,-75.172465)"
         d="m 483,275.5 a 192.5,192.5 0 1 1 -385,0 192.5,192.5 0 1 1 385,0 z"
         sodipodi:ry="192.5"
         sodipodi:rx="192.5"
         sodipodi:cy="275.5"
         sodipodi:cx="290.5"
         id="path3008"
         style="fill:#ffffff;fill-opacity:1;stroke:none;display:inline"
         sodipodi:type="arc" />
    </clipPath>
    <clipPath
       id="clipPath3006-9"
       clipPathUnits="userSpaceOnUse">
      <path
         inkscape:export-ydpi="90"
         inkscape:export-xdpi="90"
         transform="matrix(1.2020779,0,0,1.2020779,-93.20363,-75.172465)"
         d="m 483,275.5 a 192.5,192.5 0 1 1 -385,0 192.5,192.5 0 1 1 385,0 z"
         sodipodi:ry="192.5"
         sodipodi:rx="192.5"
         sodipodi:cy="275.5"
         sodipodi:cx="290.5"
         id="path3008-1"
         style="fill:#ffffff;fill-opacity:1;stroke:none;display:inline"
         sodipodi:type="arc" />
    </clipPath>
    <mask
       maskUnits="userSpaceOnUse"
       id="mask3818-0">
      <path
         inkscape:export-ydpi="90"
         inkscape:export-xdpi="90"
         transform="matrix(1.2020779,0,0,1.2020779,-93.20363,-75.172466)"
         d="m 483,275.5 a 192.5,192.5 0 1 1 -385,0 192.5,192.5 0 1 1 385,0 z"
         sodipodi:ry="192.5"
         sodipodi:rx="192.5"
         sodipodi:cy="275.5"
         sodipodi:cx="290.5"
         id="path3820-8"
         style="fill:#ffffff;fill-opacity:1;stroke:none;display:inline"
         sodipodi:type="arc" />
    </mask>
    <mask
       maskUnits="userSpaceOnUse"
       id="mask3818-2">
      <path
         inkscape:export-ydpi="90"
         inkscape:export-xdpi="90"
         transform="matrix(1.2020779,0,0,1.2020779,-93.20363,-75.172466)"
         d="m 483,275.5 a 192.5,192.5 0 1 1 -385,0 192.5,192.5 0 1 1 385,0 z"
         sodipodi:ry="192.5"
         sodipodi:rx="192.5"
         sodipodi:cy="275.5"
         sodipodi:cx="290.5"
         id="path3820-2-2"
         style="fill:#ffffff;fill-opacity:1;stroke:none;display:inline"
         sodipodi:type="arc" />
    </mask>
    <clipPath
       id="clipPath3934"
       clipPathUnits="userSpaceOnUse">
      <path
         id="path3936"
         d="m 0,0 0,1024 1024,0 L 1024,0 0,0 z m 278.4375,333.84375 119.78125,0 c 9.83697,42.31453 19.85954,84.58596 29.9375,126.84375 9.86978,-42.28798 20.05132,-84.50237 29.6875,-126.84375 l 108.90625,0 c 9.63586,42.34141 19.8178,84.55578 29.6875,126.84375 10.07827,-42.25772 20.10031,-84.52927 29.9375,-126.84375 l 119.1875,0 c -26.26221,110.73099 -52.49625,221.46929 -78.28125,332.3125 l -122.8125,0 c -10.59439,-45.55681 -21.46638,-91.04874 -32.375,-136.53125 -10.66279,45.51136 -21.5615,90.96897 -32,136.53125 l -122.8125,0 c -25.71418,-110.03502 -52.0286,-219.92873 -78.25,-329.84375 l -0.59375,-2.46875 z"
         style="fill:#ff3232;fill-opacity:1;stroke:none"
         inkscape:connector-curvature="0" />
    </clipPath>
    <clipPath
       id="clipPath3929"
       clipPathUnits="userSpaceOnUse">
      <path
         inkscape:connector-curvature="0"
         style="fill:#ff3232;fill-opacity:1;stroke:none"
         d="m 0,0 0,1024 1024,0 L 1024,0 0,0 z m 278.4375,333.84375 119.78125,0 c 9.83697,42.31453 19.85954,84.58596 29.9375,126.84375 9.86978,-42.28798 20.05132,-84.50237 29.6875,-126.84375 l 108.90625,0 c 9.63586,42.34141 19.8178,84.55578 29.6875,126.84375 10.07827,-42.25772 20.10031,-84.52927 29.9375,-126.84375 l 119.1875,0 c -26.26221,110.73099 -52.49625,221.46929 -78.28125,332.3125 l -122.8125,0 c -10.59439,-45.55681 -21.46638,-91.04874 -32.375,-136.53125 -10.66279,45.51136 -21.5615,90.96897 -32,136.53125 l -122.8125,0 c -25.71418,-110.03502 -52.0286,-219.92873 -78.25,-329.84375 l -0.59375,-2.46875 z"
         id="path3931" />
    </clipPath>
    <mask
       maskUnits="userSpaceOnUse"
       id="mask3818">
      <path
         inkscape:export-ydpi="90"
         inkscape:export-xdpi="90"
         transform="matrix(1.2020779,0,0,1.2020779,-93.20363,-75.172466)"
         d="m 483,275.5 a 192.5,192.5 0 1 1 -385,0 192.5,192.5 0 1 1 385,0 z"
         sodipodi:ry="192.5"
         sodipodi:rx="192.5"
         sodipodi:cy="275.5"
         sodipodi:cx="290.5"
         id="path3820"
         style="fill:#ffffff;fill-opacity:1;stroke:none;display:inline"
         sodipodi:type="arc" />
    </mask>
    <linearGradient
       inkscape:collect="always"
       xlink:href="#linearGradient4573"
       id="linearGradient4575"
       x1="408.84314"
       y1="89.26915"
       x2="420.61133"
       y2="138.41306"
       gradientUnits="userSpaceOnUse"
       gradientTransform="matrix(0.99657796,0,0,1,1.2520606,0)" />
    <linearGradient
       inkscape:collect="always"
       xlink:href="#linearGradient4573"
       id="linearGradient6771"
       gradientUnits="userSpaceOnUse"
       gradientTransform="matrix(0.99657796,0,0,1,1.2520606,0)"
       x1="408.84314"
       y1="89.26915"
       x2="420.61133"
       y2="138.41306" />
  </defs>
  <metadata
     id="metadata4713">
    <rdf:RDF>
      <cc:Work
         rdf:about="">
        <dc:format>image/svg+xml</dc:format>
        <dc:type
           rdf:resource="http://purl.org/dc/dcmitype/StillImage" />
        <dc:title></dc:title>
      </cc:Work>
    </rdf:RDF>
  </metadata>
  <g
     id="layer1"
     inkscape:groupmode="layer"
     inkscape:label="Capa 1">
    <path
       style="opacity:1;fill:#c75e00;fill-opacity:1;fill-rule:evenodd;stroke:#f17100;stroke-width:2;stroke-linejoin:round;stroke-miterlimit:4;stroke-dasharray:none;stroke-dashoffset:0;stroke-opacity:1;paint-order:normal"
       d="m 97.583979,29.700195 c -11.07875,0 -19.99804,9.65194 -19.99804,21.64062 V 460.66113 c 0,11.9887 8.91929,21.63867 19.99804,21.63867 H 414.41602 c 11.07874,0 19.99804,-9.64997 19.99804,-21.63867 V 113.7959 c -0.33411,-0.32981 -0.46874,-0.43168 -0.81445,-0.77345 -9.64188,-9.53205 -23.80681,-23.701345 -37.64453,-37.822255 -6.91884,-7.06045 -13.75546,-14.10994 -19.9043,-20.56055 -6.14876,-6.45062 -11.60929,-12.30327 -15.77539,-16.97265 -3.0827,-3.45513 -4.82334,-5.68286 -6.625,-7.9668 z"
       id="path4506"
       inkscape:connector-curvature="0"
       sodipodi:nodetypes="ssssssccccccs" />
    <g
       id="g4584"
       transform="matrix(0.3829248,0,0,0.3829248,74.406719,31.973725)"
       style="fill:#75abd3;fill-opacity:1;stroke:#9dc4df;stroke-opacity:1" />
    <path
       style="opacity:1;fill:#ffffff;fill-opacity:1;fill-rule:evenodd;stroke:#b45500;stroke-width:1.35059643;stroke-linecap:square;stroke-linejoin:miter;stroke-miterlimit:4;stroke-dasharray:none;stroke-dashoffset:0;stroke-opacity:1;paint-order:markers fill stroke"
       d="M 118.59375 380.81641 C 114.61791 380.81641 111.02498 381.34045 107.81641 382.38672 C 104.60783 383.36324 101.85258 384.86197 99.550781 386.88477 C 97.318731 388.83781 95.575841 391.24565 94.320312 394.10547 C 93.064784 396.96528 92.435547 400.24262 92.435547 403.93945 C 92.435547 406.93877 92.820623 409.55506 93.587891 411.78711 C 94.424909 414.01916 95.57428 416.00621 97.039062 417.75 C 98.503845 419.42404 100.24869 420.889 102.27148 422.14453 C 104.36403 423.40006 106.66668 424.4819 109.17773 425.38867 L 115.03516 427.58594 C 115.94193 427.9347 116.81533 428.31782 117.65234 428.73633 C 118.55911 429.08509 119.36108 429.53769 120.05859 430.0957 C 120.75611 430.65372 121.31391 431.35243 121.73242 432.18945 C 122.15093 432.95672 122.35938 433.89765 122.35938 435.01367 C 122.35937 437.66423 121.34897 439.54804 119.32617 440.66406 C 117.37313 441.71034 114.61788 442.23242 111.06055 442.23242 C 106.31744 442.23242 100.73746 440.83889 94.320312 438.04883 C 93.343791 440.90864 92.506109 443.73338 91.808594 446.52344 C 91.111078 449.24375 90.622756 451.82432 90.34375 454.26562 C 94.180086 455.73041 97.737302 456.81225 101.01562 457.50977 C 104.3637 458.20728 108.20079 458.55469 112.52539 458.55469 C 117.2685 458.55469 121.453 457.99688 125.08008 456.88086 C 128.77691 455.69508 131.88152 454.05544 134.39258 451.96289 C 136.90363 449.80059 138.78549 447.25574 140.04102 444.32617 C 141.3663 441.32685 142.0293 437.97808 142.0293 434.28125 C 142.0293 430.86342 141.57669 427.96921 140.66992 425.59766 C 139.76315 423.15635 138.47287 421.09787 136.79883 419.42383 C 135.12479 417.68004 133.10202 416.21507 130.73047 415.0293 C 128.42867 413.77377 125.81238 412.55492 122.88281 411.36914 L 117.86133 409.38086 C 116.04779 408.68334 114.47762 407.84566 113.15234 406.86914 C 111.82706 405.89262 111.16406 404.39389 111.16406 402.37109 C 111.16406 401.18532 111.40822 400.20867 111.89648 399.44141 C 112.38475 398.60439 113.01398 397.97515 113.78125 397.55664 C 114.61827 397.06838 115.52348 396.72097 116.5 396.51172 C 117.54627 396.30246 118.62812 396.19727 119.74414 396.19727 C 123.37122 396.19727 126.40635 396.61611 128.84766 397.45312 C 131.28896 398.29014 133.41498 399.09211 135.22852 399.85938 C 136.34454 397.48782 137.2517 394.97673 137.94922 392.32617 C 138.71649 389.60586 139.24053 387.13049 139.51953 384.89844 C 135.75295 383.57316 132.19573 382.5608 128.84766 381.86328 C 125.56933 381.16577 122.15108 380.81641 118.59375 380.81641 z M 175.88672 401.95117 C 171.49237 401.95117 167.62151 402.64989 164.27344 404.04492 C 160.92536 405.3702 158.10063 407.28777 155.79883 409.79883 C 153.56678 412.30988 151.85765 415.34501 150.67188 418.90234 C 149.55585 422.38992 148.99805 426.26078 148.99805 430.51562 C 148.99805 434.70072 149.55585 438.53586 150.67188 442.02344 C 151.85765 445.44126 153.56678 448.40691 155.79883 450.91797 C 158.10063 453.35927 160.92536 455.24113 164.27344 456.56641 C 167.62151 457.89169 171.49237 458.55469 175.88672 458.55469 C 180.35082 458.55469 184.25739 457.89169 187.60547 456.56641 C 190.95354 455.24113 193.74256 453.35927 195.97461 450.91797 C 198.27641 448.40691 199.98554 445.44126 201.10156 442.02344 C 202.28734 438.53586 202.88086 434.70072 202.88086 430.51562 C 202.88086 426.26078 202.28734 422.38992 201.10156 418.90234 C 199.98554 415.34501 198.27641 412.30988 195.97461 409.79883 C 193.74256 407.28777 190.95354 405.3702 187.60547 404.04492 C 184.25739 402.64989 180.35082 401.95117 175.88672 401.95117 z M 291.14648 401.95117 C 288.00766 401.95117 284.65889 402.09209 281.10156 402.37109 C 277.61398 402.6501 274.23145 402.99751 270.95312 403.41602 L 270.95312 457.19531 C 272.76667 457.54407 274.37059 457.75251 275.76562 457.82227 C 277.16066 457.96177 278.45094 458.03125 279.63672 458.03125 C 280.75274 458.03125 282.04498 457.96177 283.50977 457.82227 C 284.97455 457.75251 286.61224 457.54407 288.42578 457.19531 L 288.42578 416.07617 C 289.1233 415.93667 290.13566 415.86719 291.46094 415.86719 C 293.83249 415.86719 295.54162 416.46071 296.58789 417.64648 C 297.70392 418.76251 298.26172 420.22748 298.26172 422.04102 C 298.26172 423.85456 297.80716 425.56173 296.90039 427.16602 C 295.99362 428.70055 294.32021 430.16552 291.87891 431.56055 L 290.41406 432.39844 L 302.02734 457.08984 C 303.21312 457.36885 304.7138 457.57925 306.52734 457.71875 C 308.34088 457.85825 310.22274 457.92773 312.17578 457.92773 C 313.78007 457.92773 315.41971 457.85825 317.09375 457.71875 C 318.83754 457.57925 320.4077 457.36885 321.80273 457.08984 L 309.875 434.28125 C 310.36326 433.86274 310.99055 433.30494 311.75781 432.60742 C 312.52508 431.90991 313.25756 431.00274 313.95508 429.88672 C 314.65259 428.70094 315.24611 427.30741 315.73438 425.70312 C 316.22264 424.09884 316.4668 422.21503 316.4668 420.05273 C 316.4668 414.33311 314.33883 409.90249 310.08398 406.76367 C 305.89889 403.5551 299.58642 401.95117 291.14648 401.95117 z M 350.71094 401.95117 C 346.38634 401.95117 342.54925 402.64989 339.20117 404.04492 C 335.8531 405.43995 333.02836 407.39324 330.72656 409.9043 C 328.42476 412.3456 326.68187 415.3093 325.49609 418.79688 C 324.31032 422.28445 323.7168 426.12155 323.7168 430.30664 C 323.7168 434.63124 324.31032 438.53586 325.49609 442.02344 C 326.68187 445.44126 328.42476 448.40691 330.72656 450.91797 C 333.09812 453.35927 335.99233 455.24113 339.41016 456.56641 C 342.82798 457.89169 346.77028 458.55469 351.23438 458.55469 C 353.88493 458.55469 356.53499 458.38001 359.18555 458.03125 C 361.83611 457.68249 364.76604 456.88053 367.97461 455.625 C 367.97461 452.62568 367.62525 449.97563 366.92773 447.67383 C 366.23022 445.30228 365.28929 443.17431 364.10352 441.29102 C 362.08072 442.05828 360.30211 442.61609 358.76758 442.96484 C 357.3028 443.3136 355.55795 443.48828 353.53516 443.48828 C 351.93087 443.48828 350.39642 443.27984 348.93164 442.86133 C 347.53661 442.44282 346.28204 441.7441 345.16602 440.76758 C 344.11974 439.79106 343.24634 438.46701 342.54883 436.79297 C 341.92106 435.04918 341.60742 432.88745 341.60742 430.30664 C 341.60742 425.42403 342.68926 422.00578 344.85156 420.05273 C 347.08361 418.02994 349.87458 417.01758 353.22266 417.01758 C 354.12943 417.01758 354.96515 417.0533 355.73242 417.12305 C 356.56944 417.12305 357.40712 417.19253 358.24414 417.33203 C 359.08116 417.47153 359.9526 417.67998 360.85938 417.95898 C 361.8359 418.16824 362.91774 418.48383 364.10352 418.90234 C 365.28929 416.67029 366.16074 414.40336 366.71875 412.10156 C 367.27676 409.73001 367.48521 407.35788 367.3457 404.98633 C 365.67167 404.35856 364.13722 403.83452 362.74219 403.41602 C 361.41691 402.99751 360.09286 402.68386 358.76758 402.47461 C 357.51205 402.26535 356.22176 402.12639 354.89648 402.05664 C 353.5712 401.98689 352.17572 401.95117 350.71094 401.95117 z M 398.11523 401.95117 C 393.65113 401.95117 389.74456 402.71937 386.39648 404.25391 C 383.04841 405.71869 380.25939 407.74146 378.02734 410.32227 C 375.79529 412.90307 374.11993 415.93625 373.00391 419.42383 C 371.88788 422.91141 371.33008 426.6433 371.33008 430.61914 C 371.33008 434.66473 371.85412 438.39663 372.90039 441.81445 C 374.01642 445.23228 375.68983 448.19793 377.92188 450.70898 C 380.22368 453.15029 383.15361 455.06786 386.71094 456.46289 C 390.33802 457.85792 394.66148 458.55469 399.68359 458.55469 C 406.17049 458.55469 412.51867 457.40336 418.72656 455.10156 C 418.65681 452.38125 418.23797 449.76692 417.4707 447.25586 C 416.77319 444.7448 415.93746 442.58112 414.96094 440.76758 C 412.51963 441.7441 410.04231 442.47658 407.53125 442.96484 C 405.02019 443.4531 402.75326 443.69727 400.73047 443.69727 C 397.59165 443.69727 395.04679 443.1057 393.09375 441.91992 C 391.21046 440.73415 389.88445 438.71138 389.11719 435.85156 L 420.92383 435.85156 C 421.06333 434.87504 421.20229 433.65424 421.3418 432.18945 C 421.55105 430.65492 421.65625 428.94579 421.65625 427.0625 C 421.65625 423.43542 421.09845 420.08665 419.98242 417.01758 C 418.93615 413.87876 417.4017 411.2287 415.37891 409.06641 C 413.35611 406.83436 410.87878 405.09147 407.94922 403.83594 C 405.0894 402.58041 401.81207 401.95117 398.11523 401.95117 z M 220.26562 402.26562 C 218.87059 402.26562 217.40758 402.33511 215.87305 402.47461 C 214.40826 402.61411 212.90758 402.85827 211.37305 403.20703 L 211.37305 433.75781 C 211.37305 439.19843 212.10553 443.55761 213.57031 446.83594 C 215.0351 450.04451 216.98838 452.52184 219.42969 454.26562 C 221.94074 455.93966 224.83496 457.05527 228.11328 457.61328 C 231.3916 458.17129 234.80986 458.45117 238.36719 458.45117 C 240.25048 458.45117 242.16805 458.34597 244.12109 458.13672 C 246.07414 457.92746 247.95794 457.64759 249.77148 457.29883 C 251.65478 456.88032 253.39767 456.46343 255.00195 456.04492 C 256.67599 455.62641 258.10719 455.20757 259.29297 454.78906 L 259.29297 403.20703 C 257.82819 402.85827 256.3275 402.61411 254.79297 402.47461 C 253.25843 402.33511 251.82919 402.26562 250.50391 402.26562 C 249.10888 402.26562 247.64391 402.33511 246.10938 402.47461 C 244.64459 402.61411 243.14586 402.85827 241.61133 403.20703 L 241.61133 442.86133 C 241.33232 442.93108 240.87776 443.00056 240.25 443.07031 C 239.62224 443.14006 238.71507 443.17578 237.5293 443.17578 C 234.66948 443.17578 232.54347 442.40758 231.14844 440.87305 C 229.75341 439.33851 229.05469 436.47806 229.05469 432.29297 L 229.05469 403.20703 C 227.5899 402.85827 226.09117 402.61411 224.55664 402.47461 C 223.02211 402.33511 221.5909 402.26562 220.26562 402.26562 z M 397.48633 415.24023 C 400.06714 415.24023 402.02042 416.07596 403.3457 417.75 C 404.74073 419.35429 405.50893 421.37705 405.64844 423.81836 L 388.9082 423.81836 C 389.18721 420.88879 390.12814 418.72706 391.73242 417.33203 C 393.33671 415.937 395.25428 415.24023 397.48633 415.24023 z M 175.88672 416.70508 C 178.95579 416.70508 181.22272 417.89017 182.6875 420.26172 C 184.22203 422.63327 184.98828 426.05153 184.98828 430.51562 C 184.98828 434.90997 184.22203 438.29251 182.6875 440.66406 C 181.22272 443.03562 178.95579 444.2207 175.88672 444.2207 C 172.81765 444.2207 170.55072 443.03562 169.08594 440.66406 C 167.62115 438.29251 166.88867 434.90997 166.88867 430.51562 C 166.88867 426.05153 167.62115 422.63327 169.08594 420.26172 C 170.55072 417.89017 172.81765 416.70508 175.88672 416.70508 z "
       id="rect4610" />
    <path
       style="opacity:1;fill:url(#linearGradient6771);fill-opacity:1;fill-rule:evenodd;stroke:none;stroke-width:8.77774811;stroke-linecap:square;stroke-linejoin:miter;stroke-miterlimit:4;stroke-dasharray:none;stroke-dashoffset:0;stroke-opacity:1;paint-order:markers fill stroke"
       d="m 433.28939,182.37584 v -69.47028 c 0,-0.0394 -0.0309,-0.0705 -0.0703,-0.0705 h -67.33747 c 4.09851,4.50878 8.40749,9.2132 13.77948,14.86279 7.205,7.57734 15.21697,15.8602 23.32513,24.15489 11.13885,11.3951 20.83136,21.05949 30.30308,30.52302 z"
       id="path4566"
       inkscape:connector-curvature="0" />
    <path
       style="opacity:1;fill:#f17100;fill-opacity:1;fill-rule:evenodd;stroke:none;stroke-width:1.05391276;stroke-linejoin:round;stroke-miterlimit:4;stroke-dasharray:none;stroke-dashoffset:0;stroke-opacity:1;paint-order:normal"
       d="m 435.00048,114.60612 c -1.83541,-2.30475 -3.6077,-4.55306 -6.74972,-8.04125 -4.24635,-4.71409 -9.8132,-10.623129 -16.08223,-17.137261 C 405.8996,82.913483 398.92921,75.794273 391.8744,68.663457 377.76477,54.401804 363.32068,40.090503 353.48814,30.462087 c -0.35278,-0.345219 -0.4898,-0.448268 -0.83055,-0.781422 l -0.24394,62.802323 c -0.0467,12.055462 9.04538,21.800782 20.38588,21.850482 z"
       id="rect4485"
       inkscape:connector-curvature="0" />
    <g
       id="g4735"
       transform="matrix(0.67569786,0,0,0.67569786,153.7192,95.680712)"
       style="fill:#fffcf9;fill-opacity:1">
      <path
         id="path4704"
         d="m 102.681,291.324 c 0,0 -14.178,8.245 10.09,11.035 29.4,3.354 44.426,2.873 76.825,-3.259 0,0 8.518,5.341 20.414,9.967 -72.63,31.128 -164.376,-1.803 -107.329,-17.743"
         style="fill:#fffcf9;fill-opacity:1"
         inkscape:connector-curvature="0" />
      <path
         id="path4706"
         d="m 93.806,250.704 c 0,0 -15.902,11.771 8.384,14.283 31.406,3.24 56.208,3.505 99.125,-4.759 0,0 5.936,6.018 15.27,9.309 -87.814,25.678 -185.623,2.025 -122.779,-18.833"
         style="fill:#fffcf9;fill-opacity:1"
         inkscape:connector-curvature="0" />
      <path
         id="path4708"
         d="m 168.625,181.799 c 17.896,20.604 -4.702,39.145 -4.702,39.145 0,0 45.441,-23.458 24.572,-52.833 -19.491,-27.394 -34.438,-41.005 46.479,-87.934 0,0 -127.013,31.722 -66.349,101.622"
         style="fill:#fffcf9;fill-opacity:1"
         inkscape:connector-curvature="0" />
      <path
         id="path4710"
         d="m 264.684,321.369 c 0,0 10.492,8.645 -11.555,15.333 -41.923,12.7 -174.488,16.535 -211.314,0.506 -13.238,-5.759 11.587,-13.751 19.396,-15.428 8.144,-1.766 12.798,-1.437 12.798,-1.437 -14.722,-10.371 -95.157,20.364 -40.857,29.166 148.084,24.015 269.943,-10.814 231.532,-28.14"
         style="fill:#fffcf9;fill-opacity:1"
         inkscape:connector-curvature="0" />
      <path
         id="path4712"
         d="m 109.499,208.617 c 0,0 -67.431,16.016 -23.879,21.832 18.389,2.462 55.047,1.905 89.193,-0.956 27.906,-2.354 55.927,-7.359 55.927,-7.359 0,0 -9.84,4.214 -16.959,9.075 -68.475,18.009 -200.756,9.631 -162.674,-8.79 32.206,-15.568 58.392,-13.802 58.392,-13.802"
         style="fill:#fffcf9;fill-opacity:1"
         inkscape:connector-curvature="0" />
      <path
         id="path4714"
         d="m 230.462,276.231 c 69.608,-36.171 37.424,-70.931 14.96,-66.248 -5.506,1.146 -7.961,2.139 -7.961,2.139 0,0 2.044,-3.202 5.948,-4.588 44.441,-15.624 78.619,46.081 -14.346,70.52 0,0.001 1.077,-0.962 1.399,-1.823"
         style="fill:#fffcf9;fill-opacity:1"
         inkscape:connector-curvature="0" />
      <path
         id="path4716"
         d="m 188.495,4.399 c 0,0 38.55,38.563 -36.563,97.862 -60.233,47.568 -13.735,74.69 -0.025,105.678 C 116.748,176.217 90.946,148.292 108.256,122.302 133.663,84.151 204.049,65.654 188.495,4.399"
         style="fill:#fffcf9;fill-opacity:1"
         inkscape:connector-curvature="0" />
      <path
         id="path4718"
         d="m 116.339,374.246 c 66.815,4.277 169.417,-2.373 171.847,-33.988 0,0 -4.671,11.985 -55.219,21.503 -57.028,10.732 -127.364,9.479 -169.081,2.601 10e-4,-0.001 8.54,7.068 52.453,9.884"
         style="fill:#fffcf9;fill-opacity:1"
         inkscape:connector-curvature="0" />
    </g>
  </g>
</svg>
