<?xml version="1.0" encoding="UTF-8" standalone="no"?>
<!-- Created with Inkscape (http://www.inkscape.org/) -->

<svg
   xmlns:osb="http://www.openswatchbook.org/uri/2009/osb"
   xmlns:dc="http://purl.org/dc/elements/1.1/"
   xmlns:cc="http://creativecommons.org/ns#"
   xmlns:rdf="http://www.w3.org/1999/02/22-rdf-syntax-ns#"
   xmlns:svg="http://www.w3.org/2000/svg"
   xmlns="http://www.w3.org/2000/svg"
   xmlns:xlink="http://www.w3.org/1999/xlink"
   xmlns:sodipodi="http://sodipodi.sourceforge.net/DTD/sodipodi-0.dtd"
   xmlns:inkscape="http://www.inkscape.org/namespaces/inkscape"
   width="512px"
   height="512px"
   viewBox="0 0 512 512"
   version="1.1"
   id="SVGRoot"
   inkscape:version="0.92.1 r15371"
   sodipodi:docname="java.svg">
  <sodipodi:namedview
     id="base"
     pagecolor="#ffffff"
     bordercolor="#666666"
     borderopacity="1.0"
     inkscape:pageopacity="0.0"
     inkscape:pageshadow="2"
     inkscape:zoom="1.4142136"
     inkscape:cx="210.34429"
     inkscape:cy="269.95263"
     inkscape:document-units="px"
     inkscape:current-layer="layer1"
     showgrid="false"
     inkscape:window-width="1280"
     inkscape:window-height="947"
     inkscape:window-x="0"
     inkscape:window-y="0"
     inkscape:window-maximized="1" />
  <defs
     id="defs4710">
    <linearGradient
       inkscape:collect="always"
       id="linearGradient4573">
      <stop
         style="stop-color:#181818;stop-opacity:0.30645162"
         offset="0"
         id="stop4569" />
      <stop
         style="stop-color:#404040;stop-opacity:0"
         offset="1"
         id="stop4571" />
    </linearGradient>
    <marker
       inkscape:stockid="DotM"
       orient="auto"
       refY="0.0"
       refX="0.0"
       id="DotM"
       style="overflow:visible"
       inkscape:isstock="true">
      <path
         id="path4618"
         d="M -2.5,-1.0 C -2.5,1.7600000 -4.7400000,4.0 -7.5,4.0 C -10.260000,4.0 -12.5,1.7600000 -12.5,-1.0 C -12.5,-3.7600000 -10.260000,-6.0 -7.5,-6.0 C -4.7400000,-6.0 -2.5,-3.7600000 -2.5,-1.0 z "
         style="fill-rule:evenodd;stroke:#000000;stroke-width:1.0pt"
         transform="scale(0.4) translate(7.4, 1)" />
    </marker>
    <linearGradient
       osb:paint="solid"
       id="linearGradient5207">
      <stop
         id="stop5209"
         offset="0"
         style="stop-color:#000015;stop-opacity:1;" />
    </linearGradient>
    <clipPath
       id="clipPath3006-9-8"
       clipPathUnits="userSpaceOnUse">
      <path
         inkscape:export-ydpi="90"
         inkscape:export-xdpi="90"
         transform="matrix(1.2020779,0,0,1.2020779,-93.20363,-75.172465)"
         d="m 483,275.5 a 192.5,192.5 0 1 1 -385,0 192.5,192.5 0 1 1 385,0 z"
         sodipodi:ry="192.5"
         sodipodi:rx="192.5"
         sodipodi:cy="275.5"
         sodipodi:cx="290.5"
         id="path3008-1-1"
         style="fill:#ffffff;fill-opacity:1;stroke:none;display:inline"
         sodipodi:type="arc" />
    </clipPath>
    <mask
       id="mask3818-4"
       maskUnits="userSpaceOnUse">
      <path
         sodipodi:type="arc"
         style="fill:#ffffff;fill-opacity:1;stroke:none;display:inline"
         id="path3820-9"
         sodipodi:cx="290.5"
         sodipodi:cy="275.5"
         sodipodi:rx="192.5"
         sodipodi:ry="192.5"
         d="m 483,275.5 a 192.5,192.5 0 1 1 -385,0 192.5,192.5 0 1 1 385,0 z"
         transform="matrix(1.2020779,0,0,1.2020779,-93.20363,-75.172466)"
         inkscape:export-xdpi="90"
         inkscape:export-ydpi="90" />
    </mask>
    <clipPath
       id="clipPath3006"
       clipPathUnits="userSpaceOnUse">
      <path
         inkscape:export-ydpi="90"
         inkscape:export-xdpi="90"
         transform="matrix(1.2020779,0,0,1.2020779,-93.20363,-75.172465)"
         d="m 483,275.5 a 192.5,192.5 0 1 1 -385,0 192.5,192.5 0 1 1 385,0 z"
         sodipodi:ry="192.5"
         sodipodi:rx="192.5"
         sodipodi:cy="275.5"
         sodipodi:cx="290.5"
         id="path3008"
         style="fill:#ffffff;fill-opacity:1;stroke:none;display:inline"
         sodipodi:type="arc" />
    </clipPath>
    <clipPath
       id="clipPath3006-9"
       clipPathUnits="userSpaceOnUse">
      <path
         inkscape:export-ydpi="90"
         inkscape:export-xdpi="90"
         transform="matrix(1.2020779,0,0,1.2020779,-93.20363,-75.172465)"
         d="m 483,275.5 a 192.5,192.5 0 1 1 -385,0 192.5,192.5 0 1 1 385,0 z"
         sodipodi:ry="192.5"
         sodipodi:rx="192.5"
         sodipodi:cy="275.5"
         sodipodi:cx="290.5"
         id="path3008-1"
         style="fill:#ffffff;fill-opacity:1;stroke:none;display:inline"
         sodipodi:type="arc" />
    </clipPath>
    <mask
       maskUnits="userSpaceOnUse"
       id="mask3818-0">
      <path
         inkscape:export-ydpi="90"
         inkscape:export-xdpi="90"
         transform="matrix(1.2020779,0,0,1.2020779,-93.20363,-75.172466)"
         d="m 483,275.5 a 192.5,192.5 0 1 1 -385,0 192.5,192.5 0 1 1 385,0 z"
         sodipodi:ry="192.5"
         sodipodi:rx="192.5"
         sodipodi:cy="275.5"
         sodipodi:cx="290.5"
         id="path3820-8"
         style="fill:#ffffff;fill-opacity:1;stroke:none;display:inline"
         sodipodi:type="arc" />
    </mask>
    <mask
       maskUnits="userSpaceOnUse"
       id="mask3818-2">
      <path
         inkscape:export-ydpi="90"
         inkscape:export-xdpi="90"
         transform="matrix(1.2020779,0,0,1.2020779,-93.20363,-75.172466)"
         d="m 483,275.5 a 192.5,192.5 0 1 1 -385,0 192.5,192.5 0 1 1 385,0 z"
         sodipodi:ry="192.5"
         sodipodi:rx="192.5"
         sodipodi:cy="275.5"
         sodipodi:cx="290.5"
         id="path3820-2-2"
         style="fill:#ffffff;fill-opacity:1;stroke:none;display:inline"
         sodipodi:type="arc" />
    </mask>
    <clipPath
       id="clipPath3934"
       clipPathUnits="userSpaceOnUse">
      <path
         id="path3936"
         d="m 0,0 0,1024 1024,0 L 1024,0 0,0 z m 278.4375,333.84375 119.78125,0 c 9.83697,42.31453 19.85954,84.58596 29.9375,126.84375 9.86978,-42.28798 20.05132,-84.50237 29.6875,-126.84375 l 108.90625,0 c 9.63586,42.34141 19.8178,84.55578 29.6875,126.84375 10.07827,-42.25772 20.10031,-84.52927 29.9375,-126.84375 l 119.1875,0 c -26.26221,110.73099 -52.49625,221.46929 -78.28125,332.3125 l -122.8125,0 c -10.59439,-45.55681 -21.46638,-91.04874 -32.375,-136.53125 -10.66279,45.51136 -21.5615,90.96897 -32,136.53125 l -122.8125,0 c -25.71418,-110.03502 -52.0286,-219.92873 -78.25,-329.84375 l -0.59375,-2.46875 z"
         style="fill:#ff3232;fill-opacity:1;stroke:none"
         inkscape:connector-curvature="0" />
    </clipPath>
    <clipPath
       id="clipPath3929"
       clipPathUnits="userSpaceOnUse">
      <path
         inkscape:connector-curvature="0"
         style="fill:#ff3232;fill-opacity:1;stroke:none"
         d="m 0,0 0,1024 1024,0 L 1024,0 0,0 z m 278.4375,333.84375 119.78125,0 c 9.83697,42.31453 19.85954,84.58596 29.9375,126.84375 9.86978,-42.28798 20.05132,-84.50237 29.6875,-126.84375 l 108.90625,0 c 9.63586,42.34141 19.8178,84.55578 29.6875,126.84375 10.07827,-42.25772 20.10031,-84.52927 29.9375,-126.84375 l 119.1875,0 c -26.26221,110.73099 -52.49625,221.46929 -78.28125,332.3125 l -122.8125,0 c -10.59439,-45.55681 -21.46638,-91.04874 -32.375,-136.53125 -10.66279,45.51136 -21.5615,90.96897 -32,136.53125 l -122.8125,0 c -25.71418,-110.03502 -52.0286,-219.92873 -78.25,-329.84375 l -0.59375,-2.46875 z"
         id="path3931" />
    </clipPath>
    <mask
       maskUnits="userSpaceOnUse"
       id="mask3818">
      <path
         inkscape:export-ydpi="90"
         inkscape:export-xdpi="90"
         transform="matrix(1.2020779,0,0,1.2020779,-93.20363,-75.172466)"
         d="m 483,275.5 a 192.5,192.5 0 1 1 -385,0 192.5,192.5 0 1 1 385,0 z"
         sodipodi:ry="192.5"
         sodipodi:rx="192.5"
         sodipodi:cy="275.5"
         sodipodi:cx="290.5"
         id="path3820"
         style="fill:#ffffff;fill-opacity:1;stroke:none;display:inline"
         sodipodi:type="arc" />
    </mask>
    <linearGradient
       inkscape:collect="always"
       xlink:href="#linearGradient4573"
       id="linearGradient4575"
       x1="408.84314"
       y1="89.26915"
       x2="420.61133"
       y2="138.41306"
       gradientUnits="userSpaceOnUse"
       gradientTransform="matrix(0.99657796,0,0,1,1.2520606,0)" />
    <linearGradient
       inkscape:collect="always"
       xlink:href="#linearGradient4573"
       id="linearGradient6771"
       gradientUnits="userSpaceOnUse"
       gradientTransform="matrix(0.99657796,0,0,1,1.2520606,0)"
       x1="408.84314"
       y1="89.26915"
       x2="420.61133"
       y2="138.41306" />
  </defs>
  <metadata
     id="metadata4713">
    <rdf:RDF>
      <cc:Work
         rdf:about="">
        <dc:format>image/svg+xml</dc:format>
        <dc:type
           rdf:resource="http://purl.org/dc/dcmitype/StillImage" />
        <dc:title></dc:title>
      </cc:Work>
    </rdf:RDF>
  </metadata>
  <g
     id="layer1"
     inkscape:groupmode="layer"
     inkscape:label="Capa 1">
    <path
       style="opacity:1;fill:#c75e00;fill-opacity:1;fill-rule:evenodd;stroke:#f17100;stroke-width:2;stroke-linejoin:round;stroke-miterlimit:4;stroke-dasharray:none;stroke-dashoffset:0;stroke-opacity:1;paint-order:normal"
       d="m 97.583979,29.700195 c -11.07875,0 -19.99804,9.65194 -19.99804,21.64062 V 460.66113 c 0,11.9887 8.91929,21.63867 19.99804,21.63867 H 414.41602 c 11.07874,0 19.99804,-9.64997 19.99804,-21.63867 V 113.7959 c -0.33411,-0.32981 -0.46874,-0.43168 -0.81445,-0.77345 -9.64188,-9.53205 -23.80681,-23.701345 -37.64453,-37.822255 -6.91884,-7.06045 -13.75546,-14.10994 -19.9043,-20.56055 -6.14876,-6.45062 -11.60929,-12.30327 -15.77539,-16.97265 -3.0827,-3.45513 -4.82334,-5.68286 -6.625,-7.9668 z"
       id="path4506"
       inkscape:connector-curvature="0"
       sodipodi:nodetypes="ssssssccccccs" />
    <g
       id="g4584"
       transform="matrix(0.3829248,0,0,0.3829248,74.406719,31.973725)"
       style="fill:#75abd3;fill-opacity:1;stroke:#9dc4df;stroke-opacity:1" />
    <path
       style="opacity:1;fill:#ffffff;fill-opacity:1;fill-rule:evenodd;stroke:#b45500;stroke-width:1.14248979;stroke-linecap:square;stroke-linejoin:miter;stroke-miterlimit:4;stroke-dasharray:none;stroke-dashoffset:0;stroke-opacity:1;paint-order:markers fill stroke"
       d="M 221.78125 401.95117 C 219.13069 401.95117 216.13128 402.23105 212.7832 402.78906 C 209.50488 403.34707 206.19182 404.18476 202.84375 405.30078 C 202.84375 406.69581 202.87751 407.95038 202.94727 409.06641 C 203.08677 410.11268 203.26145 411.1588 203.4707 412.20508 C 203.74971 413.1816 204.09907 414.15824 204.51758 415.13477 C 205.00584 416.11129 205.56364 417.19313 206.19141 418.37891 C 208.56296 417.54189 210.86561 416.94837 213.09766 416.59961 C 215.32971 416.1811 217.28299 415.97266 218.95703 415.97266 C 220.21256 415.97266 221.43141 416.0759 222.61719 416.28516 C 223.80296 416.42466 224.88481 416.7383 225.86133 417.22656 C 226.83785 417.64507 227.63981 418.27431 228.26758 419.11133 C 228.89534 419.94835 229.2447 420.99447 229.31445 422.25 L 222.93164 422.25 C 220.28108 422.25 217.56155 422.52793 214.77148 423.08594 C 211.98142 423.5742 209.43461 424.48136 207.13281 425.80664 C 204.83101 427.13192 202.94916 428.91053 201.48438 431.14258 C 200.01959 433.37463 199.28711 436.19936 199.28711 439.61719 C 199.28711 443.10477 199.87868 446.07041 201.06445 448.51172 C 202.31998 450.88327 204.02911 452.80084 206.19141 454.26562 C 208.3537 455.73041 210.93428 456.77653 213.93359 457.4043 C 217.00266 458.10181 220.35143 458.45117 223.97852 458.45117 C 228.16361 458.45117 232.13967 458.0661 235.90625 457.29883 C 239.67283 456.53156 242.88069 455.76531 245.53125 454.99805 L 245.53125 424.3418 C 245.53125 420.43571 244.97345 417.08694 243.85742 414.29688 C 242.7414 411.43706 241.13747 409.10065 239.04492 407.28711 C 237.02213 405.47357 234.5448 404.14952 231.61523 403.3125 C 228.68567 402.40573 225.40833 401.95117 221.78125 401.95117 z M 330.49609 401.95117 C 327.84553 401.95117 324.84612 402.23105 321.49805 402.78906 C 318.21972 403.34707 314.90667 404.18476 311.55859 405.30078 C 311.55859 406.69581 311.59236 407.95038 311.66211 409.06641 C 311.80161 410.11268 311.97629 411.1588 312.18555 412.20508 C 312.46455 413.1816 312.81391 414.15824 313.23242 415.13477 C 313.72068 416.11129 314.27849 417.19313 314.90625 418.37891 C 317.2778 417.54189 319.5785 416.94837 321.81055 416.59961 C 324.0426 416.1811 325.99588 415.97266 327.66992 415.97266 C 328.92545 415.97266 330.14625 416.0759 331.33203 416.28516 C 332.51781 416.42466 333.59965 416.7383 334.57617 417.22656 C 335.55269 417.64507 336.35466 418.27431 336.98242 419.11133 C 337.61019 419.94835 337.95955 420.99447 338.0293 422.25 L 331.64648 422.25 C 328.99593 422.25 326.27639 422.52793 323.48633 423.08594 C 320.69627 423.5742 318.14946 424.48136 315.84766 425.80664 C 313.54585 427.13192 311.66205 428.91053 310.19727 431.14258 C 308.73248 433.37463 308 436.19936 308 439.61719 C 308 443.10477 308.59352 446.07041 309.7793 448.51172 C 311.03482 450.88327 312.74395 452.80084 314.90625 454.26562 C 317.06855 455.73041 319.64912 456.77653 322.64844 457.4043 C 325.71751 458.10181 329.06628 458.45117 332.69336 458.45117 C 336.87845 458.45117 340.85451 458.0661 344.62109 457.29883 C 348.38768 456.53156 351.59553 455.76531 354.24609 454.99805 L 354.24609 424.3418 C 354.24609 420.43571 353.68829 417.08694 352.57227 414.29688 C 351.45624 411.43706 349.85231 409.10065 347.75977 407.28711 C 345.73697 405.47357 343.25964 404.14952 340.33008 403.3125 C 337.40051 402.40573 334.12317 401.95117 330.49609 401.95117 z M 259.34766 402.58008 C 257.04585 402.58008 254.88412 402.64956 252.86133 402.78906 C 250.90828 402.92857 249.54656 403.06753 248.7793 403.20703 L 268.86914 457.08984 C 270.05492 457.4386 271.37897 457.649 272.84375 457.71875 C 274.30853 457.85825 275.73973 457.92773 277.13477 457.92773 C 278.5298 457.92773 279.95905 457.85825 281.42383 457.71875 C 282.95836 457.649 284.45709 457.4386 285.92188 457.08984 L 306.42969 403.20703 C 305.66242 403.06753 304.26694 402.92857 302.24414 402.78906 C 300.2911 402.64956 298.16313 402.58008 295.86133 402.58008 C 294.04779 402.58008 292.26918 402.64956 290.52539 402.78906 C 288.7816 402.92857 287.63223 403.06753 287.07422 403.20703 C 285.53968 408.4384 284.00524 413.80994 282.4707 419.32031 C 281.00592 424.83069 279.47147 430.27171 277.86719 435.64258 L 268.3457 403.20703 C 267.78769 403.06753 266.60065 402.92857 264.78711 402.78906 C 262.97357 402.64956 261.1612 402.58008 259.34766 402.58008 z M 162.98633 403.20703 C 162.63757 404.60206 162.39341 405.89235 162.25391 407.07812 C 162.18415 408.2639 162.14844 409.41523 162.14844 410.53125 C 162.14844 411.64727 162.18415 412.83236 162.25391 414.08789 C 162.39341 415.27367 162.63757 416.56395 162.98633 417.95898 L 173.44727 417.95898 L 173.44727 435.43164 C 173.44727 437.31493 173.20506 438.7799 172.7168 439.82617 C 172.29829 440.87245 171.70477 441.67441 170.9375 442.23242 C 170.23998 442.72068 169.43802 443.03628 168.53125 443.17578 C 167.69423 443.24553 166.89227 443.2793 166.125 443.2793 C 165.77624 443.2793 165.28792 443.24553 164.66016 443.17578 C 164.10214 443.10603 163.47291 443.0346 162.77539 442.96484 C 162.14763 442.89509 161.55606 442.82561 160.99805 442.75586 L 159.74219 442.44336 C 159.11442 444.3964 158.6261 446.27826 158.27734 448.0918 C 157.92859 449.90534 157.75391 451.71966 157.75391 453.5332 L 157.75391 455.20703 C 157.82366 455.69529 157.89314 456.21933 157.96289 456.77734 C 160.05544 457.47486 162.04444 457.92746 163.92773 458.13672 C 165.88078 458.41572 167.37951 458.55469 168.42578 458.55469 C 171.63435 458.55469 174.6 458.13585 177.32031 457.29883 C 180.11037 456.53156 182.51627 455.27699 184.53906 453.5332 C 186.63161 451.78941 188.23554 449.52248 189.35156 446.73242 C 190.53734 443.87261 191.13086 440.45435 191.13086 436.47852 L 191.13086 403.20703 L 162.98633 403.20703 z M 223.34961 433.33984 L 229.31445 433.33984 L 229.31445 444.84961 C 228.75644 444.98911 227.885 445.12808 226.69922 445.26758 C 225.51344 445.40708 224.60628 445.47656 223.97852 445.47656 C 223.07175 445.47656 222.05938 445.40708 220.94336 445.26758 C 219.89709 445.12808 218.88668 444.8482 217.91016 444.42969 C 217.00339 444.01118 216.23519 443.41961 215.60742 442.65234 C 214.97966 441.81533 214.66602 440.69972 214.66602 439.30469 C 214.66602 437.4214 215.5037 435.95643 217.17773 434.91016 C 218.85177 433.86388 220.9083 433.33984 223.34961 433.33984 z M 332.06445 433.33984 L 338.0293 433.33984 L 338.0293 444.84961 C 337.47128 444.98911 336.59789 445.12808 335.41211 445.26758 C 334.22633 445.40708 333.32112 445.47656 332.69336 445.47656 C 331.78659 445.47656 330.77423 445.40708 329.6582 445.26758 C 328.61193 445.12808 327.60152 444.8482 326.625 444.42969 C 325.71823 444.01118 324.95003 443.41961 324.32227 442.65234 C 323.6945 441.81533 323.38086 440.69972 323.38086 439.30469 C 323.38086 437.4214 324.21854 435.95643 325.89258 434.91016 C 327.56662 433.86388 329.62315 433.33984 332.06445 433.33984 z "
       id="rect4610" />
    <path
       style="opacity:1;fill:url(#linearGradient6771);fill-opacity:1;fill-rule:evenodd;stroke:none;stroke-width:8.77774811;stroke-linecap:square;stroke-linejoin:miter;stroke-miterlimit:4;stroke-dasharray:none;stroke-dashoffset:0;stroke-opacity:1;paint-order:markers fill stroke"
       d="m 433.28939,182.37584 v -69.47028 c 0,-0.0394 -0.0309,-0.0705 -0.0703,-0.0705 h -67.33747 c 4.09851,4.50878 8.40749,9.2132 13.77948,14.86279 7.205,7.57734 15.21697,15.8602 23.32513,24.15489 11.13885,11.3951 20.83136,21.05949 30.30308,30.52302 z"
       id="path4566"
       inkscape:connector-curvature="0" />
    <path
       style="opacity:1;fill:#f17100;fill-opacity:1;fill-rule:evenodd;stroke:none;stroke-width:1.05391276;stroke-linejoin:round;stroke-miterlimit:4;stroke-dasharray:none;stroke-dashoffset:0;stroke-opacity:1;paint-order:normal"
       d="m 435.00048,114.60612 c -1.83541,-2.30475 -3.6077,-4.55306 -6.74972,-8.04125 -4.24635,-4.71409 -9.8132,-10.623129 -16.08223,-17.137261 C 405.8996,82.913483 398.92921,75.794273 391.8744,68.663457 377.76477,54.401804 363.32068,40.090503 353.48814,30.462087 c -0.35278,-0.345219 -0.4898,-0.448268 -0.83055,-0.781422 l -0.24394,62.802323 c -0.0467,12.055462 9.04538,21.800782 20.38588,21.850482 z"
       id="rect4485"
       inkscape:connector-curvature="0" />
    <g
       id="g4735"
       transform="matrix(0.67569786,0,0,0.67569786,153.7192,95.680712)"
       style="fill:#fffcf9;fill-opacity:1">
      <path
         id="path4704"
         d="m 102.681,291.324 c 0,0 -14.178,8.245 10.09,11.035 29.4,3.354 44.426,2.873 76.825,-3.259 0,0 8.518,5.341 20.414,9.967 -72.63,31.128 -164.376,-1.803 -107.329,-17.743"
         style="fill:#fffcf9;fill-opacity:1"
         inkscape:connector-curvature="0" />
      <path
         id="path4706"
         d="m 93.806,250.704 c 0,0 -15.902,11.771 8.384,14.283 31.406,3.24 56.208,3.505 99.125,-4.759 0,0 5.936,6.018 15.27,9.309 -87.814,25.678 -185.623,2.025 -122.779,-18.833"
         style="fill:#fffcf9;fill-opacity:1"
         inkscape:connector-curvature="0" />
      <path
         id="path4708"
         d="m 168.625,181.799 c 17.896,20.604 -4.702,39.145 -4.702,39.145 0,0 45.441,-23.458 24.572,-52.833 -19.491,-27.394 -34.438,-41.005 46.479,-87.934 0,0 -127.013,31.722 -66.349,101.622"
         style="fill:#fffcf9;fill-opacity:1"
         inkscape:connector-curvature="0" />
      <path
         id="path4710"
         d="m 264.684,321.369 c 0,0 10.492,8.645 -11.555,15.333 -41.923,12.7 -174.488,16.535 -211.314,0.506 -13.238,-5.759 11.587,-13.751 19.396,-15.428 8.144,-1.766 12.798,-1.437 12.798,-1.437 -14.722,-10.371 -95.157,20.364 -40.857,29.166 148.084,24.015 269.943,-10.814 231.532,-28.14"
         style="fill:#fffcf9;fill-opacity:1"
         inkscape:connector-curvature="0" />
      <path
         id="path4712"
         d="m 109.499,208.617 c 0,0 -67.431,16.016 -23.879,21.832 18.389,2.462 55.047,1.905 89.193,-0.956 27.906,-2.354 55.927,-7.359 55.927,-7.359 0,0 -9.84,4.214 -16.959,9.075 -68.475,18.009 -200.756,9.631 -162.674,-8.79 32.206,-15.568 58.392,-13.802 58.392,-13.802"
         style="fill:#fffcf9;fill-opacity:1"
         inkscape:connector-curvature="0" />
      <path
         id="path4714"
         d="m 230.462,276.231 c 69.608,-36.171 37.424,-70.931 14.96,-66.248 -5.506,1.146 -7.961,2.139 -7.961,2.139 0,0 2.044,-3.202 5.948,-4.588 44.441,-15.624 78.619,46.081 -14.346,70.52 0,0.001 1.077,-0.962 1.399,-1.823"
         style="fill:#fffcf9;fill-opacity:1"
         inkscape:connector-curvature="0" />
      <path
         id="path4716"
         d="m 188.495,4.399 c 0,0 38.55,38.563 -36.563,97.862 -60.233,47.568 -13.735,74.69 -0.025,105.678 C 116.748,176.217 90.946,148.292 108.256,122.302 133.663,84.151 204.049,65.654 188.495,4.399"
         style="fill:#fffcf9;fill-opacity:1"
         inkscape:connector-curvature="0" />
      <path
         id="path4718"
         d="m 116.339,374.246 c 66.815,4.277 169.417,-2.373 171.847,-33.988 0,0 -4.671,11.985 -55.219,21.503 -57.028,10.732 -127.364,9.479 -169.081,2.601 10e-4,-0.001 8.54,7.068 52.453,9.884"
         style="fill:#fffcf9;fill-opacity:1"
         inkscape:connector-curvature="0" />
    </g>
  </g>
</svg>
