<?xml version="1.0" encoding="UTF-8" standalone="no"?>
<!-- Created with Inkscape (http://www.inkscape.org/) -->

<svg
   xmlns:osb="http://www.openswatchbook.org/uri/2009/osb"
   xmlns:dc="http://purl.org/dc/elements/1.1/"
   xmlns:cc="http://creativecommons.org/ns#"
   xmlns:rdf="http://www.w3.org/1999/02/22-rdf-syntax-ns#"
   xmlns:svg="http://www.w3.org/2000/svg"
   xmlns="http://www.w3.org/2000/svg"
   xmlns:xlink="http://www.w3.org/1999/xlink"
   xmlns:sodipodi="http://sodipodi.sourceforge.net/DTD/sodipodi-0.dtd"
   xmlns:inkscape="http://www.inkscape.org/namespaces/inkscape"
   width="512px"
   height="512px"
   viewBox="0 0 512 512"
   version="1.1"
   id="SVGRoot"
   inkscape:version="0.92.1 r15371"
   sodipodi:docname="k3b.svg">
  <sodipodi:namedview
     id="base"
     pagecolor="#ffffff"
     bordercolor="#666666"
     borderopacity="1.0"
     inkscape:pageopacity="0.0"
     inkscape:pageshadow="2"
     inkscape:zoom="0.70710678"
     inkscape:cx="345.53432"
     inkscape:cy="427.77914"
     inkscape:document-units="px"
     inkscape:current-layer="layer1"
     showgrid="false"
     inkscape:window-width="1280"
     inkscape:window-height="947"
     inkscape:window-x="0"
     inkscape:window-y="0"
     inkscape:window-maximized="1" />
  <defs
     id="defs4710">
    <linearGradient
       inkscape:collect="always"
       id="linearGradient4573">
      <stop
         style="stop-color:#181818;stop-opacity:0.30645162"
         offset="0"
         id="stop4569" />
      <stop
         style="stop-color:#404040;stop-opacity:0"
         offset="1"
         id="stop4571" />
    </linearGradient>
    <marker
       inkscape:stockid="DotM"
       orient="auto"
       refY="0.0"
       refX="0.0"
       id="DotM"
       style="overflow:visible"
       inkscape:isstock="true">
      <path
         id="path4618"
         d="M -2.5,-1.0 C -2.5,1.7600000 -4.7400000,4.0 -7.5,4.0 C -10.260000,4.0 -12.5,1.7600000 -12.5,-1.0 C -12.5,-3.7600000 -10.260000,-6.0 -7.5,-6.0 C -4.7400000,-6.0 -2.5,-3.7600000 -2.5,-1.0 z "
         style="fill-rule:evenodd;stroke:#000000;stroke-width:1.0pt"
         transform="scale(0.4) translate(7.4, 1)" />
    </marker>
    <linearGradient
       osb:paint="solid"
       id="linearGradient5207">
      <stop
         id="stop5209"
         offset="0"
         style="stop-color:#000015;stop-opacity:1;" />
    </linearGradient>
    <clipPath
       id="clipPath3006-9-8"
       clipPathUnits="userSpaceOnUse">
      <path
         inkscape:export-ydpi="90"
         inkscape:export-xdpi="90"
         transform="matrix(1.2020779,0,0,1.2020779,-93.20363,-75.172465)"
         d="m 483,275.5 a 192.5,192.5 0 1 1 -385,0 192.5,192.5 0 1 1 385,0 z"
         sodipodi:ry="192.5"
         sodipodi:rx="192.5"
         sodipodi:cy="275.5"
         sodipodi:cx="290.5"
         id="path3008-1-1"
         style="fill:#ffffff;fill-opacity:1;stroke:none;display:inline"
         sodipodi:type="arc" />
    </clipPath>
    <mask
       id="mask3818-4"
       maskUnits="userSpaceOnUse">
      <path
         sodipodi:type="arc"
         style="fill:#ffffff;fill-opacity:1;stroke:none;display:inline"
         id="path3820-9"
         sodipodi:cx="290.5"
         sodipodi:cy="275.5"
         sodipodi:rx="192.5"
         sodipodi:ry="192.5"
         d="m 483,275.5 a 192.5,192.5 0 1 1 -385,0 192.5,192.5 0 1 1 385,0 z"
         transform="matrix(1.2020779,0,0,1.2020779,-93.20363,-75.172466)"
         inkscape:export-xdpi="90"
         inkscape:export-ydpi="90" />
    </mask>
    <clipPath
       id="clipPath3006"
       clipPathUnits="userSpaceOnUse">
      <path
         inkscape:export-ydpi="90"
         inkscape:export-xdpi="90"
         transform="matrix(1.2020779,0,0,1.2020779,-93.20363,-75.172465)"
         d="m 483,275.5 a 192.5,192.5 0 1 1 -385,0 192.5,192.5 0 1 1 385,0 z"
         sodipodi:ry="192.5"
         sodipodi:rx="192.5"
         sodipodi:cy="275.5"
         sodipodi:cx="290.5"
         id="path3008"
         style="fill:#ffffff;fill-opacity:1;stroke:none;display:inline"
         sodipodi:type="arc" />
    </clipPath>
    <clipPath
       id="clipPath3006-9"
       clipPathUnits="userSpaceOnUse">
      <path
         inkscape:export-ydpi="90"
         inkscape:export-xdpi="90"
         transform="matrix(1.2020779,0,0,1.2020779,-93.20363,-75.172465)"
         d="m 483,275.5 a 192.5,192.5 0 1 1 -385,0 192.5,192.5 0 1 1 385,0 z"
         sodipodi:ry="192.5"
         sodipodi:rx="192.5"
         sodipodi:cy="275.5"
         sodipodi:cx="290.5"
         id="path3008-1"
         style="fill:#ffffff;fill-opacity:1;stroke:none;display:inline"
         sodipodi:type="arc" />
    </clipPath>
    <mask
       maskUnits="userSpaceOnUse"
       id="mask3818-0">
      <path
         inkscape:export-ydpi="90"
         inkscape:export-xdpi="90"
         transform="matrix(1.2020779,0,0,1.2020779,-93.20363,-75.172466)"
         d="m 483,275.5 a 192.5,192.5 0 1 1 -385,0 192.5,192.5 0 1 1 385,0 z"
         sodipodi:ry="192.5"
         sodipodi:rx="192.5"
         sodipodi:cy="275.5"
         sodipodi:cx="290.5"
         id="path3820-8"
         style="fill:#ffffff;fill-opacity:1;stroke:none;display:inline"
         sodipodi:type="arc" />
    </mask>
    <mask
       maskUnits="userSpaceOnUse"
       id="mask3818-2">
      <path
         inkscape:export-ydpi="90"
         inkscape:export-xdpi="90"
         transform="matrix(1.2020779,0,0,1.2020779,-93.20363,-75.172466)"
         d="m 483,275.5 a 192.5,192.5 0 1 1 -385,0 192.5,192.5 0 1 1 385,0 z"
         sodipodi:ry="192.5"
         sodipodi:rx="192.5"
         sodipodi:cy="275.5"
         sodipodi:cx="290.5"
         id="path3820-2-2"
         style="fill:#ffffff;fill-opacity:1;stroke:none;display:inline"
         sodipodi:type="arc" />
    </mask>
    <clipPath
       id="clipPath3934"
       clipPathUnits="userSpaceOnUse">
      <path
         id="path3936"
         d="m 0,0 0,1024 1024,0 L 1024,0 0,0 z m 278.4375,333.84375 119.78125,0 c 9.83697,42.31453 19.85954,84.58596 29.9375,126.84375 9.86978,-42.28798 20.05132,-84.50237 29.6875,-126.84375 l 108.90625,0 c 9.63586,42.34141 19.8178,84.55578 29.6875,126.84375 10.07827,-42.25772 20.10031,-84.52927 29.9375,-126.84375 l 119.1875,0 c -26.26221,110.73099 -52.49625,221.46929 -78.28125,332.3125 l -122.8125,0 c -10.59439,-45.55681 -21.46638,-91.04874 -32.375,-136.53125 -10.66279,45.51136 -21.5615,90.96897 -32,136.53125 l -122.8125,0 c -25.71418,-110.03502 -52.0286,-219.92873 -78.25,-329.84375 l -0.59375,-2.46875 z"
         style="fill:#ff3232;fill-opacity:1;stroke:none"
         inkscape:connector-curvature="0" />
    </clipPath>
    <clipPath
       id="clipPath3929"
       clipPathUnits="userSpaceOnUse">
      <path
         inkscape:connector-curvature="0"
         style="fill:#ff3232;fill-opacity:1;stroke:none"
         d="m 0,0 0,1024 1024,0 L 1024,0 0,0 z m 278.4375,333.84375 119.78125,0 c 9.83697,42.31453 19.85954,84.58596 29.9375,126.84375 9.86978,-42.28798 20.05132,-84.50237 29.6875,-126.84375 l 108.90625,0 c 9.63586,42.34141 19.8178,84.55578 29.6875,126.84375 10.07827,-42.25772 20.10031,-84.52927 29.9375,-126.84375 l 119.1875,0 c -26.26221,110.73099 -52.49625,221.46929 -78.28125,332.3125 l -122.8125,0 c -10.59439,-45.55681 -21.46638,-91.04874 -32.375,-136.53125 -10.66279,45.51136 -21.5615,90.96897 -32,136.53125 l -122.8125,0 c -25.71418,-110.03502 -52.0286,-219.92873 -78.25,-329.84375 l -0.59375,-2.46875 z"
         id="path3931" />
    </clipPath>
    <mask
       maskUnits="userSpaceOnUse"
       id="mask3818">
      <path
         inkscape:export-ydpi="90"
         inkscape:export-xdpi="90"
         transform="matrix(1.2020779,0,0,1.2020779,-93.20363,-75.172466)"
         d="m 483,275.5 a 192.5,192.5 0 1 1 -385,0 192.5,192.5 0 1 1 385,0 z"
         sodipodi:ry="192.5"
         sodipodi:rx="192.5"
         sodipodi:cy="275.5"
         sodipodi:cx="290.5"
         id="path3820"
         style="fill:#ffffff;fill-opacity:1;stroke:none;display:inline"
         sodipodi:type="arc" />
    </mask>
    <linearGradient
       inkscape:collect="always"
       xlink:href="#linearGradient4573"
       id="linearGradient4575"
       x1="408.84314"
       y1="89.26915"
       x2="420.61133"
       y2="138.41306"
       gradientUnits="userSpaceOnUse"
       gradientTransform="matrix(0.99657796,0,0,1,1.2520606,0)" />
    <linearGradient
       inkscape:collect="always"
       xlink:href="#linearGradient4573"
       id="linearGradient6771"
       gradientUnits="userSpaceOnUse"
       gradientTransform="matrix(0.99657796,0,0,1,1.2520606,0)"
       x1="408.84314"
       y1="89.26915"
       x2="420.61133"
       y2="138.41306" />
  </defs>
  <metadata
     id="metadata4713">
    <rdf:RDF>
      <cc:Work
         rdf:about="">
        <dc:format>image/svg+xml</dc:format>
        <dc:type
           rdf:resource="http://purl.org/dc/dcmitype/StillImage" />
        <dc:title></dc:title>
      </cc:Work>
    </rdf:RDF>
  </metadata>
  <g
     id="layer1"
     inkscape:groupmode="layer"
     inkscape:label="Capa 1">
    <path
       style="opacity:1;fill:#485c66;fill-opacity:1;fill-rule:evenodd;stroke:#7794a1;stroke-width:2;stroke-linejoin:round;stroke-miterlimit:4;stroke-dasharray:none;stroke-dashoffset:0;stroke-opacity:1;paint-order:normal"
       d="m 97.583979,29.700195 c -11.07875,0 -19.99804,9.65194 -19.99804,21.64062 V 460.66113 c 0,11.9887 8.91929,21.63867 19.99804,21.63867 H 414.41602 c 11.07874,0 19.99804,-9.64997 19.99804,-21.63867 V 113.7959 c -0.33411,-0.32981 -0.46874,-0.43168 -0.81445,-0.77345 -9.64188,-9.53205 -23.80681,-23.701345 -37.64453,-37.822255 -6.91884,-7.06045 -13.75546,-14.10994 -19.9043,-20.56055 -6.14876,-6.45062 -11.60929,-12.30327 -15.77539,-16.97265 -3.0827,-3.45513 -4.82334,-5.68286 -6.625,-7.9668 z"
       id="path4506"
       inkscape:connector-curvature="0"
       sodipodi:nodetypes="ssssssccccccs" />
    <g
       id="g4584"
       transform="matrix(0.3829248,0,0,0.3829248,74.406719,31.973725)"
       style="fill:#75abd3;fill-opacity:1;stroke:#9dc4df;stroke-opacity:1" />
    <path
       style="opacity:1;fill:#ccd7dc;fill-opacity:1;fill-rule:evenodd;stroke:#7794a1;stroke-width:1.14248979;stroke-linecap:square;stroke-linejoin:miter;stroke-miterlimit:4;stroke-dasharray:none;stroke-dashoffset:0;stroke-opacity:1;paint-order:markers fill stroke"
       d="M 249.26953 380.81641 C 245.08444 380.81641 241.42202 380.95732 238.2832 381.23633 C 235.14438 381.51533 232.25017 381.86274 229.59961 382.28125 L 229.59961 457.08984 C 233.08719 457.50835 236.33076 457.85771 239.33008 458.13672 C 242.3294 458.41572 245.71193 458.55469 249.47852 458.55469 C 254.22162 458.55469 258.61652 458.20728 262.66211 457.50977 C 266.7077 456.81225 270.19543 455.59145 273.125 453.84766 C 276.05457 452.10387 278.35526 449.73174 280.0293 446.73242 C 281.70333 443.7331 282.54102 439.93173 282.54102 435.32812 C 282.54102 432.60781 282.19166 430.20192 281.49414 428.10938 C 280.79663 426.01683 279.8557 424.23822 278.66992 422.77344 C 277.5539 421.2389 276.22789 419.98238 274.69336 419.00586 C 273.22858 417.95959 271.69413 417.1219 270.08984 416.49414 C 272.32189 415.02936 274.16998 412.97282 275.63477 410.32227 C 277.09955 407.60195 277.83203 404.60254 277.83203 401.32422 C 277.83203 397.34838 277.06578 394.06909 275.53125 391.48828 C 274.06647 388.83772 272.0437 386.74547 269.46289 385.21094 C 266.88208 383.60665 263.84695 382.49105 260.35938 381.86328 C 256.94155 381.16577 253.24537 380.81641 249.26953 380.81641 z M 116.19727 381.44531 C 115.01149 381.44531 113.64977 381.51479 112.11523 381.6543 C 110.5807 381.7938 108.87353 382.00224 106.99023 382.28125 L 106.99023 456.98633 C 110.61732 457.61409 113.71997 457.92773 116.30078 457.92773 C 118.74209 457.92773 121.81098 457.61409 125.50781 456.98633 L 125.50781 382.28125 C 123.69427 382.00224 121.98515 381.7938 120.38086 381.6543 C 118.84633 381.51479 117.45279 381.44531 116.19727 381.44531 z M 154.80469 381.44531 C 153.2004 381.44531 151.63024 381.51479 150.0957 381.6543 C 148.56117 381.72405 146.74684 381.93249 144.6543 382.28125 L 126.97266 419.32031 L 146.11914 456.98633 C 147.44442 457.26533 149.0503 457.47378 150.93359 457.61328 C 152.81689 457.82254 154.77017 457.92773 156.79297 457.92773 C 158.39725 457.92773 160.17586 457.82254 162.12891 457.61328 C 164.1517 457.47378 165.75563 457.26533 166.94141 456.98633 L 147.375 418.37891 L 165.26758 382.28125 C 164.63981 382.2115 163.87161 382.14202 162.96484 382.07227 C 162.12783 381.93276 161.22066 381.82756 160.24414 381.75781 C 159.33737 381.61831 158.39644 381.54883 157.41992 381.54883 C 156.4434 381.47908 155.57195 381.44531 154.80469 381.44531 z M 171.94336 388.97852 C 171.3156 391.69883 171.00195 394.31316 171.00195 396.82422 C 171.00195 399.40503 171.3156 402.05703 171.94336 404.77734 L 192.97266 404.77734 L 180.10352 427.0625 L 182.40625 430.51562 C 184.01054 430.09712 185.40602 429.85295 186.5918 429.7832 C 187.84732 429.6437 189.03241 429.57422 190.14844 429.57422 C 191.61322 429.57422 193.0087 429.78266 194.33398 430.20117 C 195.65926 430.54993 196.84435 431.10773 197.89062 431.875 C 198.9369 432.57252 199.77458 433.47968 200.40234 434.5957 C 201.03011 435.71173 201.34375 437.00201 201.34375 438.4668 C 201.34375 441.88462 200.12295 444.43143 197.68164 446.10547 C 195.31009 447.77951 192.06651 448.61523 187.95117 448.61523 C 185.23086 448.61523 182.65029 448.33731 180.20898 447.7793 C 177.76768 447.15153 175.22087 446.38333 172.57031 445.47656 C 171.38454 447.56911 170.33841 449.94124 169.43164 452.5918 C 168.59462 455.24236 168.1063 457.85669 167.9668 460.4375 C 169.85009 461.20477 171.59493 461.79829 173.19922 462.2168 C 174.87326 462.70506 176.5129 463.08818 178.11719 463.36719 C 179.79122 463.71595 181.46463 463.92634 183.13867 463.99609 C 184.81271 464.1356 186.62703 464.20508 188.58008 464.20508 C 192.83492 464.20508 196.80903 463.61156 200.50586 462.42578 C 204.27244 461.30976 207.51602 459.60063 210.23633 457.29883 C 213.02639 455.06678 215.19008 452.27776 216.72461 448.92969 C 218.3289 445.58161 219.13086 441.74452 219.13086 437.41992 C 219.13086 431.9793 217.73537 427.55064 214.94531 424.13281 C 212.15525 420.64523 208.24867 418.44779 203.22656 417.54102 L 218.08398 391.9082 L 216.20117 388.97852 L 171.94336 388.97852 z M 249.16406 395.25586 L 250.73438 395.25586 C 251.78065 395.25586 252.86249 395.36106 253.97852 395.57031 C 255.09454 395.77957 256.10495 396.16269 257.01172 396.7207 C 257.91849 397.27872 258.65097 398.04496 259.20898 399.02148 C 259.83675 399.99801 260.15039 401.21881 260.15039 402.68359 C 260.15039 405.68291 259.31466 407.81088 257.64062 409.06641 C 255.96659 410.25218 253.62822 410.8457 250.62891 410.8457 L 247.69922 410.8457 L 247.69922 395.35938 C 248.11773 395.28962 248.60605 395.25586 249.16406 395.25586 z M 247.69922 425.70312 L 251.99023 425.70312 C 255.47781 425.70313 258.30255 426.36417 260.46484 427.68945 C 262.69689 428.94498 263.8125 431.24763 263.8125 434.5957 C 263.8125 436.33949 263.46314 437.80446 262.76562 438.99023 C 262.13786 440.10626 261.26642 441.01342 260.15039 441.71094 C 259.03437 442.3387 257.7798 442.79131 256.38477 443.07031 C 255.05949 443.34932 253.73348 443.48828 252.4082 443.48828 L 249.47852 443.48828 C 248.781 443.41853 248.18748 443.34905 247.69922 443.2793 L 247.69922 425.70312 z "
       id="rect4610" />
    <path
       inkscape:connector-curvature="0"
       id="path894"
       style="opacity:1;fill:#ccd7dc;fill-opacity:1;fill-rule:evenodd;stroke:none;stroke-width:1.67221212"
       d="M 288.1246,367.30968 C 221.12745,385.05156 152.43211,345.12182 134.69026,278.12469 116.9484,211.12762 156.87818,142.43234 223.87531,124.69045 l 29.94746,113.0881 c -4.54075,1.20246 -7.24679,5.85793 -6.04433,10.39866 1.20292,4.54233 5.85796,7.24675 10.39865,6.04429 z M 223.87531,124.69045 c 66.99876,-17.74227 135.69249,22.18782 153.43432,89.18489 17.74185,66.99713 -22.18624,135.69203 -89.18503,153.43434 L 258.17709,254.2215 c 4.54075,-1.20248 7.24722,-5.8563 6.04432,-10.39865 -1.20244,-4.54071 -5.85791,-7.24677 -10.39864,-6.0443 z" />
    <path
       id="path318"
       style="fill:#ffaa71;fill-opacity:1;stroke:none;stroke-width:1.00480366"
       d="m 307.85031,175.85295 c -16.81393,-17.45099 1.3743,-28.6553 6.38335,-29.76269 v 0 c -4.13932,0.12773 -35.81109,4.56394 -49.93749,28.1554 v 0 c -14.12718,23.59355 9.65248,64.45581 9.65248,64.45581 v 0 c 10.34497,-22.68197 30.95492,-16.96474 42.85511,-18.07121 v 0 c 69.84249,-6.79306 37.97049,-76.21712 37.97049,-76.21712 v 0 c 3.54626,22.19212 -23.21889,56.04023 -46.92394,31.43981"
       inkscape:connector-curvature="0" />
    <path
       id="path412"
       style="fill:#f57c65;fill-opacity:1;stroke:none;stroke-width:1.00480366"
       d="m 359.16447,127.17622 c -8.3573,8.18599 -9.05125,23.39638 -20.71775,28.72054 v 0 c -6.54598,2.92605 -30.85794,2.5787 -44.15122,4.86974 v 0 c -13.51499,2.32877 -22.06682,8.66446 -26.66825,19.50474 v 0 c -5.85459,13.79003 -1.18256,31.15245 9.38976,48.67152 v 0 l 7.61737,8.17167 c 11.27552,6.94577 30.84988,15.24787 47.89353,4.54866 v 0 c 16.94487,-10.6401 14.34431,-30.95272 17.55521,-45.72355 v 0 c 2.59234,-11.91392 14.96567,-12.36252 20.10956,-19.53803 v 0 c 3.3151,-4.67679 4.55705,-10.89231 2.46092,-16.57451 v 0 c -1.54996,6.40235 -8.46046,11.85366 -16.06544,10.21454 v 0 c 6.5346,-0.53625 9.22252,-4.60232 10.52149,-9.38329 v 0 c 2.48089,-8.6589 -2.06226,-21.51084 2.00699,-29.6668 v 0 c 2.92984,-5.87402 9.41335,-8.25555 18.35647,-5.60828 v 0 c -10.20656,-5.03418 -22.17472,-4.3204 -28.30864,1.79305"
       inkscape:connector-curvature="0" />
    <path
       id="path436"
       style="fill:#ffe991;fill-opacity:1;stroke:none;stroke-width:1.00480366"
       d="m 326.9742,186.17253 c -15.07472,5.48604 -33.7699,-2.30318 -48.56221,9.75901 v 0 c -11.91584,9.71329 -9.6139,31.12021 -1.95357,44.34535 v 0 l 3.73332,4.00498 c 7.95015,4.11961 17.19736,7.56174 24.33723,7.92972 v 0 c 13.39963,0.69366 24.99642,-9.14529 20.6519,-23.50384 v 0 c 1.31998,7.11452 -5.81965,12.16677 -11.38724,8.64908 v 0 c -5.06327,-3.20069 -3.19097,-8.90211 1.57928,-10.05201 v 0 c 5.66808,-1.32882 12.69603,-0.62851 16.95973,-4.60299 v 0 c 4.02589,-3.09345 5.37491,-9.62443 4.40618,-14.65422 v 0 c -5.04077,7.70026 -14.65699,7.0733 -21.49155,4.87401 v 0 l -0.32886,-0.3528 c 4.95016,1.31983 10.13697,0.49594 14.16128,-1.33776 v 0 c 13.62104,-6.19968 18.0972,-26.7558 11.93089,-40.78019 v 0 c 0.8418,8.86798 -7.84531,13.24596 -14.03638,15.72166"
       inkscape:connector-curvature="0" />
    <path
       style="opacity:1;fill:url(#linearGradient6771);fill-opacity:1;fill-rule:evenodd;stroke:none;stroke-width:8.77774811;stroke-linecap:square;stroke-linejoin:miter;stroke-miterlimit:4;stroke-dasharray:none;stroke-dashoffset:0;stroke-opacity:1;paint-order:markers fill stroke"
       d="m 433.28939,182.37584 v -69.47028 c 0,-0.0394 -0.0309,-0.0705 -0.0703,-0.0705 h -67.33747 c 4.09851,4.50878 8.40749,9.2132 13.77948,14.86279 7.205,7.57734 15.21697,15.8602 23.32513,24.15489 11.13885,11.3951 20.83136,21.05949 30.30308,30.52302 z"
       id="path4566"
       inkscape:connector-curvature="0" />
    <path
       style="opacity:1;fill:#7794a1;fill-opacity:1;fill-rule:evenodd;stroke:none;stroke-width:1.05391276;stroke-linejoin:round;stroke-miterlimit:4;stroke-dasharray:none;stroke-dashoffset:0;stroke-opacity:1;paint-order:normal"
       d="m 435.00048,114.60612 c -1.83541,-2.30475 -3.6077,-4.55306 -6.74972,-8.04125 -4.24635,-4.71409 -9.8132,-10.623129 -16.08223,-17.137261 C 405.8996,82.913483 398.92921,75.794273 391.8744,68.663457 377.76477,54.401804 363.32068,40.090503 353.48814,30.462087 c -0.35278,-0.345219 -0.4898,-0.448268 -0.83055,-0.781422 l -0.24394,62.802323 c -0.0467,12.055462 9.04538,21.800782 20.38588,21.850482 z"
       id="rect4485"
       inkscape:connector-curvature="0" />
    <path
       inkscape:connector-curvature="0"
       id="path2420"
       style="opacity:1;fill:#7794a1;fill-opacity:1;fill-rule:evenodd;stroke:none;stroke-width:1.67221212"
       d="m 267.47715,289.34223 c -23.93704,6.3389 -48.48043,-7.92848 -54.81932,-31.8655 -6.33888,-23.93698 7.92696,-48.47991 31.86394,-54.81883 l 9.30075,35.12149 c -4.54077,1.20248 -7.24675,5.85794 -6.04475,10.39704 1.2029,4.54234 5.8579,7.24676 10.39867,6.0443 z M 244.52177,202.6579 c 23.93704,-6.33889 48.48159,7.92646 54.82047,31.86346 6.33889,23.937 -7.92811,48.482 -31.86509,54.82087 l -9.30071,-35.1215 c 4.54071,-1.20244 7.24717,-5.85632 6.04429,-10.39865 -1.20201,-4.53909 -5.8575,-7.24513 -10.39821,-6.04269 z" />
    <path
       sodipodi:nodetypes="cscccscc"
       inkscape:connector-curvature="0"
       id="path2428"
       style="opacity:1;fill:#485c66;fill-opacity:1;fill-rule:evenodd;stroke:none;stroke-width:1.67221212"
       d="m 260.0512,261.29841 c -8.44939,2.23754 -17.11222,-2.79778 -19.34976,-11.24719 -2.23709,-8.44778 2.79784,-17.11221 11.24721,-19.34975 z m -8.10255,-30.59694 c 8.44941,-2.23752 17.11267,2.79942 19.34977,11.24718 2.23752,8.44943 -2.79781,17.11224 -11.24722,19.34976 z" />
  </g>
</svg>
