<?xml version="1.0" encoding="UTF-8" standalone="no"?>
<!-- Created with Inkscape (http://www.inkscape.org/) -->

<svg
   xmlns:osb="http://www.openswatchbook.org/uri/2009/osb"
   xmlns:dc="http://purl.org/dc/elements/1.1/"
   xmlns:cc="http://creativecommons.org/ns#"
   xmlns:rdf="http://www.w3.org/1999/02/22-rdf-syntax-ns#"
   xmlns:svg="http://www.w3.org/2000/svg"
   xmlns="http://www.w3.org/2000/svg"
   xmlns:xlink="http://www.w3.org/1999/xlink"
   xmlns:sodipodi="http://sodipodi.sourceforge.net/DTD/sodipodi-0.dtd"
   xmlns:inkscape="http://www.inkscape.org/namespaces/inkscape"
   width="512px"
   height="512px"
   viewBox="0 0 512 512"
   version="1.1"
   id="SVGRoot"
   inkscape:version="0.92.1 r15371"
   sodipodi:docname="katefilelist.svg">
  <sodipodi:namedview
     id="base"
     pagecolor="#ffffff"
     bordercolor="#666666"
     borderopacity="1.0"
     inkscape:pageopacity="0.0"
     inkscape:pageshadow="2"
     inkscape:zoom="1.4142136"
     inkscape:cx="267.3785"
     inkscape:cy="235.71053"
     inkscape:document-units="px"
     inkscape:current-layer="layer1"
     showgrid="false"
     inkscape:window-width="1280"
     inkscape:window-height="947"
     inkscape:window-x="0"
     inkscape:window-y="0"
     inkscape:window-maximized="1" />
  <defs
     id="defs4710">
    <linearGradient
       inkscape:collect="always"
       id="linearGradient4573">
      <stop
         style="stop-color:#181818;stop-opacity:0.30645162"
         offset="0"
         id="stop4569" />
      <stop
         style="stop-color:#404040;stop-opacity:0"
         offset="1"
         id="stop4571" />
    </linearGradient>
    <marker
       inkscape:stockid="DotM"
       orient="auto"
       refY="0.0"
       refX="0.0"
       id="DotM"
       style="overflow:visible"
       inkscape:isstock="true">
      <path
         id="path4618"
         d="M -2.5,-1.0 C -2.5,1.7600000 -4.7400000,4.0 -7.5,4.0 C -10.260000,4.0 -12.5,1.7600000 -12.5,-1.0 C -12.5,-3.7600000 -10.260000,-6.0 -7.5,-6.0 C -4.7400000,-6.0 -2.5,-3.7600000 -2.5,-1.0 z "
         style="fill-rule:evenodd;stroke:#000000;stroke-width:1.0pt"
         transform="scale(0.4) translate(7.4, 1)" />
    </marker>
    <linearGradient
       osb:paint="solid"
       id="linearGradient5207">
      <stop
         id="stop5209"
         offset="0"
         style="stop-color:#000015;stop-opacity:1;" />
    </linearGradient>
    <clipPath
       id="clipPath3006-9-8"
       clipPathUnits="userSpaceOnUse">
      <path
         inkscape:export-ydpi="90"
         inkscape:export-xdpi="90"
         transform="matrix(1.2020779,0,0,1.2020779,-93.20363,-75.172465)"
         d="m 483,275.5 a 192.5,192.5 0 1 1 -385,0 192.5,192.5 0 1 1 385,0 z"
         sodipodi:ry="192.5"
         sodipodi:rx="192.5"
         sodipodi:cy="275.5"
         sodipodi:cx="290.5"
         id="path3008-1-1"
         style="fill:#ffffff;fill-opacity:1;stroke:none;display:inline"
         sodipodi:type="arc" />
    </clipPath>
    <mask
       id="mask3818-4"
       maskUnits="userSpaceOnUse">
      <path
         sodipodi:type="arc"
         style="fill:#ffffff;fill-opacity:1;stroke:none;display:inline"
         id="path3820-9"
         sodipodi:cx="290.5"
         sodipodi:cy="275.5"
         sodipodi:rx="192.5"
         sodipodi:ry="192.5"
         d="m 483,275.5 a 192.5,192.5 0 1 1 -385,0 192.5,192.5 0 1 1 385,0 z"
         transform="matrix(1.2020779,0,0,1.2020779,-93.20363,-75.172466)"
         inkscape:export-xdpi="90"
         inkscape:export-ydpi="90" />
    </mask>
    <clipPath
       id="clipPath3006"
       clipPathUnits="userSpaceOnUse">
      <path
         inkscape:export-ydpi="90"
         inkscape:export-xdpi="90"
         transform="matrix(1.2020779,0,0,1.2020779,-93.20363,-75.172465)"
         d="m 483,275.5 a 192.5,192.5 0 1 1 -385,0 192.5,192.5 0 1 1 385,0 z"
         sodipodi:ry="192.5"
         sodipodi:rx="192.5"
         sodipodi:cy="275.5"
         sodipodi:cx="290.5"
         id="path3008"
         style="fill:#ffffff;fill-opacity:1;stroke:none;display:inline"
         sodipodi:type="arc" />
    </clipPath>
    <clipPath
       id="clipPath3006-9"
       clipPathUnits="userSpaceOnUse">
      <path
         inkscape:export-ydpi="90"
         inkscape:export-xdpi="90"
         transform="matrix(1.2020779,0,0,1.2020779,-93.20363,-75.172465)"
         d="m 483,275.5 a 192.5,192.5 0 1 1 -385,0 192.5,192.5 0 1 1 385,0 z"
         sodipodi:ry="192.5"
         sodipodi:rx="192.5"
         sodipodi:cy="275.5"
         sodipodi:cx="290.5"
         id="path3008-1"
         style="fill:#ffffff;fill-opacity:1;stroke:none;display:inline"
         sodipodi:type="arc" />
    </clipPath>
    <mask
       maskUnits="userSpaceOnUse"
       id="mask3818-0">
      <path
         inkscape:export-ydpi="90"
         inkscape:export-xdpi="90"
         transform="matrix(1.2020779,0,0,1.2020779,-93.20363,-75.172466)"
         d="m 483,275.5 a 192.5,192.5 0 1 1 -385,0 192.5,192.5 0 1 1 385,0 z"
         sodipodi:ry="192.5"
         sodipodi:rx="192.5"
         sodipodi:cy="275.5"
         sodipodi:cx="290.5"
         id="path3820-8"
         style="fill:#ffffff;fill-opacity:1;stroke:none;display:inline"
         sodipodi:type="arc" />
    </mask>
    <mask
       maskUnits="userSpaceOnUse"
       id="mask3818-2">
      <path
         inkscape:export-ydpi="90"
         inkscape:export-xdpi="90"
         transform="matrix(1.2020779,0,0,1.2020779,-93.20363,-75.172466)"
         d="m 483,275.5 a 192.5,192.5 0 1 1 -385,0 192.5,192.5 0 1 1 385,0 z"
         sodipodi:ry="192.5"
         sodipodi:rx="192.5"
         sodipodi:cy="275.5"
         sodipodi:cx="290.5"
         id="path3820-2-2"
         style="fill:#ffffff;fill-opacity:1;stroke:none;display:inline"
         sodipodi:type="arc" />
    </mask>
    <clipPath
       id="clipPath3934"
       clipPathUnits="userSpaceOnUse">
      <path
         id="path3936"
         d="m 0,0 0,1024 1024,0 L 1024,0 0,0 z m 278.4375,333.84375 119.78125,0 c 9.83697,42.31453 19.85954,84.58596 29.9375,126.84375 9.86978,-42.28798 20.05132,-84.50237 29.6875,-126.84375 l 108.90625,0 c 9.63586,42.34141 19.8178,84.55578 29.6875,126.84375 10.07827,-42.25772 20.10031,-84.52927 29.9375,-126.84375 l 119.1875,0 c -26.26221,110.73099 -52.49625,221.46929 -78.28125,332.3125 l -122.8125,0 c -10.59439,-45.55681 -21.46638,-91.04874 -32.375,-136.53125 -10.66279,45.51136 -21.5615,90.96897 -32,136.53125 l -122.8125,0 c -25.71418,-110.03502 -52.0286,-219.92873 -78.25,-329.84375 l -0.59375,-2.46875 z"
         style="fill:#ff3232;fill-opacity:1;stroke:none"
         inkscape:connector-curvature="0" />
    </clipPath>
    <clipPath
       id="clipPath3929"
       clipPathUnits="userSpaceOnUse">
      <path
         inkscape:connector-curvature="0"
         style="fill:#ff3232;fill-opacity:1;stroke:none"
         d="m 0,0 0,1024 1024,0 L 1024,0 0,0 z m 278.4375,333.84375 119.78125,0 c 9.83697,42.31453 19.85954,84.58596 29.9375,126.84375 9.86978,-42.28798 20.05132,-84.50237 29.6875,-126.84375 l 108.90625,0 c 9.63586,42.34141 19.8178,84.55578 29.6875,126.84375 10.07827,-42.25772 20.10031,-84.52927 29.9375,-126.84375 l 119.1875,0 c -26.26221,110.73099 -52.49625,221.46929 -78.28125,332.3125 l -122.8125,0 c -10.59439,-45.55681 -21.46638,-91.04874 -32.375,-136.53125 -10.66279,45.51136 -21.5615,90.96897 -32,136.53125 l -122.8125,0 c -25.71418,-110.03502 -52.0286,-219.92873 -78.25,-329.84375 l -0.59375,-2.46875 z"
         id="path3931" />
    </clipPath>
    <mask
       maskUnits="userSpaceOnUse"
       id="mask3818">
      <path
         inkscape:export-ydpi="90"
         inkscape:export-xdpi="90"
         transform="matrix(1.2020779,0,0,1.2020779,-93.20363,-75.172466)"
         d="m 483,275.5 a 192.5,192.5 0 1 1 -385,0 192.5,192.5 0 1 1 385,0 z"
         sodipodi:ry="192.5"
         sodipodi:rx="192.5"
         sodipodi:cy="275.5"
         sodipodi:cx="290.5"
         id="path3820"
         style="fill:#ffffff;fill-opacity:1;stroke:none;display:inline"
         sodipodi:type="arc" />
    </mask>
    <linearGradient
       inkscape:collect="always"
       xlink:href="#linearGradient4573"
       id="linearGradient4575"
       x1="408.84314"
       y1="89.26915"
       x2="420.61133"
       y2="138.41306"
       gradientUnits="userSpaceOnUse"
       gradientTransform="matrix(0.99657796,0,0,1,1.2520606,0)" />
    <linearGradient
       inkscape:collect="always"
       xlink:href="#linearGradient4573"
       id="linearGradient6771"
       gradientUnits="userSpaceOnUse"
       gradientTransform="matrix(0.99657796,0,0,1,1.2520606,0)"
       x1="408.84314"
       y1="89.26915"
       x2="420.61133"
       y2="138.41306" />
  </defs>
  <metadata
     id="metadata4713">
    <rdf:RDF>
      <cc:Work
         rdf:about="">
        <dc:format>image/svg+xml</dc:format>
        <dc:type
           rdf:resource="http://purl.org/dc/dcmitype/StillImage" />
        <dc:title></dc:title>
      </cc:Work>
    </rdf:RDF>
  </metadata>
  <g
     id="layer1"
     inkscape:groupmode="layer"
     inkscape:label="Capa 1">
    <path
       style="opacity:1;fill:#607b89;fill-opacity:1;fill-rule:evenodd;stroke:#ccd7dc;stroke-width:2;stroke-linejoin:round;stroke-miterlimit:4;stroke-dasharray:none;stroke-dashoffset:0;stroke-opacity:1;paint-order:normal"
       d="m 97.583979,29.700195 c -11.07875,0 -19.99804,9.65194 -19.99804,21.64062 V 460.66113 c 0,11.9887 8.91929,21.63867 19.99804,21.63867 H 414.41602 c 11.07874,0 19.99804,-9.64997 19.99804,-21.63867 V 113.7959 c -0.33411,-0.32981 -0.46874,-0.43168 -0.81445,-0.77345 -9.64188,-9.53205 -23.80681,-23.701345 -37.64453,-37.822255 -6.91884,-7.06045 -13.75546,-14.10994 -19.9043,-20.56055 -6.14876,-6.45062 -11.60929,-12.30327 -15.77539,-16.97265 -3.0827,-3.45513 -4.82334,-5.68286 -6.625,-7.9668 z"
       id="path4506"
       inkscape:connector-curvature="0"
       sodipodi:nodetypes="ssssssccccccs" />
    <g
       id="g4584"
       transform="matrix(0.3829248,0,0,0.3829248,74.406719,31.973725)"
       style="fill:#75abd3;fill-opacity:1;stroke:#9dc4df;stroke-opacity:1" />
    <path
       style="opacity:1;fill:#ccd7dc;fill-opacity:1;fill-rule:evenodd;stroke:#7794a1;stroke-width:1.14248979;stroke-linecap:square;stroke-linejoin:miter;stroke-miterlimit:4;stroke-dasharray:none;stroke-dashoffset:0;stroke-opacity:1;paint-order:markers fill stroke"
       d="M 202.68555 421.55664 C 199.75235 421.55664 197.18622 422.06203 194.98633 423.07031 C 192.78643 424.03277 190.95293 425.36089 189.48633 427.05664 C 188.01973 428.75239 186.9208 430.74555 186.1875 433.03711 C 185.4542 435.32867 185.08594 437.78215 185.08594 440.39453 C 185.08594 443.05274 185.42972 445.50427 186.11719 447.75 C 186.85049 449.99573 187.95137 451.94383 189.41797 453.59375 C 190.9304 455.19784 192.85597 456.45642 195.19336 457.37305 C 197.57658 458.28967 200.41695 458.74805 203.7168 458.74805 C 207.9791 458.74805 212.14954 457.9929 216.22852 456.48047 C 216.18268 454.69305 215.90844 452.97414 215.4043 451.32422 C 214.94599 449.6743 214.39554 448.25411 213.75391 447.0625 C 212.14982 447.70414 210.52297 448.18504 208.87305 448.50586 C 207.22312 448.82668 205.7334 448.98633 204.4043 448.98633 C 202.34189 448.98633 200.66999 448.59749 199.38672 447.81836 C 198.14928 447.03923 197.27758 445.70916 196.77344 443.83008 L 217.67188 443.83008 C 217.76354 443.18844 217.8556 442.38628 217.94727 441.42383 C 218.08476 440.41554 218.1543 439.29408 218.1543 438.05664 C 218.1543 435.67342 217.78799 433.4736 217.05469 431.45703 C 216.36722 429.39463 215.3584 427.65319 214.0293 426.23242 C 212.70019 424.76582 211.07335 423.61988 209.14844 422.79492 C 207.26936 421.96996 205.1146 421.55664 202.68555 421.55664 z M 286.61523 421.55664 C 284.41534 421.55664 282.39965 421.83284 280.56641 422.38281 C 278.77899 422.93279 277.21973 423.73299 275.89062 424.78711 C 274.56152 425.7954 273.53213 427.0334 272.79883 428.5 C 272.06553 429.9666 271.69727 431.59344 271.69727 433.38086 C 271.69727 436.22239 272.49942 438.46922 274.10352 440.11914 C 275.70761 441.76906 277.72524 442.93753 280.1543 443.625 L 284.82812 444.93164 C 285.60726 445.1608 286.29482 445.43504 286.89062 445.75586 C 287.48643 446.03085 287.78516 446.46669 287.78516 447.0625 C 287.78516 447.52081 287.62355 447.88712 287.30273 448.16211 C 287.02775 448.4371 286.66144 448.66628 286.20312 448.84961 C 285.74481 448.9871 285.21885 449.07917 284.62305 449.125 C 284.02724 449.17083 283.45427 449.19336 282.9043 449.19336 C 281.30021 449.19336 279.69589 449.03371 278.0918 448.71289 C 276.48771 448.34624 274.95293 447.81833 273.48633 447.13086 C 272.01973 450.33904 271.17056 453.50067 270.94141 456.61719 C 273.04964 457.39632 275.0428 457.94676 276.92188 458.26758 C 278.80095 458.5884 280.84112 458.74805 283.04102 458.74805 C 285.69922 458.74805 288.03616 458.42875 290.05273 457.78711 C 292.11514 457.14547 293.83405 456.27378 295.20898 455.17383 C 296.62975 454.07388 297.68363 452.76829 298.37109 451.25586 C 299.10439 449.74343 299.47266 448.11658 299.47266 446.375 C 299.47266 444.67925 299.24347 443.23458 298.78516 442.04297 C 298.32684 440.85136 297.68434 439.84449 296.85938 439.01953 C 296.08024 438.19457 295.11844 437.52953 293.97266 437.02539 C 292.87271 436.47542 291.6347 436.01704 290.25977 435.65039 L 285.79102 434.48047 C 285.14938 434.29714 284.57641 434.06796 284.07227 433.79297 C 283.56812 433.51798 283.31641 433.12914 283.31641 432.625 C 283.31641 431.43339 284.39281 430.83789 286.54688 430.83789 C 288.01347 430.83789 289.61779 431.04455 291.35938 431.45703 C 293.10096 431.86951 294.59068 432.32789 295.82812 432.83203 C 296.46976 431.54876 297.04273 430.08156 297.54688 428.43164 C 298.05102 426.73589 298.34974 425.1541 298.44141 423.6875 C 296.42483 423.00003 294.38467 422.47407 292.32227 422.10742 C 290.25986 421.74077 288.35682 421.55664 286.61523 421.55664 z M 143.9082 421.76367 C 142.99158 421.76367 142.02977 421.80873 141.02148 421.90039 C 140.05903 421.99205 139.07274 422.15366 138.06445 422.38281 L 138.06445 457.85547 C 139.21023 458.03879 140.26411 458.17592 141.22656 458.26758 C 142.18902 458.35924 143.06071 458.4043 143.83984 458.4043 C 144.61897 458.4043 145.49067 458.35924 146.45312 458.26758 C 147.41558 458.17592 148.49198 458.03879 149.68359 457.85547 L 149.68359 422.38281 C 148.72114 422.15366 147.73485 421.99205 146.72656 421.90039 C 145.71828 421.80873 144.779 421.76367 143.9082 421.76367 z M 163.3125 421.76367 C 162.39588 421.76367 161.43407 421.80873 160.42578 421.90039 C 159.46333 421.99205 158.47704 422.15366 157.46875 422.38281 L 157.40039 457.92383 L 182.01172 457.92383 C 182.24087 457.0072 182.378 456.15999 182.42383 455.38086 C 182.51549 454.5559 182.56055 453.77627 182.56055 453.04297 C 182.56055 452.30967 182.51549 451.55257 182.42383 450.77344 C 182.378 449.99431 182.24087 449.14709 182.01172 448.23047 L 169.01758 448.23047 L 169.08789 422.38281 C 168.12544 422.15366 167.13915 421.99205 166.13086 421.90039 C 165.12257 421.80873 164.18329 421.76367 163.3125 421.76367 z M 229.64258 421.76367 C 228.72595 421.76367 227.76219 421.80873 226.75391 421.90039 C 225.79145 421.99205 224.80711 422.15366 223.79883 422.38281 L 223.73047 457.92383 L 248.3418 457.92383 C 248.57095 457.0072 248.70808 456.15999 248.75391 455.38086 C 248.84557 454.5559 248.89062 453.77627 248.89062 453.04297 C 248.89062 452.30967 248.84557 451.55257 248.75391 450.77344 C 248.70808 449.99431 248.57095 449.14709 248.3418 448.23047 L 235.34766 448.23047 L 235.41602 422.38281 C 234.45356 422.15366 233.46922 421.99205 232.46094 421.90039 C 231.45265 421.80873 230.51337 421.76367 229.64258 421.76367 z M 259.65039 421.76367 C 258.73377 421.76367 257.77196 421.80873 256.76367 421.90039 C 255.80122 421.99205 254.81493 422.15366 253.80664 422.38281 L 253.80664 457.85547 C 254.95242 458.03879 256.0063 458.17592 256.96875 458.26758 C 257.9312 458.35924 258.8029 458.4043 259.58203 458.4043 C 260.36116 458.4043 261.2309 458.35924 262.19336 458.26758 C 263.15581 458.17592 264.23417 458.03879 265.42578 457.85547 L 265.42578 422.38281 C 264.46333 422.15366 263.47704 421.99205 262.46875 421.90039 C 261.46046 421.80873 260.52118 421.76367 259.65039 421.76367 z M 106.37695 422.38281 L 106.37695 457.78711 C 107.38524 458.01627 108.37153 458.15339 109.33398 458.19922 C 110.34227 458.29088 111.30408 458.33594 112.2207 458.33594 C 113.0915 458.33594 114.03078 458.29088 115.03906 458.19922 C 116.04735 458.15339 117.03364 458.01627 117.99609 457.78711 L 117.99609 447.26758 L 129.82031 447.26758 C 130.04947 446.35095 130.18659 445.50374 130.23242 444.72461 C 130.32408 443.89965 130.36914 443.12002 130.36914 442.38672 C 130.36914 441.65342 130.32408 440.89827 130.23242 440.11914 C 130.18659 439.34001 130.04947 438.49084 129.82031 437.57422 L 117.99609 437.57422 L 117.99609 432.07617 L 132.63867 432.07617 C 132.86783 431.15955 133.00495 430.31038 133.05078 429.53125 C 133.14244 428.70629 133.1875 427.92666 133.1875 427.19336 C 133.1875 426.46006 133.14244 425.70491 133.05078 424.92578 C 133.00495 424.14665 132.86783 423.29944 132.63867 422.38281 L 106.37695 422.38281 z M 302.56055 422.38281 C 302.33139 423.29944 302.17174 424.14665 302.08008 424.92578 C 302.03425 425.70491 302.01172 426.46006 302.01172 427.19336 C 302.01172 427.92666 302.03425 428.70629 302.08008 429.53125 C 302.17174 430.31038 302.33139 431.15955 302.56055 432.07617 L 312.73633 432.07617 L 312.73633 457.85547 C 313.88211 458.03879 314.93598 458.17592 315.89844 458.26758 C 316.86089 458.35924 317.73064 458.4043 318.50977 458.4043 C 319.2889 458.4043 320.16059 458.35924 321.12305 458.26758 C 322.0855 458.17592 323.16191 458.03879 324.35352 457.85547 L 324.35352 432.07617 L 334.52734 432.07617 C 334.7565 431.15955 334.89558 430.31038 334.94141 429.53125 C 335.03307 428.70629 335.07812 427.92666 335.07812 427.19336 C 335.07812 426.46006 335.03307 425.70491 334.94141 424.92578 C 334.89558 424.14665 334.7565 423.29944 334.52734 422.38281 L 302.56055 422.38281 z M 202.27344 430.28711 C 203.96919 430.28711 205.25225 430.83755 206.12305 431.9375 C 207.03967 432.99162 207.5431 434.32169 207.63477 435.92578 L 196.63672 435.92578 C 196.82004 434.00087 197.43807 432.57873 198.49219 431.66211 C 199.5463 430.74549 200.80684 430.28711 202.27344 430.28711 z "
       id="rect4610" />
    <path
       style="opacity:1;fill:url(#linearGradient6771);fill-opacity:1;fill-rule:evenodd;stroke:none;stroke-width:8.77774811;stroke-linecap:square;stroke-linejoin:miter;stroke-miterlimit:4;stroke-dasharray:none;stroke-dashoffset:0;stroke-opacity:1;paint-order:markers fill stroke"
       d="m 433.28939,182.37584 v -69.47028 c 0,-0.0394 -0.0309,-0.0705 -0.0703,-0.0705 h -67.33747 c 4.09851,4.50878 8.40749,9.2132 13.77948,14.86279 7.205,7.57734 15.21697,15.8602 23.32513,24.15489 11.13885,11.3951 20.83136,21.05949 30.30308,30.52302 z"
       id="path4566"
       inkscape:connector-curvature="0" />
    <path
       style="opacity:1;fill:#ccd7dc;fill-opacity:1;fill-rule:evenodd;stroke:none;stroke-width:1.05391276;stroke-linejoin:round;stroke-miterlimit:4;stroke-dasharray:none;stroke-dashoffset:0;stroke-opacity:1;paint-order:normal"
       d="m 435.00048,114.60612 c -1.83541,-2.30475 -3.6077,-4.55306 -6.74972,-8.04125 -4.24635,-4.71409 -9.8132,-10.623129 -16.08223,-17.137261 C 405.8996,82.913483 398.92921,75.794273 391.8744,68.663457 377.76477,54.401804 363.32068,40.090503 353.48814,30.462087 c -0.35278,-0.345219 -0.4898,-0.448268 -0.83055,-0.781422 l -0.24394,62.802323 c -0.0467,12.055462 9.04538,21.800782 20.38588,21.850482 z"
       id="rect4485"
       inkscape:connector-curvature="0" />
    <rect
       y="204.98415"
       x="132.42857"
       height="17.142857"
       width="247.14285"
       id="rect4507-6"
       style="opacity:1;fill:#ccd7dc;fill-opacity:1;fill-rule:evenodd;stroke:none;stroke-width:3;stroke-linejoin:round;stroke-miterlimit:4;stroke-dasharray:none;stroke-dashoffset:0;stroke-opacity:1;paint-order:normal" />
    <rect
       y="289.87299"
       x="132.42857"
       height="17.142857"
       width="247.14285"
       id="rect4515-2"
       style="opacity:1;fill:#ccd7dc;fill-opacity:1;fill-rule:evenodd;stroke:none;stroke-width:3;stroke-linejoin:round;stroke-miterlimit:4;stroke-dasharray:none;stroke-dashoffset:0;stroke-opacity:1;paint-order:normal" />
    <rect
       style="opacity:1;fill:#ccd7dc;fill-opacity:1;fill-rule:evenodd;stroke:none;stroke-width:2.85550761;stroke-linejoin:round;stroke-miterlimit:4;stroke-dasharray:none;stroke-dashoffset:0;stroke-opacity:1;paint-order:normal"
       id="rect4516"
       width="223.90935"
       height="17.142857"
       x="132.42857"
       y="247.42854" />
    <rect
       y="162.53969"
       x="132.42857"
       height="17.142857"
       width="223.90935"
       id="rect4518"
       style="opacity:1;fill:#ccd7dc;fill-opacity:1;fill-rule:evenodd;stroke:none;stroke-width:2.85550761;stroke-linejoin:round;stroke-miterlimit:4;stroke-dasharray:none;stroke-dashoffset:0;stroke-opacity:1;paint-order:normal" />
    <path
       style="opacity:1;fill:#ccd7dc;fill-opacity:1;fill-rule:evenodd;stroke:#7794a1;stroke-width:1.14248979;stroke-linecap:square;stroke-linejoin:miter;stroke-miterlimit:4;stroke-dasharray:none;stroke-dashoffset:0;stroke-opacity:1;paint-order:markers fill stroke"
       d="M 116.19727 337.44531 C 115.01149 337.44531 113.64977 337.51479 112.11523 337.6543 C 110.5807 337.7938 108.87353 338.00224 106.99023 338.28125 L 106.99023 412.98633 C 110.61732 413.61409 113.71997 413.92773 116.30078 413.92773 C 118.74209 413.92773 121.81098 413.61409 125.50781 412.98633 L 125.50781 338.28125 C 123.69427 338.00224 121.98515 337.7938 120.38086 337.6543 C 118.84633 337.51479 117.45279 337.44531 116.19727 337.44531 z M 154.80469 337.44531 C 153.2004 337.44531 151.63024 337.51479 150.0957 337.6543 C 148.56117 337.72405 146.74684 337.93249 144.6543 338.28125 L 126.97266 375.32031 L 146.11914 412.98633 C 147.44442 413.26533 149.0503 413.47378 150.93359 413.61328 C 152.81689 413.82254 154.77017 413.92773 156.79297 413.92773 C 158.39725 413.92773 160.17586 413.82254 162.12891 413.61328 C 164.1517 413.47378 165.75563 413.26533 166.94141 412.98633 L 147.375 374.37891 L 165.26758 338.28125 C 164.63981 338.2115 163.87161 338.14202 162.96484 338.07227 C 162.12783 337.93276 161.22066 337.82756 160.24414 337.75781 C 159.33737 337.61831 158.39644 337.54883 157.41992 337.54883 C 156.4434 337.47908 155.57195 337.44531 154.80469 337.44531 z M 200.7168 337.44531 C 199.11251 337.44531 197.50663 337.51479 195.90234 337.6543 C 194.36781 337.7938 192.6944 337.96848 190.88086 338.17773 L 167.44531 412.88086 C 169.46811 413.22962 171.28048 413.47378 172.88477 413.61328 C 174.5588 413.82254 176.02377 413.92773 177.2793 413.92773 C 178.53482 413.92773 179.82511 413.85825 181.15039 413.71875 C 182.47567 413.57925 183.94064 413.36885 185.54492 413.08984 L 189.41602 398.75586 C 191.22956 399.24412 192.9744 399.6292 194.64844 399.9082 C 196.32247 400.11746 197.96017 400.2207 199.56445 400.2207 C 201.30824 400.2207 203.05309 400.08174 204.79688 399.80273 C 206.61042 399.52373 208.49227 399.10489 210.44531 398.54688 L 214.42188 413.08984 C 216.02616 413.36885 217.52684 413.57925 218.92188 413.71875 C 220.31691 413.85825 221.71044 413.92773 223.10547 413.92773 C 226.10479 413.92773 229.59252 413.61409 233.56836 412.98633 L 210.44531 338.17773 C 208.42252 337.96848 206.61015 337.7938 205.00586 337.6543 C 203.47133 337.51479 202.04208 337.44531 200.7168 337.44531 z M 227.26367 338.07227 C 226.63591 341.14133 226.32227 343.8271 226.32227 346.12891 C 226.32227 348.63996 226.63591 351.39521 227.26367 354.39453 L 244.73633 354.39453 L 244.73633 412.98633 C 248.36341 413.61409 251.46802 413.92773 254.04883 413.92773 C 256.49013 413.92773 259.55903 413.61409 263.25586 412.98633 L 263.25586 354.39453 L 280.72852 354.39453 C 281.28653 351.18596 281.56445 348.43071 281.56445 346.12891 C 281.56445 344.94313 281.49497 343.68661 281.35547 342.36133 C 281.21597 341.03605 281.00752 339.6068 280.72852 338.07227 L 227.26367 338.07227 z M 289.47461 338.07227 L 289.47461 413.29883 L 334.25391 413.29883 C 334.88167 410.36926 335.19727 407.61401 335.19727 405.0332 C 335.19727 402.66165 334.88167 400.0116 334.25391 397.08203 L 307.99414 397.08203 L 307.99414 382.22461 L 328.18555 382.22461 C 328.81331 379.22529 329.12891 376.50576 329.12891 374.06445 C 329.12891 371.6929 328.81331 368.97337 328.18555 365.9043 L 307.99414 365.9043 L 307.99414 354.39453 L 333.62695 354.39453 C 334.18497 351.18596 334.46484 348.43071 334.46484 346.12891 C 334.46484 344.94313 334.39341 343.68661 334.25391 342.36133 C 334.1144 341.03605 333.90596 339.6068 333.62695 338.07227 L 289.47461 338.07227 z M 200.19336 357.84766 L 206.88867 384.8418 C 205.63314 385.19055 204.41234 385.46848 203.22656 385.67773 C 202.11054 385.81724 200.95921 385.88672 199.77344 385.88672 C 198.65741 385.88672 197.57752 385.78347 196.53125 385.57422 C 195.48498 385.36496 194.36937 385.08509 193.18359 384.73633 L 200.19336 357.84766 z "
       id="rect7931" />
  </g>
</svg>
