<?xml version="1.0" encoding="UTF-8" standalone="no"?>
<!-- Created with Inkscape (http://www.inkscape.org/) -->

<svg
   xmlns:osb="http://www.openswatchbook.org/uri/2009/osb"
   xmlns:dc="http://purl.org/dc/elements/1.1/"
   xmlns:cc="http://creativecommons.org/ns#"
   xmlns:rdf="http://www.w3.org/1999/02/22-rdf-syntax-ns#"
   xmlns:svg="http://www.w3.org/2000/svg"
   xmlns="http://www.w3.org/2000/svg"
   xmlns:xlink="http://www.w3.org/1999/xlink"
   xmlns:sodipodi="http://sodipodi.sourceforge.net/DTD/sodipodi-0.dtd"
   xmlns:inkscape="http://www.inkscape.org/namespaces/inkscape"
   width="512px"
   height="512px"
   viewBox="0 0 512 512"
   version="1.1"
   id="SVGRoot"
   inkscape:version="0.92.1 r15371"
   sodipodi:docname="kcsrc.svg">
  <sodipodi:namedview
     id="base"
     pagecolor="#ffffff"
     bordercolor="#666666"
     borderopacity="1.0"
     inkscape:pageopacity="0.0"
     inkscape:pageshadow="2"
     inkscape:zoom="1.4142136"
     inkscape:cx="273.13569"
     inkscape:cy="139.43492"
     inkscape:document-units="px"
     inkscape:current-layer="layer1"
     showgrid="false"
     inkscape:window-width="1280"
     inkscape:window-height="947"
     inkscape:window-x="0"
     inkscape:window-y="0"
     inkscape:window-maximized="1" />
  <defs
     id="defs4710">
    <linearGradient
       id="linearGradient8384"
       inkscape:collect="always">
      <stop
         id="stop8380"
         offset="0"
         style="stop-color:#181818;stop-opacity:0.38709676" />
      <stop
         id="stop8382"
         offset="1"
         style="stop-color:#404040;stop-opacity:0" />
    </linearGradient>
    <linearGradient
       inkscape:collect="always"
       id="linearGradient4573">
      <stop
         style="stop-color:#181818;stop-opacity:0.30645162"
         offset="0"
         id="stop4569" />
      <stop
         style="stop-color:#404040;stop-opacity:0"
         offset="1"
         id="stop4571" />
    </linearGradient>
    <marker
       inkscape:stockid="DotM"
       orient="auto"
       refY="0.0"
       refX="0.0"
       id="DotM"
       style="overflow:visible"
       inkscape:isstock="true">
      <path
         id="path4618"
         d="M -2.5,-1.0 C -2.5,1.7600000 -4.7400000,4.0 -7.5,4.0 C -10.260000,4.0 -12.5,1.7600000 -12.5,-1.0 C -12.5,-3.7600000 -10.260000,-6.0 -7.5,-6.0 C -4.7400000,-6.0 -2.5,-3.7600000 -2.5,-1.0 z "
         style="fill-rule:evenodd;stroke:#000000;stroke-width:1.0pt"
         transform="scale(0.4) translate(7.4, 1)" />
    </marker>
    <linearGradient
       osb:paint="solid"
       id="linearGradient5207">
      <stop
         id="stop5209"
         offset="0"
         style="stop-color:#000015;stop-opacity:1;" />
    </linearGradient>
    <clipPath
       id="clipPath3006-9-8"
       clipPathUnits="userSpaceOnUse">
      <path
         inkscape:export-ydpi="90"
         inkscape:export-xdpi="90"
         transform="matrix(1.2020779,0,0,1.2020779,-93.20363,-75.172465)"
         d="m 483,275.5 a 192.5,192.5 0 1 1 -385,0 192.5,192.5 0 1 1 385,0 z"
         sodipodi:ry="192.5"
         sodipodi:rx="192.5"
         sodipodi:cy="275.5"
         sodipodi:cx="290.5"
         id="path3008-1-1"
         style="fill:#ffffff;fill-opacity:1;stroke:none;display:inline"
         sodipodi:type="arc" />
    </clipPath>
    <mask
       id="mask3818-4"
       maskUnits="userSpaceOnUse">
      <path
         sodipodi:type="arc"
         style="fill:#ffffff;fill-opacity:1;stroke:none;display:inline"
         id="path3820-9"
         sodipodi:cx="290.5"
         sodipodi:cy="275.5"
         sodipodi:rx="192.5"
         sodipodi:ry="192.5"
         d="m 483,275.5 a 192.5,192.5 0 1 1 -385,0 192.5,192.5 0 1 1 385,0 z"
         transform="matrix(1.2020779,0,0,1.2020779,-93.20363,-75.172466)"
         inkscape:export-xdpi="90"
         inkscape:export-ydpi="90" />
    </mask>
    <clipPath
       id="clipPath3006"
       clipPathUnits="userSpaceOnUse">
      <path
         inkscape:export-ydpi="90"
         inkscape:export-xdpi="90"
         transform="matrix(1.2020779,0,0,1.2020779,-93.20363,-75.172465)"
         d="m 483,275.5 a 192.5,192.5 0 1 1 -385,0 192.5,192.5 0 1 1 385,0 z"
         sodipodi:ry="192.5"
         sodipodi:rx="192.5"
         sodipodi:cy="275.5"
         sodipodi:cx="290.5"
         id="path3008"
         style="fill:#ffffff;fill-opacity:1;stroke:none;display:inline"
         sodipodi:type="arc" />
    </clipPath>
    <clipPath
       id="clipPath3006-9"
       clipPathUnits="userSpaceOnUse">
      <path
         inkscape:export-ydpi="90"
         inkscape:export-xdpi="90"
         transform="matrix(1.2020779,0,0,1.2020779,-93.20363,-75.172465)"
         d="m 483,275.5 a 192.5,192.5 0 1 1 -385,0 192.5,192.5 0 1 1 385,0 z"
         sodipodi:ry="192.5"
         sodipodi:rx="192.5"
         sodipodi:cy="275.5"
         sodipodi:cx="290.5"
         id="path3008-1"
         style="fill:#ffffff;fill-opacity:1;stroke:none;display:inline"
         sodipodi:type="arc" />
    </clipPath>
    <mask
       maskUnits="userSpaceOnUse"
       id="mask3818-0">
      <path
         inkscape:export-ydpi="90"
         inkscape:export-xdpi="90"
         transform="matrix(1.2020779,0,0,1.2020779,-93.20363,-75.172466)"
         d="m 483,275.5 a 192.5,192.5 0 1 1 -385,0 192.5,192.5 0 1 1 385,0 z"
         sodipodi:ry="192.5"
         sodipodi:rx="192.5"
         sodipodi:cy="275.5"
         sodipodi:cx="290.5"
         id="path3820-8"
         style="fill:#ffffff;fill-opacity:1;stroke:none;display:inline"
         sodipodi:type="arc" />
    </mask>
    <mask
       maskUnits="userSpaceOnUse"
       id="mask3818-2">
      <path
         inkscape:export-ydpi="90"
         inkscape:export-xdpi="90"
         transform="matrix(1.2020779,0,0,1.2020779,-93.20363,-75.172466)"
         d="m 483,275.5 a 192.5,192.5 0 1 1 -385,0 192.5,192.5 0 1 1 385,0 z"
         sodipodi:ry="192.5"
         sodipodi:rx="192.5"
         sodipodi:cy="275.5"
         sodipodi:cx="290.5"
         id="path3820-2-2"
         style="fill:#ffffff;fill-opacity:1;stroke:none;display:inline"
         sodipodi:type="arc" />
    </mask>
    <clipPath
       id="clipPath3934"
       clipPathUnits="userSpaceOnUse">
      <path
         id="path3936"
         d="m 0,0 0,1024 1024,0 L 1024,0 0,0 z m 278.4375,333.84375 119.78125,0 c 9.83697,42.31453 19.85954,84.58596 29.9375,126.84375 9.86978,-42.28798 20.05132,-84.50237 29.6875,-126.84375 l 108.90625,0 c 9.63586,42.34141 19.8178,84.55578 29.6875,126.84375 10.07827,-42.25772 20.10031,-84.52927 29.9375,-126.84375 l 119.1875,0 c -26.26221,110.73099 -52.49625,221.46929 -78.28125,332.3125 l -122.8125,0 c -10.59439,-45.55681 -21.46638,-91.04874 -32.375,-136.53125 -10.66279,45.51136 -21.5615,90.96897 -32,136.53125 l -122.8125,0 c -25.71418,-110.03502 -52.0286,-219.92873 -78.25,-329.84375 l -0.59375,-2.46875 z"
         style="fill:#ff3232;fill-opacity:1;stroke:none"
         inkscape:connector-curvature="0" />
    </clipPath>
    <clipPath
       id="clipPath3929"
       clipPathUnits="userSpaceOnUse">
      <path
         inkscape:connector-curvature="0"
         style="fill:#ff3232;fill-opacity:1;stroke:none"
         d="m 0,0 0,1024 1024,0 L 1024,0 0,0 z m 278.4375,333.84375 119.78125,0 c 9.83697,42.31453 19.85954,84.58596 29.9375,126.84375 9.86978,-42.28798 20.05132,-84.50237 29.6875,-126.84375 l 108.90625,0 c 9.63586,42.34141 19.8178,84.55578 29.6875,126.84375 10.07827,-42.25772 20.10031,-84.52927 29.9375,-126.84375 l 119.1875,0 c -26.26221,110.73099 -52.49625,221.46929 -78.28125,332.3125 l -122.8125,0 c -10.59439,-45.55681 -21.46638,-91.04874 -32.375,-136.53125 -10.66279,45.51136 -21.5615,90.96897 -32,136.53125 l -122.8125,0 c -25.71418,-110.03502 -52.0286,-219.92873 -78.25,-329.84375 l -0.59375,-2.46875 z"
         id="path3931" />
    </clipPath>
    <mask
       maskUnits="userSpaceOnUse"
       id="mask3818">
      <path
         inkscape:export-ydpi="90"
         inkscape:export-xdpi="90"
         transform="matrix(1.2020779,0,0,1.2020779,-93.20363,-75.172466)"
         d="m 483,275.5 a 192.5,192.5 0 1 1 -385,0 192.5,192.5 0 1 1 385,0 z"
         sodipodi:ry="192.5"
         sodipodi:rx="192.5"
         sodipodi:cy="275.5"
         sodipodi:cx="290.5"
         id="path3820"
         style="fill:#ffffff;fill-opacity:1;stroke:none;display:inline"
         sodipodi:type="arc" />
    </mask>
    <linearGradient
       inkscape:collect="always"
       xlink:href="#linearGradient4573"
       id="linearGradient4575"
       x1="408.84314"
       y1="89.26915"
       x2="420.61133"
       y2="138.41306"
       gradientUnits="userSpaceOnUse"
       gradientTransform="matrix(0.99657796,0,0,1,1.2520606,0)" />
    <linearGradient
       inkscape:collect="always"
       xlink:href="#linearGradient8384"
       id="linearGradient6771"
       gradientUnits="userSpaceOnUse"
       gradientTransform="matrix(0.99657796,0,0,1,1.2520606,0)"
       x1="408.84314"
       y1="89.26915"
       x2="420.61133"
       y2="138.41306" />
  </defs>
  <metadata
     id="metadata4713">
    <rdf:RDF>
      <cc:Work
         rdf:about="">
        <dc:format>image/svg+xml</dc:format>
        <dc:type
           rdf:resource="http://purl.org/dc/dcmitype/StillImage" />
        <dc:title></dc:title>
      </cc:Work>
    </rdf:RDF>
  </metadata>
  <g
     id="layer1"
     inkscape:groupmode="layer"
     inkscape:label="Capa 1">
    <path
       style="opacity:1;fill:#dff2f6;fill-opacity:1;fill-rule:evenodd;stroke:#0088aa;stroke-width:2;stroke-linejoin:round;stroke-miterlimit:4;stroke-dasharray:none;stroke-dashoffset:0;stroke-opacity:1;paint-order:normal"
       d="m 97.583979,29.700195 c -11.07875,0 -19.99804,9.65194 -19.99804,21.64062 V 460.66113 c 0,11.9887 8.91929,21.63867 19.99804,21.63867 H 414.41602 c 11.07874,0 19.99804,-9.64997 19.99804,-21.63867 V 113.7959 c -0.33411,-0.32981 -0.46874,-0.43168 -0.81445,-0.77345 -9.64188,-9.53205 -23.80681,-23.701345 -37.64453,-37.822255 -6.91884,-7.06045 -13.75546,-14.10994 -19.9043,-20.56055 -6.14876,-6.45062 -11.60929,-12.30327 -15.77539,-16.97265 -3.0827,-3.45513 -4.82334,-5.68286 -6.625,-7.9668 z"
       id="path4506"
       inkscape:connector-curvature="0"
       sodipodi:nodetypes="ssssssccccccs" />
    <g
       id="g4584"
       transform="matrix(0.3829248,0,0,0.3829248,74.406719,31.973725)"
       style="fill:#75abd3;fill-opacity:1;stroke:#9dc4df;stroke-opacity:1" />
    <path
       style="opacity:1;fill:#0088aa;fill-opacity:1;fill-rule:evenodd;stroke:#37abc8;stroke-width:0.85055965;stroke-linecap:square;stroke-linejoin:miter;stroke-miterlimit:4;stroke-dasharray:none;stroke-dashoffset:0;stroke-opacity:1;paint-order:markers fill stroke"
       d="M 210.7168 401.95117 C 206.3922 401.95117 202.55706 402.64989 199.20898 404.04492 C 195.86091 405.43995 193.03618 407.39324 190.73438 409.9043 C 188.43257 412.3456 186.68773 415.3093 185.50195 418.79688 C 184.31618 422.28445 183.72461 426.12155 183.72461 430.30664 C 183.72461 434.63124 184.31618 438.53586 185.50195 442.02344 C 186.68773 445.44126 188.43257 448.40691 190.73438 450.91797 C 193.10593 453.35927 196.00014 455.24113 199.41797 456.56641 C 202.8358 457.89169 206.77613 458.55469 211.24023 458.55469 C 213.89079 458.55469 216.5428 458.38001 219.19336 458.03125 C 221.84392 457.68249 224.7719 456.88053 227.98047 455.625 C 227.98047 452.62568 227.63306 449.97563 226.93555 447.67383 C 226.23803 445.30228 225.29515 443.17431 224.10938 441.29102 C 222.08658 442.05828 220.30797 442.61609 218.77344 442.96484 C 217.30865 443.3136 215.56576 443.48828 213.54297 443.48828 C 211.93868 443.48828 210.40424 443.27984 208.93945 442.86133 C 207.54442 442.44282 206.2879 441.7441 205.17188 440.76758 C 204.1256 439.79106 203.25416 438.46701 202.55664 436.79297 C 201.92888 435.04918 201.61523 432.88745 201.61523 430.30664 C 201.61523 425.42403 202.69708 422.00578 204.85938 420.05273 C 207.09142 418.02994 209.88044 417.01758 213.22852 417.01758 C 214.13529 417.01758 214.97297 417.0533 215.74023 417.12305 C 216.57725 417.12305 217.41298 417.19253 218.25 417.33203 C 219.08702 417.47153 219.96042 417.67998 220.86719 417.95898 C 221.84371 418.16824 222.9236 418.48383 224.10938 418.90234 C 225.29515 416.67029 226.16855 414.40336 226.72656 412.10156 C 227.28457 409.73001 227.49302 407.35788 227.35352 404.98633 C 225.67948 404.35856 224.14503 403.83452 222.75 403.41602 C 221.42472 402.99751 220.09872 402.68386 218.77344 402.47461 C 217.51791 402.26535 216.22762 402.12639 214.90234 402.05664 C 213.57706 401.98689 212.18158 401.95117 210.7168 401.95117 z M 256.0957 401.95117 C 252.74763 401.95117 249.67678 402.37001 246.88672 403.20703 C 244.16641 404.04405 241.79623 405.26485 239.77344 406.86914 C 237.75064 408.40367 236.18048 410.28748 235.06445 412.51953 C 233.94843 414.75158 233.39063 417.22695 233.39062 419.94727 C 233.39063 424.27186 234.61143 427.69012 237.05273 430.20117 C 239.49404 432.71223 242.56293 434.49084 246.25977 435.53711 L 253.375 437.52539 C 254.56078 437.87415 255.6069 438.29299 256.51367 438.78125 C 257.42044 439.19976 257.87305 439.86081 257.87305 440.76758 C 257.87305 441.46509 257.62889 442.02485 257.14062 442.44336 C 256.72212 442.86187 256.16431 443.20928 255.4668 443.48828 C 254.76928 443.69754 253.96732 443.83845 253.06055 443.9082 C 252.15378 443.97795 251.28233 444.01172 250.44531 444.01172 C 248.00401 444.01172 245.5624 443.76756 243.12109 443.2793 C 240.67979 442.72128 238.34338 441.91932 236.11133 440.87305 C 233.87928 445.75566 232.58899 450.56939 232.24023 455.3125 C 235.44881 456.49828 238.48198 457.334 241.3418 457.82227 C 244.20161 458.31053 247.30622 458.55469 250.6543 458.55469 C 254.69989 458.55469 258.2571 458.06637 261.32617 457.08984 C 264.46499 456.11332 267.08128 454.78927 269.17383 453.11523 C 271.33613 451.4412 272.94005 449.45219 273.98633 447.15039 C 275.10235 444.84859 275.66016 442.37322 275.66016 439.72266 C 275.66016 437.14185 275.3108 434.9444 274.61328 433.13086 C 273.91577 431.31732 272.93912 429.78287 271.68359 428.52734 C 270.49782 427.27182 269.03285 426.25945 267.28906 425.49219 C 265.61503 424.65517 263.73317 423.9584 261.64062 423.40039 L 254.83984 421.62109 C 253.86332 421.34209 252.98992 420.99468 252.22266 420.57617 C 251.45539 420.15766 251.07227 419.56414 251.07227 418.79688 C 251.07227 416.98333 252.71191 416.07617 255.99023 416.07617 C 258.22228 416.07617 260.66389 416.38981 263.31445 417.01758 C 265.96501 417.64534 268.23194 418.34406 270.11523 419.11133 C 271.09176 417.15828 271.9632 414.92512 272.73047 412.41406 C 273.49774 409.83325 273.95034 407.42736 274.08984 405.19531 C 271.02078 404.14904 267.91812 403.34707 264.7793 402.78906 C 261.64048 402.23105 258.74626 401.95117 256.0957 401.95117 z M 305.0293 401.95117 C 301.89048 401.95117 298.5417 402.09209 294.98438 402.37109 C 291.4968 402.6501 288.11426 402.99751 284.83594 403.41602 L 284.83594 457.19531 C 286.64948 457.54407 288.25341 457.75251 289.64844 457.82227 C 291.04347 457.96177 292.33375 458.03125 293.51953 458.03125 C 294.63556 458.03125 295.92584 457.96177 297.39062 457.82227 C 298.85541 457.75251 300.49505 457.54407 302.30859 457.19531 L 302.30859 416.07617 C 303.00611 415.93667 304.01847 415.86719 305.34375 415.86719 C 307.7153 415.86719 309.42443 416.46071 310.4707 417.64648 C 311.58673 418.76251 312.14453 420.22748 312.14453 422.04102 C 312.14453 423.85456 311.68997 425.56173 310.7832 427.16602 C 309.87643 428.70055 308.20302 430.16552 305.76172 431.56055 L 304.29688 432.39844 L 315.91016 457.08984 C 317.09593 457.36885 318.59662 457.57925 320.41016 457.71875 C 322.2237 457.85825 324.10555 457.92773 326.05859 457.92773 C 327.66288 457.92773 329.30253 457.85825 330.97656 457.71875 C 332.72035 457.57925 334.29052 457.36885 335.68555 457.08984 L 323.75781 434.28125 C 324.24607 433.86274 324.87336 433.30494 325.64062 432.60742 C 326.40789 431.90991 327.14038 431.00274 327.83789 429.88672 C 328.53541 428.70094 329.12893 427.30741 329.61719 425.70312 C 330.10545 424.09884 330.34961 422.21503 330.34961 420.05273 C 330.34961 414.33311 328.22164 409.90249 323.9668 406.76367 C 319.7817 403.5551 313.46924 401.95117 305.0293 401.95117 z M 364.59375 401.95117 C 360.26915 401.95117 356.43206 402.64989 353.08398 404.04492 C 349.73591 405.43995 346.91118 407.39324 344.60938 409.9043 C 342.30757 412.3456 340.56468 415.3093 339.37891 418.79688 C 338.19313 422.28445 337.59961 426.12155 337.59961 430.30664 C 337.59961 434.63124 338.19313 438.53586 339.37891 442.02344 C 340.56468 445.44126 342.30757 448.40691 344.60938 450.91797 C 346.98093 453.35927 349.87514 455.24113 353.29297 456.56641 C 356.7108 457.89169 360.65309 458.55469 365.11719 458.55469 C 367.76775 458.55469 370.4178 458.38001 373.06836 458.03125 C 375.71892 457.68249 378.64885 456.88053 381.85742 455.625 C 381.85742 452.62568 381.50806 449.97563 380.81055 447.67383 C 380.11303 445.30228 379.1721 443.17431 377.98633 441.29102 C 375.96353 442.05828 374.18492 442.61609 372.65039 442.96484 C 371.18561 443.3136 369.44076 443.48828 367.41797 443.48828 C 365.81368 443.48828 364.27924 443.27984 362.81445 442.86133 C 361.41942 442.44282 360.16485 441.7441 359.04883 440.76758 C 358.00255 439.79106 357.12916 438.46701 356.43164 436.79297 C 355.80388 435.04918 355.49023 432.88745 355.49023 430.30664 C 355.49023 425.42403 356.57208 422.00578 358.73438 420.05273 C 360.96642 418.02994 363.75544 417.01758 367.10352 417.01758 C 368.01029 417.01758 368.84797 417.0533 369.61523 417.12305 C 370.45225 417.12305 371.28993 417.19253 372.12695 417.33203 C 372.96397 417.47153 373.83542 417.67998 374.74219 417.95898 C 375.71871 418.16824 376.80055 418.48383 377.98633 418.90234 C 379.1721 416.67029 380.04355 414.40336 380.60156 412.10156 C 381.15957 409.73001 381.36802 407.35788 381.22852 404.98633 C 379.55448 404.35856 378.02003 403.83452 376.625 403.41602 C 375.29972 402.99751 373.97567 402.68386 372.65039 402.47461 C 371.39486 402.26535 370.10458 402.12639 368.7793 402.05664 C 367.45402 401.98689 366.05853 401.95117 364.59375 401.95117 z M 139.03711 402.26562 C 137.64208 402.26562 136.17711 402.33511 134.64258 402.47461 C 133.1778 402.61411 131.67711 402.85827 130.14258 403.20703 L 130.14258 457.08984 C 131.95612 457.4386 133.59576 457.649 135.06055 457.71875 C 136.52533 457.85825 137.85133 457.92773 139.03711 457.92773 C 140.15313 457.92773 141.44342 457.85825 142.9082 457.71875 C 144.37299 457.649 146.01068 457.4386 147.82422 457.08984 L 147.82422 403.20703 C 146.35944 402.85827 144.86071 402.61411 143.32617 402.47461 C 141.79164 402.33511 140.36239 402.26562 139.03711 402.26562 z M 171.26172 402.37109 C 169.86669 402.37109 168.26276 402.44058 166.44922 402.58008 C 164.63568 402.71958 163.10123 402.92803 161.8457 403.20703 L 149.5 429.05078 L 163.41406 457.08984 C 164.46034 457.36885 165.85582 457.57925 167.59961 457.71875 C 169.41315 457.85825 171.22748 457.92773 173.04102 457.92773 C 174.43605 457.92773 176.07374 457.85825 177.95703 457.71875 C 179.84032 457.57925 181.41049 457.36885 182.66602 457.08984 L 168.22656 428.31836 L 181.20117 403.20703 C 180.08515 402.92803 178.58642 402.71958 176.70312 402.58008 C 174.88958 402.44058 173.07526 402.37109 171.26172 402.37109 z "
       id="rect4610" />
    <path
       style="opacity:1;fill:url(#linearGradient6771);fill-opacity:1;fill-rule:evenodd;stroke:none;stroke-width:8.77774811;stroke-linecap:square;stroke-linejoin:miter;stroke-miterlimit:4;stroke-dasharray:none;stroke-dashoffset:0;stroke-opacity:1;paint-order:markers fill stroke"
       d="m 433.28939,182.37584 v -69.47028 c 0,-0.0394 -0.0309,-0.0705 -0.0703,-0.0705 h -67.33747 c 4.09851,4.50878 8.40749,9.2132 13.77948,14.86279 7.205,7.57734 15.21697,15.8602 23.32513,24.15489 11.13885,11.3951 20.83136,21.05949 30.30308,30.52302 z"
       id="path4566"
       inkscape:connector-curvature="0" />
    <path
       style="opacity:1;fill:#0088aa;fill-opacity:1;fill-rule:evenodd;stroke:none;stroke-width:1.05391276;stroke-linejoin:round;stroke-miterlimit:4;stroke-dasharray:none;stroke-dashoffset:0;stroke-opacity:1;paint-order:normal"
       d="m 435.00048,114.60612 c -1.83541,-2.30475 -3.6077,-4.55306 -6.74972,-8.04125 -4.24635,-4.71409 -9.8132,-10.623129 -16.08223,-17.137261 C 405.8996,82.913483 398.92921,75.794273 391.8744,68.663457 377.76477,54.401804 363.32068,40.090503 353.48814,30.462087 c -0.35278,-0.345219 -0.4898,-0.448268 -0.83055,-0.781422 l -0.24394,62.802323 c -0.0467,12.055462 9.04538,21.800782 20.38588,21.850482 z"
       id="rect4485"
       inkscape:connector-curvature="0" />
    <path
       sodipodi:nodetypes="ccccsccccssccccc"
       id="path895"
       d="m 256.10894,99.0016 c -1.56541,4.1621 -3.32767,8.37557 -5.1274,12.40105 -0.15034,0.34932 -0.3868,0.64429 -0.5403,0.98991 -1.66037,3.66855 -3.30568,7.10795 -5.12738,10.6683 -0.37808,0.7359 -0.69523,1.50018 -1.07957,2.22834 -1.64613,3.1455 -3.38135,6.3629 -5.12742,9.42427 -0.60675,1.06716 -1.27231,2.17465 -1.88946,3.22516 -15.61816,26.15055 -36.14239,53.46453 -52.35352,76.38867 -12.84505,17.2471 -20.23168,35.8625 -22.39869,53.82067 0,44.59879 41.88306,80.85203 93.64274,80.85203 51.75958,0 93.64262,-36.25324 93.64262,-80.85203 0,-28.09981 -22.41906,-56.97383 -48.30563,-93.99851 -8.19376,-11.50049 -16.10109,-23.59657 -23.20825,-34.97169 -3.85755,-6.22896 -7.62914,-12.6421 -11.33425,-19.34346 -1.15746,-2.09195 -2.37329,-4.30683 -3.50826,-6.44789 -2.45314,-4.63957 -4.96591,-9.5072 -7.28623,-14.38642 z"
       style="fill:#37abc8;fill-opacity:1;fill-rule:nonzero;stroke:none"
       inkscape:connector-curvature="0" />
    <path
       sodipodi:nodetypes="ccscssc"
       id="path895-3"
       d="m 184.64813,214.3273 c -12.84504,17.2471 -20.23167,35.8625 -22.39869,53.82067 0,44.59879 41.88307,80.85203 93.64275,80.85203 51.75957,0 93.64262,-36.25324 93.64262,-80.85203 -174.1098,52.07369 -148.55768,-63.44027 -79.8999,-43.7013 75.56598,21.72504 32.67843,-31.19942 -16.83518,-36.79172 -39.90991,-4.5076 -68.1516,26.67235 -68.1516,26.67235 z"
       style="fill:#0088aa;fill-opacity:1;fill-rule:nonzero;stroke:none"
       inkscape:connector-curvature="0" />
  </g>
</svg>
