<?xml version="1.0" encoding="UTF-8" standalone="no"?>
<!-- Created with Inkscape (http://www.inkscape.org/) -->

<svg
   xmlns:osb="http://www.openswatchbook.org/uri/2009/osb"
   xmlns:dc="http://purl.org/dc/elements/1.1/"
   xmlns:cc="http://creativecommons.org/ns#"
   xmlns:rdf="http://www.w3.org/1999/02/22-rdf-syntax-ns#"
   xmlns:svg="http://www.w3.org/2000/svg"
   xmlns="http://www.w3.org/2000/svg"
   xmlns:xlink="http://www.w3.org/1999/xlink"
   xmlns:sodipodi="http://sodipodi.sourceforge.net/DTD/sodipodi-0.dtd"
   xmlns:inkscape="http://www.inkscape.org/namespaces/inkscape"
   width="512px"
   height="512px"
   viewBox="0 0 512 512"
   version="1.1"
   id="SVGRoot"
   inkscape:version="0.92.1 r15371"
   sodipodi:docname="kdenlive.svg">
  <sodipodi:namedview
     id="base"
     pagecolor="#ffffff"
     bordercolor="#666666"
     borderopacity="1.0"
     inkscape:pageopacity="0.0"
     inkscape:pageshadow="2"
     inkscape:zoom="0.25"
     inkscape:cx="384.87191"
     inkscape:cy="1200.7792"
     inkscape:document-units="px"
     inkscape:current-layer="layer1"
     showgrid="false"
     inkscape:window-width="1280"
     inkscape:window-height="947"
     inkscape:window-x="0"
     inkscape:window-y="0"
     inkscape:window-maximized="1" />
  <defs
     id="defs4710">
    <linearGradient
       id="linearGradient8384"
       inkscape:collect="always">
      <stop
         id="stop8380"
         offset="0"
         style="stop-color:#181818;stop-opacity:0.62365592" />
      <stop
         id="stop8382"
         offset="1"
         style="stop-color:#404040;stop-opacity:0" />
    </linearGradient>
    <linearGradient
       inkscape:collect="always"
       id="linearGradient4573">
      <stop
         style="stop-color:#181818;stop-opacity:0.30645162"
         offset="0"
         id="stop4569" />
      <stop
         style="stop-color:#404040;stop-opacity:0"
         offset="1"
         id="stop4571" />
    </linearGradient>
    <marker
       inkscape:stockid="DotM"
       orient="auto"
       refY="0.0"
       refX="0.0"
       id="DotM"
       style="overflow:visible"
       inkscape:isstock="true">
      <path
         id="path4618"
         d="M -2.5,-1.0 C -2.5,1.7600000 -4.7400000,4.0 -7.5,4.0 C -10.260000,4.0 -12.5,1.7600000 -12.5,-1.0 C -12.5,-3.7600000 -10.260000,-6.0 -7.5,-6.0 C -4.7400000,-6.0 -2.5,-3.7600000 -2.5,-1.0 z "
         style="fill-rule:evenodd;stroke:#000000;stroke-width:1.0pt"
         transform="scale(0.4) translate(7.4, 1)" />
    </marker>
    <linearGradient
       osb:paint="solid"
       id="linearGradient5207">
      <stop
         id="stop5209"
         offset="0"
         style="stop-color:#000015;stop-opacity:1;" />
    </linearGradient>
    <clipPath
       id="clipPath3006-9-8"
       clipPathUnits="userSpaceOnUse">
      <path
         inkscape:export-ydpi="90"
         inkscape:export-xdpi="90"
         transform="matrix(1.2020779,0,0,1.2020779,-93.20363,-75.172465)"
         d="m 483,275.5 a 192.5,192.5 0 1 1 -385,0 192.5,192.5 0 1 1 385,0 z"
         sodipodi:ry="192.5"
         sodipodi:rx="192.5"
         sodipodi:cy="275.5"
         sodipodi:cx="290.5"
         id="path3008-1-1"
         style="fill:#ffffff;fill-opacity:1;stroke:none;display:inline"
         sodipodi:type="arc" />
    </clipPath>
    <mask
       id="mask3818-4"
       maskUnits="userSpaceOnUse">
      <path
         sodipodi:type="arc"
         style="fill:#ffffff;fill-opacity:1;stroke:none;display:inline"
         id="path3820-9"
         sodipodi:cx="290.5"
         sodipodi:cy="275.5"
         sodipodi:rx="192.5"
         sodipodi:ry="192.5"
         d="m 483,275.5 a 192.5,192.5 0 1 1 -385,0 192.5,192.5 0 1 1 385,0 z"
         transform="matrix(1.2020779,0,0,1.2020779,-93.20363,-75.172466)"
         inkscape:export-xdpi="90"
         inkscape:export-ydpi="90" />
    </mask>
    <clipPath
       id="clipPath3006"
       clipPathUnits="userSpaceOnUse">
      <path
         inkscape:export-ydpi="90"
         inkscape:export-xdpi="90"
         transform="matrix(1.2020779,0,0,1.2020779,-93.20363,-75.172465)"
         d="m 483,275.5 a 192.5,192.5 0 1 1 -385,0 192.5,192.5 0 1 1 385,0 z"
         sodipodi:ry="192.5"
         sodipodi:rx="192.5"
         sodipodi:cy="275.5"
         sodipodi:cx="290.5"
         id="path3008"
         style="fill:#ffffff;fill-opacity:1;stroke:none;display:inline"
         sodipodi:type="arc" />
    </clipPath>
    <clipPath
       id="clipPath3006-9"
       clipPathUnits="userSpaceOnUse">
      <path
         inkscape:export-ydpi="90"
         inkscape:export-xdpi="90"
         transform="matrix(1.2020779,0,0,1.2020779,-93.20363,-75.172465)"
         d="m 483,275.5 a 192.5,192.5 0 1 1 -385,0 192.5,192.5 0 1 1 385,0 z"
         sodipodi:ry="192.5"
         sodipodi:rx="192.5"
         sodipodi:cy="275.5"
         sodipodi:cx="290.5"
         id="path3008-1"
         style="fill:#ffffff;fill-opacity:1;stroke:none;display:inline"
         sodipodi:type="arc" />
    </clipPath>
    <mask
       maskUnits="userSpaceOnUse"
       id="mask3818-0">
      <path
         inkscape:export-ydpi="90"
         inkscape:export-xdpi="90"
         transform="matrix(1.2020779,0,0,1.2020779,-93.20363,-75.172466)"
         d="m 483,275.5 a 192.5,192.5 0 1 1 -385,0 192.5,192.5 0 1 1 385,0 z"
         sodipodi:ry="192.5"
         sodipodi:rx="192.5"
         sodipodi:cy="275.5"
         sodipodi:cx="290.5"
         id="path3820-8"
         style="fill:#ffffff;fill-opacity:1;stroke:none;display:inline"
         sodipodi:type="arc" />
    </mask>
    <mask
       maskUnits="userSpaceOnUse"
       id="mask3818-2">
      <path
         inkscape:export-ydpi="90"
         inkscape:export-xdpi="90"
         transform="matrix(1.2020779,0,0,1.2020779,-93.20363,-75.172466)"
         d="m 483,275.5 a 192.5,192.5 0 1 1 -385,0 192.5,192.5 0 1 1 385,0 z"
         sodipodi:ry="192.5"
         sodipodi:rx="192.5"
         sodipodi:cy="275.5"
         sodipodi:cx="290.5"
         id="path3820-2-2"
         style="fill:#ffffff;fill-opacity:1;stroke:none;display:inline"
         sodipodi:type="arc" />
    </mask>
    <clipPath
       id="clipPath3934"
       clipPathUnits="userSpaceOnUse">
      <path
         id="path3936"
         d="m 0,0 0,1024 1024,0 L 1024,0 0,0 z m 278.4375,333.84375 119.78125,0 c 9.83697,42.31453 19.85954,84.58596 29.9375,126.84375 9.86978,-42.28798 20.05132,-84.50237 29.6875,-126.84375 l 108.90625,0 c 9.63586,42.34141 19.8178,84.55578 29.6875,126.84375 10.07827,-42.25772 20.10031,-84.52927 29.9375,-126.84375 l 119.1875,0 c -26.26221,110.73099 -52.49625,221.46929 -78.28125,332.3125 l -122.8125,0 c -10.59439,-45.55681 -21.46638,-91.04874 -32.375,-136.53125 -10.66279,45.51136 -21.5615,90.96897 -32,136.53125 l -122.8125,0 c -25.71418,-110.03502 -52.0286,-219.92873 -78.25,-329.84375 l -0.59375,-2.46875 z"
         style="fill:#ff3232;fill-opacity:1;stroke:none"
         inkscape:connector-curvature="0" />
    </clipPath>
    <clipPath
       id="clipPath3929"
       clipPathUnits="userSpaceOnUse">
      <path
         inkscape:connector-curvature="0"
         style="fill:#ff3232;fill-opacity:1;stroke:none"
         d="m 0,0 0,1024 1024,0 L 1024,0 0,0 z m 278.4375,333.84375 119.78125,0 c 9.83697,42.31453 19.85954,84.58596 29.9375,126.84375 9.86978,-42.28798 20.05132,-84.50237 29.6875,-126.84375 l 108.90625,0 c 9.63586,42.34141 19.8178,84.55578 29.6875,126.84375 10.07827,-42.25772 20.10031,-84.52927 29.9375,-126.84375 l 119.1875,0 c -26.26221,110.73099 -52.49625,221.46929 -78.28125,332.3125 l -122.8125,0 c -10.59439,-45.55681 -21.46638,-91.04874 -32.375,-136.53125 -10.66279,45.51136 -21.5615,90.96897 -32,136.53125 l -122.8125,0 c -25.71418,-110.03502 -52.0286,-219.92873 -78.25,-329.84375 l -0.59375,-2.46875 z"
         id="path3931" />
    </clipPath>
    <mask
       maskUnits="userSpaceOnUse"
       id="mask3818">
      <path
         inkscape:export-ydpi="90"
         inkscape:export-xdpi="90"
         transform="matrix(1.2020779,0,0,1.2020779,-93.20363,-75.172466)"
         d="m 483,275.5 a 192.5,192.5 0 1 1 -385,0 192.5,192.5 0 1 1 385,0 z"
         sodipodi:ry="192.5"
         sodipodi:rx="192.5"
         sodipodi:cy="275.5"
         sodipodi:cx="290.5"
         id="path3820"
         style="fill:#ffffff;fill-opacity:1;stroke:none;display:inline"
         sodipodi:type="arc" />
    </mask>
    <linearGradient
       inkscape:collect="always"
       xlink:href="#linearGradient4573"
       id="linearGradient4575"
       x1="408.84314"
       y1="89.26915"
       x2="420.61133"
       y2="138.41306"
       gradientUnits="userSpaceOnUse"
       gradientTransform="matrix(0.99657796,0,0,1,1.2520606,0)" />
    <linearGradient
       inkscape:collect="always"
       xlink:href="#linearGradient8384"
       id="linearGradient6771"
       gradientUnits="userSpaceOnUse"
       gradientTransform="matrix(0.99657796,0,0,1,1.3692481,-0.00390625)"
       x1="408.84314"
       y1="89.26915"
       x2="420.61133"
       y2="138.41306" />
  </defs>
  <metadata
     id="metadata4713">
    <rdf:RDF>
      <cc:Work
         rdf:about="">
        <dc:format>image/svg+xml</dc:format>
        <dc:type
           rdf:resource="http://purl.org/dc/dcmitype/StillImage" />
        <dc:title></dc:title>
      </cc:Work>
    </rdf:RDF>
  </metadata>
  <g
     id="layer1"
     inkscape:groupmode="layer"
     inkscape:label="Capa 1">
    <path
       style="opacity:1;fill:#f5f7f8;fill-opacity:1;fill-rule:evenodd;stroke:#007cac;stroke-width:2;stroke-linejoin:round;stroke-miterlimit:4;stroke-dasharray:none;stroke-dashoffset:0;stroke-opacity:1;paint-order:normal"
       d="m 97.583979,29.700195 c -11.07875,0 -19.99804,9.65194 -19.99804,21.64062 V 460.66113 c 0,11.9887 8.91929,21.63867 19.99804,21.63867 H 414.41602 c 11.07874,0 19.99804,-9.64997 19.99804,-21.63867 V 113.7959 c -0.33411,-0.32981 -0.46874,-0.43168 -0.81445,-0.77345 -9.64188,-9.53205 -23.80681,-23.701345 -37.64453,-37.822255 -6.91884,-7.06045 -13.75546,-14.10994 -19.9043,-20.56055 -6.14876,-6.45062 -11.60929,-12.30327 -15.77539,-16.97265 -3.0827,-3.45513 -4.82334,-5.68286 -6.625,-7.9668 z"
       id="path4506"
       inkscape:connector-curvature="0"
       sodipodi:nodetypes="ssssssccccccs" />
    <g
       id="g4584"
       transform="matrix(0.3829248,0,0,0.3829248,74.406719,31.973725)"
       style="fill:#75abd3;fill-opacity:1;stroke:#9dc4df;stroke-opacity:1" />
    <path
       style="opacity:1;fill:#e7e7e7;fill-opacity:0.80924857;fill-rule:evenodd;stroke:none;stroke-width:1.98158312;stroke-linejoin:round;stroke-miterlimit:4;stroke-dasharray:none;stroke-dashoffset:0;stroke-opacity:1;paint-order:normal"
       d="M 149.06831,30.367094 H 98.30698 c -10.92316,0 -19.71718,9.609969 -19.71718,21.54651 V 459.45377 c 0,12.46781 7.57527,21.54457 19.71718,21.54457 h 50.76133 z"
       id="path4626"
       inkscape:connector-curvature="0"
       sodipodi:nodetypes="csssscc" />
    <path
       style="opacity:1;fill:#e7e7e7;fill-opacity:0.80924857;fill-rule:evenodd;stroke:none;stroke-width:1.98420691;stroke-linejoin:round;stroke-miterlimit:4;stroke-dasharray:none;stroke-dashoffset:0;stroke-opacity:1;paint-order:normal"
       d="m 363.0016,481.0013 h 50.71312 c 10.91112,0 19.69548,-9.64408 19.69548,-21.62546 V 112.72418 c -0.32905,-0.32961 -0.46165,-0.43336 -0.80213,-0.77493 -9.496,-9.52623 -23.44662,-23.686887 -37.07497,-37.799182 -6.81416,-7.056143 -13.54734,-14.101329 -19.60315,-20.548003 -5.03898,-5.364288 -9.17197,-9.912752 -12.92835,-14.112479 z"
       id="path4654"
       inkscape:connector-curvature="0" />
    <g
       id="g4518"
       transform="matrix(0.40614177,0,0,0.40614177,100.98722,184.11176)"
       style="fill:#007cac;fill-opacity:1">
      <g
         id="g4495"
         style="fill:#007cac;fill-opacity:1" />
      <g
         id="g4529"
         style="fill:#007cac;fill-opacity:1">
        <path
           style="fill:#007cac;fill-opacity:1"
           inkscape:connector-curvature="0"
           d="m 477.31299,236.76255 c -34.857,45.476 -88.576,74.66 -148.756,74.66 -105.114,0 -190.321,-88.299 -190.321,-197.038 0,-108.7180034 85.207,-197.037968 190.321,-197.037968 v 0 c 104.857,0 190.075,88.3199646 190.075,197.037968 0,27.136 -5.417,52.962 -14.981,76.718 z m -152.095,-277.360968 c -21.975,0 -39.782,17.837985 -39.782,39.80296456 0,21.94500044 17.808,39.78200044 39.782,39.78200044 21.954,0 39.742,-17.838 39.742,-39.78200044 0,-21.96497956 -17.797,-39.80296456 -39.742,-39.80296456 z m 98.355,53.482965 c -21.904,0 -39.752,17.817 -39.752,39.803 0,21.945 17.858,39.742 39.752,39.742 21.975,0 39.824,-17.797 39.824,-39.742 -0.01,-21.986 -17.849,-39.803 -39.824,-39.803 z m 1.823,113.644003 c -21.924,0 -39.731,17.817 -39.731,39.782 0,21.965 17.817,39.783 39.731,39.783 21.965,0 39.803,-17.817 39.803,-39.783 0,-21.966 -17.849,-39.783 -39.803,-39.783 v 0 z m -94.249,63.273 c -21.975,0 -39.782,17.817 -39.782,39.762 0,21.965 17.797,39.762 39.782,39.762 21.934,0 39.772,-17.797 39.772,-39.762 0,-21.934 -17.838,-39.762 -39.772,-39.762 z m -94.525,-52.674 c -21.965,0 -39.803,17.797 -39.803,39.762 0,21.965 17.838,39.782 39.803,39.782 21.965,0 39.762,-17.817 39.762,-39.783 0,-21.966 -17.797,-39.762 -39.762,-39.762 v 0 z m -5.182,-115.446003 c -21.924,0 -39.751,17.776 -39.751,39.762 0,21.924 17.828,39.762003 39.751,39.762003 21.975,0 39.772,-17.838003 39.772,-39.762003 -0.01,-21.975 -17.808,-39.762 -39.772,-39.762 z m 99.758,77.486 c -8.018,0 -14.53,6.697003 -14.53,14.439003 0,8.018 6.512,14.459 14.53,14.459 7.751,0 14.213,-6.441 14.213,-14.459 -0.01,-7.742 -6.462,-14.439003 -14.213,-14.439003 z m -2.642,-161.197965 c -93.993,0 -170.445,79.062965 -170.445,176.424968 0,97.382 76.452,176.405 170.445,176.405 94.014,0 170.199,-79.022 170.199,-176.405 0,-97.372003 -76.185,-176.424968 -170.199,-176.424968 z"
           id="path4497" />
        <path
           style="fill:#007cac;fill-opacity:1"
           inkscape:connector-curvature="0"
           d="m 505.38999,204.10655 c 0,0 21.965,48.363 71.342,10.476 -17.603,30.843 -30.157,44.442 -52.275,83.702 -47.483,16.261 -63.242,-15.237 -64.717,-31.877 25.712,-15.421 45.65,-62.3 45.65,-62.3 z"
           id="path4499" />
        <path
           style="fill:#007cac;fill-opacity:1"
           inkscape:connector-curvature="0"
           d="m 534.74899,294.84355 c 0,0 42.916,1.024 37.12,31.98 l 53.238,-82.238 c 0,0 -4.844,-49.398 -41.636,-27.095 z"
           id="path4501" />
        <path
           style="fill:#007cac;fill-opacity:1"
           inkscape:connector-curvature="0"
           d="m 502.09399,211.92055 c 3.298,-7.824 39.618,-64.676 16.456,-157.184003 0,0 47.237,60.457003 20.88,179.097003 -3.298,-1.065 -14.295,27.484 -18.698,24.217 -4.403,-3.308 -18.637,-46.131 -18.637,-46.131 z"
           id="path4503" />
      </g>
    </g>
    <rect
       style="opacity:1;fill:#f3f8fa;fill-opacity:1;fill-rule:evenodd;stroke:none;stroke-width:0.85548168;stroke-linejoin:round;stroke-miterlimit:4;stroke-dasharray:none;stroke-dashoffset:0;stroke-opacity:1;paint-order:normal"
       id="rect4630"
       width="51.264717"
       height="48"
       x="90.676102"
       y="74.657669"
       ry="10.253048" />
    <rect
       ry="10.253048"
       y="182.65768"
       x="90.676102"
       height="48"
       width="51.264717"
       id="rect4634"
       style="opacity:1;fill:#f3f8fa;fill-opacity:1;fill-rule:evenodd;stroke:none;stroke-width:0.85548168;stroke-linejoin:round;stroke-miterlimit:4;stroke-dasharray:none;stroke-dashoffset:0;stroke-opacity:1;paint-order:normal" />
    <rect
       ry="10.253048"
       y="290.65768"
       x="90.676102"
       height="48"
       width="51.264717"
       id="rect4638"
       style="opacity:1;fill:#f3f8fa;fill-opacity:1;fill-rule:evenodd;stroke:none;stroke-width:0.85548168;stroke-linejoin:round;stroke-miterlimit:4;stroke-dasharray:none;stroke-dashoffset:0;stroke-opacity:1;paint-order:normal" />
    <rect
       style="opacity:1;fill:#f3f8fa;fill-opacity:1;fill-rule:evenodd;stroke:none;stroke-width:0.85548168;stroke-linejoin:round;stroke-miterlimit:4;stroke-dasharray:none;stroke-dashoffset:0;stroke-opacity:1;paint-order:normal"
       id="rect4640"
       width="51.264717"
       height="48"
       x="90.676102"
       y="398.65765"
       ry="10.253048" />
    <rect
       style="opacity:1;fill:#f3f8fa;fill-opacity:1;fill-rule:evenodd;stroke:none;stroke-width:0.84872633;stroke-linejoin:round;stroke-miterlimit:4;stroke-dasharray:none;stroke-dashoffset:0;stroke-opacity:1;paint-order:normal"
       id="rect4660"
       width="50.48909"
       height="47.970715"
       x="370.63422"
       y="181.84625"
       ry="10.246793" />
    <rect
       style="opacity:1;fill:#f3f8fa;fill-opacity:1;fill-rule:evenodd;stroke:none;stroke-width:0.84872633;stroke-linejoin:round;stroke-miterlimit:4;stroke-dasharray:none;stroke-dashoffset:0;stroke-opacity:1;paint-order:normal"
       id="rect4664"
       width="50.48909"
       height="47.970715"
       x="370.63422"
       y="289.78036"
       ry="10.246793" />
    <rect
       ry="10.246793"
       y="397.71448"
       x="370.63422"
       height="47.970715"
       width="50.48909"
       id="rect4666"
       style="opacity:1;fill:#f3f8fa;fill-opacity:1;fill-rule:evenodd;stroke:none;stroke-width:0.84872633;stroke-linejoin:round;stroke-miterlimit:4;stroke-dasharray:none;stroke-dashoffset:0;stroke-opacity:1;paint-order:normal" />
    <path
       inkscape:connector-curvature="0"
       style="opacity:1;fill:#f3f8fa;fill-opacity:1;fill-rule:evenodd;stroke:none;stroke-width:0.84872633;stroke-linejoin:round;stroke-miterlimit:4;stroke-dasharray:none;stroke-dashoffset:0;stroke-opacity:1;paint-order:normal"
       d="m 380.91733,73.73961 c -5.59291,-0.12415 -10.09877,4.56898 -10.09877,10.2457 v 27.29974 0.17764 c 0,5.67672 4.50452,10.24764 10.09877,10.24764 h 30.29245 c 5.47194,0 9.83849,-4.39459 10.02952,-9.89825 0.004,-0.12301 0.0691,-0.22529 0.0692,-0.34939 l 0.0154,-12.27768 C 418.30329,95.87408 401.04732,78.48833 396.83461,74.09295 Z"
       id="path4668"
       sodipodi:nodetypes="sscssscsccs" />
    <path
       style="opacity:1;fill:#007cac;fill-opacity:1;fill-rule:evenodd;stroke:none;stroke-width:1.05391276;stroke-linejoin:round;stroke-miterlimit:4;stroke-dasharray:none;stroke-dashoffset:0;stroke-opacity:1;paint-order:normal"
       d="m 435.00048,114.60612 c -1.83541,-2.30475 -3.6077,-4.55306 -6.74972,-8.04125 -4.24635,-4.71409 -9.8132,-10.623129 -16.08223,-17.137261 C 405.8996,82.913483 398.92921,75.794273 391.8744,68.663457 377.76477,54.401804 363.32068,40.090503 353.48814,30.462087 c -0.35278,-0.345219 -0.4898,-0.448268 -0.83055,-0.781422 l -0.24394,62.802323 c -0.0467,12.055462 9.04538,21.800782 20.38588,21.850482 z"
       id="rect4485"
       inkscape:connector-curvature="0" />
    <path
       style="opacity:1;fill:url(#linearGradient6771);fill-opacity:1;fill-rule:evenodd;stroke:none;stroke-width:8.77774811;stroke-linecap:square;stroke-linejoin:miter;stroke-miterlimit:4;stroke-dasharray:none;stroke-dashoffset:0;stroke-opacity:1;paint-order:markers fill stroke"
       d="m 433.40658,182.37194 v -69.47028 c 0,-0.0394 -0.0309,-0.0705 -0.0703,-0.0705 h -67.33747 c 4.09851,4.50878 8.40749,9.2132 13.77948,14.86279 7.205,7.57734 15.21697,15.8602 23.32513,24.15489 11.13885,11.3951 20.83136,21.05949 30.30308,30.52302 z"
       id="path4566"
       inkscape:connector-curvature="0" />
    <path
       style="opacity:1;fill:#007cac;fill-opacity:1;fill-rule:evenodd;stroke:#eaf2f6;stroke-width:1.15755904;stroke-linecap:square;stroke-linejoin:miter;stroke-miterlimit:4;stroke-dasharray:none;stroke-dashoffset:0;stroke-opacity:1;paint-order:markers fill stroke"
       d="m 306.01208,386.26828 c -5.68884,0 -10.66606,0.97915 -14.93268,2.93469 -4.26663,1.86665 -7.82375,4.44266 -10.66818,7.7315 -2.84441,3.28886 -4.97751,7.15583 -6.39973,11.60024 -1.42219,4.4444 -2.13323,9.20115 -2.13323,14.26777 0,5.15551 0.66733,9.91028 2.00065,14.2658 1.42222,4.35551 3.5553,8.13311 6.39973,11.33308 2.9333,3.11108 6.66721,5.55599 11.20049,7.33374 4.62218,1.77776 10.13168,2.66556 16.53162,2.66556 8.26659,0 16.35605,-1.46576 24.26709,-4.39905 -0.0889,-3.46665 -0.62118,-6.79935 -1.59894,-9.99932 -0.88889,-3.19998 -1.95543,-5.9567 -3.19986,-8.26778 -3.11108,1.24443 -6.26702,2.1779 -9.46699,2.80011 -3.19997,0.62222 -6.08978,0.93404 -8.66753,0.93404 -3.99995,0 -7.24331,-0.7567 -9.73217,-2.2678 -2.39997,-1.51111 -4.09015,-4.0871 -5.06791,-7.7315 h 40.53352 c 0.17778,-1.24444 0.35652,-2.80156 0.5343,-4.66821 0.26667,-1.95554 0.39973,-4.13233 0.39973,-6.5323 0,-4.62219 -0.71103,-8.88838 -2.13323,-12.79943 -1.33332,-3.99997 -3.28966,-7.37836 -5.86739,-10.1339 -2.57776,-2.8444 -5.73372,-5.06688 -9.46701,-6.66686 -3.64441,-1.59997 -7.82123,-2.40038 -12.53228,-2.40038 z m -187.82206,0.39974 c -1.77777,-1e-5 -3.64472,0.0894 -5.60026,0.26715 -1.86665,0.17776 -3.77728,0.48958 -5.73282,0.93403 l -0.1326,68.93254 h 47.73272 c 0.44444,-1.77778 0.7106,-3.42228 0.79949,-4.93338 0.17776,-1.59998 0.26713,-3.11142 0.26713,-4.53363 0,-1.4222 -0.0894,-2.88795 -0.26713,-4.39906 -0.0889,-1.5111 -0.35505,-3.1556 -0.79949,-4.93336 h -25.19913 l 0.13258,-50.13311 c -1.86665,-0.44445 -3.7773,-0.75627 -5.73282,-0.93403 -1.95554,-0.17778 -3.7788,-0.26716 -5.46767,-0.26715 z m 58.19905,0 c -1.77776,-1e-5 -3.64273,0.0894 -5.59827,0.26715 -1.86665,0.17776 -3.77928,0.48958 -5.73482,0.93403 v 68.79797 c 2.22221,0.35554 4.2679,0.62367 6.13455,0.80145 1.86665,0.17776 3.55486,0.26713 5.06596,0.26713 1.51108,0 3.19929,-0.0894 5.06594,-0.26713 1.86665,-0.17778 3.95604,-0.44591 6.26715,-0.80145 V 387.8692 c -1.86667,-0.44445 -3.77731,-0.75627 -5.73285,-0.93403 -1.95554,-0.17778 -3.77879,-0.26716 -5.46766,-0.26715 z m 32.83369,0.4017 c -2.93332,0 -5.68807,0.0874 -8.26582,0.26518 -2.48887,0.17778 -4.22274,0.35652 -5.20052,0.5343 l 25.59889,68.66539 c 1.5111,0.44443 3.20128,0.71057 5.06793,0.79946 1.86665,0.17778 3.68792,0.26715 5.46567,0.26715 1.77778,0 3.60102,-0.0894 5.46767,-0.26715 1.95554,-0.0889 3.86619,-0.35503 5.73284,-0.79946 l 26.13317,-68.66539 c -0.97776,-0.17778 -2.75534,-0.35652 -5.33309,-0.5343 -2.48887,-0.17778 -5.19993,-0.26518 -8.13323,-0.26518 -2.31108,0 -4.57724,0.0874 -6.79945,0.26518 -2.2222,0.17778 -3.68995,0.35652 -4.40105,0.5343 -1.95552,6.6666 -3.91186,13.51077 -5.8674,20.53293 -1.86665,7.02213 -3.82099,13.9557 -5.86542,20.80007 l -12.13255,-41.333 c -0.71111,-0.17778 -2.22253,-0.35652 -4.53363,-0.5343 -2.31108,-0.17778 -4.62293,-0.26518 -6.93401,-0.26518 z m 95.98985,16.13189 c 3.28885,0 5.77746,1.06655 7.46634,3.19985 1.77776,2.04443 2.75493,4.62241 2.9327,7.73349 h -21.33239 c 0.35554,-3.7333 1.55516,-6.48805 3.59959,-8.2658 2.04443,-1.77776 4.48934,-2.66754 7.33376,-2.66754 z"
       id="rect4610"
       inkscape:connector-curvature="0" />
    <path
       style="opacity:1;fill:#007cac;fill-opacity:1;fill-rule:evenodd;stroke:#eaf2f6;stroke-width:1.14248979;stroke-linecap:square;stroke-linejoin:miter;stroke-miterlimit:4;stroke-dasharray:none;stroke-dashoffset:0;stroke-opacity:1;paint-order:markers fill stroke"
       d="M 116.19727 297.44336 C 115.01149 297.44336 113.64977 297.51479 112.11523 297.6543 C 110.5807 297.7938 108.87353 298.00224 106.99023 298.28125 L 106.99023 372.98438 C 110.61732 373.61214 113.71997 373.92773 116.30078 373.92773 C 118.74209 373.92773 121.81098 373.61214 125.50781 372.98438 L 125.50781 298.28125 C 123.69427 298.00224 121.98515 297.7938 120.38086 297.6543 C 118.84633 297.51479 117.45279 297.44336 116.19727 297.44336 z M 154.80469 297.44336 C 153.2004 297.44336 151.63024 297.51479 150.0957 297.6543 C 148.56117 297.72405 146.74684 297.93249 144.6543 298.28125 L 126.97266 335.32031 L 146.11914 372.98438 C 147.44442 373.26338 149.0503 373.47378 150.93359 373.61328 C 152.81689 373.82254 154.76822 373.92773 156.79102 373.92773 C 158.3953 373.92773 160.17391 373.82254 162.12695 373.61328 C 164.14975 373.47378 165.75563 373.26338 166.94141 372.98438 L 147.375 334.37695 L 165.26758 298.28125 C 164.63981 298.2115 163.87161 298.14202 162.96484 298.07227 C 162.12783 297.93276 161.22066 297.82756 160.24414 297.75781 C 159.33737 297.61831 158.39644 297.54883 157.41992 297.54883 C 156.4434 297.47908 155.57195 297.44336 154.80469 297.44336 z M 191.29883 317.95117 C 188.43901 317.95117 185.37012 318.12585 182.0918 318.47461 C 178.81347 318.75362 175.70886 319.06726 172.7793 319.41602 L 172.7793 373.19531 C 175.70886 373.61382 178.49983 373.92746 181.15039 374.13672 C 183.8707 374.41572 186.9396 374.55469 190.35742 374.55469 C 196.21655 374.55469 201.20497 373.89169 205.32031 372.56641 C 209.50541 371.17138 212.88794 369.21809 215.46875 366.70703 C 218.11931 364.19598 220.03688 361.1628 221.22266 357.60547 C 222.47818 354.04814 223.10547 350.07208 223.10547 345.67773 C 223.10547 341.49264 222.5139 337.69126 221.32812 334.27344 C 220.14235 330.85561 218.25854 327.9614 215.67773 325.58984 C 213.09693 323.14854 209.78387 321.26473 205.73828 319.93945 C 201.76244 318.61417 196.9487 317.95117 191.29883 317.95117 z M 256.41602 317.95117 C 251.95192 317.95117 248.04534 318.71937 244.69727 320.25391 C 241.34919 321.71869 238.55822 323.74146 236.32617 326.32227 C 234.09412 328.90307 232.42071 331.93625 231.30469 335.42383 C 230.18866 338.91141 229.63086 342.6433 229.63086 346.61914 C 229.63086 350.66473 230.15295 354.39663 231.19922 357.81445 C 232.31524 361.23228 233.99061 364.19598 236.22266 366.70703 C 238.52446 369.14834 241.45244 371.06786 245.00977 372.46289 C 248.63685 373.85792 252.96226 374.55469 257.98438 374.55469 C 264.47127 374.55469 270.81945 373.40336 277.02734 371.10156 C 276.95759 368.38125 276.53875 365.76692 275.77148 363.25586 C 275.07397 360.7448 274.23629 358.58112 273.25977 356.76758 C 270.81846 357.7441 268.34309 358.47658 265.83203 358.96484 C 263.32098 359.4531 261.05405 359.69727 259.03125 359.69727 C 255.89243 359.69727 253.34562 359.10375 251.39258 357.91797 C 249.50929 356.73219 248.18524 354.70942 247.41797 351.84961 L 279.22461 351.84961 C 279.36411 350.87309 279.50308 349.65424 279.64258 348.18945 C 279.85183 346.65492 279.95703 344.94579 279.95703 343.0625 C 279.95703 339.43542 279.39727 336.08665 278.28125 333.01758 C 277.23498 329.87876 275.70053 327.2287 273.67773 325.06641 C 271.65494 322.83436 269.17957 321.08951 266.25 319.83398 C 263.39019 318.57846 260.11285 317.95117 256.41602 317.95117 z M 310.41406 318.16016 C 305.1827 318.16016 300.82352 318.579 297.33594 319.41602 C 293.84836 320.18328 290.88466 320.98525 288.44336 321.82227 L 288.44336 373.19531 C 290.2569 373.54407 291.89459 373.75251 293.35938 373.82227 C 294.82416 373.96177 296.15016 374.03125 297.33594 374.03125 C 298.45196 374.03125 299.74225 373.96177 301.20703 373.82227 C 302.67181 373.75251 304.31146 373.54407 306.125 373.19531 L 306.125 334.06445 C 306.33425 333.92495 306.85634 333.78403 307.69336 333.64453 C 308.60013 333.50503 309.43781 333.43555 310.20508 333.43555 C 313.06489 333.43555 315.19286 334.23751 316.58789 335.8418 C 317.98292 337.44608 318.67969 340.09809 318.67969 343.79492 L 318.67969 373.19531 C 320.49323 373.54407 322.13287 373.75251 323.59766 373.82227 C 325.06244 373.96177 326.38649 374.03125 327.57227 374.03125 C 328.68829 374.03125 329.98053 373.96177 331.44531 373.82227 C 332.9101 373.75251 334.54779 373.54407 336.36133 373.19531 L 336.36133 341.91016 C 336.36133 336.74854 335.55936 332.59976 333.95508 329.46094 C 332.42054 326.32212 330.39777 323.91427 327.88672 322.24023 C 325.44541 320.5662 322.69016 319.48631 319.62109 318.99805 C 316.55203 318.44003 313.48313 318.16016 310.41406 318.16016 z M 255.78711 331.23828 C 258.36792 331.23828 260.3212 332.07596 261.64648 333.75 C 263.04152 335.35429 263.80972 337.37705 263.94922 339.81836 L 247.20703 339.81836 C 247.48604 336.88879 248.42892 334.72706 250.0332 333.33203 C 251.63749 331.937 253.55506 331.23828 255.78711 331.23828 z M 194.33398 332.80859 C 197.82156 332.80859 200.50733 333.85472 202.39062 335.94727 C 204.27392 337.97006 205.21484 341.21363 205.21484 345.67773 C 205.21484 350.69985 204.2382 354.32654 202.28516 356.55859 C 200.40186 358.72089 197.50765 359.80273 193.60156 359.80273 C 192.69479 359.80273 191.99607 359.76702 191.50781 359.69727 C 191.0893 359.62751 190.7419 359.59375 190.46289 359.59375 L 190.46289 333.12305 C 190.81165 333.0533 191.33373 332.98186 192.03125 332.91211 C 192.72877 332.84236 193.49697 332.80859 194.33398 332.80859 z "
       id="rect4555" />
  </g>
</svg>
