<?xml version="1.0" encoding="UTF-8" standalone="no"?>
<!-- Created with Inkscape (http://www.inkscape.org/) -->

<svg
   xmlns:osb="http://www.openswatchbook.org/uri/2009/osb"
   xmlns:dc="http://purl.org/dc/elements/1.1/"
   xmlns:cc="http://creativecommons.org/ns#"
   xmlns:rdf="http://www.w3.org/1999/02/22-rdf-syntax-ns#"
   xmlns:svg="http://www.w3.org/2000/svg"
   xmlns="http://www.w3.org/2000/svg"
   xmlns:xlink="http://www.w3.org/1999/xlink"
   xmlns:sodipodi="http://sodipodi.sourceforge.net/DTD/sodipodi-0.dtd"
   xmlns:inkscape="http://www.inkscape.org/namespaces/inkscape"
   width="512px"
   height="512px"
   viewBox="0 0 512 512"
   version="1.1"
   id="SVGRoot"
   inkscape:version="0.92.1 r15371"
   sodipodi:docname="kekic.svg">
  <sodipodi:namedview
     id="base"
     pagecolor="#ffffff"
     bordercolor="#666666"
     borderopacity="1.0"
     inkscape:pageopacity="0.0"
     inkscape:pageshadow="2"
     inkscape:zoom="1"
     inkscape:cx="170.17401"
     inkscape:cy="186.82584"
     inkscape:document-units="px"
     inkscape:current-layer="layer1"
     showgrid="false"
     inkscape:window-width="1280"
     inkscape:window-height="947"
     inkscape:window-x="0"
     inkscape:window-y="0"
     inkscape:window-maximized="1" />
  <defs
     id="defs4710">
    <linearGradient
       id="linearGradient8384"
       inkscape:collect="always">
      <stop
         id="stop8380"
         offset="0"
         style="stop-color:#181818;stop-opacity:0.62365592" />
      <stop
         id="stop8382"
         offset="1"
         style="stop-color:#404040;stop-opacity:0" />
    </linearGradient>
    <linearGradient
       inkscape:collect="always"
       id="linearGradient4573">
      <stop
         style="stop-color:#181818;stop-opacity:0.30645162"
         offset="0"
         id="stop4569" />
      <stop
         style="stop-color:#404040;stop-opacity:0"
         offset="1"
         id="stop4571" />
    </linearGradient>
    <marker
       inkscape:stockid="DotM"
       orient="auto"
       refY="0.0"
       refX="0.0"
       id="DotM"
       style="overflow:visible"
       inkscape:isstock="true">
      <path
         id="path4618"
         d="M -2.5,-1.0 C -2.5,1.7600000 -4.7400000,4.0 -7.5,4.0 C -10.260000,4.0 -12.5,1.7600000 -12.5,-1.0 C -12.5,-3.7600000 -10.260000,-6.0 -7.5,-6.0 C -4.7400000,-6.0 -2.5,-3.7600000 -2.5,-1.0 z "
         style="fill-rule:evenodd;stroke:#000000;stroke-width:1.0pt"
         transform="scale(0.4) translate(7.4, 1)" />
    </marker>
    <linearGradient
       osb:paint="solid"
       id="linearGradient5207">
      <stop
         id="stop5209"
         offset="0"
         style="stop-color:#000015;stop-opacity:1;" />
    </linearGradient>
    <clipPath
       id="clipPath3006-9-8"
       clipPathUnits="userSpaceOnUse">
      <path
         inkscape:export-ydpi="90"
         inkscape:export-xdpi="90"
         transform="matrix(1.2020779,0,0,1.2020779,-93.20363,-75.172465)"
         d="m 483,275.5 a 192.5,192.5 0 1 1 -385,0 192.5,192.5 0 1 1 385,0 z"
         sodipodi:ry="192.5"
         sodipodi:rx="192.5"
         sodipodi:cy="275.5"
         sodipodi:cx="290.5"
         id="path3008-1-1"
         style="fill:#ffffff;fill-opacity:1;stroke:none;display:inline"
         sodipodi:type="arc" />
    </clipPath>
    <mask
       id="mask3818-4"
       maskUnits="userSpaceOnUse">
      <path
         sodipodi:type="arc"
         style="fill:#ffffff;fill-opacity:1;stroke:none;display:inline"
         id="path3820-9"
         sodipodi:cx="290.5"
         sodipodi:cy="275.5"
         sodipodi:rx="192.5"
         sodipodi:ry="192.5"
         d="m 483,275.5 a 192.5,192.5 0 1 1 -385,0 192.5,192.5 0 1 1 385,0 z"
         transform="matrix(1.2020779,0,0,1.2020779,-93.20363,-75.172466)"
         inkscape:export-xdpi="90"
         inkscape:export-ydpi="90" />
    </mask>
    <clipPath
       id="clipPath3006"
       clipPathUnits="userSpaceOnUse">
      <path
         inkscape:export-ydpi="90"
         inkscape:export-xdpi="90"
         transform="matrix(1.2020779,0,0,1.2020779,-93.20363,-75.172465)"
         d="m 483,275.5 a 192.5,192.5 0 1 1 -385,0 192.5,192.5 0 1 1 385,0 z"
         sodipodi:ry="192.5"
         sodipodi:rx="192.5"
         sodipodi:cy="275.5"
         sodipodi:cx="290.5"
         id="path3008"
         style="fill:#ffffff;fill-opacity:1;stroke:none;display:inline"
         sodipodi:type="arc" />
    </clipPath>
    <clipPath
       id="clipPath3006-9"
       clipPathUnits="userSpaceOnUse">
      <path
         inkscape:export-ydpi="90"
         inkscape:export-xdpi="90"
         transform="matrix(1.2020779,0,0,1.2020779,-93.20363,-75.172465)"
         d="m 483,275.5 a 192.5,192.5 0 1 1 -385,0 192.5,192.5 0 1 1 385,0 z"
         sodipodi:ry="192.5"
         sodipodi:rx="192.5"
         sodipodi:cy="275.5"
         sodipodi:cx="290.5"
         id="path3008-1"
         style="fill:#ffffff;fill-opacity:1;stroke:none;display:inline"
         sodipodi:type="arc" />
    </clipPath>
    <mask
       maskUnits="userSpaceOnUse"
       id="mask3818-0">
      <path
         inkscape:export-ydpi="90"
         inkscape:export-xdpi="90"
         transform="matrix(1.2020779,0,0,1.2020779,-93.20363,-75.172466)"
         d="m 483,275.5 a 192.5,192.5 0 1 1 -385,0 192.5,192.5 0 1 1 385,0 z"
         sodipodi:ry="192.5"
         sodipodi:rx="192.5"
         sodipodi:cy="275.5"
         sodipodi:cx="290.5"
         id="path3820-8"
         style="fill:#ffffff;fill-opacity:1;stroke:none;display:inline"
         sodipodi:type="arc" />
    </mask>
    <mask
       maskUnits="userSpaceOnUse"
       id="mask3818-2">
      <path
         inkscape:export-ydpi="90"
         inkscape:export-xdpi="90"
         transform="matrix(1.2020779,0,0,1.2020779,-93.20363,-75.172466)"
         d="m 483,275.5 a 192.5,192.5 0 1 1 -385,0 192.5,192.5 0 1 1 385,0 z"
         sodipodi:ry="192.5"
         sodipodi:rx="192.5"
         sodipodi:cy="275.5"
         sodipodi:cx="290.5"
         id="path3820-2-2"
         style="fill:#ffffff;fill-opacity:1;stroke:none;display:inline"
         sodipodi:type="arc" />
    </mask>
    <clipPath
       id="clipPath3934"
       clipPathUnits="userSpaceOnUse">
      <path
         id="path3936"
         d="m 0,0 0,1024 1024,0 L 1024,0 0,0 z m 278.4375,333.84375 119.78125,0 c 9.83697,42.31453 19.85954,84.58596 29.9375,126.84375 9.86978,-42.28798 20.05132,-84.50237 29.6875,-126.84375 l 108.90625,0 c 9.63586,42.34141 19.8178,84.55578 29.6875,126.84375 10.07827,-42.25772 20.10031,-84.52927 29.9375,-126.84375 l 119.1875,0 c -26.26221,110.73099 -52.49625,221.46929 -78.28125,332.3125 l -122.8125,0 c -10.59439,-45.55681 -21.46638,-91.04874 -32.375,-136.53125 -10.66279,45.51136 -21.5615,90.96897 -32,136.53125 l -122.8125,0 c -25.71418,-110.03502 -52.0286,-219.92873 -78.25,-329.84375 l -0.59375,-2.46875 z"
         style="fill:#ff3232;fill-opacity:1;stroke:none"
         inkscape:connector-curvature="0" />
    </clipPath>
    <clipPath
       id="clipPath3929"
       clipPathUnits="userSpaceOnUse">
      <path
         inkscape:connector-curvature="0"
         style="fill:#ff3232;fill-opacity:1;stroke:none"
         d="m 0,0 0,1024 1024,0 L 1024,0 0,0 z m 278.4375,333.84375 119.78125,0 c 9.83697,42.31453 19.85954,84.58596 29.9375,126.84375 9.86978,-42.28798 20.05132,-84.50237 29.6875,-126.84375 l 108.90625,0 c 9.63586,42.34141 19.8178,84.55578 29.6875,126.84375 10.07827,-42.25772 20.10031,-84.52927 29.9375,-126.84375 l 119.1875,0 c -26.26221,110.73099 -52.49625,221.46929 -78.28125,332.3125 l -122.8125,0 c -10.59439,-45.55681 -21.46638,-91.04874 -32.375,-136.53125 -10.66279,45.51136 -21.5615,90.96897 -32,136.53125 l -122.8125,0 c -25.71418,-110.03502 -52.0286,-219.92873 -78.25,-329.84375 l -0.59375,-2.46875 z"
         id="path3931" />
    </clipPath>
    <mask
       maskUnits="userSpaceOnUse"
       id="mask3818">
      <path
         inkscape:export-ydpi="90"
         inkscape:export-xdpi="90"
         transform="matrix(1.2020779,0,0,1.2020779,-93.20363,-75.172466)"
         d="m 483,275.5 a 192.5,192.5 0 1 1 -385,0 192.5,192.5 0 1 1 385,0 z"
         sodipodi:ry="192.5"
         sodipodi:rx="192.5"
         sodipodi:cy="275.5"
         sodipodi:cx="290.5"
         id="path3820"
         style="fill:#ffffff;fill-opacity:1;stroke:none;display:inline"
         sodipodi:type="arc" />
    </mask>
    <linearGradient
       inkscape:collect="always"
       xlink:href="#linearGradient4573"
       id="linearGradient4575"
       x1="408.84314"
       y1="89.26915"
       x2="420.61133"
       y2="138.41306"
       gradientUnits="userSpaceOnUse"
       gradientTransform="matrix(0.99657796,0,0,1,1.2520606,0)" />
    <linearGradient
       inkscape:collect="always"
       xlink:href="#linearGradient8384"
       id="linearGradient6771"
       gradientUnits="userSpaceOnUse"
       gradientTransform="matrix(0.99657796,0,0,1,1.3692481,-0.00390625)"
       x1="408.84314"
       y1="89.26915"
       x2="420.61133"
       y2="138.41306" />
  </defs>
  <metadata
     id="metadata4713">
    <rdf:RDF>
      <cc:Work
         rdf:about="">
        <dc:format>image/svg+xml</dc:format>
        <dc:type
           rdf:resource="http://purl.org/dc/dcmitype/StillImage" />
        <dc:title></dc:title>
      </cc:Work>
    </rdf:RDF>
  </metadata>
  <g
     id="layer1"
     inkscape:groupmode="layer"
     inkscape:label="Capa 1">
    <path
       style="opacity:1;fill:#f2f0f6;fill-opacity:1;fill-rule:evenodd;stroke:#5b2da2;stroke-width:2;stroke-linejoin:round;stroke-miterlimit:4;stroke-dasharray:none;stroke-dashoffset:0;stroke-opacity:1;paint-order:normal"
       d="m 97.583979,29.700195 c -11.07875,0 -19.99804,9.65194 -19.99804,21.64062 V 460.66113 c 0,11.9887 8.91929,21.63867 19.99804,21.63867 H 414.41602 c 11.07874,0 19.99804,-9.64997 19.99804,-21.63867 V 113.7959 c -0.33411,-0.32981 -0.46874,-0.43168 -0.81445,-0.77345 -9.64188,-9.53205 -23.80681,-23.701345 -37.64453,-37.822255 -6.91884,-7.06045 -13.75546,-14.10994 -19.9043,-20.56055 -6.14876,-6.45062 -11.60929,-12.30327 -15.77539,-16.97265 -3.0827,-3.45513 -4.82334,-5.68286 -6.625,-7.9668 z"
       id="path4506"
       inkscape:connector-curvature="0"
       sodipodi:nodetypes="ssssssccccccs" />
    <g
       id="g4584"
       transform="matrix(0.3829248,0,0,0.3829248,74.406719,31.973725)"
       style="fill:#75abd3;fill-opacity:1;stroke:#9dc4df;stroke-opacity:1" />
    <path
       style="opacity:1;fill:#5b2da2;fill-opacity:1;fill-rule:evenodd;stroke:#e4e0ec;stroke-width:0.85100001;stroke-linecap:square;stroke-linejoin:miter;stroke-miterlimit:4;stroke-dasharray:none;stroke-dashoffset:0;stroke-opacity:1;paint-order:markers fill stroke"
       d="M 215.20898 401.95117 C 210.74488 401.95117 206.83831 402.71937 203.49023 404.25391 C 200.14216 405.71869 197.35119 407.74146 195.11914 410.32227 C 192.88709 412.90307 191.21368 415.9382 190.09766 419.42578 C 188.98163 422.91336 188.42383 426.6433 188.42383 430.61914 C 188.42383 434.66473 188.94787 438.39663 189.99414 441.81445 C 191.11017 445.23228 192.78358 448.19793 195.01562 450.70898 C 197.31743 453.15029 200.24736 455.06786 203.80469 456.46289 C 207.43177 457.85792 211.75523 458.55469 216.77734 458.55469 C 223.26424 458.55469 229.61242 457.40532 235.82031 455.10352 C 235.75056 452.3832 235.33172 449.76692 234.56445 447.25586 C 233.86694 444.7448 233.02926 442.58307 232.05273 440.76953 C 229.61143 441.74605 227.13606 442.47854 224.625 442.9668 C 222.11394 443.45506 219.84701 443.69922 217.82422 443.69922 C 214.6854 443.69922 212.13859 443.1057 210.18555 441.91992 C 208.30225 440.73415 206.9782 438.71138 206.21094 435.85156 L 238.01758 435.85156 C 238.15708 434.87504 238.29604 433.65424 238.43555 432.18945 C 238.6448 430.65492 238.75 428.94579 238.75 427.0625 C 238.75 423.43542 238.1922 420.08665 237.07617 417.01758 C 236.0299 413.87876 234.49545 411.2287 232.47266 409.06641 C 230.44986 406.83436 227.97253 405.09147 225.04297 403.83594 C 222.18315 402.58041 218.90582 401.95117 215.20898 401.95117 z M 359.89258 401.95117 C 355.56798 401.95117 351.73284 402.64989 348.38477 404.04492 C 345.03669 405.43995 342.21196 407.39324 339.91016 409.9043 C 337.60835 412.3456 335.86351 415.3093 334.67773 418.79688 C 333.49196 422.28445 332.90039 426.12155 332.90039 430.30664 C 332.90039 434.63124 333.49196 438.53586 334.67773 442.02344 C 335.86351 445.44126 337.60835 448.40691 339.91016 450.91797 C 342.28171 453.35927 345.17592 455.24308 348.59375 456.56836 C 352.01158 457.89364 355.95192 458.55469 360.41602 458.55469 C 363.06657 458.55469 365.71663 458.38196 368.36719 458.0332 C 371.01775 457.68445 373.94768 456.88053 377.15625 455.625 C 377.15625 452.62568 376.80884 449.97563 376.11133 447.67383 C 375.41381 445.30228 374.47093 443.17431 373.28516 441.29102 C 371.26236 442.05828 369.48375 442.61804 367.94922 442.9668 C 366.48444 443.31555 364.74155 443.48828 362.71875 443.48828 C 361.11446 443.48828 359.58002 443.27984 358.11523 442.86133 C 356.7202 442.44282 355.46368 441.74605 354.34766 440.76953 C 353.30138 439.79301 352.42994 438.46701 351.73242 436.79297 C 351.10466 435.04918 350.79102 432.88745 350.79102 430.30664 C 350.79102 425.42403 351.8709 422.00578 354.0332 420.05273 C 356.26525 418.02994 359.05622 417.01758 362.4043 417.01758 C 363.31107 417.01758 364.14875 417.0533 364.91602 417.12305 C 365.75303 417.12305 366.58876 417.19253 367.42578 417.33203 C 368.2628 417.47153 369.1362 417.68193 370.04297 417.96094 C 371.01949 418.17019 372.09938 418.48383 373.28516 418.90234 C 374.47093 416.67029 375.34238 414.40336 375.90039 412.10156 C 376.4584 409.73001 376.6688 407.35788 376.5293 404.98633 C 374.85526 404.35856 373.32081 403.83452 371.92578 403.41602 C 370.6005 402.99751 369.2745 402.68386 367.94922 402.47461 C 366.69369 402.26535 365.4034 402.12639 364.07812 402.05664 C 362.75285 401.98689 361.35736 401.95117 359.89258 401.95117 z M 143.73633 402.26562 C 142.3413 402.26562 140.87633 402.33511 139.3418 402.47461 C 137.87701 402.61411 136.37828 402.85827 134.84375 403.20703 L 134.84375 457.08984 C 136.65729 457.4386 138.29498 457.649 139.75977 457.71875 C 141.22455 457.85825 142.55055 457.92773 143.73633 457.92773 C 144.85235 457.92773 146.14264 457.85825 147.60742 457.71875 C 149.0722 457.649 150.71185 457.4386 152.52539 457.08984 L 152.52539 403.20703 C 151.06061 402.85827 149.55992 402.61411 148.02539 402.47461 C 146.49086 402.33511 145.06161 402.26562 143.73633 402.26562 z M 256.12891 402.26562 C 254.73388 402.26562 253.26891 402.33511 251.73438 402.47461 C 250.26959 402.61411 248.77086 402.85827 247.23633 403.20703 L 247.23633 457.08984 C 249.04987 457.4386 250.68756 457.649 252.15234 457.71875 C 253.61713 457.85825 254.94313 457.92773 256.12891 457.92773 C 257.24493 457.92773 258.53522 457.85825 260 457.71875 C 261.46478 457.649 263.10443 457.4386 264.91797 457.08984 L 264.91797 403.20703 C 263.45319 402.85827 261.9525 402.61411 260.41797 402.47461 C 258.88343 402.33511 257.45419 402.26562 256.12891 402.26562 z M 314.98242 402.26562 C 313.58739 402.26562 312.12242 402.33511 310.58789 402.47461 C 309.12311 402.61411 307.62242 402.85827 306.08789 403.20703 L 306.08789 457.19531 C 307.83168 457.47432 309.43756 457.68276 310.90234 457.82227 C 312.36713 457.96177 313.69118 458.0332 314.87695 458.0332 C 316.06273 458.0332 317.38873 457.96177 318.85352 457.82227 C 320.3183 457.68276 321.95794 457.47432 323.77148 457.19531 L 323.77148 403.20703 C 322.3067 402.85827 320.80602 402.61411 319.27148 402.47461 C 317.73695 402.33511 316.3077 402.26562 314.98242 402.26562 z M 175.96094 402.37109 C 174.56591 402.37109 172.96198 402.44058 171.14844 402.58008 C 169.3349 402.71958 167.80045 402.92803 166.54492 403.20703 L 154.19922 429.05078 L 168.11523 457.08984 C 169.16151 457.36885 170.55504 457.57925 172.29883 457.71875 C 174.11237 457.85825 175.92669 457.92773 177.74023 457.92773 C 179.13527 457.92773 180.77491 457.85825 182.6582 457.71875 C 184.5415 457.57925 186.10971 457.36885 187.36523 457.08984 L 172.92773 428.31836 L 185.90039 403.20703 C 184.78437 402.92803 183.28564 402.71958 181.40234 402.58008 C 179.5888 402.44058 177.77448 402.37109 175.96094 402.37109 z M 288.35352 402.37109 C 286.95848 402.37109 285.35456 402.44058 283.54102 402.58008 C 281.72748 402.71958 280.19303 402.92803 278.9375 403.20703 L 266.5918 429.05078 L 280.50781 457.08984 C 281.55409 457.36885 282.94957 457.57925 284.69336 457.71875 C 286.5069 457.85825 288.31927 457.92773 290.13281 457.92773 C 291.52784 457.92773 293.16749 457.85825 295.05078 457.71875 C 296.93407 457.57925 298.50228 457.36885 299.75781 457.08984 L 285.32031 428.31836 L 298.29492 403.20703 C 297.1789 402.92803 295.67821 402.71958 293.79492 402.58008 C 291.98138 402.44058 290.16706 402.37109 288.35352 402.37109 z M 214.58008 415.24023 C 217.16089 415.24023 219.11417 416.07596 220.43945 417.75 C 221.83448 419.35429 222.60268 421.37705 222.74219 423.81836 L 206.00195 423.81836 C 206.28096 420.88879 207.22189 418.72706 208.82617 417.33203 C 210.43046 415.937 212.34803 415.24023 214.58008 415.24023 z "
       id="rect4610-3" />
    <path
       style="opacity:1;fill:url(#linearGradient6771);fill-opacity:1;fill-rule:evenodd;stroke:none;stroke-width:8.77774811;stroke-linecap:square;stroke-linejoin:miter;stroke-miterlimit:4;stroke-dasharray:none;stroke-dashoffset:0;stroke-opacity:1;paint-order:markers fill stroke"
       d="m 433.40658,182.37194 v -69.47028 c 0,-0.0394 -0.0309,-0.0705 -0.0703,-0.0705 h -67.33747 c 4.09851,4.50878 8.40749,9.2132 13.77948,14.86279 7.205,7.57734 15.21697,15.8602 23.32513,24.15489 11.13885,11.3951 20.83136,21.05949 30.30308,30.52302 z"
       id="path4566"
       inkscape:connector-curvature="0" />
    <path
       style="opacity:1;fill:#5b2da2;fill-opacity:1;fill-rule:evenodd;stroke:none;stroke-width:1.05391276;stroke-linejoin:round;stroke-miterlimit:4;stroke-dasharray:none;stroke-dashoffset:0;stroke-opacity:1;paint-order:normal"
       d="m 435.00048,114.60612 c -1.83541,-2.30475 -3.6077,-4.55306 -6.74972,-8.04125 -4.24635,-4.71409 -9.8132,-10.623129 -16.08223,-17.137261 C 405.8996,82.913483 398.92921,75.794273 391.8744,68.663457 377.76477,54.401804 363.32068,40.090503 353.48814,30.462087 c -0.35278,-0.345219 -0.4898,-0.448268 -0.83055,-0.781422 l -0.24394,62.802323 c -0.0467,12.055462 9.04538,21.800782 20.38588,21.850482 z"
       id="rect4485"
       inkscape:connector-curvature="0" />
    <g
       style="fill:#5b2da2;fill-opacity:1;stroke:#dce1e9;stroke-width:2.4812274;stroke-miterlimit:4;stroke-dasharray:none;stroke-opacity:1"
       id="g4559"
       transform="matrix(0.40302636,0,0,0.40302636,152.82284,138.82203)">
      <path
         id="path4548"
         d="m 256.224,353.312 c -0.592,0 -1.184,0 -1.776,0 -140.512,0 -254.16,-34.128 -254.192,-60.336 L 0,190.048 c 0,-0.16 0.064,-0.304 0.064,-0.432 23.136,10.976 50.32,16.032 66.576,19.056 50.512,9.392 117.232,14.576 187.808,14.576 h 1.776 c 71.024,-0.08 138.128,-5.392 189.008,-14.944 16.272,-3.056 43.36,-8.144 66.512,-19.056 0,0.048 0,0.144 0,0.144 l 0.272,102.928 c 0.032,26.32 -114.448,60.8 -255.792,60.992 z m 0,-161.056 c -0.592,0 -1.184,0 -1.776,0 -140.512,0 -254.16,-31.136 -254.192,-57.344 L 0,47.968 C -0.048,21.664 114.496,0.176 255.84,0 c 0.624,0 1.216,0 1.84,0 140.464,0 254.032,21.12 254.064,47.328 l 0.272,86.944 c 0.032,26.304 -114.448,57.792 -255.792,57.984 z m -1.792,192.064 h 1.776 c 71.024,-0.096 138.144,-8.384 189.008,-17.936 16.272,-3.056 43.36,-8.144 66.528,-19.072 L 512,464.048 c 0.032,26.32 -114.448,47.792 -255.792,47.968 -0.608,0 -1.184,0 -1.808,0 -140.48,0 -254.128,-21.12 -254.16,-47.312 L 0,347.664 c 23.136,10.992 50.336,16.048 66.624,19.072 50.512,9.408 117.216,17.584 187.808,17.584 z"
         inkscape:connector-curvature="0"
         style="fill:#5b2da2;fill-opacity:1;stroke:#dce1e9;stroke-width:2.4812274;stroke-miterlimit:4;stroke-dasharray:none;stroke-opacity:1" />
    </g>
  </g>
</svg>
