<?xml version="1.0" encoding="UTF-8" standalone="no"?>
<!-- Created with Inkscape (http://www.inkscape.org/) -->

<svg
   xmlns:osb="http://www.openswatchbook.org/uri/2009/osb"
   xmlns:dc="http://purl.org/dc/elements/1.1/"
   xmlns:cc="http://creativecommons.org/ns#"
   xmlns:rdf="http://www.w3.org/1999/02/22-rdf-syntax-ns#"
   xmlns:svg="http://www.w3.org/2000/svg"
   xmlns="http://www.w3.org/2000/svg"
   xmlns:xlink="http://www.w3.org/1999/xlink"
   xmlns:sodipodi="http://sodipodi.sourceforge.net/DTD/sodipodi-0.dtd"
   xmlns:inkscape="http://www.inkscape.org/namespaces/inkscape"
   width="512px"
   height="512px"
   viewBox="0 0 512 512"
   version="1.1"
   id="SVGRoot"
   inkscape:version="0.92.1 r15371"
   sodipodi:docname="kekis.svg">
  <sodipodi:namedview
     id="base"
     pagecolor="#ffffff"
     bordercolor="#666666"
     borderopacity="1.0"
     inkscape:pageopacity="0.0"
     inkscape:pageshadow="2"
     inkscape:zoom="1"
     inkscape:cx="170.17401"
     inkscape:cy="186.82584"
     inkscape:document-units="px"
     inkscape:current-layer="layer1"
     showgrid="false"
     inkscape:window-width="1280"
     inkscape:window-height="947"
     inkscape:window-x="0"
     inkscape:window-y="0"
     inkscape:window-maximized="1" />
  <defs
     id="defs4710">
    <linearGradient
       id="linearGradient8384"
       inkscape:collect="always">
      <stop
         id="stop8380"
         offset="0"
         style="stop-color:#181818;stop-opacity:0.62365592" />
      <stop
         id="stop8382"
         offset="1"
         style="stop-color:#404040;stop-opacity:0" />
    </linearGradient>
    <linearGradient
       inkscape:collect="always"
       id="linearGradient4573">
      <stop
         style="stop-color:#181818;stop-opacity:0.30645162"
         offset="0"
         id="stop4569" />
      <stop
         style="stop-color:#404040;stop-opacity:0"
         offset="1"
         id="stop4571" />
    </linearGradient>
    <marker
       inkscape:stockid="DotM"
       orient="auto"
       refY="0.0"
       refX="0.0"
       id="DotM"
       style="overflow:visible"
       inkscape:isstock="true">
      <path
         id="path4618"
         d="M -2.5,-1.0 C -2.5,1.7600000 -4.7400000,4.0 -7.5,4.0 C -10.260000,4.0 -12.5,1.7600000 -12.5,-1.0 C -12.5,-3.7600000 -10.260000,-6.0 -7.5,-6.0 C -4.7400000,-6.0 -2.5,-3.7600000 -2.5,-1.0 z "
         style="fill-rule:evenodd;stroke:#000000;stroke-width:1.0pt"
         transform="scale(0.4) translate(7.4, 1)" />
    </marker>
    <linearGradient
       osb:paint="solid"
       id="linearGradient5207">
      <stop
         id="stop5209"
         offset="0"
         style="stop-color:#000015;stop-opacity:1;" />
    </linearGradient>
    <clipPath
       id="clipPath3006-9-8"
       clipPathUnits="userSpaceOnUse">
      <path
         inkscape:export-ydpi="90"
         inkscape:export-xdpi="90"
         transform="matrix(1.2020779,0,0,1.2020779,-93.20363,-75.172465)"
         d="m 483,275.5 a 192.5,192.5 0 1 1 -385,0 192.5,192.5 0 1 1 385,0 z"
         sodipodi:ry="192.5"
         sodipodi:rx="192.5"
         sodipodi:cy="275.5"
         sodipodi:cx="290.5"
         id="path3008-1-1"
         style="fill:#ffffff;fill-opacity:1;stroke:none;display:inline"
         sodipodi:type="arc" />
    </clipPath>
    <mask
       id="mask3818-4"
       maskUnits="userSpaceOnUse">
      <path
         sodipodi:type="arc"
         style="fill:#ffffff;fill-opacity:1;stroke:none;display:inline"
         id="path3820-9"
         sodipodi:cx="290.5"
         sodipodi:cy="275.5"
         sodipodi:rx="192.5"
         sodipodi:ry="192.5"
         d="m 483,275.5 a 192.5,192.5 0 1 1 -385,0 192.5,192.5 0 1 1 385,0 z"
         transform="matrix(1.2020779,0,0,1.2020779,-93.20363,-75.172466)"
         inkscape:export-xdpi="90"
         inkscape:export-ydpi="90" />
    </mask>
    <clipPath
       id="clipPath3006"
       clipPathUnits="userSpaceOnUse">
      <path
         inkscape:export-ydpi="90"
         inkscape:export-xdpi="90"
         transform="matrix(1.2020779,0,0,1.2020779,-93.20363,-75.172465)"
         d="m 483,275.5 a 192.5,192.5 0 1 1 -385,0 192.5,192.5 0 1 1 385,0 z"
         sodipodi:ry="192.5"
         sodipodi:rx="192.5"
         sodipodi:cy="275.5"
         sodipodi:cx="290.5"
         id="path3008"
         style="fill:#ffffff;fill-opacity:1;stroke:none;display:inline"
         sodipodi:type="arc" />
    </clipPath>
    <clipPath
       id="clipPath3006-9"
       clipPathUnits="userSpaceOnUse">
      <path
         inkscape:export-ydpi="90"
         inkscape:export-xdpi="90"
         transform="matrix(1.2020779,0,0,1.2020779,-93.20363,-75.172465)"
         d="m 483,275.5 a 192.5,192.5 0 1 1 -385,0 192.5,192.5 0 1 1 385,0 z"
         sodipodi:ry="192.5"
         sodipodi:rx="192.5"
         sodipodi:cy="275.5"
         sodipodi:cx="290.5"
         id="path3008-1"
         style="fill:#ffffff;fill-opacity:1;stroke:none;display:inline"
         sodipodi:type="arc" />
    </clipPath>
    <mask
       maskUnits="userSpaceOnUse"
       id="mask3818-0">
      <path
         inkscape:export-ydpi="90"
         inkscape:export-xdpi="90"
         transform="matrix(1.2020779,0,0,1.2020779,-93.20363,-75.172466)"
         d="m 483,275.5 a 192.5,192.5 0 1 1 -385,0 192.5,192.5 0 1 1 385,0 z"
         sodipodi:ry="192.5"
         sodipodi:rx="192.5"
         sodipodi:cy="275.5"
         sodipodi:cx="290.5"
         id="path3820-8"
         style="fill:#ffffff;fill-opacity:1;stroke:none;display:inline"
         sodipodi:type="arc" />
    </mask>
    <mask
       maskUnits="userSpaceOnUse"
       id="mask3818-2">
      <path
         inkscape:export-ydpi="90"
         inkscape:export-xdpi="90"
         transform="matrix(1.2020779,0,0,1.2020779,-93.20363,-75.172466)"
         d="m 483,275.5 a 192.5,192.5 0 1 1 -385,0 192.5,192.5 0 1 1 385,0 z"
         sodipodi:ry="192.5"
         sodipodi:rx="192.5"
         sodipodi:cy="275.5"
         sodipodi:cx="290.5"
         id="path3820-2-2"
         style="fill:#ffffff;fill-opacity:1;stroke:none;display:inline"
         sodipodi:type="arc" />
    </mask>
    <clipPath
       id="clipPath3934"
       clipPathUnits="userSpaceOnUse">
      <path
         id="path3936"
         d="m 0,0 0,1024 1024,0 L 1024,0 0,0 z m 278.4375,333.84375 119.78125,0 c 9.83697,42.31453 19.85954,84.58596 29.9375,126.84375 9.86978,-42.28798 20.05132,-84.50237 29.6875,-126.84375 l 108.90625,0 c 9.63586,42.34141 19.8178,84.55578 29.6875,126.84375 10.07827,-42.25772 20.10031,-84.52927 29.9375,-126.84375 l 119.1875,0 c -26.26221,110.73099 -52.49625,221.46929 -78.28125,332.3125 l -122.8125,0 c -10.59439,-45.55681 -21.46638,-91.04874 -32.375,-136.53125 -10.66279,45.51136 -21.5615,90.96897 -32,136.53125 l -122.8125,0 c -25.71418,-110.03502 -52.0286,-219.92873 -78.25,-329.84375 l -0.59375,-2.46875 z"
         style="fill:#ff3232;fill-opacity:1;stroke:none"
         inkscape:connector-curvature="0" />
    </clipPath>
    <clipPath
       id="clipPath3929"
       clipPathUnits="userSpaceOnUse">
      <path
         inkscape:connector-curvature="0"
         style="fill:#ff3232;fill-opacity:1;stroke:none"
         d="m 0,0 0,1024 1024,0 L 1024,0 0,0 z m 278.4375,333.84375 119.78125,0 c 9.83697,42.31453 19.85954,84.58596 29.9375,126.84375 9.86978,-42.28798 20.05132,-84.50237 29.6875,-126.84375 l 108.90625,0 c 9.63586,42.34141 19.8178,84.55578 29.6875,126.84375 10.07827,-42.25772 20.10031,-84.52927 29.9375,-126.84375 l 119.1875,0 c -26.26221,110.73099 -52.49625,221.46929 -78.28125,332.3125 l -122.8125,0 c -10.59439,-45.55681 -21.46638,-91.04874 -32.375,-136.53125 -10.66279,45.51136 -21.5615,90.96897 -32,136.53125 l -122.8125,0 c -25.71418,-110.03502 -52.0286,-219.92873 -78.25,-329.84375 l -0.59375,-2.46875 z"
         id="path3931" />
    </clipPath>
    <mask
       maskUnits="userSpaceOnUse"
       id="mask3818">
      <path
         inkscape:export-ydpi="90"
         inkscape:export-xdpi="90"
         transform="matrix(1.2020779,0,0,1.2020779,-93.20363,-75.172466)"
         d="m 483,275.5 a 192.5,192.5 0 1 1 -385,0 192.5,192.5 0 1 1 385,0 z"
         sodipodi:ry="192.5"
         sodipodi:rx="192.5"
         sodipodi:cy="275.5"
         sodipodi:cx="290.5"
         id="path3820"
         style="fill:#ffffff;fill-opacity:1;stroke:none;display:inline"
         sodipodi:type="arc" />
    </mask>
    <linearGradient
       inkscape:collect="always"
       xlink:href="#linearGradient4573"
       id="linearGradient4575"
       x1="408.84314"
       y1="89.26915"
       x2="420.61133"
       y2="138.41306"
       gradientUnits="userSpaceOnUse"
       gradientTransform="matrix(0.99657796,0,0,1,1.2520606,0)" />
    <linearGradient
       inkscape:collect="always"
       xlink:href="#linearGradient8384"
       id="linearGradient6771"
       gradientUnits="userSpaceOnUse"
       gradientTransform="matrix(0.99657796,0,0,1,1.3692481,-0.00390625)"
       x1="408.84314"
       y1="89.26915"
       x2="420.61133"
       y2="138.41306" />
  </defs>
  <metadata
     id="metadata4713">
    <rdf:RDF>
      <cc:Work
         rdf:about="">
        <dc:format>image/svg+xml</dc:format>
        <dc:type
           rdf:resource="http://purl.org/dc/dcmitype/StillImage" />
        <dc:title></dc:title>
      </cc:Work>
    </rdf:RDF>
  </metadata>
  <g
     id="layer1"
     inkscape:groupmode="layer"
     inkscape:label="Capa 1">
    <path
       style="opacity:1;fill:#f2f0f6;fill-opacity:1;fill-rule:evenodd;stroke:#5b2da2;stroke-width:2;stroke-linejoin:round;stroke-miterlimit:4;stroke-dasharray:none;stroke-dashoffset:0;stroke-opacity:1;paint-order:normal"
       d="m 97.583979,29.700195 c -11.07875,0 -19.99804,9.65194 -19.99804,21.64062 V 460.66113 c 0,11.9887 8.91929,21.63867 19.99804,21.63867 H 414.41602 c 11.07874,0 19.99804,-9.64997 19.99804,-21.63867 V 113.7959 c -0.33411,-0.32981 -0.46874,-0.43168 -0.81445,-0.77345 -9.64188,-9.53205 -23.80681,-23.701345 -37.64453,-37.822255 -6.91884,-7.06045 -13.75546,-14.10994 -19.9043,-20.56055 -6.14876,-6.45062 -11.60929,-12.30327 -15.77539,-16.97265 -3.0827,-3.45513 -4.82334,-5.68286 -6.625,-7.9668 z"
       id="path4506"
       inkscape:connector-curvature="0"
       sodipodi:nodetypes="ssssssccccccs" />
    <g
       id="g4584"
       transform="matrix(0.3829248,0,0,0.3829248,74.406719,31.973725)"
       style="fill:#75abd3;fill-opacity:1;stroke:#9dc4df;stroke-opacity:1" />
    <path
       style="opacity:1;fill:#5b2da2;fill-opacity:1;fill-rule:evenodd;stroke:#e4e0ec;stroke-width:0.85100001;stroke-linecap:square;stroke-linejoin:miter;stroke-miterlimit:4;stroke-dasharray:none;stroke-dashoffset:0;stroke-opacity:1;paint-order:markers fill stroke"
       d="M 215.99219 401.95117 C 211.52809 401.95117 207.62347 402.71937 204.27539 404.25391 C 200.92732 405.71869 198.13635 407.74146 195.9043 410.32227 C 193.67225 412.90307 191.99884 415.9382 190.88281 419.42578 C 189.76679 422.91336 189.20898 426.6433 189.20898 430.61914 C 189.20898 434.66473 189.73107 438.39663 190.77734 441.81445 C 191.89337 445.23228 193.56873 448.19793 195.80078 450.70898 C 198.10258 453.15029 201.03056 455.06786 204.58789 456.46289 C 208.21497 457.85792 212.54039 458.55469 217.5625 458.55469 C 224.0494 458.55469 230.39758 457.40532 236.60547 455.10352 C 236.53572 452.3832 236.11688 449.76692 235.34961 447.25586 C 234.65209 444.7448 233.81441 442.58307 232.83789 440.76953 C 230.39659 441.74605 227.92121 442.47854 225.41016 442.9668 C 222.8991 443.45506 220.63217 443.69922 218.60938 443.69922 C 215.47055 443.69922 212.92375 443.1057 210.9707 441.91992 C 209.08741 440.73415 207.76336 438.71138 206.99609 435.85156 L 238.80273 435.85156 C 238.94224 434.87504 239.0812 433.65424 239.2207 432.18945 C 239.42996 430.65492 239.53516 428.94579 239.53516 427.0625 C 239.53516 423.43542 238.9754 420.08665 237.85938 417.01758 C 236.8131 413.87876 235.27865 411.2287 233.25586 409.06641 C 231.23306 406.83436 228.75769 405.09147 225.82812 403.83594 C 222.96831 402.58041 219.68902 401.95117 215.99219 401.95117 z M 356.80664 401.95117 C 353.45857 401.95117 350.38967 402.37001 347.59961 403.20703 C 344.8793 404.04405 342.50717 405.26485 340.48438 406.86914 C 338.46158 408.40367 336.89337 410.28748 335.77734 412.51953 C 334.66132 414.75158 334.10352 417.22695 334.10352 419.94727 C 334.10352 424.27186 335.32237 427.69012 337.76367 430.20117 C 340.20498 432.71223 343.27582 434.49084 346.97266 435.53711 L 354.08594 437.52539 C 355.27171 437.87415 356.31784 438.29299 357.22461 438.78125 C 358.13138 439.19976 358.58594 439.86276 358.58594 440.76953 C 358.58594 441.46705 358.34178 442.02485 357.85352 442.44336 C 357.43501 442.86187 356.8772 443.20928 356.17969 443.48828 C 355.48217 443.69754 354.68021 443.83845 353.77344 443.9082 C 352.86667 443.97795 351.99327 444.01172 351.15625 444.01172 C 348.71495 444.01172 346.27529 443.76756 343.83398 443.2793 C 341.39268 442.72128 339.05432 441.91932 336.82227 440.87305 C 334.59022 445.75566 333.29993 450.56939 332.95117 455.3125 C 336.15974 456.49828 339.19487 457.334 342.05469 457.82227 C 344.9145 458.31053 348.01716 458.55469 351.36523 458.55469 C 355.41082 458.55469 358.96999 458.06637 362.03906 457.08984 C 365.17788 456.11332 367.79222 454.78927 369.88477 453.11523 C 372.04706 451.4412 373.65099 449.45219 374.69727 447.15039 C 375.81329 444.84859 376.37305 442.37322 376.37305 439.72266 C 376.37305 437.14185 376.02369 434.9444 375.32617 433.13086 C 374.62866 431.31732 373.65201 429.78287 372.39648 428.52734 C 371.21071 427.27182 369.74574 426.26141 368.00195 425.49414 C 366.32792 424.65712 364.44411 423.9584 362.35156 423.40039 L 355.55078 421.62109 C 354.57426 421.34209 353.70281 420.99468 352.93555 420.57617 C 352.16828 420.15766 351.78516 419.56414 351.78516 418.79688 C 351.78516 416.98333 353.4248 416.07617 356.70312 416.07617 C 358.93517 416.07617 361.37483 416.38981 364.02539 417.01758 C 366.67595 417.64534 368.94288 418.34406 370.82617 419.11133 C 371.80269 417.15828 372.67609 414.92512 373.44336 412.41406 C 374.21063 409.83325 374.66323 407.42736 374.80273 405.19531 C 371.73367 404.14904 368.62905 403.34707 365.49023 402.78906 C 362.35141 402.23105 359.4572 401.95117 356.80664 401.95117 z M 144.52148 402.26562 C 143.12645 402.26562 141.66149 402.33511 140.12695 402.47461 C 138.66217 402.61411 137.16149 402.85827 135.62695 403.20703 L 135.62695 457.08984 C 137.44049 457.4386 139.08014 457.649 140.54492 457.71875 C 142.0097 457.85825 143.33571 457.92773 144.52148 457.92773 C 145.63751 457.92773 146.9278 457.85825 148.39258 457.71875 C 149.85736 457.649 151.49701 457.4386 153.31055 457.08984 L 153.31055 403.20703 C 151.84576 402.85827 150.34508 402.61411 148.81055 402.47461 C 147.27601 402.33511 145.84676 402.26562 144.52148 402.26562 z M 256.91406 402.26562 C 255.51903 402.26562 254.05407 402.33511 252.51953 402.47461 C 251.05475 402.61411 249.55602 402.85827 248.02148 403.20703 L 248.02148 457.08984 C 249.83502 457.4386 251.47272 457.649 252.9375 457.71875 C 254.40228 457.85825 255.72829 457.92773 256.91406 457.92773 C 258.03009 457.92773 259.32037 457.85825 260.78516 457.71875 C 262.24994 457.649 263.88958 457.4386 265.70312 457.08984 L 265.70312 403.20703 C 264.23834 402.85827 262.73766 402.61411 261.20312 402.47461 C 259.66859 402.33511 258.23934 402.26562 256.91406 402.26562 z M 315.76758 402.26562 C 314.37255 402.26562 312.90758 402.33511 311.37305 402.47461 C 309.90826 402.61411 308.40758 402.85827 306.87305 403.20703 L 306.87305 457.19531 C 308.61684 457.47432 310.22076 457.68276 311.68555 457.82227 C 313.15033 457.96177 314.47633 458.0332 315.66211 458.0332 C 316.84789 458.0332 318.17389 457.96177 319.63867 457.82227 C 321.10345 457.68276 322.74115 457.47432 324.55469 457.19531 L 324.55469 403.20703 C 323.0899 402.85827 321.59117 402.61411 320.05664 402.47461 C 318.52211 402.33511 317.09286 402.26562 315.76758 402.26562 z M 176.74609 402.37109 C 175.35106 402.37109 173.74713 402.44058 171.93359 402.58008 C 170.12005 402.71958 168.58561 402.92803 167.33008 403.20703 L 154.98438 429.05078 L 168.89844 457.08984 C 169.94471 457.36885 171.3402 457.57925 173.08398 457.71875 C 174.89752 457.85825 176.71185 457.92773 178.52539 457.92773 C 179.92042 457.92773 181.56007 457.85825 183.44336 457.71875 C 185.32665 457.57925 186.89486 457.36885 188.15039 457.08984 L 173.71289 428.31836 L 186.68555 403.20703 C 185.56952 402.92803 184.07079 402.71958 182.1875 402.58008 C 180.37396 402.44058 178.55963 402.37109 176.74609 402.37109 z M 289.13867 402.37109 C 287.74364 402.37109 286.13971 402.44058 284.32617 402.58008 C 282.51263 402.71958 280.97818 402.92803 279.72266 403.20703 L 267.37695 429.05078 L 281.29297 457.08984 C 282.33924 457.36885 283.73277 457.57925 285.47656 457.71875 C 287.2901 457.85825 289.10443 457.92773 290.91797 457.92773 C 292.313 457.92773 293.95265 457.85825 295.83594 457.71875 C 297.71923 457.57925 299.28744 457.36885 300.54297 457.08984 L 286.10547 428.31836 L 299.07812 403.20703 C 297.9621 402.92803 296.46337 402.71958 294.58008 402.58008 C 292.76654 402.44058 290.95221 402.37109 289.13867 402.37109 z M 215.36523 415.24023 C 217.94604 415.24023 219.89933 416.07596 221.22461 417.75 C 222.61964 419.35429 223.38589 421.37705 223.52539 423.81836 L 206.78516 423.81836 C 207.06416 420.88879 208.00704 418.72706 209.61133 417.33203 C 211.21561 415.937 213.13318 415.24023 215.36523 415.24023 z "
       id="rect4610-3" />
    <path
       style="opacity:1;fill:url(#linearGradient6771);fill-opacity:1;fill-rule:evenodd;stroke:none;stroke-width:8.77774811;stroke-linecap:square;stroke-linejoin:miter;stroke-miterlimit:4;stroke-dasharray:none;stroke-dashoffset:0;stroke-opacity:1;paint-order:markers fill stroke"
       d="m 433.40658,182.37194 v -69.47028 c 0,-0.0394 -0.0309,-0.0705 -0.0703,-0.0705 h -67.33747 c 4.09851,4.50878 8.40749,9.2132 13.77948,14.86279 7.205,7.57734 15.21697,15.8602 23.32513,24.15489 11.13885,11.3951 20.83136,21.05949 30.30308,30.52302 z"
       id="path4566"
       inkscape:connector-curvature="0" />
    <path
       style="opacity:1;fill:#5b2da2;fill-opacity:1;fill-rule:evenodd;stroke:none;stroke-width:1.05391276;stroke-linejoin:round;stroke-miterlimit:4;stroke-dasharray:none;stroke-dashoffset:0;stroke-opacity:1;paint-order:normal"
       d="m 435.00048,114.60612 c -1.83541,-2.30475 -3.6077,-4.55306 -6.74972,-8.04125 -4.24635,-4.71409 -9.8132,-10.623129 -16.08223,-17.137261 C 405.8996,82.913483 398.92921,75.794273 391.8744,68.663457 377.76477,54.401804 363.32068,40.090503 353.48814,30.462087 c -0.35278,-0.345219 -0.4898,-0.448268 -0.83055,-0.781422 l -0.24394,62.802323 c -0.0467,12.055462 9.04538,21.800782 20.38588,21.850482 z"
       id="rect4485"
       inkscape:connector-curvature="0" />
    <g
       style="fill:#5b2da2;fill-opacity:1;stroke:#dce1e9;stroke-width:2.4812274;stroke-miterlimit:4;stroke-dasharray:none;stroke-opacity:1"
       id="g4559"
       transform="matrix(0.40302636,0,0,0.40302636,152.82284,138.82203)">
      <path
         id="path4548"
         d="m 256.224,353.312 c -0.592,0 -1.184,0 -1.776,0 -140.512,0 -254.16,-34.128 -254.192,-60.336 L 0,190.048 c 0,-0.16 0.064,-0.304 0.064,-0.432 23.136,10.976 50.32,16.032 66.576,19.056 50.512,9.392 117.232,14.576 187.808,14.576 h 1.776 c 71.024,-0.08 138.128,-5.392 189.008,-14.944 16.272,-3.056 43.36,-8.144 66.512,-19.056 0,0.048 0,0.144 0,0.144 l 0.272,102.928 c 0.032,26.32 -114.448,60.8 -255.792,60.992 z m 0,-161.056 c -0.592,0 -1.184,0 -1.776,0 -140.512,0 -254.16,-31.136 -254.192,-57.344 L 0,47.968 C -0.048,21.664 114.496,0.176 255.84,0 c 0.624,0 1.216,0 1.84,0 140.464,0 254.032,21.12 254.064,47.328 l 0.272,86.944 c 0.032,26.304 -114.448,57.792 -255.792,57.984 z m -1.792,192.064 h 1.776 c 71.024,-0.096 138.144,-8.384 189.008,-17.936 16.272,-3.056 43.36,-8.144 66.528,-19.072 L 512,464.048 c 0.032,26.32 -114.448,47.792 -255.792,47.968 -0.608,0 -1.184,0 -1.808,0 -140.48,0 -254.128,-21.12 -254.16,-47.312 L 0,347.664 c 23.136,10.992 50.336,16.048 66.624,19.072 50.512,9.408 117.216,17.584 187.808,17.584 z"
         inkscape:connector-curvature="0"
         style="fill:#5b2da2;fill-opacity:1;stroke:#dce1e9;stroke-width:2.4812274;stroke-miterlimit:4;stroke-dasharray:none;stroke-opacity:1" />
    </g>
  </g>
</svg>
