<?xml version="1.0" encoding="UTF-8" standalone="no"?>
<!-- Created with Inkscape (http://www.inkscape.org/) -->

<svg
   xmlns:osb="http://www.openswatchbook.org/uri/2009/osb"
   xmlns:dc="http://purl.org/dc/elements/1.1/"
   xmlns:cc="http://creativecommons.org/ns#"
   xmlns:rdf="http://www.w3.org/1999/02/22-rdf-syntax-ns#"
   xmlns:svg="http://www.w3.org/2000/svg"
   xmlns="http://www.w3.org/2000/svg"
   xmlns:xlink="http://www.w3.org/1999/xlink"
   xmlns:sodipodi="http://sodipodi.sourceforge.net/DTD/sodipodi-0.dtd"
   xmlns:inkscape="http://www.inkscape.org/namespaces/inkscape"
   width="512px"
   height="512px"
   viewBox="0 0 512 512"
   version="1.1"
   id="SVGRoot"
   inkscape:version="0.92.1 r15371"
   sodipodi:docname="ko.svg">
  <sodipodi:namedview
     id="base"
     pagecolor="#ffffff"
     bordercolor="#666666"
     borderopacity="1.0"
     inkscape:pageopacity="0.0"
     inkscape:pageshadow="2"
     inkscape:zoom="1"
     inkscape:cx="437.81511"
     inkscape:cy="347.30428"
     inkscape:document-units="px"
     inkscape:current-layer="layer1"
     showgrid="false"
     inkscape:window-width="1280"
     inkscape:window-height="947"
     inkscape:window-x="0"
     inkscape:window-y="0"
     inkscape:window-maximized="1" />
  <defs
     id="defs4710">
    <linearGradient
       id="linearGradient8384"
       inkscape:collect="always">
      <stop
         id="stop8380"
         offset="0"
         style="stop-color:#181818;stop-opacity:0.62365592" />
      <stop
         id="stop8382"
         offset="1"
         style="stop-color:#404040;stop-opacity:0" />
    </linearGradient>
    <linearGradient
       inkscape:collect="always"
       id="linearGradient4573">
      <stop
         style="stop-color:#181818;stop-opacity:0.30645162"
         offset="0"
         id="stop4569" />
      <stop
         style="stop-color:#404040;stop-opacity:0"
         offset="1"
         id="stop4571" />
    </linearGradient>
    <marker
       inkscape:stockid="DotM"
       orient="auto"
       refY="0.0"
       refX="0.0"
       id="DotM"
       style="overflow:visible"
       inkscape:isstock="true">
      <path
         id="path4618"
         d="M -2.5,-1.0 C -2.5,1.7600000 -4.7400000,4.0 -7.5,4.0 C -10.260000,4.0 -12.5,1.7600000 -12.5,-1.0 C -12.5,-3.7600000 -10.260000,-6.0 -7.5,-6.0 C -4.7400000,-6.0 -2.5,-3.7600000 -2.5,-1.0 z "
         style="fill-rule:evenodd;stroke:#000000;stroke-width:1.0pt"
         transform="scale(0.4) translate(7.4, 1)" />
    </marker>
    <linearGradient
       osb:paint="solid"
       id="linearGradient5207">
      <stop
         id="stop5209"
         offset="0"
         style="stop-color:#000015;stop-opacity:1;" />
    </linearGradient>
    <clipPath
       id="clipPath3006-9-8"
       clipPathUnits="userSpaceOnUse">
      <path
         inkscape:export-ydpi="90"
         inkscape:export-xdpi="90"
         transform="matrix(1.2020779,0,0,1.2020779,-93.20363,-75.172465)"
         d="m 483,275.5 a 192.5,192.5 0 1 1 -385,0 192.5,192.5 0 1 1 385,0 z"
         sodipodi:ry="192.5"
         sodipodi:rx="192.5"
         sodipodi:cy="275.5"
         sodipodi:cx="290.5"
         id="path3008-1-1"
         style="fill:#ffffff;fill-opacity:1;stroke:none;display:inline"
         sodipodi:type="arc" />
    </clipPath>
    <mask
       id="mask3818-4"
       maskUnits="userSpaceOnUse">
      <path
         sodipodi:type="arc"
         style="fill:#ffffff;fill-opacity:1;stroke:none;display:inline"
         id="path3820-9"
         sodipodi:cx="290.5"
         sodipodi:cy="275.5"
         sodipodi:rx="192.5"
         sodipodi:ry="192.5"
         d="m 483,275.5 a 192.5,192.5 0 1 1 -385,0 192.5,192.5 0 1 1 385,0 z"
         transform="matrix(1.2020779,0,0,1.2020779,-93.20363,-75.172466)"
         inkscape:export-xdpi="90"
         inkscape:export-ydpi="90" />
    </mask>
    <clipPath
       id="clipPath3006"
       clipPathUnits="userSpaceOnUse">
      <path
         inkscape:export-ydpi="90"
         inkscape:export-xdpi="90"
         transform="matrix(1.2020779,0,0,1.2020779,-93.20363,-75.172465)"
         d="m 483,275.5 a 192.5,192.5 0 1 1 -385,0 192.5,192.5 0 1 1 385,0 z"
         sodipodi:ry="192.5"
         sodipodi:rx="192.5"
         sodipodi:cy="275.5"
         sodipodi:cx="290.5"
         id="path3008"
         style="fill:#ffffff;fill-opacity:1;stroke:none;display:inline"
         sodipodi:type="arc" />
    </clipPath>
    <clipPath
       id="clipPath3006-9"
       clipPathUnits="userSpaceOnUse">
      <path
         inkscape:export-ydpi="90"
         inkscape:export-xdpi="90"
         transform="matrix(1.2020779,0,0,1.2020779,-93.20363,-75.172465)"
         d="m 483,275.5 a 192.5,192.5 0 1 1 -385,0 192.5,192.5 0 1 1 385,0 z"
         sodipodi:ry="192.5"
         sodipodi:rx="192.5"
         sodipodi:cy="275.5"
         sodipodi:cx="290.5"
         id="path3008-1"
         style="fill:#ffffff;fill-opacity:1;stroke:none;display:inline"
         sodipodi:type="arc" />
    </clipPath>
    <mask
       maskUnits="userSpaceOnUse"
       id="mask3818-0">
      <path
         inkscape:export-ydpi="90"
         inkscape:export-xdpi="90"
         transform="matrix(1.2020779,0,0,1.2020779,-93.20363,-75.172466)"
         d="m 483,275.5 a 192.5,192.5 0 1 1 -385,0 192.5,192.5 0 1 1 385,0 z"
         sodipodi:ry="192.5"
         sodipodi:rx="192.5"
         sodipodi:cy="275.5"
         sodipodi:cx="290.5"
         id="path3820-8"
         style="fill:#ffffff;fill-opacity:1;stroke:none;display:inline"
         sodipodi:type="arc" />
    </mask>
    <mask
       maskUnits="userSpaceOnUse"
       id="mask3818-2">
      <path
         inkscape:export-ydpi="90"
         inkscape:export-xdpi="90"
         transform="matrix(1.2020779,0,0,1.2020779,-93.20363,-75.172466)"
         d="m 483,275.5 a 192.5,192.5 0 1 1 -385,0 192.5,192.5 0 1 1 385,0 z"
         sodipodi:ry="192.5"
         sodipodi:rx="192.5"
         sodipodi:cy="275.5"
         sodipodi:cx="290.5"
         id="path3820-2-2"
         style="fill:#ffffff;fill-opacity:1;stroke:none;display:inline"
         sodipodi:type="arc" />
    </mask>
    <clipPath
       id="clipPath3934"
       clipPathUnits="userSpaceOnUse">
      <path
         id="path3936"
         d="m 0,0 0,1024 1024,0 L 1024,0 0,0 z m 278.4375,333.84375 119.78125,0 c 9.83697,42.31453 19.85954,84.58596 29.9375,126.84375 9.86978,-42.28798 20.05132,-84.50237 29.6875,-126.84375 l 108.90625,0 c 9.63586,42.34141 19.8178,84.55578 29.6875,126.84375 10.07827,-42.25772 20.10031,-84.52927 29.9375,-126.84375 l 119.1875,0 c -26.26221,110.73099 -52.49625,221.46929 -78.28125,332.3125 l -122.8125,0 c -10.59439,-45.55681 -21.46638,-91.04874 -32.375,-136.53125 -10.66279,45.51136 -21.5615,90.96897 -32,136.53125 l -122.8125,0 c -25.71418,-110.03502 -52.0286,-219.92873 -78.25,-329.84375 l -0.59375,-2.46875 z"
         style="fill:#ff3232;fill-opacity:1;stroke:none"
         inkscape:connector-curvature="0" />
    </clipPath>
    <clipPath
       id="clipPath3929"
       clipPathUnits="userSpaceOnUse">
      <path
         inkscape:connector-curvature="0"
         style="fill:#ff3232;fill-opacity:1;stroke:none"
         d="m 0,0 0,1024 1024,0 L 1024,0 0,0 z m 278.4375,333.84375 119.78125,0 c 9.83697,42.31453 19.85954,84.58596 29.9375,126.84375 9.86978,-42.28798 20.05132,-84.50237 29.6875,-126.84375 l 108.90625,0 c 9.63586,42.34141 19.8178,84.55578 29.6875,126.84375 10.07827,-42.25772 20.10031,-84.52927 29.9375,-126.84375 l 119.1875,0 c -26.26221,110.73099 -52.49625,221.46929 -78.28125,332.3125 l -122.8125,0 c -10.59439,-45.55681 -21.46638,-91.04874 -32.375,-136.53125 -10.66279,45.51136 -21.5615,90.96897 -32,136.53125 l -122.8125,0 c -25.71418,-110.03502 -52.0286,-219.92873 -78.25,-329.84375 l -0.59375,-2.46875 z"
         id="path3931" />
    </clipPath>
    <mask
       maskUnits="userSpaceOnUse"
       id="mask3818">
      <path
         inkscape:export-ydpi="90"
         inkscape:export-xdpi="90"
         transform="matrix(1.2020779,0,0,1.2020779,-93.20363,-75.172466)"
         d="m 483,275.5 a 192.5,192.5 0 1 1 -385,0 192.5,192.5 0 1 1 385,0 z"
         sodipodi:ry="192.5"
         sodipodi:rx="192.5"
         sodipodi:cy="275.5"
         sodipodi:cx="290.5"
         id="path3820"
         style="fill:#ffffff;fill-opacity:1;stroke:none;display:inline"
         sodipodi:type="arc" />
    </mask>
    <linearGradient
       inkscape:collect="always"
       xlink:href="#linearGradient4573"
       id="linearGradient4575"
       x1="408.84314"
       y1="89.26915"
       x2="420.61133"
       y2="138.41306"
       gradientUnits="userSpaceOnUse"
       gradientTransform="matrix(0.99657796,0,0,1,1.2520606,0)" />
    <linearGradient
       inkscape:collect="always"
       xlink:href="#linearGradient8384"
       id="linearGradient6771"
       gradientUnits="userSpaceOnUse"
       gradientTransform="matrix(0.99657796,0,0,1,1.2520606,0)"
       x1="408.84314"
       y1="89.26915"
       x2="420.61133"
       y2="138.41306" />
  </defs>
  <metadata
     id="metadata4713">
    <rdf:RDF>
      <cc:Work
         rdf:about="">
        <dc:format>image/svg+xml</dc:format>
        <dc:type
           rdf:resource="http://purl.org/dc/dcmitype/StillImage" />
        <dc:title></dc:title>
      </cc:Work>
    </rdf:RDF>
  </metadata>
  <g
     id="layer1"
     inkscape:groupmode="layer"
     inkscape:label="Capa 1">
    <path
       style="opacity:1;fill:#486665;fill-opacity:1;fill-rule:evenodd;stroke:#77a1a0;stroke-width:2;stroke-linejoin:round;stroke-miterlimit:4;stroke-dasharray:none;stroke-dashoffset:0;stroke-opacity:1;paint-order:normal"
       d="m 97.583979,29.700195 c -11.07875,0 -19.99804,9.65194 -19.99804,21.64062 V 460.66113 c 0,11.9887 8.91929,21.63867 19.99804,21.63867 H 414.41602 c 11.07874,0 19.99804,-9.64997 19.99804,-21.63867 V 113.7959 c -0.33411,-0.32981 -0.46874,-0.43168 -0.81445,-0.77345 -9.64188,-9.53205 -23.80681,-23.701345 -37.64453,-37.822255 -6.91884,-7.06045 -13.75546,-14.10994 -19.9043,-20.56055 -6.14876,-6.45062 -11.60929,-12.30327 -15.77539,-16.97265 -3.0827,-3.45513 -4.82334,-5.68286 -6.625,-7.9668 z"
       id="path4506"
       inkscape:connector-curvature="0"
       sodipodi:nodetypes="ssssssccccccs" />
    <g
       id="g4584"
       transform="matrix(0.3829248,0,0,0.3829248,74.406719,31.973725)"
       style="fill:#75abd3;fill-opacity:1;stroke:#9dc4df;stroke-opacity:1" />
    <path
       style="opacity:1;fill:#ccdcdb;fill-opacity:1;fill-rule:evenodd;stroke:#77a1a0;stroke-width:0.85055965;stroke-linecap:square;stroke-linejoin:miter;stroke-miterlimit:4;stroke-dasharray:none;stroke-dashoffset:0;stroke-opacity:1;paint-order:markers fill stroke"
       d="M 200.08203 380.81641 C 194.3624 380.81641 189.4097 381.82877 185.22461 383.85156 C 181.10927 385.80461 177.69101 388.52414 174.9707 392.01172 C 172.32014 395.4993 170.33309 399.65003 169.00781 404.46289 C 167.75228 409.206 167.12305 414.36714 167.12305 419.94727 C 167.12305 425.52739 167.75228 430.68853 169.00781 435.43164 C 170.33309 440.105 172.32014 444.18625 174.9707 447.67383 C 177.69101 451.09165 181.10927 453.77743 185.22461 455.73047 C 189.4097 457.61376 194.3624 458.55469 200.08203 458.55469 C 205.80166 458.55469 210.71864 457.61376 214.83398 455.73047 C 218.94933 453.77743 222.33186 451.09165 224.98242 447.67383 C 227.70273 444.18625 229.69174 440.105 230.94727 435.43164 C 232.27255 430.68853 232.93555 425.52739 232.93555 419.94727 C 232.93555 414.36714 232.27255 409.206 230.94727 404.46289 C 229.69174 399.65003 227.70273 395.4993 224.98242 392.01172 C 222.33186 388.52414 218.94933 385.80461 214.83398 383.85156 C 210.71864 381.82877 205.80166 380.81641 200.08203 380.81641 z M 116.19727 381.44531 C 115.01149 381.44531 113.64977 381.51479 112.11523 381.6543 C 110.5807 381.7938 108.87353 382.00224 106.99023 382.28125 L 106.99023 456.98633 C 110.61732 457.61409 113.71997 457.92773 116.30078 457.92773 C 118.74209 457.92773 121.81098 457.61409 125.50781 456.98633 L 125.50781 382.28125 C 123.69427 382.00224 121.98515 381.7938 120.38086 381.6543 C 118.84633 381.51479 117.45279 381.44531 116.19727 381.44531 z M 154.80469 381.44531 C 153.2004 381.44531 151.63024 381.51479 150.0957 381.6543 C 148.56117 381.72405 146.74684 381.93249 144.6543 382.28125 L 126.97266 419.32031 L 146.11914 456.98633 C 147.44442 457.26533 149.0503 457.47378 150.93359 457.61328 C 152.81689 457.82254 154.77017 457.92773 156.79297 457.92773 C 158.39725 457.92773 160.17586 457.82254 162.12891 457.61328 C 164.1517 457.47378 165.75563 457.26533 166.94141 456.98633 L 147.375 418.37891 L 165.26758 382.28125 C 164.63981 382.2115 163.87161 382.14202 162.96484 382.07227 C 162.12783 381.93276 161.22066 381.82756 160.24414 381.75781 C 159.33737 381.61831 158.39644 381.54883 157.41992 381.54883 C 156.4434 381.47908 155.57195 381.44531 154.80469 381.44531 z M 200.18555 397.13867 C 209.044 397.13867 213.47461 404.74143 213.47461 419.94727 C 213.47461 435.0136 209.01023 442.54688 200.08203 442.54688 C 195.47843 442.54688 192.06017 440.69879 189.82812 437.00195 C 187.66583 433.23537 186.58398 427.55019 186.58398 419.94727 C 186.58398 404.74143 191.11784 397.13867 200.18555 397.13867 z "
       id="rect4610" />
    <path
       style="opacity:1;fill:url(#linearGradient6771);fill-opacity:1;fill-rule:evenodd;stroke:none;stroke-width:8.77774811;stroke-linecap:square;stroke-linejoin:miter;stroke-miterlimit:4;stroke-dasharray:none;stroke-dashoffset:0;stroke-opacity:1;paint-order:markers fill stroke"
       d="m 433.28939,182.37584 v -69.47028 c 0,-0.0394 -0.0309,-0.0705 -0.0703,-0.0705 h -67.33747 c 4.09851,4.50878 8.40749,9.2132 13.77948,14.86279 7.205,7.57734 15.21697,15.8602 23.32513,24.15489 11.13885,11.3951 20.83136,21.05949 30.30308,30.52302 z"
       id="path4566"
       inkscape:connector-curvature="0" />
    <path
       style="opacity:1;fill:#77a1a0;fill-opacity:1;fill-rule:evenodd;stroke:none;stroke-width:1.05391276;stroke-linejoin:round;stroke-miterlimit:4;stroke-dasharray:none;stroke-dashoffset:0;stroke-opacity:1;paint-order:normal"
       d="m 435.00048,114.60612 c -1.83541,-2.30475 -3.6077,-4.55306 -6.74972,-8.04125 -4.24635,-4.71409 -9.8132,-10.623129 -16.08223,-17.137261 C 405.8996,82.913483 398.92921,75.794273 391.8744,68.663457 377.76477,54.401804 363.32068,40.090503 353.48814,30.462087 c -0.35278,-0.345219 -0.4898,-0.448268 -0.83055,-0.781422 l -0.24394,62.802323 c -0.0467,12.055462 9.04538,21.800782 20.38588,21.850482 z"
       id="rect4485"
       inkscape:connector-curvature="0" />
    <path
       inkscape:connector-curvature="0"
       id="path2986"
       d="m 239.05178,346.22014 c -2.19202,-0.9783 -4.52356,-3.4817 -5.56394,-5.9743 -0.5362,-1.2845 -1.07131,-6.2224 -1.52947,-14.11321 -0.38757,-6.67574 -0.89794,-12.66995 -1.13416,-13.32059 -0.3133,-0.863 -1.84497,-1.67722 -5.66307,-3.01028 -2.87847,-1.00508 -7.21323,-2.82265 -9.63279,-4.039 -2.41954,-1.21644 -4.92631,-2.21165 -5.5706,-2.21165 -0.7226,0 -4.67512,3.21378 -10.31646,8.38828 -5.02977,4.61358 -9.95816,8.80524 -10.95196,9.31484 -2.04565,1.049 -6.64815,1.2198 -9.02488,0.3348 -1.88979,-0.7037 -21.88109,-20.40185 -23.16286,-22.82321 -1.27132,-2.40167 -1.13535,-6.8942 0.29102,-9.61587 0.6493,-1.23894 4.87773,-6.25997 9.39654,-11.15786 4.86431,-5.27238 8.216,-9.36531 8.216,-10.03301 0,-0.62029 -0.99533,-3.10719 -2.21186,-5.52648 -1.21654,-2.41928 -3.03035,-6.7423 -4.03071,-9.60671 -1.00035,-2.86441 -2.22813,-5.42016 -2.72836,-5.67941 -0.50026,-0.25928 -6.37205,-0.77249 -13.04843,-1.1405 -7.76463,-0.42799 -12.99063,-0.97405 -14.50253,-1.51531 -2.88124,-1.03152 -6.2007,-4.56394 -6.66968,-7.09758 -0.19022,-1.02764 -0.26809,-8.64098 -0.17305,-16.91852 l 0.1728,-15.05009 1.73006,-2.16823 c 3.05737,-3.83169 4.49454,-4.21658 19.09758,-5.11468 8.26533,-0.50833 13.28982,-1.04659 13.70718,-1.46844 0.36239,-0.36625 1.60096,-3.20634 2.75237,-6.31127 1.15142,-3.10496 2.95101,-7.35379 3.99906,-9.44188 1.04807,-2.08809 1.90557,-4.25545 1.90557,-4.81638 0,-0.56092 -3.45712,-4.81154 -7.6825,-9.4458 -4.22539,-4.63426 -8.26709,-9.19896 -8.98154,-10.1438 -2.00949,-2.65737 -2.68902,-5.94802 -1.894,-9.17178 0.60029,-2.43413 1.69985,-3.75369 10.88325,-13.06054 5.61852,-5.69407 11.15814,-10.83839 12.31025,-11.43184 2.67357,-1.37713 6.92472,-1.3962 9.57932,-0.0429 1.11779,0.56982 6.02175,4.69799 10.89768,9.17369 4.87594,4.47572 9.19571,8.32525 9.59951,8.55454 0.42554,0.24162 3.05204,-0.68099 6.24801,-2.19477 3.03261,-1.43639 7.57017,-3.30459 10.08344,-4.15155 3.40777,-1.14839 4.73001,-1.88218 5.2005,-2.88605 0.347,-0.74037 0.94212,-6.80801 1.32247,-13.48364 0.73148,-12.83839 1.171,-14.86782 3.81862,-17.63168 2.9451,-3.07442 4.63888,-3.32664 21.10036,-3.142 l 14.99357,0.16816 2.34562,1.5531 c 4.03563,2.67212 4.52413,4.33344 5.47455,18.61809 0.46007,6.9145 0.9621,13.11038 1.11563,13.76859 0.21608,0.92635 1.45192,1.60623 5.46954,3.00901 2.85471,0.99675 7.42634,2.9351 10.15918,4.30747 2.73285,1.37236 5.18778,2.4952 5.4554,2.4952 0.26763,0 4.6554,-3.82602 9.75062,-8.50226 5.09521,-4.67623 10.20665,-8.99493 11.35877,-9.59709 2.72345,-1.42343 6.77716,-1.41046 9.75558,0.0313 1.41418,0.6845 6.21845,5.05639 12.25227,11.14956 10.3574,10.45927 11.17365,11.65589 11.1817,16.39267 0.005,3.35022 -1.48595,5.54796 -10.39032,15.30886 -4.8416,5.30732 -8.80291,9.87471 -8.80291,10.14975 0,0.27504 1.2637,3.1339 2.80823,6.35303 1.54451,3.21912 3.38651,7.72742 4.09333,10.01845 0.8781,2.84618 1.64278,4.31742 2.41432,4.6451 0.62106,0.26378 6.86351,0.83768 13.87212,1.27536 13.90867,0.86855 16.14907,1.44077 18.48105,4.7203 2.20451,3.10027 2.46092,5.4238 2.27001,20.57121 l -0.18267,14.48968 -1.70157,2.41928 c -3.03846,4.31999 -3.80585,4.54133 -19.23614,5.5481 -7.53957,0.49194 -13.84057,1.02665 -14.0022,1.18829 -0.16165,0.16163 -1.09765,2.57112 -2.08,5.35442 -0.98237,2.78332 -2.91412,7.30655 -4.29279,10.05166 -1.37867,2.74511 -2.42898,5.32973 -2.33403,5.7436 0.0949,0.41388 3.85665,4.76843 8.35932,9.67677 4.50269,4.90836 8.75835,10.05152 9.45705,11.42926 1.4841,2.92648 1.62175,6.02524 0.39776,8.95433 -1.08015,2.58485 -19.41457,21.21885 -22.39464,22.7605 -2.49176,1.2891 -7.03069,1.4276 -9.63881,0.2941 -0.99925,-0.4342 -6.00896,-4.62475 -11.1327,-9.31218 -5.12374,-4.6875 -9.7234,-8.52385 -10.22145,-8.52528 -0.49808,0 -3.38429,1.15557 -6.41382,2.57115 -3.02953,1.4155 -7.5186,3.236 -9.97572,4.04535 -3.39613,1.11878 -4.53321,1.75393 -4.74155,2.64828 -0.15074,0.64708 -0.65049,6.83387 -1.11056,13.74838 -1.01187,15.20831 -1.59321,16.85681 -6.88965,19.53851 -1.53579,0.7777 -4.07725,0.9117 -16.93797,0.8929 -11.38222,-0.016 -15.55071,-0.2095 -16.82486,-0.7781 z m 22.30166,-67.52566 c 13.64948,-1.43036 25.05352,-6.87348 34.76249,-16.59201 7.39988,-7.40718 12.17465,-15.71846 15.04971,-26.1965 1.80241,-6.56878 1.79177,-21.07364 -0.0204,-27.7226 -5.49918,-20.17768 -19.94501,-35.03379 -39.9114,-41.04493 -4.65237,-1.40065 -5.91562,-1.53346 -14.96188,-1.57296 -8.66468,-0.0378 -10.47103,0.11802 -14.67958,1.2668 -21.01358,5.73593 -37.08502,22.61876 -41.47655,43.57058 -3.94555,18.82398 1.82348,38.03746 15.56803,51.84859 7.19654,7.2314 16.53411,12.53735 26.65027,15.14367 2.88464,0.7432 6.97828,1.316 12.80863,1.79226 0.4658,0.0381 3.26057,-0.18376 6.21059,-0.4929 z M 247.35235,255.0266 c -14.39658,-3.904 -24.47202,-16.15489 -25.36411,-30.84064 -0.62374,-10.26811 2.681,-18.9557 9.97352,-26.21855 13.28076,-13.22678 34.48739,-13.35074 47.59989,-0.27824 10.80016,10.76722 13.39157,26.08082 6.68815,39.52274 -5.70959,11.44902 -16.22791,18.20542 -29.12888,18.71084 -4.392,0.17206 -6.56427,-0.0273 -9.76857,-0.89615 z m 16.10653,-14.23572 c 3.97635,-1.48759 8.71929,-5.89557 10.71406,-9.95741 2.44687,-6.14684 2.26198,-13.21604 -0.35718,-18.07138 -3.70747,-6.83722 -9.20846,-10.3018 -16.9791,-10.6936 -6.24223,-0.31472 -9.97852,1.00733 -14.48482,5.12537 -5.71342,5.22115 -7.98676,12.47962 -6.15172,19.64165 1.58832,6.19912 4.95334,10.40834 10.61354,13.27627 5.28046,2.67551 10.71596,2.89725 16.64522,0.6791 z"
       style="fill:#ccdcdb;fill-opacity:1;stroke-width:0.91735023"
       sodipodi:nodetypes="csssssssssssssssssssscsssssssssssssssssssscssssssssssssssssssscsscsscsssssscsssssscccssssssssscccssssssssccsssss" />
  </g>
</svg>
