<?xml version="1.0" encoding="UTF-8" standalone="no"?>
<!-- Created with Inkscape (http://www.inkscape.org/) -->

<svg
   xmlns:osb="http://www.openswatchbook.org/uri/2009/osb"
   xmlns:dc="http://purl.org/dc/elements/1.1/"
   xmlns:cc="http://creativecommons.org/ns#"
   xmlns:rdf="http://www.w3.org/1999/02/22-rdf-syntax-ns#"
   xmlns:svg="http://www.w3.org/2000/svg"
   xmlns="http://www.w3.org/2000/svg"
   xmlns:xlink="http://www.w3.org/1999/xlink"
   xmlns:sodipodi="http://sodipodi.sourceforge.net/DTD/sodipodi-0.dtd"
   xmlns:inkscape="http://www.inkscape.org/namespaces/inkscape"
   width="512px"
   height="512px"
   viewBox="0 0 512 512"
   version="1.1"
   id="SVGRoot"
   inkscape:version="0.92.1 r15371"
   sodipodi:docname="mplayer.svg">
  <sodipodi:namedview
     id="base"
     pagecolor="#ffffff"
     bordercolor="#666666"
     borderopacity="1.0"
     inkscape:pageopacity="0.0"
     inkscape:pageshadow="2"
     inkscape:zoom="0.70710678"
     inkscape:cx="360.74448"
     inkscape:cy="355.78169"
     inkscape:document-units="px"
     inkscape:current-layer="layer1"
     showgrid="false"
     inkscape:window-width="1280"
     inkscape:window-height="947"
     inkscape:window-x="0"
     inkscape:window-y="0"
     inkscape:window-maximized="1" />
  <defs
     id="defs4710">
    <linearGradient
       id="linearGradient8384"
       inkscape:collect="always">
      <stop
         id="stop8380"
         offset="0"
         style="stop-color:#181818;stop-opacity:0.62365592" />
      <stop
         id="stop8382"
         offset="1"
         style="stop-color:#404040;stop-opacity:0" />
    </linearGradient>
    <linearGradient
       inkscape:collect="always"
       id="linearGradient4573">
      <stop
         style="stop-color:#181818;stop-opacity:0.30645162"
         offset="0"
         id="stop4569" />
      <stop
         style="stop-color:#404040;stop-opacity:0"
         offset="1"
         id="stop4571" />
    </linearGradient>
    <marker
       inkscape:stockid="DotM"
       orient="auto"
       refY="0.0"
       refX="0.0"
       id="DotM"
       style="overflow:visible"
       inkscape:isstock="true">
      <path
         id="path4618"
         d="M -2.5,-1.0 C -2.5,1.7600000 -4.7400000,4.0 -7.5,4.0 C -10.260000,4.0 -12.5,1.7600000 -12.5,-1.0 C -12.5,-3.7600000 -10.260000,-6.0 -7.5,-6.0 C -4.7400000,-6.0 -2.5,-3.7600000 -2.5,-1.0 z "
         style="fill-rule:evenodd;stroke:#000000;stroke-width:1.0pt"
         transform="scale(0.4) translate(7.4, 1)" />
    </marker>
    <linearGradient
       osb:paint="solid"
       id="linearGradient5207">
      <stop
         id="stop5209"
         offset="0"
         style="stop-color:#000015;stop-opacity:1;" />
    </linearGradient>
    <clipPath
       id="clipPath3006-9-8"
       clipPathUnits="userSpaceOnUse">
      <path
         inkscape:export-ydpi="90"
         inkscape:export-xdpi="90"
         transform="matrix(1.2020779,0,0,1.2020779,-93.20363,-75.172465)"
         d="m 483,275.5 a 192.5,192.5 0 1 1 -385,0 192.5,192.5 0 1 1 385,0 z"
         sodipodi:ry="192.5"
         sodipodi:rx="192.5"
         sodipodi:cy="275.5"
         sodipodi:cx="290.5"
         id="path3008-1-1"
         style="fill:#ffffff;fill-opacity:1;stroke:none;display:inline"
         sodipodi:type="arc" />
    </clipPath>
    <mask
       id="mask3818-4"
       maskUnits="userSpaceOnUse">
      <path
         sodipodi:type="arc"
         style="fill:#ffffff;fill-opacity:1;stroke:none;display:inline"
         id="path3820-9"
         sodipodi:cx="290.5"
         sodipodi:cy="275.5"
         sodipodi:rx="192.5"
         sodipodi:ry="192.5"
         d="m 483,275.5 a 192.5,192.5 0 1 1 -385,0 192.5,192.5 0 1 1 385,0 z"
         transform="matrix(1.2020779,0,0,1.2020779,-93.20363,-75.172466)"
         inkscape:export-xdpi="90"
         inkscape:export-ydpi="90" />
    </mask>
    <clipPath
       id="clipPath3006"
       clipPathUnits="userSpaceOnUse">
      <path
         inkscape:export-ydpi="90"
         inkscape:export-xdpi="90"
         transform="matrix(1.2020779,0,0,1.2020779,-93.20363,-75.172465)"
         d="m 483,275.5 a 192.5,192.5 0 1 1 -385,0 192.5,192.5 0 1 1 385,0 z"
         sodipodi:ry="192.5"
         sodipodi:rx="192.5"
         sodipodi:cy="275.5"
         sodipodi:cx="290.5"
         id="path3008"
         style="fill:#ffffff;fill-opacity:1;stroke:none;display:inline"
         sodipodi:type="arc" />
    </clipPath>
    <clipPath
       id="clipPath3006-9"
       clipPathUnits="userSpaceOnUse">
      <path
         inkscape:export-ydpi="90"
         inkscape:export-xdpi="90"
         transform="matrix(1.2020779,0,0,1.2020779,-93.20363,-75.172465)"
         d="m 483,275.5 a 192.5,192.5 0 1 1 -385,0 192.5,192.5 0 1 1 385,0 z"
         sodipodi:ry="192.5"
         sodipodi:rx="192.5"
         sodipodi:cy="275.5"
         sodipodi:cx="290.5"
         id="path3008-1"
         style="fill:#ffffff;fill-opacity:1;stroke:none;display:inline"
         sodipodi:type="arc" />
    </clipPath>
    <mask
       maskUnits="userSpaceOnUse"
       id="mask3818-0">
      <path
         inkscape:export-ydpi="90"
         inkscape:export-xdpi="90"
         transform="matrix(1.2020779,0,0,1.2020779,-93.20363,-75.172466)"
         d="m 483,275.5 a 192.5,192.5 0 1 1 -385,0 192.5,192.5 0 1 1 385,0 z"
         sodipodi:ry="192.5"
         sodipodi:rx="192.5"
         sodipodi:cy="275.5"
         sodipodi:cx="290.5"
         id="path3820-8"
         style="fill:#ffffff;fill-opacity:1;stroke:none;display:inline"
         sodipodi:type="arc" />
    </mask>
    <mask
       maskUnits="userSpaceOnUse"
       id="mask3818-2">
      <path
         inkscape:export-ydpi="90"
         inkscape:export-xdpi="90"
         transform="matrix(1.2020779,0,0,1.2020779,-93.20363,-75.172466)"
         d="m 483,275.5 a 192.5,192.5 0 1 1 -385,0 192.5,192.5 0 1 1 385,0 z"
         sodipodi:ry="192.5"
         sodipodi:rx="192.5"
         sodipodi:cy="275.5"
         sodipodi:cx="290.5"
         id="path3820-2-2"
         style="fill:#ffffff;fill-opacity:1;stroke:none;display:inline"
         sodipodi:type="arc" />
    </mask>
    <clipPath
       id="clipPath3934"
       clipPathUnits="userSpaceOnUse">
      <path
         id="path3936"
         d="m 0,0 0,1024 1024,0 L 1024,0 0,0 z m 278.4375,333.84375 119.78125,0 c 9.83697,42.31453 19.85954,84.58596 29.9375,126.84375 9.86978,-42.28798 20.05132,-84.50237 29.6875,-126.84375 l 108.90625,0 c 9.63586,42.34141 19.8178,84.55578 29.6875,126.84375 10.07827,-42.25772 20.10031,-84.52927 29.9375,-126.84375 l 119.1875,0 c -26.26221,110.73099 -52.49625,221.46929 -78.28125,332.3125 l -122.8125,0 c -10.59439,-45.55681 -21.46638,-91.04874 -32.375,-136.53125 -10.66279,45.51136 -21.5615,90.96897 -32,136.53125 l -122.8125,0 c -25.71418,-110.03502 -52.0286,-219.92873 -78.25,-329.84375 l -0.59375,-2.46875 z"
         style="fill:#ff3232;fill-opacity:1;stroke:none"
         inkscape:connector-curvature="0" />
    </clipPath>
    <clipPath
       id="clipPath3929"
       clipPathUnits="userSpaceOnUse">
      <path
         inkscape:connector-curvature="0"
         style="fill:#ff3232;fill-opacity:1;stroke:none"
         d="m 0,0 0,1024 1024,0 L 1024,0 0,0 z m 278.4375,333.84375 119.78125,0 c 9.83697,42.31453 19.85954,84.58596 29.9375,126.84375 9.86978,-42.28798 20.05132,-84.50237 29.6875,-126.84375 l 108.90625,0 c 9.63586,42.34141 19.8178,84.55578 29.6875,126.84375 10.07827,-42.25772 20.10031,-84.52927 29.9375,-126.84375 l 119.1875,0 c -26.26221,110.73099 -52.49625,221.46929 -78.28125,332.3125 l -122.8125,0 c -10.59439,-45.55681 -21.46638,-91.04874 -32.375,-136.53125 -10.66279,45.51136 -21.5615,90.96897 -32,136.53125 l -122.8125,0 c -25.71418,-110.03502 -52.0286,-219.92873 -78.25,-329.84375 l -0.59375,-2.46875 z"
         id="path3931" />
    </clipPath>
    <mask
       maskUnits="userSpaceOnUse"
       id="mask3818">
      <path
         inkscape:export-ydpi="90"
         inkscape:export-xdpi="90"
         transform="matrix(1.2020779,0,0,1.2020779,-93.20363,-75.172466)"
         d="m 483,275.5 a 192.5,192.5 0 1 1 -385,0 192.5,192.5 0 1 1 385,0 z"
         sodipodi:ry="192.5"
         sodipodi:rx="192.5"
         sodipodi:cy="275.5"
         sodipodi:cx="290.5"
         id="path3820"
         style="fill:#ffffff;fill-opacity:1;stroke:none;display:inline"
         sodipodi:type="arc" />
    </mask>
    <linearGradient
       inkscape:collect="always"
       xlink:href="#linearGradient4573"
       id="linearGradient4575"
       x1="408.84314"
       y1="89.26915"
       x2="420.61133"
       y2="138.41306"
       gradientUnits="userSpaceOnUse"
       gradientTransform="matrix(0.99657796,0,0,1,1.2520606,0)" />
    <linearGradient
       inkscape:collect="always"
       xlink:href="#linearGradient8384"
       id="linearGradient6771"
       gradientUnits="userSpaceOnUse"
       gradientTransform="matrix(0.99657796,0,0,1,1.3692481,-0.00390625)"
       x1="408.84314"
       y1="89.26915"
       x2="420.61133"
       y2="138.41306" />
  </defs>
  <metadata
     id="metadata4713">
    <rdf:RDF>
      <cc:Work
         rdf:about="">
        <dc:format>image/svg+xml</dc:format>
        <dc:type
           rdf:resource="http://purl.org/dc/dcmitype/StillImage" />
        <dc:title></dc:title>
      </cc:Work>
    </rdf:RDF>
  </metadata>
  <g
     id="layer1"
     inkscape:groupmode="layer"
     inkscape:label="Capa 1">
    <path
       style="opacity:1;fill:#f5f7f8;fill-opacity:1;fill-rule:evenodd;stroke:#007cac;stroke-width:2;stroke-linejoin:round;stroke-miterlimit:4;stroke-dasharray:none;stroke-dashoffset:0;stroke-opacity:1;paint-order:normal"
       d="m 97.583979,29.700195 c -11.07875,0 -19.99804,9.65194 -19.99804,21.64062 V 460.66113 c 0,11.9887 8.91929,21.63867 19.99804,21.63867 H 414.41602 c 11.07874,0 19.99804,-9.64997 19.99804,-21.63867 V 113.7959 c -0.33411,-0.32981 -0.46874,-0.43168 -0.81445,-0.77345 -9.64188,-9.53205 -23.80681,-23.701345 -37.64453,-37.822255 -6.91884,-7.06045 -13.75546,-14.10994 -19.9043,-20.56055 -6.14876,-6.45062 -11.60929,-12.30327 -15.77539,-16.97265 -3.0827,-3.45513 -4.82334,-5.68286 -6.625,-7.9668 z"
       id="path4506"
       inkscape:connector-curvature="0"
       sodipodi:nodetypes="ssssssccccccs" />
    <g
       id="g4584"
       transform="matrix(0.3829248,0,0,0.3829248,74.406719,31.973725)"
       style="fill:#75abd3;fill-opacity:1;stroke:#9dc4df;stroke-opacity:1" />
    <path
       style="opacity:1;fill:#e7e7e7;fill-opacity:0.80924857;fill-rule:evenodd;stroke:none;stroke-width:1.98158312;stroke-linejoin:round;stroke-miterlimit:4;stroke-dasharray:none;stroke-dashoffset:0;stroke-opacity:1;paint-order:normal"
       d="M 149.06831,30.367094 H 98.30698 c -10.92316,0 -19.71718,9.609969 -19.71718,21.54651 V 459.45377 c 0,12.46781 7.57527,21.54457 19.71718,21.54457 h 50.76133 z"
       id="path4626"
       inkscape:connector-curvature="0"
       sodipodi:nodetypes="csssscc" />
    <path
       style="opacity:1;fill:#e7e7e7;fill-opacity:0.80924857;fill-rule:evenodd;stroke:none;stroke-width:1.98420691;stroke-linejoin:round;stroke-miterlimit:4;stroke-dasharray:none;stroke-dashoffset:0;stroke-opacity:1;paint-order:normal"
       d="m 363.0016,481.0013 h 50.71312 c 10.91112,0 19.69548,-9.64408 19.69548,-21.62546 V 112.72418 c -0.32905,-0.32961 -0.46165,-0.43336 -0.80213,-0.77493 -9.496,-9.52623 -23.44662,-23.686887 -37.07497,-37.799182 -6.81416,-7.056143 -13.54734,-14.101329 -19.60315,-20.548003 -5.03898,-5.364288 -9.17197,-9.912752 -12.92835,-14.112479 z"
       id="path4654"
       inkscape:connector-curvature="0" />
    <g
       id="g4518"
       transform="matrix(0.40614177,0,0,0.40614177,100.98722,184.11176)"
       style="fill:#007cac;fill-opacity:1">
      <g
         id="g4495"
         style="fill:#007cac;fill-opacity:1" />
      <g
         id="g4529"
         style="fill:#007cac;fill-opacity:1">
        <path
           style="fill:#007cac;fill-opacity:1"
           inkscape:connector-curvature="0"
           d="m 477.31299,236.76255 c -34.857,45.476 -88.576,74.66 -148.756,74.66 -105.114,0 -190.321,-88.299 -190.321,-197.038 0,-108.7180034 85.207,-197.037968 190.321,-197.037968 v 0 c 104.857,0 190.075,88.3199646 190.075,197.037968 0,27.136 -5.417,52.962 -14.981,76.718 z m -152.095,-277.360968 c -21.975,0 -39.782,17.837985 -39.782,39.80296456 0,21.94500044 17.808,39.78200044 39.782,39.78200044 21.954,0 39.742,-17.838 39.742,-39.78200044 0,-21.96497956 -17.797,-39.80296456 -39.742,-39.80296456 z m 98.355,53.482965 c -21.904,0 -39.752,17.817 -39.752,39.803 0,21.945 17.858,39.742 39.752,39.742 21.975,0 39.824,-17.797 39.824,-39.742 -0.01,-21.986 -17.849,-39.803 -39.824,-39.803 z m 1.823,113.644003 c -21.924,0 -39.731,17.817 -39.731,39.782 0,21.965 17.817,39.783 39.731,39.783 21.965,0 39.803,-17.817 39.803,-39.783 0,-21.966 -17.849,-39.783 -39.803,-39.783 v 0 z m -94.249,63.273 c -21.975,0 -39.782,17.817 -39.782,39.762 0,21.965 17.797,39.762 39.782,39.762 21.934,0 39.772,-17.797 39.772,-39.762 0,-21.934 -17.838,-39.762 -39.772,-39.762 z m -94.525,-52.674 c -21.965,0 -39.803,17.797 -39.803,39.762 0,21.965 17.838,39.782 39.803,39.782 21.965,0 39.762,-17.817 39.762,-39.783 0,-21.966 -17.797,-39.762 -39.762,-39.762 v 0 z m -5.182,-115.446003 c -21.924,0 -39.751,17.776 -39.751,39.762 0,21.924 17.828,39.762003 39.751,39.762003 21.975,0 39.772,-17.838003 39.772,-39.762003 -0.01,-21.975 -17.808,-39.762 -39.772,-39.762 z m 99.758,77.486 c -8.018,0 -14.53,6.697003 -14.53,14.439003 0,8.018 6.512,14.459 14.53,14.459 7.751,0 14.213,-6.441 14.213,-14.459 -0.01,-7.742 -6.462,-14.439003 -14.213,-14.439003 z m -2.642,-161.197965 c -93.993,0 -170.445,79.062965 -170.445,176.424968 0,97.382 76.452,176.405 170.445,176.405 94.014,0 170.199,-79.022 170.199,-176.405 0,-97.372003 -76.185,-176.424968 -170.199,-176.424968 z"
           id="path4497" />
        <path
           style="fill:#007cac;fill-opacity:1"
           inkscape:connector-curvature="0"
           d="m 505.38999,204.10655 c 0,0 21.965,48.363 71.342,10.476 -17.603,30.843 -30.157,44.442 -52.275,83.702 -47.483,16.261 -63.242,-15.237 -64.717,-31.877 25.712,-15.421 45.65,-62.3 45.65,-62.3 z"
           id="path4499" />
        <path
           style="fill:#007cac;fill-opacity:1"
           inkscape:connector-curvature="0"
           d="m 534.74899,294.84355 c 0,0 42.916,1.024 37.12,31.98 l 53.238,-82.238 c 0,0 -4.844,-49.398 -41.636,-27.095 z"
           id="path4501" />
        <path
           style="fill:#007cac;fill-opacity:1"
           inkscape:connector-curvature="0"
           d="m 502.09399,211.92055 c 3.298,-7.824 39.618,-64.676 16.456,-157.184003 0,0 47.237,60.457003 20.88,179.097003 -3.298,-1.065 -14.295,27.484 -18.698,24.217 -4.403,-3.308 -18.637,-46.131 -18.637,-46.131 z"
           id="path4503" />
      </g>
    </g>
    <rect
       style="opacity:1;fill:#f3f8fa;fill-opacity:1;fill-rule:evenodd;stroke:none;stroke-width:0.85548168;stroke-linejoin:round;stroke-miterlimit:4;stroke-dasharray:none;stroke-dashoffset:0;stroke-opacity:1;paint-order:normal"
       id="rect4630"
       width="51.264717"
       height="48"
       x="90.676102"
       y="74.657669"
       ry="10.253048" />
    <rect
       ry="10.253048"
       y="182.65768"
       x="90.676102"
       height="48"
       width="51.264717"
       id="rect4634"
       style="opacity:1;fill:#f3f8fa;fill-opacity:1;fill-rule:evenodd;stroke:none;stroke-width:0.85548168;stroke-linejoin:round;stroke-miterlimit:4;stroke-dasharray:none;stroke-dashoffset:0;stroke-opacity:1;paint-order:normal" />
    <rect
       ry="10.253048"
       y="290.65768"
       x="90.676102"
       height="48"
       width="51.264717"
       id="rect4638"
       style="opacity:1;fill:#f3f8fa;fill-opacity:1;fill-rule:evenodd;stroke:none;stroke-width:0.85548168;stroke-linejoin:round;stroke-miterlimit:4;stroke-dasharray:none;stroke-dashoffset:0;stroke-opacity:1;paint-order:normal" />
    <rect
       style="opacity:1;fill:#f3f8fa;fill-opacity:1;fill-rule:evenodd;stroke:none;stroke-width:0.85548168;stroke-linejoin:round;stroke-miterlimit:4;stroke-dasharray:none;stroke-dashoffset:0;stroke-opacity:1;paint-order:normal"
       id="rect4640"
       width="51.264717"
       height="48"
       x="90.676102"
       y="398.65765"
       ry="10.253048" />
    <rect
       style="opacity:1;fill:#f3f8fa;fill-opacity:1;fill-rule:evenodd;stroke:none;stroke-width:0.84872633;stroke-linejoin:round;stroke-miterlimit:4;stroke-dasharray:none;stroke-dashoffset:0;stroke-opacity:1;paint-order:normal"
       id="rect4660"
       width="50.48909"
       height="47.970715"
       x="370.63422"
       y="181.84625"
       ry="10.246793" />
    <rect
       style="opacity:1;fill:#f3f8fa;fill-opacity:1;fill-rule:evenodd;stroke:none;stroke-width:0.84872633;stroke-linejoin:round;stroke-miterlimit:4;stroke-dasharray:none;stroke-dashoffset:0;stroke-opacity:1;paint-order:normal"
       id="rect4664"
       width="50.48909"
       height="47.970715"
       x="370.63422"
       y="289.78036"
       ry="10.246793" />
    <rect
       ry="10.246793"
       y="397.71448"
       x="370.63422"
       height="47.970715"
       width="50.48909"
       id="rect4666"
       style="opacity:1;fill:#f3f8fa;fill-opacity:1;fill-rule:evenodd;stroke:none;stroke-width:0.84872633;stroke-linejoin:round;stroke-miterlimit:4;stroke-dasharray:none;stroke-dashoffset:0;stroke-opacity:1;paint-order:normal" />
    <path
       inkscape:connector-curvature="0"
       style="opacity:1;fill:#f3f8fa;fill-opacity:1;fill-rule:evenodd;stroke:none;stroke-width:0.84872633;stroke-linejoin:round;stroke-miterlimit:4;stroke-dasharray:none;stroke-dashoffset:0;stroke-opacity:1;paint-order:normal"
       d="m 380.91733,73.73961 c -5.59291,-0.12415 -10.09877,4.56898 -10.09877,10.2457 v 27.29974 0.17764 c 0,5.67672 4.50452,10.24764 10.09877,10.24764 h 30.29245 c 5.47194,0 9.83849,-4.39459 10.02952,-9.89825 0.004,-0.12301 0.0691,-0.22529 0.0692,-0.34939 l 0.0154,-12.27768 C 418.30329,95.87408 401.04732,78.48833 396.83461,74.09295 Z"
       id="path4668"
       sodipodi:nodetypes="sscssscsccs" />
    <path
       style="opacity:1;fill:#007cac;fill-opacity:1;fill-rule:evenodd;stroke:#eaf2f6;stroke-width:1.22558165;stroke-linecap:square;stroke-linejoin:miter;stroke-miterlimit:4;stroke-dasharray:none;stroke-dashoffset:0;stroke-opacity:1;paint-order:markers fill stroke"
       d="M 119.1543 401.95117 C 116.01548 401.95117 112.73814 402.09209 109.32031 402.37109 C 105.97224 402.58035 102.69295 402.92775 99.484375 403.41602 L 99.484375 457.19531 C 101.29792 457.54407 102.86808 457.75251 104.19336 457.82227 C 105.58839 457.96177 106.87868 458.0332 108.06445 458.0332 C 109.18048 458.0332 110.43505 457.96177 111.83008 457.82227 C 113.29486 457.75251 114.93451 457.54407 116.74805 457.19531 L 116.74805 444.32617 C 116.9573 444.39592 117.48134 444.4654 118.31836 444.53516 C 119.15538 444.60491 120.16579 444.64063 121.35156 444.64062 C 124.28113 444.64063 127.14158 444.29127 129.93164 443.59375 C 132.79145 442.82648 135.33631 441.60568 137.56836 439.93164 C 139.80041 438.2576 141.57902 436.06015 142.9043 433.33984 C 144.29933 430.61953 144.99805 427.27271 144.99805 423.29688 C 144.99805 418.90253 144.22985 415.34531 142.69531 412.625 C 141.23053 409.83494 139.27724 407.67125 136.83594 406.13672 C 134.39463 404.53243 131.63938 403.45254 128.57031 402.89453 C 125.50124 402.26677 122.36287 401.95117 119.1543 401.95117 z M 218.98242 401.95117 C 216.33186 401.95117 213.33245 402.23105 209.98438 402.78906 C 206.70605 403.34707 203.393 404.18476 200.04492 405.30078 C 200.04492 406.69581 200.08064 407.95038 200.15039 409.06641 C 200.28989 410.11268 200.46262 411.1588 200.67188 412.20508 C 200.95088 413.1816 201.30024 414.15824 201.71875 415.13477 C 202.20701 416.11129 202.76481 417.19313 203.39258 418.37891 C 205.76413 417.54189 208.06678 416.94837 210.29883 416.59961 C 212.53088 416.1811 214.48417 415.97266 216.1582 415.97266 C 217.41373 415.97266 218.63454 416.0759 219.82031 416.28516 C 221.00609 416.42466 222.08598 416.74025 223.0625 417.22852 C 224.03902 417.64702 224.84099 418.27431 225.46875 419.11133 C 226.09651 419.94835 226.44587 420.99447 226.51562 422.25 L 220.13281 422.25 C 217.48225 422.25 214.76272 422.52793 211.97266 423.08594 C 209.18259 423.5742 206.63579 424.48136 204.33398 425.80664 C 202.03218 427.13192 200.15033 428.91053 198.68555 431.14258 C 197.22076 433.37463 196.48828 436.19936 196.48828 439.61719 C 196.48828 443.10477 197.07985 446.07041 198.26562 448.51172 C 199.52115 450.88327 201.23028 452.80084 203.39258 454.26562 C 205.55488 455.73041 208.13545 456.77653 211.13477 457.4043 C 214.20383 458.10181 217.55261 458.45117 221.17969 458.45117 C 225.36478 458.45117 229.34084 458.06805 233.10742 457.30078 C 236.87401 456.53351 240.08186 455.76531 242.73242 454.99805 L 242.73242 424.3418 C 242.73242 420.43571 242.17462 417.08889 241.05859 414.29883 C 239.94257 411.43901 238.33864 409.10065 236.24609 407.28711 C 234.2233 405.47357 231.74597 404.14952 228.81641 403.3125 C 225.88684 402.40573 222.6095 401.95117 218.98242 401.95117 z M 329.63867 401.95117 C 325.17457 401.95117 321.268 402.71937 317.91992 404.25391 C 314.57185 405.71869 311.78283 407.74146 309.55078 410.32227 C 307.31873 412.90307 305.64337 415.9382 304.52734 419.42578 C 303.41132 422.91336 302.85352 426.6433 302.85352 430.61914 C 302.85352 434.66473 303.37755 438.39663 304.42383 441.81445 C 305.53985 445.23228 307.21326 448.19793 309.44531 450.70898 C 311.74711 453.15029 314.67705 455.06786 318.23438 456.46289 C 321.86146 457.85792 326.18687 458.55469 331.20898 458.55469 C 337.69588 458.55469 344.04211 457.40532 350.25 455.10352 C 350.18025 452.3832 349.76141 449.76692 348.99414 447.25586 C 348.29663 444.7448 347.4609 442.58307 346.48438 440.76953 C 344.04307 441.74605 341.56574 442.47854 339.05469 442.9668 C 336.54363 443.45506 334.2767 443.69922 332.25391 443.69922 C 329.11509 443.69922 326.57023 443.1057 324.61719 441.91992 C 322.7339 440.73415 321.40789 438.71138 320.64062 435.85156 L 352.44727 435.85156 C 352.58677 434.87504 352.72573 433.65424 352.86523 432.18945 C 353.07449 430.65492 353.17969 428.94579 353.17969 427.0625 C 353.17969 423.43542 352.62188 420.08665 351.50586 417.01758 C 350.45959 413.87876 348.92514 411.2287 346.90234 409.06641 C 344.87955 406.83436 342.40417 405.09147 339.47461 403.83594 C 336.6148 402.58041 333.3355 401.95117 329.63867 401.95117 z M 381.85938 401.95117 C 378.72055 401.95117 375.37178 402.09209 371.81445 402.37109 C 368.32688 402.6501 364.94434 402.99751 361.66602 403.41602 L 361.66602 457.19531 C 363.47956 457.54407 365.08348 457.75251 366.47852 457.82227 C 367.87355 457.96177 369.16383 458.0332 370.34961 458.0332 C 371.46563 458.0332 372.75592 457.96177 374.2207 457.82227 C 375.68549 457.75251 377.32513 457.54407 379.13867 457.19531 L 379.13867 416.07617 C 379.83619 415.93667 380.84855 415.86719 382.17383 415.86719 C 384.54538 415.86719 386.25451 416.46071 387.30078 417.64648 C 388.41681 418.76251 388.97461 420.22748 388.97461 422.04102 C 388.97461 423.85456 388.52005 425.56368 387.61328 427.16797 C 386.70651 428.7025 385.0331 430.16747 382.5918 431.5625 L 381.12695 432.39844 L 392.74023 457.08984 C 393.92601 457.36885 395.42669 457.57925 397.24023 457.71875 C 399.05377 457.85825 400.93563 457.92773 402.88867 457.92773 C 404.49296 457.92773 406.1326 457.85825 407.80664 457.71875 C 409.55043 457.57925 411.12059 457.36885 412.51562 457.08984 L 400.58789 434.28125 C 401.07615 433.86274 401.70344 433.30494 402.4707 432.60742 C 403.23797 431.90991 403.97045 431.00274 404.66797 429.88672 C 405.36548 428.70094 405.959 427.30741 406.44727 425.70312 C 406.93553 424.09884 407.17969 422.21503 407.17969 420.05273 C 407.17969 414.33311 405.05172 409.90445 400.79688 406.76562 C 396.61178 403.55705 390.29931 401.95117 381.85938 401.95117 z M 162.43164 402.26562 C 161.03661 402.26562 159.57164 402.33511 158.03711 402.47461 C 156.57233 402.61411 155.07164 402.85827 153.53711 403.20703 L 153.43359 457.30078 L 190.89062 457.30078 C 191.23938 455.90575 191.44783 454.61546 191.51758 453.42969 C 191.65708 452.17416 191.72656 450.98712 191.72656 449.87109 C 191.72656 448.75507 191.65708 447.60375 191.51758 446.41797 C 191.44783 445.23219 191.23938 443.94191 190.89062 442.54688 L 171.11523 442.54688 L 171.2207 403.20703 C 169.75592 402.85827 168.25524 402.61411 166.7207 402.47461 C 165.18617 402.33511 163.75692 402.26562 162.43164 402.26562 z M 255.11328 402.58008 C 252.81148 402.58008 250.68351 402.64956 248.73047 402.78906 C 246.84718 402.92857 245.52313 403.06753 244.75586 403.20703 L 264.84375 438.25781 L 264.84375 457.19531 C 266.58754 457.47432 268.19147 457.68276 269.65625 457.82227 C 271.12103 457.96177 272.44704 458.0332 273.63281 458.0332 C 274.81859 458.0332 276.14264 457.96177 277.60742 457.82227 C 279.0722 457.68276 280.71185 457.47432 282.52539 457.19531 L 282.52539 438.25781 L 302.71875 403.20703 C 301.95148 403.06753 300.6612 402.92857 298.84766 402.78906 C 297.03412 402.64956 294.97563 402.58008 292.67383 402.58008 C 290.86029 402.58008 289.15116 402.64956 287.54688 402.78906 C 286.01234 402.92857 284.96622 403.06753 284.4082 403.20703 L 274.15625 423.81836 L 263.90234 403.20703 C 263.34433 403.06753 262.19301 402.92857 260.44922 402.78906 C 258.70543 402.64956 256.92682 402.58008 255.11328 402.58008 z M 329.01172 415.24023 C 331.59253 415.24023 333.54581 416.07596 334.87109 417.75 C 336.26612 419.35429 337.03237 421.37705 337.17188 423.81836 L 320.43164 423.81836 C 320.71065 420.88879 321.65157 418.72706 323.25586 417.33203 C 324.86015 415.937 326.77967 415.24023 329.01172 415.24023 z M 118.31836 415.44922 L 119.57422 415.44922 C 121.87602 415.44922 123.79359 416.14598 125.32812 417.54102 C 126.93241 418.8663 127.73438 420.78582 127.73438 423.29688 C 127.73438 426.22644 126.93241 428.31869 125.32812 429.57422 C 123.79359 430.76 121.80459 431.35156 119.36328 431.35156 L 118.00391 431.35156 C 117.51565 431.28181 117.0968 431.21233 116.74805 431.14258 L 116.74805 415.55273 C 117.30606 415.48298 117.8301 415.44922 118.31836 415.44922 z M 220.55273 433.33984 L 226.51562 433.33984 L 226.51562 444.84961 C 225.95761 444.98911 225.08617 445.12808 223.90039 445.26758 C 222.71461 445.40708 221.80745 445.47656 221.17969 445.47656 C 220.27292 445.47656 219.26056 445.40708 218.14453 445.26758 C 217.09826 445.12808 216.08785 444.85015 215.11133 444.43164 C 214.20456 444.01313 213.43636 443.41961 212.80859 442.65234 C 212.18083 441.81533 211.86719 440.69972 211.86719 439.30469 C 211.86719 437.4214 212.70487 435.95643 214.37891 434.91016 C 216.05294 433.86388 218.11143 433.33984 220.55273 433.33984 z "
       id="rect4610-3" />
    <path
       style="opacity:1;fill:#007cac;fill-opacity:1;fill-rule:evenodd;stroke:none;stroke-width:1.05391276;stroke-linejoin:round;stroke-miterlimit:4;stroke-dasharray:none;stroke-dashoffset:0;stroke-opacity:1;paint-order:normal"
       d="m 435.00048,114.60612 c -1.83541,-2.30475 -3.6077,-4.55306 -6.74972,-8.04125 -4.24635,-4.71409 -9.8132,-10.623129 -16.08223,-17.137261 C 405.8996,82.913483 398.92921,75.794273 391.8744,68.663457 377.76477,54.401804 363.32068,40.090503 353.48814,30.462087 c -0.35278,-0.345219 -0.4898,-0.448268 -0.83055,-0.781422 l -0.24394,62.802323 c -0.0467,12.055462 9.04538,21.800782 20.38588,21.850482 z"
       id="rect4485"
       inkscape:connector-curvature="0" />
    <path
       style="opacity:1;fill:url(#linearGradient6771);fill-opacity:1;fill-rule:evenodd;stroke:none;stroke-width:8.77774811;stroke-linecap:square;stroke-linejoin:miter;stroke-miterlimit:4;stroke-dasharray:none;stroke-dashoffset:0;stroke-opacity:1;paint-order:markers fill stroke"
       d="m 433.40658,182.37194 v -69.47028 c 0,-0.0394 -0.0309,-0.0705 -0.0703,-0.0705 h -67.33747 c 4.09851,4.50878 8.40749,9.2132 13.77948,14.86279 7.205,7.57734 15.21697,15.8602 23.32513,24.15489 11.13885,11.3951 20.83136,21.05949 30.30308,30.52302 z"
       id="path4566"
       inkscape:connector-curvature="0" />
    <path
       style="opacity:1;fill:#007cac;fill-opacity:1;fill-rule:evenodd;stroke:#eaf2f6;stroke-width:1.22558165;stroke-linecap:square;stroke-linejoin:miter;stroke-miterlimit:4;stroke-dasharray:none;stroke-dashoffset:0;stroke-opacity:1;paint-order:markers fill stroke"
       d="M 112.04102 309.44531 C 110.57623 309.44531 108.97035 309.55051 107.22656 309.75977 C 105.55253 309.89927 103.98431 310.072 102.51953 310.28125 L 99.484375 384.98633 C 102.69295 385.61409 105.51768 385.92773 107.95898 385.92773 C 110.60954 385.92773 113.40051 385.61409 116.33008 384.98633 L 117.48047 342.08789 L 127.73438 370.23438 C 128.92015 370.51338 130.07148 370.72183 131.1875 370.86133 C 132.30352 370.93108 133.38341 370.9668 134.42969 370.9668 C 135.47596 370.9668 136.62728 370.89536 137.88281 370.75586 C 139.13834 370.61636 140.39486 370.44363 141.65039 370.23438 L 153.1582 341.66992 L 154.62305 384.98633 C 157.97112 385.61409 160.86534 385.92773 163.30664 385.92773 C 165.53869 385.92773 167.3173 385.82254 168.64258 385.61328 C 170.03761 385.40403 171.29413 385.19558 172.41016 384.98633 L 168.85352 310.28125 C 167.38873 310.072 165.88805 309.89927 164.35352 309.75977 C 162.81898 309.55051 161.32025 309.44531 159.85547 309.44531 C 158.46044 309.44531 157.02924 309.55051 155.56445 309.75977 C 154.16942 309.89927 152.77589 310.072 151.38086 310.28125 L 136 349.20312 L 121.14258 310.28125 C 119.74755 310.072 118.2131 309.89927 116.53906 309.75977 C 114.93478 309.55051 113.43605 309.44531 112.04102 309.44531 z "
       id="rect5160" />
  </g>
</svg>
