<?xml version="1.0" encoding="UTF-8" standalone="no"?>
<!-- Created with Inkscape (http://www.inkscape.org/) -->

<svg
   xmlns:osb="http://www.openswatchbook.org/uri/2009/osb"
   xmlns:dc="http://purl.org/dc/elements/1.1/"
   xmlns:cc="http://creativecommons.org/ns#"
   xmlns:rdf="http://www.w3.org/1999/02/22-rdf-syntax-ns#"
   xmlns:svg="http://www.w3.org/2000/svg"
   xmlns="http://www.w3.org/2000/svg"
   xmlns:xlink="http://www.w3.org/1999/xlink"
   xmlns:sodipodi="http://sodipodi.sourceforge.net/DTD/sodipodi-0.dtd"
   xmlns:inkscape="http://www.inkscape.org/namespaces/inkscape"
   width="512px"
   height="512px"
   viewBox="0 0 512 512"
   version="1.1"
   id="SVGRoot"
   inkscape:version="0.92.1 r15371"
   sodipodi:docname="nsv.svg">
  <sodipodi:namedview
     id="base"
     pagecolor="#ffffff"
     bordercolor="#666666"
     borderopacity="1.0"
     inkscape:pageopacity="0.0"
     inkscape:pageshadow="2"
     inkscape:zoom="0.5"
     inkscape:cx="261.36209"
     inkscape:cy="401.85626"
     inkscape:document-units="px"
     inkscape:current-layer="layer1"
     showgrid="false"
     inkscape:window-width="1280"
     inkscape:window-height="947"
     inkscape:window-x="0"
     inkscape:window-y="0"
     inkscape:window-maximized="1" />
  <defs
     id="defs4710">
    <linearGradient
       id="linearGradient8384"
       inkscape:collect="always">
      <stop
         id="stop8380"
         offset="0"
         style="stop-color:#181818;stop-opacity:0.62365592" />
      <stop
         id="stop8382"
         offset="1"
         style="stop-color:#404040;stop-opacity:0" />
    </linearGradient>
    <linearGradient
       inkscape:collect="always"
       id="linearGradient4573">
      <stop
         style="stop-color:#181818;stop-opacity:0.30645162"
         offset="0"
         id="stop4569" />
      <stop
         style="stop-color:#404040;stop-opacity:0"
         offset="1"
         id="stop4571" />
    </linearGradient>
    <marker
       inkscape:stockid="DotM"
       orient="auto"
       refY="0.0"
       refX="0.0"
       id="DotM"
       style="overflow:visible"
       inkscape:isstock="true">
      <path
         id="path4618"
         d="M -2.5,-1.0 C -2.5,1.7600000 -4.7400000,4.0 -7.5,4.0 C -10.260000,4.0 -12.5,1.7600000 -12.5,-1.0 C -12.5,-3.7600000 -10.260000,-6.0 -7.5,-6.0 C -4.7400000,-6.0 -2.5,-3.7600000 -2.5,-1.0 z "
         style="fill-rule:evenodd;stroke:#000000;stroke-width:1.0pt"
         transform="scale(0.4) translate(7.4, 1)" />
    </marker>
    <linearGradient
       osb:paint="solid"
       id="linearGradient5207">
      <stop
         id="stop5209"
         offset="0"
         style="stop-color:#000015;stop-opacity:1;" />
    </linearGradient>
    <clipPath
       id="clipPath3006-9-8"
       clipPathUnits="userSpaceOnUse">
      <path
         inkscape:export-ydpi="90"
         inkscape:export-xdpi="90"
         transform="matrix(1.2020779,0,0,1.2020779,-93.20363,-75.172465)"
         d="m 483,275.5 a 192.5,192.5 0 1 1 -385,0 192.5,192.5 0 1 1 385,0 z"
         sodipodi:ry="192.5"
         sodipodi:rx="192.5"
         sodipodi:cy="275.5"
         sodipodi:cx="290.5"
         id="path3008-1-1"
         style="fill:#ffffff;fill-opacity:1;stroke:none;display:inline"
         sodipodi:type="arc" />
    </clipPath>
    <mask
       id="mask3818-4"
       maskUnits="userSpaceOnUse">
      <path
         sodipodi:type="arc"
         style="fill:#ffffff;fill-opacity:1;stroke:none;display:inline"
         id="path3820-9"
         sodipodi:cx="290.5"
         sodipodi:cy="275.5"
         sodipodi:rx="192.5"
         sodipodi:ry="192.5"
         d="m 483,275.5 a 192.5,192.5 0 1 1 -385,0 192.5,192.5 0 1 1 385,0 z"
         transform="matrix(1.2020779,0,0,1.2020779,-93.20363,-75.172466)"
         inkscape:export-xdpi="90"
         inkscape:export-ydpi="90" />
    </mask>
    <clipPath
       id="clipPath3006"
       clipPathUnits="userSpaceOnUse">
      <path
         inkscape:export-ydpi="90"
         inkscape:export-xdpi="90"
         transform="matrix(1.2020779,0,0,1.2020779,-93.20363,-75.172465)"
         d="m 483,275.5 a 192.5,192.5 0 1 1 -385,0 192.5,192.5 0 1 1 385,0 z"
         sodipodi:ry="192.5"
         sodipodi:rx="192.5"
         sodipodi:cy="275.5"
         sodipodi:cx="290.5"
         id="path3008"
         style="fill:#ffffff;fill-opacity:1;stroke:none;display:inline"
         sodipodi:type="arc" />
    </clipPath>
    <clipPath
       id="clipPath3006-9"
       clipPathUnits="userSpaceOnUse">
      <path
         inkscape:export-ydpi="90"
         inkscape:export-xdpi="90"
         transform="matrix(1.2020779,0,0,1.2020779,-93.20363,-75.172465)"
         d="m 483,275.5 a 192.5,192.5 0 1 1 -385,0 192.5,192.5 0 1 1 385,0 z"
         sodipodi:ry="192.5"
         sodipodi:rx="192.5"
         sodipodi:cy="275.5"
         sodipodi:cx="290.5"
         id="path3008-1"
         style="fill:#ffffff;fill-opacity:1;stroke:none;display:inline"
         sodipodi:type="arc" />
    </clipPath>
    <mask
       maskUnits="userSpaceOnUse"
       id="mask3818-0">
      <path
         inkscape:export-ydpi="90"
         inkscape:export-xdpi="90"
         transform="matrix(1.2020779,0,0,1.2020779,-93.20363,-75.172466)"
         d="m 483,275.5 a 192.5,192.5 0 1 1 -385,0 192.5,192.5 0 1 1 385,0 z"
         sodipodi:ry="192.5"
         sodipodi:rx="192.5"
         sodipodi:cy="275.5"
         sodipodi:cx="290.5"
         id="path3820-8"
         style="fill:#ffffff;fill-opacity:1;stroke:none;display:inline"
         sodipodi:type="arc" />
    </mask>
    <mask
       maskUnits="userSpaceOnUse"
       id="mask3818-2">
      <path
         inkscape:export-ydpi="90"
         inkscape:export-xdpi="90"
         transform="matrix(1.2020779,0,0,1.2020779,-93.20363,-75.172466)"
         d="m 483,275.5 a 192.5,192.5 0 1 1 -385,0 192.5,192.5 0 1 1 385,0 z"
         sodipodi:ry="192.5"
         sodipodi:rx="192.5"
         sodipodi:cy="275.5"
         sodipodi:cx="290.5"
         id="path3820-2-2"
         style="fill:#ffffff;fill-opacity:1;stroke:none;display:inline"
         sodipodi:type="arc" />
    </mask>
    <clipPath
       id="clipPath3934"
       clipPathUnits="userSpaceOnUse">
      <path
         id="path3936"
         d="m 0,0 0,1024 1024,0 L 1024,0 0,0 z m 278.4375,333.84375 119.78125,0 c 9.83697,42.31453 19.85954,84.58596 29.9375,126.84375 9.86978,-42.28798 20.05132,-84.50237 29.6875,-126.84375 l 108.90625,0 c 9.63586,42.34141 19.8178,84.55578 29.6875,126.84375 10.07827,-42.25772 20.10031,-84.52927 29.9375,-126.84375 l 119.1875,0 c -26.26221,110.73099 -52.49625,221.46929 -78.28125,332.3125 l -122.8125,0 c -10.59439,-45.55681 -21.46638,-91.04874 -32.375,-136.53125 -10.66279,45.51136 -21.5615,90.96897 -32,136.53125 l -122.8125,0 c -25.71418,-110.03502 -52.0286,-219.92873 -78.25,-329.84375 l -0.59375,-2.46875 z"
         style="fill:#ff3232;fill-opacity:1;stroke:none"
         inkscape:connector-curvature="0" />
    </clipPath>
    <clipPath
       id="clipPath3929"
       clipPathUnits="userSpaceOnUse">
      <path
         inkscape:connector-curvature="0"
         style="fill:#ff3232;fill-opacity:1;stroke:none"
         d="m 0,0 0,1024 1024,0 L 1024,0 0,0 z m 278.4375,333.84375 119.78125,0 c 9.83697,42.31453 19.85954,84.58596 29.9375,126.84375 9.86978,-42.28798 20.05132,-84.50237 29.6875,-126.84375 l 108.90625,0 c 9.63586,42.34141 19.8178,84.55578 29.6875,126.84375 10.07827,-42.25772 20.10031,-84.52927 29.9375,-126.84375 l 119.1875,0 c -26.26221,110.73099 -52.49625,221.46929 -78.28125,332.3125 l -122.8125,0 c -10.59439,-45.55681 -21.46638,-91.04874 -32.375,-136.53125 -10.66279,45.51136 -21.5615,90.96897 -32,136.53125 l -122.8125,0 c -25.71418,-110.03502 -52.0286,-219.92873 -78.25,-329.84375 l -0.59375,-2.46875 z"
         id="path3931" />
    </clipPath>
    <mask
       maskUnits="userSpaceOnUse"
       id="mask3818">
      <path
         inkscape:export-ydpi="90"
         inkscape:export-xdpi="90"
         transform="matrix(1.2020779,0,0,1.2020779,-93.20363,-75.172466)"
         d="m 483,275.5 a 192.5,192.5 0 1 1 -385,0 192.5,192.5 0 1 1 385,0 z"
         sodipodi:ry="192.5"
         sodipodi:rx="192.5"
         sodipodi:cy="275.5"
         sodipodi:cx="290.5"
         id="path3820"
         style="fill:#ffffff;fill-opacity:1;stroke:none;display:inline"
         sodipodi:type="arc" />
    </mask>
    <linearGradient
       inkscape:collect="always"
       xlink:href="#linearGradient4573"
       id="linearGradient4575"
       x1="408.84314"
       y1="89.26915"
       x2="420.61133"
       y2="138.41306"
       gradientUnits="userSpaceOnUse"
       gradientTransform="matrix(0.99657796,0,0,1,1.2520606,0)" />
    <linearGradient
       inkscape:collect="always"
       xlink:href="#linearGradient8384"
       id="linearGradient6771"
       gradientUnits="userSpaceOnUse"
       gradientTransform="matrix(0.99657796,0,0,1,1.3692481,-0.00390625)"
       x1="408.84314"
       y1="89.26915"
       x2="420.61133"
       y2="138.41306" />
  </defs>
  <metadata
     id="metadata4713">
    <rdf:RDF>
      <cc:Work
         rdf:about="">
        <dc:format>image/svg+xml</dc:format>
        <dc:type
           rdf:resource="http://purl.org/dc/dcmitype/StillImage" />
        <dc:title></dc:title>
      </cc:Work>
    </rdf:RDF>
  </metadata>
  <g
     id="layer1"
     inkscape:groupmode="layer"
     inkscape:label="Capa 1">
    <path
       style="opacity:1;fill:#f5f7f8;fill-opacity:1;fill-rule:evenodd;stroke:#007cac;stroke-width:2;stroke-linejoin:round;stroke-miterlimit:4;stroke-dasharray:none;stroke-dashoffset:0;stroke-opacity:1;paint-order:normal"
       d="m 97.583979,29.700195 c -11.07875,0 -19.99804,9.65194 -19.99804,21.64062 V 460.66113 c 0,11.9887 8.91929,21.63867 19.99804,21.63867 H 414.41602 c 11.07874,0 19.99804,-9.64997 19.99804,-21.63867 V 113.7959 c -0.33411,-0.32981 -0.46874,-0.43168 -0.81445,-0.77345 -9.64188,-9.53205 -23.80681,-23.701345 -37.64453,-37.822255 -6.91884,-7.06045 -13.75546,-14.10994 -19.9043,-20.56055 -6.14876,-6.45062 -11.60929,-12.30327 -15.77539,-16.97265 -3.0827,-3.45513 -4.82334,-5.68286 -6.625,-7.9668 z"
       id="path4506"
       inkscape:connector-curvature="0"
       sodipodi:nodetypes="ssssssccccccs" />
    <g
       id="g4584"
       transform="matrix(0.3829248,0,0,0.3829248,74.406719,31.973725)"
       style="fill:#75abd3;fill-opacity:1;stroke:#9dc4df;stroke-opacity:1" />
    <path
       style="opacity:1;fill:#e7e7e7;fill-opacity:0.80924857;fill-rule:evenodd;stroke:none;stroke-width:1.98158312;stroke-linejoin:round;stroke-miterlimit:4;stroke-dasharray:none;stroke-dashoffset:0;stroke-opacity:1;paint-order:normal"
       d="M 149.06831,30.367094 H 98.30698 c -10.92316,0 -19.71718,9.609969 -19.71718,21.54651 V 459.45377 c 0,12.46781 7.57527,21.54457 19.71718,21.54457 h 50.76133 z"
       id="path4626"
       inkscape:connector-curvature="0"
       sodipodi:nodetypes="csssscc" />
    <path
       style="opacity:1;fill:#e7e7e7;fill-opacity:0.80924857;fill-rule:evenodd;stroke:none;stroke-width:1.98420691;stroke-linejoin:round;stroke-miterlimit:4;stroke-dasharray:none;stroke-dashoffset:0;stroke-opacity:1;paint-order:normal"
       d="m 363.0016,481.0013 h 50.71312 c 10.91112,0 19.69548,-9.64408 19.69548,-21.62546 V 112.72418 c -0.32905,-0.32961 -0.46165,-0.43336 -0.80213,-0.77493 -9.496,-9.52623 -23.44662,-23.686887 -37.07497,-37.799182 -6.81416,-7.056143 -13.54734,-14.101329 -19.60315,-20.548003 -5.03898,-5.364288 -9.17197,-9.912752 -12.92835,-14.112479 z"
       id="path4654"
       inkscape:connector-curvature="0" />
    <g
       id="g4518"
       transform="matrix(0.40614177,0,0,0.40614177,100.98722,184.11176)"
       style="fill:#007cac;fill-opacity:1">
      <g
         id="g4495"
         style="fill:#007cac;fill-opacity:1" />
      <g
         id="g4529"
         style="fill:#007cac;fill-opacity:1">
        <path
           style="fill:#007cac;fill-opacity:1"
           inkscape:connector-curvature="0"
           d="m 477.31299,236.76255 c -34.857,45.476 -88.576,74.66 -148.756,74.66 -105.114,0 -190.321,-88.299 -190.321,-197.038 0,-108.7180034 85.207,-197.037968 190.321,-197.037968 v 0 c 104.857,0 190.075,88.3199646 190.075,197.037968 0,27.136 -5.417,52.962 -14.981,76.718 z m -152.095,-277.360968 c -21.975,0 -39.782,17.837985 -39.782,39.80296456 0,21.94500044 17.808,39.78200044 39.782,39.78200044 21.954,0 39.742,-17.838 39.742,-39.78200044 0,-21.96497956 -17.797,-39.80296456 -39.742,-39.80296456 z m 98.355,53.482965 c -21.904,0 -39.752,17.817 -39.752,39.803 0,21.945 17.858,39.742 39.752,39.742 21.975,0 39.824,-17.797 39.824,-39.742 -0.01,-21.986 -17.849,-39.803 -39.824,-39.803 z m 1.823,113.644003 c -21.924,0 -39.731,17.817 -39.731,39.782 0,21.965 17.817,39.783 39.731,39.783 21.965,0 39.803,-17.817 39.803,-39.783 0,-21.966 -17.849,-39.783 -39.803,-39.783 v 0 z m -94.249,63.273 c -21.975,0 -39.782,17.817 -39.782,39.762 0,21.965 17.797,39.762 39.782,39.762 21.934,0 39.772,-17.797 39.772,-39.762 0,-21.934 -17.838,-39.762 -39.772,-39.762 z m -94.525,-52.674 c -21.965,0 -39.803,17.797 -39.803,39.762 0,21.965 17.838,39.782 39.803,39.782 21.965,0 39.762,-17.817 39.762,-39.783 0,-21.966 -17.797,-39.762 -39.762,-39.762 v 0 z m -5.182,-115.446003 c -21.924,0 -39.751,17.776 -39.751,39.762 0,21.924 17.828,39.762003 39.751,39.762003 21.975,0 39.772,-17.838003 39.772,-39.762003 -0.01,-21.975 -17.808,-39.762 -39.772,-39.762 z m 99.758,77.486 c -8.018,0 -14.53,6.697003 -14.53,14.439003 0,8.018 6.512,14.459 14.53,14.459 7.751,0 14.213,-6.441 14.213,-14.459 -0.01,-7.742 -6.462,-14.439003 -14.213,-14.439003 z m -2.642,-161.197965 c -93.993,0 -170.445,79.062965 -170.445,176.424968 0,97.382 76.452,176.405 170.445,176.405 94.014,0 170.199,-79.022 170.199,-176.405 0,-97.372003 -76.185,-176.424968 -170.199,-176.424968 z"
           id="path4497" />
        <path
           style="fill:#007cac;fill-opacity:1"
           inkscape:connector-curvature="0"
           d="m 505.38999,204.10655 c 0,0 21.965,48.363 71.342,10.476 -17.603,30.843 -30.157,44.442 -52.275,83.702 -47.483,16.261 -63.242,-15.237 -64.717,-31.877 25.712,-15.421 45.65,-62.3 45.65,-62.3 z"
           id="path4499" />
        <path
           style="fill:#007cac;fill-opacity:1"
           inkscape:connector-curvature="0"
           d="m 534.74899,294.84355 c 0,0 42.916,1.024 37.12,31.98 l 53.238,-82.238 c 0,0 -4.844,-49.398 -41.636,-27.095 z"
           id="path4501" />
        <path
           style="fill:#007cac;fill-opacity:1"
           inkscape:connector-curvature="0"
           d="m 502.09399,211.92055 c 3.298,-7.824 39.618,-64.676 16.456,-157.184003 0,0 47.237,60.457003 20.88,179.097003 -3.298,-1.065 -14.295,27.484 -18.698,24.217 -4.403,-3.308 -18.637,-46.131 -18.637,-46.131 z"
           id="path4503" />
      </g>
    </g>
    <rect
       style="opacity:1;fill:#f3f8fa;fill-opacity:1;fill-rule:evenodd;stroke:none;stroke-width:0.85548168;stroke-linejoin:round;stroke-miterlimit:4;stroke-dasharray:none;stroke-dashoffset:0;stroke-opacity:1;paint-order:normal"
       id="rect4630"
       width="51.264717"
       height="48"
       x="90.676102"
       y="74.657669"
       ry="10.253048" />
    <rect
       ry="10.253048"
       y="182.65768"
       x="90.676102"
       height="48"
       width="51.264717"
       id="rect4634"
       style="opacity:1;fill:#f3f8fa;fill-opacity:1;fill-rule:evenodd;stroke:none;stroke-width:0.85548168;stroke-linejoin:round;stroke-miterlimit:4;stroke-dasharray:none;stroke-dashoffset:0;stroke-opacity:1;paint-order:normal" />
    <rect
       ry="10.253048"
       y="290.65768"
       x="90.676102"
       height="48"
       width="51.264717"
       id="rect4638"
       style="opacity:1;fill:#f3f8fa;fill-opacity:1;fill-rule:evenodd;stroke:none;stroke-width:0.85548168;stroke-linejoin:round;stroke-miterlimit:4;stroke-dasharray:none;stroke-dashoffset:0;stroke-opacity:1;paint-order:normal" />
    <rect
       style="opacity:1;fill:#f3f8fa;fill-opacity:1;fill-rule:evenodd;stroke:none;stroke-width:0.85548168;stroke-linejoin:round;stroke-miterlimit:4;stroke-dasharray:none;stroke-dashoffset:0;stroke-opacity:1;paint-order:normal"
       id="rect4640"
       width="51.264717"
       height="48"
       x="90.676102"
       y="398.65765"
       ry="10.253048" />
    <rect
       style="opacity:1;fill:#f3f8fa;fill-opacity:1;fill-rule:evenodd;stroke:none;stroke-width:0.84872633;stroke-linejoin:round;stroke-miterlimit:4;stroke-dasharray:none;stroke-dashoffset:0;stroke-opacity:1;paint-order:normal"
       id="rect4660"
       width="50.48909"
       height="47.970715"
       x="370.63422"
       y="181.84625"
       ry="10.246793" />
    <rect
       style="opacity:1;fill:#f3f8fa;fill-opacity:1;fill-rule:evenodd;stroke:none;stroke-width:0.84872633;stroke-linejoin:round;stroke-miterlimit:4;stroke-dasharray:none;stroke-dashoffset:0;stroke-opacity:1;paint-order:normal"
       id="rect4664"
       width="50.48909"
       height="47.970715"
       x="370.63422"
       y="289.78036"
       ry="10.246793" />
    <rect
       ry="10.246793"
       y="397.71448"
       x="370.63422"
       height="47.970715"
       width="50.48909"
       id="rect4666"
       style="opacity:1;fill:#f3f8fa;fill-opacity:1;fill-rule:evenodd;stroke:none;stroke-width:0.84872633;stroke-linejoin:round;stroke-miterlimit:4;stroke-dasharray:none;stroke-dashoffset:0;stroke-opacity:1;paint-order:normal" />
    <path
       inkscape:connector-curvature="0"
       style="opacity:1;fill:#f3f8fa;fill-opacity:1;fill-rule:evenodd;stroke:none;stroke-width:0.84872633;stroke-linejoin:round;stroke-miterlimit:4;stroke-dasharray:none;stroke-dashoffset:0;stroke-opacity:1;paint-order:normal"
       d="m 380.91733,73.73961 c -5.59291,-0.12415 -10.09877,4.56898 -10.09877,10.2457 v 27.29974 0.17764 c 0,5.67672 4.50452,10.24764 10.09877,10.24764 h 30.29245 c 5.47194,0 9.83849,-4.39459 10.02952,-9.89825 0.004,-0.12301 0.0691,-0.22529 0.0692,-0.34939 l 0.0154,-12.27768 C 418.30329,95.87408 401.04732,78.48833 396.83461,74.09295 Z"
       id="path4668"
       sodipodi:nodetypes="sscssscsccs" />
    <path
       style="opacity:1;fill:#007cac;fill-opacity:1;fill-rule:evenodd;stroke:#eaf2f6;stroke-width:0.851;stroke-linecap:square;stroke-linejoin:miter;stroke-miterlimit:4;stroke-dasharray:none;stroke-dashoffset:0;stroke-opacity:1;paint-order:markers fill stroke"
       d="M 200.86133 380.81641 C 196.88549 380.81641 193.29256 381.34045 190.08398 382.38672 C 186.87541 383.36324 184.12016 384.86197 181.81836 386.88477 C 179.58631 388.83781 177.84342 391.24565 176.58789 394.10547 C 175.33236 396.96528 174.70508 400.24262 174.70508 403.93945 C 174.70508 406.93877 175.0882 409.55506 175.85547 411.78711 C 176.69249 414.01916 177.84381 416.00621 179.30859 417.75 C 180.77338 419.42404 182.51627 420.889 184.53906 422.14453 C 186.63161 423.40006 188.93426 424.4819 191.44531 425.38867 L 197.30273 427.58594 C 198.2095 427.9347 199.0829 428.31782 199.91992 428.73633 C 200.82669 429.08509 201.62866 429.53964 202.32617 430.09766 C 203.02369 430.65567 203.58149 431.35243 204 432.18945 C 204.41851 432.95672 204.62695 433.89765 204.62695 435.01367 C 204.62695 437.66423 203.61655 439.54804 201.59375 440.66406 C 199.64071 441.71034 196.88545 442.23438 193.32812 442.23438 C 188.58502 442.23437 183.00503 440.83889 176.58789 438.04883 C 175.61137 440.90864 174.77369 443.73338 174.07617 446.52344 C 173.37866 449.24375 172.89033 451.82432 172.61133 454.26562 C 176.44766 455.73041 180.00488 456.81225 183.2832 457.50977 C 186.63128 458.20728 190.46837 458.55469 194.79297 458.55469 C 199.53607 458.55469 203.72058 457.99688 207.34766 456.88086 C 211.04449 455.69508 214.1491 454.05739 216.66016 451.96484 C 219.17121 449.80255 221.05502 447.25574 222.31055 444.32617 C 223.63583 441.32685 224.29688 437.97808 224.29688 434.28125 C 224.29687 430.86342 223.84427 427.96921 222.9375 425.59766 C 222.03073 423.15635 220.74044 421.09982 219.06641 419.42578 C 217.39237 417.68199 215.3696 416.21703 212.99805 415.03125 C 210.69625 413.77572 208.07996 412.55492 205.15039 411.36914 L 200.12891 409.38086 C 198.31537 408.68334 196.7452 407.84566 195.41992 406.86914 C 194.09464 405.89262 193.43164 404.39389 193.43164 402.37109 C 193.43164 401.18532 193.6758 400.20867 194.16406 399.44141 C 194.65232 398.60439 195.28156 397.9771 196.04883 397.55859 C 196.88585 397.07033 197.79106 396.72097 198.76758 396.51172 C 199.81385 396.30246 200.89569 396.19727 202.01172 396.19727 C 205.6388 396.19727 208.67393 396.61611 211.11523 397.45312 C 213.55654 398.29014 215.68255 399.09211 217.49609 399.85938 C 218.61212 397.48782 219.51928 394.97673 220.2168 392.32617 C 220.98406 389.60586 221.5081 387.13049 221.78711 384.89844 C 218.02053 383.57316 214.46331 382.5608 211.11523 381.86328 C 207.83691 381.16577 204.41866 380.81641 200.86133 380.81641 z M 114.83594 381.44531 C 113.65016 381.44531 112.42936 381.51479 111.17383 381.6543 C 109.9183 381.7938 108.52282 382.00224 106.98828 382.28125 L 106.98828 456.98633 C 110.1271 457.61409 112.95183 457.92773 115.46289 457.92773 C 117.97395 457.92773 120.76492 457.61409 123.83398 456.98633 L 123.83398 416.18164 L 148.21289 456.98633 C 148.84065 457.12583 149.85106 457.30051 151.24609 457.50977 C 152.64112 457.78877 154.21129 457.92773 155.95508 457.92773 C 157.48961 457.92773 158.91886 457.82254 160.24414 457.61328 C 161.56942 457.40403 162.58178 457.19558 163.2793 456.98633 L 163.38281 382.28125 C 161.91803 382.00224 160.52255 381.7938 159.19727 381.6543 C 157.87199 381.51479 156.61742 381.44531 155.43164 381.44531 C 154.24586 381.44531 152.91986 381.51479 151.45508 381.6543 C 149.9903 381.7938 148.3526 382.00224 146.53906 382.28125 L 146.53906 423.29688 L 122.26367 382.28125 C 121.28715 382.072 120.10206 381.89927 118.70703 381.75977 C 117.38175 381.55051 116.09147 381.44531 114.83594 381.44531 z M 236.85938 381.44531 C 235.04583 381.44531 233.16203 381.55051 231.20898 381.75977 C 229.25594 381.89927 227.68773 382.072 226.50195 382.28125 L 250.46094 457.08984 C 252.48373 457.36885 254.22662 457.57925 255.69141 457.71875 C 257.15619 457.85825 258.58739 457.92773 259.98242 457.92773 C 261.4472 457.92773 262.94593 457.85825 264.48047 457.71875 C 266.08475 457.57925 267.79388 457.36885 269.60742 457.08984 L 293.67188 382.28125 C 292.3466 382.072 290.81215 381.89927 289.06836 381.75977 C 287.32457 381.55051 285.8596 381.44531 284.67383 381.44531 C 282.86029 381.44531 281.1174 381.51479 279.44336 381.6543 C 277.83907 381.7938 276.23319 382.00224 274.62891 382.28125 L 260.29492 432.92188 L 246.27539 382.28125 C 244.95011 382.072 243.41566 381.89927 241.67188 381.75977 C 239.92809 381.55051 238.32416 381.44531 236.85938 381.44531 z "
       id="rect4610-3" />
    <path
       style="opacity:1;fill:#007cac;fill-opacity:1;fill-rule:evenodd;stroke:none;stroke-width:1.05391276;stroke-linejoin:round;stroke-miterlimit:4;stroke-dasharray:none;stroke-dashoffset:0;stroke-opacity:1;paint-order:normal"
       d="m 435.00048,114.60612 c -1.83541,-2.30475 -3.6077,-4.55306 -6.74972,-8.04125 -4.24635,-4.71409 -9.8132,-10.623129 -16.08223,-17.137261 C 405.8996,82.913483 398.92921,75.794273 391.8744,68.663457 377.76477,54.401804 363.32068,40.090503 353.48814,30.462087 c -0.35278,-0.345219 -0.4898,-0.448268 -0.83055,-0.781422 l -0.24394,62.802323 c -0.0467,12.055462 9.04538,21.800782 20.38588,21.850482 z"
       id="rect4485"
       inkscape:connector-curvature="0" />
    <path
       style="opacity:1;fill:url(#linearGradient6771);fill-opacity:1;fill-rule:evenodd;stroke:none;stroke-width:8.77774811;stroke-linecap:square;stroke-linejoin:miter;stroke-miterlimit:4;stroke-dasharray:none;stroke-dashoffset:0;stroke-opacity:1;paint-order:markers fill stroke"
       d="m 433.40658,182.37194 v -69.47028 c 0,-0.0394 -0.0309,-0.0705 -0.0703,-0.0705 h -67.33747 c 4.09851,4.50878 8.40749,9.2132 13.77948,14.86279 7.205,7.57734 15.21697,15.8602 23.32513,24.15489 11.13885,11.3951 20.83136,21.05949 30.30308,30.52302 z"
       id="path4566"
       inkscape:connector-curvature="0" />
  </g>
</svg>
