<?xml version="1.0" encoding="UTF-8" standalone="no"?>
<!-- Created with Inkscape (http://www.inkscape.org/) -->

<svg
   xmlns:osb="http://www.openswatchbook.org/uri/2009/osb"
   xmlns:dc="http://purl.org/dc/elements/1.1/"
   xmlns:cc="http://creativecommons.org/ns#"
   xmlns:rdf="http://www.w3.org/1999/02/22-rdf-syntax-ns#"
   xmlns:svg="http://www.w3.org/2000/svg"
   xmlns="http://www.w3.org/2000/svg"
   xmlns:xlink="http://www.w3.org/1999/xlink"
   xmlns:sodipodi="http://sodipodi.sourceforge.net/DTD/sodipodi-0.dtd"
   xmlns:inkscape="http://www.inkscape.org/namespaces/inkscape"
   width="512px"
   height="512px"
   viewBox="0 0 512 512"
   version="1.1"
   id="SVGRoot"
   inkscape:version="0.92.1 r15371"
   sodipodi:docname="p7s.svg">
  <sodipodi:namedview
     id="base"
     pagecolor="#ffffff"
     bordercolor="#666666"
     borderopacity="1.0"
     inkscape:pageopacity="0.0"
     inkscape:pageshadow="2"
     inkscape:zoom="1.4142136"
     inkscape:cx="303.68786"
     inkscape:cy="263.06806"
     inkscape:document-units="px"
     inkscape:current-layer="layer1"
     showgrid="false"
     inkscape:window-width="1280"
     inkscape:window-height="947"
     inkscape:window-x="0"
     inkscape:window-y="0"
     inkscape:window-maximized="1" />
  <defs
     id="defs4710">
    <linearGradient
       id="linearGradient8384"
       inkscape:collect="always">
      <stop
         id="stop8380"
         offset="0"
         style="stop-color:#181818;stop-opacity:0.62365592" />
      <stop
         id="stop8382"
         offset="1"
         style="stop-color:#404040;stop-opacity:0" />
    </linearGradient>
    <linearGradient
       inkscape:collect="always"
       id="linearGradient4573">
      <stop
         style="stop-color:#181818;stop-opacity:0.30645162"
         offset="0"
         id="stop4569" />
      <stop
         style="stop-color:#404040;stop-opacity:0"
         offset="1"
         id="stop4571" />
    </linearGradient>
    <marker
       inkscape:stockid="DotM"
       orient="auto"
       refY="0.0"
       refX="0.0"
       id="DotM"
       style="overflow:visible"
       inkscape:isstock="true">
      <path
         id="path4618"
         d="M -2.5,-1.0 C -2.5,1.7600000 -4.7400000,4.0 -7.5,4.0 C -10.260000,4.0 -12.5,1.7600000 -12.5,-1.0 C -12.5,-3.7600000 -10.260000,-6.0 -7.5,-6.0 C -4.7400000,-6.0 -2.5,-3.7600000 -2.5,-1.0 z "
         style="fill-rule:evenodd;stroke:#000000;stroke-width:1.0pt"
         transform="scale(0.4) translate(7.4, 1)" />
    </marker>
    <linearGradient
       osb:paint="solid"
       id="linearGradient5207">
      <stop
         id="stop5209"
         offset="0"
         style="stop-color:#000015;stop-opacity:1;" />
    </linearGradient>
    <clipPath
       id="clipPath3006-9-8"
       clipPathUnits="userSpaceOnUse">
      <path
         inkscape:export-ydpi="90"
         inkscape:export-xdpi="90"
         transform="matrix(1.2020779,0,0,1.2020779,-93.20363,-75.172465)"
         d="m 483,275.5 a 192.5,192.5 0 1 1 -385,0 192.5,192.5 0 1 1 385,0 z"
         sodipodi:ry="192.5"
         sodipodi:rx="192.5"
         sodipodi:cy="275.5"
         sodipodi:cx="290.5"
         id="path3008-1-1"
         style="fill:#ffffff;fill-opacity:1;stroke:none;display:inline"
         sodipodi:type="arc" />
    </clipPath>
    <mask
       id="mask3818-4"
       maskUnits="userSpaceOnUse">
      <path
         sodipodi:type="arc"
         style="fill:#ffffff;fill-opacity:1;stroke:none;display:inline"
         id="path3820-9"
         sodipodi:cx="290.5"
         sodipodi:cy="275.5"
         sodipodi:rx="192.5"
         sodipodi:ry="192.5"
         d="m 483,275.5 a 192.5,192.5 0 1 1 -385,0 192.5,192.5 0 1 1 385,0 z"
         transform="matrix(1.2020779,0,0,1.2020779,-93.20363,-75.172466)"
         inkscape:export-xdpi="90"
         inkscape:export-ydpi="90" />
    </mask>
    <clipPath
       id="clipPath3006"
       clipPathUnits="userSpaceOnUse">
      <path
         inkscape:export-ydpi="90"
         inkscape:export-xdpi="90"
         transform="matrix(1.2020779,0,0,1.2020779,-93.20363,-75.172465)"
         d="m 483,275.5 a 192.5,192.5 0 1 1 -385,0 192.5,192.5 0 1 1 385,0 z"
         sodipodi:ry="192.5"
         sodipodi:rx="192.5"
         sodipodi:cy="275.5"
         sodipodi:cx="290.5"
         id="path3008"
         style="fill:#ffffff;fill-opacity:1;stroke:none;display:inline"
         sodipodi:type="arc" />
    </clipPath>
    <clipPath
       id="clipPath3006-9"
       clipPathUnits="userSpaceOnUse">
      <path
         inkscape:export-ydpi="90"
         inkscape:export-xdpi="90"
         transform="matrix(1.2020779,0,0,1.2020779,-93.20363,-75.172465)"
         d="m 483,275.5 a 192.5,192.5 0 1 1 -385,0 192.5,192.5 0 1 1 385,0 z"
         sodipodi:ry="192.5"
         sodipodi:rx="192.5"
         sodipodi:cy="275.5"
         sodipodi:cx="290.5"
         id="path3008-1"
         style="fill:#ffffff;fill-opacity:1;stroke:none;display:inline"
         sodipodi:type="arc" />
    </clipPath>
    <mask
       maskUnits="userSpaceOnUse"
       id="mask3818-0">
      <path
         inkscape:export-ydpi="90"
         inkscape:export-xdpi="90"
         transform="matrix(1.2020779,0,0,1.2020779,-93.20363,-75.172466)"
         d="m 483,275.5 a 192.5,192.5 0 1 1 -385,0 192.5,192.5 0 1 1 385,0 z"
         sodipodi:ry="192.5"
         sodipodi:rx="192.5"
         sodipodi:cy="275.5"
         sodipodi:cx="290.5"
         id="path3820-8"
         style="fill:#ffffff;fill-opacity:1;stroke:none;display:inline"
         sodipodi:type="arc" />
    </mask>
    <mask
       maskUnits="userSpaceOnUse"
       id="mask3818-2">
      <path
         inkscape:export-ydpi="90"
         inkscape:export-xdpi="90"
         transform="matrix(1.2020779,0,0,1.2020779,-93.20363,-75.172466)"
         d="m 483,275.5 a 192.5,192.5 0 1 1 -385,0 192.5,192.5 0 1 1 385,0 z"
         sodipodi:ry="192.5"
         sodipodi:rx="192.5"
         sodipodi:cy="275.5"
         sodipodi:cx="290.5"
         id="path3820-2-2"
         style="fill:#ffffff;fill-opacity:1;stroke:none;display:inline"
         sodipodi:type="arc" />
    </mask>
    <clipPath
       id="clipPath3934"
       clipPathUnits="userSpaceOnUse">
      <path
         id="path3936"
         d="m 0,0 0,1024 1024,0 L 1024,0 0,0 z m 278.4375,333.84375 119.78125,0 c 9.83697,42.31453 19.85954,84.58596 29.9375,126.84375 9.86978,-42.28798 20.05132,-84.50237 29.6875,-126.84375 l 108.90625,0 c 9.63586,42.34141 19.8178,84.55578 29.6875,126.84375 10.07827,-42.25772 20.10031,-84.52927 29.9375,-126.84375 l 119.1875,0 c -26.26221,110.73099 -52.49625,221.46929 -78.28125,332.3125 l -122.8125,0 c -10.59439,-45.55681 -21.46638,-91.04874 -32.375,-136.53125 -10.66279,45.51136 -21.5615,90.96897 -32,136.53125 l -122.8125,0 c -25.71418,-110.03502 -52.0286,-219.92873 -78.25,-329.84375 l -0.59375,-2.46875 z"
         style="fill:#ff3232;fill-opacity:1;stroke:none"
         inkscape:connector-curvature="0" />
    </clipPath>
    <clipPath
       id="clipPath3929"
       clipPathUnits="userSpaceOnUse">
      <path
         inkscape:connector-curvature="0"
         style="fill:#ff3232;fill-opacity:1;stroke:none"
         d="m 0,0 0,1024 1024,0 L 1024,0 0,0 z m 278.4375,333.84375 119.78125,0 c 9.83697,42.31453 19.85954,84.58596 29.9375,126.84375 9.86978,-42.28798 20.05132,-84.50237 29.6875,-126.84375 l 108.90625,0 c 9.63586,42.34141 19.8178,84.55578 29.6875,126.84375 10.07827,-42.25772 20.10031,-84.52927 29.9375,-126.84375 l 119.1875,0 c -26.26221,110.73099 -52.49625,221.46929 -78.28125,332.3125 l -122.8125,0 c -10.59439,-45.55681 -21.46638,-91.04874 -32.375,-136.53125 -10.66279,45.51136 -21.5615,90.96897 -32,136.53125 l -122.8125,0 c -25.71418,-110.03502 -52.0286,-219.92873 -78.25,-329.84375 l -0.59375,-2.46875 z"
         id="path3931" />
    </clipPath>
    <mask
       maskUnits="userSpaceOnUse"
       id="mask3818">
      <path
         inkscape:export-ydpi="90"
         inkscape:export-xdpi="90"
         transform="matrix(1.2020779,0,0,1.2020779,-93.20363,-75.172466)"
         d="m 483,275.5 a 192.5,192.5 0 1 1 -385,0 192.5,192.5 0 1 1 385,0 z"
         sodipodi:ry="192.5"
         sodipodi:rx="192.5"
         sodipodi:cy="275.5"
         sodipodi:cx="290.5"
         id="path3820"
         style="fill:#ffffff;fill-opacity:1;stroke:none;display:inline"
         sodipodi:type="arc" />
    </mask>
    <linearGradient
       inkscape:collect="always"
       xlink:href="#linearGradient4573"
       id="linearGradient4575"
       x1="408.84314"
       y1="89.26915"
       x2="420.61133"
       y2="138.41306"
       gradientUnits="userSpaceOnUse"
       gradientTransform="matrix(0.99657796,0,0,1,1.2520606,0)" />
    <linearGradient
       inkscape:collect="always"
       xlink:href="#linearGradient8384"
       id="linearGradient6771"
       gradientUnits="userSpaceOnUse"
       gradientTransform="matrix(0.99657796,0,0,1,1.2520606,0)"
       x1="408.84314"
       y1="89.26915"
       x2="420.61133"
       y2="138.41306" />
  </defs>
  <metadata
     id="metadata4713">
    <rdf:RDF>
      <cc:Work
         rdf:about="">
        <dc:format>image/svg+xml</dc:format>
        <dc:type
           rdf:resource="http://purl.org/dc/dcmitype/StillImage" />
        <dc:title></dc:title>
      </cc:Work>
    </rdf:RDF>
  </metadata>
  <g
     id="layer1"
     inkscape:groupmode="layer"
     inkscape:label="Capa 1">
    <path
       style="opacity:1;fill:#ff6f6f;fill-opacity:1;fill-rule:evenodd;stroke:#ff9595;stroke-width:2;stroke-linejoin:round;stroke-miterlimit:4;stroke-dasharray:none;stroke-dashoffset:0;stroke-opacity:1;paint-order:normal"
       d="m 97.583979,29.700195 c -11.07875,0 -19.99804,9.65194 -19.99804,21.64062 V 460.66113 c 0,11.9887 8.91929,21.63867 19.99804,21.63867 H 414.41602 c 11.07874,0 19.99804,-9.64997 19.99804,-21.63867 V 113.7959 c -0.33411,-0.32981 -0.46874,-0.43168 -0.81445,-0.77345 -9.64188,-9.53205 -23.80681,-23.701345 -37.64453,-37.822255 -6.91884,-7.06045 -13.75546,-14.10994 -19.9043,-20.56055 -6.14876,-6.45062 -11.60929,-12.30327 -15.77539,-16.97265 -3.0827,-3.45513 -4.82334,-5.68286 -6.625,-7.9668 z"
       id="path4506"
       inkscape:connector-curvature="0"
       sodipodi:nodetypes="ssssssccccccs" />
    <g
       id="g4584"
       transform="matrix(0.3829248,0,0,0.3829248,74.406719,31.973725)"
       style="fill:#75abd3;fill-opacity:1;stroke:#9dc4df;stroke-opacity:1" />
    <path
       style="opacity:1;fill:#edecea;fill-opacity:1;fill-rule:evenodd;stroke:#ff9595;stroke-width:0.85055965;stroke-linecap:square;stroke-linejoin:miter;stroke-miterlimit:4;stroke-dasharray:none;stroke-dashoffset:0;stroke-opacity:1;paint-order:markers fill stroke"
       d="M 126.86914 380.81641 C 121.84703 380.81641 117.66057 381.0268 114.3125 381.44531 C 111.03418 381.79407 108.59452 382.072 106.99023 382.28125 L 106.99023 456.98633 C 110.61732 457.61409 113.65049 457.92773 116.0918 457.92773 C 117.34732 457.92773 118.70709 457.85825 120.17188 457.71875 C 121.63666 457.57925 123.2763 457.33509 125.08984 456.98633 L 125.08984 432.60742 C 125.64786 432.74692 126.58878 432.88589 127.91406 433.02539 C 129.30909 433.09514 130.67081 433.13086 131.99609 433.13086 C 135.34417 433.13086 138.58774 432.71202 141.72656 431.875 C 144.93513 431.03798 147.75987 429.6425 150.20117 427.68945 C 152.71223 425.73641 154.69928 423.12207 156.16406 419.84375 C 157.6986 416.56543 158.4668 412.44845 158.4668 407.49609 C 158.4668 401.91597 157.52392 397.38211 155.64062 393.89453 C 153.75733 390.40695 151.28196 387.72314 148.21289 385.83984 C 145.21357 383.8868 141.83104 382.5608 138.06445 381.86328 C 134.29787 381.16577 130.56597 380.81641 126.86914 380.81641 z M 250.92773 380.81641 C 246.9519 380.81641 243.35896 381.34045 240.15039 382.38672 C 236.94182 383.36324 234.18657 384.86197 231.88477 386.88477 C 229.65272 388.83781 227.90982 391.24565 226.6543 394.10547 C 225.39877 396.96528 224.76953 400.24262 224.76953 403.93945 C 224.76953 406.93877 225.15461 409.55506 225.92188 411.78711 C 226.75889 414.01916 227.90826 416.00621 229.37305 417.75 C 230.83783 419.42404 232.58267 420.889 234.60547 422.14453 C 236.69802 423.40006 239.00066 424.4819 241.51172 425.38867 L 247.36914 427.58594 C 248.27591 427.9347 249.14931 428.31782 249.98633 428.73633 C 250.8931 429.08509 251.69506 429.53769 252.39258 430.0957 C 253.09009 430.65372 253.6479 431.35243 254.06641 432.18945 C 254.48492 432.95672 254.69336 433.89765 254.69336 435.01367 C 254.69336 437.66423 253.68295 439.54804 251.66016 440.66406 C 249.70711 441.71034 246.95186 442.23242 243.39453 442.23242 C 238.65143 442.23242 233.07144 440.83889 226.6543 438.04883 C 225.67778 440.90864 224.84009 443.73338 224.14258 446.52344 C 223.44506 449.24375 222.95674 451.82432 222.67773 454.26562 C 226.51407 455.73041 230.07129 456.81225 233.34961 457.50977 C 236.69768 458.20728 240.53478 458.55469 244.85938 458.55469 C 249.60248 458.55469 253.78698 457.99688 257.41406 456.88086 C 261.1109 455.69508 264.21551 454.05544 266.72656 451.96289 C 269.23762 449.80059 271.11947 447.25574 272.375 444.32617 C 273.70028 441.32685 274.36328 437.97808 274.36328 434.28125 C 274.36328 430.86342 273.91068 427.96921 273.00391 425.59766 C 272.09714 423.15635 270.80685 421.09787 269.13281 419.42383 C 267.45878 417.68004 265.43601 416.21507 263.06445 415.0293 C 260.76265 413.77377 258.14636 412.55492 255.2168 411.36914 L 250.19531 409.38086 C 248.38177 408.68334 246.81161 407.84566 245.48633 406.86914 C 244.16105 405.89262 243.49805 404.39389 243.49805 402.37109 C 243.49805 401.18532 243.74221 400.20867 244.23047 399.44141 C 244.71873 398.60439 245.34797 397.97515 246.11523 397.55664 C 246.95225 397.06838 247.85746 396.72097 248.83398 396.51172 C 249.88026 396.30246 250.9621 396.19727 252.07812 396.19727 C 255.70521 396.19727 258.74034 396.61611 261.18164 397.45312 C 263.62295 398.29014 265.74896 399.09211 267.5625 399.85938 C 268.67852 397.48782 269.58569 394.97673 270.2832 392.32617 C 271.05047 389.60586 271.57451 387.13049 271.85352 384.89844 C 268.08693 383.57316 264.52972 382.5608 261.18164 381.86328 C 257.90332 381.16577 254.48506 380.81641 250.92773 380.81641 z M 165.57422 388.97852 C 164.94645 391.90808 164.63281 394.45294 164.63281 396.61523 C 164.63281 397.80101 164.70229 399.0913 164.8418 400.48633 C 164.9813 401.88136 165.22546 403.31256 165.57422 404.77734 L 194.13672 404.77734 L 172.16602 458.3457 C 174.95608 460.229 177.57237 461.62448 180.01367 462.53125 C 182.52473 463.43802 185.24426 464.23998 188.17383 464.9375 L 217.99219 391.80273 L 216.42383 388.97852 L 165.57422 388.97852 z M 126.76367 396.40625 L 128.22852 396.40625 C 129.76305 396.40625 131.22802 396.58093 132.62305 396.92969 C 134.01808 397.27845 135.23888 397.90573 136.28516 398.8125 C 137.33143 399.64952 138.13339 400.80084 138.69141 402.26562 C 139.31917 403.66066 139.63281 405.40355 139.63281 407.49609 C 139.63281 411.05342 138.69189 413.70543 136.80859 415.44922 C 134.9253 417.19301 132.48369 418.06445 129.48438 418.06445 C 128.5776 418.06445 127.70616 418.02874 126.86914 417.95898 C 126.03212 417.88923 125.4386 417.78599 125.08984 417.64648 L 125.08984 396.51172 C 125.64786 396.44197 126.20566 396.40625 126.76367 396.40625 z "
       id="rect4610" />
    <path
       style="opacity:1;fill:url(#linearGradient6771);fill-opacity:1;fill-rule:evenodd;stroke:none;stroke-width:8.77774811;stroke-linecap:square;stroke-linejoin:miter;stroke-miterlimit:4;stroke-dasharray:none;stroke-dashoffset:0;stroke-opacity:1;paint-order:markers fill stroke"
       d="m 433.28939,182.37584 v -69.47028 c 0,-0.0394 -0.0309,-0.0705 -0.0703,-0.0705 h -67.33747 c 4.09851,4.50878 8.40749,9.2132 13.77948,14.86279 7.205,7.57734 15.21697,15.8602 23.32513,24.15489 11.13885,11.3951 20.83136,21.05949 30.30308,30.52302 z"
       id="path4566"
       inkscape:connector-curvature="0" />
    <path
       style="opacity:1;fill:#ff9595;fill-opacity:1;fill-rule:evenodd;stroke:none;stroke-width:1.05391276;stroke-linejoin:round;stroke-miterlimit:4;stroke-dasharray:none;stroke-dashoffset:0;stroke-opacity:1;paint-order:normal"
       d="m 435.00048,114.60612 c -1.83541,-2.30475 -3.6077,-4.55306 -6.74972,-8.04125 -4.24635,-4.71409 -9.8132,-10.623129 -16.08223,-17.137261 C 405.8996,82.913483 398.92921,75.794273 391.8744,68.663457 377.76477,54.401804 363.32068,40.090503 353.48814,30.462087 c -0.35278,-0.345219 -0.4898,-0.448268 -0.83055,-0.781422 l -0.24394,62.802323 c -0.0467,12.055462 9.04538,21.800782 20.38588,21.850482 z"
       id="rect4485"
       inkscape:connector-curvature="0" />
    <path
       style="fill:#edecea;fill-opacity:1;stroke:none;stroke-width:0.80452323"
       d="m 191.20443,231.99953 c 0,0 -0.82721,-61.71921 0,-68.00559 0.8272,-6.28634 8.31377,-57.1318 64.80111,-56.61194 56.48728,0.51985 62.96031,48.24297 64.08899,54.47565 1.12868,6.23268 1.06812,69.42978 1.06812,69.42978 l -27.0598,0.7121 -0.35605,-60.52853 c 0,0 -3.95761,-35.29914 -39.16548,-34.53685 -35.2079,0.76228 -35.96104,34.89291 -35.96104,34.89291 l -0.35605,59.81642 z"
       id="path3767"
       inkscape:connector-curvature="0"
       sodipodi:nodetypes="czzzccczccc" />
    <path
       style="fill:#ffd263;fill-opacity:1;stroke:none;stroke-width:0.80452323"
       d="m 170.14799,328.37014 171.70402,0.25182 -0.2518,-104.98619 H 170.14799 Z"
       id="path2997"
       inkscape:connector-curvature="0"
       sodipodi:nodetypes="ccccc" />
    <path
       sodipodi:type="arc"
       style="fill:#ff9595;fill-opacity:1;stroke:none;stroke-width:0.80452323"
       id="path3769"
       sodipodi:cx="256"
       sodipodi:cy="279.35413"
       sodipodi:rx="34.892906"
       sodipodi:ry="34.536858"
       d="m 290.89291,279.35413 a 34.892906,34.536858 0 0 1 -34.85196,34.53683 34.892906,34.536858 0 0 1 -34.93376,-34.45576 34.892906,34.536858 0 0 1 34.76995,-34.61772 34.892906,34.536858 0 0 1 35.01538,34.3745"
       sodipodi:start="0"
       sodipodi:end="6.2784904"
       sodipodi:open="true" />
    <path
       id="path3773"
       style="fill:#394050;stroke:#394050;stroke-width:4.98470116;stroke-linecap:round;stroke-linejoin:miter;stroke-miterlimit:4;stroke-dasharray:none;stroke-opacity:1"
       d="m 255.911,272.03739 0.178,25.99164 m 6.51572,-27.54941 a 6.6047291,6.3821976 0 0 1 -6.59697,6.3822 6.6047291,6.3821976 0 0 1 -6.61246,-6.36722 6.6047291,6.3821976 0 0 1 6.58145,-6.39713 6.6047291,6.3821976 0 0 1 6.62791,6.35219"
       inkscape:connector-curvature="0" />
  </g>
</svg>
