<?xml version="1.0" encoding="UTF-8" standalone="no"?>
<!-- Created with Inkscape (http://www.inkscape.org/) -->

<svg
   xmlns:osb="http://www.openswatchbook.org/uri/2009/osb"
   xmlns:dc="http://purl.org/dc/elements/1.1/"
   xmlns:cc="http://creativecommons.org/ns#"
   xmlns:rdf="http://www.w3.org/1999/02/22-rdf-syntax-ns#"
   xmlns:svg="http://www.w3.org/2000/svg"
   xmlns="http://www.w3.org/2000/svg"
   xmlns:xlink="http://www.w3.org/1999/xlink"
   xmlns:sodipodi="http://sodipodi.sourceforge.net/DTD/sodipodi-0.dtd"
   xmlns:inkscape="http://www.inkscape.org/namespaces/inkscape"
   width="512px"
   height="512px"
   viewBox="0 0 512 512"
   version="1.1"
   id="SVGRoot"
   inkscape:version="0.92.1 r15371"
   sodipodi:docname="pascal.svg">
  <sodipodi:namedview
     id="base"
     pagecolor="#ffffff"
     bordercolor="#666666"
     borderopacity="1.0"
     inkscape:pageopacity="0.0"
     inkscape:pageshadow="2"
     inkscape:zoom="0.7071068"
     inkscape:cx="425.20933"
     inkscape:cy="203.2687"
     inkscape:document-units="px"
     inkscape:current-layer="layer1"
     showgrid="false"
     inkscape:window-width="1280"
     inkscape:window-height="947"
     inkscape:window-x="0"
     inkscape:window-y="0"
     inkscape:window-maximized="1" />
  <defs
     id="defs4710">
    <linearGradient
       inkscape:collect="always"
       id="linearGradient4573">
      <stop
         style="stop-color:#181818;stop-opacity:0.30645162"
         offset="0"
         id="stop4569" />
      <stop
         style="stop-color:#404040;stop-opacity:0"
         offset="1"
         id="stop4571" />
    </linearGradient>
    <marker
       inkscape:stockid="DotM"
       orient="auto"
       refY="0.0"
       refX="0.0"
       id="DotM"
       style="overflow:visible"
       inkscape:isstock="true">
      <path
         id="path4618"
         d="M -2.5,-1.0 C -2.5,1.7600000 -4.7400000,4.0 -7.5,4.0 C -10.260000,4.0 -12.5,1.7600000 -12.5,-1.0 C -12.5,-3.7600000 -10.260000,-6.0 -7.5,-6.0 C -4.7400000,-6.0 -2.5,-3.7600000 -2.5,-1.0 z "
         style="fill-rule:evenodd;stroke:#000000;stroke-width:1.0pt"
         transform="scale(0.4) translate(7.4, 1)" />
    </marker>
    <linearGradient
       osb:paint="solid"
       id="linearGradient5207">
      <stop
         id="stop5209"
         offset="0"
         style="stop-color:#000015;stop-opacity:1;" />
    </linearGradient>
    <clipPath
       id="clipPath3006-9-8"
       clipPathUnits="userSpaceOnUse">
      <path
         inkscape:export-ydpi="90"
         inkscape:export-xdpi="90"
         transform="matrix(1.2020779,0,0,1.2020779,-93.20363,-75.172465)"
         d="m 483,275.5 a 192.5,192.5 0 1 1 -385,0 192.5,192.5 0 1 1 385,0 z"
         sodipodi:ry="192.5"
         sodipodi:rx="192.5"
         sodipodi:cy="275.5"
         sodipodi:cx="290.5"
         id="path3008-1-1"
         style="fill:#ffffff;fill-opacity:1;stroke:none;display:inline"
         sodipodi:type="arc" />
    </clipPath>
    <mask
       id="mask3818-4"
       maskUnits="userSpaceOnUse">
      <path
         sodipodi:type="arc"
         style="fill:#ffffff;fill-opacity:1;stroke:none;display:inline"
         id="path3820-9"
         sodipodi:cx="290.5"
         sodipodi:cy="275.5"
         sodipodi:rx="192.5"
         sodipodi:ry="192.5"
         d="m 483,275.5 a 192.5,192.5 0 1 1 -385,0 192.5,192.5 0 1 1 385,0 z"
         transform="matrix(1.2020779,0,0,1.2020779,-93.20363,-75.172466)"
         inkscape:export-xdpi="90"
         inkscape:export-ydpi="90" />
    </mask>
    <clipPath
       id="clipPath3006"
       clipPathUnits="userSpaceOnUse">
      <path
         inkscape:export-ydpi="90"
         inkscape:export-xdpi="90"
         transform="matrix(1.2020779,0,0,1.2020779,-93.20363,-75.172465)"
         d="m 483,275.5 a 192.5,192.5 0 1 1 -385,0 192.5,192.5 0 1 1 385,0 z"
         sodipodi:ry="192.5"
         sodipodi:rx="192.5"
         sodipodi:cy="275.5"
         sodipodi:cx="290.5"
         id="path3008"
         style="fill:#ffffff;fill-opacity:1;stroke:none;display:inline"
         sodipodi:type="arc" />
    </clipPath>
    <clipPath
       id="clipPath3006-9"
       clipPathUnits="userSpaceOnUse">
      <path
         inkscape:export-ydpi="90"
         inkscape:export-xdpi="90"
         transform="matrix(1.2020779,0,0,1.2020779,-93.20363,-75.172465)"
         d="m 483,275.5 a 192.5,192.5 0 1 1 -385,0 192.5,192.5 0 1 1 385,0 z"
         sodipodi:ry="192.5"
         sodipodi:rx="192.5"
         sodipodi:cy="275.5"
         sodipodi:cx="290.5"
         id="path3008-1"
         style="fill:#ffffff;fill-opacity:1;stroke:none;display:inline"
         sodipodi:type="arc" />
    </clipPath>
    <mask
       maskUnits="userSpaceOnUse"
       id="mask3818-0">
      <path
         inkscape:export-ydpi="90"
         inkscape:export-xdpi="90"
         transform="matrix(1.2020779,0,0,1.2020779,-93.20363,-75.172466)"
         d="m 483,275.5 a 192.5,192.5 0 1 1 -385,0 192.5,192.5 0 1 1 385,0 z"
         sodipodi:ry="192.5"
         sodipodi:rx="192.5"
         sodipodi:cy="275.5"
         sodipodi:cx="290.5"
         id="path3820-8"
         style="fill:#ffffff;fill-opacity:1;stroke:none;display:inline"
         sodipodi:type="arc" />
    </mask>
    <mask
       maskUnits="userSpaceOnUse"
       id="mask3818-2">
      <path
         inkscape:export-ydpi="90"
         inkscape:export-xdpi="90"
         transform="matrix(1.2020779,0,0,1.2020779,-93.20363,-75.172466)"
         d="m 483,275.5 a 192.5,192.5 0 1 1 -385,0 192.5,192.5 0 1 1 385,0 z"
         sodipodi:ry="192.5"
         sodipodi:rx="192.5"
         sodipodi:cy="275.5"
         sodipodi:cx="290.5"
         id="path3820-2-2"
         style="fill:#ffffff;fill-opacity:1;stroke:none;display:inline"
         sodipodi:type="arc" />
    </mask>
    <clipPath
       id="clipPath3934"
       clipPathUnits="userSpaceOnUse">
      <path
         id="path3936"
         d="m 0,0 0,1024 1024,0 L 1024,0 0,0 z m 278.4375,333.84375 119.78125,0 c 9.83697,42.31453 19.85954,84.58596 29.9375,126.84375 9.86978,-42.28798 20.05132,-84.50237 29.6875,-126.84375 l 108.90625,0 c 9.63586,42.34141 19.8178,84.55578 29.6875,126.84375 10.07827,-42.25772 20.10031,-84.52927 29.9375,-126.84375 l 119.1875,0 c -26.26221,110.73099 -52.49625,221.46929 -78.28125,332.3125 l -122.8125,0 c -10.59439,-45.55681 -21.46638,-91.04874 -32.375,-136.53125 -10.66279,45.51136 -21.5615,90.96897 -32,136.53125 l -122.8125,0 c -25.71418,-110.03502 -52.0286,-219.92873 -78.25,-329.84375 l -0.59375,-2.46875 z"
         style="fill:#ff3232;fill-opacity:1;stroke:none"
         inkscape:connector-curvature="0" />
    </clipPath>
    <clipPath
       id="clipPath3929"
       clipPathUnits="userSpaceOnUse">
      <path
         inkscape:connector-curvature="0"
         style="fill:#ff3232;fill-opacity:1;stroke:none"
         d="m 0,0 0,1024 1024,0 L 1024,0 0,0 z m 278.4375,333.84375 119.78125,0 c 9.83697,42.31453 19.85954,84.58596 29.9375,126.84375 9.86978,-42.28798 20.05132,-84.50237 29.6875,-126.84375 l 108.90625,0 c 9.63586,42.34141 19.8178,84.55578 29.6875,126.84375 10.07827,-42.25772 20.10031,-84.52927 29.9375,-126.84375 l 119.1875,0 c -26.26221,110.73099 -52.49625,221.46929 -78.28125,332.3125 l -122.8125,0 c -10.59439,-45.55681 -21.46638,-91.04874 -32.375,-136.53125 -10.66279,45.51136 -21.5615,90.96897 -32,136.53125 l -122.8125,0 c -25.71418,-110.03502 -52.0286,-219.92873 -78.25,-329.84375 l -0.59375,-2.46875 z"
         id="path3931" />
    </clipPath>
    <mask
       maskUnits="userSpaceOnUse"
       id="mask3818">
      <path
         inkscape:export-ydpi="90"
         inkscape:export-xdpi="90"
         transform="matrix(1.2020779,0,0,1.2020779,-93.20363,-75.172466)"
         d="m 483,275.5 a 192.5,192.5 0 1 1 -385,0 192.5,192.5 0 1 1 385,0 z"
         sodipodi:ry="192.5"
         sodipodi:rx="192.5"
         sodipodi:cy="275.5"
         sodipodi:cx="290.5"
         id="path3820"
         style="fill:#ffffff;fill-opacity:1;stroke:none;display:inline"
         sodipodi:type="arc" />
    </mask>
    <linearGradient
       inkscape:collect="always"
       xlink:href="#linearGradient4573"
       id="linearGradient4575"
       x1="408.84314"
       y1="89.26915"
       x2="420.61133"
       y2="138.41306"
       gradientUnits="userSpaceOnUse"
       gradientTransform="matrix(0.99657796,0,0,1,1.2520606,0)" />
  </defs>
  <metadata
     id="metadata4713">
    <rdf:RDF>
      <cc:Work
         rdf:about="">
        <dc:format>image/svg+xml</dc:format>
        <dc:type
           rdf:resource="http://purl.org/dc/dcmitype/StillImage" />
        <dc:title></dc:title>
      </cc:Work>
    </rdf:RDF>
  </metadata>
  <g
     id="layer1"
     inkscape:groupmode="layer"
     inkscape:label="Capa 1">
    <path
       style="opacity:1;fill:#eff0f0;fill-opacity:1;fill-rule:evenodd;stroke:#157990;stroke-width:2;stroke-linejoin:round;stroke-miterlimit:4;stroke-dasharray:none;stroke-dashoffset:0;stroke-opacity:1;paint-order:normal"
       d="m 97.583979,29.700195 c -11.07875,0 -19.99804,9.65194 -19.99804,21.64062 V 460.66113 c 0,11.9887 8.91929,21.63867 19.99804,21.63867 H 414.41602 c 11.07874,0 19.99804,-9.64997 19.99804,-21.63867 V 113.7959 c -0.33411,-0.32981 -0.46874,-0.43168 -0.81445,-0.77345 -9.64188,-9.53205 -23.80681,-23.701345 -37.64453,-37.822255 -6.91884,-7.06045 -13.75546,-14.10994 -19.9043,-20.56055 -6.14876,-6.45062 -11.60929,-12.30327 -15.77539,-16.97265 -3.0827,-3.45513 -4.82334,-5.68286 -6.625,-7.9668 z"
       id="path4506"
       inkscape:connector-curvature="0"
       sodipodi:nodetypes="ssssssccccccs" />
    <g
       id="g4584"
       transform="matrix(0.3829248,0,0,0.3829248,74.406719,31.973725)"
       style="fill:#75abd3;fill-opacity:1;stroke:#9dc4df;stroke-opacity:1" />
    <path
       style="opacity:1;fill:#157990;fill-opacity:1;fill-rule:evenodd;stroke:#e4f7fb;stroke-width:1.14248979;stroke-linecap:square;stroke-linejoin:miter;stroke-miterlimit:4;stroke-dasharray:none;stroke-dashoffset:0;stroke-opacity:1;paint-order:markers fill stroke"
       d="M 126.04492 401.95117 C 122.9061 401.95117 119.62876 402.09209 116.21094 402.37109 C 112.86286 402.58035 109.58357 402.92775 106.375 403.41602 L 106.375 457.19531 C 108.18854 457.54407 109.7587 457.75251 111.08398 457.82227 C 112.47902 457.96177 113.7693 458.03125 114.95508 458.03125 C 116.0711 458.03125 117.32567 457.96177 118.7207 457.82227 C 120.18549 457.75251 121.82513 457.54407 123.63867 457.19531 L 123.63867 444.32617 C 123.84793 444.39592 124.37197 444.4654 125.20898 444.53516 C 126.046 444.60491 127.05641 444.64063 128.24219 444.64062 C 131.17175 444.64063 134.0322 444.29127 136.82227 443.59375 C 139.68208 442.82648 142.22693 441.60568 144.45898 439.93164 C 146.69103 438.2576 148.46964 436.06015 149.79492 433.33984 C 151.18995 430.61953 151.88867 427.27076 151.88867 423.29492 C 151.88867 418.90057 151.12047 415.34336 149.58594 412.62305 C 148.12115 409.83298 146.16787 407.67125 143.72656 406.13672 C 141.28526 404.53243 138.53196 403.45059 135.46289 402.89258 C 132.39382 402.26481 129.25349 401.95117 126.04492 401.95117 z M 179.07617 401.95117 C 176.42561 401.95117 173.4262 402.23105 170.07812 402.78906 C 166.7998 403.34707 163.48675 404.18476 160.13867 405.30078 C 160.13867 406.69581 160.17439 407.95038 160.24414 409.06641 C 160.38364 410.11268 160.55832 411.1588 160.76758 412.20508 C 161.04658 413.1816 161.39399 414.15824 161.8125 415.13477 C 162.30076 416.11129 162.86052 417.19313 163.48828 418.37891 C 165.85983 417.54189 168.16053 416.94837 170.39258 416.59961 C 172.62463 416.1811 174.57792 415.97266 176.25195 415.97266 C 177.50748 415.97266 178.72829 416.0759 179.91406 416.28516 C 181.09984 416.42466 182.18168 416.7383 183.1582 417.22656 C 184.13472 417.64507 184.93669 418.27431 185.56445 419.11133 C 186.19222 419.94835 186.53962 420.99447 186.60938 422.25 L 180.22852 422.25 C 177.57796 422.25 174.85647 422.52793 172.06641 423.08594 C 169.27634 423.5742 166.73149 424.48136 164.42969 425.80664 C 162.12789 427.13192 160.24408 428.91053 158.7793 431.14258 C 157.31451 433.37463 156.58203 436.19936 156.58203 439.61719 C 156.58203 443.10477 157.17555 446.07041 158.36133 448.51172 C 159.61686 450.88327 161.32598 452.80084 163.48828 454.26562 C 165.65058 455.73041 168.23115 456.77653 171.23047 457.4043 C 174.29954 458.10181 177.64636 458.45117 181.27344 458.45117 C 185.45853 458.45117 189.43459 458.0661 193.20117 457.29883 C 196.96776 456.53156 200.17757 455.76531 202.82812 454.99805 L 202.82812 424.3418 C 202.82813 420.43571 202.26837 417.08694 201.15234 414.29688 C 200.03632 411.43706 198.43239 409.10065 196.33984 407.28711 C 194.31705 405.47357 191.84167 404.14952 188.91211 403.3125 C 185.98254 402.40573 182.70325 401.95117 179.07617 401.95117 z M 234.57422 401.95117 C 231.22614 401.95117 228.15725 402.37001 225.36719 403.20703 C 222.64688 404.04405 220.2767 405.26485 218.25391 406.86914 C 216.23111 408.40367 214.66095 410.28748 213.54492 412.51953 C 212.4289 414.75158 211.87109 417.22695 211.87109 419.94727 C 211.87109 424.27186 213.0919 427.69012 215.5332 430.20117 C 217.97451 432.71223 221.0434 434.49084 224.74023 435.53711 L 231.85547 437.52539 C 233.04125 437.87415 234.08737 438.29299 234.99414 438.78125 C 235.90091 439.19976 236.35352 439.86081 236.35352 440.76758 C 236.35352 441.46509 236.10935 442.02485 235.62109 442.44336 C 235.20258 442.86187 234.64478 443.20928 233.94727 443.48828 C 233.24975 443.69754 232.44779 443.83845 231.54102 443.9082 C 230.63425 443.97795 229.7628 444.01172 228.92578 444.01172 C 226.48448 444.01172 224.04287 443.76756 221.60156 443.2793 C 219.16026 442.72128 216.82385 441.91932 214.5918 440.87305 C 212.35975 445.75566 211.06946 450.56939 210.7207 455.3125 C 213.92927 456.49828 216.96245 457.334 219.82227 457.82227 C 222.68208 458.31053 225.78669 458.55469 229.13477 458.55469 C 233.18036 458.55469 236.73757 458.06637 239.80664 457.08984 C 242.94546 456.11332 245.56175 454.78927 247.6543 453.11523 C 249.8166 451.4412 251.42052 449.45219 252.4668 447.15039 C 253.58282 444.84859 254.14063 442.37322 254.14062 439.72266 C 254.14062 437.14185 253.79127 434.9444 253.09375 433.13086 C 252.39623 431.31732 251.41959 429.78287 250.16406 428.52734 C 248.97829 427.27182 247.51332 426.25945 245.76953 425.49219 C 244.09549 424.65517 242.21364 423.9584 240.12109 423.40039 L 233.32031 421.62109 C 232.34379 421.34209 231.47039 420.99468 230.70312 420.57617 C 229.93586 420.15766 229.55273 419.56414 229.55273 418.79688 C 229.55273 416.98333 231.19238 416.07617 234.4707 416.07617 C 236.70275 416.07617 239.14436 416.38981 241.79492 417.01758 C 244.44548 417.64534 246.71241 418.34406 248.5957 419.11133 C 249.57222 417.15828 250.44367 414.92512 251.21094 412.41406 C 251.9782 409.83325 252.43081 407.42736 252.57031 405.19531 C 249.50124 404.14904 246.39859 403.34707 243.25977 402.78906 C 240.12095 402.23105 237.22478 401.95117 234.57422 401.95117 z M 287.69531 401.95117 C 283.37072 401.95117 279.53362 402.64989 276.18555 404.04492 C 272.83747 405.43995 270.01274 407.39324 267.71094 409.9043 C 265.40914 412.3456 263.66625 415.3093 262.48047 418.79688 C 261.29469 422.28445 260.70117 426.12155 260.70117 430.30664 C 260.70117 434.63124 261.29469 438.53586 262.48047 442.02344 C 263.66625 445.44126 265.40914 448.40691 267.71094 450.91797 C 270.08249 453.35927 272.9767 455.24113 276.39453 456.56641 C 279.81236 457.89169 283.75465 458.55469 288.21875 458.55469 C 290.86931 458.55469 293.51936 458.38001 296.16992 458.03125 C 298.82048 457.68249 301.75041 456.88053 304.95898 455.625 C 304.95898 452.62568 304.60962 449.97563 303.91211 447.67383 C 303.21459 445.30228 302.27367 443.17431 301.08789 441.29102 C 299.0651 442.05828 297.28649 442.61609 295.75195 442.96484 C 294.28717 443.3136 292.54233 443.48828 290.51953 443.48828 C 288.91525 443.48828 287.3808 443.27984 285.91602 442.86133 C 284.52098 442.44282 283.26642 441.7441 282.15039 440.76758 C 281.10412 439.79106 280.23072 438.46701 279.5332 436.79297 C 278.90544 435.04918 278.5918 432.88745 278.5918 430.30664 C 278.5918 425.42403 279.67364 422.00578 281.83594 420.05273 C 284.06799 418.02994 286.857 417.01758 290.20508 417.01758 C 291.11185 417.01758 291.94953 417.0533 292.7168 417.12305 C 293.55382 417.12305 294.3915 417.19253 295.22852 417.33203 C 296.06553 417.47153 296.93698 417.67998 297.84375 417.95898 C 298.82027 418.16824 299.90211 418.48383 301.08789 418.90234 C 302.27367 416.67029 303.14511 414.40336 303.70312 412.10156 C 304.26114 409.73001 304.46958 407.35788 304.33008 404.98633 C 302.65604 404.35856 301.12159 403.83452 299.72656 403.41602 C 298.40128 402.99751 297.07723 402.68386 295.75195 402.47461 C 294.49643 402.26535 293.20419 402.12639 291.87891 402.05664 C 290.55363 401.98689 289.1601 401.95117 287.69531 401.95117 z M 332.33984 401.95117 C 329.68928 401.95117 326.68987 402.23105 323.3418 402.78906 C 320.06347 403.34707 316.75042 404.18476 313.40234 405.30078 C 313.40234 406.69581 313.43611 407.95038 313.50586 409.06641 C 313.64536 410.11268 313.82004 411.1588 314.0293 412.20508 C 314.3083 413.1816 314.65766 414.15824 315.07617 415.13477 C 315.56443 416.11129 316.12224 417.19313 316.75 418.37891 C 319.12155 417.54189 321.4242 416.94837 323.65625 416.59961 C 325.8883 416.1811 327.83963 415.97266 329.51367 415.97266 C 330.7692 415.97266 331.99 416.0759 333.17578 416.28516 C 334.36156 416.42466 335.4434 416.7383 336.41992 417.22656 C 337.39644 417.64507 338.19841 418.27431 338.82617 419.11133 C 339.45394 419.94835 339.8033 420.99447 339.87305 422.25 L 333.49023 422.25 C 330.83968 422.25 328.12014 422.52793 325.33008 423.08594 C 322.54002 423.5742 319.99321 424.48136 317.69141 425.80664 C 315.3896 427.13192 313.5058 428.91053 312.04102 431.14258 C 310.57623 433.37463 309.84375 436.19936 309.84375 439.61719 C 309.84375 443.10477 310.43727 446.07041 311.62305 448.51172 C 312.87857 450.88327 314.5877 452.80084 316.75 454.26562 C 318.9123 455.73041 321.49287 456.77653 324.49219 457.4043 C 327.56126 458.10181 330.91003 458.45117 334.53711 458.45117 C 338.7222 458.45117 342.69826 458.0661 346.46484 457.29883 C 350.23143 456.53156 353.43928 455.76531 356.08984 454.99805 L 356.08984 424.3418 C 356.08984 420.43571 355.53204 417.08694 354.41602 414.29688 C 353.29999 411.43706 351.69606 409.10065 349.60352 407.28711 C 347.58072 405.47357 345.10339 404.14952 342.17383 403.3125 C 339.24426 402.40573 335.96692 401.95117 332.33984 401.95117 z M 376.32812 402.26562 C 374.93309 402.26562 373.46813 402.33511 371.93359 402.47461 C 370.46881 402.61411 368.97008 402.85827 367.43555 403.20703 L 367.33008 457.29883 L 404.78711 457.29883 C 405.13587 455.9038 405.34626 454.61351 405.41602 453.42773 C 405.55552 452.17221 405.625 450.98712 405.625 449.87109 C 405.625 448.75507 405.55552 447.60375 405.41602 446.41797 C 405.34626 445.23219 405.13587 443.94191 404.78711 442.54688 L 385.01367 442.54688 L 385.11719 403.20703 C 383.6524 402.85827 382.15367 402.61411 380.61914 402.47461 C 379.08461 402.33511 377.6534 402.26562 376.32812 402.26562 z M 125.20898 415.44922 L 126.46484 415.44922 C 128.76665 415.44922 130.68422 416.14598 132.21875 417.54102 C 133.82304 418.8663 134.625 420.78387 134.625 423.29492 C 134.625 426.22449 133.82304 428.31869 132.21875 429.57422 C 130.68422 430.76 128.69521 431.35156 126.25391 431.35156 L 124.89453 431.35156 C 124.40627 431.28181 123.98743 431.21233 123.63867 431.14258 L 123.63867 415.55273 C 124.19668 415.48298 124.72072 415.44922 125.20898 415.44922 z M 180.64648 433.33984 L 186.60938 433.33984 L 186.60938 444.84961 C 186.05136 444.98911 185.17992 445.12808 183.99414 445.26758 C 182.80836 445.40708 181.9012 445.47656 181.27344 445.47656 C 180.36667 445.47656 179.35626 445.40708 178.24023 445.26758 C 177.19396 445.12808 176.1816 444.8482 175.20508 444.42969 C 174.29831 444.01118 173.53206 443.41961 172.9043 442.65234 C 172.27653 441.81533 171.96289 440.69972 171.96289 439.30469 C 171.96289 437.4214 172.79862 435.95643 174.47266 434.91016 C 176.14669 433.86388 178.20518 433.33984 180.64648 433.33984 z M 333.9082 433.33984 L 339.87305 433.33984 L 339.87305 444.84961 C 339.31503 444.98911 338.44359 445.12808 337.25781 445.26758 C 336.07204 445.40708 335.16487 445.47656 334.53711 445.47656 C 333.63034 445.47656 332.61798 445.40708 331.50195 445.26758 C 330.45568 445.12808 329.44527 444.8482 328.46875 444.42969 C 327.56198 444.01118 326.79378 443.41961 326.16602 442.65234 C 325.53825 441.81533 325.22461 440.69972 325.22461 439.30469 C 325.22461 437.4214 326.06229 435.95643 327.73633 434.91016 C 329.41037 433.86388 331.4669 433.33984 333.9082 433.33984 z "
       id="rect4610" />
    <path
       style="opacity:1;fill:url(#linearGradient4575);fill-opacity:1;fill-rule:evenodd;stroke:none;stroke-width:8.77774811;stroke-linecap:square;stroke-linejoin:miter;stroke-miterlimit:4;stroke-dasharray:none;stroke-dashoffset:0;stroke-opacity:1;paint-order:markers fill stroke"
       d="m 433.28939,182.37584 v -69.47028 c 0,-0.0394 -0.0309,-0.0705 -0.0703,-0.0705 h -67.33747 c 4.09851,4.50878 8.40749,9.2132 13.77948,14.86279 7.205,7.57734 15.21697,15.8602 23.32513,24.15489 11.13885,11.3951 20.83136,21.05949 30.30308,30.52302 z"
       id="path4566"
       inkscape:connector-curvature="0" />
    <path
       style="opacity:1;fill:#157990;fill-opacity:1;fill-rule:evenodd;stroke:none;stroke-width:1.05391276;stroke-linejoin:round;stroke-miterlimit:4;stroke-dasharray:none;stroke-dashoffset:0;stroke-opacity:1;paint-order:normal"
       d="m 435.00048,114.60612 c -1.83541,-2.30475 -3.6077,-4.55306 -6.74972,-8.04125 -4.24635,-4.71409 -9.8132,-10.623129 -16.08223,-17.137261 C 405.8996,82.913483 398.92921,75.794273 391.8744,68.663457 377.76477,54.401804 363.32068,40.090503 353.48814,30.462087 c -0.35278,-0.345219 -0.4898,-0.448268 -0.83055,-0.781422 l -0.24394,62.802323 c -0.0467,12.055462 9.04538,21.800782 20.38588,21.850482 z"
       id="rect4485"
       inkscape:connector-curvature="0" />
    <g
       transform="matrix(0.74507172,0,0,0.74507172,125.73663,87.868262)"
       id="g8"
       style="fill:#157990;fill-opacity:1;stroke:none;stroke-opacity:1">
      <path
         inkscape:connector-curvature="0"
         d="m 174.833,197.204 c 24.125,0 80.846,-29.034 80.846,-98.603 C 255.679,44.145 248.329,0 174.833,0 101.339,0 93.987,44.145 93.987,98.602 c 0.001,69.568 56.721,98.602 80.846,98.602 z M 106.07,82.145 c 5.68,-10.983 17.963,-23.674 44.381,-23.111 0,0 15.747,38.194 93.05,21.042 0.312,6.101 0.41,12.326 0.41,18.526 0,34.005 -15.016,55.075 -27.612,66.762 -15.871,14.727 -33.493,20.072 -41.465,20.072 -7.972,0 -25.594,-5.345 -41.465,-20.072 -12.597,-11.687 -27.612,-32.757 -27.612,-66.762 -0.001,-5.501 0.078,-11.021 0.313,-16.457 z"
         id="path2"
         style="fill:#157990;fill-opacity:1;stroke:none;stroke-opacity:1" />
      <path
         inkscape:connector-curvature="0"
         d="m 324.926,298.327 c -4.128,-25.664 -12.624,-58.724 -29.668,-70.472 -11.64,-8.026 -52.248,-29.721 -69.589,-38.985 l -0.293,-0.156 c -1.982,-1.059 -4.402,-0.847 -6.169,0.541 -9.084,7.131 -19.034,11.937 -29.574,14.284 -1.807,0.402 -3.304,1.662 -4.009,3.374 l -10.791,26.206 -10.791,-26.206 c -0.705,-1.712 -2.202,-2.971 -4.009,-3.374 -10.54,-2.347 -20.49,-7.153 -29.574,-14.284 -1.769,-1.388 -4.189,-1.6 -6.17,-0.541 -17.134,9.156 -58.238,31.294 -69.83,39.107 -19.62,13.217 -28.198,61.052 -29.719,70.507 -0.15,0.938 -0.063,1.897 0.253,2.792 0.703,1.982 18.709,48.548 149.84,48.548 131.131,0 149.137,-46.565 149.84,-48.548 0.317,-0.896 0.404,-1.856 0.253,-2.793 z M 159.66,282.743 c 0,0.397 -0.234,0.757 -0.599,0.916 l -16.174,7.085 16.174,7.084 c 0.364,0.159 0.599,0.52 0.599,0.916 v 5.301 c 0,0.341 -0.174,0.658 -0.462,0.842 -0.163,0.105 -0.351,0.158 -0.538,0.158 -0.144,0 -0.287,-0.031 -0.422,-0.094 l -24.001,-11.15 c -0.352,-0.164 -0.579,-0.518 -0.579,-0.907 v -4.3 c 0,-0.39 0.227,-0.744 0.579,-0.907 l 24.001,-11.15 c 0.311,-0.143 0.672,-0.12 0.96,0.064 0.288,0.184 0.462,0.502 0.462,0.844 z m 24.408,-12.667 -10.701,36.252 c -0.125,0.424 -0.516,0.717 -0.959,0.717 h -5.051 c -0.314,0 -0.611,-0.149 -0.801,-0.402 -0.188,-0.252 -0.247,-0.578 -0.158,-0.881 l 10.701,-36.252 c 0.125,-0.426 0.516,-0.717 0.959,-0.717 h 5.051 c 0.314,0 0.611,0.148 0.801,0.4 0.188,0.253 0.247,0.58 0.158,0.883 z m 31.941,22.968 c 0,0.392 -0.229,0.746 -0.584,0.909 l -24.002,11 c -0.133,0.061 -0.274,0.092 -0.416,0.092 -0.188,0 -0.377,-0.054 -0.54,-0.158 -0.286,-0.185 -0.46,-0.502 -0.46,-0.842 v -5.301 c 0,-0.4 0.238,-0.762 0.605,-0.919 l 16.523,-7.081 -16.523,-7.082 c -0.367,-0.157 -0.605,-0.52 -0.605,-0.919 v -5.3 c 0,-0.341 0.174,-0.658 0.46,-0.842 0.287,-0.184 0.648,-0.209 0.956,-0.068 l 24.002,11.001 c 0.355,0.163 0.584,0.518 0.584,0.909 z"
         id="path4"
         style="fill:#157990;fill-opacity:1;stroke:none;stroke-opacity:1" />
    </g>
  </g>
</svg>
