<?xml version="1.0" encoding="UTF-8" standalone="no"?>
<!-- Created with Inkscape (http://www.inkscape.org/) -->

<svg
   xmlns:osb="http://www.openswatchbook.org/uri/2009/osb"
   xmlns:dc="http://purl.org/dc/elements/1.1/"
   xmlns:cc="http://creativecommons.org/ns#"
   xmlns:rdf="http://www.w3.org/1999/02/22-rdf-syntax-ns#"
   xmlns:svg="http://www.w3.org/2000/svg"
   xmlns="http://www.w3.org/2000/svg"
   xmlns:xlink="http://www.w3.org/1999/xlink"
   xmlns:sodipodi="http://sodipodi.sourceforge.net/DTD/sodipodi-0.dtd"
   xmlns:inkscape="http://www.inkscape.org/namespaces/inkscape"
   width="512px"
   height="512px"
   viewBox="0 0 512 512"
   version="1.1"
   id="SVGRoot"
   inkscape:version="0.92.1 r15371"
   sodipodi:docname="pl.svg">
  <sodipodi:namedview
     id="base"
     pagecolor="#ffffff"
     bordercolor="#666666"
     borderopacity="1.0"
     inkscape:pageopacity="0.0"
     inkscape:pageshadow="2"
     inkscape:zoom="1"
     inkscape:cx="445.6313"
     inkscape:cy="210.43118"
     inkscape:document-units="px"
     inkscape:current-layer="layer1"
     showgrid="false"
     inkscape:window-width="1280"
     inkscape:window-height="947"
     inkscape:window-x="0"
     inkscape:window-y="0"
     inkscape:window-maximized="1" />
  <defs
     id="defs4710">
    <linearGradient
       id="linearGradient8384"
       inkscape:collect="always">
      <stop
         id="stop8380"
         offset="0"
         style="stop-color:#181818;stop-opacity:0.62365592" />
      <stop
         id="stop8382"
         offset="1"
         style="stop-color:#404040;stop-opacity:0" />
    </linearGradient>
    <linearGradient
       inkscape:collect="always"
       id="linearGradient4573">
      <stop
         style="stop-color:#181818;stop-opacity:0.30645162"
         offset="0"
         id="stop4569" />
      <stop
         style="stop-color:#404040;stop-opacity:0"
         offset="1"
         id="stop4571" />
    </linearGradient>
    <marker
       inkscape:stockid="DotM"
       orient="auto"
       refY="0.0"
       refX="0.0"
       id="DotM"
       style="overflow:visible"
       inkscape:isstock="true">
      <path
         id="path4618"
         d="M -2.5,-1.0 C -2.5,1.7600000 -4.7400000,4.0 -7.5,4.0 C -10.260000,4.0 -12.5,1.7600000 -12.5,-1.0 C -12.5,-3.7600000 -10.260000,-6.0 -7.5,-6.0 C -4.7400000,-6.0 -2.5,-3.7600000 -2.5,-1.0 z "
         style="fill-rule:evenodd;stroke:#000000;stroke-width:1.0pt"
         transform="scale(0.4) translate(7.4, 1)" />
    </marker>
    <linearGradient
       osb:paint="solid"
       id="linearGradient5207">
      <stop
         id="stop5209"
         offset="0"
         style="stop-color:#000015;stop-opacity:1;" />
    </linearGradient>
    <clipPath
       id="clipPath3006-9-8"
       clipPathUnits="userSpaceOnUse">
      <path
         inkscape:export-ydpi="90"
         inkscape:export-xdpi="90"
         transform="matrix(1.2020779,0,0,1.2020779,-93.20363,-75.172465)"
         d="m 483,275.5 a 192.5,192.5 0 1 1 -385,0 192.5,192.5 0 1 1 385,0 z"
         sodipodi:ry="192.5"
         sodipodi:rx="192.5"
         sodipodi:cy="275.5"
         sodipodi:cx="290.5"
         id="path3008-1-1"
         style="fill:#ffffff;fill-opacity:1;stroke:none;display:inline"
         sodipodi:type="arc" />
    </clipPath>
    <mask
       id="mask3818-4"
       maskUnits="userSpaceOnUse">
      <path
         sodipodi:type="arc"
         style="fill:#ffffff;fill-opacity:1;stroke:none;display:inline"
         id="path3820-9"
         sodipodi:cx="290.5"
         sodipodi:cy="275.5"
         sodipodi:rx="192.5"
         sodipodi:ry="192.5"
         d="m 483,275.5 a 192.5,192.5 0 1 1 -385,0 192.5,192.5 0 1 1 385,0 z"
         transform="matrix(1.2020779,0,0,1.2020779,-93.20363,-75.172466)"
         inkscape:export-xdpi="90"
         inkscape:export-ydpi="90" />
    </mask>
    <clipPath
       id="clipPath3006"
       clipPathUnits="userSpaceOnUse">
      <path
         inkscape:export-ydpi="90"
         inkscape:export-xdpi="90"
         transform="matrix(1.2020779,0,0,1.2020779,-93.20363,-75.172465)"
         d="m 483,275.5 a 192.5,192.5 0 1 1 -385,0 192.5,192.5 0 1 1 385,0 z"
         sodipodi:ry="192.5"
         sodipodi:rx="192.5"
         sodipodi:cy="275.5"
         sodipodi:cx="290.5"
         id="path3008"
         style="fill:#ffffff;fill-opacity:1;stroke:none;display:inline"
         sodipodi:type="arc" />
    </clipPath>
    <clipPath
       id="clipPath3006-9"
       clipPathUnits="userSpaceOnUse">
      <path
         inkscape:export-ydpi="90"
         inkscape:export-xdpi="90"
         transform="matrix(1.2020779,0,0,1.2020779,-93.20363,-75.172465)"
         d="m 483,275.5 a 192.5,192.5 0 1 1 -385,0 192.5,192.5 0 1 1 385,0 z"
         sodipodi:ry="192.5"
         sodipodi:rx="192.5"
         sodipodi:cy="275.5"
         sodipodi:cx="290.5"
         id="path3008-1"
         style="fill:#ffffff;fill-opacity:1;stroke:none;display:inline"
         sodipodi:type="arc" />
    </clipPath>
    <mask
       maskUnits="userSpaceOnUse"
       id="mask3818-0">
      <path
         inkscape:export-ydpi="90"
         inkscape:export-xdpi="90"
         transform="matrix(1.2020779,0,0,1.2020779,-93.20363,-75.172466)"
         d="m 483,275.5 a 192.5,192.5 0 1 1 -385,0 192.5,192.5 0 1 1 385,0 z"
         sodipodi:ry="192.5"
         sodipodi:rx="192.5"
         sodipodi:cy="275.5"
         sodipodi:cx="290.5"
         id="path3820-8"
         style="fill:#ffffff;fill-opacity:1;stroke:none;display:inline"
         sodipodi:type="arc" />
    </mask>
    <mask
       maskUnits="userSpaceOnUse"
       id="mask3818-2">
      <path
         inkscape:export-ydpi="90"
         inkscape:export-xdpi="90"
         transform="matrix(1.2020779,0,0,1.2020779,-93.20363,-75.172466)"
         d="m 483,275.5 a 192.5,192.5 0 1 1 -385,0 192.5,192.5 0 1 1 385,0 z"
         sodipodi:ry="192.5"
         sodipodi:rx="192.5"
         sodipodi:cy="275.5"
         sodipodi:cx="290.5"
         id="path3820-2-2"
         style="fill:#ffffff;fill-opacity:1;stroke:none;display:inline"
         sodipodi:type="arc" />
    </mask>
    <clipPath
       id="clipPath3934"
       clipPathUnits="userSpaceOnUse">
      <path
         id="path3936"
         d="m 0,0 0,1024 1024,0 L 1024,0 0,0 z m 278.4375,333.84375 119.78125,0 c 9.83697,42.31453 19.85954,84.58596 29.9375,126.84375 9.86978,-42.28798 20.05132,-84.50237 29.6875,-126.84375 l 108.90625,0 c 9.63586,42.34141 19.8178,84.55578 29.6875,126.84375 10.07827,-42.25772 20.10031,-84.52927 29.9375,-126.84375 l 119.1875,0 c -26.26221,110.73099 -52.49625,221.46929 -78.28125,332.3125 l -122.8125,0 c -10.59439,-45.55681 -21.46638,-91.04874 -32.375,-136.53125 -10.66279,45.51136 -21.5615,90.96897 -32,136.53125 l -122.8125,0 c -25.71418,-110.03502 -52.0286,-219.92873 -78.25,-329.84375 l -0.59375,-2.46875 z"
         style="fill:#ff3232;fill-opacity:1;stroke:none"
         inkscape:connector-curvature="0" />
    </clipPath>
    <clipPath
       id="clipPath3929"
       clipPathUnits="userSpaceOnUse">
      <path
         inkscape:connector-curvature="0"
         style="fill:#ff3232;fill-opacity:1;stroke:none"
         d="m 0,0 0,1024 1024,0 L 1024,0 0,0 z m 278.4375,333.84375 119.78125,0 c 9.83697,42.31453 19.85954,84.58596 29.9375,126.84375 9.86978,-42.28798 20.05132,-84.50237 29.6875,-126.84375 l 108.90625,0 c 9.63586,42.34141 19.8178,84.55578 29.6875,126.84375 10.07827,-42.25772 20.10031,-84.52927 29.9375,-126.84375 l 119.1875,0 c -26.26221,110.73099 -52.49625,221.46929 -78.28125,332.3125 l -122.8125,0 c -10.59439,-45.55681 -21.46638,-91.04874 -32.375,-136.53125 -10.66279,45.51136 -21.5615,90.96897 -32,136.53125 l -122.8125,0 c -25.71418,-110.03502 -52.0286,-219.92873 -78.25,-329.84375 l -0.59375,-2.46875 z"
         id="path3931" />
    </clipPath>
    <mask
       maskUnits="userSpaceOnUse"
       id="mask3818">
      <path
         inkscape:export-ydpi="90"
         inkscape:export-xdpi="90"
         transform="matrix(1.2020779,0,0,1.2020779,-93.20363,-75.172466)"
         d="m 483,275.5 a 192.5,192.5 0 1 1 -385,0 192.5,192.5 0 1 1 385,0 z"
         sodipodi:ry="192.5"
         sodipodi:rx="192.5"
         sodipodi:cy="275.5"
         sodipodi:cx="290.5"
         id="path3820"
         style="fill:#ffffff;fill-opacity:1;stroke:none;display:inline"
         sodipodi:type="arc" />
    </mask>
    <linearGradient
       inkscape:collect="always"
       xlink:href="#linearGradient4573"
       id="linearGradient4575"
       x1="408.84314"
       y1="89.26915"
       x2="420.61133"
       y2="138.41306"
       gradientUnits="userSpaceOnUse"
       gradientTransform="matrix(0.99657796,0,0,1,1.2520606,0)" />
    <linearGradient
       inkscape:collect="always"
       xlink:href="#linearGradient8384"
       id="linearGradient6771"
       gradientUnits="userSpaceOnUse"
       gradientTransform="matrix(0.99657796,0,0,1,1.3692481,-0.00390625)"
       x1="408.84314"
       y1="89.26915"
       x2="420.61133"
       y2="138.41306" />
  </defs>
  <metadata
     id="metadata4713">
    <rdf:RDF>
      <cc:Work
         rdf:about="">
        <dc:format>image/svg+xml</dc:format>
        <dc:type
           rdf:resource="http://purl.org/dc/dcmitype/StillImage" />
        <dc:title></dc:title>
      </cc:Work>
    </rdf:RDF>
  </metadata>
  <g
     id="layer1"
     inkscape:groupmode="layer"
     inkscape:label="Capa 1">
    <path
       style="opacity:1;fill:#f9f8f6;fill-opacity:1;fill-rule:evenodd;stroke:#a18a77;stroke-width:2;stroke-linejoin:round;stroke-miterlimit:4;stroke-dasharray:none;stroke-dashoffset:0;stroke-opacity:1;paint-order:normal"
       d="m 97.583979,29.700195 c -11.07875,0 -19.99804,9.65194 -19.99804,21.64062 V 460.66113 c 0,11.9887 8.91929,21.63867 19.99804,21.63867 H 414.41602 c 11.07874,0 19.99804,-9.64997 19.99804,-21.63867 V 113.7959 c -0.33411,-0.32981 -0.46874,-0.43168 -0.81445,-0.77345 -9.64188,-9.53205 -23.80681,-23.701345 -37.64453,-37.822255 -6.91884,-7.06045 -13.75546,-14.10994 -19.9043,-20.56055 -6.14876,-6.45062 -11.60929,-12.30327 -15.77539,-16.97265 -3.0827,-3.45513 -4.82334,-5.68286 -6.625,-7.9668 z"
       id="path4506"
       inkscape:connector-curvature="0"
       sodipodi:nodetypes="ssssssccccccs" />
    <g
       id="g4584"
       transform="matrix(0.3829248,0,0,0.3829248,74.406719,31.973725)"
       style="fill:#75abd3;fill-opacity:1;stroke:#9dc4df;stroke-opacity:1" />
    <path
       style="opacity:1;fill:#a18a77;fill-opacity:1;fill-rule:evenodd;stroke:#dad2cb;stroke-width:0.851;stroke-linecap:square;stroke-linejoin:miter;stroke-miterlimit:4;stroke-dasharray:none;stroke-dashoffset:0;stroke-opacity:1;paint-order:markers fill stroke"
       d="M 126.86914 380.81641 C 121.84703 380.81641 117.66057 381.0268 114.3125 381.44531 C 111.03418 381.79407 108.59257 382.072 106.98828 382.28125 L 106.98828 456.98633 C 110.61536 457.61409 113.65049 457.92773 116.0918 457.92773 C 117.34732 457.92773 118.70709 457.85825 120.17188 457.71875 C 121.63666 457.57925 123.2763 457.33509 125.08984 456.98633 L 125.08984 432.60742 C 125.64786 432.74692 126.58878 432.88784 127.91406 433.02734 C 129.30909 433.0971 130.66886 433.13086 131.99414 433.13086 C 135.34222 433.13086 138.58579 432.71202 141.72461 431.875 C 144.93318 431.03798 147.75791 429.6425 150.19922 427.68945 C 152.71027 425.73641 154.69928 423.12207 156.16406 419.84375 C 157.6986 416.56543 158.46484 412.45041 158.46484 407.49805 C 158.46484 401.91792 157.52392 397.38406 155.64062 393.89648 C 153.75733 390.40891 151.28196 387.72314 148.21289 385.83984 C 145.21357 383.8868 141.82908 382.5608 138.0625 381.86328 C 134.29592 381.16577 130.56597 380.81641 126.86914 380.81641 z M 177.50195 381.44531 C 176.31618 381.44531 174.95446 381.51479 173.41992 381.6543 C 171.88539 381.7938 170.17821 382.00224 168.29492 382.28125 L 168.29492 457.30078 L 210.98242 457.30078 C 211.33118 455.48724 211.53962 453.95279 211.60938 452.69727 C 211.74888 451.37199 211.81836 450.11546 211.81836 448.92969 C 211.81836 447.88341 211.74888 446.73209 211.60938 445.47656 C 211.53962 444.15128 211.33118 442.61684 210.98242 440.87305 L 186.8125 440.87305 L 186.8125 382.28125 C 184.99896 382.00224 183.28983 381.7938 181.68555 381.6543 C 180.15101 381.51479 178.75748 381.44531 177.50195 381.44531 z M 126.76367 396.40625 L 128.22852 396.40625 C 129.76305 396.40625 131.22802 396.58093 132.62305 396.92969 C 134.01808 397.27845 135.23888 397.90573 136.28516 398.8125 C 137.33143 399.64952 138.13339 400.80084 138.69141 402.26562 C 139.31917 403.66066 139.63281 405.4055 139.63281 407.49805 C 139.63281 411.05538 138.69189 413.70543 136.80859 415.44922 C 134.9253 417.19301 132.48369 418.06445 129.48438 418.06445 C 128.5776 418.06445 127.70616 418.03069 126.86914 417.96094 C 126.03212 417.89119 125.4386 417.78599 125.08984 417.64648 L 125.08984 396.51172 C 125.64786 396.44197 126.20566 396.40625 126.76367 396.40625 z "
       id="rect4610-3" />
    <path
       style="opacity:1;fill:url(#linearGradient6771);fill-opacity:1;fill-rule:evenodd;stroke:none;stroke-width:8.77774811;stroke-linecap:square;stroke-linejoin:miter;stroke-miterlimit:4;stroke-dasharray:none;stroke-dashoffset:0;stroke-opacity:1;paint-order:markers fill stroke"
       d="m 433.40658,182.37194 v -69.47028 c 0,-0.0394 -0.0309,-0.0705 -0.0703,-0.0705 h -67.33747 c 4.09851,4.50878 8.40749,9.2132 13.77948,14.86279 7.205,7.57734 15.21697,15.8602 23.32513,24.15489 11.13885,11.3951 20.83136,21.05949 30.30308,30.52302 z"
       id="path4566"
       inkscape:connector-curvature="0" />
    <g
       transform="translate(678.28571,382.14286)"
       inkscape:label="Layer 1"
       id="layer1-6"
       style="fill:#dad2cb;fill-opacity:1;stroke:#dad2cb;stroke-opacity:1">
      <path
         style="fill:#dad2cb;fill-opacity:1;stroke:#dad2cb;stroke-width:0.759;stroke-miterlimit:4;stroke-dasharray:none;stroke-opacity:1"
         d="m -461.4432,-269.76321 c -3.706,0.62084 -6.886,2.56775 -10.381,3.72829 -7.385,4.74618 -13.319,12.03418 -14.84,20.81014 -4.623,14.84807 -18.215,24.6089 -22.962,39.33222 -3.908,9.44184 -10.905,16.88084 -17.44,24.4628 -4.503,5.62271 -4.01,13.16375 -5.994,19.73795 -1.983,1.78893 -3.391,5.89152 0.317,6.33564 -0.101,3.34271 -2.391,7.06315 0.02,10.25887 1.876,6.9818 5.194,13.6669 8.48,20.1278 0.653,2.3534 4.676,5.0844 5.288,1.2915 0.489,-5.4123 2.831,-11.8459 -0.975,-16.61883 -2.438,-6.12017 -0.432,-12.58126 0.707,-18.69015 -0.551,-3.7688 0.794,-8.06975 2.827,-11.063 2.098,1.13011 1.384,4.92412 2.216,6.95976 2.005,14.64361 2.612,29.86922 -1.096,44.31022 -1.38,5.6574 0.889,11.6453 -0.438,17.2037 -4.763,5.174503 -1.074,12.604203 -0.658,18.617003 2.314,11.1561 1.047,22.7437 -2.291,33.4083 -0.07,3.8299 -1.413,7.3261 -2.217,10.99 1.334,4.6084 7.669,6.2281 11.891,5.1416 2.629,-1.7739 7.641,1.607 8.895,-2.6074 0.38,-4.5752 -4.091,-7.9971 -3.729,-12.647 -2.786,-12.7548 -4.88,-26.0419 -2.173,-39.05 1.395,-7.5559 0.849,-15.636203 2.977,-22.917403 4.697,-5.8964 7.915,-12.8713 9.918,-20.1765 2.792,-6.07162 4.521,-13.44671 6.214,-19.22628 7.29,11.71789 11.671,25.75888 9.765,39.74198 0.246,5.4541 -3.165,11.843103 1.418,16.149703 5.556,8.6917 12.569,16.8884 15.378,26.9102 0.223,4.1902 -5.425,4.2569 -6.921,7.6516 -3.317,4.8236 -2.966,10.9687 -3.338,16.5458 3.132,1.216 7.73,4.4531 10.381,0.5604 2.588,-2.7295 3.691,-7.5038 6.384,-9.601 1.66,3.1427 0.112,8.2341 4.386,9.7717 6.133,2.1991 13.207,2.8104 19.568,1.2914 3.267,-2.8338 -1.201,-6.8301 -3.972,-7.9196 -4.597,-1.3615 -7.296,-4.9451 -8.87,-9.2841 -1.445,-2.3968 -2.478,-5.1984 0.341,-7.0423 6.633,-8.0468 15.759,-13.3739 22.784,-20.9076 4.239,-5.8891 3.122,-14.091303 1.511,-20.737103 -1.987,-3.8768 -3.423,-7.9454 -2.34,-12.3545 0.739,-3.7951 -1.864,-7.7156 -1.705,-11.0874 3.718,-0.241 8.064,-0.1058 11.38,1.1453 0.899,5.9997 -0.435,12.3973 1.291,18.2028 2.815,2.6879 4.148,6.9338 4.337,10.795 2.629,3.234403 0.969,7.991803 1.682,11.940203 -1.682,6.4327 0.71,12.7791 2.68,18.8851 3.606,11.6187 2.081,24.142 5.166,35.7964 2.344,3.3096 -1.587,8.8338 2.998,11.0144 7.091,2.6496 16.591,3.4082 22.637,-1.9251 1.843,-3.6828 -3.596,-5.7992 -6.214,-6.9693 -3.678,-0.8001 -6.469,-3.37 -7.25,-7.1749 -5.596,-11.5464 -8.328,-24.4969 -6.373,-37.3649 0.285,-6.2007 1.136,-12.3313 2.731,-18.2318 0.749,-6.031403 0.844,-12.232603 2.607,-17.959103 1.037,-8.0699 -0.722,-16.5721 1.536,-24.41659 3.65,2.31879 7.565,4.66409 11.891,4.99539 2.812,2.1326 5.833,0.01 7.359,-2.5586 2.256,-3.09866 4.967,5.1776 7.03,0.9811 2.559,-2.9014 5.86,-4.97194 8.761,-7.24364 1.644,-2.67918 5.018,-2.59728 7.383,-3.82576 1.642,-2.14531 -1.059,-5.53839 1.974,-7.18851 1.034,-2.74768 3.671,0.87492 4.873,-1.73012 1.278,-2.8337 1.074,-6.73678 4.484,-7.96828 6.191,-4.91704 4.338,-13.8842 5.446,-20.83219 -0.07,-6.92923 1.301,-14.27195 -0.393,-20.94985 -1.985,-5.28567 -5.248,-10.65907 -6.564,-15.92102 6.034,-4.81573 16.706,-0.8245 20.81,-8.74806 1.779,-5.79657 -3.816,-10.74549 -7.505,-14.42576 -3.588,-3.3806 -9.246,-1.77063 -13.633,-3.43268 -3.405,-1.15512 -8.699,0.12364 -9.589,-4.51124 -1.428,-3.66465 -5.896,-3.63514 -8.286,-6.40874 -3.826,-1.97001 -7.297,2.53208 -11.063,2.89977 -4.191,2.92595 -8.995,5.77992 -11.672,10.23449 -1.145,2.9051 -0.155,6.69918 -3.289,8.50438 -5.23,6.01309 -3.034,14.93319 -3.534,22.24785 0.07,3.34189 -0.02,6.72584 1.877,9.45473 0.287,4.10098 4.016,6.79261 3.352,11.01413 -0.521,2.77204 1.918,8.69135 -2.67,7.40795 -1.397,-2.33103 -1.189,-6.29637 -2.49,-9.03195 -3.837,-11.79747 -9.651,-24.5835 -21.269,-30.49269 -8.195,-6.00224 -14.045,-14.72574 -17.447,-24.19727 -3.218,-4.80528 -9.142,-7.76568 -11.672,-12.96369 -3.326,-1.41653 -7.34,-0.92632 -10.649,-2.77795 -4.109,-1.82298 -7.825,-5.12371 -12.744,-4.54096 -3.244,0.2387 -6.235,-0.89194 -9.309,-1.13675 z m 5.995,132.34178 c 2.842,0.94383 1.965,5.37233 2.997,7.67583 1.331,3.2326 0.206,8.9674 3.972,10.6001 2.125,3.5175 0.807,8.2771 2.948,11.526 -0.495,2.3058 -1.248,6.6143 2.34,6.6767 3.217,-0.2782 4.098,3.317103 6.36,4.922303 2.092,2.9261 4.429,7.0725 1.194,10.1615 -3.137,3.806 -5.285,9.7813 -11.063,9.942 -2.381,0.2557 -5.67,3.9639 -6.75,0.1462 -4.118,-6.9481 -7.621,-14.3431 -6.823,-22.6133 0.06,-12.986403 3.02,-25.746603 4.508,-38.549973 -0.07,-0.35849 0.05,-0.51016 0.317,-0.48736 z"
         id="path2997"
         inkscape:connector-curvature="0" />
    </g>
    <path
       style="opacity:1;fill:#a18a77;fill-opacity:1;fill-rule:evenodd;stroke:none;stroke-width:1.05391276;stroke-linejoin:round;stroke-miterlimit:4;stroke-dasharray:none;stroke-dashoffset:0;stroke-opacity:1;paint-order:normal"
       d="m 435.00048,114.60612 c -1.83541,-2.30475 -3.6077,-4.55306 -6.74972,-8.04125 -4.24635,-4.71409 -9.8132,-10.623129 -16.08223,-17.137261 C 405.8996,82.913483 398.92921,75.794273 391.8744,68.663457 377.76477,54.401804 363.32068,40.090503 353.48814,30.462087 c -0.35278,-0.345219 -0.4898,-0.448268 -0.83055,-0.781422 l -0.24394,62.802323 c -0.0467,12.055462 9.04538,21.800782 20.38588,21.850482 z"
       id="rect4485"
       inkscape:connector-curvature="0" />
  </g>
</svg>
