<?xml version="1.0" encoding="UTF-8" standalone="no"?>
<!-- Created with Inkscape (http://www.inkscape.org/) -->

<svg
   xmlns:osb="http://www.openswatchbook.org/uri/2009/osb"
   xmlns:dc="http://purl.org/dc/elements/1.1/"
   xmlns:cc="http://creativecommons.org/ns#"
   xmlns:rdf="http://www.w3.org/1999/02/22-rdf-syntax-ns#"
   xmlns:svg="http://www.w3.org/2000/svg"
   xmlns="http://www.w3.org/2000/svg"
   xmlns:xlink="http://www.w3.org/1999/xlink"
   xmlns:sodipodi="http://sodipodi.sourceforge.net/DTD/sodipodi-0.dtd"
   xmlns:inkscape="http://www.inkscape.org/namespaces/inkscape"
   width="512px"
   height="512px"
   viewBox="0 0 512 512"
   version="1.1"
   id="SVGRoot"
   inkscape:version="0.92.1 r15371"
   sodipodi:docname="po.svg">
  <sodipodi:namedview
     id="base"
     pagecolor="#ffffff"
     bordercolor="#666666"
     borderopacity="1.0"
     inkscape:pageopacity="0.0"
     inkscape:pageshadow="2"
     inkscape:zoom="0.70710678"
     inkscape:cx="536.09632"
     inkscape:cy="201.92017"
     inkscape:document-units="px"
     inkscape:current-layer="layer1"
     showgrid="false"
     inkscape:window-width="1280"
     inkscape:window-height="947"
     inkscape:window-x="0"
     inkscape:window-y="0"
     inkscape:window-maximized="1" />
  <defs
     id="defs4710">
    <linearGradient
       id="linearGradient8384"
       inkscape:collect="always">
      <stop
         id="stop8380"
         offset="0"
         style="stop-color:#181818;stop-opacity:0.62365592" />
      <stop
         id="stop8382"
         offset="1"
         style="stop-color:#404040;stop-opacity:0" />
    </linearGradient>
    <linearGradient
       inkscape:collect="always"
       id="linearGradient4573">
      <stop
         style="stop-color:#181818;stop-opacity:0.30645162"
         offset="0"
         id="stop4569" />
      <stop
         style="stop-color:#404040;stop-opacity:0"
         offset="1"
         id="stop4571" />
    </linearGradient>
    <marker
       inkscape:stockid="DotM"
       orient="auto"
       refY="0.0"
       refX="0.0"
       id="DotM"
       style="overflow:visible"
       inkscape:isstock="true">
      <path
         id="path4618"
         d="M -2.5,-1.0 C -2.5,1.7600000 -4.7400000,4.0 -7.5,4.0 C -10.260000,4.0 -12.5,1.7600000 -12.5,-1.0 C -12.5,-3.7600000 -10.260000,-6.0 -7.5,-6.0 C -4.7400000,-6.0 -2.5,-3.7600000 -2.5,-1.0 z "
         style="fill-rule:evenodd;stroke:#000000;stroke-width:1.0pt"
         transform="scale(0.4) translate(7.4, 1)" />
    </marker>
    <linearGradient
       osb:paint="solid"
       id="linearGradient5207">
      <stop
         id="stop5209"
         offset="0"
         style="stop-color:#000015;stop-opacity:1;" />
    </linearGradient>
    <clipPath
       id="clipPath3006-9-8"
       clipPathUnits="userSpaceOnUse">
      <path
         inkscape:export-ydpi="90"
         inkscape:export-xdpi="90"
         transform="matrix(1.2020779,0,0,1.2020779,-93.20363,-75.172465)"
         d="m 483,275.5 a 192.5,192.5 0 1 1 -385,0 192.5,192.5 0 1 1 385,0 z"
         sodipodi:ry="192.5"
         sodipodi:rx="192.5"
         sodipodi:cy="275.5"
         sodipodi:cx="290.5"
         id="path3008-1-1"
         style="fill:#ffffff;fill-opacity:1;stroke:none;display:inline"
         sodipodi:type="arc" />
    </clipPath>
    <mask
       id="mask3818-4"
       maskUnits="userSpaceOnUse">
      <path
         sodipodi:type="arc"
         style="fill:#ffffff;fill-opacity:1;stroke:none;display:inline"
         id="path3820-9"
         sodipodi:cx="290.5"
         sodipodi:cy="275.5"
         sodipodi:rx="192.5"
         sodipodi:ry="192.5"
         d="m 483,275.5 a 192.5,192.5 0 1 1 -385,0 192.5,192.5 0 1 1 385,0 z"
         transform="matrix(1.2020779,0,0,1.2020779,-93.20363,-75.172466)"
         inkscape:export-xdpi="90"
         inkscape:export-ydpi="90" />
    </mask>
    <clipPath
       id="clipPath3006"
       clipPathUnits="userSpaceOnUse">
      <path
         inkscape:export-ydpi="90"
         inkscape:export-xdpi="90"
         transform="matrix(1.2020779,0,0,1.2020779,-93.20363,-75.172465)"
         d="m 483,275.5 a 192.5,192.5 0 1 1 -385,0 192.5,192.5 0 1 1 385,0 z"
         sodipodi:ry="192.5"
         sodipodi:rx="192.5"
         sodipodi:cy="275.5"
         sodipodi:cx="290.5"
         id="path3008"
         style="fill:#ffffff;fill-opacity:1;stroke:none;display:inline"
         sodipodi:type="arc" />
    </clipPath>
    <clipPath
       id="clipPath3006-9"
       clipPathUnits="userSpaceOnUse">
      <path
         inkscape:export-ydpi="90"
         inkscape:export-xdpi="90"
         transform="matrix(1.2020779,0,0,1.2020779,-93.20363,-75.172465)"
         d="m 483,275.5 a 192.5,192.5 0 1 1 -385,0 192.5,192.5 0 1 1 385,0 z"
         sodipodi:ry="192.5"
         sodipodi:rx="192.5"
         sodipodi:cy="275.5"
         sodipodi:cx="290.5"
         id="path3008-1"
         style="fill:#ffffff;fill-opacity:1;stroke:none;display:inline"
         sodipodi:type="arc" />
    </clipPath>
    <mask
       maskUnits="userSpaceOnUse"
       id="mask3818-0">
      <path
         inkscape:export-ydpi="90"
         inkscape:export-xdpi="90"
         transform="matrix(1.2020779,0,0,1.2020779,-93.20363,-75.172466)"
         d="m 483,275.5 a 192.5,192.5 0 1 1 -385,0 192.5,192.5 0 1 1 385,0 z"
         sodipodi:ry="192.5"
         sodipodi:rx="192.5"
         sodipodi:cy="275.5"
         sodipodi:cx="290.5"
         id="path3820-8"
         style="fill:#ffffff;fill-opacity:1;stroke:none;display:inline"
         sodipodi:type="arc" />
    </mask>
    <mask
       maskUnits="userSpaceOnUse"
       id="mask3818-2">
      <path
         inkscape:export-ydpi="90"
         inkscape:export-xdpi="90"
         transform="matrix(1.2020779,0,0,1.2020779,-93.20363,-75.172466)"
         d="m 483,275.5 a 192.5,192.5 0 1 1 -385,0 192.5,192.5 0 1 1 385,0 z"
         sodipodi:ry="192.5"
         sodipodi:rx="192.5"
         sodipodi:cy="275.5"
         sodipodi:cx="290.5"
         id="path3820-2-2"
         style="fill:#ffffff;fill-opacity:1;stroke:none;display:inline"
         sodipodi:type="arc" />
    </mask>
    <clipPath
       id="clipPath3934"
       clipPathUnits="userSpaceOnUse">
      <path
         id="path3936"
         d="m 0,0 0,1024 1024,0 L 1024,0 0,0 z m 278.4375,333.84375 119.78125,0 c 9.83697,42.31453 19.85954,84.58596 29.9375,126.84375 9.86978,-42.28798 20.05132,-84.50237 29.6875,-126.84375 l 108.90625,0 c 9.63586,42.34141 19.8178,84.55578 29.6875,126.84375 10.07827,-42.25772 20.10031,-84.52927 29.9375,-126.84375 l 119.1875,0 c -26.26221,110.73099 -52.49625,221.46929 -78.28125,332.3125 l -122.8125,0 c -10.59439,-45.55681 -21.46638,-91.04874 -32.375,-136.53125 -10.66279,45.51136 -21.5615,90.96897 -32,136.53125 l -122.8125,0 c -25.71418,-110.03502 -52.0286,-219.92873 -78.25,-329.84375 l -0.59375,-2.46875 z"
         style="fill:#ff3232;fill-opacity:1;stroke:none"
         inkscape:connector-curvature="0" />
    </clipPath>
    <clipPath
       id="clipPath3929"
       clipPathUnits="userSpaceOnUse">
      <path
         inkscape:connector-curvature="0"
         style="fill:#ff3232;fill-opacity:1;stroke:none"
         d="m 0,0 0,1024 1024,0 L 1024,0 0,0 z m 278.4375,333.84375 119.78125,0 c 9.83697,42.31453 19.85954,84.58596 29.9375,126.84375 9.86978,-42.28798 20.05132,-84.50237 29.6875,-126.84375 l 108.90625,0 c 9.63586,42.34141 19.8178,84.55578 29.6875,126.84375 10.07827,-42.25772 20.10031,-84.52927 29.9375,-126.84375 l 119.1875,0 c -26.26221,110.73099 -52.49625,221.46929 -78.28125,332.3125 l -122.8125,0 c -10.59439,-45.55681 -21.46638,-91.04874 -32.375,-136.53125 -10.66279,45.51136 -21.5615,90.96897 -32,136.53125 l -122.8125,0 c -25.71418,-110.03502 -52.0286,-219.92873 -78.25,-329.84375 l -0.59375,-2.46875 z"
         id="path3931" />
    </clipPath>
    <mask
       maskUnits="userSpaceOnUse"
       id="mask3818">
      <path
         inkscape:export-ydpi="90"
         inkscape:export-xdpi="90"
         transform="matrix(1.2020779,0,0,1.2020779,-93.20363,-75.172466)"
         d="m 483,275.5 a 192.5,192.5 0 1 1 -385,0 192.5,192.5 0 1 1 385,0 z"
         sodipodi:ry="192.5"
         sodipodi:rx="192.5"
         sodipodi:cy="275.5"
         sodipodi:cx="290.5"
         id="path3820"
         style="fill:#ffffff;fill-opacity:1;stroke:none;display:inline"
         sodipodi:type="arc" />
    </mask>
    <linearGradient
       inkscape:collect="always"
       xlink:href="#linearGradient4573"
       id="linearGradient4575"
       x1="408.84314"
       y1="89.26915"
       x2="420.61133"
       y2="138.41306"
       gradientUnits="userSpaceOnUse"
       gradientTransform="matrix(0.99657796,0,0,1,1.2520606,0)" />
    <linearGradient
       inkscape:collect="always"
       xlink:href="#linearGradient8384"
       id="linearGradient6771"
       gradientUnits="userSpaceOnUse"
       gradientTransform="matrix(0.99657796,0,0,1,1.3692481,-0.00390625)"
       x1="408.84314"
       y1="89.26915"
       x2="420.61133"
       y2="138.41306" />
  </defs>
  <metadata
     id="metadata4713">
    <rdf:RDF>
      <cc:Work
         rdf:about="">
        <dc:format>image/svg+xml</dc:format>
        <dc:type
           rdf:resource="http://purl.org/dc/dcmitype/StillImage" />
        <dc:title></dc:title>
      </cc:Work>
    </rdf:RDF>
  </metadata>
  <g
     id="layer1"
     inkscape:groupmode="layer"
     inkscape:label="Capa 1">
    <path
       style="opacity:1;fill:#f5f7f8;fill-opacity:1;fill-rule:evenodd;stroke:#779ba1;stroke-width:2;stroke-linejoin:round;stroke-miterlimit:4;stroke-dasharray:none;stroke-dashoffset:0;stroke-opacity:1;paint-order:normal"
       d="m 97.583979,29.700195 c -11.07875,0 -19.99804,9.65194 -19.99804,21.64062 V 460.66113 c 0,11.9887 8.91929,21.63867 19.99804,21.63867 H 414.41602 c 11.07874,0 19.99804,-9.64997 19.99804,-21.63867 V 113.7959 c -0.33411,-0.32981 -0.46874,-0.43168 -0.81445,-0.77345 -9.64188,-9.53205 -23.80681,-23.701345 -37.64453,-37.822255 -6.91884,-7.06045 -13.75546,-14.10994 -19.9043,-20.56055 -6.14876,-6.45062 -11.60929,-12.30327 -15.77539,-16.97265 -3.0827,-3.45513 -4.82334,-5.68286 -6.625,-7.9668 z"
       id="path4506"
       inkscape:connector-curvature="0"
       sodipodi:nodetypes="ssssssccccccs" />
    <g
       id="g4584"
       transform="matrix(0.3829248,0,0,0.3829248,74.406719,31.973725)"
       style="fill:#75abd3;fill-opacity:1;stroke:#9dc4df;stroke-opacity:1" />
    <path
       style="opacity:1;fill:#ccd7dc;fill-opacity:1;fill-rule:evenodd;stroke:#779ba1;stroke-width:0.851;stroke-linecap:square;stroke-linejoin:miter;stroke-miterlimit:4;stroke-dasharray:none;stroke-dashoffset:0;stroke-opacity:1;paint-order:markers fill stroke"
       d="M 126.86914 380.81641 C 121.84703 380.81641 117.66057 381.0268 114.3125 381.44531 C 111.03418 381.79407 108.59257 382.072 106.98828 382.28125 L 106.98828 456.98633 C 110.61536 457.61409 113.65049 457.92773 116.0918 457.92773 C 117.34732 457.92773 118.70709 457.85825 120.17188 457.71875 C 121.63666 457.57925 123.2763 457.33509 125.08984 456.98633 L 125.08984 432.60742 C 125.64786 432.74692 126.58878 432.88784 127.91406 433.02734 C 129.30909 433.0971 130.66886 433.13086 131.99414 433.13086 C 135.34222 433.13086 138.58579 432.71202 141.72461 431.875 C 144.93318 431.03798 147.75791 429.6425 150.19922 427.68945 C 152.71027 425.73641 154.69928 423.12207 156.16406 419.84375 C 157.6986 416.56543 158.46484 412.45041 158.46484 407.49805 C 158.46484 401.91792 157.52392 397.38406 155.64062 393.89648 C 153.75733 390.40891 151.28196 387.72314 148.21289 385.83984 C 145.21357 383.8868 141.82908 382.5608 138.0625 381.86328 C 134.29592 381.16577 130.56597 380.81641 126.86914 380.81641 z M 199.26367 380.81641 C 193.54404 380.81641 188.59134 381.82877 184.40625 383.85156 C 180.29091 385.80461 176.87265 388.52414 174.15234 392.01172 C 171.50178 395.4993 169.51473 399.65003 168.18945 404.46289 C 166.93393 409.206 166.30664 414.36714 166.30664 419.94727 C 166.30664 425.52739 166.93393 430.69049 168.18945 435.43359 C 169.51473 440.10695 171.50178 444.18625 174.15234 447.67383 C 176.87265 451.09165 180.29091 453.77743 184.40625 455.73047 C 188.59134 457.61376 193.54404 458.55469 199.26367 458.55469 C 204.9833 458.55469 209.90028 457.61376 214.01562 455.73047 C 218.13097 453.77743 221.51546 451.09165 224.16602 447.67383 C 226.88633 444.18625 228.87338 440.10695 230.12891 435.43359 C 231.45419 430.69049 232.11719 425.52739 232.11719 419.94727 C 232.11719 414.36714 231.45419 409.206 230.12891 404.46289 C 228.87338 399.65003 226.88633 395.4993 224.16602 392.01172 C 221.51546 388.52414 218.13097 385.80461 214.01562 383.85156 C 209.90028 381.82877 204.9833 380.81641 199.26367 380.81641 z M 126.76367 396.40625 L 128.22852 396.40625 C 129.76305 396.40625 131.22802 396.58093 132.62305 396.92969 C 134.01808 397.27845 135.23888 397.90573 136.28516 398.8125 C 137.33143 399.64952 138.13339 400.80084 138.69141 402.26562 C 139.31917 403.66066 139.63281 405.4055 139.63281 407.49805 C 139.63281 411.05538 138.69189 413.70543 136.80859 415.44922 C 134.9253 417.19301 132.48369 418.06445 129.48438 418.06445 C 128.5776 418.06445 127.70616 418.03069 126.86914 417.96094 C 126.03212 417.89119 125.4386 417.78599 125.08984 417.64648 L 125.08984 396.51172 C 125.64786 396.44197 126.20566 396.40625 126.76367 396.40625 z M 199.36914 397.13867 C 208.22759 397.13867 212.65625 404.74143 212.65625 419.94727 C 212.65625 435.0136 208.19187 442.54688 199.26367 442.54688 C 194.66007 442.54688 191.24182 440.69879 189.00977 437.00195 C 186.84747 433.23537 185.76758 427.55019 185.76758 419.94727 C 185.76758 404.74143 190.30144 397.13867 199.36914 397.13867 z "
       id="rect4610-3" />
    <path
       style="opacity:1;fill:url(#linearGradient6771);fill-opacity:1;fill-rule:evenodd;stroke:none;stroke-width:8.77774811;stroke-linecap:square;stroke-linejoin:miter;stroke-miterlimit:4;stroke-dasharray:none;stroke-dashoffset:0;stroke-opacity:1;paint-order:markers fill stroke"
       d="m 433.40658,182.37194 v -69.47028 c 0,-0.0394 -0.0309,-0.0705 -0.0703,-0.0705 h -67.33747 c 4.09851,4.50878 8.40749,9.2132 13.77948,14.86279 7.205,7.57734 15.21697,15.8602 23.32513,24.15489 11.13885,11.3951 20.83136,21.05949 30.30308,30.52302 z"
       id="path4566"
       inkscape:connector-curvature="0" />
    <path
       style="opacity:1;fill:#779ba1;fill-opacity:1;fill-rule:evenodd;stroke:none;stroke-width:1.05391276;stroke-linejoin:round;stroke-miterlimit:4;stroke-dasharray:none;stroke-dashoffset:0;stroke-opacity:1;paint-order:normal"
       d="m 435.00048,114.60612 c -1.83541,-2.30475 -3.6077,-4.55306 -6.74972,-8.04125 -4.24635,-4.71409 -9.8132,-10.623129 -16.08223,-17.137261 C 405.8996,82.913483 398.92921,75.794273 391.8744,68.663457 377.76477,54.401804 363.32068,40.090503 353.48814,30.462087 c -0.35278,-0.345219 -0.4898,-0.448268 -0.83055,-0.781422 l -0.24394,62.802323 c -0.0467,12.055462 9.04538,21.800782 20.38588,21.850482 z"
       id="rect4485"
       inkscape:connector-curvature="0" />
    <path
       id="path14"
       d="m 339.37355,212.30668 c 0,-2.18706 -0.78237,-4.06863 -2.33245,-5.61938 -1.55075,-1.55075 -3.43299,-2.33246 -5.61938,-2.33246 h -33.51616 -54.65504 c -2.18639,0 -4.06863,0.78171 -5.61938,2.33246 -1.55008,1.55075 -2.33246,3.43232 -2.33246,5.61938 v 59.88955 13.79599 c 0,2.18706 0.78238,4.06863 2.33246,5.61938 1.55075,1.55075 3.43299,2.33246 5.61938,2.33246 h 41.85286 l 26.78359,26.78426 c 1.24594,1.24593 2.75666,1.8689 4.5195,1.8689 1.7622,0 3.27292,-0.62297 4.51886,-1.8689 1.24593,-1.24594 1.8689,-2.75667 1.8689,-4.51952 v -22.26474 h 8.62749 c 2.18639,0 4.06863,-0.78171 5.61938,-2.33246 1.55008,-1.55075 2.33245,-3.43232 2.33245,-5.61938 z m -77.91359,44.72824 c -2.53121,0 -4.67825,-0.9011 -6.46712,-2.68996 -1.78953,-1.78953 -2.67728,-3.93657 -2.67728,-6.46779 0,-2.51788 0.88775,-4.67825 2.67728,-6.46712 1.78887,-1.78953 3.9359,-2.67729 6.46712,-2.67729 2.53122,0 4.67827,0.88776 6.46713,2.67729 1.78953,1.78887 2.67728,3.94924 2.67728,6.46712 0,2.53122 -0.88775,4.67826 -2.67728,6.46779 -1.78886,1.78886 -3.9359,2.68996 -6.46713,2.68996 z m 35.12028,-9.15775 c 0,2.53122 -0.9011,4.67826 -2.69063,6.46779 -1.78886,1.78886 -3.9359,2.68996 -6.45378,2.68996 -2.53189,0 -4.6916,-0.9011 -6.48113,-2.68996 -1.78886,-1.78953 -2.67662,-3.93657 -2.67662,-6.46779 0,-2.51788 0.88776,-4.67825 2.67662,-6.46712 1.78953,-1.78953 3.94924,-2.67729 6.48113,-2.67729 2.51788,0 4.66492,0.88776 6.45378,2.67729 1.78953,1.78887 2.69063,3.94924 2.69063,6.46712 z m 25.9752,0 c 0,2.53122 -0.90111,4.67826 -2.68996,6.46779 -1.78953,1.78886 -3.93657,2.68996 -6.46779,2.68996 -2.51788,0 -4.67826,-0.9011 -6.46712,-2.68996 -1.78953,-1.78953 -2.67729,-3.93657 -2.67729,-6.46779 0,-2.51788 0.88776,-4.67825 2.67729,-6.46712 1.78886,-1.78953 3.94924,-2.67729 6.46712,-2.67729 2.53122,0 4.67826,0.88776 6.46779,2.67729 1.78885,1.78887 2.68996,3.94924 2.68996,6.46712 z"
       inkscape:connector-curvature="0"
       style="fill:#ccd7dc;fill-opacity:1;stroke-width:0.49353752" />
    <path
       id="path15"
       d="m 261.45996,257.03492 c 2.53122,0 4.67827,-0.9011 6.46713,-2.68996 1.78953,-1.78953 2.67728,-3.93657 2.67728,-6.46779 0,-2.51788 -0.88775,-4.67825 -2.67728,-6.46712 -1.78886,-1.78953 -3.9359,-2.67729 -6.46713,-2.67729 -2.53121,0 -4.67825,0.88776 -6.46712,2.67729 -1.78953,1.78887 -2.67728,3.94924 -2.67728,6.46712 0,2.53122 0.88775,4.67826 2.67728,6.46779 1.78887,1.78886 3.9359,2.68996 6.46712,2.68996 z"
       inkscape:connector-curvature="0"
       style="fill:#779ba1;fill-opacity:1;stroke-width:0.49353752" />
    <path
       id="path16"
       d="m 296.58024,247.87717 c 0,-2.51788 -0.9011,-4.67825 -2.69063,-6.46712 -1.78886,-1.78953 -3.9359,-2.67729 -6.45378,-2.67729 -2.53189,0 -4.6916,0.88776 -6.48113,2.67729 -1.78886,1.78887 -2.67662,3.94924 -2.67662,6.46712 0,2.53122 0.88776,4.67826 2.67662,6.46779 1.78953,1.78886 3.94924,2.68996 6.48113,2.68996 2.51788,0 4.66492,-0.9011 6.45378,-2.68996 1.78953,-1.78953 2.69063,-3.93657 2.69063,-6.46779 z"
       inkscape:connector-curvature="0"
       style="fill:#779ba1;fill-opacity:1;stroke-width:0.49353752" />
    <path
       id="path17"
       d="m 322.55544,247.87717 c 0,-2.51788 -0.90111,-4.67825 -2.68996,-6.46712 -1.78953,-1.78953 -3.93657,-2.67729 -6.46779,-2.67729 -2.51788,0 -4.67826,0.88776 -6.46712,2.67729 -1.78953,1.78887 -2.67729,3.94924 -2.67729,6.46712 0,2.53122 0.88776,4.67826 2.67729,6.46779 1.78886,1.78886 3.94924,2.68996 6.46712,2.68996 2.53122,0 4.67826,-0.9011 6.46779,-2.68996 1.78885,-1.78953 2.68996,-3.93657 2.68996,-6.46779 z"
       inkscape:connector-curvature="0"
       style="fill:#f5f7f8;fill-opacity:1;stroke-width:0.49353752" />
    <path
       id="path18"
       d="m 297.90555,169.35395 c 0,-2.18639 -0.78238,-4.06863 -2.33246,-5.61871 -1.55075,-1.55075 -3.43299,-2.33246 -5.61938,-2.33246 H 180.57827 c -2.18705,0 -4.06863,0.78171 -5.61938,2.33246 -1.55074,1.55008 -2.33245,3.43232 -2.33245,5.61871 v 94.89045 c 0,2.18705 0.78171,4.06863 2.33245,5.61938 1.55075,1.55074 3.43233,2.33245 5.61938,2.33245 h 8.62751 v 22.26475 c 0,1.76285 0.62297,3.27358 1.86824,4.51951 1.24593,1.24527 2.75666,1.86824 4.5195,1.86824 1.76285,0 3.27359,-0.62297 4.51886,-1.86824 l 26.78425,-26.78426 h 8.40205 v -59.88955 c 0,-2.18706 0.78238,-4.06863 2.33246,-5.61938 1.55075,-1.55075 3.43299,-2.33246 5.61938,-2.33246 h 54.65504 z"
       inkscape:connector-curvature="0"
       style="fill:#779ba1;fill-opacity:1;stroke:none;stroke-width:0.49353752" />
  </g>
</svg>
