<?xml version="1.0" encoding="UTF-8" standalone="no"?>
<!-- Created with Inkscape (http://www.inkscape.org/) -->

<svg
   xmlns:osb="http://www.openswatchbook.org/uri/2009/osb"
   xmlns:dc="http://purl.org/dc/elements/1.1/"
   xmlns:cc="http://creativecommons.org/ns#"
   xmlns:rdf="http://www.w3.org/1999/02/22-rdf-syntax-ns#"
   xmlns:svg="http://www.w3.org/2000/svg"
   xmlns="http://www.w3.org/2000/svg"
   xmlns:xlink="http://www.w3.org/1999/xlink"
   xmlns:sodipodi="http://sodipodi.sourceforge.net/DTD/sodipodi-0.dtd"
   xmlns:inkscape="http://www.inkscape.org/namespaces/inkscape"
   width="512px"
   height="512px"
   viewBox="0 0 512 512"
   version="1.1"
   id="SVGRoot"
   inkscape:version="0.92.1 r15371"
   sodipodi:docname="ppt.svg">
  <sodipodi:namedview
     id="base"
     pagecolor="#ffffff"
     bordercolor="#666666"
     borderopacity="1.0"
     inkscape:pageopacity="0.0"
     inkscape:pageshadow="2"
     inkscape:zoom="1"
     inkscape:cx="269.81511"
     inkscape:cy="345.30428"
     inkscape:document-units="px"
     inkscape:current-layer="layer1"
     showgrid="false"
     inkscape:window-width="1280"
     inkscape:window-height="947"
     inkscape:window-x="0"
     inkscape:window-y="0"
     inkscape:window-maximized="1" />
  <defs
     id="defs4710">
    <linearGradient
       id="linearGradient8384"
       inkscape:collect="always">
      <stop
         id="stop8380"
         offset="0"
         style="stop-color:#181818;stop-opacity:0.27956989" />
      <stop
         id="stop8382"
         offset="1"
         style="stop-color:#404040;stop-opacity:0" />
    </linearGradient>
    <linearGradient
       inkscape:collect="always"
       id="linearGradient4573">
      <stop
         style="stop-color:#181818;stop-opacity:0.30645162"
         offset="0"
         id="stop4569" />
      <stop
         style="stop-color:#404040;stop-opacity:0"
         offset="1"
         id="stop4571" />
    </linearGradient>
    <marker
       inkscape:stockid="DotM"
       orient="auto"
       refY="0.0"
       refX="0.0"
       id="DotM"
       style="overflow:visible"
       inkscape:isstock="true">
      <path
         id="path4618"
         d="M -2.5,-1.0 C -2.5,1.7600000 -4.7400000,4.0 -7.5,4.0 C -10.260000,4.0 -12.5,1.7600000 -12.5,-1.0 C -12.5,-3.7600000 -10.260000,-6.0 -7.5,-6.0 C -4.7400000,-6.0 -2.5,-3.7600000 -2.5,-1.0 z "
         style="fill-rule:evenodd;stroke:#000000;stroke-width:1.0pt"
         transform="scale(0.4) translate(7.4, 1)" />
    </marker>
    <linearGradient
       osb:paint="solid"
       id="linearGradient5207">
      <stop
         id="stop5209"
         offset="0"
         style="stop-color:#000015;stop-opacity:1;" />
    </linearGradient>
    <clipPath
       id="clipPath3006-9-8"
       clipPathUnits="userSpaceOnUse">
      <path
         inkscape:export-ydpi="90"
         inkscape:export-xdpi="90"
         transform="matrix(1.2020779,0,0,1.2020779,-93.20363,-75.172465)"
         d="m 483,275.5 a 192.5,192.5 0 1 1 -385,0 192.5,192.5 0 1 1 385,0 z"
         sodipodi:ry="192.5"
         sodipodi:rx="192.5"
         sodipodi:cy="275.5"
         sodipodi:cx="290.5"
         id="path3008-1-1"
         style="fill:#ffffff;fill-opacity:1;stroke:none;display:inline"
         sodipodi:type="arc" />
    </clipPath>
    <mask
       id="mask3818-4"
       maskUnits="userSpaceOnUse">
      <path
         sodipodi:type="arc"
         style="fill:#ffffff;fill-opacity:1;stroke:none;display:inline"
         id="path3820-9"
         sodipodi:cx="290.5"
         sodipodi:cy="275.5"
         sodipodi:rx="192.5"
         sodipodi:ry="192.5"
         d="m 483,275.5 a 192.5,192.5 0 1 1 -385,0 192.5,192.5 0 1 1 385,0 z"
         transform="matrix(1.2020779,0,0,1.2020779,-93.20363,-75.172466)"
         inkscape:export-xdpi="90"
         inkscape:export-ydpi="90" />
    </mask>
    <clipPath
       id="clipPath3006"
       clipPathUnits="userSpaceOnUse">
      <path
         inkscape:export-ydpi="90"
         inkscape:export-xdpi="90"
         transform="matrix(1.2020779,0,0,1.2020779,-93.20363,-75.172465)"
         d="m 483,275.5 a 192.5,192.5 0 1 1 -385,0 192.5,192.5 0 1 1 385,0 z"
         sodipodi:ry="192.5"
         sodipodi:rx="192.5"
         sodipodi:cy="275.5"
         sodipodi:cx="290.5"
         id="path3008"
         style="fill:#ffffff;fill-opacity:1;stroke:none;display:inline"
         sodipodi:type="arc" />
    </clipPath>
    <clipPath
       id="clipPath3006-9"
       clipPathUnits="userSpaceOnUse">
      <path
         inkscape:export-ydpi="90"
         inkscape:export-xdpi="90"
         transform="matrix(1.2020779,0,0,1.2020779,-93.20363,-75.172465)"
         d="m 483,275.5 a 192.5,192.5 0 1 1 -385,0 192.5,192.5 0 1 1 385,0 z"
         sodipodi:ry="192.5"
         sodipodi:rx="192.5"
         sodipodi:cy="275.5"
         sodipodi:cx="290.5"
         id="path3008-1"
         style="fill:#ffffff;fill-opacity:1;stroke:none;display:inline"
         sodipodi:type="arc" />
    </clipPath>
    <mask
       maskUnits="userSpaceOnUse"
       id="mask3818-0">
      <path
         inkscape:export-ydpi="90"
         inkscape:export-xdpi="90"
         transform="matrix(1.2020779,0,0,1.2020779,-93.20363,-75.172466)"
         d="m 483,275.5 a 192.5,192.5 0 1 1 -385,0 192.5,192.5 0 1 1 385,0 z"
         sodipodi:ry="192.5"
         sodipodi:rx="192.5"
         sodipodi:cy="275.5"
         sodipodi:cx="290.5"
         id="path3820-8"
         style="fill:#ffffff;fill-opacity:1;stroke:none;display:inline"
         sodipodi:type="arc" />
    </mask>
    <mask
       maskUnits="userSpaceOnUse"
       id="mask3818-2">
      <path
         inkscape:export-ydpi="90"
         inkscape:export-xdpi="90"
         transform="matrix(1.2020779,0,0,1.2020779,-93.20363,-75.172466)"
         d="m 483,275.5 a 192.5,192.5 0 1 1 -385,0 192.5,192.5 0 1 1 385,0 z"
         sodipodi:ry="192.5"
         sodipodi:rx="192.5"
         sodipodi:cy="275.5"
         sodipodi:cx="290.5"
         id="path3820-2-2"
         style="fill:#ffffff;fill-opacity:1;stroke:none;display:inline"
         sodipodi:type="arc" />
    </mask>
    <clipPath
       id="clipPath3934"
       clipPathUnits="userSpaceOnUse">
      <path
         id="path3936"
         d="m 0,0 0,1024 1024,0 L 1024,0 0,0 z m 278.4375,333.84375 119.78125,0 c 9.83697,42.31453 19.85954,84.58596 29.9375,126.84375 9.86978,-42.28798 20.05132,-84.50237 29.6875,-126.84375 l 108.90625,0 c 9.63586,42.34141 19.8178,84.55578 29.6875,126.84375 10.07827,-42.25772 20.10031,-84.52927 29.9375,-126.84375 l 119.1875,0 c -26.26221,110.73099 -52.49625,221.46929 -78.28125,332.3125 l -122.8125,0 c -10.59439,-45.55681 -21.46638,-91.04874 -32.375,-136.53125 -10.66279,45.51136 -21.5615,90.96897 -32,136.53125 l -122.8125,0 c -25.71418,-110.03502 -52.0286,-219.92873 -78.25,-329.84375 l -0.59375,-2.46875 z"
         style="fill:#ff3232;fill-opacity:1;stroke:none"
         inkscape:connector-curvature="0" />
    </clipPath>
    <clipPath
       id="clipPath3929"
       clipPathUnits="userSpaceOnUse">
      <path
         inkscape:connector-curvature="0"
         style="fill:#ff3232;fill-opacity:1;stroke:none"
         d="m 0,0 0,1024 1024,0 L 1024,0 0,0 z m 278.4375,333.84375 119.78125,0 c 9.83697,42.31453 19.85954,84.58596 29.9375,126.84375 9.86978,-42.28798 20.05132,-84.50237 29.6875,-126.84375 l 108.90625,0 c 9.63586,42.34141 19.8178,84.55578 29.6875,126.84375 10.07827,-42.25772 20.10031,-84.52927 29.9375,-126.84375 l 119.1875,0 c -26.26221,110.73099 -52.49625,221.46929 -78.28125,332.3125 l -122.8125,0 c -10.59439,-45.55681 -21.46638,-91.04874 -32.375,-136.53125 -10.66279,45.51136 -21.5615,90.96897 -32,136.53125 l -122.8125,0 c -25.71418,-110.03502 -52.0286,-219.92873 -78.25,-329.84375 l -0.59375,-2.46875 z"
         id="path3931" />
    </clipPath>
    <mask
       maskUnits="userSpaceOnUse"
       id="mask3818">
      <path
         inkscape:export-ydpi="90"
         inkscape:export-xdpi="90"
         transform="matrix(1.2020779,0,0,1.2020779,-93.20363,-75.172466)"
         d="m 483,275.5 a 192.5,192.5 0 1 1 -385,0 192.5,192.5 0 1 1 385,0 z"
         sodipodi:ry="192.5"
         sodipodi:rx="192.5"
         sodipodi:cy="275.5"
         sodipodi:cx="290.5"
         id="path3820"
         style="fill:#ffffff;fill-opacity:1;stroke:none;display:inline"
         sodipodi:type="arc" />
    </mask>
    <linearGradient
       inkscape:collect="always"
       xlink:href="#linearGradient4573"
       id="linearGradient4575"
       x1="408.84314"
       y1="89.26915"
       x2="420.61133"
       y2="138.41306"
       gradientUnits="userSpaceOnUse"
       gradientTransform="matrix(0.99657796,0,0,1,1.2520606,0)" />
    <linearGradient
       inkscape:collect="always"
       xlink:href="#linearGradient8384"
       id="linearGradient6771"
       gradientUnits="userSpaceOnUse"
       gradientTransform="matrix(0.99657796,0,0,1,1.2520606,0)"
       x1="408.84314"
       y1="89.26915"
       x2="420.61133"
       y2="138.41306" />
  </defs>
  <metadata
     id="metadata4713">
    <rdf:RDF>
      <cc:Work
         rdf:about="">
        <dc:format>image/svg+xml</dc:format>
        <dc:type
           rdf:resource="http://purl.org/dc/dcmitype/StillImage" />
        <dc:title></dc:title>
      </cc:Work>
    </rdf:RDF>
  </metadata>
  <g
     id="layer1"
     inkscape:groupmode="layer"
     inkscape:label="Capa 1">
    <path
       style="opacity:1;fill:#fff9f6;fill-opacity:1;fill-rule:evenodd;stroke:#ff772f;stroke-width:2;stroke-linejoin:round;stroke-miterlimit:4;stroke-dasharray:none;stroke-dashoffset:0;stroke-opacity:1;paint-order:normal"
       d="m 97.583979,29.700195 c -11.07875,0 -19.99804,9.65194 -19.99804,21.64062 V 460.66113 c 0,11.9887 8.91929,21.63867 19.99804,21.63867 H 414.41602 c 11.07874,0 19.99804,-9.64997 19.99804,-21.63867 V 113.7959 c -0.33411,-0.32981 -0.46874,-0.43168 -0.81445,-0.77345 -9.64188,-9.53205 -23.80681,-23.701345 -37.64453,-37.822255 -6.91884,-7.06045 -13.75546,-14.10994 -19.9043,-20.56055 -6.14876,-6.45062 -11.60929,-12.30327 -15.77539,-16.97265 -3.0827,-3.45513 -4.82334,-5.68286 -6.625,-7.9668 z"
       id="path4506"
       inkscape:connector-curvature="0"
       sodipodi:nodetypes="ssssssccccccs" />
    <g
       id="g4584"
       transform="matrix(0.3829248,0,0,0.3829248,74.406719,31.973725)"
       style="fill:#75abd3;fill-opacity:1;stroke:#9dc4df;stroke-opacity:1" />
    <path
       style="opacity:1;fill:#ff772f;fill-opacity:1;fill-rule:evenodd;stroke:#f5e3d9;stroke-width:0.85055965;stroke-linecap:square;stroke-linejoin:miter;stroke-miterlimit:4;stroke-dasharray:none;stroke-dashoffset:0;stroke-opacity:1;paint-order:markers fill stroke"
       d="M 126.86914 380.81641 C 121.84703 380.81641 117.66057 381.0268 114.3125 381.44531 C 111.03418 381.79407 108.59452 382.072 106.99023 382.28125 L 106.99023 456.98633 C 110.61732 457.61409 113.65049 457.92773 116.0918 457.92773 C 117.34732 457.92773 118.70709 457.85825 120.17188 457.71875 C 121.63666 457.57925 123.2763 457.33509 125.08984 456.98633 L 125.08984 432.60742 C 125.64786 432.74692 126.58878 432.88589 127.91406 433.02539 C 129.30909 433.09514 130.67081 433.13086 131.99609 433.13086 C 135.34417 433.13086 138.58774 432.71202 141.72656 431.875 C 144.93513 431.03798 147.75987 429.6425 150.20117 427.68945 C 152.71223 425.73641 154.69928 423.12207 156.16406 419.84375 C 157.6986 416.56543 158.4668 412.44845 158.4668 407.49609 C 158.4668 401.91597 157.52392 397.38211 155.64062 393.89453 C 153.75733 390.40695 151.28196 387.72314 148.21289 385.83984 C 145.21357 383.8868 141.83104 382.5608 138.06445 381.86328 C 134.29787 381.16577 130.56597 380.81641 126.86914 380.81641 z M 188.17383 380.81641 C 183.15172 380.81641 178.96722 381.0268 175.61914 381.44531 C 172.34082 381.79407 169.89921 382.072 168.29492 382.28125 L 168.29492 456.98633 C 171.922 457.61409 174.95518 457.92773 177.39648 457.92773 C 178.65201 457.92773 180.01373 457.85825 181.47852 457.71875 C 182.9433 457.57925 184.58099 457.33509 186.39453 456.98633 L 186.39453 432.60742 C 186.95254 432.74692 187.89542 432.88589 189.2207 433.02539 C 190.61573 433.09514 191.9755 433.13086 193.30078 433.13086 C 196.64886 433.13086 199.89243 432.71202 203.03125 431.875 C 206.23982 431.03798 209.06455 429.6425 211.50586 427.68945 C 214.01692 425.73641 216.00397 423.12207 217.46875 419.84375 C 219.00328 416.56543 219.77148 412.44845 219.77148 407.49609 C 219.77148 401.91597 218.8286 397.38211 216.94531 393.89453 C 215.06202 390.40695 212.58665 387.72314 209.51758 385.83984 C 206.51826 383.8868 203.13572 382.5608 199.36914 381.86328 C 195.60256 381.16577 191.87066 380.81641 188.17383 380.81641 z M 225.83203 382.07227 C 225.20427 385.14133 224.89062 387.8271 224.89062 390.12891 C 224.89062 392.63996 225.20427 395.39521 225.83203 398.39453 L 243.30664 398.39453 L 243.30664 456.98633 C 246.93372 457.61409 250.03638 457.92773 252.61719 457.92773 C 255.05849 457.92773 258.12739 457.61409 261.82422 456.98633 L 261.82422 398.39453 L 279.29688 398.39453 C 279.85489 395.18596 280.13477 392.43071 280.13477 390.12891 C 280.13477 388.94313 280.06528 387.68661 279.92578 386.36133 C 279.78628 385.03605 279.57588 383.6068 279.29688 382.07227 L 225.83203 382.07227 z M 126.76367 396.40625 L 128.22852 396.40625 C 129.76305 396.40625 131.22802 396.58093 132.62305 396.92969 C 134.01808 397.27845 135.23888 397.90573 136.28516 398.8125 C 137.33143 399.64952 138.13339 400.80084 138.69141 402.26562 C 139.31917 403.66066 139.63281 405.40355 139.63281 407.49609 C 139.63281 411.05342 138.69189 413.70543 136.80859 415.44922 C 134.9253 417.19301 132.48369 418.06445 129.48438 418.06445 C 128.5776 418.06445 127.70616 418.02874 126.86914 417.95898 C 126.03212 417.88923 125.4386 417.78599 125.08984 417.64648 L 125.08984 396.51172 C 125.64786 396.44197 126.20566 396.40625 126.76367 396.40625 z M 188.06836 396.40625 L 189.5332 396.40625 C 191.06774 396.40625 192.5327 396.58093 193.92773 396.92969 C 195.32277 397.27845 196.54357 397.90573 197.58984 398.8125 C 198.63612 399.64952 199.43808 400.80084 199.99609 402.26562 C 200.62386 403.66066 200.9375 405.40355 200.9375 407.49609 C 200.9375 411.05342 199.99657 413.70543 198.11328 415.44922 C 196.22999 417.19301 193.78838 418.06445 190.78906 418.06445 C 189.88229 418.06445 189.01085 418.02874 188.17383 417.95898 C 187.33681 417.88923 186.74329 417.78599 186.39453 417.64648 L 186.39453 396.51172 C 186.95254 396.44197 187.51035 396.40625 188.06836 396.40625 z "
       id="rect4610" />
    <path
       style="opacity:1;fill:url(#linearGradient6771);fill-opacity:1;fill-rule:evenodd;stroke:none;stroke-width:8.77774811;stroke-linecap:square;stroke-linejoin:miter;stroke-miterlimit:4;stroke-dasharray:none;stroke-dashoffset:0;stroke-opacity:1;paint-order:markers fill stroke"
       d="m 433.28939,182.37584 v -69.47028 c 0,-0.0394 -0.0309,-0.0705 -0.0703,-0.0705 h -67.33747 c 4.09851,4.50878 8.40749,9.2132 13.77948,14.86279 7.205,7.57734 15.21697,15.8602 23.32513,24.15489 11.13885,11.3951 20.83136,21.05949 30.30308,30.52302 z"
       id="path4566"
       inkscape:connector-curvature="0" />
    <path
       style="opacity:1;fill:#ff772f;fill-opacity:1;fill-rule:evenodd;stroke:none;stroke-width:1.05391276;stroke-linejoin:round;stroke-miterlimit:4;stroke-dasharray:none;stroke-dashoffset:0;stroke-opacity:1;paint-order:normal"
       d="m 435.00048,114.60612 c -1.83541,-2.30475 -3.6077,-4.55306 -6.74972,-8.04125 -4.24635,-4.71409 -9.8132,-10.623129 -16.08223,-17.137261 C 405.8996,82.913483 398.92921,75.794273 391.8744,68.663457 377.76477,54.401804 363.32068,40.090503 353.48814,30.462087 c -0.35278,-0.345219 -0.4898,-0.448268 -0.83055,-0.781422 l -0.24394,62.802323 c -0.0467,12.055462 9.04538,21.800782 20.38588,21.850482 z"
       id="rect4485"
       inkscape:connector-curvature="0" />
    <g
       transform="matrix(1,0,0,1.3630556,-455.49071,-106.08522)"
       id="g5015"
       style="stroke:none">
      <g
         transform="translate(41.142882,-90.289382)"
         id="g4843"
         style="fill:#acbec6;fill-opacity:1;stroke:none">
        <rect
           style="opacity:1;fill:#ffd6c1;fill-opacity:1;fill-rule:evenodd;stroke:none;stroke-width:2.21220756;stroke-linejoin:round;stroke-miterlimit:4;stroke-dasharray:none;stroke-dashoffset:0;stroke-opacity:1;paint-order:normal"
           id="rect5140"
           width="94.015785"
           height="24.504156"
           x="581.18958"
           y="342.88065" />
        <rect
           style="opacity:1;fill:#ffac80;fill-opacity:1;fill-rule:evenodd;stroke:none;stroke-width:1.27760649;stroke-linejoin:round;stroke-miterlimit:4;stroke-dasharray:none;stroke-dashoffset:0;stroke-opacity:1;paint-order:normal"
           id="rect5142"
           width="31.35763"
           height="24.504156"
           x="533.82196"
           y="342.88065" />
        <rect
           y="289.5578"
           x="581.18958"
           height="24.504156"
           width="94.015785"
           id="rect5150"
           style="opacity:1;fill:#ffd6c1;fill-opacity:1;fill-rule:evenodd;stroke:none;stroke-width:2.21220756;stroke-linejoin:round;stroke-miterlimit:4;stroke-dasharray:none;stroke-dashoffset:0;stroke-opacity:1;paint-order:normal" />
        <rect
           y="289.5578"
           x="533.82196"
           height="24.504156"
           width="31.35763"
           id="rect5152"
           style="opacity:1;fill:#ffac80;fill-opacity:1;fill-rule:evenodd;stroke:none;stroke-width:1.27760649;stroke-linejoin:round;stroke-miterlimit:4;stroke-dasharray:none;stroke-dashoffset:0;stroke-opacity:1;paint-order:normal" />
        <rect
           style="opacity:1;fill:#ffd6c1;fill-opacity:1;fill-rule:evenodd;stroke:none;stroke-width:2.21220756;stroke-linejoin:round;stroke-miterlimit:4;stroke-dasharray:none;stroke-dashoffset:0;stroke-opacity:1;paint-order:normal"
           id="rect4572"
           width="94.015785"
           height="24.504156"
           x="581.18958"
           y="395.70291" />
        <rect
           style="opacity:1;fill:#ffac80;fill-opacity:1;fill-rule:evenodd;stroke:none;stroke-width:1.27760649;stroke-linejoin:round;stroke-miterlimit:4;stroke-dasharray:none;stroke-dashoffset:0;stroke-opacity:1;paint-order:normal"
           id="rect4574"
           width="31.35763"
           height="24.504156"
           x="533.82196"
           y="395.70291" />
      </g>
    </g>
    <rect
       style="fill:#ffd6c1;fill-opacity:1;stroke:none;stroke-width:3.03957319;stroke-linecap:round;stroke-linejoin:round;stroke-miterlimit:4;stroke-dasharray:none;stroke-opacity:1"
       id="rect2997"
       width="99.630768"
       height="73.807472"
       x="293.00446"
       y="165.10495"
       transform="matrix(0.99999986,5.2631278e-4,-6.6188717e-4,0.99999978,0,0)" />
    <path
       sodipodi:type="arc"
       style="fill:#ffac80;fill-opacity:1;stroke:none;stroke-width:0.67452163"
       id="path3767"
       sodipodi:cx="373.41473"
       sodipodi:cy="186.64922"
       sodipodi:rx="10.339538"
       sodipodi:ry="10.339537"
       d="m 383.75427,186.64922 a 10.339538,10.339537 0 0 1 -10.3274,10.33953 10.339538,10.339537 0 0 1 -10.35165,-10.31526 10.339538,10.339537 0 0 1 10.30311,-10.36375 10.339538,10.339537 0 0 1 10.37583,10.29093"
       transform="matrix(0.99999982,6.0156637e-4,-5.7908376e-4,0.99999983,0,0)"
       sodipodi:start="0"
       sodipodi:end="6.2784904"
       sodipodi:open="true" />
    <path
       style="fill:#ffac80;fill-opacity:1;stroke:none;stroke-width:0.13036391px;stroke-linecap:butt;stroke-linejoin:miter;stroke-opacity:1"
       d="m 293.0043,210.97637 -0.15812,28.09022 99.61819,-0.072 0.008,-23.3496 c 0,0 -8.20106,-4.18051 -26.50349,3.20007 -18.30244,7.38058 -28.5217,0.496 -41.90635,-14.49316 -13.38465,-14.98917 -31.05806,6.62435 -31.05806,6.62435 z"
       id="path3787"
       inkscape:connector-curvature="0"
       sodipodi:nodetypes="cccczzcc" />
    <rect
       style="opacity:1;fill:#ffd6c1;fill-opacity:1;fill-rule:evenodd;stroke:none;stroke-width:4.73045778;stroke-linejoin:round;stroke-miterlimit:4;stroke-dasharray:none;stroke-dashoffset:0;stroke-opacity:1;paint-order:normal"
       id="rect4539"
       width="16.428572"
       height="71.60714"
       x="310.53558"
       y="275.13373" />
    <rect
       y="280.84802"
       x="326.53558"
       height="65.89286"
       width="16.428572"
       id="rect4541"
       style="opacity:1;fill:#ffac80;fill-opacity:1;fill-rule:evenodd;stroke:none;stroke-width:4.53778791;stroke-linejoin:round;stroke-miterlimit:4;stroke-dasharray:none;stroke-dashoffset:0;stroke-opacity:1;paint-order:normal" />
    <rect
       style="opacity:1;fill:#ffd6c1;fill-opacity:1;fill-rule:evenodd;stroke:none;stroke-width:3.89596868;stroke-linejoin:round;stroke-miterlimit:4;stroke-dasharray:none;stroke-dashoffset:0;stroke-opacity:1;paint-order:normal"
       id="rect4543"
       width="16.428572"
       height="48.57143"
       x="342.53558"
       y="298.16943" />
    <rect
       y="266.74088"
       x="358.53558"
       height="80"
       width="16.428572"
       id="rect4545"
       style="opacity:1;fill:#ffac80;fill-opacity:1;fill-rule:evenodd;stroke:none;stroke-width:5;stroke-linejoin:round;stroke-miterlimit:4;stroke-dasharray:none;stroke-dashoffset:0;stroke-opacity:1;paint-order:normal" />
  </g>
</svg>
