<?xml version="1.0" encoding="UTF-8" standalone="no"?>
<!-- Created with Inkscape (http://www.inkscape.org/) -->

<svg
   xmlns:osb="http://www.openswatchbook.org/uri/2009/osb"
   xmlns:dc="http://purl.org/dc/elements/1.1/"
   xmlns:cc="http://creativecommons.org/ns#"
   xmlns:rdf="http://www.w3.org/1999/02/22-rdf-syntax-ns#"
   xmlns:svg="http://www.w3.org/2000/svg"
   xmlns="http://www.w3.org/2000/svg"
   xmlns:xlink="http://www.w3.org/1999/xlink"
   xmlns:sodipodi="http://sodipodi.sourceforge.net/DTD/sodipodi-0.dtd"
   xmlns:inkscape="http://www.inkscape.org/namespaces/inkscape"
   width="512px"
   height="512px"
   viewBox="0 0 512 512"
   version="1.1"
   id="SVGRoot"
   inkscape:version="0.92.1 r15371"
   sodipodi:docname="pptx.svg">
  <sodipodi:namedview
     id="base"
     pagecolor="#ffffff"
     bordercolor="#666666"
     borderopacity="1.0"
     inkscape:pageopacity="0.0"
     inkscape:pageshadow="2"
     inkscape:zoom="1"
     inkscape:cx="269.81511"
     inkscape:cy="345.30428"
     inkscape:document-units="px"
     inkscape:current-layer="layer1"
     showgrid="false"
     inkscape:window-width="1280"
     inkscape:window-height="947"
     inkscape:window-x="0"
     inkscape:window-y="0"
     inkscape:window-maximized="1" />
  <defs
     id="defs4710">
    <linearGradient
       id="linearGradient8384"
       inkscape:collect="always">
      <stop
         id="stop8380"
         offset="0"
         style="stop-color:#181818;stop-opacity:0.27956989" />
      <stop
         id="stop8382"
         offset="1"
         style="stop-color:#404040;stop-opacity:0" />
    </linearGradient>
    <linearGradient
       inkscape:collect="always"
       id="linearGradient4573">
      <stop
         style="stop-color:#181818;stop-opacity:0.30645162"
         offset="0"
         id="stop4569" />
      <stop
         style="stop-color:#404040;stop-opacity:0"
         offset="1"
         id="stop4571" />
    </linearGradient>
    <marker
       inkscape:stockid="DotM"
       orient="auto"
       refY="0.0"
       refX="0.0"
       id="DotM"
       style="overflow:visible"
       inkscape:isstock="true">
      <path
         id="path4618"
         d="M -2.5,-1.0 C -2.5,1.7600000 -4.7400000,4.0 -7.5,4.0 C -10.260000,4.0 -12.5,1.7600000 -12.5,-1.0 C -12.5,-3.7600000 -10.260000,-6.0 -7.5,-6.0 C -4.7400000,-6.0 -2.5,-3.7600000 -2.5,-1.0 z "
         style="fill-rule:evenodd;stroke:#000000;stroke-width:1.0pt"
         transform="scale(0.4) translate(7.4, 1)" />
    </marker>
    <linearGradient
       osb:paint="solid"
       id="linearGradient5207">
      <stop
         id="stop5209"
         offset="0"
         style="stop-color:#000015;stop-opacity:1;" />
    </linearGradient>
    <clipPath
       id="clipPath3006-9-8"
       clipPathUnits="userSpaceOnUse">
      <path
         inkscape:export-ydpi="90"
         inkscape:export-xdpi="90"
         transform="matrix(1.2020779,0,0,1.2020779,-93.20363,-75.172465)"
         d="m 483,275.5 a 192.5,192.5 0 1 1 -385,0 192.5,192.5 0 1 1 385,0 z"
         sodipodi:ry="192.5"
         sodipodi:rx="192.5"
         sodipodi:cy="275.5"
         sodipodi:cx="290.5"
         id="path3008-1-1"
         style="fill:#ffffff;fill-opacity:1;stroke:none;display:inline"
         sodipodi:type="arc" />
    </clipPath>
    <mask
       id="mask3818-4"
       maskUnits="userSpaceOnUse">
      <path
         sodipodi:type="arc"
         style="fill:#ffffff;fill-opacity:1;stroke:none;display:inline"
         id="path3820-9"
         sodipodi:cx="290.5"
         sodipodi:cy="275.5"
         sodipodi:rx="192.5"
         sodipodi:ry="192.5"
         d="m 483,275.5 a 192.5,192.5 0 1 1 -385,0 192.5,192.5 0 1 1 385,0 z"
         transform="matrix(1.2020779,0,0,1.2020779,-93.20363,-75.172466)"
         inkscape:export-xdpi="90"
         inkscape:export-ydpi="90" />
    </mask>
    <clipPath
       id="clipPath3006"
       clipPathUnits="userSpaceOnUse">
      <path
         inkscape:export-ydpi="90"
         inkscape:export-xdpi="90"
         transform="matrix(1.2020779,0,0,1.2020779,-93.20363,-75.172465)"
         d="m 483,275.5 a 192.5,192.5 0 1 1 -385,0 192.5,192.5 0 1 1 385,0 z"
         sodipodi:ry="192.5"
         sodipodi:rx="192.5"
         sodipodi:cy="275.5"
         sodipodi:cx="290.5"
         id="path3008"
         style="fill:#ffffff;fill-opacity:1;stroke:none;display:inline"
         sodipodi:type="arc" />
    </clipPath>
    <clipPath
       id="clipPath3006-9"
       clipPathUnits="userSpaceOnUse">
      <path
         inkscape:export-ydpi="90"
         inkscape:export-xdpi="90"
         transform="matrix(1.2020779,0,0,1.2020779,-93.20363,-75.172465)"
         d="m 483,275.5 a 192.5,192.5 0 1 1 -385,0 192.5,192.5 0 1 1 385,0 z"
         sodipodi:ry="192.5"
         sodipodi:rx="192.5"
         sodipodi:cy="275.5"
         sodipodi:cx="290.5"
         id="path3008-1"
         style="fill:#ffffff;fill-opacity:1;stroke:none;display:inline"
         sodipodi:type="arc" />
    </clipPath>
    <mask
       maskUnits="userSpaceOnUse"
       id="mask3818-0">
      <path
         inkscape:export-ydpi="90"
         inkscape:export-xdpi="90"
         transform="matrix(1.2020779,0,0,1.2020779,-93.20363,-75.172466)"
         d="m 483,275.5 a 192.5,192.5 0 1 1 -385,0 192.5,192.5 0 1 1 385,0 z"
         sodipodi:ry="192.5"
         sodipodi:rx="192.5"
         sodipodi:cy="275.5"
         sodipodi:cx="290.5"
         id="path3820-8"
         style="fill:#ffffff;fill-opacity:1;stroke:none;display:inline"
         sodipodi:type="arc" />
    </mask>
    <mask
       maskUnits="userSpaceOnUse"
       id="mask3818-2">
      <path
         inkscape:export-ydpi="90"
         inkscape:export-xdpi="90"
         transform="matrix(1.2020779,0,0,1.2020779,-93.20363,-75.172466)"
         d="m 483,275.5 a 192.5,192.5 0 1 1 -385,0 192.5,192.5 0 1 1 385,0 z"
         sodipodi:ry="192.5"
         sodipodi:rx="192.5"
         sodipodi:cy="275.5"
         sodipodi:cx="290.5"
         id="path3820-2-2"
         style="fill:#ffffff;fill-opacity:1;stroke:none;display:inline"
         sodipodi:type="arc" />
    </mask>
    <clipPath
       id="clipPath3934"
       clipPathUnits="userSpaceOnUse">
      <path
         id="path3936"
         d="m 0,0 0,1024 1024,0 L 1024,0 0,0 z m 278.4375,333.84375 119.78125,0 c 9.83697,42.31453 19.85954,84.58596 29.9375,126.84375 9.86978,-42.28798 20.05132,-84.50237 29.6875,-126.84375 l 108.90625,0 c 9.63586,42.34141 19.8178,84.55578 29.6875,126.84375 10.07827,-42.25772 20.10031,-84.52927 29.9375,-126.84375 l 119.1875,0 c -26.26221,110.73099 -52.49625,221.46929 -78.28125,332.3125 l -122.8125,0 c -10.59439,-45.55681 -21.46638,-91.04874 -32.375,-136.53125 -10.66279,45.51136 -21.5615,90.96897 -32,136.53125 l -122.8125,0 c -25.71418,-110.03502 -52.0286,-219.92873 -78.25,-329.84375 l -0.59375,-2.46875 z"
         style="fill:#ff3232;fill-opacity:1;stroke:none"
         inkscape:connector-curvature="0" />
    </clipPath>
    <clipPath
       id="clipPath3929"
       clipPathUnits="userSpaceOnUse">
      <path
         inkscape:connector-curvature="0"
         style="fill:#ff3232;fill-opacity:1;stroke:none"
         d="m 0,0 0,1024 1024,0 L 1024,0 0,0 z m 278.4375,333.84375 119.78125,0 c 9.83697,42.31453 19.85954,84.58596 29.9375,126.84375 9.86978,-42.28798 20.05132,-84.50237 29.6875,-126.84375 l 108.90625,0 c 9.63586,42.34141 19.8178,84.55578 29.6875,126.84375 10.07827,-42.25772 20.10031,-84.52927 29.9375,-126.84375 l 119.1875,0 c -26.26221,110.73099 -52.49625,221.46929 -78.28125,332.3125 l -122.8125,0 c -10.59439,-45.55681 -21.46638,-91.04874 -32.375,-136.53125 -10.66279,45.51136 -21.5615,90.96897 -32,136.53125 l -122.8125,0 c -25.71418,-110.03502 -52.0286,-219.92873 -78.25,-329.84375 l -0.59375,-2.46875 z"
         id="path3931" />
    </clipPath>
    <mask
       maskUnits="userSpaceOnUse"
       id="mask3818">
      <path
         inkscape:export-ydpi="90"
         inkscape:export-xdpi="90"
         transform="matrix(1.2020779,0,0,1.2020779,-93.20363,-75.172466)"
         d="m 483,275.5 a 192.5,192.5 0 1 1 -385,0 192.5,192.5 0 1 1 385,0 z"
         sodipodi:ry="192.5"
         sodipodi:rx="192.5"
         sodipodi:cy="275.5"
         sodipodi:cx="290.5"
         id="path3820"
         style="fill:#ffffff;fill-opacity:1;stroke:none;display:inline"
         sodipodi:type="arc" />
    </mask>
    <linearGradient
       inkscape:collect="always"
       xlink:href="#linearGradient4573"
       id="linearGradient4575"
       x1="408.84314"
       y1="89.26915"
       x2="420.61133"
       y2="138.41306"
       gradientUnits="userSpaceOnUse"
       gradientTransform="matrix(0.99657796,0,0,1,1.2520606,0)" />
    <linearGradient
       inkscape:collect="always"
       xlink:href="#linearGradient8384"
       id="linearGradient6771"
       gradientUnits="userSpaceOnUse"
       gradientTransform="matrix(0.99657796,0,0,1,1.2520606,0)"
       x1="408.84314"
       y1="89.26915"
       x2="420.61133"
       y2="138.41306" />
  </defs>
  <metadata
     id="metadata4713">
    <rdf:RDF>
      <cc:Work
         rdf:about="">
        <dc:format>image/svg+xml</dc:format>
        <dc:type
           rdf:resource="http://purl.org/dc/dcmitype/StillImage" />
        <dc:title></dc:title>
      </cc:Work>
    </rdf:RDF>
  </metadata>
  <g
     id="layer1"
     inkscape:groupmode="layer"
     inkscape:label="Capa 1">
    <path
       style="opacity:1;fill:#fff9f6;fill-opacity:1;fill-rule:evenodd;stroke:#ff772f;stroke-width:2;stroke-linejoin:round;stroke-miterlimit:4;stroke-dasharray:none;stroke-dashoffset:0;stroke-opacity:1;paint-order:normal"
       d="m 97.583979,29.700195 c -11.07875,0 -19.99804,9.65194 -19.99804,21.64062 V 460.66113 c 0,11.9887 8.91929,21.63867 19.99804,21.63867 H 414.41602 c 11.07874,0 19.99804,-9.64997 19.99804,-21.63867 V 113.7959 c -0.33411,-0.32981 -0.46874,-0.43168 -0.81445,-0.77345 -9.64188,-9.53205 -23.80681,-23.701345 -37.64453,-37.822255 -6.91884,-7.06045 -13.75546,-14.10994 -19.9043,-20.56055 -6.14876,-6.45062 -11.60929,-12.30327 -15.77539,-16.97265 -3.0827,-3.45513 -4.82334,-5.68286 -6.625,-7.9668 z"
       id="path4506"
       inkscape:connector-curvature="0"
       sodipodi:nodetypes="ssssssccccccs" />
    <g
       id="g4584"
       transform="matrix(0.3829248,0,0,0.3829248,74.406719,31.973725)"
       style="fill:#75abd3;fill-opacity:1;stroke:#9dc4df;stroke-opacity:1" />
    <path
       style="opacity:1;fill:#ff772f;fill-opacity:1;fill-rule:evenodd;stroke:#f5e3d9;stroke-width:0.85055965;stroke-linecap:square;stroke-linejoin:miter;stroke-miterlimit:4;stroke-dasharray:none;stroke-dashoffset:0;stroke-opacity:1;paint-order:markers fill stroke"
       d="M 170.10352 401.95117 C 166.9647 401.95117 163.6854 402.09209 160.26758 402.37109 C 156.9195 402.58035 153.64217 402.92775 150.43359 403.41602 L 150.43359 457.19531 C 152.24713 457.54407 153.81535 457.75251 155.14062 457.82227 C 156.53566 457.96177 157.82594 458.03125 159.01172 458.03125 C 160.12774 458.03125 161.38427 457.96177 162.7793 457.82227 C 164.24408 457.75251 165.88177 457.54407 167.69531 457.19531 L 167.69531 444.32617 C 167.90457 444.39592 168.42861 444.4654 169.26562 444.53516 C 170.10264 444.60491 171.11305 444.64063 172.29883 444.64062 C 175.22839 444.64063 178.08884 444.29127 180.87891 443.59375 C 183.73872 442.82648 186.28553 441.60568 188.51758 439.93164 C 190.74963 438.2576 192.52824 436.06015 193.85352 433.33984 C 195.24855 430.61953 195.94531 427.27076 195.94531 423.29492 C 195.94531 418.90057 195.17907 415.34336 193.64453 412.62305 C 192.17975 409.83298 190.22646 407.67125 187.78516 406.13672 C 185.34385 404.53243 182.5886 403.45059 179.51953 402.89258 C 176.45046 402.26481 173.31209 401.95117 170.10352 401.95117 z M 224.05078 401.95117 C 220.91196 401.95117 217.63462 402.09209 214.2168 402.37109 C 210.86872 402.58035 207.58943 402.92775 204.38086 403.41602 L 204.38086 457.19531 C 206.1944 457.54407 207.76456 457.75251 209.08984 457.82227 C 210.48487 457.96177 211.77516 458.03125 212.96094 458.03125 C 214.07696 458.03125 215.33153 457.96177 216.72656 457.82227 C 218.19135 457.75251 219.83099 457.54407 221.64453 457.19531 L 221.64453 444.32617 C 221.85379 444.39592 222.37783 444.4654 223.21484 444.53516 C 224.05186 444.60491 225.06227 444.64063 226.24805 444.64062 C 229.17761 444.64063 232.03806 444.29127 234.82812 443.59375 C 237.68794 442.82648 240.23279 441.60568 242.46484 439.93164 C 244.69689 438.2576 246.4755 436.06015 247.80078 433.33984 C 249.19581 430.61953 249.89453 427.27076 249.89453 423.29492 C 249.89453 418.90057 249.12633 415.34336 247.5918 412.62305 C 246.12701 409.83298 244.17373 407.67125 241.73242 406.13672 C 239.29112 404.53243 236.53587 403.45059 233.4668 402.89258 C 230.39773 402.26481 227.25935 401.95117 224.05078 401.95117 z M 318.56641 402.58008 C 316.2646 402.58008 314.20612 402.64956 312.39258 402.78906 C 310.64879 402.92857 309.39227 403.06753 308.625 403.20703 L 318.04297 429.1543 L 306.5332 457.08984 C 307.30047 457.22935 308.52128 457.40403 310.19531 457.61328 C 311.9391 457.82254 313.96187 457.92773 316.26367 457.92773 C 318.07721 457.92773 319.75062 457.82254 321.28516 457.61328 C 322.81969 457.47378 323.86582 457.33482 324.42383 457.19531 L 334.05078 430.41016 L 343.67578 457.19531 C 344.23379 457.33482 345.31564 457.47378 346.91992 457.61328 C 348.52421 457.82254 350.33658 457.92773 352.35938 457.92773 C 354.45192 457.92773 356.30196 457.82254 357.90625 457.61328 C 359.58029 457.47378 360.79914 457.33482 361.56641 457.19531 L 350.05859 429.1543 L 359.47461 403.20703 C 358.70734 403.06753 357.41706 402.92857 355.60352 402.78906 C 353.78998 402.64956 351.73149 402.58008 349.42969 402.58008 C 347.61615 402.58008 345.87326 402.64956 344.19922 402.78906 C 342.59493 402.92857 341.51309 403.06753 340.95508 403.20703 L 334.05078 428.31836 L 327.04102 403.20703 C 326.483 403.06753 325.36544 402.92857 323.69141 402.78906 C 322.08712 402.64956 320.37995 402.58008 318.56641 402.58008 z M 254.87695 403.20703 C 254.5282 404.60206 254.28403 405.89235 254.14453 407.07812 C 254.07478 408.2639 254.03906 409.41523 254.03906 410.53125 C 254.03906 411.64727 254.07478 412.83236 254.14453 414.08789 C 254.28403 415.27367 254.5282 416.56395 254.87695 417.95898 L 270.36133 417.95898 L 270.36133 457.19531 C 272.10512 457.47432 273.70905 457.68276 275.17383 457.82227 C 276.63861 457.96177 277.96461 458.03125 279.15039 458.03125 C 280.33617 458.03125 281.66217 457.96177 283.12695 457.82227 C 284.59174 457.68276 286.22943 457.47432 288.04297 457.19531 L 288.04297 417.95898 L 303.5293 417.95898 C 303.87805 416.56395 304.0865 415.27367 304.15625 414.08789 C 304.29575 412.83236 304.36523 411.64727 304.36523 410.53125 C 304.36523 409.41523 304.29575 408.2639 304.15625 407.07812 C 304.0865 405.89235 303.87805 404.60206 303.5293 403.20703 L 254.87695 403.20703 z M 169.26562 415.44922 L 170.52148 415.44922 C 172.82329 415.44922 174.74086 416.14598 176.27539 417.54102 C 177.87968 418.8663 178.68164 420.78387 178.68164 423.29492 C 178.68164 426.22449 177.87968 428.31869 176.27539 429.57422 C 174.74086 430.76 172.7538 431.35156 170.3125 431.35156 L 168.95117 431.35156 C 168.46291 431.28181 168.04407 431.21233 167.69531 431.14258 L 167.69531 415.55273 C 168.25332 415.48298 168.77736 415.44922 169.26562 415.44922 z M 223.21484 415.44922 L 224.46875 415.44922 C 226.77055 415.44922 228.69008 416.14598 230.22461 417.54102 C 231.8289 418.8663 232.63086 420.78387 232.63086 423.29492 C 232.63086 426.22449 231.8289 428.31869 230.22461 429.57422 C 228.69008 430.76 226.70107 431.35156 224.25977 431.35156 L 222.90039 431.35156 C 222.41213 431.28181 221.99329 431.21233 221.64453 431.14258 L 221.64453 415.55273 C 222.20254 415.48298 222.72658 415.44922 223.21484 415.44922 z "
       id="rect4610" />
    <path
       style="opacity:1;fill:url(#linearGradient6771);fill-opacity:1;fill-rule:evenodd;stroke:none;stroke-width:8.77774811;stroke-linecap:square;stroke-linejoin:miter;stroke-miterlimit:4;stroke-dasharray:none;stroke-dashoffset:0;stroke-opacity:1;paint-order:markers fill stroke"
       d="m 433.28939,182.37584 v -69.47028 c 0,-0.0394 -0.0309,-0.0705 -0.0703,-0.0705 h -67.33747 c 4.09851,4.50878 8.40749,9.2132 13.77948,14.86279 7.205,7.57734 15.21697,15.8602 23.32513,24.15489 11.13885,11.3951 20.83136,21.05949 30.30308,30.52302 z"
       id="path4566"
       inkscape:connector-curvature="0" />
    <path
       style="opacity:1;fill:#ff772f;fill-opacity:1;fill-rule:evenodd;stroke:none;stroke-width:1.05391276;stroke-linejoin:round;stroke-miterlimit:4;stroke-dasharray:none;stroke-dashoffset:0;stroke-opacity:1;paint-order:normal"
       d="m 435.00048,114.60612 c -1.83541,-2.30475 -3.6077,-4.55306 -6.74972,-8.04125 -4.24635,-4.71409 -9.8132,-10.623129 -16.08223,-17.137261 C 405.8996,82.913483 398.92921,75.794273 391.8744,68.663457 377.76477,54.401804 363.32068,40.090503 353.48814,30.462087 c -0.35278,-0.345219 -0.4898,-0.448268 -0.83055,-0.781422 l -0.24394,62.802323 c -0.0467,12.055462 9.04538,21.800782 20.38588,21.850482 z"
       id="rect4485"
       inkscape:connector-curvature="0" />
    <g
       transform="matrix(1,0,0,1.3630556,-455.49071,-106.08522)"
       id="g5015"
       style="stroke:none">
      <g
         transform="translate(41.142882,-90.289382)"
         id="g4843"
         style="fill:#acbec6;fill-opacity:1;stroke:none">
        <rect
           style="opacity:1;fill:#ffd6c1;fill-opacity:1;fill-rule:evenodd;stroke:none;stroke-width:2.21220756;stroke-linejoin:round;stroke-miterlimit:4;stroke-dasharray:none;stroke-dashoffset:0;stroke-opacity:1;paint-order:normal"
           id="rect5140"
           width="94.015785"
           height="24.504156"
           x="581.18958"
           y="342.88065" />
        <rect
           style="opacity:1;fill:#ffac80;fill-opacity:1;fill-rule:evenodd;stroke:none;stroke-width:1.27760649;stroke-linejoin:round;stroke-miterlimit:4;stroke-dasharray:none;stroke-dashoffset:0;stroke-opacity:1;paint-order:normal"
           id="rect5142"
           width="31.35763"
           height="24.504156"
           x="533.82196"
           y="342.88065" />
        <rect
           y="289.5578"
           x="581.18958"
           height="24.504156"
           width="94.015785"
           id="rect5150"
           style="opacity:1;fill:#ffd6c1;fill-opacity:1;fill-rule:evenodd;stroke:none;stroke-width:2.21220756;stroke-linejoin:round;stroke-miterlimit:4;stroke-dasharray:none;stroke-dashoffset:0;stroke-opacity:1;paint-order:normal" />
        <rect
           y="289.5578"
           x="533.82196"
           height="24.504156"
           width="31.35763"
           id="rect5152"
           style="opacity:1;fill:#ffac80;fill-opacity:1;fill-rule:evenodd;stroke:none;stroke-width:1.27760649;stroke-linejoin:round;stroke-miterlimit:4;stroke-dasharray:none;stroke-dashoffset:0;stroke-opacity:1;paint-order:normal" />
        <rect
           style="opacity:1;fill:#ffd6c1;fill-opacity:1;fill-rule:evenodd;stroke:none;stroke-width:2.21220756;stroke-linejoin:round;stroke-miterlimit:4;stroke-dasharray:none;stroke-dashoffset:0;stroke-opacity:1;paint-order:normal"
           id="rect4572"
           width="94.015785"
           height="24.504156"
           x="581.18958"
           y="395.70291" />
        <rect
           style="opacity:1;fill:#ffac80;fill-opacity:1;fill-rule:evenodd;stroke:none;stroke-width:1.27760649;stroke-linejoin:round;stroke-miterlimit:4;stroke-dasharray:none;stroke-dashoffset:0;stroke-opacity:1;paint-order:normal"
           id="rect4574"
           width="31.35763"
           height="24.504156"
           x="533.82196"
           y="395.70291" />
      </g>
    </g>
    <rect
       style="fill:#ffd6c1;fill-opacity:1;stroke:none;stroke-width:3.03957319;stroke-linecap:round;stroke-linejoin:round;stroke-miterlimit:4;stroke-dasharray:none;stroke-opacity:1"
       id="rect2997"
       width="99.630768"
       height="73.807472"
       x="293.00446"
       y="165.10495"
       transform="matrix(0.99999986,5.2631278e-4,-6.6188717e-4,0.99999978,0,0)" />
    <path
       sodipodi:type="arc"
       style="fill:#ffac80;fill-opacity:1;stroke:none;stroke-width:0.67452163"
       id="path3767"
       sodipodi:cx="373.41473"
       sodipodi:cy="186.64922"
       sodipodi:rx="10.339538"
       sodipodi:ry="10.339537"
       d="m 383.75427,186.64922 a 10.339538,10.339537 0 0 1 -10.3274,10.33953 10.339538,10.339537 0 0 1 -10.35165,-10.31526 10.339538,10.339537 0 0 1 10.30311,-10.36375 10.339538,10.339537 0 0 1 10.37583,10.29093"
       transform="matrix(0.99999982,6.0156637e-4,-5.7908376e-4,0.99999983,0,0)"
       sodipodi:start="0"
       sodipodi:end="6.2784904"
       sodipodi:open="true" />
    <path
       style="fill:#ffac80;fill-opacity:1;stroke:none;stroke-width:0.13036391px;stroke-linecap:butt;stroke-linejoin:miter;stroke-opacity:1"
       d="m 293.0043,210.97637 -0.15812,28.09022 99.61819,-0.072 0.008,-23.3496 c 0,0 -8.20106,-4.18051 -26.50349,3.20007 -18.30244,7.38058 -28.5217,0.496 -41.90635,-14.49316 -13.38465,-14.98917 -31.05806,6.62435 -31.05806,6.62435 z"
       id="path3787"
       inkscape:connector-curvature="0"
       sodipodi:nodetypes="cccczzcc" />
    <rect
       style="opacity:1;fill:#ffd6c1;fill-opacity:1;fill-rule:evenodd;stroke:none;stroke-width:4.73045778;stroke-linejoin:round;stroke-miterlimit:4;stroke-dasharray:none;stroke-dashoffset:0;stroke-opacity:1;paint-order:normal"
       id="rect4539"
       width="16.428572"
       height="71.60714"
       x="310.53558"
       y="275.13373" />
    <rect
       y="280.84802"
       x="326.53558"
       height="65.89286"
       width="16.428572"
       id="rect4541"
       style="opacity:1;fill:#ffac80;fill-opacity:1;fill-rule:evenodd;stroke:none;stroke-width:4.53778791;stroke-linejoin:round;stroke-miterlimit:4;stroke-dasharray:none;stroke-dashoffset:0;stroke-opacity:1;paint-order:normal" />
    <rect
       style="opacity:1;fill:#ffd6c1;fill-opacity:1;fill-rule:evenodd;stroke:none;stroke-width:3.89596868;stroke-linejoin:round;stroke-miterlimit:4;stroke-dasharray:none;stroke-dashoffset:0;stroke-opacity:1;paint-order:normal"
       id="rect4543"
       width="16.428572"
       height="48.57143"
       x="342.53558"
       y="298.16943" />
    <rect
       y="266.74088"
       x="358.53558"
       height="80"
       width="16.428572"
       id="rect4545"
       style="opacity:1;fill:#ffac80;fill-opacity:1;fill-rule:evenodd;stroke:none;stroke-width:5;stroke-linejoin:round;stroke-miterlimit:4;stroke-dasharray:none;stroke-dashoffset:0;stroke-opacity:1;paint-order:normal" />
  </g>
</svg>
