<?xml version="1.0" encoding="UTF-8" standalone="no"?>
<!-- Created with Inkscape (http://www.inkscape.org/) -->

<svg
   xmlns:osb="http://www.openswatchbook.org/uri/2009/osb"
   xmlns:dc="http://purl.org/dc/elements/1.1/"
   xmlns:cc="http://creativecommons.org/ns#"
   xmlns:rdf="http://www.w3.org/1999/02/22-rdf-syntax-ns#"
   xmlns:svg="http://www.w3.org/2000/svg"
   xmlns="http://www.w3.org/2000/svg"
   xmlns:xlink="http://www.w3.org/1999/xlink"
   xmlns:sodipodi="http://sodipodi.sourceforge.net/DTD/sodipodi-0.dtd"
   xmlns:inkscape="http://www.inkscape.org/namespaces/inkscape"
   width="512px"
   height="512px"
   viewBox="0 0 512 512"
   version="1.1"
   id="SVGRoot"
   inkscape:version="0.92.1 r15371"
   sodipodi:docname="ps.svg">
  <sodipodi:namedview
     id="base"
     pagecolor="#ffffff"
     bordercolor="#666666"
     borderopacity="1.0"
     inkscape:pageopacity="0.0"
     inkscape:pageshadow="2"
     inkscape:zoom="0.70710678"
     inkscape:cx="428.80007"
     inkscape:cy="195.58138"
     inkscape:document-units="px"
     inkscape:current-layer="layer1"
     showgrid="false"
     inkscape:window-width="1280"
     inkscape:window-height="947"
     inkscape:window-x="0"
     inkscape:window-y="0"
     inkscape:window-maximized="1"
     inkscape:lockguides="false" />
  <defs
     id="defs4710">
    <linearGradient
       id="linearGradient8384"
       inkscape:collect="always">
      <stop
         id="stop8380"
         offset="0"
         style="stop-color:#181818;stop-opacity:0.38709676" />
      <stop
         id="stop8382"
         offset="1"
         style="stop-color:#404040;stop-opacity:0" />
    </linearGradient>
    <linearGradient
       inkscape:collect="always"
       id="linearGradient4573">
      <stop
         style="stop-color:#181818;stop-opacity:0.30645162"
         offset="0"
         id="stop4569" />
      <stop
         style="stop-color:#404040;stop-opacity:0"
         offset="1"
         id="stop4571" />
    </linearGradient>
    <marker
       inkscape:stockid="DotM"
       orient="auto"
       refY="0.0"
       refX="0.0"
       id="DotM"
       style="overflow:visible"
       inkscape:isstock="true">
      <path
         id="path4618"
         d="M -2.5,-1.0 C -2.5,1.7600000 -4.7400000,4.0 -7.5,4.0 C -10.260000,4.0 -12.5,1.7600000 -12.5,-1.0 C -12.5,-3.7600000 -10.260000,-6.0 -7.5,-6.0 C -4.7400000,-6.0 -2.5,-3.7600000 -2.5,-1.0 z "
         style="fill-rule:evenodd;stroke:#000000;stroke-width:1.0pt"
         transform="scale(0.4) translate(7.4, 1)" />
    </marker>
    <linearGradient
       osb:paint="solid"
       id="linearGradient5207">
      <stop
         id="stop5209"
         offset="0"
         style="stop-color:#000015;stop-opacity:1;" />
    </linearGradient>
    <clipPath
       id="clipPath3006-9-8"
       clipPathUnits="userSpaceOnUse">
      <path
         inkscape:export-ydpi="90"
         inkscape:export-xdpi="90"
         transform="matrix(1.2020779,0,0,1.2020779,-93.20363,-75.172465)"
         d="m 483,275.5 a 192.5,192.5 0 1 1 -385,0 192.5,192.5 0 1 1 385,0 z"
         sodipodi:ry="192.5"
         sodipodi:rx="192.5"
         sodipodi:cy="275.5"
         sodipodi:cx="290.5"
         id="path3008-1-1"
         style="fill:#ffffff;fill-opacity:1;stroke:none;display:inline"
         sodipodi:type="arc" />
    </clipPath>
    <mask
       id="mask3818-4"
       maskUnits="userSpaceOnUse">
      <path
         sodipodi:type="arc"
         style="fill:#ffffff;fill-opacity:1;stroke:none;display:inline"
         id="path3820-9"
         sodipodi:cx="290.5"
         sodipodi:cy="275.5"
         sodipodi:rx="192.5"
         sodipodi:ry="192.5"
         d="m 483,275.5 a 192.5,192.5 0 1 1 -385,0 192.5,192.5 0 1 1 385,0 z"
         transform="matrix(1.2020779,0,0,1.2020779,-93.20363,-75.172466)"
         inkscape:export-xdpi="90"
         inkscape:export-ydpi="90" />
    </mask>
    <clipPath
       id="clipPath3006"
       clipPathUnits="userSpaceOnUse">
      <path
         inkscape:export-ydpi="90"
         inkscape:export-xdpi="90"
         transform="matrix(1.2020779,0,0,1.2020779,-93.20363,-75.172465)"
         d="m 483,275.5 a 192.5,192.5 0 1 1 -385,0 192.5,192.5 0 1 1 385,0 z"
         sodipodi:ry="192.5"
         sodipodi:rx="192.5"
         sodipodi:cy="275.5"
         sodipodi:cx="290.5"
         id="path3008"
         style="fill:#ffffff;fill-opacity:1;stroke:none;display:inline"
         sodipodi:type="arc" />
    </clipPath>
    <clipPath
       id="clipPath3006-9"
       clipPathUnits="userSpaceOnUse">
      <path
         inkscape:export-ydpi="90"
         inkscape:export-xdpi="90"
         transform="matrix(1.2020779,0,0,1.2020779,-93.20363,-75.172465)"
         d="m 483,275.5 a 192.5,192.5 0 1 1 -385,0 192.5,192.5 0 1 1 385,0 z"
         sodipodi:ry="192.5"
         sodipodi:rx="192.5"
         sodipodi:cy="275.5"
         sodipodi:cx="290.5"
         id="path3008-1"
         style="fill:#ffffff;fill-opacity:1;stroke:none;display:inline"
         sodipodi:type="arc" />
    </clipPath>
    <mask
       maskUnits="userSpaceOnUse"
       id="mask3818-0">
      <path
         inkscape:export-ydpi="90"
         inkscape:export-xdpi="90"
         transform="matrix(1.2020779,0,0,1.2020779,-93.20363,-75.172466)"
         d="m 483,275.5 a 192.5,192.5 0 1 1 -385,0 192.5,192.5 0 1 1 385,0 z"
         sodipodi:ry="192.5"
         sodipodi:rx="192.5"
         sodipodi:cy="275.5"
         sodipodi:cx="290.5"
         id="path3820-8"
         style="fill:#ffffff;fill-opacity:1;stroke:none;display:inline"
         sodipodi:type="arc" />
    </mask>
    <mask
       maskUnits="userSpaceOnUse"
       id="mask3818-2">
      <path
         inkscape:export-ydpi="90"
         inkscape:export-xdpi="90"
         transform="matrix(1.2020779,0,0,1.2020779,-93.20363,-75.172466)"
         d="m 483,275.5 a 192.5,192.5 0 1 1 -385,0 192.5,192.5 0 1 1 385,0 z"
         sodipodi:ry="192.5"
         sodipodi:rx="192.5"
         sodipodi:cy="275.5"
         sodipodi:cx="290.5"
         id="path3820-2-2"
         style="fill:#ffffff;fill-opacity:1;stroke:none;display:inline"
         sodipodi:type="arc" />
    </mask>
    <clipPath
       id="clipPath3934"
       clipPathUnits="userSpaceOnUse">
      <path
         id="path3936"
         d="m 0,0 0,1024 1024,0 L 1024,0 0,0 z m 278.4375,333.84375 119.78125,0 c 9.83697,42.31453 19.85954,84.58596 29.9375,126.84375 9.86978,-42.28798 20.05132,-84.50237 29.6875,-126.84375 l 108.90625,0 c 9.63586,42.34141 19.8178,84.55578 29.6875,126.84375 10.07827,-42.25772 20.10031,-84.52927 29.9375,-126.84375 l 119.1875,0 c -26.26221,110.73099 -52.49625,221.46929 -78.28125,332.3125 l -122.8125,0 c -10.59439,-45.55681 -21.46638,-91.04874 -32.375,-136.53125 -10.66279,45.51136 -21.5615,90.96897 -32,136.53125 l -122.8125,0 c -25.71418,-110.03502 -52.0286,-219.92873 -78.25,-329.84375 l -0.59375,-2.46875 z"
         style="fill:#ff3232;fill-opacity:1;stroke:none"
         inkscape:connector-curvature="0" />
    </clipPath>
    <clipPath
       id="clipPath3929"
       clipPathUnits="userSpaceOnUse">
      <path
         inkscape:connector-curvature="0"
         style="fill:#ff3232;fill-opacity:1;stroke:none"
         d="m 0,0 0,1024 1024,0 L 1024,0 0,0 z m 278.4375,333.84375 119.78125,0 c 9.83697,42.31453 19.85954,84.58596 29.9375,126.84375 9.86978,-42.28798 20.05132,-84.50237 29.6875,-126.84375 l 108.90625,0 c 9.63586,42.34141 19.8178,84.55578 29.6875,126.84375 10.07827,-42.25772 20.10031,-84.52927 29.9375,-126.84375 l 119.1875,0 c -26.26221,110.73099 -52.49625,221.46929 -78.28125,332.3125 l -122.8125,0 c -10.59439,-45.55681 -21.46638,-91.04874 -32.375,-136.53125 -10.66279,45.51136 -21.5615,90.96897 -32,136.53125 l -122.8125,0 c -25.71418,-110.03502 -52.0286,-219.92873 -78.25,-329.84375 l -0.59375,-2.46875 z"
         id="path3931" />
    </clipPath>
    <mask
       maskUnits="userSpaceOnUse"
       id="mask3818">
      <path
         inkscape:export-ydpi="90"
         inkscape:export-xdpi="90"
         transform="matrix(1.2020779,0,0,1.2020779,-93.20363,-75.172466)"
         d="m 483,275.5 a 192.5,192.5 0 1 1 -385,0 192.5,192.5 0 1 1 385,0 z"
         sodipodi:ry="192.5"
         sodipodi:rx="192.5"
         sodipodi:cy="275.5"
         sodipodi:cx="290.5"
         id="path3820"
         style="fill:#ffffff;fill-opacity:1;stroke:none;display:inline"
         sodipodi:type="arc" />
    </mask>
    <linearGradient
       inkscape:collect="always"
       xlink:href="#linearGradient4573"
       id="linearGradient4575"
       x1="408.84314"
       y1="89.26915"
       x2="420.61133"
       y2="138.41306"
       gradientUnits="userSpaceOnUse"
       gradientTransform="matrix(0.99657796,0,0,1,1.2520606,0)" />
    <linearGradient
       inkscape:collect="always"
       xlink:href="#linearGradient8384"
       id="linearGradient6771"
       gradientUnits="userSpaceOnUse"
       gradientTransform="matrix(0.99657796,0,0,1,1.2520606,0)"
       x1="408.84314"
       y1="89.26915"
       x2="420.61133"
       y2="138.41306" />
  </defs>
  <metadata
     id="metadata4713">
    <rdf:RDF>
      <cc:Work
         rdf:about="">
        <dc:format>image/svg+xml</dc:format>
        <dc:type
           rdf:resource="http://purl.org/dc/dcmitype/StillImage" />
        <dc:title></dc:title>
      </cc:Work>
    </rdf:RDF>
  </metadata>
  <g
     id="layer1"
     inkscape:groupmode="layer"
     inkscape:label="Capa 1">
    <path
       style="opacity:1;fill:#e9eceb;fill-opacity:1;fill-rule:evenodd;stroke:#00ab7f;stroke-width:2;stroke-linejoin:round;stroke-miterlimit:4;stroke-dasharray:none;stroke-dashoffset:0;stroke-opacity:1;paint-order:normal"
       d="m 97.583979,29.700195 c -11.07875,0 -19.99804,9.65194 -19.99804,21.64062 V 460.66113 c 0,11.9887 8.91929,21.63867 19.99804,21.63867 H 414.41602 c 11.07874,0 19.99804,-9.64997 19.99804,-21.63867 V 113.7959 c -0.33411,-0.32981 -0.46874,-0.43168 -0.81445,-0.77345 -9.64188,-9.53205 -23.80681,-23.701345 -37.64453,-37.822255 -6.91884,-7.06045 -13.75546,-14.10994 -19.9043,-20.56055 -6.14876,-6.45062 -11.60929,-12.30327 -15.77539,-16.97265 -3.0827,-3.45513 -4.82334,-5.68286 -6.625,-7.9668 z"
       id="path4506"
       inkscape:connector-curvature="0"
       sodipodi:nodetypes="ssssssccccccs" />
    <g
       id="g4584"
       transform="matrix(0.3829248,0,0,0.3829248,74.406719,31.973725)"
       style="fill:#75abd3;fill-opacity:1;stroke:#9dc4df;stroke-opacity:1" />
    <path
       style="opacity:1;fill:url(#linearGradient6771);fill-opacity:1;fill-rule:evenodd;stroke:none;stroke-width:8.77774811;stroke-linecap:square;stroke-linejoin:miter;stroke-miterlimit:4;stroke-dasharray:none;stroke-dashoffset:0;stroke-opacity:1;paint-order:markers fill stroke"
       d="m 433.28939,182.37584 v -69.47028 c 0,-0.0394 -0.0309,-0.0705 -0.0703,-0.0705 h -67.33747 c 4.09851,4.50878 8.40749,9.2132 13.77948,14.86279 7.205,7.57734 15.21697,15.8602 23.32513,24.15489 11.13885,11.3951 20.83136,21.05949 30.30308,30.52302 z"
       id="path4566"
       inkscape:connector-curvature="0" />
    <path
       style="opacity:1;fill:#00ab7f;fill-opacity:1;fill-rule:evenodd;stroke:none;stroke-width:1.05391276;stroke-linejoin:round;stroke-miterlimit:4;stroke-dasharray:none;stroke-dashoffset:0;stroke-opacity:1;paint-order:normal"
       d="m 435.00048,114.60612 c -1.83541,-2.30475 -3.6077,-4.55306 -6.74972,-8.04125 -4.24635,-4.71409 -9.8132,-10.623129 -16.08223,-17.137261 C 405.8996,82.913483 398.92921,75.794273 391.8744,68.663457 377.76477,54.401804 363.32068,40.090503 353.48814,30.462087 c -0.35278,-0.345219 -0.4898,-0.448268 -0.83055,-0.781422 l -0.24394,62.802323 c -0.0467,12.055462 9.04538,21.800782 20.38588,21.850482 z"
       id="rect4485"
       inkscape:connector-curvature="0" />
    <path
       style="opacity:1;fill:#00ab7f;fill-opacity:1;fill-rule:evenodd;stroke:#dff0eb;stroke-width:1.05900002;stroke-linecap:square;stroke-linejoin:miter;stroke-miterlimit:4;stroke-dasharray:none;stroke-dashoffset:0;stroke-opacity:1;paint-order:markers fill stroke"
       d="M 126.86914 380.81641 C 121.84703 380.81641 117.66057 381.0268 114.3125 381.44531 C 111.03418 381.79407 108.59257 382.072 106.98828 382.28125 L 106.98828 456.98633 C 110.61536 457.61409 113.65049 457.92773 116.0918 457.92773 C 117.34732 457.92773 118.70709 457.85825 120.17188 457.71875 C 121.63666 457.57925 123.2763 457.33509 125.08984 456.98633 L 125.08984 432.60742 C 125.64786 432.74692 126.58878 432.88589 127.91406 433.02539 C 129.30909 433.09514 130.66886 433.13086 131.99414 433.13086 C 135.34222 433.13086 138.58579 432.71202 141.72461 431.875 C 144.93318 431.03798 147.75987 429.6425 150.20117 427.68945 C 152.71223 425.73641 154.69928 423.12207 156.16406 419.84375 C 157.6986 416.56543 158.46484 412.45041 158.46484 407.49805 C 158.46484 401.91792 157.52392 397.38406 155.64062 393.89648 C 153.75733 390.40891 151.28196 387.72314 148.21289 385.83984 C 145.21357 383.8868 141.82908 382.5608 138.0625 381.86328 C 134.29592 381.16577 130.56597 380.81641 126.86914 380.81641 z M 193.30078 380.81641 C 189.32494 380.81641 185.73201 381.34045 182.52344 382.38672 C 179.31487 383.36324 176.55961 384.86197 174.25781 386.88477 C 172.02576 388.83781 170.28287 391.24565 169.02734 394.10547 C 167.77182 396.96528 167.14258 400.24262 167.14258 403.93945 C 167.14258 406.93877 167.52765 409.55506 168.29492 411.78711 C 169.13194 414.01916 170.28131 416.00621 171.74609 417.75 C 173.21088 419.42404 174.95572 420.889 176.97852 422.14453 C 179.07106 423.40006 181.37176 424.4819 183.88281 425.38867 L 189.74219 427.58594 C 190.64896 427.9347 191.52236 428.31782 192.35938 428.73633 C 193.26615 429.08509 194.06811 429.53769 194.76562 430.0957 C 195.46314 430.65372 196.02094 431.35243 196.43945 432.18945 C 196.85796 432.95672 197.06641 433.89765 197.06641 435.01367 C 197.06641 437.66423 196.056 439.54804 194.0332 440.66406 C 192.08016 441.71034 189.32491 442.23438 185.76758 442.23438 C 181.02447 442.23437 175.44449 440.83889 169.02734 438.04883 C 168.05082 440.90864 167.21314 443.73338 166.51562 446.52344 C 165.81811 449.24375 165.32979 451.82432 165.05078 454.26562 C 168.88712 455.73041 172.44433 456.81225 175.72266 457.50977 C 179.07073 458.20728 182.90783 458.55469 187.23242 458.55469 C 191.97553 458.55469 196.16003 457.99688 199.78711 456.88086 C 203.48394 455.69508 206.58855 454.05544 209.09961 451.96289 C 211.61067 449.80059 213.49252 447.25574 214.74805 444.32617 C 216.07333 441.32685 216.73633 437.97808 216.73633 434.28125 C 216.73633 430.86342 216.28372 427.96921 215.37695 425.59766 C 214.47018 423.15635 213.1799 421.09787 211.50586 419.42383 C 209.83182 417.68004 207.80905 416.21703 205.4375 415.03125 C 203.1357 413.77572 200.51941 412.55492 197.58984 411.36914 L 192.56836 409.38086 C 190.75482 408.68334 189.18465 407.84566 187.85938 406.86914 C 186.5341 405.89262 185.87109 404.39389 185.87109 402.37109 C 185.87109 401.18532 186.11525 400.20867 186.60352 399.44141 C 187.09178 398.60439 187.72101 397.97515 188.48828 397.55664 C 189.3253 397.06838 190.23051 396.72097 191.20703 396.51172 C 192.2533 396.30246 193.33515 396.19727 194.45117 396.19727 C 198.07825 396.19727 201.11143 396.61611 203.55273 397.45312 C 205.99404 398.29014 208.12201 399.09211 209.93555 399.85938 C 211.05157 397.48782 211.95873 394.97673 212.65625 392.32617 C 213.42352 389.60586 213.94756 387.13049 214.22656 384.89844 C 210.45998 383.57316 206.90081 382.5608 203.55273 381.86328 C 200.27441 381.16577 196.85811 380.81641 193.30078 380.81641 z M 126.76367 396.40625 L 128.22852 396.40625 C 129.76305 396.40625 131.22802 396.58093 132.62305 396.92969 C 134.01808 397.27845 135.23888 397.90573 136.28516 398.8125 C 137.33143 399.64952 138.13339 400.80084 138.69141 402.26562 C 139.31917 403.66066 139.63281 405.4055 139.63281 407.49805 C 139.63281 411.05538 138.69189 413.70543 136.80859 415.44922 C 134.9253 417.19301 132.48369 418.06445 129.48438 418.06445 C 128.5776 418.06445 127.70616 418.02874 126.86914 417.95898 C 126.03212 417.88923 125.4386 417.78599 125.08984 417.64648 L 125.08984 396.51172 C 125.64786 396.44197 126.20566 396.40625 126.76367 396.40625 z "
       id="rect4610-6" />
    <g
       id="g4657"
       transform="translate(-364.2,-215.122)"
       style="fill:none;fill-opacity:1;stroke:#00ab7f;stroke-opacity:1;stroke-width:5;stroke-miterlimit:4;stroke-dasharray:none">
      <path
         id="path4705"
         style="fill:none;fill-opacity:1;stroke:#00ab7f;stroke-width:10;stroke-linecap:round;stroke-linejoin:round;stroke-miterlimit:4;stroke-dasharray:none;stroke-opacity:1"
         d="m 555.32127,506.31359 h 129.76041 v 66.0787 H 555.32127 Z m 15.73762,26.32824 h 98.30299 m -98.30299,19.66831 h 98.30299 M 555.32127,369.85171 h 129.76041 v 66.0787 H 555.32127 Z m -21.62625,95.95347 H 704.74703 M 553.95665,522.80916 H 526.9016 c -8.19194,0 -14.83281,-6.64087 -14.83281,-14.83281 v -56.84083 c 0,-8.19193 6.64087,-14.83281 14.83281,-14.83281 h 186.59679 c 8.19194,0 14.83282,6.64088 14.83282,14.83281 v 56.84083 c 0,8.19194 -6.64088,14.83281 -14.83282,14.83281 h -27.04615"
         inkscape:connector-curvature="0"
         sodipodi:nodetypes="cccccccccccccccccssssssssc" />
    </g>
  </g>
</svg>
