<?xml version="1.0" encoding="UTF-8" standalone="no"?>
<!-- Created with Inkscape (http://www.inkscape.org/) -->

<svg
   xmlns:osb="http://www.openswatchbook.org/uri/2009/osb"
   xmlns:dc="http://purl.org/dc/elements/1.1/"
   xmlns:cc="http://creativecommons.org/ns#"
   xmlns:rdf="http://www.w3.org/1999/02/22-rdf-syntax-ns#"
   xmlns:svg="http://www.w3.org/2000/svg"
   xmlns="http://www.w3.org/2000/svg"
   xmlns:xlink="http://www.w3.org/1999/xlink"
   xmlns:sodipodi="http://sodipodi.sourceforge.net/DTD/sodipodi-0.dtd"
   xmlns:inkscape="http://www.inkscape.org/namespaces/inkscape"
   width="512px"
   height="512px"
   viewBox="0 0 512 512"
   version="1.1"
   id="SVGRoot"
   inkscape:version="0.92.1 r15371"
   sodipodi:docname="psgz.svg">
  <sodipodi:namedview
     id="base"
     pagecolor="#ffffff"
     bordercolor="#666666"
     borderopacity="1.0"
     inkscape:pageopacity="0.0"
     inkscape:pageshadow="2"
     inkscape:zoom="0.50000001"
     inkscape:cx="130.03249"
     inkscape:cy="245.60432"
     inkscape:document-units="px"
     inkscape:current-layer="layer1"
     showgrid="false"
     inkscape:window-width="1280"
     inkscape:window-height="947"
     inkscape:window-x="0"
     inkscape:window-y="0"
     inkscape:window-maximized="1" />
  <defs
     id="defs4710">
    <linearGradient
       inkscape:collect="always"
       id="linearGradient4573">
      <stop
         style="stop-color:#181818;stop-opacity:0.30645162"
         offset="0"
         id="stop4569" />
      <stop
         style="stop-color:#404040;stop-opacity:0"
         offset="1"
         id="stop4571" />
    </linearGradient>
    <marker
       inkscape:stockid="DotM"
       orient="auto"
       refY="0.0"
       refX="0.0"
       id="DotM"
       style="overflow:visible"
       inkscape:isstock="true">
      <path
         id="path4618"
         d="M -2.5,-1.0 C -2.5,1.7600000 -4.7400000,4.0 -7.5,4.0 C -10.260000,4.0 -12.5,1.7600000 -12.5,-1.0 C -12.5,-3.7600000 -10.260000,-6.0 -7.5,-6.0 C -4.7400000,-6.0 -2.5,-3.7600000 -2.5,-1.0 z "
         style="fill-rule:evenodd;stroke:#000000;stroke-width:1.0pt"
         transform="scale(0.4) translate(7.4, 1)" />
    </marker>
    <linearGradient
       osb:paint="solid"
       id="linearGradient5207">
      <stop
         id="stop5209"
         offset="0"
         style="stop-color:#000015;stop-opacity:1;" />
    </linearGradient>
    <clipPath
       id="clipPath3006-9-8"
       clipPathUnits="userSpaceOnUse">
      <path
         inkscape:export-ydpi="90"
         inkscape:export-xdpi="90"
         transform="matrix(1.2020779,0,0,1.2020779,-93.20363,-75.172465)"
         d="m 483,275.5 a 192.5,192.5 0 1 1 -385,0 192.5,192.5 0 1 1 385,0 z"
         sodipodi:ry="192.5"
         sodipodi:rx="192.5"
         sodipodi:cy="275.5"
         sodipodi:cx="290.5"
         id="path3008-1-1"
         style="fill:#ffffff;fill-opacity:1;stroke:none;display:inline"
         sodipodi:type="arc" />
    </clipPath>
    <mask
       id="mask3818-4"
       maskUnits="userSpaceOnUse">
      <path
         sodipodi:type="arc"
         style="fill:#ffffff;fill-opacity:1;stroke:none;display:inline"
         id="path3820-9"
         sodipodi:cx="290.5"
         sodipodi:cy="275.5"
         sodipodi:rx="192.5"
         sodipodi:ry="192.5"
         d="m 483,275.5 a 192.5,192.5 0 1 1 -385,0 192.5,192.5 0 1 1 385,0 z"
         transform="matrix(1.2020779,0,0,1.2020779,-93.20363,-75.172466)"
         inkscape:export-xdpi="90"
         inkscape:export-ydpi="90" />
    </mask>
    <clipPath
       id="clipPath3006"
       clipPathUnits="userSpaceOnUse">
      <path
         inkscape:export-ydpi="90"
         inkscape:export-xdpi="90"
         transform="matrix(1.2020779,0,0,1.2020779,-93.20363,-75.172465)"
         d="m 483,275.5 a 192.5,192.5 0 1 1 -385,0 192.5,192.5 0 1 1 385,0 z"
         sodipodi:ry="192.5"
         sodipodi:rx="192.5"
         sodipodi:cy="275.5"
         sodipodi:cx="290.5"
         id="path3008"
         style="fill:#ffffff;fill-opacity:1;stroke:none;display:inline"
         sodipodi:type="arc" />
    </clipPath>
    <clipPath
       id="clipPath3006-9"
       clipPathUnits="userSpaceOnUse">
      <path
         inkscape:export-ydpi="90"
         inkscape:export-xdpi="90"
         transform="matrix(1.2020779,0,0,1.2020779,-93.20363,-75.172465)"
         d="m 483,275.5 a 192.5,192.5 0 1 1 -385,0 192.5,192.5 0 1 1 385,0 z"
         sodipodi:ry="192.5"
         sodipodi:rx="192.5"
         sodipodi:cy="275.5"
         sodipodi:cx="290.5"
         id="path3008-1"
         style="fill:#ffffff;fill-opacity:1;stroke:none;display:inline"
         sodipodi:type="arc" />
    </clipPath>
    <mask
       maskUnits="userSpaceOnUse"
       id="mask3818-0">
      <path
         inkscape:export-ydpi="90"
         inkscape:export-xdpi="90"
         transform="matrix(1.2020779,0,0,1.2020779,-93.20363,-75.172466)"
         d="m 483,275.5 a 192.5,192.5 0 1 1 -385,0 192.5,192.5 0 1 1 385,0 z"
         sodipodi:ry="192.5"
         sodipodi:rx="192.5"
         sodipodi:cy="275.5"
         sodipodi:cx="290.5"
         id="path3820-8"
         style="fill:#ffffff;fill-opacity:1;stroke:none;display:inline"
         sodipodi:type="arc" />
    </mask>
    <mask
       maskUnits="userSpaceOnUse"
       id="mask3818-2">
      <path
         inkscape:export-ydpi="90"
         inkscape:export-xdpi="90"
         transform="matrix(1.2020779,0,0,1.2020779,-93.20363,-75.172466)"
         d="m 483,275.5 a 192.5,192.5 0 1 1 -385,0 192.5,192.5 0 1 1 385,0 z"
         sodipodi:ry="192.5"
         sodipodi:rx="192.5"
         sodipodi:cy="275.5"
         sodipodi:cx="290.5"
         id="path3820-2-2"
         style="fill:#ffffff;fill-opacity:1;stroke:none;display:inline"
         sodipodi:type="arc" />
    </mask>
    <clipPath
       id="clipPath3934"
       clipPathUnits="userSpaceOnUse">
      <path
         id="path3936"
         d="m 0,0 0,1024 1024,0 L 1024,0 0,0 z m 278.4375,333.84375 119.78125,0 c 9.83697,42.31453 19.85954,84.58596 29.9375,126.84375 9.86978,-42.28798 20.05132,-84.50237 29.6875,-126.84375 l 108.90625,0 c 9.63586,42.34141 19.8178,84.55578 29.6875,126.84375 10.07827,-42.25772 20.10031,-84.52927 29.9375,-126.84375 l 119.1875,0 c -26.26221,110.73099 -52.49625,221.46929 -78.28125,332.3125 l -122.8125,0 c -10.59439,-45.55681 -21.46638,-91.04874 -32.375,-136.53125 -10.66279,45.51136 -21.5615,90.96897 -32,136.53125 l -122.8125,0 c -25.71418,-110.03502 -52.0286,-219.92873 -78.25,-329.84375 l -0.59375,-2.46875 z"
         style="fill:#ff3232;fill-opacity:1;stroke:none"
         inkscape:connector-curvature="0" />
    </clipPath>
    <clipPath
       id="clipPath3929"
       clipPathUnits="userSpaceOnUse">
      <path
         inkscape:connector-curvature="0"
         style="fill:#ff3232;fill-opacity:1;stroke:none"
         d="m 0,0 0,1024 1024,0 L 1024,0 0,0 z m 278.4375,333.84375 119.78125,0 c 9.83697,42.31453 19.85954,84.58596 29.9375,126.84375 9.86978,-42.28798 20.05132,-84.50237 29.6875,-126.84375 l 108.90625,0 c 9.63586,42.34141 19.8178,84.55578 29.6875,126.84375 10.07827,-42.25772 20.10031,-84.52927 29.9375,-126.84375 l 119.1875,0 c -26.26221,110.73099 -52.49625,221.46929 -78.28125,332.3125 l -122.8125,0 c -10.59439,-45.55681 -21.46638,-91.04874 -32.375,-136.53125 -10.66279,45.51136 -21.5615,90.96897 -32,136.53125 l -122.8125,0 c -25.71418,-110.03502 -52.0286,-219.92873 -78.25,-329.84375 l -0.59375,-2.46875 z"
         id="path3931" />
    </clipPath>
    <mask
       maskUnits="userSpaceOnUse"
       id="mask3818">
      <path
         inkscape:export-ydpi="90"
         inkscape:export-xdpi="90"
         transform="matrix(1.2020779,0,0,1.2020779,-93.20363,-75.172466)"
         d="m 483,275.5 a 192.5,192.5 0 1 1 -385,0 192.5,192.5 0 1 1 385,0 z"
         sodipodi:ry="192.5"
         sodipodi:rx="192.5"
         sodipodi:cy="275.5"
         sodipodi:cx="290.5"
         id="path3820"
         style="fill:#ffffff;fill-opacity:1;stroke:none;display:inline"
         sodipodi:type="arc" />
    </mask>
    <linearGradient
       inkscape:collect="always"
       xlink:href="#linearGradient4573"
       id="linearGradient4575"
       x1="408.84314"
       y1="89.26915"
       x2="420.61133"
       y2="138.41306"
       gradientUnits="userSpaceOnUse"
       gradientTransform="matrix(0.99657796,0,0,1,1.2520606,0)" />
  </defs>
  <metadata
     id="metadata4713">
    <rdf:RDF>
      <cc:Work
         rdf:about="">
        <dc:format>image/svg+xml</dc:format>
        <dc:type
           rdf:resource="http://purl.org/dc/dcmitype/StillImage" />
        <dc:title></dc:title>
      </cc:Work>
    </rdf:RDF>
  </metadata>
  <g
     id="layer1"
     inkscape:groupmode="layer"
     inkscape:label="Capa 1">
    <path
       style="opacity:1;fill:#f4f5f6;fill-opacity:1;fill-rule:evenodd;stroke:#658aba;stroke-width:2;stroke-linejoin:round;stroke-miterlimit:4;stroke-dasharray:none;stroke-dashoffset:0;stroke-opacity:1;paint-order:normal"
       d="m 97.583979,29.700195 c -11.07875,0 -19.99804,9.65194 -19.99804,21.64062 V 460.66113 c 0,11.9887 8.91929,21.63867 19.99804,21.63867 H 414.41602 c 11.07874,0 19.99804,-9.64997 19.99804,-21.63867 V 113.7959 c -0.33411,-0.32981 -0.46874,-0.43168 -0.81445,-0.77345 -9.64188,-9.53205 -23.80681,-23.701345 -37.64453,-37.822255 -6.91884,-7.06045 -13.75546,-14.10994 -19.9043,-20.56055 -6.14876,-6.45062 -11.60929,-12.30327 -15.77539,-16.97265 -3.0827,-3.45513 -4.82334,-5.68286 -6.625,-7.9668 z"
       id="path4506"
       inkscape:connector-curvature="0"
       sodipodi:nodetypes="ssssssccccccs" />
    <g
       id="g4584"
       transform="matrix(0.3829248,0,0,0.3829248,74.406719,31.973725)"
       style="fill:#75abd3;fill-opacity:1;stroke:#9dc4df;stroke-opacity:1" />
    <path
       style="opacity:1;fill:#d5dee2;fill-opacity:1;fill-rule:evenodd;stroke:#f4f6f8;stroke-width:1.16438401;stroke-linecap:square;stroke-linejoin:miter;stroke-miterlimit:4;stroke-dasharray:none;stroke-dashoffset:0;stroke-opacity:1;paint-order:markers fill stroke"
       d="M 174.01758 401.95117 C 170.87876 401.95117 167.60142 402.09209 164.18359 402.37109 C 160.83552 402.58035 157.55623 402.92775 154.34766 403.41602 L 154.34766 457.19531 C 156.1612 457.54407 157.73136 457.75251 159.05664 457.82227 C 160.45167 457.96177 161.74196 458.03125 162.92773 458.03125 C 164.04376 458.03125 165.29833 457.96177 166.69336 457.82227 C 168.15814 457.75251 169.79779 457.54407 171.61133 457.19531 L 171.61133 444.32617 C 171.82058 444.39592 172.34462 444.4654 173.18164 444.53516 C 174.01866 444.60491 175.02907 444.64063 176.21484 444.64062 C 179.14441 444.64063 182.00486 444.29127 184.79492 443.59375 C 187.65474 442.82648 190.19959 441.60568 192.43164 439.93164 C 194.66369 438.2576 196.4423 436.06015 197.76758 433.33984 C 199.16261 430.61953 199.86133 427.27076 199.86133 423.29492 C 199.86133 418.90057 199.09313 415.34336 197.55859 412.62305 C 196.09381 409.83298 194.14052 407.67125 191.69922 406.13672 C 189.25791 404.53243 186.50266 403.45059 183.43359 402.89258 C 180.36453 402.26481 177.22615 401.95117 174.01758 401.95117 z M 228.80273 401.95117 C 225.45466 401.95117 222.38577 402.37001 219.5957 403.20703 C 216.87539 404.04405 214.50522 405.26485 212.48242 406.86914 C 210.45963 408.40367 208.88946 410.28748 207.77344 412.51953 C 206.65741 414.75158 206.09961 417.22695 206.09961 419.94727 C 206.09961 424.27186 207.32041 427.69012 209.76172 430.20117 C 212.20302 432.71223 215.27192 434.49084 218.96875 435.53711 L 226.08398 437.52539 C 227.26976 437.87415 228.31589 438.29299 229.22266 438.78125 C 230.12943 439.19976 230.58203 439.86081 230.58203 440.76758 C 230.58203 441.46509 230.33787 442.02485 229.84961 442.44336 C 229.4311 442.86187 228.8733 443.20928 228.17578 443.48828 C 227.47827 443.69754 226.6763 443.83845 225.76953 443.9082 C 224.86276 443.97795 223.99132 444.01172 223.1543 444.01172 C 220.71299 444.01172 218.27138 443.76756 215.83008 443.2793 C 213.38877 442.72128 211.05236 441.91932 208.82031 440.87305 C 206.58826 445.75566 205.29798 450.56939 204.94922 455.3125 C 208.15779 456.49828 211.19097 457.334 214.05078 457.82227 C 216.9106 458.31053 220.01521 458.55469 223.36328 458.55469 C 227.40887 458.55469 230.96609 458.06637 234.03516 457.08984 C 237.17398 456.11332 239.79027 454.78927 241.88281 453.11523 C 244.04511 451.4412 245.64904 449.45219 246.69531 447.15039 C 247.81134 444.84859 248.36914 442.37322 248.36914 439.72266 C 248.36914 437.14185 248.01978 434.9444 247.32227 433.13086 C 246.62475 431.31732 245.64811 429.78287 244.39258 428.52734 C 243.2068 427.27182 241.74184 426.25945 239.99805 425.49219 C 238.32401 424.65517 236.44216 423.9584 234.34961 423.40039 L 227.54883 421.62109 C 226.57231 421.34209 225.69891 420.99468 224.93164 420.57617 C 224.16437 420.15766 223.78125 419.56414 223.78125 418.79688 C 223.78125 416.98333 225.4209 416.07617 228.69922 416.07617 C 230.93127 416.07617 233.37288 416.38981 236.02344 417.01758 C 238.674 417.64534 240.94093 418.34406 242.82422 419.11133 C 243.80074 417.15828 244.67219 414.92512 245.43945 412.41406 C 246.20672 409.83325 246.65933 407.42736 246.79883 405.19531 C 243.72976 404.14904 240.6271 403.34707 237.48828 402.78906 C 234.34946 402.23105 231.45329 401.95117 228.80273 401.95117 z M 283.49219 401.95117 C 278.81883 401.95117 274.70381 402.68365 271.14648 404.14844 C 267.58915 405.61322 264.58974 407.60223 262.14844 410.11328 C 259.77688 412.62434 257.96256 415.58803 256.70703 419.00586 C 255.52125 422.42369 254.92969 426.05038 254.92969 429.88672 C 254.92969 433.86256 255.41801 437.59445 256.39453 441.08203 C 257.4408 444.56961 259.0785 447.60474 261.31055 450.18555 C 263.5426 452.76635 266.40305 454.82289 269.89062 456.35742 C 273.44795 457.8222 277.73765 458.55469 282.75977 458.55469 C 287.57262 458.55469 291.79284 458.10208 295.41992 457.19531 C 299.047 456.28854 301.87174 455.45086 303.89453 454.68359 L 303.89453 428.10938 C 300.54646 427.48161 297.65224 427.16602 295.21094 427.16602 C 293.95541 427.16602 292.62941 427.23745 291.23438 427.37695 C 289.9091 427.51646 288.37465 427.76062 286.63086 428.10938 L 286.63086 443.48828 L 284.74805 443.48828 C 280.84196 443.48828 277.87826 442.40839 275.85547 440.24609 C 273.83267 438.01404 272.82031 434.56007 272.82031 429.88672 C 272.82031 428.21268 273.02876 426.60875 273.44727 425.07422 C 273.93553 423.46993 274.66801 422.07445 275.64453 420.88867 C 276.62105 419.7029 277.91329 418.76197 279.51758 418.06445 C 281.12186 417.36694 283.0732 417.01758 285.375 417.01758 C 286.83978 417.01758 288.58463 417.26174 290.60742 417.75 C 292.63022 418.16851 294.82767 418.86723 297.19922 419.84375 C 297.82698 418.30922 298.34907 416.9475 298.76758 415.76172 C 299.25584 414.50619 299.64092 413.35682 299.91992 412.31055 C 300.26868 411.19452 300.5466 410.11268 300.75586 409.06641 C 300.96511 408.02013 301.10408 406.90453 301.17383 405.71875 C 297.68625 404.32372 294.47839 403.34707 291.54883 402.78906 C 288.61926 402.23105 285.93349 401.95117 283.49219 401.95117 z M 312.38672 403.20703 C 312.03796 404.67181 311.7938 405.9621 311.6543 407.07812 C 311.58455 408.1244 311.54883 409.17052 311.54883 410.2168 C 311.54883 411.26307 311.58455 412.37868 311.6543 413.56445 C 311.7938 414.68048 312.03796 416.00648 312.38672 417.54102 L 330.27734 417.54102 L 308.41016 454.16016 L 310.08398 457.29883 L 354.02734 457.29883 C 354.30635 455.83405 354.48103 454.57948 354.55078 453.5332 C 354.69028 452.41718 354.75977 451.33534 354.75977 450.28906 C 354.75977 448.26627 354.5156 445.82466 354.02734 442.96484 L 334.04297 442.96484 L 356.01562 406.55469 L 354.96875 403.20703 L 312.38672 403.20703 z M 173.18164 415.44922 L 174.43555 415.44922 C 176.73735 415.44922 178.65687 416.14598 180.19141 417.54102 C 181.79569 418.8663 182.59766 420.78387 182.59766 423.29492 C 182.59766 426.22449 181.79569 428.31869 180.19141 429.57422 C 178.65687 430.76 176.66787 431.35156 174.22656 431.35156 L 172.86719 431.35156 C 172.37893 431.28181 171.96009 431.21233 171.61133 431.14258 L 171.61133 415.55273 C 172.16934 415.48298 172.69338 415.44922 173.18164 415.44922 z "
       id="rect4610" />
    <path
       style="opacity:1;fill:url(#linearGradient4575);fill-opacity:1;fill-rule:evenodd;stroke:none;stroke-width:8.77774811;stroke-linecap:square;stroke-linejoin:miter;stroke-miterlimit:4;stroke-dasharray:none;stroke-dashoffset:0;stroke-opacity:1;paint-order:markers fill stroke"
       d="m 433.28939,182.37584 v -69.47028 c 0,-0.0394 -0.0309,-0.0705 -0.0703,-0.0705 h -67.33747 c 4.09851,4.50878 8.40749,9.2132 13.77948,14.86279 7.205,7.57734 15.21697,15.8602 23.32513,24.15489 11.13885,11.3951 20.83136,21.05949 30.30308,30.52302 z"
       id="path4566"
       inkscape:connector-curvature="0" />
    <path
       style="opacity:1;fill:#658aba;fill-opacity:1;fill-rule:evenodd;stroke:none;stroke-width:1.05391276;stroke-linejoin:round;stroke-miterlimit:4;stroke-dasharray:none;stroke-dashoffset:0;stroke-opacity:1;paint-order:normal"
       d="m 435.00048,114.60612 c -1.83541,-2.30475 -3.6077,-4.55306 -6.74972,-8.04125 -4.24635,-4.71409 -9.8132,-10.623129 -16.08223,-17.137261 C 405.8996,82.913483 398.92921,75.794273 391.8744,68.663457 377.76477,54.401804 363.32068,40.090503 353.48814,30.462087 c -0.35278,-0.345219 -0.4898,-0.448268 -0.83055,-0.781422 l -0.24394,62.802323 c -0.0467,12.055462 9.04538,21.800782 20.38588,21.850482 z"
       id="rect4485"
       inkscape:connector-curvature="0" />
    <rect
       x="243.4165"
       y="30.67886"
       style="fill:#658aba;fill-opacity:1;stroke:none;stroke-width:1.69799995;stroke-linecap:butt;stroke-linejoin:miter;stroke-miterlimit:4;stroke-dasharray:40.7519989, 40.7519989;stroke-dashoffset:0;stroke-opacity:1"
       width="25.166964"
       height="225.7319"
       id="rect4" />
    <path
       inkscape:connector-curvature="0"
       style="fill:#a4a9ad;stroke-width:1.69771731"
       d="m 256,237.73757 c -14.00107,0 -25.35201,34.38388 -25.35201,48.38495 0,14.00107 11.35094,25.35201 25.35201,25.35201 14.00108,0 25.35201,-11.35094 25.35201,-25.35201 0,-14.00107 -11.35093,-48.38495 -25.35201,-48.38495 z m 0,60.11788 c -6.48018,0 -11.73462,-5.25274 -11.73462,-11.73462 0,-6.48189 5.25273,-11.73463 11.73462,-11.73463 6.48019,0 11.73463,5.25274 11.73463,11.73463 0,6.48188 -5.25444,11.73462 -11.73463,11.73462 z"
       id="path6" />
  </g>
</svg>
