<?xml version="1.0" encoding="UTF-8" standalone="no"?>
<!-- Created with Inkscape (http://www.inkscape.org/) -->

<svg
   xmlns:osb="http://www.openswatchbook.org/uri/2009/osb"
   xmlns:dc="http://purl.org/dc/elements/1.1/"
   xmlns:cc="http://creativecommons.org/ns#"
   xmlns:rdf="http://www.w3.org/1999/02/22-rdf-syntax-ns#"
   xmlns:svg="http://www.w3.org/2000/svg"
   xmlns="http://www.w3.org/2000/svg"
   xmlns:xlink="http://www.w3.org/1999/xlink"
   xmlns:sodipodi="http://sodipodi.sourceforge.net/DTD/sodipodi-0.dtd"
   xmlns:inkscape="http://www.inkscape.org/namespaces/inkscape"
   width="512px"
   height="512px"
   viewBox="0 0 512 512"
   version="1.1"
   id="SVGRoot"
   inkscape:version="0.92.1 r15371"
   sodipodi:docname="qrc.svg">
  <sodipodi:namedview
     id="base"
     pagecolor="#ffffff"
     bordercolor="#666666"
     borderopacity="1.0"
     inkscape:pageopacity="0.0"
     inkscape:pageshadow="2"
     inkscape:zoom="1.4142136"
     inkscape:cx="222.25447"
     inkscape:cy="223.81289"
     inkscape:document-units="px"
     inkscape:current-layer="layer1"
     showgrid="false"
     inkscape:window-width="1280"
     inkscape:window-height="947"
     inkscape:window-x="0"
     inkscape:window-y="0"
     inkscape:window-maximized="1" />
  <defs
     id="defs4710">
    <linearGradient
       inkscape:collect="always"
       id="linearGradient4573">
      <stop
         style="stop-color:#181818;stop-opacity:0.30645162"
         offset="0"
         id="stop4569" />
      <stop
         style="stop-color:#404040;stop-opacity:0"
         offset="1"
         id="stop4571" />
    </linearGradient>
    <marker
       inkscape:stockid="DotM"
       orient="auto"
       refY="0.0"
       refX="0.0"
       id="DotM"
       style="overflow:visible"
       inkscape:isstock="true">
      <path
         id="path4618"
         d="M -2.5,-1.0 C -2.5,1.7600000 -4.7400000,4.0 -7.5,4.0 C -10.260000,4.0 -12.5,1.7600000 -12.5,-1.0 C -12.5,-3.7600000 -10.260000,-6.0 -7.5,-6.0 C -4.7400000,-6.0 -2.5,-3.7600000 -2.5,-1.0 z "
         style="fill-rule:evenodd;stroke:#000000;stroke-width:1.0pt"
         transform="scale(0.4) translate(7.4, 1)" />
    </marker>
    <linearGradient
       osb:paint="solid"
       id="linearGradient5207">
      <stop
         id="stop5209"
         offset="0"
         style="stop-color:#000015;stop-opacity:1;" />
    </linearGradient>
    <clipPath
       id="clipPath3006-9-8"
       clipPathUnits="userSpaceOnUse">
      <path
         inkscape:export-ydpi="90"
         inkscape:export-xdpi="90"
         transform="matrix(1.2020779,0,0,1.2020779,-93.20363,-75.172465)"
         d="m 483,275.5 a 192.5,192.5 0 1 1 -385,0 192.5,192.5 0 1 1 385,0 z"
         sodipodi:ry="192.5"
         sodipodi:rx="192.5"
         sodipodi:cy="275.5"
         sodipodi:cx="290.5"
         id="path3008-1-1"
         style="fill:#ffffff;fill-opacity:1;stroke:none;display:inline"
         sodipodi:type="arc" />
    </clipPath>
    <mask
       id="mask3818-4"
       maskUnits="userSpaceOnUse">
      <path
         sodipodi:type="arc"
         style="fill:#ffffff;fill-opacity:1;stroke:none;display:inline"
         id="path3820-9"
         sodipodi:cx="290.5"
         sodipodi:cy="275.5"
         sodipodi:rx="192.5"
         sodipodi:ry="192.5"
         d="m 483,275.5 a 192.5,192.5 0 1 1 -385,0 192.5,192.5 0 1 1 385,0 z"
         transform="matrix(1.2020779,0,0,1.2020779,-93.20363,-75.172466)"
         inkscape:export-xdpi="90"
         inkscape:export-ydpi="90" />
    </mask>
    <clipPath
       id="clipPath3006"
       clipPathUnits="userSpaceOnUse">
      <path
         inkscape:export-ydpi="90"
         inkscape:export-xdpi="90"
         transform="matrix(1.2020779,0,0,1.2020779,-93.20363,-75.172465)"
         d="m 483,275.5 a 192.5,192.5 0 1 1 -385,0 192.5,192.5 0 1 1 385,0 z"
         sodipodi:ry="192.5"
         sodipodi:rx="192.5"
         sodipodi:cy="275.5"
         sodipodi:cx="290.5"
         id="path3008"
         style="fill:#ffffff;fill-opacity:1;stroke:none;display:inline"
         sodipodi:type="arc" />
    </clipPath>
    <clipPath
       id="clipPath3006-9"
       clipPathUnits="userSpaceOnUse">
      <path
         inkscape:export-ydpi="90"
         inkscape:export-xdpi="90"
         transform="matrix(1.2020779,0,0,1.2020779,-93.20363,-75.172465)"
         d="m 483,275.5 a 192.5,192.5 0 1 1 -385,0 192.5,192.5 0 1 1 385,0 z"
         sodipodi:ry="192.5"
         sodipodi:rx="192.5"
         sodipodi:cy="275.5"
         sodipodi:cx="290.5"
         id="path3008-1"
         style="fill:#ffffff;fill-opacity:1;stroke:none;display:inline"
         sodipodi:type="arc" />
    </clipPath>
    <mask
       maskUnits="userSpaceOnUse"
       id="mask3818-0">
      <path
         inkscape:export-ydpi="90"
         inkscape:export-xdpi="90"
         transform="matrix(1.2020779,0,0,1.2020779,-93.20363,-75.172466)"
         d="m 483,275.5 a 192.5,192.5 0 1 1 -385,0 192.5,192.5 0 1 1 385,0 z"
         sodipodi:ry="192.5"
         sodipodi:rx="192.5"
         sodipodi:cy="275.5"
         sodipodi:cx="290.5"
         id="path3820-8"
         style="fill:#ffffff;fill-opacity:1;stroke:none;display:inline"
         sodipodi:type="arc" />
    </mask>
    <mask
       maskUnits="userSpaceOnUse"
       id="mask3818-2">
      <path
         inkscape:export-ydpi="90"
         inkscape:export-xdpi="90"
         transform="matrix(1.2020779,0,0,1.2020779,-93.20363,-75.172466)"
         d="m 483,275.5 a 192.5,192.5 0 1 1 -385,0 192.5,192.5 0 1 1 385,0 z"
         sodipodi:ry="192.5"
         sodipodi:rx="192.5"
         sodipodi:cy="275.5"
         sodipodi:cx="290.5"
         id="path3820-2-2"
         style="fill:#ffffff;fill-opacity:1;stroke:none;display:inline"
         sodipodi:type="arc" />
    </mask>
    <clipPath
       id="clipPath3934"
       clipPathUnits="userSpaceOnUse">
      <path
         id="path3936"
         d="m 0,0 0,1024 1024,0 L 1024,0 0,0 z m 278.4375,333.84375 119.78125,0 c 9.83697,42.31453 19.85954,84.58596 29.9375,126.84375 9.86978,-42.28798 20.05132,-84.50237 29.6875,-126.84375 l 108.90625,0 c 9.63586,42.34141 19.8178,84.55578 29.6875,126.84375 10.07827,-42.25772 20.10031,-84.52927 29.9375,-126.84375 l 119.1875,0 c -26.26221,110.73099 -52.49625,221.46929 -78.28125,332.3125 l -122.8125,0 c -10.59439,-45.55681 -21.46638,-91.04874 -32.375,-136.53125 -10.66279,45.51136 -21.5615,90.96897 -32,136.53125 l -122.8125,0 c -25.71418,-110.03502 -52.0286,-219.92873 -78.25,-329.84375 l -0.59375,-2.46875 z"
         style="fill:#ff3232;fill-opacity:1;stroke:none"
         inkscape:connector-curvature="0" />
    </clipPath>
    <clipPath
       id="clipPath3929"
       clipPathUnits="userSpaceOnUse">
      <path
         inkscape:connector-curvature="0"
         style="fill:#ff3232;fill-opacity:1;stroke:none"
         d="m 0,0 0,1024 1024,0 L 1024,0 0,0 z m 278.4375,333.84375 119.78125,0 c 9.83697,42.31453 19.85954,84.58596 29.9375,126.84375 9.86978,-42.28798 20.05132,-84.50237 29.6875,-126.84375 l 108.90625,0 c 9.63586,42.34141 19.8178,84.55578 29.6875,126.84375 10.07827,-42.25772 20.10031,-84.52927 29.9375,-126.84375 l 119.1875,0 c -26.26221,110.73099 -52.49625,221.46929 -78.28125,332.3125 l -122.8125,0 c -10.59439,-45.55681 -21.46638,-91.04874 -32.375,-136.53125 -10.66279,45.51136 -21.5615,90.96897 -32,136.53125 l -122.8125,0 c -25.71418,-110.03502 -52.0286,-219.92873 -78.25,-329.84375 l -0.59375,-2.46875 z"
         id="path3931" />
    </clipPath>
    <mask
       maskUnits="userSpaceOnUse"
       id="mask3818">
      <path
         inkscape:export-ydpi="90"
         inkscape:export-xdpi="90"
         transform="matrix(1.2020779,0,0,1.2020779,-93.20363,-75.172466)"
         d="m 483,275.5 a 192.5,192.5 0 1 1 -385,0 192.5,192.5 0 1 1 385,0 z"
         sodipodi:ry="192.5"
         sodipodi:rx="192.5"
         sodipodi:cy="275.5"
         sodipodi:cx="290.5"
         id="path3820"
         style="fill:#ffffff;fill-opacity:1;stroke:none;display:inline"
         sodipodi:type="arc" />
    </mask>
    <linearGradient
       inkscape:collect="always"
       xlink:href="#linearGradient4573"
       id="linearGradient4575"
       x1="408.84314"
       y1="89.26915"
       x2="420.61133"
       y2="138.41306"
       gradientUnits="userSpaceOnUse"
       gradientTransform="matrix(0.99657796,0,0,1,1.2520606,0)" />
    <clipPath
       id="clip1">
      <path
         id="path4553"
         d="M 0 340.15625 L 481.890625 340.15625 L 481.890625 0 L 0 0 L 0 340.15625 Z M 0 340.15625 " />
    </clipPath>
  </defs>
  <metadata
     id="metadata4713">
    <rdf:RDF>
      <cc:Work
         rdf:about="">
        <dc:format>image/svg+xml</dc:format>
        <dc:type
           rdf:resource="http://purl.org/dc/dcmitype/StillImage" />
        <dc:title></dc:title>
      </cc:Work>
    </rdf:RDF>
  </metadata>
  <g
     id="layer1"
     inkscape:groupmode="layer"
     inkscape:label="Capa 1">
    <path
       style="opacity:1;fill:#eff0f0;fill-opacity:1;fill-rule:evenodd;stroke:#157990;stroke-width:2;stroke-linejoin:round;stroke-miterlimit:4;stroke-dasharray:none;stroke-dashoffset:0;stroke-opacity:1;paint-order:normal"
       d="m 97.583979,29.700195 c -11.07875,0 -19.99804,9.65194 -19.99804,21.64062 V 460.66113 c 0,11.9887 8.91929,21.63867 19.99804,21.63867 H 414.41602 c 11.07874,0 19.99804,-9.64997 19.99804,-21.63867 V 113.7959 c -0.33411,-0.32981 -0.46874,-0.43168 -0.81445,-0.77345 -9.64188,-9.53205 -23.80681,-23.701345 -37.64453,-37.822255 -6.91884,-7.06045 -13.75546,-14.10994 -19.9043,-20.56055 -6.14876,-6.45062 -11.60929,-12.30327 -15.77539,-16.97265 -3.0827,-3.45513 -4.82334,-5.68286 -6.625,-7.9668 z"
       id="path4506"
       inkscape:connector-curvature="0"
       sodipodi:nodetypes="ssssssccccccs" />
    <g
       id="g4584"
       transform="matrix(0.3829248,0,0,0.3829248,74.406719,31.973725)"
       style="fill:#75abd3;fill-opacity:1;stroke:#9dc4df;stroke-opacity:1" />
    <path
       style="opacity:1;fill:url(#linearGradient4575);fill-opacity:1;fill-rule:evenodd;stroke:none;stroke-width:8.77774811;stroke-linecap:square;stroke-linejoin:miter;stroke-miterlimit:4;stroke-dasharray:none;stroke-dashoffset:0;stroke-opacity:1;paint-order:markers fill stroke"
       d="m 433.28939,182.37584 v -69.47028 c 0,-0.0394 -0.0309,-0.0705 -0.0703,-0.0705 h -67.33747 c 4.09851,4.50878 8.40749,9.2132 13.77948,14.86279 7.205,7.57734 15.21697,15.8602 23.32513,24.15489 11.13885,11.3951 20.83136,21.05949 30.30308,30.52302 z"
       id="path4566"
       inkscape:connector-curvature="0" />
    <path
       style="opacity:1;fill:#157990;fill-opacity:1;fill-rule:evenodd;stroke:none;stroke-width:1.05391276;stroke-linejoin:round;stroke-miterlimit:4;stroke-dasharray:none;stroke-dashoffset:0;stroke-opacity:1;paint-order:normal"
       d="m 435.00048,114.60612 c -1.83541,-2.30475 -3.6077,-4.55306 -6.74972,-8.04125 -4.24635,-4.71409 -9.8132,-10.623129 -16.08223,-17.137261 C 405.8996,82.913483 398.92921,75.794273 391.8744,68.663457 377.76477,54.401804 363.32068,40.090503 353.48814,30.462087 c -0.35278,-0.345219 -0.4898,-0.448268 -0.83055,-0.781422 l -0.24394,62.802323 c -0.0467,12.055462 9.04538,21.800782 20.38588,21.850482 z"
       id="rect4485"
       inkscape:connector-curvature="0" />
    <g
       transform="matrix(0.74507172,0,0,0.74507172,125.73663,87.868262)"
       id="g8"
       style="fill:#157990;fill-opacity:1;stroke:none;stroke-opacity:1">
      <path
         inkscape:connector-curvature="0"
         d="m 174.833,197.204 c 24.125,0 80.846,-29.034 80.846,-98.603 C 255.679,44.145 248.329,0 174.833,0 101.339,0 93.987,44.145 93.987,98.602 c 0.001,69.568 56.721,98.602 80.846,98.602 z M 106.07,82.145 c 5.68,-10.983 17.963,-23.674 44.381,-23.111 0,0 15.747,38.194 93.05,21.042 0.312,6.101 0.41,12.326 0.41,18.526 0,34.005 -15.016,55.075 -27.612,66.762 -15.871,14.727 -33.493,20.072 -41.465,20.072 -7.972,0 -25.594,-5.345 -41.465,-20.072 -12.597,-11.687 -27.612,-32.757 -27.612,-66.762 -0.001,-5.501 0.078,-11.021 0.313,-16.457 z"
         id="path2"
         style="fill:#157990;fill-opacity:1;stroke:none;stroke-opacity:1" />
      <path
         inkscape:connector-curvature="0"
         d="m 324.926,298.327 c -4.128,-25.664 -12.624,-58.724 -29.668,-70.472 -11.64,-8.026 -52.248,-29.721 -69.589,-38.985 l -0.293,-0.156 c -1.982,-1.059 -4.402,-0.847 -6.169,0.541 -9.084,7.131 -19.034,11.937 -29.574,14.284 -1.807,0.402 -3.304,1.662 -4.009,3.374 l -10.791,26.206 -10.791,-26.206 c -0.705,-1.712 -2.202,-2.971 -4.009,-3.374 -10.54,-2.347 -20.49,-7.153 -29.574,-14.284 -1.769,-1.388 -4.189,-1.6 -6.17,-0.541 -17.134,9.156 -58.238,31.294 -69.83,39.107 -19.62,13.217 -28.198,61.052 -29.719,70.507 -0.15,0.938 -0.063,1.897 0.253,2.792 0.703,1.982 18.709,48.548 149.84,48.548 131.131,0 149.137,-46.565 149.84,-48.548 0.317,-0.896 0.404,-1.856 0.253,-2.793 z M 159.66,282.743 c 0,0.397 -0.234,0.757 -0.599,0.916 l -16.174,7.085 16.174,7.084 c 0.364,0.159 0.599,0.52 0.599,0.916 v 5.301 c 0,0.341 -0.174,0.658 -0.462,0.842 -0.163,0.105 -0.351,0.158 -0.538,0.158 -0.144,0 -0.287,-0.031 -0.422,-0.094 l -24.001,-11.15 c -0.352,-0.164 -0.579,-0.518 -0.579,-0.907 v -4.3 c 0,-0.39 0.227,-0.744 0.579,-0.907 l 24.001,-11.15 c 0.311,-0.143 0.672,-0.12 0.96,0.064 0.288,0.184 0.462,0.502 0.462,0.844 z m 24.408,-12.667 -10.701,36.252 c -0.125,0.424 -0.516,0.717 -0.959,0.717 h -5.051 c -0.314,0 -0.611,-0.149 -0.801,-0.402 -0.188,-0.252 -0.247,-0.578 -0.158,-0.881 l 10.701,-36.252 c 0.125,-0.426 0.516,-0.717 0.959,-0.717 h 5.051 c 0.314,0 0.611,0.148 0.801,0.4 0.188,0.253 0.247,0.58 0.158,0.883 z m 31.941,22.968 c 0,0.392 -0.229,0.746 -0.584,0.909 l -24.002,11 c -0.133,0.061 -0.274,0.092 -0.416,0.092 -0.188,0 -0.377,-0.054 -0.54,-0.158 -0.286,-0.185 -0.46,-0.502 -0.46,-0.842 v -5.301 c 0,-0.4 0.238,-0.762 0.605,-0.919 l 16.523,-7.081 -16.523,-7.082 c -0.367,-0.157 -0.605,-0.52 -0.605,-0.919 v -5.3 c 0,-0.341 0.174,-0.658 0.46,-0.842 0.287,-0.184 0.648,-0.209 0.956,-0.068 l 24.002,11.001 c 0.355,0.163 0.584,0.518 0.584,0.909 z"
         id="path4"
         style="fill:#157990;fill-opacity:1;stroke:none;stroke-opacity:1" />
    </g>
    <path
       style="opacity:1;fill:#157990;fill-opacity:1;fill-rule:evenodd;stroke:#e4f7fb;stroke-width:0.9229582;stroke-linecap:square;stroke-linejoin:miter;stroke-miterlimit:4;stroke-dasharray:none;stroke-dashoffset:0;stroke-opacity:1;paint-order:markers fill stroke"
       d="M 137.95898 378.81641 C 132.23936 378.81641 127.28666 379.82877 123.10156 381.85156 C 118.98622 383.80461 115.56797 386.52414 112.84766 390.01172 C 110.1971 393.4993 108.21005 397.65003 106.88477 402.46289 C 105.62924 407.206 105.00195 412.36714 105.00195 417.94727 C 105.00195 423.52739 105.62924 428.69049 106.88477 433.43359 C 108.21005 438.10695 110.1971 442.18625 112.84766 445.67383 C 115.56797 449.09165 118.98622 451.77743 123.10156 453.73047 C 127.28666 455.61376 132.23936 456.55469 137.95898 456.55469 C 143.67861 456.55469 148.5956 455.61376 152.71094 453.73047 C 156.82628 451.77743 160.20882 449.09165 162.85938 445.67383 C 165.57969 442.18625 167.56869 438.10695 168.82422 433.43359 C 170.1495 428.69049 170.8125 423.52739 170.8125 417.94727 C 170.8125 412.36714 170.1495 407.206 168.82422 402.46289 C 167.56869 397.65003 165.57969 393.4993 162.85938 390.01172 C 160.20882 386.52414 156.82628 383.80461 152.71094 381.85156 C 148.5956 379.82877 143.67861 378.81641 137.95898 378.81641 z M 199.99609 378.81641 C 196.78752 378.81641 193.71863 378.99109 190.78906 379.33984 C 187.92925 379.61885 184.79087 379.93249 181.37305 380.28125 L 181.37305 454.98633 C 185.00013 455.61409 188.10279 455.92773 190.68359 455.92773 C 193.05515 455.92773 196.09028 455.61409 199.78711 454.98633 L 199.78711 395.13867 C 199.92661 395.06892 200.24025 394.99944 200.72852 394.92969 C 201.21678 394.85994 201.8103 394.82617 202.50781 394.82617 C 205.36763 394.82617 207.77352 395.62814 209.72656 397.23242 C 211.67961 398.83671 212.65625 401.38156 212.65625 404.86914 C 212.65625 406.68268 212.34261 408.42753 211.71484 410.10156 C 211.15683 411.7756 210.42435 413.31005 209.51758 414.70508 C 208.68056 416.03036 207.73768 417.17973 206.69141 418.15625 C 205.71488 419.13277 204.80967 419.83149 203.97266 420.25 L 203.03125 420.77344 L 217.88672 454.98633 C 219.28175 455.26533 220.88763 455.47378 222.70117 455.61328 C 224.58446 455.75278 226.22216 455.82227 227.61719 455.82227 C 229.22147 455.82227 231.00008 455.75278 232.95312 455.61328 C 234.97592 455.47378 236.82596 455.26533 238.5 454.98633 L 222.17773 422.76172 C 223.29376 421.9247 224.40937 420.91234 225.52539 419.72656 C 226.71117 418.54079 227.75729 417.1453 228.66406 415.54102 C 229.64058 413.93673 230.40878 412.12436 230.9668 410.10156 C 231.59456 408.00902 231.9082 405.6726 231.9082 403.0918 C 231.9082 398.27894 230.96532 394.30288 229.08203 391.16406 C 227.19874 388.02524 224.75713 385.54792 221.75781 383.73438 C 218.7585 381.92083 215.3422 380.66627 211.50586 379.96875 C 207.66952 379.20148 203.83243 378.81641 199.99609 378.81641 z M 276.47266 378.81641 C 270.82278 378.81641 265.76488 379.79305 261.30078 381.74609 C 256.83668 383.69914 253.07102 386.42063 250.00195 389.9082 C 247.00264 393.39578 244.69999 397.54652 243.0957 402.35938 C 241.49142 407.10248 240.68945 412.26363 240.68945 417.84375 C 240.68945 423.42387 241.45765 428.58502 242.99219 433.32812 C 244.52672 438.07123 246.79365 442.15249 249.79297 445.57031 C 252.86204 448.98814 256.6277 451.67196 261.0918 453.625 C 265.62565 455.50829 270.85627 456.45117 276.78516 456.45117 C 278.45919 456.45117 280.06508 456.38169 281.59961 456.24219 C 283.2039 456.17244 284.80782 455.99776 286.41211 455.71875 C 288.0164 455.5095 289.6898 455.16014 291.43359 454.67188 C 293.17738 454.18361 295.06119 453.55633 297.08398 452.78906 C 296.31672 447.48794 294.78227 442.3268 292.48047 437.30469 C 289.62065 438.28121 287.17905 438.97798 285.15625 439.39648 C 283.20321 439.81499 281.11096 440.02344 278.87891 440.02344 C 266.46313 440.02344 260.25586 432.63108 260.25586 417.84375 C 260.25586 410.31058 261.79031 404.66112 264.85938 400.89453 C 267.9982 397.0582 272.39114 395.13867 278.04102 395.13867 C 279.22679 395.13867 280.34435 395.20815 281.39062 395.34766 C 282.4369 395.41741 283.48302 395.55832 284.5293 395.76758 C 285.57557 395.97683 286.65546 396.25476 287.77148 396.60352 C 288.95726 396.95227 290.24755 397.37111 291.64258 397.85938 C 292.6191 395.83658 293.56198 393.50017 294.46875 390.84961 C 295.37552 388.1293 295.89761 385.33833 296.03711 382.47852 C 292.34028 381.01373 288.99346 380.03709 285.99414 379.54883 C 282.99482 379.06057 279.82073 378.81641 276.47266 378.81641 z M 138.0625 395.13867 C 146.92095 395.13867 151.35156 402.74143 151.35156 417.94727 C 151.35156 433.0136 146.88718 440.54688 137.95898 440.54688 C 133.35538 440.54688 129.93713 438.69879 127.70508 435.00195 C 125.54278 431.23537 124.46094 425.55019 124.46094 417.94727 C 124.46094 402.74143 128.9948 395.13867 138.0625 395.13867 z M 136.91211 457.70703 C 135.30782 461.40386 134.33118 464.96108 133.98242 468.37891 C 133.91267 468.86717 133.87891 469.38925 133.87891 469.94727 L 133.87891 472.98242 L 168.82422 478.94531 C 169.73099 476.3645 170.39399 473.78393 170.8125 471.20312 C 171.23101 468.62232 171.47517 466.00603 171.54492 463.35547 L 136.91211 457.70703 z "
       id="rect4610-3" />
  </g>
</svg>
