<?xml version="1.0" encoding="UTF-8" standalone="no"?>
<!-- Created with Inkscape (http://www.inkscape.org/) -->

<svg
   xmlns:osb="http://www.openswatchbook.org/uri/2009/osb"
   xmlns:dc="http://purl.org/dc/elements/1.1/"
   xmlns:cc="http://creativecommons.org/ns#"
   xmlns:rdf="http://www.w3.org/1999/02/22-rdf-syntax-ns#"
   xmlns:svg="http://www.w3.org/2000/svg"
   xmlns="http://www.w3.org/2000/svg"
   xmlns:xlink="http://www.w3.org/1999/xlink"
   xmlns:sodipodi="http://sodipodi.sourceforge.net/DTD/sodipodi-0.dtd"
   xmlns:inkscape="http://www.inkscape.org/namespaces/inkscape"
   width="512px"
   height="512px"
   viewBox="0 0 512 512"
   version="1.1"
   id="SVGRoot"
   inkscape:version="0.92.1 r15371"
   sodipodi:docname="rar.svg">
  <sodipodi:namedview
     id="base"
     pagecolor="#ffffff"
     bordercolor="#666666"
     borderopacity="1.0"
     inkscape:pageopacity="0.0"
     inkscape:pageshadow="2"
     inkscape:zoom="0.50000001"
     inkscape:cx="130.03249"
     inkscape:cy="245.60432"
     inkscape:document-units="px"
     inkscape:current-layer="layer1"
     showgrid="false"
     inkscape:window-width="1280"
     inkscape:window-height="947"
     inkscape:window-x="0"
     inkscape:window-y="0"
     inkscape:window-maximized="1" />
  <defs
     id="defs4710">
    <linearGradient
       inkscape:collect="always"
       id="linearGradient4573">
      <stop
         style="stop-color:#181818;stop-opacity:0.30645162"
         offset="0"
         id="stop4569" />
      <stop
         style="stop-color:#404040;stop-opacity:0"
         offset="1"
         id="stop4571" />
    </linearGradient>
    <marker
       inkscape:stockid="DotM"
       orient="auto"
       refY="0.0"
       refX="0.0"
       id="DotM"
       style="overflow:visible"
       inkscape:isstock="true">
      <path
         id="path4618"
         d="M -2.5,-1.0 C -2.5,1.7600000 -4.7400000,4.0 -7.5,4.0 C -10.260000,4.0 -12.5,1.7600000 -12.5,-1.0 C -12.5,-3.7600000 -10.260000,-6.0 -7.5,-6.0 C -4.7400000,-6.0 -2.5,-3.7600000 -2.5,-1.0 z "
         style="fill-rule:evenodd;stroke:#000000;stroke-width:1.0pt"
         transform="scale(0.4) translate(7.4, 1)" />
    </marker>
    <linearGradient
       osb:paint="solid"
       id="linearGradient5207">
      <stop
         id="stop5209"
         offset="0"
         style="stop-color:#000015;stop-opacity:1;" />
    </linearGradient>
    <clipPath
       id="clipPath3006-9-8"
       clipPathUnits="userSpaceOnUse">
      <path
         inkscape:export-ydpi="90"
         inkscape:export-xdpi="90"
         transform="matrix(1.2020779,0,0,1.2020779,-93.20363,-75.172465)"
         d="m 483,275.5 a 192.5,192.5 0 1 1 -385,0 192.5,192.5 0 1 1 385,0 z"
         sodipodi:ry="192.5"
         sodipodi:rx="192.5"
         sodipodi:cy="275.5"
         sodipodi:cx="290.5"
         id="path3008-1-1"
         style="fill:#ffffff;fill-opacity:1;stroke:none;display:inline"
         sodipodi:type="arc" />
    </clipPath>
    <mask
       id="mask3818-4"
       maskUnits="userSpaceOnUse">
      <path
         sodipodi:type="arc"
         style="fill:#ffffff;fill-opacity:1;stroke:none;display:inline"
         id="path3820-9"
         sodipodi:cx="290.5"
         sodipodi:cy="275.5"
         sodipodi:rx="192.5"
         sodipodi:ry="192.5"
         d="m 483,275.5 a 192.5,192.5 0 1 1 -385,0 192.5,192.5 0 1 1 385,0 z"
         transform="matrix(1.2020779,0,0,1.2020779,-93.20363,-75.172466)"
         inkscape:export-xdpi="90"
         inkscape:export-ydpi="90" />
    </mask>
    <clipPath
       id="clipPath3006"
       clipPathUnits="userSpaceOnUse">
      <path
         inkscape:export-ydpi="90"
         inkscape:export-xdpi="90"
         transform="matrix(1.2020779,0,0,1.2020779,-93.20363,-75.172465)"
         d="m 483,275.5 a 192.5,192.5 0 1 1 -385,0 192.5,192.5 0 1 1 385,0 z"
         sodipodi:ry="192.5"
         sodipodi:rx="192.5"
         sodipodi:cy="275.5"
         sodipodi:cx="290.5"
         id="path3008"
         style="fill:#ffffff;fill-opacity:1;stroke:none;display:inline"
         sodipodi:type="arc" />
    </clipPath>
    <clipPath
       id="clipPath3006-9"
       clipPathUnits="userSpaceOnUse">
      <path
         inkscape:export-ydpi="90"
         inkscape:export-xdpi="90"
         transform="matrix(1.2020779,0,0,1.2020779,-93.20363,-75.172465)"
         d="m 483,275.5 a 192.5,192.5 0 1 1 -385,0 192.5,192.5 0 1 1 385,0 z"
         sodipodi:ry="192.5"
         sodipodi:rx="192.5"
         sodipodi:cy="275.5"
         sodipodi:cx="290.5"
         id="path3008-1"
         style="fill:#ffffff;fill-opacity:1;stroke:none;display:inline"
         sodipodi:type="arc" />
    </clipPath>
    <mask
       maskUnits="userSpaceOnUse"
       id="mask3818-0">
      <path
         inkscape:export-ydpi="90"
         inkscape:export-xdpi="90"
         transform="matrix(1.2020779,0,0,1.2020779,-93.20363,-75.172466)"
         d="m 483,275.5 a 192.5,192.5 0 1 1 -385,0 192.5,192.5 0 1 1 385,0 z"
         sodipodi:ry="192.5"
         sodipodi:rx="192.5"
         sodipodi:cy="275.5"
         sodipodi:cx="290.5"
         id="path3820-8"
         style="fill:#ffffff;fill-opacity:1;stroke:none;display:inline"
         sodipodi:type="arc" />
    </mask>
    <mask
       maskUnits="userSpaceOnUse"
       id="mask3818-2">
      <path
         inkscape:export-ydpi="90"
         inkscape:export-xdpi="90"
         transform="matrix(1.2020779,0,0,1.2020779,-93.20363,-75.172466)"
         d="m 483,275.5 a 192.5,192.5 0 1 1 -385,0 192.5,192.5 0 1 1 385,0 z"
         sodipodi:ry="192.5"
         sodipodi:rx="192.5"
         sodipodi:cy="275.5"
         sodipodi:cx="290.5"
         id="path3820-2-2"
         style="fill:#ffffff;fill-opacity:1;stroke:none;display:inline"
         sodipodi:type="arc" />
    </mask>
    <clipPath
       id="clipPath3934"
       clipPathUnits="userSpaceOnUse">
      <path
         id="path3936"
         d="m 0,0 0,1024 1024,0 L 1024,0 0,0 z m 278.4375,333.84375 119.78125,0 c 9.83697,42.31453 19.85954,84.58596 29.9375,126.84375 9.86978,-42.28798 20.05132,-84.50237 29.6875,-126.84375 l 108.90625,0 c 9.63586,42.34141 19.8178,84.55578 29.6875,126.84375 10.07827,-42.25772 20.10031,-84.52927 29.9375,-126.84375 l 119.1875,0 c -26.26221,110.73099 -52.49625,221.46929 -78.28125,332.3125 l -122.8125,0 c -10.59439,-45.55681 -21.46638,-91.04874 -32.375,-136.53125 -10.66279,45.51136 -21.5615,90.96897 -32,136.53125 l -122.8125,0 c -25.71418,-110.03502 -52.0286,-219.92873 -78.25,-329.84375 l -0.59375,-2.46875 z"
         style="fill:#ff3232;fill-opacity:1;stroke:none"
         inkscape:connector-curvature="0" />
    </clipPath>
    <clipPath
       id="clipPath3929"
       clipPathUnits="userSpaceOnUse">
      <path
         inkscape:connector-curvature="0"
         style="fill:#ff3232;fill-opacity:1;stroke:none"
         d="m 0,0 0,1024 1024,0 L 1024,0 0,0 z m 278.4375,333.84375 119.78125,0 c 9.83697,42.31453 19.85954,84.58596 29.9375,126.84375 9.86978,-42.28798 20.05132,-84.50237 29.6875,-126.84375 l 108.90625,0 c 9.63586,42.34141 19.8178,84.55578 29.6875,126.84375 10.07827,-42.25772 20.10031,-84.52927 29.9375,-126.84375 l 119.1875,0 c -26.26221,110.73099 -52.49625,221.46929 -78.28125,332.3125 l -122.8125,0 c -10.59439,-45.55681 -21.46638,-91.04874 -32.375,-136.53125 -10.66279,45.51136 -21.5615,90.96897 -32,136.53125 l -122.8125,0 c -25.71418,-110.03502 -52.0286,-219.92873 -78.25,-329.84375 l -0.59375,-2.46875 z"
         id="path3931" />
    </clipPath>
    <mask
       maskUnits="userSpaceOnUse"
       id="mask3818">
      <path
         inkscape:export-ydpi="90"
         inkscape:export-xdpi="90"
         transform="matrix(1.2020779,0,0,1.2020779,-93.20363,-75.172466)"
         d="m 483,275.5 a 192.5,192.5 0 1 1 -385,0 192.5,192.5 0 1 1 385,0 z"
         sodipodi:ry="192.5"
         sodipodi:rx="192.5"
         sodipodi:cy="275.5"
         sodipodi:cx="290.5"
         id="path3820"
         style="fill:#ffffff;fill-opacity:1;stroke:none;display:inline"
         sodipodi:type="arc" />
    </mask>
    <linearGradient
       inkscape:collect="always"
       xlink:href="#linearGradient4573"
       id="linearGradient4575"
       x1="408.84314"
       y1="89.26915"
       x2="420.61133"
       y2="138.41306"
       gradientUnits="userSpaceOnUse"
       gradientTransform="matrix(0.99657796,0,0,1,1.2520606,0)" />
  </defs>
  <metadata
     id="metadata4713">
    <rdf:RDF>
      <cc:Work
         rdf:about="">
        <dc:format>image/svg+xml</dc:format>
        <dc:type
           rdf:resource="http://purl.org/dc/dcmitype/StillImage" />
        <dc:title></dc:title>
      </cc:Work>
    </rdf:RDF>
  </metadata>
  <g
     id="layer1"
     inkscape:groupmode="layer"
     inkscape:label="Capa 1">
    <path
       style="opacity:1;fill:#f4f5f6;fill-opacity:1;fill-rule:evenodd;stroke:#658aba;stroke-width:2;stroke-linejoin:round;stroke-miterlimit:4;stroke-dasharray:none;stroke-dashoffset:0;stroke-opacity:1;paint-order:normal"
       d="m 97.583979,29.700195 c -11.07875,0 -19.99804,9.65194 -19.99804,21.64062 V 460.66113 c 0,11.9887 8.91929,21.63867 19.99804,21.63867 H 414.41602 c 11.07874,0 19.99804,-9.64997 19.99804,-21.63867 V 113.7959 c -0.33411,-0.32981 -0.46874,-0.43168 -0.81445,-0.77345 -9.64188,-9.53205 -23.80681,-23.701345 -37.64453,-37.822255 -6.91884,-7.06045 -13.75546,-14.10994 -19.9043,-20.56055 -6.14876,-6.45062 -11.60929,-12.30327 -15.77539,-16.97265 -3.0827,-3.45513 -4.82334,-5.68286 -6.625,-7.9668 z"
       id="path4506"
       inkscape:connector-curvature="0"
       sodipodi:nodetypes="ssssssccccccs" />
    <g
       id="g4584"
       transform="matrix(0.3829248,0,0,0.3829248,74.406719,31.973725)"
       style="fill:#75abd3;fill-opacity:1;stroke:#9dc4df;stroke-opacity:1" />
    <path
       style="opacity:1;fill:#d5dee2;fill-opacity:1;fill-rule:evenodd;stroke:#f4f6f8;stroke-width:1.16438401;stroke-linecap:square;stroke-linejoin:miter;stroke-miterlimit:4;stroke-dasharray:none;stroke-dashoffset:0;stroke-opacity:1;paint-order:markers fill stroke"
       d="M 125.61328 380.81641 C 122.40471 380.81641 119.33582 380.99109 116.40625 381.33984 C 113.54644 381.61885 110.40806 381.93249 106.99023 382.28125 L 106.99023 456.98633 C 110.61732 457.61409 113.71997 457.92773 116.30078 457.92773 C 118.67233 457.92773 121.70746 457.61409 125.4043 456.98633 L 125.4043 397.13867 C 125.5438 397.06892 125.85744 396.99944 126.3457 396.92969 C 126.83396 396.85994 127.42748 396.82422 128.125 396.82422 C 130.98481 396.82422 133.39071 397.62814 135.34375 399.23242 C 137.29679 400.83671 138.27344 403.38156 138.27344 406.86914 C 138.27344 408.68268 137.9598 410.42753 137.33203 412.10156 C 136.77402 413.7756 136.04154 415.31005 135.13477 416.70508 C 134.29775 418.03036 133.35487 419.17973 132.30859 420.15625 C 131.33207 421.13277 130.42686 421.83149 129.58984 422.25 L 128.64648 422.77344 L 143.50391 456.98633 C 144.89894 457.26533 146.50287 457.47378 148.31641 457.61328 C 150.1997 457.75278 151.83934 457.82227 153.23438 457.82227 C 154.83866 457.82227 156.61727 457.75278 158.57031 457.61328 C 160.59311 457.47378 162.4412 457.26533 164.11523 456.98633 L 147.79492 424.75977 C 148.91095 423.92275 150.02655 422.91234 151.14258 421.72656 C 152.32835 420.54079 153.37448 419.1453 154.28125 417.54102 C 155.25777 415.93673 156.02402 414.12436 156.58203 412.10156 C 157.2098 410.00902 157.52539 407.67065 157.52539 405.08984 C 157.52539 400.27699 156.58251 396.30093 154.69922 393.16211 C 152.81593 390.02329 150.37432 387.54792 147.375 385.73438 C 144.37568 383.92083 140.95938 382.66627 137.12305 381.96875 C 133.28671 381.20148 129.44962 380.81641 125.61328 380.81641 z M 257.21484 380.81641 C 254.00627 380.81641 250.93738 380.99109 248.00781 381.33984 C 245.148 381.61885 242.00962 381.93249 238.5918 382.28125 L 238.5918 456.98633 C 242.21888 457.61409 245.32154 457.92773 247.90234 457.92773 C 250.2739 457.92773 253.30903 457.61409 257.00586 456.98633 L 257.00586 397.13867 C 257.14536 397.06892 257.459 396.99944 257.94727 396.92969 C 258.43553 396.85994 259.02905 396.82422 259.72656 396.82422 C 262.58638 396.82422 264.99227 397.62814 266.94531 399.23242 C 268.89836 400.83671 269.875 403.38156 269.875 406.86914 C 269.875 408.68268 269.56136 410.42753 268.93359 412.10156 C 268.37558 413.7756 267.6431 415.31005 266.73633 416.70508 C 265.89931 418.03036 264.95643 419.17973 263.91016 420.15625 C 262.93363 421.13277 262.02842 421.83149 261.19141 422.25 L 260.24805 422.77344 L 275.10547 456.98633 C 276.5005 457.26533 278.10443 457.47378 279.91797 457.61328 C 281.80126 457.75278 283.44091 457.82227 284.83594 457.82227 C 286.44022 457.82227 288.21883 457.75278 290.17188 457.61328 C 292.19467 457.47378 294.04276 457.26533 295.7168 456.98633 L 279.39648 424.75977 C 280.51251 423.92275 281.62812 422.91234 282.74414 421.72656 C 283.92992 420.54079 284.97604 419.1453 285.88281 417.54102 C 286.85933 415.93673 287.62558 414.12436 288.18359 412.10156 C 288.81136 410.00902 289.12695 407.67065 289.12695 405.08984 C 289.12695 400.27699 288.18407 396.30093 286.30078 393.16211 C 284.41749 390.02329 281.97588 387.54792 278.97656 385.73438 C 275.97725 383.92083 272.56095 382.66627 268.72461 381.96875 C 264.88827 381.20148 261.05118 380.81641 257.21484 380.81641 z M 198.87695 381.44531 C 197.27267 381.44531 195.66874 381.51479 194.06445 381.6543 C 192.52992 381.7938 190.85456 381.96848 189.04102 382.17773 L 165.60547 456.88086 C 167.62826 457.22962 169.44064 457.47378 171.04492 457.61328 C 172.71896 457.82254 174.18393 457.92773 175.43945 457.92773 C 176.69498 457.92773 177.98527 457.85825 179.31055 457.71875 C 180.63583 457.57925 182.10079 457.36885 183.70508 457.08984 L 187.57617 442.75586 C 189.38971 443.24412 191.13456 443.6292 192.80859 443.9082 C 194.48263 444.11746 196.12228 444.2207 197.72656 444.2207 C 199.47035 444.2207 201.21324 444.08174 202.95703 443.80273 C 204.77057 443.52373 206.65438 443.10489 208.60742 442.54688 L 212.58203 457.08984 C 214.18632 457.36885 215.687 457.57925 217.08203 457.71875 C 218.47706 457.85825 219.87255 457.92773 221.26758 457.92773 C 224.2669 457.92773 227.75463 457.61409 231.73047 456.98633 L 208.60742 382.17773 C 206.58463 381.96848 204.7703 381.7938 203.16602 381.6543 C 201.63148 381.51479 200.20223 381.44531 198.87695 381.44531 z M 198.35352 401.84766 L 205.04883 428.8418 C 203.7933 429.19055 202.57445 429.46848 201.38867 429.67773 C 200.27265 429.81724 199.12132 429.88672 197.93555 429.88672 C 196.81952 429.88672 195.73768 429.78347 194.69141 429.57422 C 193.64513 429.36496 192.52953 429.08509 191.34375 428.73633 L 198.35352 401.84766 z "
       id="rect4610" />
    <path
       style="opacity:1;fill:url(#linearGradient4575);fill-opacity:1;fill-rule:evenodd;stroke:none;stroke-width:8.77774811;stroke-linecap:square;stroke-linejoin:miter;stroke-miterlimit:4;stroke-dasharray:none;stroke-dashoffset:0;stroke-opacity:1;paint-order:markers fill stroke"
       d="m 433.28939,182.37584 v -69.47028 c 0,-0.0394 -0.0309,-0.0705 -0.0703,-0.0705 h -67.33747 c 4.09851,4.50878 8.40749,9.2132 13.77948,14.86279 7.205,7.57734 15.21697,15.8602 23.32513,24.15489 11.13885,11.3951 20.83136,21.05949 30.30308,30.52302 z"
       id="path4566"
       inkscape:connector-curvature="0" />
    <path
       style="opacity:1;fill:#658aba;fill-opacity:1;fill-rule:evenodd;stroke:none;stroke-width:1.05391276;stroke-linejoin:round;stroke-miterlimit:4;stroke-dasharray:none;stroke-dashoffset:0;stroke-opacity:1;paint-order:normal"
       d="m 435.00048,114.60612 c -1.83541,-2.30475 -3.6077,-4.55306 -6.74972,-8.04125 -4.24635,-4.71409 -9.8132,-10.623129 -16.08223,-17.137261 C 405.8996,82.913483 398.92921,75.794273 391.8744,68.663457 377.76477,54.401804 363.32068,40.090503 353.48814,30.462087 c -0.35278,-0.345219 -0.4898,-0.448268 -0.83055,-0.781422 l -0.24394,62.802323 c -0.0467,12.055462 9.04538,21.800782 20.38588,21.850482 z"
       id="rect4485"
       inkscape:connector-curvature="0" />
    <rect
       x="243.4165"
       y="30.67886"
       style="fill:#658aba;fill-opacity:1;stroke:none;stroke-width:1.69799995;stroke-linecap:butt;stroke-linejoin:miter;stroke-miterlimit:4;stroke-dasharray:40.7519989, 40.7519989;stroke-dashoffset:0;stroke-opacity:1"
       width="25.166964"
       height="225.7319"
       id="rect4" />
    <path
       inkscape:connector-curvature="0"
       style="fill:#a4a9ad;stroke-width:1.69771731"
       d="m 256,237.73757 c -14.00107,0 -25.35201,34.38388 -25.35201,48.38495 0,14.00107 11.35094,25.35201 25.35201,25.35201 14.00108,0 25.35201,-11.35094 25.35201,-25.35201 0,-14.00107 -11.35093,-48.38495 -25.35201,-48.38495 z m 0,60.11788 c -6.48018,0 -11.73462,-5.25274 -11.73462,-11.73462 0,-6.48189 5.25273,-11.73463 11.73462,-11.73463 6.48019,0 11.73463,5.25274 11.73463,11.73463 0,6.48188 -5.25444,11.73462 -11.73463,11.73462 z"
       id="path6" />
  </g>
</svg>
