<?xml version="1.0" encoding="UTF-8" standalone="no"?>
<!-- Created with Inkscape (http://www.inkscape.org/) -->

<svg
   xmlns:osb="http://www.openswatchbook.org/uri/2009/osb"
   xmlns:dc="http://purl.org/dc/elements/1.1/"
   xmlns:cc="http://creativecommons.org/ns#"
   xmlns:rdf="http://www.w3.org/1999/02/22-rdf-syntax-ns#"
   xmlns:svg="http://www.w3.org/2000/svg"
   xmlns="http://www.w3.org/2000/svg"
   xmlns:xlink="http://www.w3.org/1999/xlink"
   xmlns:sodipodi="http://sodipodi.sourceforge.net/DTD/sodipodi-0.dtd"
   xmlns:inkscape="http://www.inkscape.org/namespaces/inkscape"
   width="512px"
   height="512px"
   viewBox="0 0 512 512"
   version="1.1"
   id="SVGRoot"
   inkscape:version="0.92.1 r15371"
   sodipodi:docname="rmail.svg">
  <sodipodi:namedview
     id="base"
     pagecolor="#ffffff"
     bordercolor="#666666"
     borderopacity="1.0"
     inkscape:pageopacity="0.0"
     inkscape:pageshadow="2"
     inkscape:zoom="0.70710678"
     inkscape:cx="141.43416"
     inkscape:cy="304.40954"
     inkscape:document-units="px"
     inkscape:current-layer="layer1"
     showgrid="false"
     inkscape:window-width="1280"
     inkscape:window-height="947"
     inkscape:window-x="0"
     inkscape:window-y="0"
     inkscape:window-maximized="1" />
  <defs
     id="defs4710">
    <linearGradient
       id="linearGradient8384"
       inkscape:collect="always">
      <stop
         id="stop8380"
         offset="0"
         style="stop-color:#181818;stop-opacity:0.38709676" />
      <stop
         id="stop8382"
         offset="1"
         style="stop-color:#404040;stop-opacity:0" />
    </linearGradient>
    <linearGradient
       inkscape:collect="always"
       id="linearGradient4573">
      <stop
         style="stop-color:#181818;stop-opacity:0.30645162"
         offset="0"
         id="stop4569" />
      <stop
         style="stop-color:#404040;stop-opacity:0"
         offset="1"
         id="stop4571" />
    </linearGradient>
    <marker
       inkscape:stockid="DotM"
       orient="auto"
       refY="0.0"
       refX="0.0"
       id="DotM"
       style="overflow:visible"
       inkscape:isstock="true">
      <path
         id="path4618"
         d="M -2.5,-1.0 C -2.5,1.7600000 -4.7400000,4.0 -7.5,4.0 C -10.260000,4.0 -12.5,1.7600000 -12.5,-1.0 C -12.5,-3.7600000 -10.260000,-6.0 -7.5,-6.0 C -4.7400000,-6.0 -2.5,-3.7600000 -2.5,-1.0 z "
         style="fill-rule:evenodd;stroke:#000000;stroke-width:1.0pt"
         transform="scale(0.4) translate(7.4, 1)" />
    </marker>
    <linearGradient
       osb:paint="solid"
       id="linearGradient5207">
      <stop
         id="stop5209"
         offset="0"
         style="stop-color:#000015;stop-opacity:1;" />
    </linearGradient>
    <clipPath
       id="clipPath3006-9-8"
       clipPathUnits="userSpaceOnUse">
      <path
         inkscape:export-ydpi="90"
         inkscape:export-xdpi="90"
         transform="matrix(1.2020779,0,0,1.2020779,-93.20363,-75.172465)"
         d="m 483,275.5 a 192.5,192.5 0 1 1 -385,0 192.5,192.5 0 1 1 385,0 z"
         sodipodi:ry="192.5"
         sodipodi:rx="192.5"
         sodipodi:cy="275.5"
         sodipodi:cx="290.5"
         id="path3008-1-1"
         style="fill:#ffffff;fill-opacity:1;stroke:none;display:inline"
         sodipodi:type="arc" />
    </clipPath>
    <mask
       id="mask3818-4"
       maskUnits="userSpaceOnUse">
      <path
         sodipodi:type="arc"
         style="fill:#ffffff;fill-opacity:1;stroke:none;display:inline"
         id="path3820-9"
         sodipodi:cx="290.5"
         sodipodi:cy="275.5"
         sodipodi:rx="192.5"
         sodipodi:ry="192.5"
         d="m 483,275.5 a 192.5,192.5 0 1 1 -385,0 192.5,192.5 0 1 1 385,0 z"
         transform="matrix(1.2020779,0,0,1.2020779,-93.20363,-75.172466)"
         inkscape:export-xdpi="90"
         inkscape:export-ydpi="90" />
    </mask>
    <clipPath
       id="clipPath3006"
       clipPathUnits="userSpaceOnUse">
      <path
         inkscape:export-ydpi="90"
         inkscape:export-xdpi="90"
         transform="matrix(1.2020779,0,0,1.2020779,-93.20363,-75.172465)"
         d="m 483,275.5 a 192.5,192.5 0 1 1 -385,0 192.5,192.5 0 1 1 385,0 z"
         sodipodi:ry="192.5"
         sodipodi:rx="192.5"
         sodipodi:cy="275.5"
         sodipodi:cx="290.5"
         id="path3008"
         style="fill:#ffffff;fill-opacity:1;stroke:none;display:inline"
         sodipodi:type="arc" />
    </clipPath>
    <clipPath
       id="clipPath3006-9"
       clipPathUnits="userSpaceOnUse">
      <path
         inkscape:export-ydpi="90"
         inkscape:export-xdpi="90"
         transform="matrix(1.2020779,0,0,1.2020779,-93.20363,-75.172465)"
         d="m 483,275.5 a 192.5,192.5 0 1 1 -385,0 192.5,192.5 0 1 1 385,0 z"
         sodipodi:ry="192.5"
         sodipodi:rx="192.5"
         sodipodi:cy="275.5"
         sodipodi:cx="290.5"
         id="path3008-1"
         style="fill:#ffffff;fill-opacity:1;stroke:none;display:inline"
         sodipodi:type="arc" />
    </clipPath>
    <mask
       maskUnits="userSpaceOnUse"
       id="mask3818-0">
      <path
         inkscape:export-ydpi="90"
         inkscape:export-xdpi="90"
         transform="matrix(1.2020779,0,0,1.2020779,-93.20363,-75.172466)"
         d="m 483,275.5 a 192.5,192.5 0 1 1 -385,0 192.5,192.5 0 1 1 385,0 z"
         sodipodi:ry="192.5"
         sodipodi:rx="192.5"
         sodipodi:cy="275.5"
         sodipodi:cx="290.5"
         id="path3820-8"
         style="fill:#ffffff;fill-opacity:1;stroke:none;display:inline"
         sodipodi:type="arc" />
    </mask>
    <mask
       maskUnits="userSpaceOnUse"
       id="mask3818-2">
      <path
         inkscape:export-ydpi="90"
         inkscape:export-xdpi="90"
         transform="matrix(1.2020779,0,0,1.2020779,-93.20363,-75.172466)"
         d="m 483,275.5 a 192.5,192.5 0 1 1 -385,0 192.5,192.5 0 1 1 385,0 z"
         sodipodi:ry="192.5"
         sodipodi:rx="192.5"
         sodipodi:cy="275.5"
         sodipodi:cx="290.5"
         id="path3820-2-2"
         style="fill:#ffffff;fill-opacity:1;stroke:none;display:inline"
         sodipodi:type="arc" />
    </mask>
    <clipPath
       id="clipPath3934"
       clipPathUnits="userSpaceOnUse">
      <path
         id="path3936"
         d="m 0,0 0,1024 1024,0 L 1024,0 0,0 z m 278.4375,333.84375 119.78125,0 c 9.83697,42.31453 19.85954,84.58596 29.9375,126.84375 9.86978,-42.28798 20.05132,-84.50237 29.6875,-126.84375 l 108.90625,0 c 9.63586,42.34141 19.8178,84.55578 29.6875,126.84375 10.07827,-42.25772 20.10031,-84.52927 29.9375,-126.84375 l 119.1875,0 c -26.26221,110.73099 -52.49625,221.46929 -78.28125,332.3125 l -122.8125,0 c -10.59439,-45.55681 -21.46638,-91.04874 -32.375,-136.53125 -10.66279,45.51136 -21.5615,90.96897 -32,136.53125 l -122.8125,0 c -25.71418,-110.03502 -52.0286,-219.92873 -78.25,-329.84375 l -0.59375,-2.46875 z"
         style="fill:#ff3232;fill-opacity:1;stroke:none"
         inkscape:connector-curvature="0" />
    </clipPath>
    <clipPath
       id="clipPath3929"
       clipPathUnits="userSpaceOnUse">
      <path
         inkscape:connector-curvature="0"
         style="fill:#ff3232;fill-opacity:1;stroke:none"
         d="m 0,0 0,1024 1024,0 L 1024,0 0,0 z m 278.4375,333.84375 119.78125,0 c 9.83697,42.31453 19.85954,84.58596 29.9375,126.84375 9.86978,-42.28798 20.05132,-84.50237 29.6875,-126.84375 l 108.90625,0 c 9.63586,42.34141 19.8178,84.55578 29.6875,126.84375 10.07827,-42.25772 20.10031,-84.52927 29.9375,-126.84375 l 119.1875,0 c -26.26221,110.73099 -52.49625,221.46929 -78.28125,332.3125 l -122.8125,0 c -10.59439,-45.55681 -21.46638,-91.04874 -32.375,-136.53125 -10.66279,45.51136 -21.5615,90.96897 -32,136.53125 l -122.8125,0 c -25.71418,-110.03502 -52.0286,-219.92873 -78.25,-329.84375 l -0.59375,-2.46875 z"
         id="path3931" />
    </clipPath>
    <mask
       maskUnits="userSpaceOnUse"
       id="mask3818">
      <path
         inkscape:export-ydpi="90"
         inkscape:export-xdpi="90"
         transform="matrix(1.2020779,0,0,1.2020779,-93.20363,-75.172466)"
         d="m 483,275.5 a 192.5,192.5 0 1 1 -385,0 192.5,192.5 0 1 1 385,0 z"
         sodipodi:ry="192.5"
         sodipodi:rx="192.5"
         sodipodi:cy="275.5"
         sodipodi:cx="290.5"
         id="path3820"
         style="fill:#ffffff;fill-opacity:1;stroke:none;display:inline"
         sodipodi:type="arc" />
    </mask>
    <linearGradient
       inkscape:collect="always"
       xlink:href="#linearGradient4573"
       id="linearGradient4575"
       x1="408.84314"
       y1="89.26915"
       x2="420.61133"
       y2="138.41306"
       gradientUnits="userSpaceOnUse"
       gradientTransform="matrix(0.99657796,0,0,1,1.2520606,0)" />
    <linearGradient
       inkscape:collect="always"
       xlink:href="#linearGradient8384"
       id="linearGradient6771"
       gradientUnits="userSpaceOnUse"
       gradientTransform="matrix(0.99657796,0,0,1,1.2520606,0)"
       x1="408.84314"
       y1="89.26915"
       x2="420.61133"
       y2="138.41306" />
  </defs>
  <metadata
     id="metadata4713">
    <rdf:RDF>
      <cc:Work
         rdf:about="">
        <dc:format>image/svg+xml</dc:format>
        <dc:type
           rdf:resource="http://purl.org/dc/dcmitype/StillImage" />
        <dc:title></dc:title>
      </cc:Work>
    </rdf:RDF>
  </metadata>
  <g
     id="layer1"
     inkscape:groupmode="layer"
     inkscape:label="Capa 1">
    <path
       style="opacity:1;fill:#e9ebec;fill-opacity:1;fill-rule:evenodd;stroke:#37abc8;stroke-width:2;stroke-linejoin:round;stroke-miterlimit:4;stroke-dasharray:none;stroke-dashoffset:0;stroke-opacity:1;paint-order:normal"
       d="m 97.583979,29.700195 c -11.07875,0 -19.99804,9.65194 -19.99804,21.64062 V 460.66113 c 0,11.9887 8.91929,21.63867 19.99804,21.63867 H 414.41602 c 11.07874,0 19.99804,-9.64997 19.99804,-21.63867 V 113.7959 c -0.33411,-0.32981 -0.46874,-0.43168 -0.81445,-0.77345 -9.64188,-9.53205 -23.80681,-23.701345 -37.64453,-37.822255 -6.91884,-7.06045 -13.75546,-14.10994 -19.9043,-20.56055 -6.14876,-6.45062 -11.60929,-12.30327 -15.77539,-16.97265 -3.0827,-3.45513 -4.82334,-5.68286 -6.625,-7.9668 z"
       id="path4506"
       inkscape:connector-curvature="0"
       sodipodi:nodetypes="ssssssccccccs" />
    <g
       id="g4584"
       transform="matrix(0.3829248,0,0,0.3829248,74.406719,31.973725)"
       style="fill:#75abd3;fill-opacity:1;stroke:#9dc4df;stroke-opacity:1" />
    <path
       style="opacity:1;fill:#37abc8;fill-opacity:1;fill-rule:evenodd;stroke:#e9ebec;stroke-width:0.94331175;stroke-linecap:square;stroke-linejoin:miter;stroke-miterlimit:4;stroke-dasharray:none;stroke-dashoffset:0;stroke-opacity:1;paint-order:markers fill stroke"
       d="M 142.20117 401.95117 C 139.06235 401.95117 135.71358 402.09209 132.15625 402.37109 C 128.66867 402.6501 125.28614 402.99751 122.00781 403.41602 L 122.00781 457.19531 C 123.82135 457.54407 125.42528 457.75251 126.82031 457.82227 C 128.21534 457.96177 129.50758 458.03125 130.69336 458.03125 C 131.80938 458.03125 133.09967 457.96177 134.56445 457.82227 C 136.02924 457.75251 137.66693 457.54407 139.48047 457.19531 L 139.48047 416.07617 C 140.17798 415.93667 141.19035 415.86719 142.51562 415.86719 C 144.88718 415.86719 146.5963 416.46071 147.64258 417.64648 C 148.7586 418.76251 149.31641 420.22748 149.31641 422.04102 C 149.31641 423.85456 148.86185 425.56173 147.95508 427.16602 C 147.04831 428.70055 145.3749 430.16552 142.93359 431.56055 L 141.46875 432.39844 L 153.08203 457.08984 C 154.26781 457.36885 155.76849 457.57925 157.58203 457.71875 C 159.39557 457.85825 161.27938 457.92773 163.23242 457.92773 C 164.83671 457.92773 166.4744 457.85825 168.14844 457.71875 C 169.89223 457.57925 171.46239 457.36885 172.85742 457.08984 L 160.92969 434.28125 C 161.41795 433.86274 162.04523 433.30494 162.8125 432.60742 C 163.57977 431.90991 164.31225 431.00274 165.00977 429.88672 C 165.70728 428.70094 166.3008 427.30741 166.78906 425.70312 C 167.27732 424.09884 167.52148 422.21503 167.52148 420.05273 C 167.52148 414.33311 165.39352 409.90249 161.13867 406.76367 C 156.95358 403.5551 150.64111 401.95117 142.20117 401.95117 z M 287.28125 401.95117 C 284.63069 401.95117 281.63128 402.23105 278.2832 402.78906 C 275.00488 403.34707 271.68987 404.18476 268.3418 405.30078 C 268.3418 406.69581 268.37751 407.95038 268.44727 409.06641 C 268.58677 410.11268 268.76145 411.1588 268.9707 412.20508 C 269.24971 413.1816 269.59907 414.15824 270.01758 415.13477 C 270.50584 416.11129 271.06364 417.19313 271.69141 418.37891 C 274.06296 417.54189 276.36365 416.94837 278.5957 416.59961 C 280.82775 416.1811 282.78104 415.97266 284.45508 415.97266 C 285.71061 415.97266 286.93141 416.0759 288.11719 416.28516 C 289.30296 416.42466 290.38481 416.7383 291.36133 417.22656 C 292.33785 417.64507 293.13981 418.27431 293.76758 419.11133 C 294.39534 419.94835 294.74275 420.99447 294.8125 422.25 L 288.43164 422.25 C 285.78108 422.25 283.05959 422.52793 280.26953 423.08594 C 277.47947 423.5742 274.93461 424.48136 272.63281 425.80664 C 270.33101 427.13192 268.4472 428.91053 266.98242 431.14258 C 265.51764 433.37463 264.78516 436.19936 264.78516 439.61719 C 264.78516 443.10477 265.37868 446.07041 266.56445 448.51172 C 267.81998 450.88327 269.52911 452.80084 271.69141 454.26562 C 273.8537 455.73041 276.43428 456.77653 279.43359 457.4043 C 282.50266 458.10181 285.84948 458.45117 289.47656 458.45117 C 293.66166 458.45117 297.63771 458.0661 301.4043 457.29883 C 305.17088 456.53156 308.38069 455.76531 311.03125 454.99805 L 311.03125 424.3418 C 311.03125 420.43571 310.47345 417.08694 309.35742 414.29688 C 308.2414 411.43706 306.63552 409.10065 304.54297 407.28711 C 302.52017 405.47357 300.0448 404.14952 297.11523 403.3125 C 294.18567 402.40573 290.90833 401.95117 287.28125 401.95117 z M 201.19336 402.16016 C 195.96199 402.16016 191.63658 402.579 188.21875 403.41602 C 184.80092 404.18328 181.87295 404.98525 179.43164 405.82227 L 179.43164 457.19531 C 181.24518 457.54407 182.88287 457.75251 184.34766 457.82227 C 185.81244 457.96177 187.13844 458.03125 188.32422 458.03125 C 189.44024 458.03125 190.73053 457.96177 192.19531 457.82227 C 193.6601 457.75251 195.29974 457.54407 197.11328 457.19531 L 197.11328 418.06445 C 197.32254 417.92495 197.84462 417.78599 198.68164 417.64648 C 199.58841 417.50698 200.42609 417.4375 201.19336 417.4375 C 204.05317 417.4375 206.07594 418.23946 207.26172 419.84375 C 208.4475 421.44804 209.04102 424.09809 209.04102 427.79492 L 209.04102 457.19531 C 210.85456 457.54407 212.49225 457.75251 213.95703 457.82227 C 215.42181 457.96177 216.74782 458.03125 217.93359 458.03125 C 219.04962 458.03125 220.3399 457.96177 221.80469 457.82227 C 223.26947 457.75251 224.90912 457.54407 226.72266 457.19531 L 226.72266 426.64453 C 226.72266 423.50571 226.40901 420.71474 225.78125 418.27344 C 226.13001 418.13393 226.75729 417.95925 227.66406 417.75 C 228.64058 417.54075 229.61723 417.4375 230.59375 417.4375 C 233.45356 417.4375 235.5101 418.23946 236.76562 419.84375 C 238.02115 421.44804 238.65039 424.09809 238.65039 427.79492 L 238.65039 457.19531 C 240.46393 457.54407 242.10162 457.75251 243.56641 457.82227 C 245.03119 457.96177 246.35719 458.03125 247.54297 458.03125 C 248.65899 458.03125 249.94928 457.96177 251.41406 457.82227 C 252.87885 457.75251 254.51849 457.54407 256.33203 457.19531 L 256.33203 425.91211 C 256.33203 420.75049 255.56383 416.59976 254.0293 413.46094 C 252.56451 410.32212 250.64694 407.91622 248.27539 406.24219 C 245.97359 404.56815 243.3573 403.48631 240.42773 402.99805 C 237.56792 402.44003 234.7789 402.16016 232.05859 402.16016 C 228.98953 402.16016 226.23427 402.50952 223.79297 403.20703 C 221.35166 403.90455 219.2237 404.70651 217.41016 405.61328 C 215.0386 404.21825 212.45803 403.31109 209.66797 402.89258 C 206.87791 402.40432 204.05317 402.16016 201.19336 402.16016 z M 331.16406 402.26562 C 329.76903 402.26562 328.30602 402.33511 326.77148 402.47461 C 325.3067 402.61411 323.80602 402.85827 322.27148 403.20703 L 322.27148 457.19531 C 324.01527 457.47432 325.6192 457.68276 327.08398 457.82227 C 328.54877 457.96177 329.87477 458.03125 331.06055 458.03125 C 332.24632 458.03125 333.57233 457.96177 335.03711 457.82227 C 336.50189 457.68276 338.13958 457.47432 339.95312 457.19531 L 339.95312 403.20703 C 338.48834 402.85827 336.98961 402.61411 335.45508 402.47461 C 333.92054 402.33511 332.48934 402.26562 331.16406 402.26562 z M 360.69531 402.26562 C 359.30028 402.26562 357.83532 402.33511 356.30078 402.47461 C 354.836 402.61411 353.33727 402.85827 351.80273 403.20703 L 351.69727 457.29883 L 389.1543 457.29883 C 389.50305 455.9038 389.71345 454.61351 389.7832 453.42773 C 389.92271 452.17221 389.99219 450.98712 389.99219 449.87109 C 389.99219 448.75507 389.92271 447.60375 389.7832 446.41797 C 389.71345 445.23219 389.50305 443.94191 389.1543 442.54688 L 369.38086 442.54688 L 369.48438 403.20703 C 368.01959 402.85827 366.52086 402.61411 364.98633 402.47461 C 363.45179 402.33511 362.02059 402.26562 360.69531 402.26562 z M 288.84961 433.33984 L 294.8125 433.33984 L 294.8125 444.84961 C 294.25449 444.98911 293.38304 445.12808 292.19727 445.26758 C 291.01149 445.40708 290.10433 445.47656 289.47656 445.47656 C 288.56979 445.47656 287.55938 445.40708 286.44336 445.26758 C 285.39709 445.12808 284.38472 444.8482 283.4082 444.42969 C 282.50143 444.01118 281.73519 443.41961 281.10742 442.65234 C 280.47966 441.81533 280.16602 440.69972 280.16602 439.30469 C 280.16602 437.4214 281.00174 435.95643 282.67578 434.91016 C 284.34982 433.86388 286.4083 433.33984 288.84961 433.33984 z "
       id="rect4610" />
    <path
       style="opacity:1;fill:#37abc8;fill-opacity:1;fill-rule:evenodd;stroke:none;stroke-width:1.05391276;stroke-linejoin:round;stroke-miterlimit:4;stroke-dasharray:none;stroke-dashoffset:0;stroke-opacity:1;paint-order:normal"
       d="m 435.00048,114.60612 c -1.83541,-2.30475 -3.6077,-4.55306 -6.74972,-8.04125 -4.24635,-4.71409 -9.8132,-10.623129 -16.08223,-17.137261 C 405.8996,82.913483 398.92921,75.794273 391.8744,68.663457 377.76477,54.401804 363.32068,40.090503 353.48814,30.462087 c -0.35278,-0.345219 -0.4898,-0.448268 -0.83055,-0.781422 l -0.24394,62.802323 c -0.0467,12.055462 9.04538,21.800782 20.38588,21.850482 z"
       id="rect4485"
       inkscape:connector-curvature="0" />
    <g
       id="g5030"
       transform="matrix(0.82230259,0,0,0.82230259,44.89783,29.121108)"
       style="fill:#37abc8;fill-opacity:1">
      <rect
         id="rect5024"
         height="96"
         width="96"
         y="191.64349"
         x="298.72253"
         style="fill:#37abc8;fill-opacity:1;stroke:#e9ebec;stroke-width:12.16097355;stroke-linecap:round;stroke-miterlimit:4;stroke-dasharray:12.16097349, 36.48292048;stroke-dashoffset:0;stroke-opacity:1"
         transform="rotate(-9.9693406)" />
      <rect
         id="rect5026"
         height="32"
         width="224"
         y="256"
         x="78.593185"
         style="fill:#37abc8;fill-opacity:1" />
      <rect
         id="rect5028"
         height="32"
         width="224"
         y="320"
         x="78.593185"
         style="fill:#37abc8;fill-opacity:1" />
    </g>
    <path
       style="opacity:1;fill:url(#linearGradient6771);fill-opacity:1;fill-rule:evenodd;stroke:none;stroke-width:8.77774811;stroke-linecap:square;stroke-linejoin:miter;stroke-miterlimit:4;stroke-dasharray:none;stroke-dashoffset:0;stroke-opacity:1;paint-order:markers fill stroke"
       d="m 433.28939,182.37584 v -69.47028 c 0,-0.0394 -0.0309,-0.0705 -0.0703,-0.0705 h -67.33747 c 4.09851,4.50878 8.40749,9.2132 13.77948,14.86279 7.205,7.57734 15.21697,15.8602 23.32513,24.15489 11.13885,11.3951 20.83136,21.05949 30.30308,30.52302 z"
       id="path4566"
       inkscape:connector-curvature="0" />
  </g>
</svg>
