<?xml version="1.0" encoding="UTF-8" standalone="no"?>
<!-- Created with Inkscape (http://www.inkscape.org/) -->

<svg
   xmlns:osb="http://www.openswatchbook.org/uri/2009/osb"
   xmlns:dc="http://purl.org/dc/elements/1.1/"
   xmlns:cc="http://creativecommons.org/ns#"
   xmlns:rdf="http://www.w3.org/1999/02/22-rdf-syntax-ns#"
   xmlns:svg="http://www.w3.org/2000/svg"
   xmlns="http://www.w3.org/2000/svg"
   xmlns:xlink="http://www.w3.org/1999/xlink"
   xmlns:sodipodi="http://sodipodi.sourceforge.net/DTD/sodipodi-0.dtd"
   xmlns:inkscape="http://www.inkscape.org/namespaces/inkscape"
   width="512px"
   height="512px"
   viewBox="0 0 512 512"
   version="1.1"
   id="SVGRoot"
   inkscape:version="0.92.1 r15371"
   sodipodi:docname="roff.svg">
  <sodipodi:namedview
     id="base"
     pagecolor="#ffffff"
     bordercolor="#666666"
     borderopacity="1.0"
     inkscape:pageopacity="0.0"
     inkscape:pageshadow="2"
     inkscape:zoom="1"
     inkscape:cx="369.8617"
     inkscape:cy="152.23627"
     inkscape:document-units="px"
     inkscape:current-layer="layer1"
     showgrid="false"
     inkscape:window-width="1280"
     inkscape:window-height="947"
     inkscape:window-x="0"
     inkscape:window-y="0"
     inkscape:window-maximized="1"
     showguides="false" />
  <defs
     id="defs4710">
    <linearGradient
       id="linearGradient8384"
       inkscape:collect="always">
      <stop
         id="stop8380"
         offset="0"
         style="stop-color:#181818;stop-opacity:0.62365592" />
      <stop
         id="stop8382"
         offset="1"
         style="stop-color:#404040;stop-opacity:0" />
    </linearGradient>
    <linearGradient
       inkscape:collect="always"
       id="linearGradient4573">
      <stop
         style="stop-color:#181818;stop-opacity:0.30645162"
         offset="0"
         id="stop4569" />
      <stop
         style="stop-color:#404040;stop-opacity:0"
         offset="1"
         id="stop4571" />
    </linearGradient>
    <marker
       inkscape:stockid="DotM"
       orient="auto"
       refY="0.0"
       refX="0.0"
       id="DotM"
       style="overflow:visible"
       inkscape:isstock="true">
      <path
         id="path4618"
         d="M -2.5,-1.0 C -2.5,1.7600000 -4.7400000,4.0 -7.5,4.0 C -10.260000,4.0 -12.5,1.7600000 -12.5,-1.0 C -12.5,-3.7600000 -10.260000,-6.0 -7.5,-6.0 C -4.7400000,-6.0 -2.5,-3.7600000 -2.5,-1.0 z "
         style="fill-rule:evenodd;stroke:#000000;stroke-width:1.0pt"
         transform="scale(0.4) translate(7.4, 1)" />
    </marker>
    <linearGradient
       osb:paint="solid"
       id="linearGradient5207">
      <stop
         id="stop5209"
         offset="0"
         style="stop-color:#000015;stop-opacity:1;" />
    </linearGradient>
    <clipPath
       id="clipPath3006-9-8"
       clipPathUnits="userSpaceOnUse">
      <path
         inkscape:export-ydpi="90"
         inkscape:export-xdpi="90"
         transform="matrix(1.2020779,0,0,1.2020779,-93.20363,-75.172465)"
         d="m 483,275.5 a 192.5,192.5 0 1 1 -385,0 192.5,192.5 0 1 1 385,0 z"
         sodipodi:ry="192.5"
         sodipodi:rx="192.5"
         sodipodi:cy="275.5"
         sodipodi:cx="290.5"
         id="path3008-1-1"
         style="fill:#ffffff;fill-opacity:1;stroke:none;display:inline"
         sodipodi:type="arc" />
    </clipPath>
    <mask
       id="mask3818-4"
       maskUnits="userSpaceOnUse">
      <path
         sodipodi:type="arc"
         style="fill:#ffffff;fill-opacity:1;stroke:none;display:inline"
         id="path3820-9"
         sodipodi:cx="290.5"
         sodipodi:cy="275.5"
         sodipodi:rx="192.5"
         sodipodi:ry="192.5"
         d="m 483,275.5 a 192.5,192.5 0 1 1 -385,0 192.5,192.5 0 1 1 385,0 z"
         transform="matrix(1.2020779,0,0,1.2020779,-93.20363,-75.172466)"
         inkscape:export-xdpi="90"
         inkscape:export-ydpi="90" />
    </mask>
    <clipPath
       id="clipPath3006"
       clipPathUnits="userSpaceOnUse">
      <path
         inkscape:export-ydpi="90"
         inkscape:export-xdpi="90"
         transform="matrix(1.2020779,0,0,1.2020779,-93.20363,-75.172465)"
         d="m 483,275.5 a 192.5,192.5 0 1 1 -385,0 192.5,192.5 0 1 1 385,0 z"
         sodipodi:ry="192.5"
         sodipodi:rx="192.5"
         sodipodi:cy="275.5"
         sodipodi:cx="290.5"
         id="path3008"
         style="fill:#ffffff;fill-opacity:1;stroke:none;display:inline"
         sodipodi:type="arc" />
    </clipPath>
    <clipPath
       id="clipPath3006-9"
       clipPathUnits="userSpaceOnUse">
      <path
         inkscape:export-ydpi="90"
         inkscape:export-xdpi="90"
         transform="matrix(1.2020779,0,0,1.2020779,-93.20363,-75.172465)"
         d="m 483,275.5 a 192.5,192.5 0 1 1 -385,0 192.5,192.5 0 1 1 385,0 z"
         sodipodi:ry="192.5"
         sodipodi:rx="192.5"
         sodipodi:cy="275.5"
         sodipodi:cx="290.5"
         id="path3008-1"
         style="fill:#ffffff;fill-opacity:1;stroke:none;display:inline"
         sodipodi:type="arc" />
    </clipPath>
    <mask
       maskUnits="userSpaceOnUse"
       id="mask3818-0">
      <path
         inkscape:export-ydpi="90"
         inkscape:export-xdpi="90"
         transform="matrix(1.2020779,0,0,1.2020779,-93.20363,-75.172466)"
         d="m 483,275.5 a 192.5,192.5 0 1 1 -385,0 192.5,192.5 0 1 1 385,0 z"
         sodipodi:ry="192.5"
         sodipodi:rx="192.5"
         sodipodi:cy="275.5"
         sodipodi:cx="290.5"
         id="path3820-8"
         style="fill:#ffffff;fill-opacity:1;stroke:none;display:inline"
         sodipodi:type="arc" />
    </mask>
    <mask
       maskUnits="userSpaceOnUse"
       id="mask3818-2">
      <path
         inkscape:export-ydpi="90"
         inkscape:export-xdpi="90"
         transform="matrix(1.2020779,0,0,1.2020779,-93.20363,-75.172466)"
         d="m 483,275.5 a 192.5,192.5 0 1 1 -385,0 192.5,192.5 0 1 1 385,0 z"
         sodipodi:ry="192.5"
         sodipodi:rx="192.5"
         sodipodi:cy="275.5"
         sodipodi:cx="290.5"
         id="path3820-2-2"
         style="fill:#ffffff;fill-opacity:1;stroke:none;display:inline"
         sodipodi:type="arc" />
    </mask>
    <clipPath
       id="clipPath3934"
       clipPathUnits="userSpaceOnUse">
      <path
         id="path3936"
         d="m 0,0 0,1024 1024,0 L 1024,0 0,0 z m 278.4375,333.84375 119.78125,0 c 9.83697,42.31453 19.85954,84.58596 29.9375,126.84375 9.86978,-42.28798 20.05132,-84.50237 29.6875,-126.84375 l 108.90625,0 c 9.63586,42.34141 19.8178,84.55578 29.6875,126.84375 10.07827,-42.25772 20.10031,-84.52927 29.9375,-126.84375 l 119.1875,0 c -26.26221,110.73099 -52.49625,221.46929 -78.28125,332.3125 l -122.8125,0 c -10.59439,-45.55681 -21.46638,-91.04874 -32.375,-136.53125 -10.66279,45.51136 -21.5615,90.96897 -32,136.53125 l -122.8125,0 c -25.71418,-110.03502 -52.0286,-219.92873 -78.25,-329.84375 l -0.59375,-2.46875 z"
         style="fill:#ff3232;fill-opacity:1;stroke:none"
         inkscape:connector-curvature="0" />
    </clipPath>
    <clipPath
       id="clipPath3929"
       clipPathUnits="userSpaceOnUse">
      <path
         inkscape:connector-curvature="0"
         style="fill:#ff3232;fill-opacity:1;stroke:none"
         d="m 0,0 0,1024 1024,0 L 1024,0 0,0 z m 278.4375,333.84375 119.78125,0 c 9.83697,42.31453 19.85954,84.58596 29.9375,126.84375 9.86978,-42.28798 20.05132,-84.50237 29.6875,-126.84375 l 108.90625,0 c 9.63586,42.34141 19.8178,84.55578 29.6875,126.84375 10.07827,-42.25772 20.10031,-84.52927 29.9375,-126.84375 l 119.1875,0 c -26.26221,110.73099 -52.49625,221.46929 -78.28125,332.3125 l -122.8125,0 c -10.59439,-45.55681 -21.46638,-91.04874 -32.375,-136.53125 -10.66279,45.51136 -21.5615,90.96897 -32,136.53125 l -122.8125,0 c -25.71418,-110.03502 -52.0286,-219.92873 -78.25,-329.84375 l -0.59375,-2.46875 z"
         id="path3931" />
    </clipPath>
    <mask
       maskUnits="userSpaceOnUse"
       id="mask3818">
      <path
         inkscape:export-ydpi="90"
         inkscape:export-xdpi="90"
         transform="matrix(1.2020779,0,0,1.2020779,-93.20363,-75.172466)"
         d="m 483,275.5 a 192.5,192.5 0 1 1 -385,0 192.5,192.5 0 1 1 385,0 z"
         sodipodi:ry="192.5"
         sodipodi:rx="192.5"
         sodipodi:cy="275.5"
         sodipodi:cx="290.5"
         id="path3820"
         style="fill:#ffffff;fill-opacity:1;stroke:none;display:inline"
         sodipodi:type="arc" />
    </mask>
    <linearGradient
       inkscape:collect="always"
       xlink:href="#linearGradient4573"
       id="linearGradient4575"
       x1="408.84314"
       y1="89.26915"
       x2="420.61133"
       y2="138.41306"
       gradientUnits="userSpaceOnUse"
       gradientTransform="matrix(0.99657796,0,0,1,1.2520606,0)" />
    <linearGradient
       inkscape:collect="always"
       xlink:href="#linearGradient8384"
       id="linearGradient6771"
       gradientUnits="userSpaceOnUse"
       gradientTransform="matrix(0.99657796,0,0,1,1.2520606,0)"
       x1="408.84314"
       y1="89.26915"
       x2="420.61133"
       y2="138.41306" />
    <clipPath
       clipPathUnits="userSpaceOnUse"
       id="clipPath4575">
      <path
         sodipodi:nodetypes="cccsccccccscccscccscccccscccs"
         clip-path="none"
         id="path4577"
         d="m 620.59829,374.66954 c 0,0.0306 0.0191,0.0582 0.0191,0.0827 6.91471,-2.09972 15.03926,-3.06693 19.89773,-3.64542 15.09665,-1.79669 35.03742,-2.7884 56.13064,-2.7884 h 0.5308 c 21.22711,0.0153 41.28265,1.03149 56.48928,2.8588 4.86326,0.58461 12.95911,1.55795 19.87861,3.64542 v -0.0276 z m 76.5783,-0.42239 h -0.5308 c -41.99517,0 -75.96142,5.95633 -75.97099,10.96994 l -0.0765,16.63241 c -0.0144,5.03196 34.2197,9.14262 76.46353,9.17628 h 0.54993 c 41.98082,0 75.92316,-4.04026 75.93273,-9.05385 l 0.0813,-16.63241 c 0.01,-5.03197 -34.20535,-11.05563 -76.44918,-11.09237 z m -0.53558,-36.74191 h 0.5308 c 21.22711,0.0183 41.28743,1.60386 56.48928,3.43116 4.86325,0.58461 12.95911,1.55795 19.88339,3.64848 l 0.0765,-22.33164 c 0.01,-5.03502 -34.20536,-9.14262 -76.44918,-9.17629 h -0.54037 c -41.9856,0 -75.95186,4.04026 -75.96142,9.0508 l -0.0717,22.38979 c 6.91471,-2.10277 15.04404,-3.06998 19.91208,-3.64848 15.09664,-1.79975 35.03263,-3.36382 56.13064,-3.36382 z"
         inkscape:connector-curvature="0"
         style="fill:none;fill-opacity:1;stroke:#2bc96d;stroke-width:0.59329051;stroke-miterlimit:4;stroke-dasharray:none;stroke-opacity:1" />
    </clipPath>
    <clipPath
       clipPathUnits="userSpaceOnUse"
       id="clipPath4579">
      <path
         style="fill:none;fill-opacity:1;stroke:#2bc96d;stroke-width:0.59329051;stroke-miterlimit:4;stroke-dasharray:none;stroke-opacity:1"
         inkscape:connector-curvature="0"
         d="m 620.59829,374.66954 c 0,0.0306 0.0191,0.0582 0.0191,0.0827 6.91471,-2.09972 15.03926,-3.06693 19.89773,-3.64542 15.09665,-1.79669 35.03742,-2.7884 56.13064,-2.7884 h 0.5308 c 21.22711,0.0153 41.28265,1.03149 56.48928,2.8588 4.86326,0.58461 12.95911,1.55795 19.87861,3.64542 v -0.0276 z m 76.5783,-0.42239 h -0.5308 c -41.99517,0 -75.96142,5.95633 -75.97099,10.96994 l -0.0765,16.63241 c -0.0144,5.03196 34.2197,9.14262 76.46353,9.17628 h 0.54993 c 41.98082,0 75.92316,-4.04026 75.93273,-9.05385 l 0.0813,-16.63241 c 0.01,-5.03197 -34.20535,-11.05563 -76.44918,-11.09237 z m -0.53558,-36.74191 h 0.5308 c 21.22711,0.0183 41.28743,1.60386 56.48928,3.43116 4.86325,0.58461 12.95911,1.55795 19.88339,3.64848 l 0.0765,-22.33164 c 0.01,-5.03502 -34.20536,-9.14262 -76.44918,-9.17629 h -0.54037 c -41.9856,0 -75.95186,4.04026 -75.96142,9.0508 l -0.0717,22.38979 c 6.91471,-2.10277 15.04404,-3.06998 19.91208,-3.64848 15.09664,-1.79975 35.03263,-3.36382 56.13064,-3.36382 z"
         id="path4581"
         clip-path="none"
         sodipodi:nodetypes="cccsccccccscccscccscccccscccs" />
    </clipPath>
  </defs>
  <metadata
     id="metadata4713">
    <rdf:RDF>
      <cc:Work
         rdf:about="">
        <dc:format>image/svg+xml</dc:format>
        <dc:type
           rdf:resource="http://purl.org/dc/dcmitype/StillImage" />
        <dc:title></dc:title>
      </cc:Work>
    </rdf:RDF>
  </metadata>
  <g
     id="layer1"
     inkscape:groupmode="layer"
     inkscape:label="Capa 1">
    <path
       style="opacity:1;fill:#626170;fill-opacity:1;fill-rule:evenodd;stroke:#d6d6dc;stroke-width:2;stroke-linejoin:round;stroke-miterlimit:4;stroke-dasharray:none;stroke-dashoffset:0;stroke-opacity:1;paint-order:normal"
       d="m 97.583979,29.700195 c -11.07875,0 -19.99804,9.65194 -19.99804,21.64062 V 460.66113 c 0,11.9887 8.91929,21.63867 19.99804,21.63867 H 414.41602 c 11.07874,0 19.99804,-9.64997 19.99804,-21.63867 V 113.7959 c -0.33411,-0.32981 -0.46874,-0.43168 -0.81445,-0.77345 -9.64188,-9.53205 -23.80681,-23.701345 -37.64453,-37.822255 -6.91884,-7.06045 -13.75546,-14.10994 -19.9043,-20.56055 -6.14876,-6.45062 -11.60929,-12.30327 -15.77539,-16.97265 -3.0827,-3.45513 -4.82334,-5.68286 -6.625,-7.9668 z"
       id="path4506"
       inkscape:connector-curvature="0"
       sodipodi:nodetypes="ssssssccccccs" />
    <g
       id="g4584"
       transform="matrix(0.3829248,0,0,0.3829248,74.406719,31.973725)"
       style="fill:#75abd3;fill-opacity:1;stroke:#9dc4df;stroke-opacity:1" />
    <path
       style="opacity:1;fill:#d6d6dc;fill-opacity:1;fill-rule:evenodd;stroke:#5d5c6a;stroke-width:1.059;stroke-linecap:square;stroke-linejoin:miter;stroke-miterlimit:4;stroke-dasharray:none;stroke-dashoffset:0;stroke-opacity:1;paint-order:markers fill stroke"
       d="M 173.8457 401.95117 C 170.70688 401.95117 167.36006 402.09209 163.80273 402.37109 C 160.31516 402.6501 156.93067 402.99751 153.65234 403.41602 L 153.65234 457.19531 C 155.46588 457.54407 157.07177 457.75251 158.4668 457.82227 C 159.86183 457.96177 161.15211 458.0332 162.33789 458.0332 C 163.45392 458.0332 164.7442 457.96177 166.20898 457.82227 C 167.67377 457.75251 169.31341 457.54407 171.12695 457.19531 L 171.12695 416.07617 C 171.82447 415.93667 172.83488 415.86719 174.16016 415.86719 C 176.53171 415.86719 178.24084 416.46071 179.28711 417.64648 C 180.40313 418.76251 180.96094 420.22748 180.96094 422.04102 C 180.96094 423.85456 180.50833 425.56368 179.60156 427.16797 C 178.69479 428.7025 177.01943 430.16747 174.57812 431.5625 L 173.11328 432.39844 L 184.72656 457.08984 C 185.91234 457.36885 187.41302 457.57925 189.22656 457.71875 C 191.0401 457.85825 192.92391 457.92773 194.87695 457.92773 C 196.48124 457.92773 198.11893 457.85825 199.79297 457.71875 C 201.53676 457.57925 203.10692 457.36885 204.50195 457.08984 L 192.57422 434.28125 C 193.06248 433.86274 193.68976 433.30494 194.45703 432.60742 C 195.2243 431.90991 195.95678 431.00274 196.6543 429.88672 C 197.35181 428.70094 197.94533 427.30741 198.43359 425.70312 C 198.92185 424.09884 199.16602 422.21503 199.16602 420.05273 C 199.16602 414.33311 197.03805 409.90445 192.7832 406.76562 C 188.59811 403.55705 182.28564 401.95117 173.8457 401.95117 z M 233.30664 401.95117 C 228.91229 401.95117 225.03948 402.64989 221.69141 404.04492 C 218.34333 405.3702 215.5186 407.28777 213.2168 409.79883 C 210.98475 412.30988 209.27562 415.34501 208.08984 418.90234 C 206.97382 422.38992 206.41602 426.26078 206.41602 430.51562 C 206.41602 434.70072 206.97382 438.53586 208.08984 442.02344 C 209.27562 445.44126 210.98475 448.40691 213.2168 450.91797 C 215.5186 453.35927 218.34333 455.24308 221.69141 456.56836 C 225.03948 457.89364 228.91229 458.55469 233.30664 458.55469 C 237.77074 458.55469 241.67536 457.89364 245.02344 456.56836 C 248.37151 455.24308 251.16248 453.35927 253.39453 450.91797 C 255.69633 448.40691 257.40546 445.44126 258.52148 442.02344 C 259.70726 438.53586 260.29883 434.70072 260.29883 430.51562 C 260.29883 426.26078 259.70726 422.38992 258.52148 418.90234 C 257.40546 415.34501 255.69633 412.30988 253.39453 409.79883 C 251.16248 407.28777 248.37151 405.3702 245.02344 404.04492 C 241.67536 402.64989 237.77074 401.95117 233.30664 401.95117 z M 269.31641 403.20703 L 269.31641 457.08984 C 270.85094 457.4386 272.34967 457.649 273.81445 457.71875 C 275.34899 457.85825 276.81395 457.92773 278.20898 457.92773 C 279.53426 457.92773 280.96351 457.85825 282.49805 457.71875 C 284.03258 457.649 285.53326 457.4386 286.99805 457.08984 L 286.99805 441.08203 L 304.99414 441.08203 C 305.3429 439.687 305.55134 438.39671 305.62109 437.21094 C 305.7606 435.95541 305.83008 434.77032 305.83008 433.6543 C 305.83008 432.53827 305.7606 431.38695 305.62109 430.20117 C 305.55134 429.0154 305.3429 427.72511 304.99414 426.33008 L 286.99805 426.33008 L 286.99805 417.96094 L 309.2832 417.96094 C 309.63196 416.56591 309.8404 415.27367 309.91016 414.08789 C 310.04966 412.83236 310.12109 411.64727 310.12109 410.53125 C 310.12109 409.41523 310.04966 408.2639 309.91016 407.07812 C 309.8404 405.89235 309.63196 404.60206 309.2832 403.20703 L 269.31641 403.20703 z M 317.54297 403.20703 L 317.54297 457.08984 C 319.0775 457.4386 320.57623 457.649 322.04102 457.71875 C 323.57555 457.85825 325.04052 457.92773 326.43555 457.92773 C 327.76083 457.92773 329.19008 457.85825 330.72461 457.71875 C 332.25914 457.649 333.75983 457.4386 335.22461 457.08984 L 335.22461 441.08203 L 353.2207 441.08203 C 353.56946 439.687 353.7779 438.39671 353.84766 437.21094 C 353.98716 435.95541 354.05664 434.77032 354.05664 433.6543 C 354.05664 432.53827 353.98716 431.38695 353.84766 430.20117 C 353.7779 429.0154 353.56946 427.72511 353.2207 426.33008 L 335.22461 426.33008 L 335.22461 417.96094 L 357.50977 417.96094 C 357.85852 416.56591 358.06697 415.27367 358.13672 414.08789 C 358.27622 412.83236 358.34766 411.64727 358.34766 410.53125 C 358.34766 409.41523 358.27622 408.2639 358.13672 407.07812 C 358.06697 405.89235 357.85852 404.60206 357.50977 403.20703 L 317.54297 403.20703 z M 233.30664 416.70508 C 236.37571 416.70508 238.64264 417.89017 240.10742 420.26172 C 241.64196 422.63327 242.4082 426.05153 242.4082 430.51562 C 242.4082 434.90997 241.64196 438.29251 240.10742 440.66406 C 238.64264 443.03562 236.37571 444.2207 233.30664 444.2207 C 230.23757 444.2207 227.97064 443.03562 226.50586 440.66406 C 225.04108 438.29251 224.30859 434.90997 224.30859 430.51562 C 224.30859 426.05153 225.04108 422.63327 226.50586 420.26172 C 227.97064 417.89017 230.23757 416.70508 233.30664 416.70508 z "
       id="rect4610-6" />
    <path
       style="opacity:1;fill:#ffffff;fill-opacity:1;fill-rule:evenodd;stroke:none;stroke-width:1.13;stroke-linecap:square;stroke-linejoin:miter;stroke-miterlimit:4;stroke-dasharray:none;stroke-dashoffset:0;stroke-opacity:1;paint-order:markers fill stroke"
       d="M 433.0625,153 H 410.03906 C 398.38314,153 389,162.38314 389,174.03906 v 22.92188 C 389,208.61686 398.38314,218 410.03906,218 h 23.02344 z"
       id="path4691"
       inkscape:connector-curvature="0" />
    <path
       style="opacity:1;fill:#8694ff;fill-opacity:1;fill-rule:evenodd;stroke:none;stroke-width:1.22478163;stroke-linecap:square;stroke-linejoin:miter;stroke-miterlimit:4;stroke-dasharray:none;stroke-dashoffset:0;stroke-opacity:1;paint-order:markers fill stroke"
       d="m 433.0625,221 h -38.58008 c -11.65592,0 -21.03906,9.38314 -21.03906,21.03906 v 22.92188 c 0,11.65592 9.38314,21.03906 21.03906,21.03906 h 38.58008 z"
       id="path4694"
       inkscape:connector-curvature="0" />
    <path
       style="opacity:1;fill:#9eff86;fill-opacity:1;fill-rule:evenodd;stroke:none;stroke-width:1.31466806;stroke-linecap:square;stroke-linejoin:miter;stroke-miterlimit:4;stroke-dasharray:none;stroke-dashoffset:0;stroke-opacity:1;paint-order:markers fill stroke"
       d="m 433.0625,289 h -54.48828 c -11.65592,0 -21.04102,9.38314 -21.04102,21.03906 v 22.92188 c 0,11.65592 9.3851,21.03906 21.04102,21.03906 h 54.48828 z"
       id="path4697"
       inkscape:connector-curvature="0" />
    <path
       style="opacity:1;fill:url(#linearGradient6771);fill-opacity:1;fill-rule:evenodd;stroke:none;stroke-width:8.77774811;stroke-linecap:square;stroke-linejoin:miter;stroke-miterlimit:4;stroke-dasharray:none;stroke-dashoffset:0;stroke-opacity:1;paint-order:markers fill stroke"
       d="m 433.28939,182.37584 v -69.47028 c 0,-0.0394 -0.0309,-0.0705 -0.0703,-0.0705 h -67.33747 c 4.09851,4.50878 8.40749,9.2132 13.77948,14.86279 7.205,7.57734 15.21697,15.8602 23.32513,24.15489 11.13885,11.3951 20.83136,21.05949 30.30308,30.52302 z"
       id="path4566"
       inkscape:connector-curvature="0" />
    <path
       style="opacity:1;fill:#d6d6dc;fill-opacity:1;fill-rule:evenodd;stroke:none;stroke-width:1.05391276;stroke-linejoin:round;stroke-miterlimit:4;stroke-dasharray:none;stroke-dashoffset:0;stroke-opacity:1;paint-order:normal"
       d="m 435.00048,114.60612 c -1.83541,-2.30475 -3.6077,-4.55306 -6.74972,-8.04125 -4.24635,-4.71409 -9.8132,-10.623129 -16.08223,-17.137261 C 405.8996,82.913483 398.92921,75.794273 391.8744,68.663457 377.76477,54.401804 363.32068,40.090503 353.48814,30.462087 c -0.35278,-0.345219 -0.4898,-0.448268 -0.83055,-0.781422 l -0.24394,62.802323 c -0.0467,12.055462 9.04538,21.800782 20.38588,21.850482 z"
       id="rect4485"
       inkscape:connector-curvature="0" />
    <path
       style="opacity:1;fill:#d6d6dc;fill-opacity:1;fill-rule:evenodd;stroke:#5d5c6a;stroke-width:2.86175275;stroke-linecap:square;stroke-linejoin:miter;stroke-miterlimit:4;stroke-dasharray:none;stroke-dashoffset:0;stroke-opacity:1;paint-order:markers fill stroke"
       d="m 255.99735,140.66017 c -3.76982,0 -7.63209,0.18781 -11.5904,0.56473 -3.76981,0.37696 -7.81984,0.94026 -12.15515,1.69422 -0.56545,4.33529 -1.0375,8.48187 -1.41448,12.44016 -0.37699,3.9583 -0.56474,7.72935 -0.56474,11.31068 0,3.58133 0.1878,7.35235 0.56474,11.31065 0.37698,3.76981 0.84903,7.81985 1.41448,12.15516 4.33531,0.75396 8.38534,1.3225 12.15515,1.6995 3.95831,0.37698 7.82058,0.56474 11.5904,0.56474 3.76981,0 7.54086,-0.18781 11.31068,-0.56474 3.9583,-0.377 8.10486,-0.94554 12.44016,-1.6995 0.56546,-4.33531 1.0375,-8.38535 1.41447,-12.15516 0.37701,-3.9583 0.56476,-7.72932 0.56476,-11.31065 0,-3.58133 -0.18781,-7.35238 -0.56476,-11.31068 -0.37697,-3.95829 -0.84901,-8.10487 -1.41447,-12.44016 -4.3353,-0.75396 -8.48186,-1.31726 -12.44016,-1.69422 -3.76982,-0.37698 -7.54087,-0.56473 -11.31068,-0.56473 z m 0,70.68245 c -5.84319,0 -13.38,0.84755 -22.61606,2.54396 l -2.54397,131.75375 c 4.71227,0.75396 9.13783,1.22601 13.28463,1.41448 4.1468,0.18836 8.10558,0.28502 11.8754,0.28502 3.76981,0 7.72862,-0.0965 11.87541,-0.28502 4.3353,-0.18834 8.76615,-0.66052 13.2899,-1.41448 l -2.54395,-131.75375 c -9.42454,-1.69641 -16.96662,-2.54396 -22.62136,-2.54396 z"
       id="rect4721"
       inkscape:connector-curvature="0" />
  </g>
</svg>
