<?xml version="1.0" encoding="UTF-8" standalone="no"?>
<!-- Created with Inkscape (http://www.inkscape.org/) -->

<svg
   xmlns:osb="http://www.openswatchbook.org/uri/2009/osb"
   xmlns:dc="http://purl.org/dc/elements/1.1/"
   xmlns:cc="http://creativecommons.org/ns#"
   xmlns:rdf="http://www.w3.org/1999/02/22-rdf-syntax-ns#"
   xmlns:svg="http://www.w3.org/2000/svg"
   xmlns="http://www.w3.org/2000/svg"
   xmlns:xlink="http://www.w3.org/1999/xlink"
   xmlns:sodipodi="http://sodipodi.sourceforge.net/DTD/sodipodi-0.dtd"
   xmlns:inkscape="http://www.inkscape.org/namespaces/inkscape"
   width="512px"
   height="512px"
   viewBox="0 0 512 512"
   version="1.1"
   id="SVGRoot"
   inkscape:version="0.92.1 r15371"
   sodipodi:docname="rpm.svg">
  <sodipodi:namedview
     id="base"
     pagecolor="#ffffff"
     bordercolor="#666666"
     borderopacity="1.0"
     inkscape:pageopacity="0.0"
     inkscape:pageshadow="2"
     inkscape:zoom="1.4142136"
     inkscape:cx="202.64391"
     inkscape:cy="198.99247"
     inkscape:document-units="px"
     inkscape:current-layer="layer1"
     showgrid="false"
     inkscape:window-width="1280"
     inkscape:window-height="947"
     inkscape:window-x="0"
     inkscape:window-y="0"
     inkscape:window-maximized="1" />
  <defs
     id="defs4710">
    <linearGradient
       id="linearGradient8384"
       inkscape:collect="always">
      <stop
         id="stop8380"
         offset="0"
         style="stop-color:#181818;stop-opacity:0.62365592" />
      <stop
         id="stop8382"
         offset="1"
         style="stop-color:#404040;stop-opacity:0" />
    </linearGradient>
    <linearGradient
       inkscape:collect="always"
       id="linearGradient4573">
      <stop
         style="stop-color:#181818;stop-opacity:0.30645162"
         offset="0"
         id="stop4569" />
      <stop
         style="stop-color:#404040;stop-opacity:0"
         offset="1"
         id="stop4571" />
    </linearGradient>
    <marker
       inkscape:stockid="DotM"
       orient="auto"
       refY="0.0"
       refX="0.0"
       id="DotM"
       style="overflow:visible"
       inkscape:isstock="true">
      <path
         id="path4618"
         d="M -2.5,-1.0 C -2.5,1.7600000 -4.7400000,4.0 -7.5,4.0 C -10.260000,4.0 -12.5,1.7600000 -12.5,-1.0 C -12.5,-3.7600000 -10.260000,-6.0 -7.5,-6.0 C -4.7400000,-6.0 -2.5,-3.7600000 -2.5,-1.0 z "
         style="fill-rule:evenodd;stroke:#000000;stroke-width:1.0pt"
         transform="scale(0.4) translate(7.4, 1)" />
    </marker>
    <linearGradient
       osb:paint="solid"
       id="linearGradient5207">
      <stop
         id="stop5209"
         offset="0"
         style="stop-color:#000015;stop-opacity:1;" />
    </linearGradient>
    <clipPath
       id="clipPath3006-9-8"
       clipPathUnits="userSpaceOnUse">
      <path
         inkscape:export-ydpi="90"
         inkscape:export-xdpi="90"
         transform="matrix(1.2020779,0,0,1.2020779,-93.20363,-75.172465)"
         d="m 483,275.5 a 192.5,192.5 0 1 1 -385,0 192.5,192.5 0 1 1 385,0 z"
         sodipodi:ry="192.5"
         sodipodi:rx="192.5"
         sodipodi:cy="275.5"
         sodipodi:cx="290.5"
         id="path3008-1-1"
         style="fill:#ffffff;fill-opacity:1;stroke:none;display:inline"
         sodipodi:type="arc" />
    </clipPath>
    <mask
       id="mask3818-4"
       maskUnits="userSpaceOnUse">
      <path
         sodipodi:type="arc"
         style="fill:#ffffff;fill-opacity:1;stroke:none;display:inline"
         id="path3820-9"
         sodipodi:cx="290.5"
         sodipodi:cy="275.5"
         sodipodi:rx="192.5"
         sodipodi:ry="192.5"
         d="m 483,275.5 a 192.5,192.5 0 1 1 -385,0 192.5,192.5 0 1 1 385,0 z"
         transform="matrix(1.2020779,0,0,1.2020779,-93.20363,-75.172466)"
         inkscape:export-xdpi="90"
         inkscape:export-ydpi="90" />
    </mask>
    <clipPath
       id="clipPath3006"
       clipPathUnits="userSpaceOnUse">
      <path
         inkscape:export-ydpi="90"
         inkscape:export-xdpi="90"
         transform="matrix(1.2020779,0,0,1.2020779,-93.20363,-75.172465)"
         d="m 483,275.5 a 192.5,192.5 0 1 1 -385,0 192.5,192.5 0 1 1 385,0 z"
         sodipodi:ry="192.5"
         sodipodi:rx="192.5"
         sodipodi:cy="275.5"
         sodipodi:cx="290.5"
         id="path3008"
         style="fill:#ffffff;fill-opacity:1;stroke:none;display:inline"
         sodipodi:type="arc" />
    </clipPath>
    <clipPath
       id="clipPath3006-9"
       clipPathUnits="userSpaceOnUse">
      <path
         inkscape:export-ydpi="90"
         inkscape:export-xdpi="90"
         transform="matrix(1.2020779,0,0,1.2020779,-93.20363,-75.172465)"
         d="m 483,275.5 a 192.5,192.5 0 1 1 -385,0 192.5,192.5 0 1 1 385,0 z"
         sodipodi:ry="192.5"
         sodipodi:rx="192.5"
         sodipodi:cy="275.5"
         sodipodi:cx="290.5"
         id="path3008-1"
         style="fill:#ffffff;fill-opacity:1;stroke:none;display:inline"
         sodipodi:type="arc" />
    </clipPath>
    <mask
       maskUnits="userSpaceOnUse"
       id="mask3818-0">
      <path
         inkscape:export-ydpi="90"
         inkscape:export-xdpi="90"
         transform="matrix(1.2020779,0,0,1.2020779,-93.20363,-75.172466)"
         d="m 483,275.5 a 192.5,192.5 0 1 1 -385,0 192.5,192.5 0 1 1 385,0 z"
         sodipodi:ry="192.5"
         sodipodi:rx="192.5"
         sodipodi:cy="275.5"
         sodipodi:cx="290.5"
         id="path3820-8"
         style="fill:#ffffff;fill-opacity:1;stroke:none;display:inline"
         sodipodi:type="arc" />
    </mask>
    <mask
       maskUnits="userSpaceOnUse"
       id="mask3818-2">
      <path
         inkscape:export-ydpi="90"
         inkscape:export-xdpi="90"
         transform="matrix(1.2020779,0,0,1.2020779,-93.20363,-75.172466)"
         d="m 483,275.5 a 192.5,192.5 0 1 1 -385,0 192.5,192.5 0 1 1 385,0 z"
         sodipodi:ry="192.5"
         sodipodi:rx="192.5"
         sodipodi:cy="275.5"
         sodipodi:cx="290.5"
         id="path3820-2-2"
         style="fill:#ffffff;fill-opacity:1;stroke:none;display:inline"
         sodipodi:type="arc" />
    </mask>
    <clipPath
       id="clipPath3934"
       clipPathUnits="userSpaceOnUse">
      <path
         id="path3936"
         d="m 0,0 0,1024 1024,0 L 1024,0 0,0 z m 278.4375,333.84375 119.78125,0 c 9.83697,42.31453 19.85954,84.58596 29.9375,126.84375 9.86978,-42.28798 20.05132,-84.50237 29.6875,-126.84375 l 108.90625,0 c 9.63586,42.34141 19.8178,84.55578 29.6875,126.84375 10.07827,-42.25772 20.10031,-84.52927 29.9375,-126.84375 l 119.1875,0 c -26.26221,110.73099 -52.49625,221.46929 -78.28125,332.3125 l -122.8125,0 c -10.59439,-45.55681 -21.46638,-91.04874 -32.375,-136.53125 -10.66279,45.51136 -21.5615,90.96897 -32,136.53125 l -122.8125,0 c -25.71418,-110.03502 -52.0286,-219.92873 -78.25,-329.84375 l -0.59375,-2.46875 z"
         style="fill:#ff3232;fill-opacity:1;stroke:none"
         inkscape:connector-curvature="0" />
    </clipPath>
    <clipPath
       id="clipPath3929"
       clipPathUnits="userSpaceOnUse">
      <path
         inkscape:connector-curvature="0"
         style="fill:#ff3232;fill-opacity:1;stroke:none"
         d="m 0,0 0,1024 1024,0 L 1024,0 0,0 z m 278.4375,333.84375 119.78125,0 c 9.83697,42.31453 19.85954,84.58596 29.9375,126.84375 9.86978,-42.28798 20.05132,-84.50237 29.6875,-126.84375 l 108.90625,0 c 9.63586,42.34141 19.8178,84.55578 29.6875,126.84375 10.07827,-42.25772 20.10031,-84.52927 29.9375,-126.84375 l 119.1875,0 c -26.26221,110.73099 -52.49625,221.46929 -78.28125,332.3125 l -122.8125,0 c -10.59439,-45.55681 -21.46638,-91.04874 -32.375,-136.53125 -10.66279,45.51136 -21.5615,90.96897 -32,136.53125 l -122.8125,0 c -25.71418,-110.03502 -52.0286,-219.92873 -78.25,-329.84375 l -0.59375,-2.46875 z"
         id="path3931" />
    </clipPath>
    <mask
       maskUnits="userSpaceOnUse"
       id="mask3818">
      <path
         inkscape:export-ydpi="90"
         inkscape:export-xdpi="90"
         transform="matrix(1.2020779,0,0,1.2020779,-93.20363,-75.172466)"
         d="m 483,275.5 a 192.5,192.5 0 1 1 -385,0 192.5,192.5 0 1 1 385,0 z"
         sodipodi:ry="192.5"
         sodipodi:rx="192.5"
         sodipodi:cy="275.5"
         sodipodi:cx="290.5"
         id="path3820"
         style="fill:#ffffff;fill-opacity:1;stroke:none;display:inline"
         sodipodi:type="arc" />
    </mask>
    <linearGradient
       inkscape:collect="always"
       xlink:href="#linearGradient4573"
       id="linearGradient4575"
       x1="408.84314"
       y1="89.26915"
       x2="420.61133"
       y2="138.41306"
       gradientUnits="userSpaceOnUse"
       gradientTransform="matrix(0.99657796,0,0,1,1.2520606,0)" />
    <linearGradient
       inkscape:collect="always"
       xlink:href="#linearGradient8384"
       id="linearGradient6771"
       gradientUnits="userSpaceOnUse"
       gradientTransform="matrix(0.99657796,0,0,1,1.2520606,0)"
       x1="408.84314"
       y1="89.26915"
       x2="420.61133"
       y2="138.41306" />
  </defs>
  <metadata
     id="metadata4713">
    <rdf:RDF>
      <cc:Work
         rdf:about="">
        <dc:format>image/svg+xml</dc:format>
        <dc:type
           rdf:resource="http://purl.org/dc/dcmitype/StillImage" />
        <dc:title></dc:title>
      </cc:Work>
    </rdf:RDF>
  </metadata>
  <g
     id="layer1"
     inkscape:groupmode="layer"
     inkscape:label="Capa 1">
    <path
       style="opacity:1;fill:#575757;fill-opacity:1;fill-rule:evenodd;stroke:#f03364;stroke-width:2;stroke-linejoin:round;stroke-miterlimit:4;stroke-dasharray:none;stroke-dashoffset:0;stroke-opacity:1;paint-order:normal"
       d="m 97.583979,29.700195 c -11.07875,0 -19.99804,9.65194 -19.99804,21.64062 V 460.66113 c 0,11.9887 8.91929,21.63867 19.99804,21.63867 H 414.41602 c 11.07874,0 19.99804,-9.64997 19.99804,-21.63867 V 113.7959 c -0.33411,-0.32981 -0.46874,-0.43168 -0.81445,-0.77345 -9.64188,-9.53205 -23.80681,-23.701345 -37.64453,-37.822255 -6.91884,-7.06045 -13.75546,-14.10994 -19.9043,-20.56055 -6.14876,-6.45062 -11.60929,-12.30327 -15.77539,-16.97265 -3.0827,-3.45513 -4.82334,-5.68286 -6.625,-7.9668 z"
       id="path4506"
       inkscape:connector-curvature="0"
       sodipodi:nodetypes="ssssssccccccs" />
    <g
       id="g4584"
       transform="matrix(0.3829248,0,0,0.3829248,74.406719,31.973725)"
       style="fill:#75abd3;fill-opacity:1;stroke:#9dc4df;stroke-opacity:1" />
    <path
       style="opacity:1;fill:url(#linearGradient6771);fill-opacity:1;fill-rule:evenodd;stroke:none;stroke-width:8.77774811;stroke-linecap:square;stroke-linejoin:miter;stroke-miterlimit:4;stroke-dasharray:none;stroke-dashoffset:0;stroke-opacity:1;paint-order:markers fill stroke"
       d="m 433.28939,182.37584 v -69.47028 c 0,-0.0394 -0.0309,-0.0705 -0.0703,-0.0705 h -67.33747 c 4.09851,4.50878 8.40749,9.2132 13.77948,14.86279 7.205,7.57734 15.21697,15.8602 23.32513,24.15489 11.13885,11.3951 20.83136,21.05949 30.30308,30.52302 z"
       id="path4566"
       inkscape:connector-curvature="0" />
    <path
       style="opacity:1;fill:#f03364;fill-opacity:1;fill-rule:evenodd;stroke:none;stroke-width:1.05391276;stroke-linejoin:round;stroke-miterlimit:4;stroke-dasharray:none;stroke-dashoffset:0;stroke-opacity:1;paint-order:normal"
       d="m 435.00048,114.60612 c -1.83541,-2.30475 -3.6077,-4.55306 -6.74972,-8.04125 -4.24635,-4.71409 -9.8132,-10.623129 -16.08223,-17.137261 C 405.8996,82.913483 398.92921,75.794273 391.8744,68.663457 377.76477,54.401804 363.32068,40.090503 353.48814,30.462087 c -0.35278,-0.345219 -0.4898,-0.448268 -0.83055,-0.781422 l -0.24394,62.802323 c -0.0467,12.055462 9.04538,21.800782 20.38588,21.850482 z"
       id="rect4485"
       inkscape:connector-curvature="0" />
    <path
       style="opacity:1;fill:#f03364;fill-opacity:1;fill-rule:evenodd;stroke:#4a4a4a;stroke-width:0.85055965;stroke-linecap:square;stroke-linejoin:miter;stroke-miterlimit:4;stroke-dasharray:none;stroke-dashoffset:0;stroke-opacity:1;paint-order:markers fill stroke"
       d="M 125.61328 380.81641 C 122.40471 380.81641 119.33582 380.99109 116.40625 381.33984 C 113.54644 381.61885 110.40611 381.93249 106.98828 382.28125 L 106.98828 456.98633 C 110.61536 457.61409 113.71997 457.92773 116.30078 457.92773 C 118.67233 457.92773 121.70746 457.61409 125.4043 456.98633 L 125.4043 397.13867 C 125.5438 397.06892 125.85744 396.99944 126.3457 396.92969 C 126.83396 396.85994 127.42553 396.82617 128.12305 396.82617 C 130.98286 396.82617 133.39071 397.62814 135.34375 399.23242 C 137.29679 400.83671 138.27344 403.38156 138.27344 406.86914 C 138.27344 408.68268 137.95784 410.42753 137.33008 412.10156 C 136.77207 413.7756 136.03958 415.31005 135.13281 416.70508 C 134.29579 418.03036 133.35487 419.17973 132.30859 420.15625 C 131.33207 421.13277 130.42491 421.83149 129.58789 422.25 L 128.64648 422.77344 L 143.50391 456.98633 C 144.89894 457.26533 146.50287 457.47378 148.31641 457.61328 C 150.1997 457.75278 151.83934 457.82227 153.23438 457.82227 C 154.83866 457.82227 156.61727 457.75278 158.57031 457.61328 C 160.59311 457.47378 162.4412 457.26533 164.11523 456.98633 L 147.79297 424.76172 C 148.90899 423.9247 150.02655 422.91234 151.14258 421.72656 C 152.32835 420.54079 153.37448 419.1453 154.28125 417.54102 C 155.25777 415.93673 156.02402 414.12436 156.58203 412.10156 C 157.2098 410.00902 157.52344 407.6726 157.52344 405.0918 C 157.52344 400.27894 156.58251 396.30288 154.69922 393.16406 C 152.81593 390.02524 150.37432 387.54792 147.375 385.73438 C 144.37568 383.92083 140.95743 382.66627 137.12109 381.96875 C 133.28476 381.20148 129.44962 380.81641 125.61328 380.81641 z M 191.23828 380.81641 C 186.21617 380.81641 182.03167 381.0268 178.68359 381.44531 C 175.40527 381.79407 172.96366 382.072 171.35938 382.28125 L 171.35938 456.98633 C 174.98646 457.61409 178.02159 457.92773 180.46289 457.92773 C 181.71842 457.92773 183.07819 457.85825 184.54297 457.71875 C 186.00775 457.57925 187.64544 457.33509 189.45898 456.98633 L 189.45898 432.60742 C 190.017 432.74692 190.95988 432.88784 192.28516 433.02734 C 193.68019 433.0971 195.03995 433.13086 196.36523 433.13086 C 199.71331 433.13086 202.95688 432.71202 206.0957 431.875 C 209.30427 431.03798 212.12901 429.6425 214.57031 427.68945 C 217.08137 425.73641 219.07037 423.12207 220.53516 419.84375 C 222.06969 416.56543 222.83594 412.45041 222.83594 407.49805 C 222.83594 401.91792 221.89501 397.38406 220.01172 393.89648 C 218.12843 390.40891 215.6511 387.72314 212.58203 385.83984 C 209.58271 383.8868 206.20018 382.5608 202.43359 381.86328 C 198.66701 381.16577 194.93511 380.81641 191.23828 380.81641 z M 244.38281 381.44531 C 242.91803 381.44531 241.3141 381.55051 239.57031 381.75977 C 237.89628 381.89927 236.32611 382.072 234.86133 382.28125 L 231.82812 456.98633 C 235.0367 457.61409 237.86143 457.92773 240.30273 457.92773 C 242.95329 457.92773 245.74231 457.61409 248.67188 456.98633 L 249.82422 414.08789 L 260.07617 442.23438 C 261.26195 442.51338 262.41327 442.72183 263.5293 442.86133 C 264.64532 442.93108 265.72716 442.9668 266.77344 442.9668 C 267.81971 442.9668 268.97103 442.89536 270.22656 442.75586 C 271.48209 442.61636 272.73666 442.44363 273.99219 442.23438 L 285.50195 413.66992 L 286.9668 456.98633 C 290.31487 457.61409 293.20909 457.92773 295.65039 457.92773 C 297.88244 457.92773 299.66105 457.82254 300.98633 457.61328 C 302.38136 457.40403 303.63593 457.19558 304.75195 456.98633 L 301.19531 382.28125 C 299.73053 382.072 298.2318 381.89927 296.69727 381.75977 C 295.16273 381.55051 293.66205 381.44531 292.19727 381.44531 C 290.80223 381.44531 289.37299 381.55051 287.9082 381.75977 C 286.51317 381.89927 285.11769 382.072 283.72266 382.28125 L 268.3418 421.20312 L 253.48438 382.28125 C 252.08934 382.072 250.5549 381.89927 248.88086 381.75977 C 247.27657 381.55051 245.77784 381.44531 244.38281 381.44531 z M 191.13477 396.40625 L 192.59961 396.40625 C 194.13414 396.40625 195.59716 396.58093 196.99219 396.92969 C 198.38722 397.27845 199.60802 397.90573 200.6543 398.8125 C 201.70057 399.64952 202.50253 400.80084 203.06055 402.26562 C 203.68831 403.66066 204.00391 405.4055 204.00391 407.49805 C 204.00391 411.05538 203.06103 413.70543 201.17773 415.44922 C 199.29444 417.19301 196.85283 418.06445 193.85352 418.06445 C 192.94675 418.06445 192.0753 418.03069 191.23828 417.96094 C 190.40126 417.89119 189.80774 417.78599 189.45898 417.64648 L 189.45898 396.51172 C 190.017 396.44197 190.57675 396.40625 191.13477 396.40625 z "
       id="rect4610-3" />
    <g
       id="g4498"
       transform="matrix(0.42998642,0,0,0.42998642,70.962094,143.49445)"
       style="fill:#f03364;fill-opacity:1">
      <path
         id="path4486"
         d="m 125.707,451.74 c 1.521,-0.079 3.212,-0.637 4.539,-0.166 37.319,13.224 69.577,0.073 97.354,-22.777 28.489,-23.437 54.614,-49.915 80.509,-76.304 75.202,-76.638 163.328,-130.703 268.848,-153.462 52.331,-11.288 104.166,-9.014 150.93,21.247 13.982,9.048 26.999,20.28 38.446,32.411 21.438,22.716 13.86,53.002 -16.224,62.581 -14.855,4.73 -31.69,6.976 -47.145,5.448 -65.942,-6.523 -129.819,3.445 -190.854,26.52 -70.294,26.576 -138.568,58.45 -208.334,86.493 -36.137,14.524 -73.218,27.069 -110.619,37.936 -20.798,6.041 -42.708,4.817 -60.965,-10.785 -2.738,-2.34 -6.481,-3.502 -9.759,-5.208 1.09,-1.313 2.182,-2.623 3.274,-3.934 z"
         inkscape:connector-curvature="0"
         style="clip-rule:evenodd;fill:#f03364;fill-opacity:1;fill-rule:evenodd" />
      <path
         id="path4488"
         d="m 271.69,125.276 c 53.805,-31.364 104.231,-70.453 169.58,-75.959 17.514,-1.476 35.463,-1.497 52.894,0.54 37.406,4.369 60.55,26.585 71.433,62.161 7.004,22.898 14.228,45.735 20.67,68.79 0.903,3.227 -2.093,7.542 -3.285,11.354 -1.55,-0.268 -3.1,-0.535 -4.649,-0.801 -4.397,-15.688 -8.377,-31.511 -13.318,-47.026 -4.328,-13.593 -9.879,-26.794 -14.641,-40.257 -9.729,-27.505 -30.978,-37.774 -58.219,-40.595 -59.138,-6.123 -112.397,9.088 -161.611,41.64 -14.265,9.437 -29.95,16.82 -45.369,24.358 -3.57,1.745 -8.72,0.257 -13.143,0.257 -0.114,-1.488 -0.228,-2.975 -0.342,-4.462 z"
         inkscape:connector-curvature="0"
         style="clip-rule:evenodd;fill:#f03364;fill-opacity:1;fill-rule:evenodd" />
      <path
         id="path4490"
         d="m 340.872,305.958 c -12.398,13.865 -28.225,31.728 -44.324,49.342 -1.798,1.968 -5.131,3.537 -7.771,3.565 -14.279,0.161 -28.712,0.983 -42.806,-0.749 -15.127,-1.857 -22.13,-11.592 -22.541,-27.088 -0.178,-6.721 -0.03,-13.452 -0.03,-20.22 41.726,-1.723 82.966,-3.424 117.472,-4.85 z"
         inkscape:connector-curvature="0"
         style="clip-rule:evenodd;fill:#f03364;fill-opacity:1;fill-rule:evenodd" />
      <path
         id="path4492"
         d="m 226.456,300.926 c -0.701,-5.169 -2.04,-10.344 -2.003,-15.509 0.29,-40.006 -0.18,-80.055 1.543,-120.005 3.132,-72.613 65.561,-102.511 120.546,-93.382 -29.103,16.598 -55.87,32.787 -83.592,47.128 -8.669,4.485 -15.355,8.829 -16.703,18.33 -4.363,30.761 -8.979,61.519 -12.042,92.42 -2.071,20.914 -1.653,42.07 -2.458,63.113 -0.1,2.612 -0.868,5.199 -1.326,7.797 -1.322,0.036 -2.643,0.072 -3.965,0.108 z"
         inkscape:connector-curvature="0"
         style="clip-rule:evenodd;fill:#f03364;fill-opacity:1;fill-rule:evenodd" />
      <path
         id="path4494"
         d="m 389.369,149.975 c -16.56,-3.474 -33.564,-5.588 -49.543,-10.833 -13.865,-4.551 -14.962,-14.043 -3.053,-23.208 9.471,-7.288 20.303,-13.772 31.555,-17.6 33.271,-11.317 67.927,-15.601 102.996,-15.95 6.857,-0.068 13.739,2.043 20.873,5.869 -42.903,9.035 -84.275,20.083 -122.976,45.296 9.087,4.587 15.516,7.831 21.944,11.075 -0.599,1.783 -1.197,3.567 -1.796,5.351 z"
         inkscape:connector-curvature="0"
         style="clip-rule:evenodd;fill:#f03364;fill-opacity:1;fill-rule:evenodd" />
      <path
         id="path4496"
         d="M 114.304,446.227 C 101.153,439.555 93.144,429.71 89.197,415.966 78.528,378.815 78.77,342.151 97.731,308.164 c 25.57,-45.834 66.396,-74.562 113.212,-95.367 1.19,1.137 2.38,2.273 3.57,3.41 -3.184,3.645 -5.686,8.5 -9.661,10.74 -28.01,15.789 -54.627,33.343 -76.346,57.411 -39.435,43.699 -46.418,100.037 -19.035,152.14 1.685,3.202 3.225,6.482 4.833,9.729 z"
         inkscape:connector-curvature="0"
         style="clip-rule:evenodd;fill:#f03364;fill-opacity:1;fill-rule:evenodd" />
    </g>
  </g>
</svg>
