<?xml version="1.0" encoding="UTF-8" standalone="no"?>
<!-- Created with Inkscape (http://www.inkscape.org/) -->

<svg
   xmlns:osb="http://www.openswatchbook.org/uri/2009/osb"
   xmlns:dc="http://purl.org/dc/elements/1.1/"
   xmlns:cc="http://creativecommons.org/ns#"
   xmlns:rdf="http://www.w3.org/1999/02/22-rdf-syntax-ns#"
   xmlns:svg="http://www.w3.org/2000/svg"
   xmlns="http://www.w3.org/2000/svg"
   xmlns:xlink="http://www.w3.org/1999/xlink"
   xmlns:sodipodi="http://sodipodi.sourceforge.net/DTD/sodipodi-0.dtd"
   xmlns:inkscape="http://www.inkscape.org/namespaces/inkscape"
   width="512px"
   height="512px"
   viewBox="0 0 512 512"
   version="1.1"
   id="SVGRoot"
   inkscape:version="0.92.1 r15371"
   sodipodi:docname="rpmspec.svg">
  <sodipodi:namedview
     id="base"
     pagecolor="#ffffff"
     bordercolor="#666666"
     borderopacity="1.0"
     inkscape:pageopacity="0.0"
     inkscape:pageshadow="2"
     inkscape:zoom="1.4142136"
     inkscape:cx="202.64391"
     inkscape:cy="198.99247"
     inkscape:document-units="px"
     inkscape:current-layer="layer1"
     showgrid="false"
     inkscape:window-width="1280"
     inkscape:window-height="947"
     inkscape:window-x="0"
     inkscape:window-y="0"
     inkscape:window-maximized="1" />
  <defs
     id="defs4710">
    <linearGradient
       id="linearGradient8384"
       inkscape:collect="always">
      <stop
         id="stop8380"
         offset="0"
         style="stop-color:#181818;stop-opacity:0.62365592" />
      <stop
         id="stop8382"
         offset="1"
         style="stop-color:#404040;stop-opacity:0" />
    </linearGradient>
    <linearGradient
       inkscape:collect="always"
       id="linearGradient4573">
      <stop
         style="stop-color:#181818;stop-opacity:0.30645162"
         offset="0"
         id="stop4569" />
      <stop
         style="stop-color:#404040;stop-opacity:0"
         offset="1"
         id="stop4571" />
    </linearGradient>
    <marker
       inkscape:stockid="DotM"
       orient="auto"
       refY="0.0"
       refX="0.0"
       id="DotM"
       style="overflow:visible"
       inkscape:isstock="true">
      <path
         id="path4618"
         d="M -2.5,-1.0 C -2.5,1.7600000 -4.7400000,4.0 -7.5,4.0 C -10.260000,4.0 -12.5,1.7600000 -12.5,-1.0 C -12.5,-3.7600000 -10.260000,-6.0 -7.5,-6.0 C -4.7400000,-6.0 -2.5,-3.7600000 -2.5,-1.0 z "
         style="fill-rule:evenodd;stroke:#000000;stroke-width:1.0pt"
         transform="scale(0.4) translate(7.4, 1)" />
    </marker>
    <linearGradient
       osb:paint="solid"
       id="linearGradient5207">
      <stop
         id="stop5209"
         offset="0"
         style="stop-color:#000015;stop-opacity:1;" />
    </linearGradient>
    <clipPath
       id="clipPath3006-9-8"
       clipPathUnits="userSpaceOnUse">
      <path
         inkscape:export-ydpi="90"
         inkscape:export-xdpi="90"
         transform="matrix(1.2020779,0,0,1.2020779,-93.20363,-75.172465)"
         d="m 483,275.5 a 192.5,192.5 0 1 1 -385,0 192.5,192.5 0 1 1 385,0 z"
         sodipodi:ry="192.5"
         sodipodi:rx="192.5"
         sodipodi:cy="275.5"
         sodipodi:cx="290.5"
         id="path3008-1-1"
         style="fill:#ffffff;fill-opacity:1;stroke:none;display:inline"
         sodipodi:type="arc" />
    </clipPath>
    <mask
       id="mask3818-4"
       maskUnits="userSpaceOnUse">
      <path
         sodipodi:type="arc"
         style="fill:#ffffff;fill-opacity:1;stroke:none;display:inline"
         id="path3820-9"
         sodipodi:cx="290.5"
         sodipodi:cy="275.5"
         sodipodi:rx="192.5"
         sodipodi:ry="192.5"
         d="m 483,275.5 a 192.5,192.5 0 1 1 -385,0 192.5,192.5 0 1 1 385,0 z"
         transform="matrix(1.2020779,0,0,1.2020779,-93.20363,-75.172466)"
         inkscape:export-xdpi="90"
         inkscape:export-ydpi="90" />
    </mask>
    <clipPath
       id="clipPath3006"
       clipPathUnits="userSpaceOnUse">
      <path
         inkscape:export-ydpi="90"
         inkscape:export-xdpi="90"
         transform="matrix(1.2020779,0,0,1.2020779,-93.20363,-75.172465)"
         d="m 483,275.5 a 192.5,192.5 0 1 1 -385,0 192.5,192.5 0 1 1 385,0 z"
         sodipodi:ry="192.5"
         sodipodi:rx="192.5"
         sodipodi:cy="275.5"
         sodipodi:cx="290.5"
         id="path3008"
         style="fill:#ffffff;fill-opacity:1;stroke:none;display:inline"
         sodipodi:type="arc" />
    </clipPath>
    <clipPath
       id="clipPath3006-9"
       clipPathUnits="userSpaceOnUse">
      <path
         inkscape:export-ydpi="90"
         inkscape:export-xdpi="90"
         transform="matrix(1.2020779,0,0,1.2020779,-93.20363,-75.172465)"
         d="m 483,275.5 a 192.5,192.5 0 1 1 -385,0 192.5,192.5 0 1 1 385,0 z"
         sodipodi:ry="192.5"
         sodipodi:rx="192.5"
         sodipodi:cy="275.5"
         sodipodi:cx="290.5"
         id="path3008-1"
         style="fill:#ffffff;fill-opacity:1;stroke:none;display:inline"
         sodipodi:type="arc" />
    </clipPath>
    <mask
       maskUnits="userSpaceOnUse"
       id="mask3818-0">
      <path
         inkscape:export-ydpi="90"
         inkscape:export-xdpi="90"
         transform="matrix(1.2020779,0,0,1.2020779,-93.20363,-75.172466)"
         d="m 483,275.5 a 192.5,192.5 0 1 1 -385,0 192.5,192.5 0 1 1 385,0 z"
         sodipodi:ry="192.5"
         sodipodi:rx="192.5"
         sodipodi:cy="275.5"
         sodipodi:cx="290.5"
         id="path3820-8"
         style="fill:#ffffff;fill-opacity:1;stroke:none;display:inline"
         sodipodi:type="arc" />
    </mask>
    <mask
       maskUnits="userSpaceOnUse"
       id="mask3818-2">
      <path
         inkscape:export-ydpi="90"
         inkscape:export-xdpi="90"
         transform="matrix(1.2020779,0,0,1.2020779,-93.20363,-75.172466)"
         d="m 483,275.5 a 192.5,192.5 0 1 1 -385,0 192.5,192.5 0 1 1 385,0 z"
         sodipodi:ry="192.5"
         sodipodi:rx="192.5"
         sodipodi:cy="275.5"
         sodipodi:cx="290.5"
         id="path3820-2-2"
         style="fill:#ffffff;fill-opacity:1;stroke:none;display:inline"
         sodipodi:type="arc" />
    </mask>
    <clipPath
       id="clipPath3934"
       clipPathUnits="userSpaceOnUse">
      <path
         id="path3936"
         d="m 0,0 0,1024 1024,0 L 1024,0 0,0 z m 278.4375,333.84375 119.78125,0 c 9.83697,42.31453 19.85954,84.58596 29.9375,126.84375 9.86978,-42.28798 20.05132,-84.50237 29.6875,-126.84375 l 108.90625,0 c 9.63586,42.34141 19.8178,84.55578 29.6875,126.84375 10.07827,-42.25772 20.10031,-84.52927 29.9375,-126.84375 l 119.1875,0 c -26.26221,110.73099 -52.49625,221.46929 -78.28125,332.3125 l -122.8125,0 c -10.59439,-45.55681 -21.46638,-91.04874 -32.375,-136.53125 -10.66279,45.51136 -21.5615,90.96897 -32,136.53125 l -122.8125,0 c -25.71418,-110.03502 -52.0286,-219.92873 -78.25,-329.84375 l -0.59375,-2.46875 z"
         style="fill:#ff3232;fill-opacity:1;stroke:none"
         inkscape:connector-curvature="0" />
    </clipPath>
    <clipPath
       id="clipPath3929"
       clipPathUnits="userSpaceOnUse">
      <path
         inkscape:connector-curvature="0"
         style="fill:#ff3232;fill-opacity:1;stroke:none"
         d="m 0,0 0,1024 1024,0 L 1024,0 0,0 z m 278.4375,333.84375 119.78125,0 c 9.83697,42.31453 19.85954,84.58596 29.9375,126.84375 9.86978,-42.28798 20.05132,-84.50237 29.6875,-126.84375 l 108.90625,0 c 9.63586,42.34141 19.8178,84.55578 29.6875,126.84375 10.07827,-42.25772 20.10031,-84.52927 29.9375,-126.84375 l 119.1875,0 c -26.26221,110.73099 -52.49625,221.46929 -78.28125,332.3125 l -122.8125,0 c -10.59439,-45.55681 -21.46638,-91.04874 -32.375,-136.53125 -10.66279,45.51136 -21.5615,90.96897 -32,136.53125 l -122.8125,0 c -25.71418,-110.03502 -52.0286,-219.92873 -78.25,-329.84375 l -0.59375,-2.46875 z"
         id="path3931" />
    </clipPath>
    <mask
       maskUnits="userSpaceOnUse"
       id="mask3818">
      <path
         inkscape:export-ydpi="90"
         inkscape:export-xdpi="90"
         transform="matrix(1.2020779,0,0,1.2020779,-93.20363,-75.172466)"
         d="m 483,275.5 a 192.5,192.5 0 1 1 -385,0 192.5,192.5 0 1 1 385,0 z"
         sodipodi:ry="192.5"
         sodipodi:rx="192.5"
         sodipodi:cy="275.5"
         sodipodi:cx="290.5"
         id="path3820"
         style="fill:#ffffff;fill-opacity:1;stroke:none;display:inline"
         sodipodi:type="arc" />
    </mask>
    <linearGradient
       inkscape:collect="always"
       xlink:href="#linearGradient4573"
       id="linearGradient4575"
       x1="408.84314"
       y1="89.26915"
       x2="420.61133"
       y2="138.41306"
       gradientUnits="userSpaceOnUse"
       gradientTransform="matrix(0.99657796,0,0,1,1.2520606,0)" />
    <linearGradient
       inkscape:collect="always"
       xlink:href="#linearGradient8384"
       id="linearGradient6771"
       gradientUnits="userSpaceOnUse"
       gradientTransform="matrix(0.99657796,0,0,1,1.2520606,0)"
       x1="408.84314"
       y1="89.26915"
       x2="420.61133"
       y2="138.41306" />
  </defs>
  <metadata
     id="metadata4713">
    <rdf:RDF>
      <cc:Work
         rdf:about="">
        <dc:format>image/svg+xml</dc:format>
        <dc:type
           rdf:resource="http://purl.org/dc/dcmitype/StillImage" />
        <dc:title></dc:title>
      </cc:Work>
    </rdf:RDF>
  </metadata>
  <g
     id="layer1"
     inkscape:groupmode="layer"
     inkscape:label="Capa 1">
    <path
       style="opacity:1;fill:#575757;fill-opacity:1;fill-rule:evenodd;stroke:#f03364;stroke-width:2;stroke-linejoin:round;stroke-miterlimit:4;stroke-dasharray:none;stroke-dashoffset:0;stroke-opacity:1;paint-order:normal"
       d="m 97.583979,29.700195 c -11.07875,0 -19.99804,9.65194 -19.99804,21.64062 V 460.66113 c 0,11.9887 8.91929,21.63867 19.99804,21.63867 H 414.41602 c 11.07874,0 19.99804,-9.64997 19.99804,-21.63867 V 113.7959 c -0.33411,-0.32981 -0.46874,-0.43168 -0.81445,-0.77345 -9.64188,-9.53205 -23.80681,-23.701345 -37.64453,-37.822255 -6.91884,-7.06045 -13.75546,-14.10994 -19.9043,-20.56055 -6.14876,-6.45062 -11.60929,-12.30327 -15.77539,-16.97265 -3.0827,-3.45513 -4.82334,-5.68286 -6.625,-7.9668 z"
       id="path4506"
       inkscape:connector-curvature="0"
       sodipodi:nodetypes="ssssssccccccs" />
    <g
       id="g4584"
       transform="matrix(0.3829248,0,0,0.3829248,74.406719,31.973725)"
       style="fill:#75abd3;fill-opacity:1;stroke:#9dc4df;stroke-opacity:1" />
    <path
       style="opacity:1;fill:url(#linearGradient6771);fill-opacity:1;fill-rule:evenodd;stroke:none;stroke-width:8.77774811;stroke-linecap:square;stroke-linejoin:miter;stroke-miterlimit:4;stroke-dasharray:none;stroke-dashoffset:0;stroke-opacity:1;paint-order:markers fill stroke"
       d="m 433.28939,182.37584 v -69.47028 c 0,-0.0394 -0.0309,-0.0705 -0.0703,-0.0705 h -67.33747 c 4.09851,4.50878 8.40749,9.2132 13.77948,14.86279 7.205,7.57734 15.21697,15.8602 23.32513,24.15489 11.13885,11.3951 20.83136,21.05949 30.30308,30.52302 z"
       id="path4566"
       inkscape:connector-curvature="0" />
    <path
       style="opacity:1;fill:#f03364;fill-opacity:1;fill-rule:evenodd;stroke:none;stroke-width:1.05391276;stroke-linejoin:round;stroke-miterlimit:4;stroke-dasharray:none;stroke-dashoffset:0;stroke-opacity:1;paint-order:normal"
       d="m 435.00048,114.60612 c -1.83541,-2.30475 -3.6077,-4.55306 -6.74972,-8.04125 -4.24635,-4.71409 -9.8132,-10.623129 -16.08223,-17.137261 C 405.8996,82.913483 398.92921,75.794273 391.8744,68.663457 377.76477,54.401804 363.32068,40.090503 353.48814,30.462087 c -0.35278,-0.345219 -0.4898,-0.448268 -0.83055,-0.781422 l -0.24394,62.802323 c -0.0467,12.055462 9.04538,21.800782 20.38588,21.850482 z"
       id="rect4485"
       inkscape:connector-curvature="0" />
    <path
       style="opacity:1;fill:#f03364;fill-opacity:1;fill-rule:evenodd;stroke:#4a4a4a;stroke-width:0.85055965;stroke-linecap:square;stroke-linejoin:miter;stroke-miterlimit:4;stroke-dasharray:none;stroke-dashoffset:0;stroke-opacity:1;paint-order:markers fill stroke"
       d="M 177.41602 380.81641 C 173.44018 380.81641 169.84724 381.34045 166.63867 382.38672 C 163.4301 383.36324 160.67485 384.86197 158.37305 386.88477 C 156.141 388.83781 154.39615 391.24565 153.14062 394.10547 C 151.8851 396.96528 151.25781 400.24262 151.25781 403.93945 C 151.25781 406.93877 151.64094 409.55506 152.4082 411.78711 C 153.24522 414.01916 154.39655 416.00621 155.86133 417.75 C 157.32611 419.42404 159.07095 420.889 161.09375 422.14453 C 163.1863 423.40006 165.48699 424.4819 167.99805 425.38867 L 173.85742 427.58594 C 174.76419 427.9347 175.63564 428.31782 176.47266 428.73633 C 177.37943 429.08509 178.18139 429.53964 178.87891 430.09766 C 179.57642 430.65567 180.13618 431.35243 180.55469 432.18945 C 180.9732 432.95672 181.18164 433.89765 181.18164 435.01367 C 181.18164 437.66423 180.16928 439.54804 178.14648 440.66406 C 176.19344 441.71034 173.44014 442.23438 169.88281 442.23438 C 165.13971 442.23437 159.55777 440.83889 153.14062 438.04883 C 152.1641 440.90864 151.32837 443.73338 150.63086 446.52344 C 149.93334 449.24375 149.44502 451.82432 149.16602 454.26562 C 153.00235 455.73041 156.55957 456.81225 159.83789 457.50977 C 163.18597 458.20728 167.02111 458.55469 171.3457 458.55469 C 176.08881 458.55469 180.27526 457.99688 183.90234 456.88086 C 187.59918 455.69508 190.70183 454.05739 193.21289 451.96484 C 195.72395 449.80255 197.60775 447.25574 198.86328 444.32617 C 200.18856 441.32685 200.85156 437.97808 200.85156 434.28125 C 200.85156 430.86342 200.39896 427.96921 199.49219 425.59766 C 198.58542 423.15635 197.29513 421.09982 195.62109 419.42578 C 193.94706 417.68199 191.92429 416.21703 189.55273 415.03125 C 187.25093 413.77572 184.63464 412.55492 181.70508 411.36914 L 176.68359 409.38086 C 174.87005 408.68334 173.29989 407.84566 171.97461 406.86914 C 170.64933 405.89262 169.98633 404.39389 169.98633 402.37109 C 169.98633 401.18532 170.23049 400.20867 170.71875 399.44141 C 171.20701 398.60439 171.8343 397.9771 172.60156 397.55859 C 173.43858 397.07033 174.34574 396.72097 175.32227 396.51172 C 176.36854 396.30246 177.45038 396.19727 178.56641 396.19727 C 182.19349 396.19727 185.22666 396.61611 187.66797 397.45312 C 190.10927 398.29014 192.23724 399.09211 194.05078 399.85938 C 195.16681 397.48782 196.07397 394.97673 196.77148 392.32617 C 197.53875 389.60586 198.06084 387.13049 198.33984 384.89844 C 194.57326 383.57316 191.01604 382.5608 187.66797 381.86328 C 184.38965 381.16577 180.97335 380.81641 177.41602 380.81641 z M 230.71875 401.95117 C 227.57993 401.95117 224.30064 402.09209 220.88281 402.37109 C 217.53474 402.58035 214.25545 402.92775 211.04688 403.41602 L 211.04688 457.19531 C 212.86042 457.54407 214.43058 457.75251 215.75586 457.82227 C 217.15089 457.96177 218.44118 458.0332 219.62695 458.0332 C 220.74298 458.0332 221.9995 457.96177 223.39453 457.82227 C 224.85931 457.75251 226.49701 457.54407 228.31055 457.19531 L 228.31055 444.32617 C 228.5198 444.39592 229.04384 444.4654 229.88086 444.53516 C 230.71788 444.60491 231.72829 444.64063 232.91406 444.64062 C 235.84363 444.64063 238.70408 444.29127 241.49414 443.59375 C 244.35395 442.82648 246.90076 441.60568 249.13281 439.93164 C 251.36486 438.2576 253.14347 436.06015 254.46875 433.33984 C 255.86378 430.61953 256.56055 427.27271 256.56055 423.29688 C 256.56055 418.90253 255.7943 415.34531 254.25977 412.625 C 252.79498 409.83494 250.8417 407.67125 248.40039 406.13672 C 245.95909 404.53243 243.20383 403.45254 240.13477 402.89453 C 237.0657 402.26677 233.92732 401.95117 230.71875 401.95117 z M 289.16602 401.95117 C 284.70192 401.95117 280.79534 402.71937 277.44727 404.25391 C 274.09919 405.71869 271.30822 407.74146 269.07617 410.32227 C 266.84412 412.90307 265.17071 415.9382 264.05469 419.42578 C 262.93866 422.91336 262.38086 426.6433 262.38086 430.61914 C 262.38086 434.66473 262.90295 438.39663 263.94922 441.81445 C 265.06524 445.23228 266.74061 448.19793 268.97266 450.70898 C 271.27446 453.15029 274.20439 455.06786 277.76172 456.46289 C 281.3888 457.85792 285.71226 458.55469 290.73438 458.55469 C 297.22127 458.55469 303.56945 457.40532 309.77734 455.10352 C 309.70759 452.3832 309.28875 449.76692 308.52148 447.25586 C 307.82397 444.7448 306.98629 442.58307 306.00977 440.76953 C 303.56846 441.74605 301.09309 442.47854 298.58203 442.9668 C 296.07098 443.45506 293.80405 443.69922 291.78125 443.69922 C 288.64243 443.69922 286.09562 443.1057 284.14258 441.91992 C 282.25929 440.73415 280.93524 438.71138 280.16797 435.85156 L 311.97461 435.85156 C 312.11411 434.87504 312.25308 433.65424 312.39258 432.18945 C 312.60183 430.65492 312.70703 428.94579 312.70703 427.0625 C 312.70703 423.43542 312.14923 420.08665 311.0332 417.01758 C 309.98693 413.87876 308.45248 411.2287 306.42969 409.06641 C 304.40689 406.83436 301.92957 405.09147 299 403.83594 C 296.14019 402.58041 292.86285 401.95117 289.16602 401.95117 z M 345.57031 401.95117 C 341.24572 401.95117 337.41057 402.64989 334.0625 404.04492 C 330.71443 405.43995 327.88969 407.39324 325.58789 409.9043 C 323.28609 412.3456 321.54125 415.3093 320.35547 418.79688 C 319.16969 422.28445 318.57617 426.12155 318.57617 430.30664 C 318.57617 434.63124 319.16969 438.53586 320.35547 442.02344 C 321.54125 445.44126 323.28609 448.40691 325.58789 450.91797 C 327.95944 453.35927 330.85366 455.24308 334.27148 456.56836 C 337.68931 457.89364 341.62965 458.55469 346.09375 458.55469 C 348.74431 458.55469 351.39436 458.38196 354.04492 458.0332 C 356.69548 457.68445 359.62541 456.88053 362.83398 455.625 C 362.83398 452.62568 362.48462 449.97563 361.78711 447.67383 C 361.08959 445.30228 360.14867 443.17431 358.96289 441.29102 C 356.9401 442.05828 355.16149 442.61804 353.62695 442.9668 C 352.16217 443.31555 350.41928 443.48828 348.39648 443.48828 C 346.7922 443.48828 345.25775 443.27984 343.79297 442.86133 C 342.39794 442.44282 341.14142 441.74605 340.02539 440.76953 C 338.97912 439.79301 338.10767 438.46701 337.41016 436.79297 C 336.78239 435.04918 336.46875 432.88745 336.46875 430.30664 C 336.46875 425.42403 337.54864 422.00578 339.71094 420.05273 C 341.94299 418.02994 344.73396 417.01758 348.08203 417.01758 C 348.9888 417.01758 349.82648 417.0533 350.59375 417.12305 C 351.43077 417.12305 352.2665 417.19253 353.10352 417.33203 C 353.94053 417.47153 354.81198 417.68193 355.71875 417.96094 C 356.69527 418.17019 357.77711 418.48383 358.96289 418.90234 C 360.14867 416.67029 361.02011 414.40336 361.57812 412.10156 C 362.13614 409.73001 362.34653 407.35788 362.20703 404.98633 C 360.53299 404.35856 358.99855 403.83452 357.60352 403.41602 C 356.27824 402.99751 354.95223 402.68386 353.62695 402.47461 C 352.37143 402.26535 351.08114 402.12639 349.75586 402.05664 C 348.43058 401.98689 347.0351 401.95117 345.57031 401.95117 z M 288.53711 415.24023 C 291.11792 415.24023 293.0712 416.07596 294.39648 417.75 C 295.79152 419.35429 296.55972 421.37705 296.69922 423.81836 L 279.95898 423.81836 C 280.23799 420.88879 281.17892 418.72706 282.7832 417.33203 C 284.38749 415.937 286.30506 415.24023 288.53711 415.24023 z M 229.88086 415.44922 L 231.13672 415.44922 C 233.43852 415.44922 235.35609 416.14598 236.89062 417.54102 C 238.49491 418.8663 239.29688 420.78582 239.29688 423.29688 C 239.29688 426.22644 238.49491 428.31869 236.89062 429.57422 C 235.35609 430.76 233.36904 431.35156 230.92773 431.35156 L 229.56641 431.35156 C 229.07815 431.28181 228.6593 431.21233 228.31055 431.14258 L 228.31055 415.55273 C 228.86856 415.48298 229.3926 415.44922 229.88086 415.44922 z "
       id="rect4610-3" />
    <g
       id="g4498"
       transform="matrix(0.42998642,0,0,0.42998642,70.962094,143.49445)"
       style="fill:#f03364;fill-opacity:1">
      <path
         id="path4486"
         d="m 125.707,451.74 c 1.521,-0.079 3.212,-0.637 4.539,-0.166 37.319,13.224 69.577,0.073 97.354,-22.777 28.489,-23.437 54.614,-49.915 80.509,-76.304 75.202,-76.638 163.328,-130.703 268.848,-153.462 52.331,-11.288 104.166,-9.014 150.93,21.247 13.982,9.048 26.999,20.28 38.446,32.411 21.438,22.716 13.86,53.002 -16.224,62.581 -14.855,4.73 -31.69,6.976 -47.145,5.448 -65.942,-6.523 -129.819,3.445 -190.854,26.52 -70.294,26.576 -138.568,58.45 -208.334,86.493 -36.137,14.524 -73.218,27.069 -110.619,37.936 -20.798,6.041 -42.708,4.817 -60.965,-10.785 -2.738,-2.34 -6.481,-3.502 -9.759,-5.208 1.09,-1.313 2.182,-2.623 3.274,-3.934 z"
         inkscape:connector-curvature="0"
         style="clip-rule:evenodd;fill:#f03364;fill-opacity:1;fill-rule:evenodd" />
      <path
         id="path4488"
         d="m 271.69,125.276 c 53.805,-31.364 104.231,-70.453 169.58,-75.959 17.514,-1.476 35.463,-1.497 52.894,0.54 37.406,4.369 60.55,26.585 71.433,62.161 7.004,22.898 14.228,45.735 20.67,68.79 0.903,3.227 -2.093,7.542 -3.285,11.354 -1.55,-0.268 -3.1,-0.535 -4.649,-0.801 -4.397,-15.688 -8.377,-31.511 -13.318,-47.026 -4.328,-13.593 -9.879,-26.794 -14.641,-40.257 -9.729,-27.505 -30.978,-37.774 -58.219,-40.595 -59.138,-6.123 -112.397,9.088 -161.611,41.64 -14.265,9.437 -29.95,16.82 -45.369,24.358 -3.57,1.745 -8.72,0.257 -13.143,0.257 -0.114,-1.488 -0.228,-2.975 -0.342,-4.462 z"
         inkscape:connector-curvature="0"
         style="clip-rule:evenodd;fill:#f03364;fill-opacity:1;fill-rule:evenodd" />
      <path
         id="path4490"
         d="m 340.872,305.958 c -12.398,13.865 -28.225,31.728 -44.324,49.342 -1.798,1.968 -5.131,3.537 -7.771,3.565 -14.279,0.161 -28.712,0.983 -42.806,-0.749 -15.127,-1.857 -22.13,-11.592 -22.541,-27.088 -0.178,-6.721 -0.03,-13.452 -0.03,-20.22 41.726,-1.723 82.966,-3.424 117.472,-4.85 z"
         inkscape:connector-curvature="0"
         style="clip-rule:evenodd;fill:#f03364;fill-opacity:1;fill-rule:evenodd" />
      <path
         id="path4492"
         d="m 226.456,300.926 c -0.701,-5.169 -2.04,-10.344 -2.003,-15.509 0.29,-40.006 -0.18,-80.055 1.543,-120.005 3.132,-72.613 65.561,-102.511 120.546,-93.382 -29.103,16.598 -55.87,32.787 -83.592,47.128 -8.669,4.485 -15.355,8.829 -16.703,18.33 -4.363,30.761 -8.979,61.519 -12.042,92.42 -2.071,20.914 -1.653,42.07 -2.458,63.113 -0.1,2.612 -0.868,5.199 -1.326,7.797 -1.322,0.036 -2.643,0.072 -3.965,0.108 z"
         inkscape:connector-curvature="0"
         style="clip-rule:evenodd;fill:#f03364;fill-opacity:1;fill-rule:evenodd" />
      <path
         id="path4494"
         d="m 389.369,149.975 c -16.56,-3.474 -33.564,-5.588 -49.543,-10.833 -13.865,-4.551 -14.962,-14.043 -3.053,-23.208 9.471,-7.288 20.303,-13.772 31.555,-17.6 33.271,-11.317 67.927,-15.601 102.996,-15.95 6.857,-0.068 13.739,2.043 20.873,5.869 -42.903,9.035 -84.275,20.083 -122.976,45.296 9.087,4.587 15.516,7.831 21.944,11.075 -0.599,1.783 -1.197,3.567 -1.796,5.351 z"
         inkscape:connector-curvature="0"
         style="clip-rule:evenodd;fill:#f03364;fill-opacity:1;fill-rule:evenodd" />
      <path
         id="path4496"
         d="M 114.304,446.227 C 101.153,439.555 93.144,429.71 89.197,415.966 78.528,378.815 78.77,342.151 97.731,308.164 c 25.57,-45.834 66.396,-74.562 113.212,-95.367 1.19,1.137 2.38,2.273 3.57,3.41 -3.184,3.645 -5.686,8.5 -9.661,10.74 -28.01,15.789 -54.627,33.343 -76.346,57.411 -39.435,43.699 -46.418,100.037 -19.035,152.14 1.685,3.202 3.225,6.482 4.833,9.729 z"
         inkscape:connector-curvature="0"
         style="clip-rule:evenodd;fill:#f03364;fill-opacity:1;fill-rule:evenodd" />
    </g>
  </g>
</svg>
