<?xml version="1.0" encoding="UTF-8" standalone="no"?>
<!-- Created with Inkscape (http://www.inkscape.org/) -->

<svg
   xmlns:osb="http://www.openswatchbook.org/uri/2009/osb"
   xmlns:dc="http://purl.org/dc/elements/1.1/"
   xmlns:cc="http://creativecommons.org/ns#"
   xmlns:rdf="http://www.w3.org/1999/02/22-rdf-syntax-ns#"
   xmlns:svg="http://www.w3.org/2000/svg"
   xmlns="http://www.w3.org/2000/svg"
   xmlns:xlink="http://www.w3.org/1999/xlink"
   xmlns:sodipodi="http://sodipodi.sourceforge.net/DTD/sodipodi-0.dtd"
   xmlns:inkscape="http://www.inkscape.org/namespaces/inkscape"
   width="512px"
   height="512px"
   viewBox="0 0 512 512"
   version="1.1"
   id="SVGRoot"
   inkscape:version="0.92.1 r15371"
   sodipodi:docname="run.svg">
  <sodipodi:namedview
     id="base"
     pagecolor="#ffffff"
     bordercolor="#666666"
     borderopacity="1.0"
     inkscape:pageopacity="0.0"
     inkscape:pageshadow="2"
     inkscape:zoom="0.70710678"
     inkscape:cx="58.387017"
     inkscape:cy="258.09403"
     inkscape:document-units="px"
     inkscape:current-layer="layer1"
     showgrid="false"
     inkscape:window-width="1280"
     inkscape:window-height="947"
     inkscape:window-x="0"
     inkscape:window-y="0"
     inkscape:window-maximized="1" />
  <defs
     id="defs4710">
    <linearGradient
       id="linearGradient8384"
       inkscape:collect="always">
      <stop
         id="stop8380"
         offset="0"
         style="stop-color:#181818;stop-opacity:0.97311831" />
      <stop
         id="stop8382"
         offset="1"
         style="stop-color:#404040;stop-opacity:0.11827957" />
    </linearGradient>
    <linearGradient
       inkscape:collect="always"
       id="linearGradient4573">
      <stop
         style="stop-color:#181818;stop-opacity:0.30645162"
         offset="0"
         id="stop4569" />
      <stop
         style="stop-color:#404040;stop-opacity:0"
         offset="1"
         id="stop4571" />
    </linearGradient>
    <marker
       inkscape:stockid="DotM"
       orient="auto"
       refY="0.0"
       refX="0.0"
       id="DotM"
       style="overflow:visible"
       inkscape:isstock="true">
      <path
         id="path4618"
         d="M -2.5,-1.0 C -2.5,1.7600000 -4.7400000,4.0 -7.5,4.0 C -10.260000,4.0 -12.5,1.7600000 -12.5,-1.0 C -12.5,-3.7600000 -10.260000,-6.0 -7.5,-6.0 C -4.7400000,-6.0 -2.5,-3.7600000 -2.5,-1.0 z "
         style="fill-rule:evenodd;stroke:#000000;stroke-width:1.0pt"
         transform="scale(0.4) translate(7.4, 1)" />
    </marker>
    <linearGradient
       osb:paint="solid"
       id="linearGradient5207">
      <stop
         id="stop5209"
         offset="0"
         style="stop-color:#000015;stop-opacity:1;" />
    </linearGradient>
    <clipPath
       id="clipPath3006-9-8"
       clipPathUnits="userSpaceOnUse">
      <path
         inkscape:export-ydpi="90"
         inkscape:export-xdpi="90"
         transform="matrix(1.2020779,0,0,1.2020779,-93.20363,-75.172465)"
         d="m 483,275.5 a 192.5,192.5 0 1 1 -385,0 192.5,192.5 0 1 1 385,0 z"
         sodipodi:ry="192.5"
         sodipodi:rx="192.5"
         sodipodi:cy="275.5"
         sodipodi:cx="290.5"
         id="path3008-1-1"
         style="fill:#ffffff;fill-opacity:1;stroke:none;display:inline"
         sodipodi:type="arc" />
    </clipPath>
    <mask
       id="mask3818-4"
       maskUnits="userSpaceOnUse">
      <path
         sodipodi:type="arc"
         style="fill:#ffffff;fill-opacity:1;stroke:none;display:inline"
         id="path3820-9"
         sodipodi:cx="290.5"
         sodipodi:cy="275.5"
         sodipodi:rx="192.5"
         sodipodi:ry="192.5"
         d="m 483,275.5 a 192.5,192.5 0 1 1 -385,0 192.5,192.5 0 1 1 385,0 z"
         transform="matrix(1.2020779,0,0,1.2020779,-93.20363,-75.172466)"
         inkscape:export-xdpi="90"
         inkscape:export-ydpi="90" />
    </mask>
    <clipPath
       id="clipPath3006"
       clipPathUnits="userSpaceOnUse">
      <path
         inkscape:export-ydpi="90"
         inkscape:export-xdpi="90"
         transform="matrix(1.2020779,0,0,1.2020779,-93.20363,-75.172465)"
         d="m 483,275.5 a 192.5,192.5 0 1 1 -385,0 192.5,192.5 0 1 1 385,0 z"
         sodipodi:ry="192.5"
         sodipodi:rx="192.5"
         sodipodi:cy="275.5"
         sodipodi:cx="290.5"
         id="path3008"
         style="fill:#ffffff;fill-opacity:1;stroke:none;display:inline"
         sodipodi:type="arc" />
    </clipPath>
    <clipPath
       id="clipPath3006-9"
       clipPathUnits="userSpaceOnUse">
      <path
         inkscape:export-ydpi="90"
         inkscape:export-xdpi="90"
         transform="matrix(1.2020779,0,0,1.2020779,-93.20363,-75.172465)"
         d="m 483,275.5 a 192.5,192.5 0 1 1 -385,0 192.5,192.5 0 1 1 385,0 z"
         sodipodi:ry="192.5"
         sodipodi:rx="192.5"
         sodipodi:cy="275.5"
         sodipodi:cx="290.5"
         id="path3008-1"
         style="fill:#ffffff;fill-opacity:1;stroke:none;display:inline"
         sodipodi:type="arc" />
    </clipPath>
    <mask
       maskUnits="userSpaceOnUse"
       id="mask3818-0">
      <path
         inkscape:export-ydpi="90"
         inkscape:export-xdpi="90"
         transform="matrix(1.2020779,0,0,1.2020779,-93.20363,-75.172466)"
         d="m 483,275.5 a 192.5,192.5 0 1 1 -385,0 192.5,192.5 0 1 1 385,0 z"
         sodipodi:ry="192.5"
         sodipodi:rx="192.5"
         sodipodi:cy="275.5"
         sodipodi:cx="290.5"
         id="path3820-8"
         style="fill:#ffffff;fill-opacity:1;stroke:none;display:inline"
         sodipodi:type="arc" />
    </mask>
    <mask
       maskUnits="userSpaceOnUse"
       id="mask3818-2">
      <path
         inkscape:export-ydpi="90"
         inkscape:export-xdpi="90"
         transform="matrix(1.2020779,0,0,1.2020779,-93.20363,-75.172466)"
         d="m 483,275.5 a 192.5,192.5 0 1 1 -385,0 192.5,192.5 0 1 1 385,0 z"
         sodipodi:ry="192.5"
         sodipodi:rx="192.5"
         sodipodi:cy="275.5"
         sodipodi:cx="290.5"
         id="path3820-2-2"
         style="fill:#ffffff;fill-opacity:1;stroke:none;display:inline"
         sodipodi:type="arc" />
    </mask>
    <clipPath
       id="clipPath3934"
       clipPathUnits="userSpaceOnUse">
      <path
         id="path3936"
         d="m 0,0 0,1024 1024,0 L 1024,0 0,0 z m 278.4375,333.84375 119.78125,0 c 9.83697,42.31453 19.85954,84.58596 29.9375,126.84375 9.86978,-42.28798 20.05132,-84.50237 29.6875,-126.84375 l 108.90625,0 c 9.63586,42.34141 19.8178,84.55578 29.6875,126.84375 10.07827,-42.25772 20.10031,-84.52927 29.9375,-126.84375 l 119.1875,0 c -26.26221,110.73099 -52.49625,221.46929 -78.28125,332.3125 l -122.8125,0 c -10.59439,-45.55681 -21.46638,-91.04874 -32.375,-136.53125 -10.66279,45.51136 -21.5615,90.96897 -32,136.53125 l -122.8125,0 c -25.71418,-110.03502 -52.0286,-219.92873 -78.25,-329.84375 l -0.59375,-2.46875 z"
         style="fill:#ff3232;fill-opacity:1;stroke:none"
         inkscape:connector-curvature="0" />
    </clipPath>
    <clipPath
       id="clipPath3929"
       clipPathUnits="userSpaceOnUse">
      <path
         inkscape:connector-curvature="0"
         style="fill:#ff3232;fill-opacity:1;stroke:none"
         d="m 0,0 0,1024 1024,0 L 1024,0 0,0 z m 278.4375,333.84375 119.78125,0 c 9.83697,42.31453 19.85954,84.58596 29.9375,126.84375 9.86978,-42.28798 20.05132,-84.50237 29.6875,-126.84375 l 108.90625,0 c 9.63586,42.34141 19.8178,84.55578 29.6875,126.84375 10.07827,-42.25772 20.10031,-84.52927 29.9375,-126.84375 l 119.1875,0 c -26.26221,110.73099 -52.49625,221.46929 -78.28125,332.3125 l -122.8125,0 c -10.59439,-45.55681 -21.46638,-91.04874 -32.375,-136.53125 -10.66279,45.51136 -21.5615,90.96897 -32,136.53125 l -122.8125,0 c -25.71418,-110.03502 -52.0286,-219.92873 -78.25,-329.84375 l -0.59375,-2.46875 z"
         id="path3931" />
    </clipPath>
    <mask
       maskUnits="userSpaceOnUse"
       id="mask3818">
      <path
         inkscape:export-ydpi="90"
         inkscape:export-xdpi="90"
         transform="matrix(1.2020779,0,0,1.2020779,-93.20363,-75.172466)"
         d="m 483,275.5 a 192.5,192.5 0 1 1 -385,0 192.5,192.5 0 1 1 385,0 z"
         sodipodi:ry="192.5"
         sodipodi:rx="192.5"
         sodipodi:cy="275.5"
         sodipodi:cx="290.5"
         id="path3820"
         style="fill:#ffffff;fill-opacity:1;stroke:none;display:inline"
         sodipodi:type="arc" />
    </mask>
    <linearGradient
       inkscape:collect="always"
       xlink:href="#linearGradient4573"
       id="linearGradient4575"
       x1="408.84314"
       y1="89.26915"
       x2="420.61133"
       y2="138.41306"
       gradientUnits="userSpaceOnUse"
       gradientTransform="matrix(0.99657796,0,0,1,1.2520606,0)" />
    <linearGradient
       inkscape:collect="always"
       xlink:href="#linearGradient8384"
       id="linearGradient6771"
       gradientUnits="userSpaceOnUse"
       gradientTransform="matrix(0.99657796,0,0,1,1.3692481,-0.00390625)"
       x1="408.84314"
       y1="89.26915"
       x2="420.61133"
       y2="138.41306" />
  </defs>
  <metadata
     id="metadata4713">
    <rdf:RDF>
      <cc:Work
         rdf:about="">
        <dc:format>image/svg+xml</dc:format>
        <dc:type
           rdf:resource="http://purl.org/dc/dcmitype/StillImage" />
        <dc:title></dc:title>
      </cc:Work>
    </rdf:RDF>
  </metadata>
  <g
     id="layer1"
     inkscape:groupmode="layer"
     inkscape:label="Capa 1">
    <path
       style="opacity:1;fill:#394050;fill-opacity:1;fill-rule:evenodd;stroke:#ccd7dc;stroke-width:2;stroke-linejoin:round;stroke-miterlimit:4;stroke-dasharray:none;stroke-dashoffset:0;stroke-opacity:1;paint-order:normal"
       d="m 97.583979,29.700195 c -11.07875,0 -19.99804,9.65194 -19.99804,21.64062 V 460.66113 c 0,11.9887 8.91929,21.63867 19.99804,21.63867 H 414.41602 c 11.07874,0 19.99804,-9.64997 19.99804,-21.63867 V 113.7959 c -0.33411,-0.32981 -0.46874,-0.43168 -0.81445,-0.77345 -9.64188,-9.53205 -23.80681,-23.701345 -37.64453,-37.822255 -6.91884,-7.06045 -13.75546,-14.10994 -19.9043,-20.56055 -6.14876,-6.45062 -11.60929,-12.30327 -15.77539,-16.97265 -3.0827,-3.45513 -4.82334,-5.68286 -6.625,-7.9668 z"
       id="path4506"
       inkscape:connector-curvature="0"
       sodipodi:nodetypes="ssssssccccccs" />
    <g
       id="g4584"
       transform="matrix(0.3829248,0,0,0.3829248,74.406719,31.973725)"
       style="fill:#75abd3;fill-opacity:1;stroke:#9dc4df;stroke-opacity:1" />
    <path
       style="opacity:1;fill:#ccd7dc;fill-opacity:1;fill-rule:evenodd;stroke:#7794a1;stroke-width:0.851;stroke-linecap:square;stroke-linejoin:miter;stroke-miterlimit:4;stroke-dasharray:none;stroke-dashoffset:0;stroke-opacity:1;paint-order:markers fill stroke"
       d="M 125.61328 380.81641 C 122.40471 380.81641 119.33582 380.99109 116.40625 381.33984 C 113.54644 381.61885 110.40611 381.93249 106.98828 382.28125 L 106.98828 456.98633 C 110.61536 457.61409 113.71997 457.92773 116.30078 457.92773 C 118.67233 457.92773 121.70746 457.61409 125.4043 456.98633 L 125.4043 397.13867 C 125.5438 397.06892 125.85744 396.99944 126.3457 396.92969 C 126.83396 396.85994 127.42553 396.82617 128.12305 396.82617 C 130.98286 396.82617 133.39071 397.62814 135.34375 399.23242 C 137.29679 400.83671 138.27344 403.38156 138.27344 406.86914 C 138.27344 408.68268 137.95784 410.42753 137.33008 412.10156 C 136.77207 413.7756 136.03958 415.31005 135.13281 416.70508 C 134.29579 418.03036 133.35487 419.17973 132.30859 420.15625 C 131.33207 421.13277 130.42491 421.83149 129.58789 422.25 L 128.64648 422.77344 L 143.50391 456.98633 C 144.89894 457.26533 146.50287 457.47378 148.31641 457.61328 C 150.1997 457.75278 151.83934 457.82227 153.23438 457.82227 C 154.83866 457.82227 156.61727 457.75278 158.57031 457.61328 C 160.59311 457.47378 162.4412 457.26533 164.11523 456.98633 L 147.79297 424.76172 C 148.90899 423.9247 150.02655 422.91234 151.14258 421.72656 C 152.32835 420.54079 153.37448 419.1453 154.28125 417.54102 C 155.25777 415.93673 156.02402 414.12436 156.58203 412.10156 C 157.2098 410.00902 157.52344 407.6726 157.52344 405.0918 C 157.52344 400.27894 156.58251 396.30288 154.69922 393.16406 C 152.81593 390.02524 150.37432 387.54792 147.375 385.73438 C 144.37568 383.92083 140.95743 382.66627 137.12109 381.96875 C 133.28476 381.20148 129.44962 380.81641 125.61328 380.81641 z M 246.4375 381.44531 C 245.25172 381.44531 244.03092 381.51479 242.77539 381.6543 C 241.51986 381.7938 240.12438 382.00224 238.58984 382.28125 L 238.58984 456.98633 C 241.72866 457.61409 244.5534 457.92773 247.06445 457.92773 C 249.57551 457.92773 252.36648 457.61409 255.43555 456.98633 L 255.43555 416.18164 L 279.81445 456.98633 C 280.44222 457.12583 281.45263 457.30051 282.84766 457.50977 C 284.24269 457.78877 285.81285 457.92773 287.55664 457.92773 C 289.09117 457.92773 290.52042 457.82254 291.8457 457.61328 C 293.17098 457.40403 294.18334 457.19558 294.88086 456.98633 L 294.98438 382.28125 C 293.51959 382.00224 292.12411 381.7938 290.79883 381.6543 C 289.47355 381.51479 288.21898 381.44531 287.0332 381.44531 C 285.84743 381.44531 284.52142 381.51479 283.05664 381.6543 C 281.59186 381.7938 279.95417 382.00224 278.14062 382.28125 L 278.14062 423.29688 L 253.86523 382.28125 C 252.88871 382.072 251.70362 381.89927 250.30859 381.75977 C 248.98331 381.55051 247.69303 381.44531 246.4375 381.44531 z M 178.31445 381.54883 C 176.98917 381.54883 175.59369 381.62026 174.12891 381.75977 C 172.66412 381.82952 170.91928 382.00224 168.89648 382.28125 L 168.89648 425.07422 C 168.89648 430.23583 169.31533 434.87489 170.15234 438.99023 C 171.05911 443.10558 172.59356 446.62708 174.75586 449.55664 C 176.91816 452.41645 179.84809 454.6139 183.54492 456.14844 C 187.31151 457.68297 192.02005 458.45117 197.66992 458.45117 C 203.3198 458.45117 207.99262 457.68297 211.68945 456.14844 C 215.45604 454.6139 218.42169 452.41645 220.58398 449.55664 C 222.74628 446.62708 224.24501 443.10558 225.08203 438.99023 C 225.9888 434.87489 226.44141 430.23583 226.44141 425.07422 L 226.44141 382.28125 C 224.41861 382.00224 222.67572 381.82952 221.21094 381.75977 C 219.74615 381.62026 218.38639 381.54883 217.13086 381.54883 C 215.94508 381.54883 214.61908 381.62026 213.1543 381.75977 C 211.75927 381.82952 210.01637 382.00224 207.92383 382.28125 L 207.92383 422.87695 C 207.92383 426.36453 207.78291 429.33018 207.50391 431.77148 C 207.29465 434.21279 206.80828 436.19984 206.04102 437.73438 C 205.3435 439.26891 204.29542 440.38452 202.90039 441.08203 C 201.57511 441.7098 199.83222 442.02344 197.66992 442.02344 C 195.50762 442.02344 193.76473 441.7098 192.43945 441.08203 C 191.11417 440.38452 190.0661 439.26891 189.29883 437.73438 C 188.60131 436.19984 188.11299 434.21279 187.83398 431.77148 C 187.55498 429.33018 187.41602 426.36453 187.41602 422.87695 L 187.41602 382.28125 C 185.39322 382.00224 183.65033 381.82952 182.18555 381.75977 C 180.79052 381.62026 179.50023 381.54883 178.31445 381.54883 z "
       id="rect4610-3" />
    <path
       style="opacity:1;fill:url(#linearGradient6771);fill-opacity:1;fill-rule:evenodd;stroke:none;stroke-width:8.77774811;stroke-linecap:square;stroke-linejoin:miter;stroke-miterlimit:4;stroke-dasharray:none;stroke-dashoffset:0;stroke-opacity:1;paint-order:markers fill stroke"
       d="m 433.40658,182.37194 v -69.47028 c 0,-0.0394 -0.0309,-0.0705 -0.0703,-0.0705 h -67.33747 c 4.09851,4.50878 8.40749,9.2132 13.77948,14.86279 7.205,7.57734 15.21697,15.8602 23.32513,24.15489 11.13885,11.3951 20.83136,21.05949 30.30308,30.52302 z"
       id="path4566"
       inkscape:connector-curvature="0" />
    <path
       style="opacity:1;fill:#ccd7dc;fill-opacity:1;fill-rule:evenodd;stroke:none;stroke-width:1.05391276;stroke-linejoin:round;stroke-miterlimit:4;stroke-dasharray:none;stroke-dashoffset:0;stroke-opacity:1;paint-order:normal"
       d="m 435.00048,114.60612 c -1.83541,-2.30475 -3.6077,-4.55306 -6.74972,-8.04125 -4.24635,-4.71409 -9.8132,-10.623129 -16.08223,-17.137261 C 405.8996,82.913483 398.92921,75.794273 391.8744,68.663457 377.76477,54.401804 363.32068,40.090503 353.48814,30.462087 c -0.35278,-0.345219 -0.4898,-0.448268 -0.83055,-0.781422 l -0.24394,62.802323 c -0.0467,12.055462 9.04538,21.800782 20.38588,21.850482 z"
       id="rect4485"
       inkscape:connector-curvature="0" />
    <path
       style="opacity:1;fill:#5b6782;fill-opacity:1;fill-rule:evenodd;stroke:none;stroke-width:1.47641361;stroke-linecap:square;stroke-linejoin:miter;stroke-miterlimit:4;stroke-dasharray:none;stroke-dashoffset:0;stroke-opacity:1;paint-order:markers fill stroke"
       d="m 218.09515,66.046453 c -1.04689,0 -2.33272,0.09481 -3.85547,0.28516 -1.52275,0.09517 -3.04561,0.38156 -4.56836,0.85742 v 12.84766 c -7.99445,1.42758 -14.2755,4.66291 -18.84375,9.70703 -4.47308,4.94894 -6.70899,11.611187 -6.70899,19.986327 0,3.99722 0.52343,7.47154 1.57032,10.42187 1.14206,2.85516 2.61556,5.37745 4.42382,7.56641 1.90344,2.09378 4.1413,3.90107 6.71094,5.42382 2.56965,1.52276 5.28156,2.90339 8.13672,4.14063 l 7.56641,3.14063 c 3.23584,1.3324 5.94776,2.80785 8.13672,4.42578 2.28412,1.52275 3.42578,3.75865 3.42578,6.70898 0,3.33102 -1.28388,5.80591 -3.85352,7.42383 -2.56964,1.52275 -6.23359,2.2832 -10.99219,2.2832 -3.33101,0 -6.80534,-0.42665 -10.42187,-1.2832 -3.61653,-0.95172 -7.66168,-2.37977 -12.13477,-4.2832 -1.3324,3.99722 -2.47406,7.75598 -3.42578,11.27734 -0.85655,3.52136 -1.47478,6.99568 -1.85547,10.42187 2.56965,1.0469 4.94777,1.95152 7.13672,2.7129 2.18896,0.76137 4.37941,1.3796 6.56836,1.85546 2.28413,0.47586 4.56744,0.80771 6.85156,0.99805 2.3793,0.28552 4.949,0.42969 7.70899,0.42969 v 14.98828 c 1.52275,0.47586 3.04561,0.76225 4.56836,0.85742 1.52275,0.19035 2.80858,0.28516 3.85547,0.28516 1.04689,0 2.33076,-0.0948 3.85351,-0.28516 1.61793,-0.0952 3.14078,-0.38156 4.56836,-0.85742 v -16.84375 c 7.8041,-2.18896 13.75136,-6.04448 17.84375,-11.56445 4.18757,-5.51998 6.28321,-12.13483 6.28321,-19.84375 0,-4.85377 -0.6676,-8.94633 -2,-12.27735 -1.23724,-3.33102 -2.94972,-6.13775 -5.13868,-8.42187 -2.18895,-2.28413 -4.71124,-4.18819 -7.5664,-5.71094 -2.85516,-1.52275 -5.90088,-2.90144 -9.13672,-4.13867 l -7.99414,-2.99805 c -2.28413,-0.85655 -4.42522,-1.95079 -6.42383,-3.2832 -1.90344,-1.42758 -2.85547,-3.52322 -2.85547,-6.28321 0,-1.52275 0.28639,-2.71181 0.85742,-3.56835 0.66621,-0.95172 1.47406,-1.66477 2.42578,-2.14063 1.0469,-0.57103 2.14114,-0.90483 3.28321,-1 1.23723,-0.19034 2.47565,-0.28516 3.71289,-0.28516 4.94894,0 8.99214,0.47602 12.13281,1.42774 3.14067,0.95172 6.33056,2.14078 9.56641,3.56836 3.23584,-7.137897 5.18536,-13.894967 5.85156,-20.271487 -3.80688,-1.3324 -7.42342,-2.42665 -10.84961,-3.2832 -3.33102,-0.85655 -6.66117,-1.47478 -9.99219,-1.85547 v -12.41992 c -1.42758,-0.47586 -2.95043,-0.76225 -4.56836,-0.85742 -1.52275,-0.19035 -2.80662,-0.28516 -3.85351,-0.28516 z m -52.79297,44.826167 c -1.33241,1.23724 -2.52147,2.23667 -3.56836,2.99805 -1.04689,0.6662 -2.04633,1.23703 -2.99805,1.71289 -0.85655,0.38069 -1.6644,0.66708 -2.42578,0.85742 -0.76138,0.0952 -1.57119,0.14258 -2.42773,0.14258 -1.90344,0 -3.7601,-0.28639 -5.56836,-0.85742 l -5.42383,-1.71289 c -2.09378,-0.76138 -4.14006,-1.42702 -6.13867,-1.99805 -1.99861,-0.57103 -4.0923,-0.85742 -6.28125,-0.85742 -4.56826,0 -8.66081,0.99944 -12.27735,2.99805 -3.61653,1.90344 -6.56743,4.18674 -8.85156,6.85156 0.76138,2.85516 1.9998,5.66384 3.71289,8.42383 1.80827,2.66481 3.85455,5.1871 6.13867,7.5664 1.42758,-1.23723 2.61664,-2.23667 3.56836,-2.99804 1.04689,-0.76138 1.99892,-1.33221 2.85547,-1.71289 0.85655,-0.38069 1.66441,-0.61968 2.42578,-0.71485 0.85655,-0.0952 1.71377,-0.14258 2.57031,-0.14258 1.61793,0 3.283,0.28639 4.9961,0.85743 1.71309,0.47586 3.52234,0.99928 5.42578,1.57031 2.09378,0.76137 4.18747,1.42701 6.28125,1.99805 2.18895,0.57103 4.42486,0.85742 6.70898,0.85742 4.56826,0 8.66081,-0.90463 12.27735,-2.71289 3.61653,-1.90344 6.61484,-4.23611 8.99414,-6.9961 -0.85655,-2.66481 -2.14237,-5.42414 -3.85547,-8.27929 -1.61792,-2.85516 -3.6642,-5.47227 -6.13867,-7.85157 z m 95.32422,71.23633 c -0.47586,2.09378 -0.80771,3.80627 -0.99805,5.13867 -0.19034,1.42758 -0.28516,2.666 -0.28516,3.71289 0,1.33241 0.0474,2.7111 0.14258,4.13868 0.19035,1.52275 0.52219,3.28459 0.99805,5.2832 h 68.95312 c 0.47586,-2.28413 0.80771,-4.09337 0.99805,-5.42578 0.19034,-1.23724 0.28711,-2.37889 0.28711,-3.42578 0,-1.42758 -0.0968,-2.85563 -0.28711,-4.28321 -0.0952,-1.42758 -0.37961,-3.14006 -0.85547,-5.13867 z"
       id="rect5522"
       inkscape:connector-curvature="0" />
  </g>
</svg>
