<?xml version="1.0" encoding="UTF-8" standalone="no"?>
<!-- Created with Inkscape (http://www.inkscape.org/) -->

<svg
   xmlns:osb="http://www.openswatchbook.org/uri/2009/osb"
   xmlns:dc="http://purl.org/dc/elements/1.1/"
   xmlns:cc="http://creativecommons.org/ns#"
   xmlns:rdf="http://www.w3.org/1999/02/22-rdf-syntax-ns#"
   xmlns:svg="http://www.w3.org/2000/svg"
   xmlns="http://www.w3.org/2000/svg"
   xmlns:xlink="http://www.w3.org/1999/xlink"
   xmlns:sodipodi="http://sodipodi.sourceforge.net/DTD/sodipodi-0.dtd"
   xmlns:inkscape="http://www.inkscape.org/namespaces/inkscape"
   width="512px"
   height="512px"
   viewBox="0 0 512 512"
   version="1.1"
   id="SVGRoot"
   inkscape:version="0.92.1 r15371"
   sodipodi:docname="sdc.svg">
  <sodipodi:namedview
     id="base"
     pagecolor="#ffffff"
     bordercolor="#666666"
     borderopacity="1.0"
     inkscape:pageopacity="0.0"
     inkscape:pageshadow="2"
     inkscape:zoom="0.5"
     inkscape:cx="176.09449"
     inkscape:cy="250.73937"
     inkscape:document-units="px"
     inkscape:current-layer="layer1"
     showgrid="false"
     inkscape:window-width="1232"
     inkscape:window-height="531"
     inkscape:window-x="33"
     inkscape:window-y="68"
     inkscape:window-maximized="0" />
  <defs
     id="defs4710">
    <linearGradient
       id="linearGradient8384"
       inkscape:collect="always">
      <stop
         id="stop8380"
         offset="0"
         style="stop-color:#181818;stop-opacity:0.62365592" />
      <stop
         id="stop8382"
         offset="1"
         style="stop-color:#404040;stop-opacity:0" />
    </linearGradient>
    <linearGradient
       inkscape:collect="always"
       id="linearGradient4573">
      <stop
         style="stop-color:#181818;stop-opacity:0.30645162"
         offset="0"
         id="stop4569" />
      <stop
         style="stop-color:#404040;stop-opacity:0"
         offset="1"
         id="stop4571" />
    </linearGradient>
    <marker
       inkscape:stockid="DotM"
       orient="auto"
       refY="0.0"
       refX="0.0"
       id="DotM"
       style="overflow:visible"
       inkscape:isstock="true">
      <path
         id="path4618"
         d="M -2.5,-1.0 C -2.5,1.7600000 -4.7400000,4.0 -7.5,4.0 C -10.260000,4.0 -12.5,1.7600000 -12.5,-1.0 C -12.5,-3.7600000 -10.260000,-6.0 -7.5,-6.0 C -4.7400000,-6.0 -2.5,-3.7600000 -2.5,-1.0 z "
         style="fill-rule:evenodd;stroke:#000000;stroke-width:1.0pt"
         transform="scale(0.4) translate(7.4, 1)" />
    </marker>
    <linearGradient
       osb:paint="solid"
       id="linearGradient5207">
      <stop
         id="stop5209"
         offset="0"
         style="stop-color:#000015;stop-opacity:1;" />
    </linearGradient>
    <clipPath
       id="clipPath3006-9-8"
       clipPathUnits="userSpaceOnUse">
      <path
         inkscape:export-ydpi="90"
         inkscape:export-xdpi="90"
         transform="matrix(1.2020779,0,0,1.2020779,-93.20363,-75.172465)"
         d="m 483,275.5 a 192.5,192.5 0 1 1 -385,0 192.5,192.5 0 1 1 385,0 z"
         sodipodi:ry="192.5"
         sodipodi:rx="192.5"
         sodipodi:cy="275.5"
         sodipodi:cx="290.5"
         id="path3008-1-1"
         style="fill:#ffffff;fill-opacity:1;stroke:none;display:inline"
         sodipodi:type="arc" />
    </clipPath>
    <mask
       id="mask3818-4"
       maskUnits="userSpaceOnUse">
      <path
         sodipodi:type="arc"
         style="fill:#ffffff;fill-opacity:1;stroke:none;display:inline"
         id="path3820-9"
         sodipodi:cx="290.5"
         sodipodi:cy="275.5"
         sodipodi:rx="192.5"
         sodipodi:ry="192.5"
         d="m 483,275.5 a 192.5,192.5 0 1 1 -385,0 192.5,192.5 0 1 1 385,0 z"
         transform="matrix(1.2020779,0,0,1.2020779,-93.20363,-75.172466)"
         inkscape:export-xdpi="90"
         inkscape:export-ydpi="90" />
    </mask>
    <clipPath
       id="clipPath3006"
       clipPathUnits="userSpaceOnUse">
      <path
         inkscape:export-ydpi="90"
         inkscape:export-xdpi="90"
         transform="matrix(1.2020779,0,0,1.2020779,-93.20363,-75.172465)"
         d="m 483,275.5 a 192.5,192.5 0 1 1 -385,0 192.5,192.5 0 1 1 385,0 z"
         sodipodi:ry="192.5"
         sodipodi:rx="192.5"
         sodipodi:cy="275.5"
         sodipodi:cx="290.5"
         id="path3008"
         style="fill:#ffffff;fill-opacity:1;stroke:none;display:inline"
         sodipodi:type="arc" />
    </clipPath>
    <clipPath
       id="clipPath3006-9"
       clipPathUnits="userSpaceOnUse">
      <path
         inkscape:export-ydpi="90"
         inkscape:export-xdpi="90"
         transform="matrix(1.2020779,0,0,1.2020779,-93.20363,-75.172465)"
         d="m 483,275.5 a 192.5,192.5 0 1 1 -385,0 192.5,192.5 0 1 1 385,0 z"
         sodipodi:ry="192.5"
         sodipodi:rx="192.5"
         sodipodi:cy="275.5"
         sodipodi:cx="290.5"
         id="path3008-1"
         style="fill:#ffffff;fill-opacity:1;stroke:none;display:inline"
         sodipodi:type="arc" />
    </clipPath>
    <mask
       maskUnits="userSpaceOnUse"
       id="mask3818-0">
      <path
         inkscape:export-ydpi="90"
         inkscape:export-xdpi="90"
         transform="matrix(1.2020779,0,0,1.2020779,-93.20363,-75.172466)"
         d="m 483,275.5 a 192.5,192.5 0 1 1 -385,0 192.5,192.5 0 1 1 385,0 z"
         sodipodi:ry="192.5"
         sodipodi:rx="192.5"
         sodipodi:cy="275.5"
         sodipodi:cx="290.5"
         id="path3820-8"
         style="fill:#ffffff;fill-opacity:1;stroke:none;display:inline"
         sodipodi:type="arc" />
    </mask>
    <mask
       maskUnits="userSpaceOnUse"
       id="mask3818-2">
      <path
         inkscape:export-ydpi="90"
         inkscape:export-xdpi="90"
         transform="matrix(1.2020779,0,0,1.2020779,-93.20363,-75.172466)"
         d="m 483,275.5 a 192.5,192.5 0 1 1 -385,0 192.5,192.5 0 1 1 385,0 z"
         sodipodi:ry="192.5"
         sodipodi:rx="192.5"
         sodipodi:cy="275.5"
         sodipodi:cx="290.5"
         id="path3820-2-2"
         style="fill:#ffffff;fill-opacity:1;stroke:none;display:inline"
         sodipodi:type="arc" />
    </mask>
    <clipPath
       id="clipPath3934"
       clipPathUnits="userSpaceOnUse">
      <path
         id="path3936"
         d="m 0,0 0,1024 1024,0 L 1024,0 0,0 z m 278.4375,333.84375 119.78125,0 c 9.83697,42.31453 19.85954,84.58596 29.9375,126.84375 9.86978,-42.28798 20.05132,-84.50237 29.6875,-126.84375 l 108.90625,0 c 9.63586,42.34141 19.8178,84.55578 29.6875,126.84375 10.07827,-42.25772 20.10031,-84.52927 29.9375,-126.84375 l 119.1875,0 c -26.26221,110.73099 -52.49625,221.46929 -78.28125,332.3125 l -122.8125,0 c -10.59439,-45.55681 -21.46638,-91.04874 -32.375,-136.53125 -10.66279,45.51136 -21.5615,90.96897 -32,136.53125 l -122.8125,0 c -25.71418,-110.03502 -52.0286,-219.92873 -78.25,-329.84375 l -0.59375,-2.46875 z"
         style="fill:#ff3232;fill-opacity:1;stroke:none"
         inkscape:connector-curvature="0" />
    </clipPath>
    <clipPath
       id="clipPath3929"
       clipPathUnits="userSpaceOnUse">
      <path
         inkscape:connector-curvature="0"
         style="fill:#ff3232;fill-opacity:1;stroke:none"
         d="m 0,0 0,1024 1024,0 L 1024,0 0,0 z m 278.4375,333.84375 119.78125,0 c 9.83697,42.31453 19.85954,84.58596 29.9375,126.84375 9.86978,-42.28798 20.05132,-84.50237 29.6875,-126.84375 l 108.90625,0 c 9.63586,42.34141 19.8178,84.55578 29.6875,126.84375 10.07827,-42.25772 20.10031,-84.52927 29.9375,-126.84375 l 119.1875,0 c -26.26221,110.73099 -52.49625,221.46929 -78.28125,332.3125 l -122.8125,0 c -10.59439,-45.55681 -21.46638,-91.04874 -32.375,-136.53125 -10.66279,45.51136 -21.5615,90.96897 -32,136.53125 l -122.8125,0 c -25.71418,-110.03502 -52.0286,-219.92873 -78.25,-329.84375 l -0.59375,-2.46875 z"
         id="path3931" />
    </clipPath>
    <mask
       maskUnits="userSpaceOnUse"
       id="mask3818">
      <path
         inkscape:export-ydpi="90"
         inkscape:export-xdpi="90"
         transform="matrix(1.2020779,0,0,1.2020779,-93.20363,-75.172466)"
         d="m 483,275.5 a 192.5,192.5 0 1 1 -385,0 192.5,192.5 0 1 1 385,0 z"
         sodipodi:ry="192.5"
         sodipodi:rx="192.5"
         sodipodi:cy="275.5"
         sodipodi:cx="290.5"
         id="path3820"
         style="fill:#ffffff;fill-opacity:1;stroke:none;display:inline"
         sodipodi:type="arc" />
    </mask>
    <linearGradient
       inkscape:collect="always"
       xlink:href="#linearGradient4573"
       id="linearGradient4575"
       x1="408.84314"
       y1="89.26915"
       x2="420.61133"
       y2="138.41306"
       gradientUnits="userSpaceOnUse"
       gradientTransform="matrix(0.99657796,0,0,1,1.2520606,0)" />
    <linearGradient
       inkscape:collect="always"
       xlink:href="#linearGradient8384"
       id="linearGradient6771"
       gradientUnits="userSpaceOnUse"
       gradientTransform="matrix(0.99657796,0,0,1,1.2520606,0)"
       x1="408.84314"
       y1="89.26915"
       x2="420.61133"
       y2="138.41306" />
  </defs>
  <metadata
     id="metadata4713">
    <rdf:RDF>
      <cc:Work
         rdf:about="">
        <dc:format>image/svg+xml</dc:format>
        <dc:type
           rdf:resource="http://purl.org/dc/dcmitype/StillImage" />
        <dc:title></dc:title>
      </cc:Work>
    </rdf:RDF>
  </metadata>
  <g
     id="layer1"
     inkscape:groupmode="layer"
     inkscape:label="Capa 1">
    <path
       style="opacity:1;fill:#fcfffc;fill-opacity:1;fill-rule:evenodd;stroke:#268c26;stroke-width:2;stroke-linejoin:round;stroke-miterlimit:4;stroke-dasharray:none;stroke-dashoffset:0;stroke-opacity:1;paint-order:normal"
       d="m 97.583979,29.700195 c -11.07875,0 -19.99804,9.65194 -19.99804,21.64062 V 460.66113 c 0,11.9887 8.91929,21.63867 19.99804,21.63867 H 414.41602 c 11.07874,0 19.99804,-9.64997 19.99804,-21.63867 V 113.7959 c -0.33411,-0.32981 -0.46874,-0.43168 -0.81445,-0.77345 -9.64188,-9.53205 -23.80681,-23.701345 -37.64453,-37.822255 -6.91884,-7.06045 -13.75546,-14.10994 -19.9043,-20.56055 -6.14876,-6.45062 -11.60929,-12.30327 -15.77539,-16.97265 -3.0827,-3.45513 -4.82334,-5.68286 -6.625,-7.9668 z"
       id="path4506"
       inkscape:connector-curvature="0"
       sodipodi:nodetypes="ssssssccccccs" />
    <g
       id="g4584"
       transform="matrix(0.3829248,0,0,0.3829248,74.406719,31.973725)"
       style="fill:#75abd3;fill-opacity:1;stroke:#9dc4df;stroke-opacity:1" />
    <path
       style="opacity:1;fill:#268c26;fill-opacity:1;fill-rule:evenodd;stroke:#94d587;stroke-width:0.85055965;stroke-linecap:square;stroke-linejoin:miter;stroke-miterlimit:4;stroke-dasharray:none;stroke-dashoffset:0;stroke-opacity:1;paint-order:markers fill stroke"
       d="M 131.99609 380.81641 C 128.02025 380.81641 124.42732 381.34045 121.21875 382.38672 C 118.01018 383.36324 115.25493 384.86197 112.95312 386.88477 C 110.72108 388.83781 108.97818 391.24565 107.72266 394.10547 C 106.46713 396.96528 105.83789 400.24262 105.83789 403.93945 C 105.83789 406.93877 106.22297 409.55506 106.99023 411.78711 C 107.82725 414.01916 108.97662 416.00621 110.44141 417.75 C 111.90619 419.42404 113.65103 420.889 115.67383 422.14453 C 117.76637 423.40006 120.06707 424.4819 122.57812 425.38867 L 128.4375 427.58594 C 129.34427 427.9347 130.21572 428.31782 131.05273 428.73633 C 131.9595 429.08509 132.76342 429.53769 133.46094 430.0957 C 134.15845 430.65372 134.71626 431.35243 135.13477 432.18945 C 135.55327 432.95672 135.76172 433.89765 135.76172 435.01367 C 135.76172 437.66423 134.75131 439.54804 132.72852 440.66406 C 130.77547 441.71034 128.02022 442.23242 124.46289 442.23242 C 119.71978 442.23242 114.1398 440.83889 107.72266 438.04883 C 106.74613 440.90864 105.90845 443.73338 105.21094 446.52344 C 104.51342 449.24375 104.0251 451.82432 103.74609 454.26562 C 107.58243 455.73041 111.13965 456.81225 114.41797 457.50977 C 117.76604 458.20728 121.60314 458.55469 125.92773 458.55469 C 130.67084 458.55469 134.85534 457.99688 138.48242 456.88086 C 142.17925 455.69508 145.28387 454.05544 147.79492 451.96289 C 150.30598 449.80059 152.18783 447.25574 153.44336 444.32617 C 154.76864 441.32685 155.43164 437.97808 155.43164 434.28125 C 155.43164 430.86342 154.97904 427.96921 154.07227 425.59766 C 153.1655 423.15635 151.87521 421.09787 150.20117 419.42383 C 148.52713 417.68004 146.50437 416.21507 144.13281 415.0293 C 141.83101 413.77377 139.21472 412.55492 136.28516 411.36914 L 131.26367 409.38086 C 129.45013 408.68334 127.87997 407.84566 126.55469 406.86914 C 125.22941 405.89262 124.56641 404.39389 124.56641 402.37109 C 124.56641 401.18532 124.81057 400.20867 125.29883 399.44141 C 125.78709 398.60439 126.41437 397.97515 127.18164 397.55664 C 128.01866 397.06838 128.92582 396.72097 129.90234 396.51172 C 130.94862 396.30246 132.03046 396.19727 133.14648 396.19727 C 136.77357 396.19727 139.80674 396.61611 142.24805 397.45312 C 144.68935 398.29014 146.81732 399.09211 148.63086 399.85938 C 149.74688 397.48782 150.65405 394.97673 151.35156 392.32617 C 152.11883 389.60586 152.64092 387.13049 152.91992 384.89844 C 149.15334 383.57316 145.59612 382.5608 142.24805 381.86328 C 138.96972 381.16577 135.55342 380.81641 131.99609 380.81641 z M 186.86719 380.81641 C 184.9839 380.81641 183.03061 380.88589 181.00781 381.02539 C 179.05477 381.09514 177.1372 381.20034 175.25391 381.33984 C 173.37061 381.47935 171.62772 381.65403 170.02344 381.86328 C 168.41915 382.00278 167.09315 382.14175 166.04688 382.28125 L 166.04688 456.98633 C 169.1857 457.40484 172.35979 457.75224 175.56836 458.03125 C 178.84668 458.38001 182.22922 458.55469 185.7168 458.55469 C 199.3881 458.55469 209.71039 455.48579 216.68555 449.34766 C 223.6607 443.13977 227.14844 433.40905 227.14844 420.15625 C 227.14844 407.11271 223.73214 397.31251 216.89648 390.75586 C 210.06083 384.12946 200.05023 380.81641 186.86719 380.81641 z M 271.56836 380.81641 C 265.91848 380.81641 260.86058 381.79305 256.39648 383.74609 C 251.93238 385.69914 248.16672 388.42063 245.09766 391.9082 C 242.09834 395.39578 239.79569 399.54456 238.19141 404.35742 C 236.58712 409.10053 235.78516 414.26363 235.78516 419.84375 C 235.78516 425.42387 236.55336 430.58502 238.08789 435.32812 C 239.62242 440.07123 241.88935 444.15053 244.88867 447.56836 C 247.95774 450.98619 251.7234 453.67196 256.1875 455.625 C 260.72135 457.50829 265.95393 458.45117 271.88281 458.45117 C 273.55685 458.45117 275.16078 458.38169 276.69531 458.24219 C 278.2996 458.17244 279.90353 457.99776 281.50781 457.71875 C 283.1121 457.5095 284.78551 457.16014 286.5293 456.67188 C 288.27309 456.18361 290.15689 455.55633 292.17969 454.78906 C 291.41242 449.48794 289.87797 444.3268 287.57617 439.30469 C 284.71636 440.28121 282.27475 440.97798 280.25195 441.39648 C 278.29891 441.81499 276.20666 442.02344 273.97461 442.02344 C 261.55883 442.02344 255.35156 434.63108 255.35156 419.84375 C 255.35156 412.31058 256.88601 406.65916 259.95508 402.89258 C 263.0939 399.05624 267.48684 397.13867 273.13672 397.13867 C 274.3225 397.13867 275.44005 397.20815 276.48633 397.34766 C 277.5326 397.41741 278.57873 397.55832 279.625 397.76758 C 280.67127 397.97683 281.75116 398.25476 282.86719 398.60352 C 284.05296 398.95227 285.34325 399.37111 286.73828 399.85938 C 287.7148 397.83658 288.65768 395.50017 289.56445 392.84961 C 290.47122 390.1293 290.99331 387.33833 291.13281 384.47852 C 287.43598 383.01373 284.08916 382.03709 281.08984 381.54883 C 278.09053 381.06057 274.91643 380.81641 271.56836 380.81641 z M 188.85547 397.24414 C 191.36652 397.24414 193.77242 397.62726 196.07422 398.39453 C 198.37602 399.09205 200.36503 400.31285 202.03906 402.05664 C 203.78285 403.73068 205.17638 406.03137 206.22266 408.96094 C 207.26893 411.8905 207.79297 415.55292 207.79297 419.94727 C 207.79297 424.41137 207.26893 428.07378 206.22266 430.93359 C 205.24613 433.79341 203.88637 436.06034 202.14258 437.73438 C 200.39879 439.40841 198.30654 440.5935 195.86523 441.29102 C 193.49368 441.91878 190.94883 442.23242 188.22852 442.23242 L 186.24023 442.23242 C 185.61247 442.23242 185.05467 442.19866 184.56641 442.12891 L 184.56641 397.34766 L 185.82031 397.34766 C 186.44808 397.2779 187.46044 397.24414 188.85547 397.24414 z "
       id="rect4610" />
    <path
       style="opacity:1;fill:url(#linearGradient6771);fill-opacity:1;fill-rule:evenodd;stroke:none;stroke-width:8.77774811;stroke-linecap:square;stroke-linejoin:miter;stroke-miterlimit:4;stroke-dasharray:none;stroke-dashoffset:0;stroke-opacity:1;paint-order:markers fill stroke"
       d="m 433.28939,182.37584 v -69.47028 c 0,-0.0394 -0.0309,-0.0705 -0.0703,-0.0705 h -67.33747 c 4.09851,4.50878 8.40749,9.2132 13.77948,14.86279 7.205,7.57734 15.21697,15.8602 23.32513,24.15489 11.13885,11.3951 20.83136,21.05949 30.30308,30.52302 z"
       id="path4566"
       inkscape:connector-curvature="0" />
    <path
       style="opacity:1;fill:#268c26;fill-opacity:1;fill-rule:evenodd;stroke:none;stroke-width:1.05391276;stroke-linejoin:round;stroke-miterlimit:4;stroke-dasharray:none;stroke-dashoffset:0;stroke-opacity:1;paint-order:normal"
       d="m 435.00048,114.60612 c -1.83541,-2.30475 -3.6077,-4.55306 -6.74972,-8.04125 -4.24635,-4.71409 -9.8132,-10.623129 -16.08223,-17.137261 C 405.8996,82.913483 398.92921,75.794273 391.8744,68.663457 377.76477,54.401804 363.32068,40.090503 353.48814,30.462087 c -0.35278,-0.345219 -0.4898,-0.448268 -0.83055,-0.781422 l -0.24394,62.802323 c -0.0467,12.055462 9.04538,21.800782 20.38588,21.850482 z"
       id="rect4485"
       inkscape:connector-curvature="0" />
    <g
       transform="matrix(1,0,0,1.3630556,-445.45268,-109.9287)"
       id="g5015"
       style="stroke:none">
      <g
         transform="translate(41.142882,-90.289382)"
         id="g4843"
         style="fill:#acbec6;fill-opacity:1;stroke:none">
        <rect
           style="opacity:1;fill:#6ad76a;fill-opacity:1;fill-rule:evenodd;stroke:none;stroke-width:1.6762296;stroke-linejoin:round;stroke-miterlimit:4;stroke-dasharray:none;stroke-dashoffset:0;stroke-opacity:1;paint-order:normal"
           id="rect4837"
           width="71.996925"
           height="18.371382"
           x="544.34937"
           y="380.49359" />
        <rect
           y="357.01703"
           x="544.34937"
           height="18.371382"
           width="71.996925"
           id="rect5130"
           style="opacity:1;fill:#6ad76a;fill-opacity:1;fill-rule:evenodd;stroke:none;stroke-width:1.6762296;stroke-linejoin:round;stroke-miterlimit:4;stroke-dasharray:none;stroke-dashoffset:0;stroke-opacity:1;paint-order:normal" />
        <rect
           y="380.49359"
           x="622.34937"
           height="18.371382"
           width="71.996925"
           id="rect5132"
           style="opacity:1;fill:#6ad76a;fill-opacity:1;fill-rule:evenodd;stroke:none;stroke-width:1.6762296;stroke-linejoin:round;stroke-miterlimit:4;stroke-dasharray:none;stroke-dashoffset:0;stroke-opacity:1;paint-order:normal" />
        <rect
           y="357.01703"
           x="622.34937"
           height="18.371382"
           width="71.996925"
           id="rect5138"
           style="opacity:1;fill:#6ad76a;fill-opacity:1;fill-rule:evenodd;stroke:none;stroke-width:1.6762296;stroke-linejoin:round;stroke-miterlimit:4;stroke-dasharray:none;stroke-dashoffset:0;stroke-opacity:1;paint-order:normal" />
        <rect
           style="opacity:1;fill:#6ad76a;fill-opacity:1;fill-rule:evenodd;stroke:none;stroke-width:1.6762296;stroke-linejoin:round;stroke-miterlimit:4;stroke-dasharray:none;stroke-dashoffset:0;stroke-opacity:1;paint-order:normal"
           id="rect5140"
           width="71.996925"
           height="18.371382"
           x="622.34937"
           y="333.54047" />
        <rect
           style="opacity:1;fill:#6ad76a;fill-opacity:1;fill-rule:evenodd;stroke:none;stroke-width:1.6762296;stroke-linejoin:round;stroke-miterlimit:4;stroke-dasharray:none;stroke-dashoffset:0;stroke-opacity:1;paint-order:normal"
           id="rect5142"
           width="71.996925"
           height="18.371382"
           x="544.34937"
           y="333.54047" />
        <rect
           style="opacity:1;fill:#6ad76a;fill-opacity:1;fill-rule:evenodd;stroke:none;stroke-width:1.6762296;stroke-linejoin:round;stroke-miterlimit:4;stroke-dasharray:none;stroke-dashoffset:0;stroke-opacity:1;paint-order:normal"
           id="rect5146"
           width="71.996925"
           height="18.371382"
           x="700.34937"
           y="357.01703" />
        <rect
           y="333.54047"
           x="700.34937"
           height="18.371382"
           width="71.996925"
           id="rect5148"
           style="opacity:1;fill:#6ad76a;fill-opacity:1;fill-rule:evenodd;stroke:none;stroke-width:1.6762296;stroke-linejoin:round;stroke-miterlimit:4;stroke-dasharray:none;stroke-dashoffset:0;stroke-opacity:1;paint-order:normal" />
        <rect
           y="310.0639"
           x="622.34937"
           height="18.371382"
           width="71.996925"
           id="rect5150"
           style="opacity:1;fill:#268c26;fill-opacity:1;fill-rule:evenodd;stroke:none;stroke-width:1.6762296;stroke-linejoin:round;stroke-miterlimit:4;stroke-dasharray:none;stroke-dashoffset:0;stroke-opacity:1;paint-order:normal" />
        <rect
           y="310.0639"
           x="544.34937"
           height="18.371382"
           width="71.996925"
           id="rect5152"
           style="opacity:1;fill:#268c26;fill-opacity:1;fill-rule:evenodd;stroke:none;stroke-width:1.6762296;stroke-linejoin:round;stroke-miterlimit:4;stroke-dasharray:none;stroke-dashoffset:0;stroke-opacity:1;paint-order:normal" />
        <rect
           style="opacity:1;fill:#268c26;fill-opacity:1;fill-rule:evenodd;stroke:none;stroke-width:1.6762296;stroke-linejoin:round;stroke-miterlimit:4;stroke-dasharray:none;stroke-dashoffset:0;stroke-opacity:1;paint-order:normal"
           id="rect5154"
           width="71.996925"
           height="18.371382"
           x="700.34937"
           y="310.0639" />
      </g>
    </g>
    <rect
       style="fill:#d9f5d9;fill-opacity:1;stroke:none;stroke-width:3.50236893;stroke-linecap:round;stroke-linejoin:round;stroke-miterlimit:4;stroke-dasharray:none;stroke-opacity:1"
       id="rect2997"
       width="114.80023"
       height="85.045166"
       x="296.23077"
       y="285.47992"
       transform="matrix(0.99999986,5.2631278e-4,-6.6188717e-4,0.99999978,0,0)" />
    <path
       style="fill:#6ad76a;fill-opacity:1;stroke:none;stroke-width:0.15021271px;stroke-linecap:butt;stroke-linejoin:miter;stroke-opacity:1"
       d="m 296.16551,338.31378 -0.1822,32.36715 114.78574,-0.083 0.009,-26.90476 -14.38379,6.93614 -25.69213,-16.78678 -22.04176,17.37794 -18.90339,-12.11554 -13.82966,-43.64439 -19.76183,42.85305 z"
       id="path3787"
       inkscape:connector-curvature="0"
       sodipodi:nodetypes="ccccccccccc" />
    <path
       sodipodi:nodetypes="ccccccccccc"
       inkscape:connector-curvature="0"
       id="path5156"
       d="m 296.16551,338.31378 -0.1822,32.36715 114.78574,-0.083 0.009,-26.90476 -22.59808,19.079 -18.90641,-10.35821 -19.18462,-20.83635 -17.47482,31.45589 -20.97251,-6.14439 -15.47612,-18.57552 z"
       style="fill:#268c26;fill-opacity:1;stroke:none;stroke-width:0.15021271px;stroke-linecap:butt;stroke-linejoin:miter;stroke-opacity:1" />
  </g>
</svg>
