<?xml version="1.0" encoding="UTF-8" standalone="no"?>
<!-- Created with Inkscape (http://www.inkscape.org/) -->

<svg
   xmlns:osb="http://www.openswatchbook.org/uri/2009/osb"
   xmlns:dc="http://purl.org/dc/elements/1.1/"
   xmlns:cc="http://creativecommons.org/ns#"
   xmlns:rdf="http://www.w3.org/1999/02/22-rdf-syntax-ns#"
   xmlns:svg="http://www.w3.org/2000/svg"
   xmlns="http://www.w3.org/2000/svg"
   xmlns:xlink="http://www.w3.org/1999/xlink"
   xmlns:sodipodi="http://sodipodi.sourceforge.net/DTD/sodipodi-0.dtd"
   xmlns:inkscape="http://www.inkscape.org/namespaces/inkscape"
   width="512px"
   height="512px"
   viewBox="0 0 512 512"
   version="1.1"
   id="SVGRoot"
   inkscape:version="0.92.1 r15371"
   sodipodi:docname="smd.svg">
  <sodipodi:namedview
     id="base"
     pagecolor="#ffffff"
     bordercolor="#666666"
     borderopacity="1.0"
     inkscape:pageopacity="0.0"
     inkscape:pageshadow="2"
     inkscape:zoom="0.70710678"
     inkscape:cx="141.43416"
     inkscape:cy="304.40954"
     inkscape:document-units="px"
     inkscape:current-layer="layer1"
     showgrid="false"
     inkscape:window-width="1280"
     inkscape:window-height="947"
     inkscape:window-x="0"
     inkscape:window-y="0"
     inkscape:window-maximized="1" />
  <defs
     id="defs4710">
    <linearGradient
       id="linearGradient8384"
       inkscape:collect="always">
      <stop
         id="stop8380"
         offset="0"
         style="stop-color:#181818;stop-opacity:0.38709676" />
      <stop
         id="stop8382"
         offset="1"
         style="stop-color:#404040;stop-opacity:0" />
    </linearGradient>
    <linearGradient
       inkscape:collect="always"
       id="linearGradient4573">
      <stop
         style="stop-color:#181818;stop-opacity:0.30645162"
         offset="0"
         id="stop4569" />
      <stop
         style="stop-color:#404040;stop-opacity:0"
         offset="1"
         id="stop4571" />
    </linearGradient>
    <marker
       inkscape:stockid="DotM"
       orient="auto"
       refY="0.0"
       refX="0.0"
       id="DotM"
       style="overflow:visible"
       inkscape:isstock="true">
      <path
         id="path4618"
         d="M -2.5,-1.0 C -2.5,1.7600000 -4.7400000,4.0 -7.5,4.0 C -10.260000,4.0 -12.5,1.7600000 -12.5,-1.0 C -12.5,-3.7600000 -10.260000,-6.0 -7.5,-6.0 C -4.7400000,-6.0 -2.5,-3.7600000 -2.5,-1.0 z "
         style="fill-rule:evenodd;stroke:#000000;stroke-width:1.0pt"
         transform="scale(0.4) translate(7.4, 1)" />
    </marker>
    <linearGradient
       osb:paint="solid"
       id="linearGradient5207">
      <stop
         id="stop5209"
         offset="0"
         style="stop-color:#000015;stop-opacity:1;" />
    </linearGradient>
    <clipPath
       id="clipPath3006-9-8"
       clipPathUnits="userSpaceOnUse">
      <path
         inkscape:export-ydpi="90"
         inkscape:export-xdpi="90"
         transform="matrix(1.2020779,0,0,1.2020779,-93.20363,-75.172465)"
         d="m 483,275.5 a 192.5,192.5 0 1 1 -385,0 192.5,192.5 0 1 1 385,0 z"
         sodipodi:ry="192.5"
         sodipodi:rx="192.5"
         sodipodi:cy="275.5"
         sodipodi:cx="290.5"
         id="path3008-1-1"
         style="fill:#ffffff;fill-opacity:1;stroke:none;display:inline"
         sodipodi:type="arc" />
    </clipPath>
    <mask
       id="mask3818-4"
       maskUnits="userSpaceOnUse">
      <path
         sodipodi:type="arc"
         style="fill:#ffffff;fill-opacity:1;stroke:none;display:inline"
         id="path3820-9"
         sodipodi:cx="290.5"
         sodipodi:cy="275.5"
         sodipodi:rx="192.5"
         sodipodi:ry="192.5"
         d="m 483,275.5 a 192.5,192.5 0 1 1 -385,0 192.5,192.5 0 1 1 385,0 z"
         transform="matrix(1.2020779,0,0,1.2020779,-93.20363,-75.172466)"
         inkscape:export-xdpi="90"
         inkscape:export-ydpi="90" />
    </mask>
    <clipPath
       id="clipPath3006"
       clipPathUnits="userSpaceOnUse">
      <path
         inkscape:export-ydpi="90"
         inkscape:export-xdpi="90"
         transform="matrix(1.2020779,0,0,1.2020779,-93.20363,-75.172465)"
         d="m 483,275.5 a 192.5,192.5 0 1 1 -385,0 192.5,192.5 0 1 1 385,0 z"
         sodipodi:ry="192.5"
         sodipodi:rx="192.5"
         sodipodi:cy="275.5"
         sodipodi:cx="290.5"
         id="path3008"
         style="fill:#ffffff;fill-opacity:1;stroke:none;display:inline"
         sodipodi:type="arc" />
    </clipPath>
    <clipPath
       id="clipPath3006-9"
       clipPathUnits="userSpaceOnUse">
      <path
         inkscape:export-ydpi="90"
         inkscape:export-xdpi="90"
         transform="matrix(1.2020779,0,0,1.2020779,-93.20363,-75.172465)"
         d="m 483,275.5 a 192.5,192.5 0 1 1 -385,0 192.5,192.5 0 1 1 385,0 z"
         sodipodi:ry="192.5"
         sodipodi:rx="192.5"
         sodipodi:cy="275.5"
         sodipodi:cx="290.5"
         id="path3008-1"
         style="fill:#ffffff;fill-opacity:1;stroke:none;display:inline"
         sodipodi:type="arc" />
    </clipPath>
    <mask
       maskUnits="userSpaceOnUse"
       id="mask3818-0">
      <path
         inkscape:export-ydpi="90"
         inkscape:export-xdpi="90"
         transform="matrix(1.2020779,0,0,1.2020779,-93.20363,-75.172466)"
         d="m 483,275.5 a 192.5,192.5 0 1 1 -385,0 192.5,192.5 0 1 1 385,0 z"
         sodipodi:ry="192.5"
         sodipodi:rx="192.5"
         sodipodi:cy="275.5"
         sodipodi:cx="290.5"
         id="path3820-8"
         style="fill:#ffffff;fill-opacity:1;stroke:none;display:inline"
         sodipodi:type="arc" />
    </mask>
    <mask
       maskUnits="userSpaceOnUse"
       id="mask3818-2">
      <path
         inkscape:export-ydpi="90"
         inkscape:export-xdpi="90"
         transform="matrix(1.2020779,0,0,1.2020779,-93.20363,-75.172466)"
         d="m 483,275.5 a 192.5,192.5 0 1 1 -385,0 192.5,192.5 0 1 1 385,0 z"
         sodipodi:ry="192.5"
         sodipodi:rx="192.5"
         sodipodi:cy="275.5"
         sodipodi:cx="290.5"
         id="path3820-2-2"
         style="fill:#ffffff;fill-opacity:1;stroke:none;display:inline"
         sodipodi:type="arc" />
    </mask>
    <clipPath
       id="clipPath3934"
       clipPathUnits="userSpaceOnUse">
      <path
         id="path3936"
         d="m 0,0 0,1024 1024,0 L 1024,0 0,0 z m 278.4375,333.84375 119.78125,0 c 9.83697,42.31453 19.85954,84.58596 29.9375,126.84375 9.86978,-42.28798 20.05132,-84.50237 29.6875,-126.84375 l 108.90625,0 c 9.63586,42.34141 19.8178,84.55578 29.6875,126.84375 10.07827,-42.25772 20.10031,-84.52927 29.9375,-126.84375 l 119.1875,0 c -26.26221,110.73099 -52.49625,221.46929 -78.28125,332.3125 l -122.8125,0 c -10.59439,-45.55681 -21.46638,-91.04874 -32.375,-136.53125 -10.66279,45.51136 -21.5615,90.96897 -32,136.53125 l -122.8125,0 c -25.71418,-110.03502 -52.0286,-219.92873 -78.25,-329.84375 l -0.59375,-2.46875 z"
         style="fill:#ff3232;fill-opacity:1;stroke:none"
         inkscape:connector-curvature="0" />
    </clipPath>
    <clipPath
       id="clipPath3929"
       clipPathUnits="userSpaceOnUse">
      <path
         inkscape:connector-curvature="0"
         style="fill:#ff3232;fill-opacity:1;stroke:none"
         d="m 0,0 0,1024 1024,0 L 1024,0 0,0 z m 278.4375,333.84375 119.78125,0 c 9.83697,42.31453 19.85954,84.58596 29.9375,126.84375 9.86978,-42.28798 20.05132,-84.50237 29.6875,-126.84375 l 108.90625,0 c 9.63586,42.34141 19.8178,84.55578 29.6875,126.84375 10.07827,-42.25772 20.10031,-84.52927 29.9375,-126.84375 l 119.1875,0 c -26.26221,110.73099 -52.49625,221.46929 -78.28125,332.3125 l -122.8125,0 c -10.59439,-45.55681 -21.46638,-91.04874 -32.375,-136.53125 -10.66279,45.51136 -21.5615,90.96897 -32,136.53125 l -122.8125,0 c -25.71418,-110.03502 -52.0286,-219.92873 -78.25,-329.84375 l -0.59375,-2.46875 z"
         id="path3931" />
    </clipPath>
    <mask
       maskUnits="userSpaceOnUse"
       id="mask3818">
      <path
         inkscape:export-ydpi="90"
         inkscape:export-xdpi="90"
         transform="matrix(1.2020779,0,0,1.2020779,-93.20363,-75.172466)"
         d="m 483,275.5 a 192.5,192.5 0 1 1 -385,0 192.5,192.5 0 1 1 385,0 z"
         sodipodi:ry="192.5"
         sodipodi:rx="192.5"
         sodipodi:cy="275.5"
         sodipodi:cx="290.5"
         id="path3820"
         style="fill:#ffffff;fill-opacity:1;stroke:none;display:inline"
         sodipodi:type="arc" />
    </mask>
    <linearGradient
       inkscape:collect="always"
       xlink:href="#linearGradient4573"
       id="linearGradient4575"
       x1="408.84314"
       y1="89.26915"
       x2="420.61133"
       y2="138.41306"
       gradientUnits="userSpaceOnUse"
       gradientTransform="matrix(0.99657796,0,0,1,1.2520606,0)" />
    <linearGradient
       inkscape:collect="always"
       xlink:href="#linearGradient8384"
       id="linearGradient6771"
       gradientUnits="userSpaceOnUse"
       gradientTransform="matrix(0.99657796,0,0,1,1.2520606,0)"
       x1="408.84314"
       y1="89.26915"
       x2="420.61133"
       y2="138.41306" />
  </defs>
  <metadata
     id="metadata4713">
    <rdf:RDF>
      <cc:Work
         rdf:about="">
        <dc:format>image/svg+xml</dc:format>
        <dc:type
           rdf:resource="http://purl.org/dc/dcmitype/StillImage" />
        <dc:title></dc:title>
      </cc:Work>
    </rdf:RDF>
  </metadata>
  <g
     id="layer1"
     inkscape:groupmode="layer"
     inkscape:label="Capa 1">
    <path
       style="opacity:1;fill:#e9ebec;fill-opacity:1;fill-rule:evenodd;stroke:#37abc8;stroke-width:2;stroke-linejoin:round;stroke-miterlimit:4;stroke-dasharray:none;stroke-dashoffset:0;stroke-opacity:1;paint-order:normal"
       d="m 97.583979,29.700195 c -11.07875,0 -19.99804,9.65194 -19.99804,21.64062 V 460.66113 c 0,11.9887 8.91929,21.63867 19.99804,21.63867 H 414.41602 c 11.07874,0 19.99804,-9.64997 19.99804,-21.63867 V 113.7959 c -0.33411,-0.32981 -0.46874,-0.43168 -0.81445,-0.77345 -9.64188,-9.53205 -23.80681,-23.701345 -37.64453,-37.822255 -6.91884,-7.06045 -13.75546,-14.10994 -19.9043,-20.56055 -6.14876,-6.45062 -11.60929,-12.30327 -15.77539,-16.97265 -3.0827,-3.45513 -4.82334,-5.68286 -6.625,-7.9668 z"
       id="path4506"
       inkscape:connector-curvature="0"
       sodipodi:nodetypes="ssssssccccccs" />
    <g
       id="g4584"
       transform="matrix(0.3829248,0,0,0.3829248,74.406719,31.973725)"
       style="fill:#75abd3;fill-opacity:1;stroke:#9dc4df;stroke-opacity:1" />
    <path
       style="opacity:1;fill:#37abc8;fill-opacity:1;fill-rule:evenodd;stroke:#e9ebec;stroke-width:0.85055965;stroke-linecap:square;stroke-linejoin:miter;stroke-miterlimit:4;stroke-dasharray:none;stroke-dashoffset:0;stroke-opacity:1;paint-order:markers fill stroke"
       d="M 131.99609 380.81641 C 128.02025 380.81641 124.42732 381.34045 121.21875 382.38672 C 118.01018 383.36324 115.25493 384.86197 112.95312 386.88477 C 110.72108 388.83781 108.97818 391.24565 107.72266 394.10547 C 106.46713 396.96528 105.83789 400.24262 105.83789 403.93945 C 105.83789 406.93877 106.22297 409.55506 106.99023 411.78711 C 107.82725 414.01916 108.97662 416.00621 110.44141 417.75 C 111.90619 419.42404 113.65103 420.889 115.67383 422.14453 C 117.76637 423.40006 120.06707 424.4819 122.57812 425.38867 L 128.4375 427.58594 C 129.34427 427.9347 130.21572 428.31782 131.05273 428.73633 C 131.9595 429.08509 132.76342 429.53769 133.46094 430.0957 C 134.15845 430.65372 134.71626 431.35243 135.13477 432.18945 C 135.55327 432.95672 135.76172 433.89765 135.76172 435.01367 C 135.76172 437.66423 134.75131 439.54804 132.72852 440.66406 C 130.77547 441.71034 128.02022 442.23242 124.46289 442.23242 C 119.71978 442.23242 114.1398 440.83889 107.72266 438.04883 C 106.74613 440.90864 105.90845 443.73338 105.21094 446.52344 C 104.51342 449.24375 104.0251 451.82432 103.74609 454.26562 C 107.58243 455.73041 111.13965 456.81225 114.41797 457.50977 C 117.76604 458.20728 121.60314 458.55469 125.92773 458.55469 C 130.67084 458.55469 134.85534 457.99688 138.48242 456.88086 C 142.17925 455.69508 145.28387 454.05544 147.79492 451.96289 C 150.30598 449.80059 152.18783 447.25574 153.44336 444.32617 C 154.76864 441.32685 155.43164 437.97808 155.43164 434.28125 C 155.43164 430.86342 154.97904 427.96921 154.07227 425.59766 C 153.1655 423.15635 151.87521 421.09787 150.20117 419.42383 C 148.52713 417.68004 146.50437 416.21507 144.13281 415.0293 C 141.83101 413.77377 139.21472 412.55492 136.28516 411.36914 L 131.26367 409.38086 C 129.45013 408.68334 127.87997 407.84566 126.55469 406.86914 C 125.22941 405.89262 124.56641 404.39389 124.56641 402.37109 C 124.56641 401.18532 124.81057 400.20867 125.29883 399.44141 C 125.78709 398.60439 126.41437 397.97515 127.18164 397.55664 C 128.01866 397.06838 128.92582 396.72097 129.90234 396.51172 C 130.94862 396.30246 132.03046 396.19727 133.14648 396.19727 C 136.77357 396.19727 139.80674 396.61611 142.24805 397.45312 C 144.68935 398.29014 146.81732 399.09211 148.63086 399.85938 C 149.74688 397.48782 150.65405 394.97673 151.35156 392.32617 C 152.11883 389.60586 152.64092 387.13049 152.91992 384.89844 C 149.15334 383.57316 145.59612 382.5608 142.24805 381.86328 C 138.96972 381.16577 135.55342 380.81641 131.99609 380.81641 z M 270.65039 380.81641 C 268.7671 380.81641 266.81381 380.88589 264.79102 381.02539 C 262.83797 381.09514 260.9204 381.20034 259.03711 381.33984 C 257.15382 381.47935 255.41093 381.65403 253.80664 381.86328 C 252.20235 382.00278 250.87635 382.14175 249.83008 382.28125 L 249.83008 456.98633 C 252.9689 457.40484 256.14299 457.75224 259.35156 458.03125 C 262.62989 458.38001 266.01242 458.55469 269.5 458.55469 C 283.17131 458.55469 293.49555 455.48579 300.4707 449.34766 C 307.44586 443.13977 310.93359 433.40905 310.93359 420.15625 C 310.93359 407.11271 307.51534 397.31251 300.67969 390.75586 C 293.84403 384.12946 283.83344 380.81641 270.65039 380.81641 z M 177.76562 381.44531 C 176.30084 381.44531 174.69496 381.54856 172.95117 381.75781 C 171.27713 381.89732 169.70892 382.072 168.24414 382.28125 L 165.20898 456.98633 C 168.41756 457.61409 171.24229 457.92773 173.68359 457.92773 C 176.33415 457.92773 179.12512 457.61409 182.05469 456.98633 L 183.20508 414.08789 L 193.45898 442.23242 C 194.64476 442.51143 195.79608 442.72183 196.91211 442.86133 C 198.02813 442.93108 199.10802 442.96484 200.1543 442.96484 C 201.20057 442.96484 202.35189 442.89536 203.60742 442.75586 C 204.86295 442.61636 206.11947 442.44168 207.375 442.23242 L 218.88281 413.66992 L 220.34766 456.98633 C 223.69573 457.61409 226.5919 457.92773 229.0332 457.92773 C 231.26525 457.92773 233.04386 457.82254 234.36914 457.61328 C 235.76417 457.40403 237.01874 457.19558 238.13477 456.98633 L 234.57812 382.28125 C 233.11334 382.072 231.61266 381.89732 230.07812 381.75781 C 228.54359 381.54856 227.04486 381.44531 225.58008 381.44531 C 224.18505 381.44531 222.75385 381.54856 221.28906 381.75781 C 219.89403 381.89732 218.5005 382.072 217.10547 382.28125 L 201.72461 421.20312 L 186.86719 382.28125 C 185.47216 382.072 183.93771 381.89732 182.26367 381.75781 C 180.65939 381.54856 179.16066 381.44531 177.76562 381.44531 z M 272.63867 397.24414 C 275.14973 397.24414 277.55562 397.62726 279.85742 398.39453 C 282.15922 399.09205 284.14823 400.31285 285.82227 402.05664 C 287.56605 403.73068 288.96154 406.03137 290.00781 408.96094 C 291.05409 411.8905 291.57617 415.55292 291.57617 419.94727 C 291.57617 424.41137 291.05409 428.07378 290.00781 430.93359 C 289.03129 433.79341 287.66957 436.06034 285.92578 437.73438 C 284.18199 439.40841 282.08974 440.5935 279.64844 441.29102 C 277.27688 441.91878 274.73203 442.23242 272.01172 442.23242 L 270.02344 442.23242 C 269.39567 442.23242 268.83787 442.19866 268.34961 442.12891 L 268.34961 397.34766 L 269.60547 397.34766 C 270.23323 397.2779 271.24364 397.24414 272.63867 397.24414 z "
       id="rect4610" />
    <path
       style="opacity:1;fill:#37abc8;fill-opacity:1;fill-rule:evenodd;stroke:none;stroke-width:1.05391276;stroke-linejoin:round;stroke-miterlimit:4;stroke-dasharray:none;stroke-dashoffset:0;stroke-opacity:1;paint-order:normal"
       d="m 435.00048,114.60612 c -1.83541,-2.30475 -3.6077,-4.55306 -6.74972,-8.04125 -4.24635,-4.71409 -9.8132,-10.623129 -16.08223,-17.137261 C 405.8996,82.913483 398.92921,75.794273 391.8744,68.663457 377.76477,54.401804 363.32068,40.090503 353.48814,30.462087 c -0.35278,-0.345219 -0.4898,-0.448268 -0.83055,-0.781422 l -0.24394,62.802323 c -0.0467,12.055462 9.04538,21.800782 20.38588,21.850482 z"
       id="rect4485"
       inkscape:connector-curvature="0" />
    <g
       id="g5030"
       transform="matrix(0.82230259,0,0,0.82230259,44.89783,29.121108)"
       style="fill:#37abc8;fill-opacity:1">
      <rect
         id="rect5024"
         height="96"
         width="96"
         y="191.64349"
         x="298.72253"
         style="fill:#37abc8;fill-opacity:1;stroke:#e9ebec;stroke-width:12.16097355;stroke-linecap:round;stroke-miterlimit:4;stroke-dasharray:12.16097349, 36.48292048;stroke-dashoffset:0;stroke-opacity:1"
         transform="rotate(-9.9693406)" />
      <rect
         id="rect5026"
         height="32"
         width="224"
         y="256"
         x="78.593185"
         style="fill:#37abc8;fill-opacity:1" />
      <rect
         id="rect5028"
         height="32"
         width="224"
         y="320"
         x="78.593185"
         style="fill:#37abc8;fill-opacity:1" />
    </g>
    <path
       style="opacity:1;fill:url(#linearGradient6771);fill-opacity:1;fill-rule:evenodd;stroke:none;stroke-width:8.77774811;stroke-linecap:square;stroke-linejoin:miter;stroke-miterlimit:4;stroke-dasharray:none;stroke-dashoffset:0;stroke-opacity:1;paint-order:markers fill stroke"
       d="m 433.28939,182.37584 v -69.47028 c 0,-0.0394 -0.0309,-0.0705 -0.0703,-0.0705 h -67.33747 c 4.09851,4.50878 8.40749,9.2132 13.77948,14.86279 7.205,7.57734 15.21697,15.8602 23.32513,24.15489 11.13885,11.3951 20.83136,21.05949 30.30308,30.52302 z"
       id="path4566"
       inkscape:connector-curvature="0" />
  </g>
</svg>
