<?xml version="1.0" encoding="UTF-8" standalone="no"?>
<!-- Created with Inkscape (http://www.inkscape.org/) -->

<svg
   xmlns:osb="http://www.openswatchbook.org/uri/2009/osb"
   xmlns:dc="http://purl.org/dc/elements/1.1/"
   xmlns:cc="http://creativecommons.org/ns#"
   xmlns:rdf="http://www.w3.org/1999/02/22-rdf-syntax-ns#"
   xmlns:svg="http://www.w3.org/2000/svg"
   xmlns="http://www.w3.org/2000/svg"
   xmlns:xlink="http://www.w3.org/1999/xlink"
   xmlns:sodipodi="http://sodipodi.sourceforge.net/DTD/sodipodi-0.dtd"
   xmlns:inkscape="http://www.inkscape.org/namespaces/inkscape"
   width="512px"
   height="512px"
   viewBox="0 0 512 512"
   version="1.1"
   id="SVGRoot"
   inkscape:version="0.92.1 r15371"
   sodipodi:docname="sqlite2.svg">
  <sodipodi:namedview
     id="base"
     pagecolor="#ffffff"
     bordercolor="#666666"
     borderopacity="1.0"
     inkscape:pageopacity="0.0"
     inkscape:pageshadow="2"
     inkscape:zoom="1"
     inkscape:cx="170.17401"
     inkscape:cy="186.82584"
     inkscape:document-units="px"
     inkscape:current-layer="layer1"
     showgrid="false"
     inkscape:window-width="1280"
     inkscape:window-height="947"
     inkscape:window-x="0"
     inkscape:window-y="0"
     inkscape:window-maximized="1" />
  <defs
     id="defs4710">
    <linearGradient
       id="linearGradient8384"
       inkscape:collect="always">
      <stop
         id="stop8380"
         offset="0"
         style="stop-color:#181818;stop-opacity:0.62365592" />
      <stop
         id="stop8382"
         offset="1"
         style="stop-color:#404040;stop-opacity:0" />
    </linearGradient>
    <linearGradient
       inkscape:collect="always"
       id="linearGradient4573">
      <stop
         style="stop-color:#181818;stop-opacity:0.30645162"
         offset="0"
         id="stop4569" />
      <stop
         style="stop-color:#404040;stop-opacity:0"
         offset="1"
         id="stop4571" />
    </linearGradient>
    <marker
       inkscape:stockid="DotM"
       orient="auto"
       refY="0.0"
       refX="0.0"
       id="DotM"
       style="overflow:visible"
       inkscape:isstock="true">
      <path
         id="path4618"
         d="M -2.5,-1.0 C -2.5,1.7600000 -4.7400000,4.0 -7.5,4.0 C -10.260000,4.0 -12.5,1.7600000 -12.5,-1.0 C -12.5,-3.7600000 -10.260000,-6.0 -7.5,-6.0 C -4.7400000,-6.0 -2.5,-3.7600000 -2.5,-1.0 z "
         style="fill-rule:evenodd;stroke:#000000;stroke-width:1.0pt"
         transform="scale(0.4) translate(7.4, 1)" />
    </marker>
    <linearGradient
       osb:paint="solid"
       id="linearGradient5207">
      <stop
         id="stop5209"
         offset="0"
         style="stop-color:#000015;stop-opacity:1;" />
    </linearGradient>
    <clipPath
       id="clipPath3006-9-8"
       clipPathUnits="userSpaceOnUse">
      <path
         inkscape:export-ydpi="90"
         inkscape:export-xdpi="90"
         transform="matrix(1.2020779,0,0,1.2020779,-93.20363,-75.172465)"
         d="m 483,275.5 a 192.5,192.5 0 1 1 -385,0 192.5,192.5 0 1 1 385,0 z"
         sodipodi:ry="192.5"
         sodipodi:rx="192.5"
         sodipodi:cy="275.5"
         sodipodi:cx="290.5"
         id="path3008-1-1"
         style="fill:#ffffff;fill-opacity:1;stroke:none;display:inline"
         sodipodi:type="arc" />
    </clipPath>
    <mask
       id="mask3818-4"
       maskUnits="userSpaceOnUse">
      <path
         sodipodi:type="arc"
         style="fill:#ffffff;fill-opacity:1;stroke:none;display:inline"
         id="path3820-9"
         sodipodi:cx="290.5"
         sodipodi:cy="275.5"
         sodipodi:rx="192.5"
         sodipodi:ry="192.5"
         d="m 483,275.5 a 192.5,192.5 0 1 1 -385,0 192.5,192.5 0 1 1 385,0 z"
         transform="matrix(1.2020779,0,0,1.2020779,-93.20363,-75.172466)"
         inkscape:export-xdpi="90"
         inkscape:export-ydpi="90" />
    </mask>
    <clipPath
       id="clipPath3006"
       clipPathUnits="userSpaceOnUse">
      <path
         inkscape:export-ydpi="90"
         inkscape:export-xdpi="90"
         transform="matrix(1.2020779,0,0,1.2020779,-93.20363,-75.172465)"
         d="m 483,275.5 a 192.5,192.5 0 1 1 -385,0 192.5,192.5 0 1 1 385,0 z"
         sodipodi:ry="192.5"
         sodipodi:rx="192.5"
         sodipodi:cy="275.5"
         sodipodi:cx="290.5"
         id="path3008"
         style="fill:#ffffff;fill-opacity:1;stroke:none;display:inline"
         sodipodi:type="arc" />
    </clipPath>
    <clipPath
       id="clipPath3006-9"
       clipPathUnits="userSpaceOnUse">
      <path
         inkscape:export-ydpi="90"
         inkscape:export-xdpi="90"
         transform="matrix(1.2020779,0,0,1.2020779,-93.20363,-75.172465)"
         d="m 483,275.5 a 192.5,192.5 0 1 1 -385,0 192.5,192.5 0 1 1 385,0 z"
         sodipodi:ry="192.5"
         sodipodi:rx="192.5"
         sodipodi:cy="275.5"
         sodipodi:cx="290.5"
         id="path3008-1"
         style="fill:#ffffff;fill-opacity:1;stroke:none;display:inline"
         sodipodi:type="arc" />
    </clipPath>
    <mask
       maskUnits="userSpaceOnUse"
       id="mask3818-0">
      <path
         inkscape:export-ydpi="90"
         inkscape:export-xdpi="90"
         transform="matrix(1.2020779,0,0,1.2020779,-93.20363,-75.172466)"
         d="m 483,275.5 a 192.5,192.5 0 1 1 -385,0 192.5,192.5 0 1 1 385,0 z"
         sodipodi:ry="192.5"
         sodipodi:rx="192.5"
         sodipodi:cy="275.5"
         sodipodi:cx="290.5"
         id="path3820-8"
         style="fill:#ffffff;fill-opacity:1;stroke:none;display:inline"
         sodipodi:type="arc" />
    </mask>
    <mask
       maskUnits="userSpaceOnUse"
       id="mask3818-2">
      <path
         inkscape:export-ydpi="90"
         inkscape:export-xdpi="90"
         transform="matrix(1.2020779,0,0,1.2020779,-93.20363,-75.172466)"
         d="m 483,275.5 a 192.5,192.5 0 1 1 -385,0 192.5,192.5 0 1 1 385,0 z"
         sodipodi:ry="192.5"
         sodipodi:rx="192.5"
         sodipodi:cy="275.5"
         sodipodi:cx="290.5"
         id="path3820-2-2"
         style="fill:#ffffff;fill-opacity:1;stroke:none;display:inline"
         sodipodi:type="arc" />
    </mask>
    <clipPath
       id="clipPath3934"
       clipPathUnits="userSpaceOnUse">
      <path
         id="path3936"
         d="m 0,0 0,1024 1024,0 L 1024,0 0,0 z m 278.4375,333.84375 119.78125,0 c 9.83697,42.31453 19.85954,84.58596 29.9375,126.84375 9.86978,-42.28798 20.05132,-84.50237 29.6875,-126.84375 l 108.90625,0 c 9.63586,42.34141 19.8178,84.55578 29.6875,126.84375 10.07827,-42.25772 20.10031,-84.52927 29.9375,-126.84375 l 119.1875,0 c -26.26221,110.73099 -52.49625,221.46929 -78.28125,332.3125 l -122.8125,0 c -10.59439,-45.55681 -21.46638,-91.04874 -32.375,-136.53125 -10.66279,45.51136 -21.5615,90.96897 -32,136.53125 l -122.8125,0 c -25.71418,-110.03502 -52.0286,-219.92873 -78.25,-329.84375 l -0.59375,-2.46875 z"
         style="fill:#ff3232;fill-opacity:1;stroke:none"
         inkscape:connector-curvature="0" />
    </clipPath>
    <clipPath
       id="clipPath3929"
       clipPathUnits="userSpaceOnUse">
      <path
         inkscape:connector-curvature="0"
         style="fill:#ff3232;fill-opacity:1;stroke:none"
         d="m 0,0 0,1024 1024,0 L 1024,0 0,0 z m 278.4375,333.84375 119.78125,0 c 9.83697,42.31453 19.85954,84.58596 29.9375,126.84375 9.86978,-42.28798 20.05132,-84.50237 29.6875,-126.84375 l 108.90625,0 c 9.63586,42.34141 19.8178,84.55578 29.6875,126.84375 10.07827,-42.25772 20.10031,-84.52927 29.9375,-126.84375 l 119.1875,0 c -26.26221,110.73099 -52.49625,221.46929 -78.28125,332.3125 l -122.8125,0 c -10.59439,-45.55681 -21.46638,-91.04874 -32.375,-136.53125 -10.66279,45.51136 -21.5615,90.96897 -32,136.53125 l -122.8125,0 c -25.71418,-110.03502 -52.0286,-219.92873 -78.25,-329.84375 l -0.59375,-2.46875 z"
         id="path3931" />
    </clipPath>
    <mask
       maskUnits="userSpaceOnUse"
       id="mask3818">
      <path
         inkscape:export-ydpi="90"
         inkscape:export-xdpi="90"
         transform="matrix(1.2020779,0,0,1.2020779,-93.20363,-75.172466)"
         d="m 483,275.5 a 192.5,192.5 0 1 1 -385,0 192.5,192.5 0 1 1 385,0 z"
         sodipodi:ry="192.5"
         sodipodi:rx="192.5"
         sodipodi:cy="275.5"
         sodipodi:cx="290.5"
         id="path3820"
         style="fill:#ffffff;fill-opacity:1;stroke:none;display:inline"
         sodipodi:type="arc" />
    </mask>
    <linearGradient
       inkscape:collect="always"
       xlink:href="#linearGradient4573"
       id="linearGradient4575"
       x1="408.84314"
       y1="89.26915"
       x2="420.61133"
       y2="138.41306"
       gradientUnits="userSpaceOnUse"
       gradientTransform="matrix(0.99657796,0,0,1,1.2520606,0)" />
    <linearGradient
       inkscape:collect="always"
       xlink:href="#linearGradient8384"
       id="linearGradient6771"
       gradientUnits="userSpaceOnUse"
       gradientTransform="matrix(0.99657796,0,0,1,1.3692481,-0.00390625)"
       x1="408.84314"
       y1="89.26915"
       x2="420.61133"
       y2="138.41306" />
  </defs>
  <metadata
     id="metadata4713">
    <rdf:RDF>
      <cc:Work
         rdf:about="">
        <dc:format>image/svg+xml</dc:format>
        <dc:type
           rdf:resource="http://purl.org/dc/dcmitype/StillImage" />
        <dc:title></dc:title>
      </cc:Work>
    </rdf:RDF>
  </metadata>
  <g
     id="layer1"
     inkscape:groupmode="layer"
     inkscape:label="Capa 1">
    <path
       style="opacity:1;fill:#f2f0f6;fill-opacity:1;fill-rule:evenodd;stroke:#5b2da2;stroke-width:2;stroke-linejoin:round;stroke-miterlimit:4;stroke-dasharray:none;stroke-dashoffset:0;stroke-opacity:1;paint-order:normal"
       d="m 97.583979,29.700195 c -11.07875,0 -19.99804,9.65194 -19.99804,21.64062 V 460.66113 c 0,11.9887 8.91929,21.63867 19.99804,21.63867 H 414.41602 c 11.07874,0 19.99804,-9.64997 19.99804,-21.63867 V 113.7959 c -0.33411,-0.32981 -0.46874,-0.43168 -0.81445,-0.77345 -9.64188,-9.53205 -23.80681,-23.701345 -37.64453,-37.822255 -6.91884,-7.06045 -13.75546,-14.10994 -19.9043,-20.56055 -6.14876,-6.45062 -11.60929,-12.30327 -15.77539,-16.97265 -3.0827,-3.45513 -4.82334,-5.68286 -6.625,-7.9668 z"
       id="path4506"
       inkscape:connector-curvature="0"
       sodipodi:nodetypes="ssssssccccccs" />
    <g
       id="g4584"
       transform="matrix(0.3829248,0,0,0.3829248,74.406719,31.973725)"
       style="fill:#75abd3;fill-opacity:1;stroke:#9dc4df;stroke-opacity:1" />
    <path
       style="opacity:1;fill:#5b2da2;fill-opacity:1;fill-rule:evenodd;stroke:#e4e0ec;stroke-width:1.179389;stroke-linecap:square;stroke-linejoin:miter;stroke-miterlimit:4;stroke-dasharray:none;stroke-dashoffset:0;stroke-opacity:1;paint-order:markers fill stroke"
       d="M 399.11328 388.03711 C 394.78868 388.03711 390.91783 388.52543 387.5 389.50195 C 384.08217 390.47847 381.18796 391.6298 378.81641 392.95508 C 378.95591 395.60564 379.44423 398.18621 380.28125 400.69727 C 381.11827 403.20832 382.09491 405.6837 383.21094 408.125 C 385.02448 407.07873 387.08101 406.10208 389.38281 405.19531 C 391.68461 404.21879 394.16194 403.73047 396.8125 403.73047 C 399.60256 403.73047 401.76429 404.39347 403.29883 405.71875 C 404.90311 406.97428 405.70508 408.6834 405.70508 410.8457 C 405.70508 413.21726 404.90311 415.90303 403.29883 418.90234 C 401.76429 421.83191 399.39217 425.45861 396.18359 429.7832 L 377.56055 454.26562 L 378.81641 457.30078 L 426.10742 457.30078 C 426.73519 454.37122 427.04883 451.68545 427.04883 449.24414 C 427.04883 447.08184 426.73519 444.53503 426.10742 441.60547 L 407.79883 441.60547 L 413.76172 433.23633 C 414.9475 431.56229 416.13258 429.81745 417.31836 428.00391 C 418.57389 426.19037 419.69145 424.2728 420.66797 422.25 C 421.64449 420.2272 422.44645 418.09924 423.07422 415.86719 C 423.70198 413.63514 424.01562 411.26301 424.01562 408.75195 C 424.01563 405.19462 423.38834 402.12573 422.13281 399.54492 C 420.87728 396.96411 419.13244 394.8381 416.90039 393.16406 C 414.66834 391.42027 412.01829 390.12999 408.94922 389.29297 C 405.9499 388.45595 402.67061 388.03711 399.11328 388.03711 z M 108.80664 401.95117 C 105.45857 401.95117 102.38772 402.37001 99.597656 403.20703 C 96.877345 404.04405 94.50717 405.26485 92.484375 406.86914 C 90.46158 408.40367 88.891416 410.28748 87.775391 412.51953 C 86.659366 414.75158 86.101562 417.22695 86.101562 419.94727 C 86.101563 424.27186 87.322367 427.69012 89.763672 430.20117 C 92.204977 432.71223 95.27387 434.49084 98.970703 435.53711 L 106.08594 437.52539 C 107.27171 437.87415 108.31784 438.29299 109.22461 438.78125 C 110.13138 439.19976 110.58398 439.86276 110.58398 440.76953 C 110.58398 441.46705 110.33982 442.02485 109.85156 442.44336 C 109.43305 442.86187 108.87525 443.20928 108.17773 443.48828 C 107.48022 443.69754 106.67825 443.83845 105.77148 443.9082 C 104.86471 443.97795 103.99327 444.01172 103.15625 444.01172 C 100.71495 444.01172 98.273336 443.76756 95.832031 443.2793 C 93.390727 442.72128 91.054316 441.91932 88.822266 440.87305 C 86.590216 445.75566 85.29993 450.56939 84.951172 455.3125 C 88.159744 456.49828 91.19292 457.334 94.052734 457.82227 C 96.912548 458.31053 100.01716 458.55469 103.36523 458.55469 C 107.41082 458.55469 110.96804 458.06637 114.03711 457.08984 C 117.17593 456.11332 119.79222 454.78927 121.88477 453.11523 C 124.04706 451.4412 125.65099 449.45219 126.69727 447.15039 C 127.81329 444.84859 128.37109 442.37322 128.37109 439.72266 C 128.37109 437.14185 128.02173 434.9444 127.32422 433.13086 C 126.6267 431.31732 125.65006 429.78287 124.39453 428.52734 C 123.20875 427.27182 121.74379 426.26141 120 425.49414 C 118.32596 424.65712 116.44411 423.9584 114.35156 423.40039 L 107.55078 421.62109 C 106.57426 421.34209 105.70086 420.99468 104.93359 420.57617 C 104.16633 420.15766 103.7832 419.56414 103.7832 418.79688 C 103.7832 416.98333 105.42285 416.07617 108.70117 416.07617 C 110.93322 416.07617 113.37483 416.38981 116.02539 417.01758 C 118.67595 417.64534 120.94288 418.34406 122.82617 419.11133 C 123.80269 417.15828 124.67414 414.92512 125.44141 412.41406 C 126.20867 409.83325 126.66128 407.42736 126.80078 405.19531 C 123.73171 404.14904 120.62905 403.34707 117.49023 402.78906 C 114.35141 402.23105 111.4572 401.95117 108.80664 401.95117 z M 161.82031 401.95117 C 157.42596 401.95117 153.55511 402.64989 150.20703 404.04492 C 146.85896 405.3702 144.03422 407.28777 141.73242 409.79883 C 139.50037 412.30988 137.79125 415.34501 136.60547 418.90234 C 135.48944 422.38992 134.93164 426.26078 134.93164 430.51562 C 134.93164 434.70072 135.48944 438.53586 136.60547 442.02344 C 137.79125 445.44126 139.50037 448.40691 141.73242 450.91797 C 144.03422 453.35927 146.85896 455.24308 150.20703 456.56836 C 153.55511 457.89364 157.42596 458.55469 161.82031 458.55469 C 166.28441 458.55469 170.19099 457.89364 173.53906 456.56836 C 176.88714 455.24308 179.67615 453.35927 181.9082 450.91797 C 184.21 448.40691 185.91913 445.44126 187.03516 442.02344 C 188.22093 438.53586 188.81445 434.70072 188.81445 430.51562 C 188.81445 426.26078 188.22093 422.38992 187.03516 418.90234 C 185.91913 415.34501 184.21 412.30988 181.9082 409.79883 C 179.67615 407.28777 176.88714 405.3702 173.53906 404.04492 C 170.19099 402.64989 166.28441 401.95117 161.82031 401.95117 z M 349.71875 401.95117 C 345.25465 401.95117 341.34807 402.71937 338 404.25391 C 334.65193 405.71869 331.86096 407.74146 329.62891 410.32227 C 327.39686 412.90307 325.72345 415.9382 324.60742 419.42578 C 323.4914 422.91336 322.93359 426.6433 322.93359 430.61914 C 322.93359 434.66473 323.45763 438.39663 324.50391 441.81445 C 325.61993 445.23228 327.29334 448.19793 329.52539 450.70898 C 331.82719 453.15029 334.75712 455.06786 338.31445 456.46289 C 341.94153 457.85792 346.265 458.55469 351.28711 458.55469 C 357.774 458.55469 364.12219 457.40532 370.33008 455.10352 C 370.26033 452.3832 369.84149 449.76692 369.07422 447.25586 C 368.3767 444.7448 367.53902 442.58307 366.5625 440.76953 C 364.1212 441.74605 361.64582 442.47854 359.13477 442.9668 C 356.62371 443.45506 354.35678 443.69922 352.33398 443.69922 C 349.19516 443.69922 346.64836 443.1057 344.69531 441.91992 C 342.81202 440.73415 341.48797 438.71138 340.7207 435.85156 L 372.52734 435.85156 C 372.66685 434.87504 372.80581 433.65424 372.94531 432.18945 C 373.15457 430.65492 373.25977 428.94579 373.25977 427.0625 C 373.25977 423.43542 372.70196 420.08665 371.58594 417.01758 C 370.53966 413.87876 369.00522 411.2287 366.98242 409.06641 C 364.95963 406.83436 362.4823 405.09147 359.55273 403.83594 C 356.69292 402.58041 353.41558 401.95117 349.71875 401.95117 z M 206.82812 402.26562 C 205.43309 402.26562 203.96813 402.33511 202.43359 402.47461 C 200.96881 402.61411 199.47008 402.85827 197.93555 403.20703 L 197.83008 457.30078 L 235.28711 457.30078 C 235.63587 455.90575 235.84431 454.61546 235.91406 453.42969 C 236.05357 452.17416 236.125 450.98712 236.125 449.87109 C 236.125 448.75507 236.05357 447.60375 235.91406 446.41797 C 235.84431 445.23219 235.63587 443.94191 235.28711 442.54688 L 215.51172 442.54688 L 215.61719 403.20703 C 214.1524 402.85827 212.65172 402.61411 211.11719 402.47461 C 209.58265 402.33511 208.1534 402.26562 206.82812 402.26562 z M 252.49805 402.26562 C 251.10302 402.26562 249.63805 402.33511 248.10352 402.47461 C 246.63873 402.61411 245.14 402.85827 243.60547 403.20703 L 243.60547 457.19531 C 245.34926 457.47432 246.95319 457.68276 248.41797 457.82227 C 249.88275 457.96177 251.20875 458.0332 252.39453 458.0332 C 253.58031 458.0332 254.90436 457.96177 256.36914 457.82227 C 257.83392 457.68276 259.47357 457.47432 261.28711 457.19531 L 261.28711 403.20703 C 259.82233 402.85827 258.32164 402.61411 256.78711 402.47461 C 255.25258 402.33511 253.82333 402.26562 252.49805 402.26562 z M 269.57812 403.20703 C 269.22937 404.60206 268.98521 405.89235 268.8457 407.07812 C 268.77595 408.2639 268.74219 409.41523 268.74219 410.53125 C 268.74219 411.64727 268.77595 412.83236 268.8457 414.08789 C 268.98521 415.27367 269.22937 416.56591 269.57812 417.96094 L 285.06445 417.96094 L 285.06445 457.19531 C 286.80824 457.47432 288.41217 457.68276 289.87695 457.82227 C 291.34174 457.96177 292.66579 458.0332 293.85156 458.0332 C 295.03734 458.0332 296.36334 457.96177 297.82812 457.82227 C 299.29291 457.68276 300.93255 457.47432 302.74609 457.19531 L 302.74609 417.96094 L 318.23047 417.96094 C 318.57923 416.56591 318.78767 415.27367 318.85742 414.08789 C 318.99692 412.83236 319.06836 411.64727 319.06836 410.53125 C 319.06836 409.41523 318.99692 408.2639 318.85742 407.07812 C 318.78767 405.89235 318.57923 404.60206 318.23047 403.20703 L 269.57812 403.20703 z M 349.08984 415.24023 C 351.67065 415.24023 353.62394 416.07596 354.94922 417.75 C 356.34425 419.35429 357.11245 421.37705 357.25195 423.81836 L 340.51172 423.81836 C 340.79072 420.88879 341.73165 418.72706 343.33594 417.33203 C 344.94022 415.937 346.85779 415.24023 349.08984 415.24023 z M 161.82031 416.70508 C 164.88938 416.70508 167.15631 417.89017 168.62109 420.26172 C 170.15563 422.63327 170.92383 426.05153 170.92383 430.51562 C 170.92383 434.90997 170.15563 438.29251 168.62109 440.66406 C 167.15631 443.03562 164.88938 444.2207 161.82031 444.2207 C 158.75124 444.2207 156.48431 443.03562 155.01953 440.66406 C 153.55475 438.29251 152.82227 434.90997 152.82227 430.51562 C 152.82227 426.05153 153.55475 422.63327 155.01953 420.26172 C 156.48431 417.89017 158.75124 416.70508 161.82031 416.70508 z M 160.77344 459.39258 C 160.07592 461.27587 159.51812 463.29864 159.09961 465.46094 C 158.75085 467.69299 158.54241 469.82095 158.47266 471.84375 L 187.03516 475.92383 C 187.73267 474.04054 188.25671 471.98205 188.60547 469.75 C 189.02398 467.5877 189.26814 465.49545 189.33789 463.47266 L 160.77344 459.39258 z "
       id="rect4610-3" />
    <path
       style="opacity:1;fill:url(#linearGradient6771);fill-opacity:1;fill-rule:evenodd;stroke:none;stroke-width:8.77774811;stroke-linecap:square;stroke-linejoin:miter;stroke-miterlimit:4;stroke-dasharray:none;stroke-dashoffset:0;stroke-opacity:1;paint-order:markers fill stroke"
       d="m 433.40658,182.37194 v -69.47028 c 0,-0.0394 -0.0309,-0.0705 -0.0703,-0.0705 h -67.33747 c 4.09851,4.50878 8.40749,9.2132 13.77948,14.86279 7.205,7.57734 15.21697,15.8602 23.32513,24.15489 11.13885,11.3951 20.83136,21.05949 30.30308,30.52302 z"
       id="path4566"
       inkscape:connector-curvature="0" />
    <path
       style="opacity:1;fill:#5b2da2;fill-opacity:1;fill-rule:evenodd;stroke:none;stroke-width:1.05391276;stroke-linejoin:round;stroke-miterlimit:4;stroke-dasharray:none;stroke-dashoffset:0;stroke-opacity:1;paint-order:normal"
       d="m 435.00048,114.60612 c -1.83541,-2.30475 -3.6077,-4.55306 -6.74972,-8.04125 -4.24635,-4.71409 -9.8132,-10.623129 -16.08223,-17.137261 C 405.8996,82.913483 398.92921,75.794273 391.8744,68.663457 377.76477,54.401804 363.32068,40.090503 353.48814,30.462087 c -0.35278,-0.345219 -0.4898,-0.448268 -0.83055,-0.781422 l -0.24394,62.802323 c -0.0467,12.055462 9.04538,21.800782 20.38588,21.850482 z"
       id="rect4485"
       inkscape:connector-curvature="0" />
    <g
       style="fill:#5b2da2;fill-opacity:1;stroke:#dce1e9;stroke-width:2.4812274;stroke-miterlimit:4;stroke-dasharray:none;stroke-opacity:1"
       id="g4559"
       transform="matrix(0.40302636,0,0,0.40302636,152.82284,138.82203)">
      <path
         id="path4548"
         d="m 256.224,353.312 c -0.592,0 -1.184,0 -1.776,0 -140.512,0 -254.16,-34.128 -254.192,-60.336 L 0,190.048 c 0,-0.16 0.064,-0.304 0.064,-0.432 23.136,10.976 50.32,16.032 66.576,19.056 50.512,9.392 117.232,14.576 187.808,14.576 h 1.776 c 71.024,-0.08 138.128,-5.392 189.008,-14.944 16.272,-3.056 43.36,-8.144 66.512,-19.056 0,0.048 0,0.144 0,0.144 l 0.272,102.928 c 0.032,26.32 -114.448,60.8 -255.792,60.992 z m 0,-161.056 c -0.592,0 -1.184,0 -1.776,0 -140.512,0 -254.16,-31.136 -254.192,-57.344 L 0,47.968 C -0.048,21.664 114.496,0.176 255.84,0 c 0.624,0 1.216,0 1.84,0 140.464,0 254.032,21.12 254.064,47.328 l 0.272,86.944 c 0.032,26.304 -114.448,57.792 -255.792,57.984 z m -1.792,192.064 h 1.776 c 71.024,-0.096 138.144,-8.384 189.008,-17.936 16.272,-3.056 43.36,-8.144 66.528,-19.072 L 512,464.048 c 0.032,26.32 -114.448,47.792 -255.792,47.968 -0.608,0 -1.184,0 -1.808,0 -140.48,0 -254.128,-21.12 -254.16,-47.312 L 0,347.664 c 23.136,10.992 50.336,16.048 66.624,19.072 50.512,9.408 117.216,17.584 187.808,17.584 z"
         inkscape:connector-curvature="0"
         style="fill:#5b2da2;fill-opacity:1;stroke:#dce1e9;stroke-width:2.4812274;stroke-miterlimit:4;stroke-dasharray:none;stroke-opacity:1" />
    </g>
  </g>
</svg>
