<?xml version="1.0" encoding="UTF-8" standalone="no"?>
<!-- Created with Inkscape (http://www.inkscape.org/) -->

<svg
   xmlns:osb="http://www.openswatchbook.org/uri/2009/osb"
   xmlns:dc="http://purl.org/dc/elements/1.1/"
   xmlns:cc="http://creativecommons.org/ns#"
   xmlns:rdf="http://www.w3.org/1999/02/22-rdf-syntax-ns#"
   xmlns:svg="http://www.w3.org/2000/svg"
   xmlns="http://www.w3.org/2000/svg"
   xmlns:xlink="http://www.w3.org/1999/xlink"
   xmlns:sodipodi="http://sodipodi.sourceforge.net/DTD/sodipodi-0.dtd"
   xmlns:inkscape="http://www.inkscape.org/namespaces/inkscape"
   width="512px"
   height="512px"
   viewBox="0 0 512 512"
   version="1.1"
   id="SVGRoot"
   inkscape:version="0.92.1 r15371"
   sodipodi:docname="sqlite3.svg">
  <sodipodi:namedview
     id="base"
     pagecolor="#ffffff"
     bordercolor="#666666"
     borderopacity="1.0"
     inkscape:pageopacity="0.0"
     inkscape:pageshadow="2"
     inkscape:zoom="1"
     inkscape:cx="170.17401"
     inkscape:cy="186.82584"
     inkscape:document-units="px"
     inkscape:current-layer="layer1"
     showgrid="false"
     inkscape:window-width="1280"
     inkscape:window-height="947"
     inkscape:window-x="0"
     inkscape:window-y="0"
     inkscape:window-maximized="1" />
  <defs
     id="defs4710">
    <linearGradient
       id="linearGradient8384"
       inkscape:collect="always">
      <stop
         id="stop8380"
         offset="0"
         style="stop-color:#181818;stop-opacity:0.62365592" />
      <stop
         id="stop8382"
         offset="1"
         style="stop-color:#404040;stop-opacity:0" />
    </linearGradient>
    <linearGradient
       inkscape:collect="always"
       id="linearGradient4573">
      <stop
         style="stop-color:#181818;stop-opacity:0.30645162"
         offset="0"
         id="stop4569" />
      <stop
         style="stop-color:#404040;stop-opacity:0"
         offset="1"
         id="stop4571" />
    </linearGradient>
    <marker
       inkscape:stockid="DotM"
       orient="auto"
       refY="0.0"
       refX="0.0"
       id="DotM"
       style="overflow:visible"
       inkscape:isstock="true">
      <path
         id="path4618"
         d="M -2.5,-1.0 C -2.5,1.7600000 -4.7400000,4.0 -7.5,4.0 C -10.260000,4.0 -12.5,1.7600000 -12.5,-1.0 C -12.5,-3.7600000 -10.260000,-6.0 -7.5,-6.0 C -4.7400000,-6.0 -2.5,-3.7600000 -2.5,-1.0 z "
         style="fill-rule:evenodd;stroke:#000000;stroke-width:1.0pt"
         transform="scale(0.4) translate(7.4, 1)" />
    </marker>
    <linearGradient
       osb:paint="solid"
       id="linearGradient5207">
      <stop
         id="stop5209"
         offset="0"
         style="stop-color:#000015;stop-opacity:1;" />
    </linearGradient>
    <clipPath
       id="clipPath3006-9-8"
       clipPathUnits="userSpaceOnUse">
      <path
         inkscape:export-ydpi="90"
         inkscape:export-xdpi="90"
         transform="matrix(1.2020779,0,0,1.2020779,-93.20363,-75.172465)"
         d="m 483,275.5 a 192.5,192.5 0 1 1 -385,0 192.5,192.5 0 1 1 385,0 z"
         sodipodi:ry="192.5"
         sodipodi:rx="192.5"
         sodipodi:cy="275.5"
         sodipodi:cx="290.5"
         id="path3008-1-1"
         style="fill:#ffffff;fill-opacity:1;stroke:none;display:inline"
         sodipodi:type="arc" />
    </clipPath>
    <mask
       id="mask3818-4"
       maskUnits="userSpaceOnUse">
      <path
         sodipodi:type="arc"
         style="fill:#ffffff;fill-opacity:1;stroke:none;display:inline"
         id="path3820-9"
         sodipodi:cx="290.5"
         sodipodi:cy="275.5"
         sodipodi:rx="192.5"
         sodipodi:ry="192.5"
         d="m 483,275.5 a 192.5,192.5 0 1 1 -385,0 192.5,192.5 0 1 1 385,0 z"
         transform="matrix(1.2020779,0,0,1.2020779,-93.20363,-75.172466)"
         inkscape:export-xdpi="90"
         inkscape:export-ydpi="90" />
    </mask>
    <clipPath
       id="clipPath3006"
       clipPathUnits="userSpaceOnUse">
      <path
         inkscape:export-ydpi="90"
         inkscape:export-xdpi="90"
         transform="matrix(1.2020779,0,0,1.2020779,-93.20363,-75.172465)"
         d="m 483,275.5 a 192.5,192.5 0 1 1 -385,0 192.5,192.5 0 1 1 385,0 z"
         sodipodi:ry="192.5"
         sodipodi:rx="192.5"
         sodipodi:cy="275.5"
         sodipodi:cx="290.5"
         id="path3008"
         style="fill:#ffffff;fill-opacity:1;stroke:none;display:inline"
         sodipodi:type="arc" />
    </clipPath>
    <clipPath
       id="clipPath3006-9"
       clipPathUnits="userSpaceOnUse">
      <path
         inkscape:export-ydpi="90"
         inkscape:export-xdpi="90"
         transform="matrix(1.2020779,0,0,1.2020779,-93.20363,-75.172465)"
         d="m 483,275.5 a 192.5,192.5 0 1 1 -385,0 192.5,192.5 0 1 1 385,0 z"
         sodipodi:ry="192.5"
         sodipodi:rx="192.5"
         sodipodi:cy="275.5"
         sodipodi:cx="290.5"
         id="path3008-1"
         style="fill:#ffffff;fill-opacity:1;stroke:none;display:inline"
         sodipodi:type="arc" />
    </clipPath>
    <mask
       maskUnits="userSpaceOnUse"
       id="mask3818-0">
      <path
         inkscape:export-ydpi="90"
         inkscape:export-xdpi="90"
         transform="matrix(1.2020779,0,0,1.2020779,-93.20363,-75.172466)"
         d="m 483,275.5 a 192.5,192.5 0 1 1 -385,0 192.5,192.5 0 1 1 385,0 z"
         sodipodi:ry="192.5"
         sodipodi:rx="192.5"
         sodipodi:cy="275.5"
         sodipodi:cx="290.5"
         id="path3820-8"
         style="fill:#ffffff;fill-opacity:1;stroke:none;display:inline"
         sodipodi:type="arc" />
    </mask>
    <mask
       maskUnits="userSpaceOnUse"
       id="mask3818-2">
      <path
         inkscape:export-ydpi="90"
         inkscape:export-xdpi="90"
         transform="matrix(1.2020779,0,0,1.2020779,-93.20363,-75.172466)"
         d="m 483,275.5 a 192.5,192.5 0 1 1 -385,0 192.5,192.5 0 1 1 385,0 z"
         sodipodi:ry="192.5"
         sodipodi:rx="192.5"
         sodipodi:cy="275.5"
         sodipodi:cx="290.5"
         id="path3820-2-2"
         style="fill:#ffffff;fill-opacity:1;stroke:none;display:inline"
         sodipodi:type="arc" />
    </mask>
    <clipPath
       id="clipPath3934"
       clipPathUnits="userSpaceOnUse">
      <path
         id="path3936"
         d="m 0,0 0,1024 1024,0 L 1024,0 0,0 z m 278.4375,333.84375 119.78125,0 c 9.83697,42.31453 19.85954,84.58596 29.9375,126.84375 9.86978,-42.28798 20.05132,-84.50237 29.6875,-126.84375 l 108.90625,0 c 9.63586,42.34141 19.8178,84.55578 29.6875,126.84375 10.07827,-42.25772 20.10031,-84.52927 29.9375,-126.84375 l 119.1875,0 c -26.26221,110.73099 -52.49625,221.46929 -78.28125,332.3125 l -122.8125,0 c -10.59439,-45.55681 -21.46638,-91.04874 -32.375,-136.53125 -10.66279,45.51136 -21.5615,90.96897 -32,136.53125 l -122.8125,0 c -25.71418,-110.03502 -52.0286,-219.92873 -78.25,-329.84375 l -0.59375,-2.46875 z"
         style="fill:#ff3232;fill-opacity:1;stroke:none"
         inkscape:connector-curvature="0" />
    </clipPath>
    <clipPath
       id="clipPath3929"
       clipPathUnits="userSpaceOnUse">
      <path
         inkscape:connector-curvature="0"
         style="fill:#ff3232;fill-opacity:1;stroke:none"
         d="m 0,0 0,1024 1024,0 L 1024,0 0,0 z m 278.4375,333.84375 119.78125,0 c 9.83697,42.31453 19.85954,84.58596 29.9375,126.84375 9.86978,-42.28798 20.05132,-84.50237 29.6875,-126.84375 l 108.90625,0 c 9.63586,42.34141 19.8178,84.55578 29.6875,126.84375 10.07827,-42.25772 20.10031,-84.52927 29.9375,-126.84375 l 119.1875,0 c -26.26221,110.73099 -52.49625,221.46929 -78.28125,332.3125 l -122.8125,0 c -10.59439,-45.55681 -21.46638,-91.04874 -32.375,-136.53125 -10.66279,45.51136 -21.5615,90.96897 -32,136.53125 l -122.8125,0 c -25.71418,-110.03502 -52.0286,-219.92873 -78.25,-329.84375 l -0.59375,-2.46875 z"
         id="path3931" />
    </clipPath>
    <mask
       maskUnits="userSpaceOnUse"
       id="mask3818">
      <path
         inkscape:export-ydpi="90"
         inkscape:export-xdpi="90"
         transform="matrix(1.2020779,0,0,1.2020779,-93.20363,-75.172466)"
         d="m 483,275.5 a 192.5,192.5 0 1 1 -385,0 192.5,192.5 0 1 1 385,0 z"
         sodipodi:ry="192.5"
         sodipodi:rx="192.5"
         sodipodi:cy="275.5"
         sodipodi:cx="290.5"
         id="path3820"
         style="fill:#ffffff;fill-opacity:1;stroke:none;display:inline"
         sodipodi:type="arc" />
    </mask>
    <linearGradient
       inkscape:collect="always"
       xlink:href="#linearGradient4573"
       id="linearGradient4575"
       x1="408.84314"
       y1="89.26915"
       x2="420.61133"
       y2="138.41306"
       gradientUnits="userSpaceOnUse"
       gradientTransform="matrix(0.99657796,0,0,1,1.2520606,0)" />
    <linearGradient
       inkscape:collect="always"
       xlink:href="#linearGradient8384"
       id="linearGradient6771"
       gradientUnits="userSpaceOnUse"
       gradientTransform="matrix(0.99657796,0,0,1,1.3692481,-0.00390625)"
       x1="408.84314"
       y1="89.26915"
       x2="420.61133"
       y2="138.41306" />
  </defs>
  <metadata
     id="metadata4713">
    <rdf:RDF>
      <cc:Work
         rdf:about="">
        <dc:format>image/svg+xml</dc:format>
        <dc:type
           rdf:resource="http://purl.org/dc/dcmitype/StillImage" />
        <dc:title></dc:title>
      </cc:Work>
    </rdf:RDF>
  </metadata>
  <g
     id="layer1"
     inkscape:groupmode="layer"
     inkscape:label="Capa 1">
    <path
       style="opacity:1;fill:#f2f0f6;fill-opacity:1;fill-rule:evenodd;stroke:#5b2da2;stroke-width:2;stroke-linejoin:round;stroke-miterlimit:4;stroke-dasharray:none;stroke-dashoffset:0;stroke-opacity:1;paint-order:normal"
       d="m 97.583979,29.700195 c -11.07875,0 -19.99804,9.65194 -19.99804,21.64062 V 460.66113 c 0,11.9887 8.91929,21.63867 19.99804,21.63867 H 414.41602 c 11.07874,0 19.99804,-9.64997 19.99804,-21.63867 V 113.7959 c -0.33411,-0.32981 -0.46874,-0.43168 -0.81445,-0.77345 -9.64188,-9.53205 -23.80681,-23.701345 -37.64453,-37.822255 -6.91884,-7.06045 -13.75546,-14.10994 -19.9043,-20.56055 -6.14876,-6.45062 -11.60929,-12.30327 -15.77539,-16.97265 -3.0827,-3.45513 -4.82334,-5.68286 -6.625,-7.9668 z"
       id="path4506"
       inkscape:connector-curvature="0"
       sodipodi:nodetypes="ssssssccccccs" />
    <g
       id="g4584"
       transform="matrix(0.3829248,0,0,0.3829248,74.406719,31.973725)"
       style="fill:#75abd3;fill-opacity:1;stroke:#9dc4df;stroke-opacity:1" />
    <path
       style="opacity:1;fill:#5b2da2;fill-opacity:1;fill-rule:evenodd;stroke:#e4e0ec;stroke-width:1.179389;stroke-linecap:square;stroke-linejoin:miter;stroke-miterlimit:4;stroke-dasharray:none;stroke-dashoffset:0;stroke-opacity:1;paint-order:markers fill stroke"
       d="M 380.38477 388.97852 C 379.757 391.69883 379.44336 394.31512 379.44336 396.82617 C 379.44336 399.40698 379.757 402.05703 380.38477 404.77734 L 401.41602 404.77734 L 388.54688 427.0625 L 390.84766 430.51562 C 392.45194 430.09712 393.84743 429.85295 395.0332 429.7832 C 396.28873 429.6437 397.47382 429.57422 398.58984 429.57422 C 400.05463 429.57422 401.45011 429.78266 402.77539 430.20117 C 404.10067 430.54993 405.28771 431.10773 406.33398 431.875 C 407.38026 432.57252 408.21599 433.47968 408.84375 434.5957 C 409.47151 435.71173 409.78516 437.00201 409.78516 438.4668 C 409.78516 441.88462 408.56435 444.43143 406.12305 446.10547 C 403.75149 447.77951 400.50792 448.61523 396.39258 448.61523 C 393.67227 448.61523 391.0917 448.33731 388.65039 447.7793 C 386.20909 447.15153 383.66423 446.38333 381.01367 445.47656 C 379.8279 447.56911 378.78177 449.94124 377.875 452.5918 C 377.03798 455.24236 376.54966 457.85865 376.41016 460.43945 C 378.29345 461.20672 380.03634 461.79829 381.64062 462.2168 C 383.31466 462.70506 384.95431 463.09013 386.55859 463.36914 C 388.23263 463.7179 389.90604 463.92634 391.58008 463.99609 C 393.25412 464.1356 395.06844 464.20508 397.02148 464.20508 C 401.27633 464.20508 405.25239 463.61156 408.94922 462.42578 C 412.7158 461.30976 415.95938 459.60258 418.67969 457.30078 C 421.46975 455.06873 423.63148 452.27776 425.16602 448.92969 C 426.7703 445.58161 427.57227 441.74452 427.57227 437.41992 C 427.57227 431.9793 426.17678 427.55064 423.38672 424.13281 C 420.59666 420.64523 416.69203 418.44779 411.66992 417.54102 L 426.52539 391.9082 L 424.64258 388.97852 L 380.38477 388.97852 z M 108.2832 401.95117 C 104.93513 401.95117 101.86623 402.37001 99.076172 403.20703 C 96.355861 404.04405 93.983733 405.26485 91.960938 406.86914 C 89.938142 408.40367 88.367978 410.28748 87.251953 412.51953 C 86.135928 414.75158 85.578125 417.22695 85.578125 419.94727 C 85.578125 424.27186 86.79893 427.69012 89.240234 430.20117 C 91.681539 432.71223 94.750433 434.49084 98.447266 435.53711 L 105.5625 437.52539 C 106.74828 437.87415 107.7944 438.29299 108.70117 438.78125 C 109.60794 439.19976 110.06055 439.86276 110.06055 440.76953 C 110.06055 441.46705 109.81639 442.02485 109.32812 442.44336 C 108.90962 442.86187 108.35181 443.20928 107.6543 443.48828 C 106.95678 443.69754 106.15482 443.83845 105.24805 443.9082 C 104.34128 443.97795 103.46983 444.01172 102.63281 444.01172 C 100.19151 444.01172 97.749898 443.76756 95.308594 443.2793 C 92.867289 442.72128 90.530878 441.91932 88.298828 440.87305 C 86.066778 445.75566 84.776492 450.56939 84.427734 455.3125 C 87.636306 456.49828 90.669483 457.334 93.529297 457.82227 C 96.389111 458.31053 99.493722 458.55469 102.8418 458.55469 C 106.88739 458.55469 110.4446 458.06637 113.51367 457.08984 C 116.65249 456.11332 119.26878 454.78927 121.36133 453.11523 C 123.52363 451.4412 125.12755 449.45219 126.17383 447.15039 C 127.28985 444.84859 127.84766 442.37322 127.84766 439.72266 C 127.84766 437.14185 127.4983 434.9444 126.80078 433.13086 C 126.10327 431.31732 125.12662 429.78287 123.87109 428.52734 C 122.68532 427.27182 121.2223 426.26141 119.47852 425.49414 C 117.80448 424.65712 115.92067 423.9584 113.82812 423.40039 L 107.02734 421.62109 C 106.05082 421.34209 105.17938 420.99468 104.41211 420.57617 C 103.64484 420.15766 103.25977 419.56414 103.25977 418.79688 C 103.25977 416.98333 104.89941 416.07617 108.17773 416.07617 C 110.40978 416.07617 112.85139 416.38981 115.50195 417.01758 C 118.15251 417.64534 120.41944 418.34406 122.30273 419.11133 C 123.27926 417.15828 124.1507 414.92512 124.91797 412.41406 C 125.68524 409.83325 126.13979 407.42736 126.2793 405.19531 C 123.21023 404.14904 120.10562 403.34707 116.9668 402.78906 C 113.82798 402.23105 110.93376 401.95117 108.2832 401.95117 z M 161.29688 401.95117 C 156.90253 401.95117 153.03167 402.64989 149.68359 404.04492 C 146.33552 405.3702 143.51079 407.28777 141.20898 409.79883 C 138.97693 412.30988 137.26781 415.34501 136.08203 418.90234 C 134.96601 422.38992 134.4082 426.26078 134.4082 430.51562 C 134.4082 434.70072 134.96601 438.53586 136.08203 442.02344 C 137.26781 445.44126 138.97693 448.40691 141.20898 450.91797 C 143.51079 453.35927 146.33552 455.24308 149.68359 456.56836 C 153.03167 457.89364 156.90253 458.55469 161.29688 458.55469 C 165.76097 458.55469 169.66755 457.89364 173.01562 456.56836 C 176.3637 455.24308 179.15467 453.35927 181.38672 450.91797 C 183.68852 448.40691 185.39765 445.44126 186.51367 442.02344 C 187.69945 438.53586 188.29102 434.70072 188.29102 430.51562 C 188.29102 426.26078 187.69945 422.38992 186.51367 418.90234 C 185.39765 415.34501 183.68852 412.30988 181.38672 409.79883 C 179.15467 407.28777 176.3637 405.3702 173.01562 404.04492 C 169.66755 402.64989 165.76097 401.95117 161.29688 401.95117 z M 349.19531 401.95117 C 344.73121 401.95117 340.82464 402.71937 337.47656 404.25391 C 334.12849 405.71869 331.33947 407.74146 329.10742 410.32227 C 326.87537 412.90307 325.20001 415.9382 324.08398 419.42578 C 322.96796 422.91336 322.41016 426.6433 322.41016 430.61914 C 322.41016 434.66473 322.9342 438.39663 323.98047 441.81445 C 325.09649 445.23228 326.7699 448.19793 329.00195 450.70898 C 331.30375 453.15029 334.23369 455.06786 337.79102 456.46289 C 341.4181 457.85792 345.74156 458.55469 350.76367 458.55469 C 357.25057 458.55469 363.59875 457.40532 369.80664 455.10352 C 369.73689 452.3832 369.31805 449.76692 368.55078 447.25586 C 367.85327 444.7448 367.01754 442.58307 366.04102 440.76953 C 363.59971 441.74605 361.12238 442.47854 358.61133 442.9668 C 356.10027 443.45506 353.83334 443.69922 351.81055 443.69922 C 348.67173 443.69922 346.12687 443.1057 344.17383 441.91992 C 342.29054 440.73415 340.96453 438.71138 340.19727 435.85156 L 372.00391 435.85156 C 372.14341 434.87504 372.28237 433.65424 372.42188 432.18945 C 372.63113 430.65492 372.73633 428.94579 372.73633 427.0625 C 372.73633 423.43542 372.17852 420.08665 371.0625 417.01758 C 370.01623 413.87876 368.48178 411.2287 366.45898 409.06641 C 364.43619 406.83436 361.95886 405.09147 359.0293 403.83594 C 356.16948 402.58041 352.89215 401.95117 349.19531 401.95117 z M 206.30469 402.26562 C 204.90966 402.26562 203.44469 402.33511 201.91016 402.47461 C 200.44537 402.61411 198.94664 402.85827 197.41211 403.20703 L 197.30664 457.30078 L 234.76367 457.30078 C 235.11243 455.90575 235.32283 454.61546 235.39258 453.42969 C 235.53208 452.17416 235.60156 450.98712 235.60156 449.87109 C 235.60156 448.75507 235.53208 447.60375 235.39258 446.41797 C 235.32283 445.23219 235.11243 443.94191 234.76367 442.54688 L 214.99023 442.54688 L 215.09375 403.20703 C 213.62897 402.85827 212.13024 402.61411 210.5957 402.47461 C 209.06117 402.33511 207.62997 402.26562 206.30469 402.26562 z M 251.97461 402.26562 C 250.57958 402.26562 249.11461 402.33511 247.58008 402.47461 C 246.1153 402.61411 244.61657 402.85827 243.08203 403.20703 L 243.08203 457.19531 C 244.82582 457.47432 246.42975 457.68276 247.89453 457.82227 C 249.35931 457.96177 250.68532 458.0332 251.87109 458.0332 C 253.05687 458.0332 254.38092 457.96177 255.8457 457.82227 C 257.31049 457.68276 258.95013 457.47432 260.76367 457.19531 L 260.76367 403.20703 C 259.29889 402.85827 257.80016 402.61411 256.26562 402.47461 C 254.73109 402.33511 253.29989 402.26562 251.97461 402.26562 z M 269.05469 403.20703 C 268.70593 404.60206 268.46177 405.89235 268.32227 407.07812 C 268.25251 408.2639 268.21875 409.41523 268.21875 410.53125 C 268.21875 411.64727 268.25251 412.83236 268.32227 414.08789 C 268.46177 415.27367 268.70593 416.56591 269.05469 417.96094 L 284.54102 417.96094 L 284.54102 457.19531 C 286.2848 457.47432 287.88873 457.68276 289.35352 457.82227 C 290.8183 457.96177 292.14235 458.0332 293.32812 458.0332 C 294.5139 458.0332 295.8399 457.96177 297.30469 457.82227 C 298.76947 457.68276 300.40912 457.47432 302.22266 457.19531 L 302.22266 417.96094 L 317.70703 417.96094 C 318.05579 416.56591 318.26619 415.27367 318.33594 414.08789 C 318.47544 412.83236 318.54492 411.64727 318.54492 410.53125 C 318.54492 409.41523 318.47544 408.2639 318.33594 407.07812 C 318.26619 405.89235 318.05579 404.60206 317.70703 403.20703 L 269.05469 403.20703 z M 348.56836 415.24023 C 351.14917 415.24023 353.1005 416.07596 354.42578 417.75 C 355.82081 419.35429 356.58901 421.37705 356.72852 423.81836 L 339.98828 423.81836 C 340.26729 420.88879 341.20821 418.72706 342.8125 417.33203 C 344.41679 415.937 346.33631 415.24023 348.56836 415.24023 z M 161.29688 416.70508 C 164.36594 416.70508 166.63287 417.89017 168.09766 420.26172 C 169.63219 422.63327 170.40039 426.05153 170.40039 430.51562 C 170.40039 434.90997 169.63219 438.29251 168.09766 440.66406 C 166.63287 443.03562 164.36594 444.2207 161.29688 444.2207 C 158.22781 444.2207 155.96088 443.03562 154.49609 440.66406 C 153.03131 438.29251 152.29883 434.90997 152.29883 430.51562 C 152.29883 426.05153 153.03131 422.63327 154.49609 420.26172 C 155.96088 417.89017 158.22781 416.70508 161.29688 416.70508 z M 160.25195 459.39258 C 159.55444 461.27587 158.99663 463.29864 158.57812 465.46094 C 158.22937 467.69299 158.01897 469.82095 157.94922 471.84375 L 186.51367 475.92383 C 187.21119 474.04054 187.73327 471.98205 188.08203 469.75 C 188.50054 467.5877 188.7447 465.49545 188.81445 463.47266 L 160.25195 459.39258 z "
       id="rect4610-3" />
    <path
       style="opacity:1;fill:url(#linearGradient6771);fill-opacity:1;fill-rule:evenodd;stroke:none;stroke-width:8.77774811;stroke-linecap:square;stroke-linejoin:miter;stroke-miterlimit:4;stroke-dasharray:none;stroke-dashoffset:0;stroke-opacity:1;paint-order:markers fill stroke"
       d="m 433.40658,182.37194 v -69.47028 c 0,-0.0394 -0.0309,-0.0705 -0.0703,-0.0705 h -67.33747 c 4.09851,4.50878 8.40749,9.2132 13.77948,14.86279 7.205,7.57734 15.21697,15.8602 23.32513,24.15489 11.13885,11.3951 20.83136,21.05949 30.30308,30.52302 z"
       id="path4566"
       inkscape:connector-curvature="0" />
    <path
       style="opacity:1;fill:#5b2da2;fill-opacity:1;fill-rule:evenodd;stroke:none;stroke-width:1.05391276;stroke-linejoin:round;stroke-miterlimit:4;stroke-dasharray:none;stroke-dashoffset:0;stroke-opacity:1;paint-order:normal"
       d="m 435.00048,114.60612 c -1.83541,-2.30475 -3.6077,-4.55306 -6.74972,-8.04125 -4.24635,-4.71409 -9.8132,-10.623129 -16.08223,-17.137261 C 405.8996,82.913483 398.92921,75.794273 391.8744,68.663457 377.76477,54.401804 363.32068,40.090503 353.48814,30.462087 c -0.35278,-0.345219 -0.4898,-0.448268 -0.83055,-0.781422 l -0.24394,62.802323 c -0.0467,12.055462 9.04538,21.800782 20.38588,21.850482 z"
       id="rect4485"
       inkscape:connector-curvature="0" />
    <g
       style="fill:#5b2da2;fill-opacity:1;stroke:#dce1e9;stroke-width:2.4812274;stroke-miterlimit:4;stroke-dasharray:none;stroke-opacity:1"
       id="g4559"
       transform="matrix(0.40302636,0,0,0.40302636,152.82284,138.82203)">
      <path
         id="path4548"
         d="m 256.224,353.312 c -0.592,0 -1.184,0 -1.776,0 -140.512,0 -254.16,-34.128 -254.192,-60.336 L 0,190.048 c 0,-0.16 0.064,-0.304 0.064,-0.432 23.136,10.976 50.32,16.032 66.576,19.056 50.512,9.392 117.232,14.576 187.808,14.576 h 1.776 c 71.024,-0.08 138.128,-5.392 189.008,-14.944 16.272,-3.056 43.36,-8.144 66.512,-19.056 0,0.048 0,0.144 0,0.144 l 0.272,102.928 c 0.032,26.32 -114.448,60.8 -255.792,60.992 z m 0,-161.056 c -0.592,0 -1.184,0 -1.776,0 -140.512,0 -254.16,-31.136 -254.192,-57.344 L 0,47.968 C -0.048,21.664 114.496,0.176 255.84,0 c 0.624,0 1.216,0 1.84,0 140.464,0 254.032,21.12 254.064,47.328 l 0.272,86.944 c 0.032,26.304 -114.448,57.792 -255.792,57.984 z m -1.792,192.064 h 1.776 c 71.024,-0.096 138.144,-8.384 189.008,-17.936 16.272,-3.056 43.36,-8.144 66.528,-19.072 L 512,464.048 c 0.032,26.32 -114.448,47.792 -255.792,47.968 -0.608,0 -1.184,0 -1.808,0 -140.48,0 -254.128,-21.12 -254.16,-47.312 L 0,347.664 c 23.136,10.992 50.336,16.048 66.624,19.072 50.512,9.408 117.216,17.584 187.808,17.584 z"
         inkscape:connector-curvature="0"
         style="fill:#5b2da2;fill-opacity:1;stroke:#dce1e9;stroke-width:2.4812274;stroke-miterlimit:4;stroke-dasharray:none;stroke-opacity:1" />
    </g>
  </g>
</svg>
