<?xml version="1.0" encoding="UTF-8" standalone="no"?>
<!-- Created with Inkscape (http://www.inkscape.org/) -->

<svg
   xmlns:osb="http://www.openswatchbook.org/uri/2009/osb"
   xmlns:dc="http://purl.org/dc/elements/1.1/"
   xmlns:cc="http://creativecommons.org/ns#"
   xmlns:rdf="http://www.w3.org/1999/02/22-rdf-syntax-ns#"
   xmlns:svg="http://www.w3.org/2000/svg"
   xmlns="http://www.w3.org/2000/svg"
   xmlns:xlink="http://www.w3.org/1999/xlink"
   xmlns:sodipodi="http://sodipodi.sourceforge.net/DTD/sodipodi-0.dtd"
   xmlns:inkscape="http://www.inkscape.org/namespaces/inkscape"
   width="512px"
   height="512px"
   viewBox="0 0 512 512"
   version="1.1"
   id="SVGRoot"
   inkscape:version="0.92.1 r15371"
   sodipodi:docname="std.svg">
  <sodipodi:namedview
     id="base"
     pagecolor="#ffffff"
     bordercolor="#666666"
     borderopacity="1.0"
     inkscape:pageopacity="0.0"
     inkscape:pageshadow="2"
     inkscape:zoom="0.5"
     inkscape:cx="210.66887"
     inkscape:cy="252.63492"
     inkscape:document-units="px"
     inkscape:current-layer="layer1"
     showgrid="false"
     inkscape:window-width="718"
     inkscape:window-height="475"
     inkscape:window-x="381"
     inkscape:window-y="148"
     inkscape:window-maximized="0" />
  <defs
     id="defs4710">
    <linearGradient
       id="linearGradient8384"
       inkscape:collect="always">
      <stop
         id="stop8380"
         offset="0"
         style="stop-color:#181818;stop-opacity:0.27956989" />
      <stop
         id="stop8382"
         offset="1"
         style="stop-color:#404040;stop-opacity:0" />
    </linearGradient>
    <linearGradient
       inkscape:collect="always"
       id="linearGradient4573">
      <stop
         style="stop-color:#181818;stop-opacity:0.30645162"
         offset="0"
         id="stop4569" />
      <stop
         style="stop-color:#404040;stop-opacity:0"
         offset="1"
         id="stop4571" />
    </linearGradient>
    <marker
       inkscape:stockid="DotM"
       orient="auto"
       refY="0.0"
       refX="0.0"
       id="DotM"
       style="overflow:visible"
       inkscape:isstock="true">
      <path
         id="path4618"
         d="M -2.5,-1.0 C -2.5,1.7600000 -4.7400000,4.0 -7.5,4.0 C -10.260000,4.0 -12.5,1.7600000 -12.5,-1.0 C -12.5,-3.7600000 -10.260000,-6.0 -7.5,-6.0 C -4.7400000,-6.0 -2.5,-3.7600000 -2.5,-1.0 z "
         style="fill-rule:evenodd;stroke:#000000;stroke-width:1.0pt"
         transform="scale(0.4) translate(7.4, 1)" />
    </marker>
    <linearGradient
       osb:paint="solid"
       id="linearGradient5207">
      <stop
         id="stop5209"
         offset="0"
         style="stop-color:#000015;stop-opacity:1;" />
    </linearGradient>
    <clipPath
       id="clipPath3006-9-8"
       clipPathUnits="userSpaceOnUse">
      <path
         inkscape:export-ydpi="90"
         inkscape:export-xdpi="90"
         transform="matrix(1.2020779,0,0,1.2020779,-93.20363,-75.172465)"
         d="m 483,275.5 a 192.5,192.5 0 1 1 -385,0 192.5,192.5 0 1 1 385,0 z"
         sodipodi:ry="192.5"
         sodipodi:rx="192.5"
         sodipodi:cy="275.5"
         sodipodi:cx="290.5"
         id="path3008-1-1"
         style="fill:#ffffff;fill-opacity:1;stroke:none;display:inline"
         sodipodi:type="arc" />
    </clipPath>
    <mask
       id="mask3818-4"
       maskUnits="userSpaceOnUse">
      <path
         sodipodi:type="arc"
         style="fill:#ffffff;fill-opacity:1;stroke:none;display:inline"
         id="path3820-9"
         sodipodi:cx="290.5"
         sodipodi:cy="275.5"
         sodipodi:rx="192.5"
         sodipodi:ry="192.5"
         d="m 483,275.5 a 192.5,192.5 0 1 1 -385,0 192.5,192.5 0 1 1 385,0 z"
         transform="matrix(1.2020779,0,0,1.2020779,-93.20363,-75.172466)"
         inkscape:export-xdpi="90"
         inkscape:export-ydpi="90" />
    </mask>
    <clipPath
       id="clipPath3006"
       clipPathUnits="userSpaceOnUse">
      <path
         inkscape:export-ydpi="90"
         inkscape:export-xdpi="90"
         transform="matrix(1.2020779,0,0,1.2020779,-93.20363,-75.172465)"
         d="m 483,275.5 a 192.5,192.5 0 1 1 -385,0 192.5,192.5 0 1 1 385,0 z"
         sodipodi:ry="192.5"
         sodipodi:rx="192.5"
         sodipodi:cy="275.5"
         sodipodi:cx="290.5"
         id="path3008"
         style="fill:#ffffff;fill-opacity:1;stroke:none;display:inline"
         sodipodi:type="arc" />
    </clipPath>
    <clipPath
       id="clipPath3006-9"
       clipPathUnits="userSpaceOnUse">
      <path
         inkscape:export-ydpi="90"
         inkscape:export-xdpi="90"
         transform="matrix(1.2020779,0,0,1.2020779,-93.20363,-75.172465)"
         d="m 483,275.5 a 192.5,192.5 0 1 1 -385,0 192.5,192.5 0 1 1 385,0 z"
         sodipodi:ry="192.5"
         sodipodi:rx="192.5"
         sodipodi:cy="275.5"
         sodipodi:cx="290.5"
         id="path3008-1"
         style="fill:#ffffff;fill-opacity:1;stroke:none;display:inline"
         sodipodi:type="arc" />
    </clipPath>
    <mask
       maskUnits="userSpaceOnUse"
       id="mask3818-0">
      <path
         inkscape:export-ydpi="90"
         inkscape:export-xdpi="90"
         transform="matrix(1.2020779,0,0,1.2020779,-93.20363,-75.172466)"
         d="m 483,275.5 a 192.5,192.5 0 1 1 -385,0 192.5,192.5 0 1 1 385,0 z"
         sodipodi:ry="192.5"
         sodipodi:rx="192.5"
         sodipodi:cy="275.5"
         sodipodi:cx="290.5"
         id="path3820-8"
         style="fill:#ffffff;fill-opacity:1;stroke:none;display:inline"
         sodipodi:type="arc" />
    </mask>
    <mask
       maskUnits="userSpaceOnUse"
       id="mask3818-2">
      <path
         inkscape:export-ydpi="90"
         inkscape:export-xdpi="90"
         transform="matrix(1.2020779,0,0,1.2020779,-93.20363,-75.172466)"
         d="m 483,275.5 a 192.5,192.5 0 1 1 -385,0 192.5,192.5 0 1 1 385,0 z"
         sodipodi:ry="192.5"
         sodipodi:rx="192.5"
         sodipodi:cy="275.5"
         sodipodi:cx="290.5"
         id="path3820-2-2"
         style="fill:#ffffff;fill-opacity:1;stroke:none;display:inline"
         sodipodi:type="arc" />
    </mask>
    <clipPath
       id="clipPath3934"
       clipPathUnits="userSpaceOnUse">
      <path
         id="path3936"
         d="m 0,0 0,1024 1024,0 L 1024,0 0,0 z m 278.4375,333.84375 119.78125,0 c 9.83697,42.31453 19.85954,84.58596 29.9375,126.84375 9.86978,-42.28798 20.05132,-84.50237 29.6875,-126.84375 l 108.90625,0 c 9.63586,42.34141 19.8178,84.55578 29.6875,126.84375 10.07827,-42.25772 20.10031,-84.52927 29.9375,-126.84375 l 119.1875,0 c -26.26221,110.73099 -52.49625,221.46929 -78.28125,332.3125 l -122.8125,0 c -10.59439,-45.55681 -21.46638,-91.04874 -32.375,-136.53125 -10.66279,45.51136 -21.5615,90.96897 -32,136.53125 l -122.8125,0 c -25.71418,-110.03502 -52.0286,-219.92873 -78.25,-329.84375 l -0.59375,-2.46875 z"
         style="fill:#ff3232;fill-opacity:1;stroke:none"
         inkscape:connector-curvature="0" />
    </clipPath>
    <clipPath
       id="clipPath3929"
       clipPathUnits="userSpaceOnUse">
      <path
         inkscape:connector-curvature="0"
         style="fill:#ff3232;fill-opacity:1;stroke:none"
         d="m 0,0 0,1024 1024,0 L 1024,0 0,0 z m 278.4375,333.84375 119.78125,0 c 9.83697,42.31453 19.85954,84.58596 29.9375,126.84375 9.86978,-42.28798 20.05132,-84.50237 29.6875,-126.84375 l 108.90625,0 c 9.63586,42.34141 19.8178,84.55578 29.6875,126.84375 10.07827,-42.25772 20.10031,-84.52927 29.9375,-126.84375 l 119.1875,0 c -26.26221,110.73099 -52.49625,221.46929 -78.28125,332.3125 l -122.8125,0 c -10.59439,-45.55681 -21.46638,-91.04874 -32.375,-136.53125 -10.66279,45.51136 -21.5615,90.96897 -32,136.53125 l -122.8125,0 c -25.71418,-110.03502 -52.0286,-219.92873 -78.25,-329.84375 l -0.59375,-2.46875 z"
         id="path3931" />
    </clipPath>
    <mask
       maskUnits="userSpaceOnUse"
       id="mask3818">
      <path
         inkscape:export-ydpi="90"
         inkscape:export-xdpi="90"
         transform="matrix(1.2020779,0,0,1.2020779,-93.20363,-75.172466)"
         d="m 483,275.5 a 192.5,192.5 0 1 1 -385,0 192.5,192.5 0 1 1 385,0 z"
         sodipodi:ry="192.5"
         sodipodi:rx="192.5"
         sodipodi:cy="275.5"
         sodipodi:cx="290.5"
         id="path3820"
         style="fill:#ffffff;fill-opacity:1;stroke:none;display:inline"
         sodipodi:type="arc" />
    </mask>
    <linearGradient
       inkscape:collect="always"
       xlink:href="#linearGradient4573"
       id="linearGradient4575"
       x1="408.84314"
       y1="89.26915"
       x2="420.61133"
       y2="138.41306"
       gradientUnits="userSpaceOnUse"
       gradientTransform="matrix(0.99657796,0,0,1,1.2520606,0)" />
    <linearGradient
       inkscape:collect="always"
       xlink:href="#linearGradient8384"
       id="linearGradient6771"
       gradientUnits="userSpaceOnUse"
       gradientTransform="matrix(0.99657796,0,0,1,1.2520606,0)"
       x1="408.84314"
       y1="89.26915"
       x2="420.61133"
       y2="138.41306" />
  </defs>
  <metadata
     id="metadata4713">
    <rdf:RDF>
      <cc:Work
         rdf:about="">
        <dc:format>image/svg+xml</dc:format>
        <dc:type
           rdf:resource="http://purl.org/dc/dcmitype/StillImage" />
        <dc:title></dc:title>
      </cc:Work>
    </rdf:RDF>
  </metadata>
  <g
     id="layer1"
     inkscape:groupmode="layer"
     inkscape:label="Capa 1">
    <path
       style="opacity:1;fill:#fff9f6;fill-opacity:1;fill-rule:evenodd;stroke:#ff772f;stroke-width:2;stroke-linejoin:round;stroke-miterlimit:4;stroke-dasharray:none;stroke-dashoffset:0;stroke-opacity:1;paint-order:normal"
       d="m 97.583979,29.700195 c -11.07875,0 -19.99804,9.65194 -19.99804,21.64062 V 460.66113 c 0,11.9887 8.91929,21.63867 19.99804,21.63867 H 414.41602 c 11.07874,0 19.99804,-9.64997 19.99804,-21.63867 V 113.7959 c -0.33411,-0.32981 -0.46874,-0.43168 -0.81445,-0.77345 -9.64188,-9.53205 -23.80681,-23.701345 -37.64453,-37.822255 -6.91884,-7.06045 -13.75546,-14.10994 -19.9043,-20.56055 -6.14876,-6.45062 -11.60929,-12.30327 -15.77539,-16.97265 -3.0827,-3.45513 -4.82334,-5.68286 -6.625,-7.9668 z"
       id="path4506"
       inkscape:connector-curvature="0"
       sodipodi:nodetypes="ssssssccccccs" />
    <g
       id="g4584"
       transform="matrix(0.3829248,0,0,0.3829248,74.406719,31.973725)"
       style="fill:#75abd3;fill-opacity:1;stroke:#9dc4df;stroke-opacity:1" />
    <path
       style="opacity:1;fill:#ff772f;fill-opacity:1;fill-rule:evenodd;stroke:#f5e3d9;stroke-width:0.85055965;stroke-linecap:square;stroke-linejoin:miter;stroke-miterlimit:4;stroke-dasharray:none;stroke-dashoffset:0;stroke-opacity:1;paint-order:markers fill stroke"
       d="M 131.99609 380.81641 C 128.02025 380.81641 124.42732 381.34045 121.21875 382.38672 C 118.01018 383.36324 115.25493 384.86197 112.95312 386.88477 C 110.72108 388.83781 108.97818 391.24565 107.72266 394.10547 C 106.46713 396.96528 105.83789 400.24262 105.83789 403.93945 C 105.83789 406.93877 106.22297 409.55506 106.99023 411.78711 C 107.82725 414.01916 108.97662 416.00621 110.44141 417.75 C 111.90619 419.42404 113.65103 420.889 115.67383 422.14453 C 117.76637 423.40006 120.06707 424.4819 122.57812 425.38867 L 128.4375 427.58594 C 129.34427 427.9347 130.21572 428.31782 131.05273 428.73633 C 131.9595 429.08509 132.76342 429.53769 133.46094 430.0957 C 134.15845 430.65372 134.71626 431.35243 135.13477 432.18945 C 135.55327 432.95672 135.76172 433.89765 135.76172 435.01367 C 135.76172 437.66423 134.75131 439.54804 132.72852 440.66406 C 130.77547 441.71034 128.02022 442.23242 124.46289 442.23242 C 119.71978 442.23242 114.1398 440.83889 107.72266 438.04883 C 106.74613 440.90864 105.90845 443.73338 105.21094 446.52344 C 104.51342 449.24375 104.0251 451.82432 103.74609 454.26562 C 107.58243 455.73041 111.13965 456.81225 114.41797 457.50977 C 117.76604 458.20728 121.60314 458.55469 125.92773 458.55469 C 130.67084 458.55469 134.85534 457.99688 138.48242 456.88086 C 142.17925 455.69508 145.28387 454.05544 147.79492 451.96289 C 150.30598 449.80059 152.18783 447.25574 153.44336 444.32617 C 154.76864 441.32685 155.43164 437.97808 155.43164 434.28125 C 155.43164 430.86342 154.97904 427.96921 154.07227 425.59766 C 153.1655 423.15635 151.87521 421.09787 150.20117 419.42383 C 148.52713 417.68004 146.50437 416.21507 144.13281 415.0293 C 141.83101 413.77377 139.21472 412.55492 136.28516 411.36914 L 131.26367 409.38086 C 129.45013 408.68334 127.87997 407.84566 126.55469 406.86914 C 125.22941 405.89262 124.56641 404.39389 124.56641 402.37109 C 124.56641 401.18532 124.81057 400.20867 125.29883 399.44141 C 125.78709 398.60439 126.41437 397.97515 127.18164 397.55664 C 128.01866 397.06838 128.92582 396.72097 129.90234 396.51172 C 130.94862 396.30246 132.03046 396.19727 133.14648 396.19727 C 136.77357 396.19727 139.80674 396.61611 142.24805 397.45312 C 144.68935 398.29014 146.81732 399.09211 148.63086 399.85938 C 149.74688 397.48782 150.65405 394.97673 151.35156 392.32617 C 152.11883 389.60586 152.64092 387.13049 152.91992 384.89844 C 149.15334 383.57316 145.59612 382.5608 142.24805 381.86328 C 138.96972 381.16577 135.55342 380.81641 131.99609 380.81641 z M 242.6543 380.81641 C 240.771 380.81641 238.81967 380.88589 236.79688 381.02539 C 234.84383 381.09514 232.92431 381.20034 231.04102 381.33984 C 229.15772 381.47935 227.41483 381.65403 225.81055 381.86328 C 224.20626 382.00278 222.88026 382.14175 221.83398 382.28125 L 221.83398 456.98633 C 224.9728 457.40484 228.1469 457.75224 231.35547 458.03125 C 234.63379 458.38001 238.01633 458.55469 241.50391 458.55469 C 255.17521 458.55469 265.49945 455.48579 272.47461 449.34766 C 279.44977 443.13977 282.9375 433.40905 282.9375 420.15625 C 282.9375 407.11271 279.51925 397.31251 272.68359 390.75586 C 265.84794 384.12946 255.83734 380.81641 242.6543 380.81641 z M 159.62305 382.07227 C 158.99528 385.14133 158.68164 387.8271 158.68164 390.12891 C 158.68164 392.63996 158.99528 395.39521 159.62305 398.39453 L 177.0957 398.39453 L 177.0957 456.98633 C 180.72278 457.61409 183.8274 457.92773 186.4082 457.92773 C 188.84951 457.92773 191.9184 457.61409 195.61523 456.98633 L 195.61523 398.39453 L 213.08789 398.39453 C 213.6459 395.18596 213.92578 392.43071 213.92578 390.12891 C 213.92578 388.94313 213.8563 387.68661 213.7168 386.36133 C 213.57729 385.03605 213.3669 383.6068 213.08789 382.07227 L 159.62305 382.07227 z M 244.64258 397.24414 C 247.15363 397.24414 249.56148 397.62726 251.86328 398.39453 C 254.16508 399.09205 256.15213 400.31285 257.82617 402.05664 C 259.56996 403.73068 260.96545 406.03137 262.01172 408.96094 C 263.05799 411.8905 263.58008 415.55292 263.58008 419.94727 C 263.58008 424.41137 263.05799 428.07378 262.01172 430.93359 C 261.0352 433.79341 259.67543 436.06034 257.93164 437.73438 C 256.18785 439.40841 254.09365 440.5935 251.65234 441.29102 C 249.28079 441.91878 246.73594 442.23242 244.01562 442.23242 L 242.02734 442.23242 C 241.39958 442.23242 240.84178 442.19866 240.35352 442.12891 L 240.35352 397.34766 L 241.60938 397.34766 C 242.23714 397.2779 243.24755 397.24414 244.64258 397.24414 z "
       id="rect4610" />
    <path
       style="opacity:1;fill:url(#linearGradient6771);fill-opacity:1;fill-rule:evenodd;stroke:none;stroke-width:8.77774811;stroke-linecap:square;stroke-linejoin:miter;stroke-miterlimit:4;stroke-dasharray:none;stroke-dashoffset:0;stroke-opacity:1;paint-order:markers fill stroke"
       d="m 433.28939,182.37584 v -69.47028 c 0,-0.0394 -0.0309,-0.0705 -0.0703,-0.0705 h -67.33747 c 4.09851,4.50878 8.40749,9.2132 13.77948,14.86279 7.205,7.57734 15.21697,15.8602 23.32513,24.15489 11.13885,11.3951 20.83136,21.05949 30.30308,30.52302 z"
       id="path4566"
       inkscape:connector-curvature="0" />
    <path
       style="opacity:1;fill:#ff772f;fill-opacity:1;fill-rule:evenodd;stroke:none;stroke-width:1.05391276;stroke-linejoin:round;stroke-miterlimit:4;stroke-dasharray:none;stroke-dashoffset:0;stroke-opacity:1;paint-order:normal"
       d="m 435.00048,114.60612 c -1.83541,-2.30475 -3.6077,-4.55306 -6.74972,-8.04125 -4.24635,-4.71409 -9.8132,-10.623129 -16.08223,-17.137261 C 405.8996,82.913483 398.92921,75.794273 391.8744,68.663457 377.76477,54.401804 363.32068,40.090503 353.48814,30.462087 c -0.35278,-0.345219 -0.4898,-0.448268 -0.83055,-0.781422 l -0.24394,62.802323 c -0.0467,12.055462 9.04538,21.800782 20.38588,21.850482 z"
       id="rect4485"
       inkscape:connector-curvature="0" />
    <circle
       style="fill:#ffd6c1;fill-opacity:1;stroke:none;stroke-width:0.80250543"
       id="path3018"
       cx="216.27415"
       cy="180.16292"
       r="64.84623" />
    <rect
       style="fill:#ffac80;fill-opacity:1;stroke:none;stroke-width:0.80250543"
       id="rect3788"
       width="118.88476"
       height="108.07706"
       x="247.45976"
       y="162.99001" />
    <path
       style="fill:#ff8a4c;fill-opacity:1;stroke:none;stroke-width:0.80250543"
       d="M 161.09352,305.61993 H 290.78599 L 226.22627,193.63998 Z"
       id="path3790"
       inkscape:connector-curvature="0"
       sodipodi:nodetypes="cccc" />
    <rect
       style="fill:#ffac80;fill-opacity:1;stroke:none;stroke-width:0.80250543"
       id="rect3792"
       width="19.453871"
       height="19.453871"
       x="216.52"
       y="182.62549" />
    <rect
       style="fill:#ffac80;fill-opacity:1;stroke:none;stroke-width:0.80250543"
       id="rect3792-3"
       width="19.453871"
       height="19.453871"
       x="145.65547"
       y="293.22943" />
    <rect
       style="fill:#ffac80;fill-opacity:1;stroke:none;stroke-width:0.80250543"
       id="rect3792-6"
       width="19.453871"
       height="19.453871"
       x="287.80048"
       y="291.70108" />
  </g>
</svg>
