<?xml version="1.0" encoding="UTF-8" standalone="no"?>
<!-- Created with Inkscape (http://www.inkscape.org/) -->

<svg
   xmlns:osb="http://www.openswatchbook.org/uri/2009/osb"
   xmlns:dc="http://purl.org/dc/elements/1.1/"
   xmlns:cc="http://creativecommons.org/ns#"
   xmlns:rdf="http://www.w3.org/1999/02/22-rdf-syntax-ns#"
   xmlns:svg="http://www.w3.org/2000/svg"
   xmlns="http://www.w3.org/2000/svg"
   xmlns:xlink="http://www.w3.org/1999/xlink"
   xmlns:sodipodi="http://sodipodi.sourceforge.net/DTD/sodipodi-0.dtd"
   xmlns:inkscape="http://www.inkscape.org/namespaces/inkscape"
   width="512px"
   height="512px"
   viewBox="0 0 512 512"
   version="1.1"
   id="SVGRoot"
   inkscape:version="0.92.1 r15371"
   sodipodi:docname="tarlzma.svg">
  <sodipodi:namedview
     id="base"
     pagecolor="#ffffff"
     bordercolor="#666666"
     borderopacity="1.0"
     inkscape:pageopacity="0.0"
     inkscape:pageshadow="2"
     inkscape:zoom="1"
     inkscape:cx="289.73442"
     inkscape:cy="255.02225"
     inkscape:document-units="px"
     inkscape:current-layer="layer1"
     showgrid="false"
     inkscape:window-width="1280"
     inkscape:window-height="947"
     inkscape:window-x="0"
     inkscape:window-y="0"
     inkscape:window-maximized="1" />
  <defs
     id="defs4710">
    <linearGradient
       inkscape:collect="always"
       id="linearGradient4573">
      <stop
         style="stop-color:#181818;stop-opacity:0.30645162"
         offset="0"
         id="stop4569" />
      <stop
         style="stop-color:#404040;stop-opacity:0"
         offset="1"
         id="stop4571" />
    </linearGradient>
    <marker
       inkscape:stockid="DotM"
       orient="auto"
       refY="0.0"
       refX="0.0"
       id="DotM"
       style="overflow:visible"
       inkscape:isstock="true">
      <path
         id="path4618"
         d="M -2.5,-1.0 C -2.5,1.7600000 -4.7400000,4.0 -7.5,4.0 C -10.260000,4.0 -12.5,1.7600000 -12.5,-1.0 C -12.5,-3.7600000 -10.260000,-6.0 -7.5,-6.0 C -4.7400000,-6.0 -2.5,-3.7600000 -2.5,-1.0 z "
         style="fill-rule:evenodd;stroke:#000000;stroke-width:1.0pt"
         transform="scale(0.4) translate(7.4, 1)" />
    </marker>
    <linearGradient
       osb:paint="solid"
       id="linearGradient5207">
      <stop
         id="stop5209"
         offset="0"
         style="stop-color:#000015;stop-opacity:1;" />
    </linearGradient>
    <clipPath
       id="clipPath3006-9-8"
       clipPathUnits="userSpaceOnUse">
      <path
         inkscape:export-ydpi="90"
         inkscape:export-xdpi="90"
         transform="matrix(1.2020779,0,0,1.2020779,-93.20363,-75.172465)"
         d="m 483,275.5 a 192.5,192.5 0 1 1 -385,0 192.5,192.5 0 1 1 385,0 z"
         sodipodi:ry="192.5"
         sodipodi:rx="192.5"
         sodipodi:cy="275.5"
         sodipodi:cx="290.5"
         id="path3008-1-1"
         style="fill:#ffffff;fill-opacity:1;stroke:none;display:inline"
         sodipodi:type="arc" />
    </clipPath>
    <mask
       id="mask3818-4"
       maskUnits="userSpaceOnUse">
      <path
         sodipodi:type="arc"
         style="fill:#ffffff;fill-opacity:1;stroke:none;display:inline"
         id="path3820-9"
         sodipodi:cx="290.5"
         sodipodi:cy="275.5"
         sodipodi:rx="192.5"
         sodipodi:ry="192.5"
         d="m 483,275.5 a 192.5,192.5 0 1 1 -385,0 192.5,192.5 0 1 1 385,0 z"
         transform="matrix(1.2020779,0,0,1.2020779,-93.20363,-75.172466)"
         inkscape:export-xdpi="90"
         inkscape:export-ydpi="90" />
    </mask>
    <clipPath
       id="clipPath3006"
       clipPathUnits="userSpaceOnUse">
      <path
         inkscape:export-ydpi="90"
         inkscape:export-xdpi="90"
         transform="matrix(1.2020779,0,0,1.2020779,-93.20363,-75.172465)"
         d="m 483,275.5 a 192.5,192.5 0 1 1 -385,0 192.5,192.5 0 1 1 385,0 z"
         sodipodi:ry="192.5"
         sodipodi:rx="192.5"
         sodipodi:cy="275.5"
         sodipodi:cx="290.5"
         id="path3008"
         style="fill:#ffffff;fill-opacity:1;stroke:none;display:inline"
         sodipodi:type="arc" />
    </clipPath>
    <clipPath
       id="clipPath3006-9"
       clipPathUnits="userSpaceOnUse">
      <path
         inkscape:export-ydpi="90"
         inkscape:export-xdpi="90"
         transform="matrix(1.2020779,0,0,1.2020779,-93.20363,-75.172465)"
         d="m 483,275.5 a 192.5,192.5 0 1 1 -385,0 192.5,192.5 0 1 1 385,0 z"
         sodipodi:ry="192.5"
         sodipodi:rx="192.5"
         sodipodi:cy="275.5"
         sodipodi:cx="290.5"
         id="path3008-1"
         style="fill:#ffffff;fill-opacity:1;stroke:none;display:inline"
         sodipodi:type="arc" />
    </clipPath>
    <mask
       maskUnits="userSpaceOnUse"
       id="mask3818-0">
      <path
         inkscape:export-ydpi="90"
         inkscape:export-xdpi="90"
         transform="matrix(1.2020779,0,0,1.2020779,-93.20363,-75.172466)"
         d="m 483,275.5 a 192.5,192.5 0 1 1 -385,0 192.5,192.5 0 1 1 385,0 z"
         sodipodi:ry="192.5"
         sodipodi:rx="192.5"
         sodipodi:cy="275.5"
         sodipodi:cx="290.5"
         id="path3820-8"
         style="fill:#ffffff;fill-opacity:1;stroke:none;display:inline"
         sodipodi:type="arc" />
    </mask>
    <mask
       maskUnits="userSpaceOnUse"
       id="mask3818-2">
      <path
         inkscape:export-ydpi="90"
         inkscape:export-xdpi="90"
         transform="matrix(1.2020779,0,0,1.2020779,-93.20363,-75.172466)"
         d="m 483,275.5 a 192.5,192.5 0 1 1 -385,0 192.5,192.5 0 1 1 385,0 z"
         sodipodi:ry="192.5"
         sodipodi:rx="192.5"
         sodipodi:cy="275.5"
         sodipodi:cx="290.5"
         id="path3820-2-2"
         style="fill:#ffffff;fill-opacity:1;stroke:none;display:inline"
         sodipodi:type="arc" />
    </mask>
    <clipPath
       id="clipPath3934"
       clipPathUnits="userSpaceOnUse">
      <path
         id="path3936"
         d="m 0,0 0,1024 1024,0 L 1024,0 0,0 z m 278.4375,333.84375 119.78125,0 c 9.83697,42.31453 19.85954,84.58596 29.9375,126.84375 9.86978,-42.28798 20.05132,-84.50237 29.6875,-126.84375 l 108.90625,0 c 9.63586,42.34141 19.8178,84.55578 29.6875,126.84375 10.07827,-42.25772 20.10031,-84.52927 29.9375,-126.84375 l 119.1875,0 c -26.26221,110.73099 -52.49625,221.46929 -78.28125,332.3125 l -122.8125,0 c -10.59439,-45.55681 -21.46638,-91.04874 -32.375,-136.53125 -10.66279,45.51136 -21.5615,90.96897 -32,136.53125 l -122.8125,0 c -25.71418,-110.03502 -52.0286,-219.92873 -78.25,-329.84375 l -0.59375,-2.46875 z"
         style="fill:#ff3232;fill-opacity:1;stroke:none"
         inkscape:connector-curvature="0" />
    </clipPath>
    <clipPath
       id="clipPath3929"
       clipPathUnits="userSpaceOnUse">
      <path
         inkscape:connector-curvature="0"
         style="fill:#ff3232;fill-opacity:1;stroke:none"
         d="m 0,0 0,1024 1024,0 L 1024,0 0,0 z m 278.4375,333.84375 119.78125,0 c 9.83697,42.31453 19.85954,84.58596 29.9375,126.84375 9.86978,-42.28798 20.05132,-84.50237 29.6875,-126.84375 l 108.90625,0 c 9.63586,42.34141 19.8178,84.55578 29.6875,126.84375 10.07827,-42.25772 20.10031,-84.52927 29.9375,-126.84375 l 119.1875,0 c -26.26221,110.73099 -52.49625,221.46929 -78.28125,332.3125 l -122.8125,0 c -10.59439,-45.55681 -21.46638,-91.04874 -32.375,-136.53125 -10.66279,45.51136 -21.5615,90.96897 -32,136.53125 l -122.8125,0 c -25.71418,-110.03502 -52.0286,-219.92873 -78.25,-329.84375 l -0.59375,-2.46875 z"
         id="path3931" />
    </clipPath>
    <mask
       maskUnits="userSpaceOnUse"
       id="mask3818">
      <path
         inkscape:export-ydpi="90"
         inkscape:export-xdpi="90"
         transform="matrix(1.2020779,0,0,1.2020779,-93.20363,-75.172466)"
         d="m 483,275.5 a 192.5,192.5 0 1 1 -385,0 192.5,192.5 0 1 1 385,0 z"
         sodipodi:ry="192.5"
         sodipodi:rx="192.5"
         sodipodi:cy="275.5"
         sodipodi:cx="290.5"
         id="path3820"
         style="fill:#ffffff;fill-opacity:1;stroke:none;display:inline"
         sodipodi:type="arc" />
    </mask>
    <linearGradient
       inkscape:collect="always"
       xlink:href="#linearGradient4573"
       id="linearGradient4575"
       x1="408.84314"
       y1="89.26915"
       x2="420.61133"
       y2="138.41306"
       gradientUnits="userSpaceOnUse"
       gradientTransform="matrix(0.99657796,0,0,1,1.2520606,0)" />
  </defs>
  <metadata
     id="metadata4713">
    <rdf:RDF>
      <cc:Work
         rdf:about="">
        <dc:format>image/svg+xml</dc:format>
        <dc:type
           rdf:resource="http://purl.org/dc/dcmitype/StillImage" />
        <dc:title></dc:title>
      </cc:Work>
    </rdf:RDF>
  </metadata>
  <g
     id="layer1"
     inkscape:groupmode="layer"
     inkscape:label="Capa 1">
    <path
       style="opacity:1;fill:#f4f5f6;fill-opacity:1;fill-rule:evenodd;stroke:#658aba;stroke-width:2;stroke-linejoin:round;stroke-miterlimit:4;stroke-dasharray:none;stroke-dashoffset:0;stroke-opacity:1;paint-order:normal"
       d="m 97.583979,29.700195 c -11.07875,0 -19.99804,9.65194 -19.99804,21.64062 V 460.66113 c 0,11.9887 8.91929,21.63867 19.99804,21.63867 H 414.41602 c 11.07874,0 19.99804,-9.64997 19.99804,-21.63867 V 113.7959 c -0.33411,-0.32981 -0.46874,-0.43168 -0.81445,-0.77345 -9.64188,-9.53205 -23.80681,-23.701345 -37.64453,-37.822255 -6.91884,-7.06045 -13.75546,-14.10994 -19.9043,-20.56055 -6.14876,-6.45062 -11.60929,-12.30327 -15.77539,-16.97265 -3.0827,-3.45513 -4.82334,-5.68286 -6.625,-7.9668 z"
       id="path4506"
       inkscape:connector-curvature="0"
       sodipodi:nodetypes="ssssssccccccs" />
    <g
       id="g4584"
       transform="matrix(0.3829248,0,0,0.3829248,74.406719,31.973725)"
       style="fill:#75abd3;fill-opacity:1;stroke:#9dc4df;stroke-opacity:1" />
    <path
       style="opacity:1;fill:#d5dee2;fill-opacity:1;fill-rule:evenodd;stroke:#f4f6f8;stroke-width:0.85085654;stroke-linecap:square;stroke-linejoin:miter;stroke-miterlimit:4;stroke-dasharray:none;stroke-dashoffset:0;stroke-opacity:1;paint-order:markers fill stroke"
       d="M 346.07227 401.95117 C 343.42171 401.95117 340.42229 402.23105 337.07422 402.78906 C 333.7959 403.34707 330.48284 404.18476 327.13477 405.30078 C 327.13477 406.69581 327.16853 407.95038 327.23828 409.06641 C 327.37778 410.11268 327.55246 411.1588 327.76172 412.20508 C 328.04072 413.1816 328.39008 414.15824 328.80859 415.13477 C 329.29685 416.11129 329.85466 417.19313 330.48242 418.37891 C 332.85397 417.54189 335.15662 416.94837 337.38867 416.59961 C 339.62072 416.1811 341.57206 415.97266 343.24609 415.97266 C 344.50162 415.97266 345.72243 416.0759 346.9082 416.28516 C 348.09398 416.42466 349.17582 416.7383 350.15234 417.22656 C 351.12887 417.64507 351.93083 418.27431 352.55859 419.11133 C 353.18636 419.94835 353.53572 420.99447 353.60547 422.25 L 347.22266 422.25 C 344.5721 422.25 341.85256 422.52793 339.0625 423.08594 C 336.27244 423.5742 333.72563 424.48136 331.42383 425.80664 C 329.12203 427.13192 327.23822 428.91053 325.77344 431.14258 C 324.30865 433.37463 323.57617 436.19936 323.57617 439.61719 C 323.57617 443.10477 324.16969 446.07041 325.35547 448.51172 C 326.611 450.88327 328.32012 452.80084 330.48242 454.26562 C 332.64472 455.73041 335.22529 456.77653 338.22461 457.4043 C 341.29368 458.10181 344.64245 458.45117 348.26953 458.45117 C 352.45462 458.45117 356.43068 458.0661 360.19727 457.29883 C 363.96385 456.53156 367.17171 455.76531 369.82227 454.99805 L 369.82227 424.3418 C 369.82227 420.43571 369.26446 417.08694 368.14844 414.29688 C 367.03241 411.43706 365.42848 409.10065 363.33594 407.28711 C 361.31314 405.47357 358.83582 404.14952 355.90625 403.3125 C 352.97668 402.40573 349.69935 401.95117 346.07227 401.95117 z M 259.98438 402.16016 C 254.75301 402.16016 250.42955 402.579 247.01172 403.41602 C 243.59389 404.18328 240.66396 404.98525 238.22266 405.82227 L 238.22266 457.19531 C 240.0362 457.54407 241.67584 457.75251 243.14062 457.82227 C 244.60541 457.96177 245.92946 458.03125 247.11523 458.03125 C 248.23126 458.03125 249.52155 457.96177 250.98633 457.82227 C 252.45111 457.75251 254.09076 457.54407 255.9043 457.19531 L 255.9043 418.06445 C 256.11355 417.92495 256.63759 417.78599 257.47461 417.64648 C 258.38138 417.50698 259.21711 417.4375 259.98438 417.4375 C 262.84419 417.4375 264.86696 418.23946 266.05273 419.84375 C 267.23851 421.44804 267.83203 424.09809 267.83203 427.79492 L 267.83203 457.19531 C 269.64557 457.54407 271.28522 457.75251 272.75 457.82227 C 274.21478 457.96177 275.53883 458.03125 276.72461 458.03125 C 277.84063 458.03125 279.13092 457.96177 280.5957 457.82227 C 282.06049 457.75251 283.70013 457.54407 285.51367 457.19531 L 285.51367 426.64453 C 285.51367 423.50571 285.20003 420.71474 284.57227 418.27344 C 284.92102 418.13393 285.54831 417.95925 286.45508 417.75 C 287.4316 417.54075 288.40824 417.4375 289.38477 417.4375 C 292.24458 417.4375 294.30307 418.23946 295.55859 419.84375 C 296.81412 421.44804 297.44141 424.09809 297.44141 427.79492 L 297.44141 457.19531 C 299.25495 457.54407 300.89459 457.75251 302.35938 457.82227 C 303.82416 457.96177 305.14821 458.03125 306.33398 458.03125 C 307.45001 458.03125 308.7403 457.96177 310.20508 457.82227 C 311.66986 457.75251 313.30951 457.54407 315.12305 457.19531 L 315.12305 425.91211 C 315.12305 420.75049 314.3568 416.59976 312.82227 413.46094 C 311.35748 410.32212 309.43796 407.91622 307.06641 406.24219 C 304.7646 404.56815 302.15027 403.48631 299.2207 402.99805 C 296.36089 402.44003 293.56992 402.16016 290.84961 402.16016 C 287.78054 402.16016 285.02529 402.50952 282.58398 403.20703 C 280.14268 403.90455 278.01471 404.70651 276.20117 405.61328 C 273.82962 404.21825 271.24905 403.31109 268.45898 402.89258 C 265.66892 402.40432 262.84419 402.16016 259.98438 402.16016 z M 151.17578 402.26562 C 149.78075 402.26562 148.31578 402.33511 146.78125 402.47461 C 145.31647 402.61411 143.81774 402.85827 142.2832 403.20703 L 142.17773 457.29883 L 179.63477 457.29883 C 179.98352 455.9038 180.19197 454.61351 180.26172 453.42773 C 180.40122 452.17221 180.4707 450.98712 180.4707 449.87109 C 180.4707 448.75507 180.40122 447.60375 180.26172 446.41797 C 180.19197 445.23219 179.98352 443.94191 179.63477 442.54688 L 159.85938 442.54688 L 159.96484 403.20703 C 158.50006 402.85827 156.99938 402.61411 155.46484 402.47461 C 153.93031 402.33511 152.50106 402.26562 151.17578 402.26562 z M 186.80078 403.20703 C 186.45202 404.67181 186.20786 405.9621 186.06836 407.07812 C 185.99861 408.1244 185.96484 409.17052 185.96484 410.2168 C 185.96484 411.26307 185.99861 412.37868 186.06836 413.56445 C 186.20786 414.68048 186.45202 416.00648 186.80078 417.54102 L 204.69336 417.54102 L 182.82617 454.16016 L 184.5 457.29883 L 228.44336 457.29883 C 228.72237 455.83405 228.89705 454.57948 228.9668 453.5332 C 229.1063 452.41718 229.17578 451.33534 229.17578 450.28906 C 229.17578 448.26627 228.93162 445.82466 228.44336 442.96484 L 208.45898 442.96484 L 230.43164 406.55469 L 229.38477 403.20703 L 186.80078 403.20703 z M 347.64062 433.33984 L 353.60547 433.33984 L 353.60547 444.84961 C 353.04746 444.98911 352.17601 445.12808 350.99023 445.26758 C 349.80446 445.40708 348.8973 445.47656 348.26953 445.47656 C 347.36276 445.47656 346.3504 445.40708 345.23438 445.26758 C 344.1881 445.12808 343.17769 444.8482 342.20117 444.42969 C 341.2944 444.01118 340.5262 443.41961 339.89844 442.65234 C 339.27067 441.81533 338.95703 440.69972 338.95703 439.30469 C 338.95703 437.4214 339.79471 435.95643 341.46875 434.91016 C 343.14279 433.86388 345.19932 433.33984 347.64062 433.33984 z "
       id="rect4610" />
    <path
       style="opacity:1;fill:url(#linearGradient4575);fill-opacity:1;fill-rule:evenodd;stroke:none;stroke-width:8.77774811;stroke-linecap:square;stroke-linejoin:miter;stroke-miterlimit:4;stroke-dasharray:none;stroke-dashoffset:0;stroke-opacity:1;paint-order:markers fill stroke"
       d="m 433.28939,182.37584 v -69.47028 c 0,-0.0394 -0.0309,-0.0705 -0.0703,-0.0705 h -67.33747 c 4.09851,4.50878 8.40749,9.2132 13.77948,14.86279 7.205,7.57734 15.21697,15.8602 23.32513,24.15489 11.13885,11.3951 20.83136,21.05949 30.30308,30.52302 z"
       id="path4566"
       inkscape:connector-curvature="0" />
    <path
       style="opacity:1;fill:#658aba;fill-opacity:1;fill-rule:evenodd;stroke:none;stroke-width:1.05391276;stroke-linejoin:round;stroke-miterlimit:4;stroke-dasharray:none;stroke-dashoffset:0;stroke-opacity:1;paint-order:normal"
       d="m 435.00048,114.60612 c -1.83541,-2.30475 -3.6077,-4.55306 -6.74972,-8.04125 -4.24635,-4.71409 -9.8132,-10.623129 -16.08223,-17.137261 C 405.8996,82.913483 398.92921,75.794273 391.8744,68.663457 377.76477,54.401804 363.32068,40.090503 353.48814,30.462087 c -0.35278,-0.345219 -0.4898,-0.448268 -0.83055,-0.781422 l -0.24394,62.802323 c -0.0467,12.055462 9.04538,21.800782 20.38588,21.850482 z"
       id="rect4485"
       inkscape:connector-curvature="0" />
    <rect
       x="243.4165"
       y="30.67886"
       style="fill:#658aba;fill-opacity:1;stroke:none;stroke-width:1.69799995;stroke-linecap:butt;stroke-linejoin:miter;stroke-miterlimit:4;stroke-dasharray:40.7519989, 40.7519989;stroke-dashoffset:0;stroke-opacity:1"
       width="25.166964"
       height="225.7319"
       id="rect4" />
    <path
       inkscape:connector-curvature="0"
       style="fill:#a4a9ad;stroke-width:1.69771731"
       d="m 256,237.73757 c -14.00107,0 -25.35201,34.38388 -25.35201,48.38495 0,14.00107 11.35094,25.35201 25.35201,25.35201 14.00108,0 25.35201,-11.35094 25.35201,-25.35201 0,-14.00107 -11.35093,-48.38495 -25.35201,-48.38495 z m 0,60.11788 c -6.48018,0 -11.73462,-5.25274 -11.73462,-11.73462 0,-6.48189 5.25273,-11.73463 11.73462,-11.73463 6.48019,0 11.73463,5.25274 11.73463,11.73463 0,6.48188 -5.25444,11.73462 -11.73463,11.73462 z"
       id="path6" />
    <path
       style="opacity:1;fill:#d5dee2;fill-opacity:1;fill-rule:evenodd;stroke:#f4f6f8;stroke-width:0.78356177;stroke-linecap:square;stroke-linejoin:miter;stroke-miterlimit:4;stroke-dasharray:none;stroke-dashoffset:0;stroke-opacity:1;paint-order:markers fill stroke"
       d="M 251.57617 339.95117 C 248.92561 339.95117 245.9262 340.23105 242.57812 340.78906 C 239.2998 341.34707 235.98675 342.18476 232.63867 343.30078 C 232.63867 344.69581 232.67244 345.95038 232.74219 347.06641 C 232.88169 348.11268 233.05637 349.1588 233.26562 350.20508 C 233.54463 351.1816 233.89399 352.15824 234.3125 353.13477 C 234.80076 354.11129 235.35856 355.19313 235.98633 356.37891 C 238.35788 355.54189 240.65858 354.94837 242.89062 354.59961 C 245.12267 354.1811 247.07596 353.97266 248.75 353.97266 C 250.00553 353.97266 251.22633 354.0759 252.41211 354.28516 C 253.59789 354.42466 254.67973 354.7383 255.65625 355.22656 C 256.63277 355.64507 257.43474 356.27431 258.0625 357.11133 C 258.69026 357.94835 259.03962 358.99447 259.10938 360.25 L 252.72656 360.25 C 250.076 360.25 247.35452 360.52793 244.56445 361.08594 C 241.77439 361.5742 239.22954 362.48136 236.92773 363.80664 C 234.62593 365.13192 232.74213 366.91053 231.27734 369.14258 C 229.81256 371.37463 229.08008 374.19936 229.08008 377.61719 C 229.08008 381.10477 229.6736 384.07041 230.85938 386.51172 C 232.1149 388.88327 233.82403 390.80084 235.98633 392.26562 C 238.14863 393.73041 240.7292 394.77653 243.72852 395.4043 C 246.79758 396.10181 250.14636 396.45117 253.77344 396.45117 C 257.95853 396.45117 261.93263 396.0661 265.69922 395.29883 C 269.4658 394.53156 272.67561 393.76531 275.32617 392.99805 L 275.32617 362.3418 C 275.32617 358.43571 274.76837 355.08694 273.65234 352.29688 C 272.53632 349.43706 270.93239 347.10065 268.83984 345.28711 C 266.81705 343.47357 264.33972 342.14952 261.41016 341.3125 C 258.48059 340.40573 255.20325 339.95117 251.57617 339.95117 z M 306.75977 339.95117 C 303.62095 339.95117 300.27217 340.09209 296.71484 340.37109 C 293.22727 340.6501 289.84473 340.99751 286.56641 341.41602 L 286.56641 395.19531 C 288.37995 395.54407 289.98388 395.75251 291.37891 395.82227 C 292.77394 395.96177 294.06422 396.03125 295.25 396.03125 C 296.36602 396.03125 297.65631 395.96177 299.12109 395.82227 C 300.58588 395.75251 302.22552 395.54407 304.03906 395.19531 L 304.03906 354.07617 C 304.73658 353.93667 305.74894 353.86719 307.07422 353.86719 C 309.44577 353.86719 311.1549 354.46071 312.20117 355.64648 C 313.3172 356.76251 313.875 358.22748 313.875 360.04102 C 313.875 361.85456 313.42044 363.56173 312.51367 365.16602 C 311.6069 366.70055 309.93349 368.16552 307.49219 369.56055 L 306.02734 370.39844 L 317.64062 395.08984 C 318.8264 395.36885 320.32708 395.57925 322.14062 395.71875 C 323.95417 395.85825 325.83602 395.92773 327.78906 395.92773 C 329.39335 395.92773 331.03299 395.85825 332.70703 395.71875 C 334.45082 395.57925 336.02098 395.36885 337.41602 395.08984 L 325.48828 372.28125 C 325.97654 371.86274 326.60383 371.30494 327.37109 370.60742 C 328.13836 369.90991 328.87084 369.00274 329.56836 367.88672 C 330.26587 366.70094 330.8594 365.30741 331.34766 363.70312 C 331.83592 362.09884 332.08008 360.21503 332.08008 358.05273 C 332.08008 352.33311 329.95211 347.90249 325.69727 344.76367 C 321.51217 341.5551 315.1997 339.95117 306.75977 339.95117 z M 175.42188 341.20703 C 175.07312 342.60206 174.82896 343.89235 174.68945 345.07812 C 174.6197 346.2639 174.58398 347.41523 174.58398 348.53125 C 174.58398 349.64727 174.6197 350.83236 174.68945 352.08789 C 174.82896 353.27367 175.07312 354.56395 175.42188 355.95898 L 190.90625 355.95898 L 190.90625 395.19531 C 192.65004 395.47432 194.25397 395.68276 195.71875 395.82227 C 197.18353 395.96177 198.50954 396.03125 199.69531 396.03125 C 200.88109 396.03125 202.20514 395.96177 203.66992 395.82227 C 205.1347 395.68276 206.77435 395.47432 208.58789 395.19531 L 208.58789 355.95898 L 224.07227 355.95898 C 224.42102 354.56395 224.63142 353.27367 224.70117 352.08789 C 224.84067 350.83236 224.91016 349.64727 224.91016 348.53125 C 224.91016 347.41523 224.84067 346.2639 224.70117 345.07812 C 224.63142 343.89235 224.42102 342.60206 224.07227 341.20703 L 175.42188 341.20703 z M 253.14453 371.33984 L 259.10938 371.33984 L 259.10938 382.84961 C 258.55136 382.98911 257.67796 383.12808 256.49219 383.26758 C 255.30641 383.40708 254.4012 383.47656 253.77344 383.47656 C 252.86667 383.47656 251.85431 383.40708 250.73828 383.26758 C 249.69201 383.12808 248.6816 382.8482 247.70508 382.42969 C 246.79831 382.01118 246.03011 381.41961 245.40234 380.65234 C 244.77458 379.81533 244.46094 378.69972 244.46094 377.30469 C 244.46094 375.4214 245.29862 373.95643 246.97266 372.91016 C 248.64669 371.86388 250.70323 371.33984 253.14453 371.33984 z "
       id="rect5407" />
  </g>
</svg>
