<?xml version="1.0" encoding="UTF-8" standalone="no"?>
<!-- Created with Inkscape (http://www.inkscape.org/) -->

<svg
   xmlns:osb="http://www.openswatchbook.org/uri/2009/osb"
   xmlns:dc="http://purl.org/dc/elements/1.1/"
   xmlns:cc="http://creativecommons.org/ns#"
   xmlns:rdf="http://www.w3.org/1999/02/22-rdf-syntax-ns#"
   xmlns:svg="http://www.w3.org/2000/svg"
   xmlns="http://www.w3.org/2000/svg"
   xmlns:xlink="http://www.w3.org/1999/xlink"
   xmlns:sodipodi="http://sodipodi.sourceforge.net/DTD/sodipodi-0.dtd"
   xmlns:inkscape="http://www.inkscape.org/namespaces/inkscape"
   width="512px"
   height="512px"
   viewBox="0 0 512 512"
   version="1.1"
   id="SVGRoot"
   inkscape:version="0.92.1 r15371"
   sodipodi:docname="mdlenguaje.svg">
  <sodipodi:namedview
     id="base"
     pagecolor="#ffffff"
     bordercolor="#666666"
     borderopacity="1.0"
     inkscape:pageopacity="0.0"
     inkscape:pageshadow="2"
     inkscape:zoom="1"
     inkscape:cx="97.796311"
     inkscape:cy="264.84835"
     inkscape:document-units="px"
     inkscape:current-layer="layer1"
     showgrid="false"
     inkscape:window-width="1280"
     inkscape:window-height="947"
     inkscape:window-x="0"
     inkscape:window-y="0"
     inkscape:window-maximized="1" />
  <defs
     id="defs4710">
    <linearGradient
       inkscape:collect="always"
       id="linearGradient4573">
      <stop
         style="stop-color:#181818;stop-opacity:0.30645162"
         offset="0"
         id="stop4569" />
      <stop
         style="stop-color:#404040;stop-opacity:0"
         offset="1"
         id="stop4571" />
    </linearGradient>
    <marker
       inkscape:stockid="DotM"
       orient="auto"
       refY="0.0"
       refX="0.0"
       id="DotM"
       style="overflow:visible"
       inkscape:isstock="true">
      <path
         id="path4618"
         d="M -2.5,-1.0 C -2.5,1.7600000 -4.7400000,4.0 -7.5,4.0 C -10.260000,4.0 -12.5,1.7600000 -12.5,-1.0 C -12.5,-3.7600000 -10.260000,-6.0 -7.5,-6.0 C -4.7400000,-6.0 -2.5,-3.7600000 -2.5,-1.0 z "
         style="fill-rule:evenodd;stroke:#000000;stroke-width:1.0pt"
         transform="scale(0.4) translate(7.4, 1)" />
    </marker>
    <linearGradient
       osb:paint="solid"
       id="linearGradient5207">
      <stop
         id="stop5209"
         offset="0"
         style="stop-color:#000015;stop-opacity:1;" />
    </linearGradient>
    <clipPath
       id="clipPath3006-9-8"
       clipPathUnits="userSpaceOnUse">
      <path
         inkscape:export-ydpi="90"
         inkscape:export-xdpi="90"
         transform="matrix(1.2020779,0,0,1.2020779,-93.20363,-75.172465)"
         d="m 483,275.5 a 192.5,192.5 0 1 1 -385,0 192.5,192.5 0 1 1 385,0 z"
         sodipodi:ry="192.5"
         sodipodi:rx="192.5"
         sodipodi:cy="275.5"
         sodipodi:cx="290.5"
         id="path3008-1-1"
         style="fill:#ffffff;fill-opacity:1;stroke:none;display:inline"
         sodipodi:type="arc" />
    </clipPath>
    <mask
       id="mask3818-4"
       maskUnits="userSpaceOnUse">
      <path
         sodipodi:type="arc"
         style="fill:#ffffff;fill-opacity:1;stroke:none;display:inline"
         id="path3820-9"
         sodipodi:cx="290.5"
         sodipodi:cy="275.5"
         sodipodi:rx="192.5"
         sodipodi:ry="192.5"
         d="m 483,275.5 a 192.5,192.5 0 1 1 -385,0 192.5,192.5 0 1 1 385,0 z"
         transform="matrix(1.2020779,0,0,1.2020779,-93.20363,-75.172466)"
         inkscape:export-xdpi="90"
         inkscape:export-ydpi="90" />
    </mask>
    <clipPath
       id="clipPath3006"
       clipPathUnits="userSpaceOnUse">
      <path
         inkscape:export-ydpi="90"
         inkscape:export-xdpi="90"
         transform="matrix(1.2020779,0,0,1.2020779,-93.20363,-75.172465)"
         d="m 483,275.5 a 192.5,192.5 0 1 1 -385,0 192.5,192.5 0 1 1 385,0 z"
         sodipodi:ry="192.5"
         sodipodi:rx="192.5"
         sodipodi:cy="275.5"
         sodipodi:cx="290.5"
         id="path3008"
         style="fill:#ffffff;fill-opacity:1;stroke:none;display:inline"
         sodipodi:type="arc" />
    </clipPath>
    <clipPath
       id="clipPath3006-9"
       clipPathUnits="userSpaceOnUse">
      <path
         inkscape:export-ydpi="90"
         inkscape:export-xdpi="90"
         transform="matrix(1.2020779,0,0,1.2020779,-93.20363,-75.172465)"
         d="m 483,275.5 a 192.5,192.5 0 1 1 -385,0 192.5,192.5 0 1 1 385,0 z"
         sodipodi:ry="192.5"
         sodipodi:rx="192.5"
         sodipodi:cy="275.5"
         sodipodi:cx="290.5"
         id="path3008-1"
         style="fill:#ffffff;fill-opacity:1;stroke:none;display:inline"
         sodipodi:type="arc" />
    </clipPath>
    <mask
       maskUnits="userSpaceOnUse"
       id="mask3818-0">
      <path
         inkscape:export-ydpi="90"
         inkscape:export-xdpi="90"
         transform="matrix(1.2020779,0,0,1.2020779,-93.20363,-75.172466)"
         d="m 483,275.5 a 192.5,192.5 0 1 1 -385,0 192.5,192.5 0 1 1 385,0 z"
         sodipodi:ry="192.5"
         sodipodi:rx="192.5"
         sodipodi:cy="275.5"
         sodipodi:cx="290.5"
         id="path3820-8"
         style="fill:#ffffff;fill-opacity:1;stroke:none;display:inline"
         sodipodi:type="arc" />
    </mask>
    <mask
       maskUnits="userSpaceOnUse"
       id="mask3818-2">
      <path
         inkscape:export-ydpi="90"
         inkscape:export-xdpi="90"
         transform="matrix(1.2020779,0,0,1.2020779,-93.20363,-75.172466)"
         d="m 483,275.5 a 192.5,192.5 0 1 1 -385,0 192.5,192.5 0 1 1 385,0 z"
         sodipodi:ry="192.5"
         sodipodi:rx="192.5"
         sodipodi:cy="275.5"
         sodipodi:cx="290.5"
         id="path3820-2-2"
         style="fill:#ffffff;fill-opacity:1;stroke:none;display:inline"
         sodipodi:type="arc" />
    </mask>
    <clipPath
       id="clipPath3934"
       clipPathUnits="userSpaceOnUse">
      <path
         id="path3936"
         d="m 0,0 0,1024 1024,0 L 1024,0 0,0 z m 278.4375,333.84375 119.78125,0 c 9.83697,42.31453 19.85954,84.58596 29.9375,126.84375 9.86978,-42.28798 20.05132,-84.50237 29.6875,-126.84375 l 108.90625,0 c 9.63586,42.34141 19.8178,84.55578 29.6875,126.84375 10.07827,-42.25772 20.10031,-84.52927 29.9375,-126.84375 l 119.1875,0 c -26.26221,110.73099 -52.49625,221.46929 -78.28125,332.3125 l -122.8125,0 c -10.59439,-45.55681 -21.46638,-91.04874 -32.375,-136.53125 -10.66279,45.51136 -21.5615,90.96897 -32,136.53125 l -122.8125,0 c -25.71418,-110.03502 -52.0286,-219.92873 -78.25,-329.84375 l -0.59375,-2.46875 z"
         style="fill:#ff3232;fill-opacity:1;stroke:none"
         inkscape:connector-curvature="0" />
    </clipPath>
    <clipPath
       id="clipPath3929"
       clipPathUnits="userSpaceOnUse">
      <path
         inkscape:connector-curvature="0"
         style="fill:#ff3232;fill-opacity:1;stroke:none"
         d="m 0,0 0,1024 1024,0 L 1024,0 0,0 z m 278.4375,333.84375 119.78125,0 c 9.83697,42.31453 19.85954,84.58596 29.9375,126.84375 9.86978,-42.28798 20.05132,-84.50237 29.6875,-126.84375 l 108.90625,0 c 9.63586,42.34141 19.8178,84.55578 29.6875,126.84375 10.07827,-42.25772 20.10031,-84.52927 29.9375,-126.84375 l 119.1875,0 c -26.26221,110.73099 -52.49625,221.46929 -78.28125,332.3125 l -122.8125,0 c -10.59439,-45.55681 -21.46638,-91.04874 -32.375,-136.53125 -10.66279,45.51136 -21.5615,90.96897 -32,136.53125 l -122.8125,0 c -25.71418,-110.03502 -52.0286,-219.92873 -78.25,-329.84375 l -0.59375,-2.46875 z"
         id="path3931" />
    </clipPath>
    <mask
       maskUnits="userSpaceOnUse"
       id="mask3818">
      <path
         inkscape:export-ydpi="90"
         inkscape:export-xdpi="90"
         transform="matrix(1.2020779,0,0,1.2020779,-93.20363,-75.172466)"
         d="m 483,275.5 a 192.5,192.5 0 1 1 -385,0 192.5,192.5 0 1 1 385,0 z"
         sodipodi:ry="192.5"
         sodipodi:rx="192.5"
         sodipodi:cy="275.5"
         sodipodi:cx="290.5"
         id="path3820"
         style="fill:#ffffff;fill-opacity:1;stroke:none;display:inline"
         sodipodi:type="arc" />
    </mask>
    <linearGradient
       inkscape:collect="always"
       xlink:href="#linearGradient4573"
       id="linearGradient4575"
       x1="408.84314"
       y1="89.26915"
       x2="420.61133"
       y2="138.41306"
       gradientUnits="userSpaceOnUse"
       gradientTransform="matrix(0.99657796,0,0,1,1.2520606,0)" />
    <linearGradient
       inkscape:collect="always"
       xlink:href="#linearGradient4573"
       id="linearGradient6771"
       gradientUnits="userSpaceOnUse"
       gradientTransform="matrix(0.99836821,0,0,1,0.59702686,0)"
       x1="408.84314"
       y1="89.26915"
       x2="420.61133"
       y2="138.41306" />
  </defs>
  <metadata
     id="metadata4713">
    <rdf:RDF>
      <cc:Work
         rdf:about="">
        <dc:format>image/svg+xml</dc:format>
        <dc:type
           rdf:resource="http://purl.org/dc/dcmitype/StillImage" />
        <dc:title></dc:title>
      </cc:Work>
    </rdf:RDF>
  </metadata>
  <g
     id="layer1"
     inkscape:groupmode="layer"
     inkscape:label="Capa 1">
    <path
       style="opacity:1;fill:#eff0f0;fill-opacity:1;fill-rule:evenodd;stroke:#157990;stroke-width:2;stroke-linejoin:round;stroke-miterlimit:4;stroke-dasharray:none;stroke-dashoffset:0;stroke-opacity:1;paint-order:normal"
       d="m 97.583979,29.700195 c -11.07875,0 -19.99804,9.65194 -19.99804,21.64062 V 460.66113 c 0,11.9887 8.91929,21.63867 19.99804,21.63867 H 414.41602 c 11.07874,0 19.99804,-9.64997 19.99804,-21.63867 V 113.7959 c -0.33411,-0.32981 -0.46874,-0.43168 -0.81445,-0.77345 -9.64188,-9.53205 -23.80681,-23.701345 -37.64453,-37.822255 -6.91884,-7.06045 -13.75546,-14.10994 -19.9043,-20.56055 -6.14876,-6.45062 -11.60929,-12.30327 -15.77539,-16.97265 -3.0827,-3.45513 -4.82334,-5.68286 -6.625,-7.9668 z"
       id="path4506"
       inkscape:connector-curvature="0"
       sodipodi:nodetypes="ssssssccccccs" />
    <g
       id="g4584"
       transform="matrix(0.3829248,0,0,0.3829248,74.406719,31.973725)"
       style="fill:#75abd3;fill-opacity:1;stroke:#9dc4df;stroke-opacity:1" />
    <path
       style="opacity:1;fill:#157990;fill-opacity:1;fill-rule:evenodd;stroke:#e4f7fb;stroke-width:1.14248979;stroke-linecap:square;stroke-linejoin:miter;stroke-miterlimit:4;stroke-dasharray:none;stroke-dashoffset:0;stroke-opacity:1;paint-order:markers fill stroke"
       d="M 211.59375 380.81641 C 209.71046 380.81641 207.75717 380.88589 205.73438 381.02539 C 203.78133 381.09514 201.86376 381.20034 199.98047 381.33984 C 198.09718 381.47935 196.35233 381.65403 194.74805 381.86328 C 193.14376 382.00278 191.81971 382.14175 190.77344 382.28125 L 190.77344 456.98633 C 193.91226 457.40484 197.08635 457.75224 200.29492 458.03125 C 203.57325 458.38001 206.95578 458.55469 210.44336 458.55469 C 224.11467 458.55469 234.43695 455.48579 241.41211 449.34766 C 248.38727 443.13977 251.875 433.40905 251.875 420.15625 C 251.875 407.11271 248.45675 397.31251 241.62109 390.75586 C 234.78544 384.12946 224.7768 380.81641 211.59375 380.81641 z M 118.70703 381.44531 C 117.24225 381.44531 115.63832 381.54856 113.89453 381.75781 C 112.22049 381.89732 110.65228 382.072 109.1875 382.28125 L 106.15234 456.98633 C 109.36092 457.61409 112.18565 457.92773 114.62695 457.92773 C 117.27751 457.92773 120.06848 457.61409 122.99805 456.98633 L 124.14844 414.08789 L 134.40234 442.23242 C 135.58812 442.51143 136.73749 442.72183 137.85352 442.86133 C 138.96954 442.93108 140.05138 442.96484 141.09766 442.96484 C 142.14393 442.96484 143.29525 442.89536 144.55078 442.75586 C 145.80631 442.61636 147.06088 442.44168 148.31641 442.23242 L 159.82617 413.66992 L 161.29102 456.98633 C 164.63909 457.61409 167.5333 457.92773 169.97461 457.92773 C 172.20666 457.92773 173.98527 457.82254 175.31055 457.61328 C 176.70558 457.40403 177.9621 457.19558 179.07812 456.98633 L 175.51953 382.28125 C 174.05475 382.072 172.55602 381.89732 171.02148 381.75781 C 169.48695 381.54856 167.98627 381.44531 166.52148 381.44531 C 165.12645 381.44531 163.6972 381.54856 162.23242 381.75781 C 160.83739 381.89732 159.44191 382.072 158.04688 382.28125 L 142.66797 421.20312 L 127.81055 382.28125 C 126.41552 382.072 124.88107 381.89732 123.20703 381.75781 C 121.60275 381.54856 120.10206 381.44531 118.70703 381.44531 z M 213.58203 397.24414 C 216.09309 397.24414 218.49898 397.62726 220.80078 398.39453 C 223.10258 399.09205 225.09159 400.31285 226.76562 402.05664 C 228.50941 403.73068 229.90295 406.03137 230.94922 408.96094 C 231.99549 411.8905 232.51953 415.55292 232.51953 419.94727 C 232.51953 424.41137 231.99549 428.07378 230.94922 430.93359 C 229.9727 433.79341 228.61293 436.06034 226.86914 437.73438 C 225.12535 439.40841 223.0331 440.5935 220.5918 441.29102 C 218.22024 441.91878 215.67344 442.23242 212.95312 442.23242 L 210.9668 442.23242 C 210.33903 442.23242 209.78123 442.19866 209.29297 442.12891 L 209.29297 397.34766 L 210.54688 397.34766 C 211.17464 397.2779 212.187 397.24414 213.58203 397.24414 z "
       id="rect4610" />
    <path
       style="opacity:1;fill:url(#linearGradient6771);fill-opacity:1;fill-rule:evenodd;stroke:none;stroke-width:8.78562927;stroke-linecap:square;stroke-linejoin:miter;stroke-miterlimit:4;stroke-dasharray:none;stroke-dashoffset:0;stroke-opacity:1;paint-order:markers fill stroke"
       d="m 433.41048,182.37584 v -69.47028 c 0,-0.0394 -0.031,-0.0705 -0.0704,-0.0705 h -67.45844 c 4.10587,4.50878 8.42259,9.2132 13.80423,14.86279 7.21795,7.57734 15.24431,15.8602 23.36704,24.15489 11.15886,11.3951 20.86878,21.05949 30.35751,30.52302 z"
       id="path4566"
       inkscape:connector-curvature="0" />
    <path
       style="opacity:1;fill:#157990;fill-opacity:1;fill-rule:evenodd;stroke:none;stroke-width:1.05391276;stroke-linejoin:round;stroke-miterlimit:4;stroke-dasharray:none;stroke-dashoffset:0;stroke-opacity:1;paint-order:normal"
       d="m 435.00048,114.60612 c -1.83541,-2.30475 -3.6077,-4.55306 -6.74972,-8.04125 -4.24635,-4.71409 -9.8132,-10.623129 -16.08223,-17.137261 C 405.8996,82.913483 398.92921,75.794273 391.8744,68.663457 377.76477,54.401804 363.32068,40.090503 353.48814,30.462087 c -0.35278,-0.345219 -0.4898,-0.448268 -0.83055,-0.781422 l -0.24394,62.802323 c -0.0467,12.055462 9.04538,21.800782 20.38588,21.850482 z"
       id="rect4485"
       inkscape:connector-curvature="0" />
    <g
       transform="matrix(0.74507172,0,0,0.74507172,125.73663,87.868262)"
       id="g8"
       style="fill:#157990;fill-opacity:1;stroke:none;stroke-opacity:1">
      <path
         inkscape:connector-curvature="0"
         d="m 174.833,197.204 c 24.125,0 80.846,-29.034 80.846,-98.603 C 255.679,44.145 248.329,0 174.833,0 101.339,0 93.987,44.145 93.987,98.602 c 0.001,69.568 56.721,98.602 80.846,98.602 z M 106.07,82.145 c 5.68,-10.983 17.963,-23.674 44.381,-23.111 0,0 15.747,38.194 93.05,21.042 0.312,6.101 0.41,12.326 0.41,18.526 0,34.005 -15.016,55.075 -27.612,66.762 -15.871,14.727 -33.493,20.072 -41.465,20.072 -7.972,0 -25.594,-5.345 -41.465,-20.072 -12.597,-11.687 -27.612,-32.757 -27.612,-66.762 -0.001,-5.501 0.078,-11.021 0.313,-16.457 z"
         id="path2"
         style="fill:#157990;fill-opacity:1;stroke:none;stroke-opacity:1" />
    </g>
    <g
       id="g4563"
       transform="matrix(0.31799439,0,0,0.31799439,222.22058,286.16794)"
       style="fill:#157990;fill-opacity:1">
      <path
         id="path4550"
         style="fill:#157990;fill-opacity:1"
         d="M 155,98 125,65 h 20 V 30 h 20 v 35 h 20 z M 30,98 V 30 H 50 L 70,55 90,30 h 20 V 98 H 90 V 59 L 70,84 50,59 V 98 Z M 15,5 h 178 c 5.54,0 10,4.46 10,10 v 98 c 0,5.54 -4.46,10 -10,10 H 15 C 9.46,123 5,118.54 5,113 V 15 C 5,9.46 9.46,5 15,5 Z M 457.89872,75.395459 C 448.22667,15.26383 428.32026,-62.196879 388.38558,-89.722845 361.11266,-108.52804 265.96673,-159.36016 225.33618,-181.06603 l -0.68651,-0.36551 c -4.6439,-2.48128 -10.31404,-1.98455 -14.45418,1.26758 -21.28412,16.70817 -44.59731,27.9688 -69.29289,33.4679 -4.23387,0.9419 -7.74139,3.89412 -9.39323,7.90539 l -25.28368,61.401557 -25.28368,-61.401557 c -1.651839,-4.01127 -5.159361,-6.96115 -9.393224,-7.90539 -24.69558,-5.4991 -48.00877,-16.75973 -69.2928924,-33.4679 -4.1448274,-3.25213 -9.8149701,-3.74886 -14.4565206,-1.26758 -40.145548,21.45282 -136.453623,73.32291 -163.614073,91.629032 -45.97033,30.967883 -66.06888,143.046922 -69.63264,165.20031 -0.35145,2.197766 -0.14761,4.444736 0.59279,6.541751 1.64716,4.643894 43.83583,113.749627 351.08024,113.749627 307.24441,0 349.43309,-109.10339 351.08024,-113.749627 0.74274,-2.099358 0.94659,-4.348671 0.59279,-6.544094 z" />
    </g>
  </g>
</svg>
