<?xml version="1.0" encoding="UTF-8" standalone="no"?>
<!-- Created with Inkscape (http://www.inkscape.org/) -->

<svg
   xmlns:osb="http://www.openswatchbook.org/uri/2009/osb"
   xmlns:dc="http://purl.org/dc/elements/1.1/"
   xmlns:cc="http://creativecommons.org/ns#"
   xmlns:rdf="http://www.w3.org/1999/02/22-rdf-syntax-ns#"
   xmlns:svg="http://www.w3.org/2000/svg"
   xmlns="http://www.w3.org/2000/svg"
   xmlns:xlink="http://www.w3.org/1999/xlink"
   xmlns:sodipodi="http://sodipodi.sourceforge.net/DTD/sodipodi-0.dtd"
   xmlns:inkscape="http://www.inkscape.org/namespaces/inkscape"
   width="512px"
   height="512px"
   viewBox="0 0 512 512"
   version="1.1"
   id="SVGRoot"
   inkscape:version="0.92.1 r15371"
   sodipodi:docname="script.svg">
  <sodipodi:namedview
     id="base"
     pagecolor="#ffffff"
     bordercolor="#666666"
     borderopacity="1.0"
     inkscape:pageopacity="0.0"
     inkscape:pageshadow="2"
     inkscape:zoom="1.4142136"
     inkscape:cx="218.10963"
     inkscape:cy="179.04554"
     inkscape:document-units="px"
     inkscape:current-layer="layer1"
     showgrid="false"
     inkscape:window-width="1280"
     inkscape:window-height="947"
     inkscape:window-x="0"
     inkscape:window-y="0"
     inkscape:window-maximized="1" />
  <defs
     id="defs4710">
    <linearGradient
       id="linearGradient8384"
       inkscape:collect="always">
      <stop
         id="stop8380"
         offset="0"
         style="stop-color:#181818;stop-opacity:0.97311831" />
      <stop
         id="stop8382"
         offset="1"
         style="stop-color:#404040;stop-opacity:0.11827957" />
    </linearGradient>
    <linearGradient
       inkscape:collect="always"
       id="linearGradient4573">
      <stop
         style="stop-color:#181818;stop-opacity:0.30645162"
         offset="0"
         id="stop4569" />
      <stop
         style="stop-color:#404040;stop-opacity:0"
         offset="1"
         id="stop4571" />
    </linearGradient>
    <marker
       inkscape:stockid="DotM"
       orient="auto"
       refY="0.0"
       refX="0.0"
       id="DotM"
       style="overflow:visible"
       inkscape:isstock="true">
      <path
         id="path4618"
         d="M -2.5,-1.0 C -2.5,1.7600000 -4.7400000,4.0 -7.5,4.0 C -10.260000,4.0 -12.5,1.7600000 -12.5,-1.0 C -12.5,-3.7600000 -10.260000,-6.0 -7.5,-6.0 C -4.7400000,-6.0 -2.5,-3.7600000 -2.5,-1.0 z "
         style="fill-rule:evenodd;stroke:#000000;stroke-width:1.0pt"
         transform="scale(0.4) translate(7.4, 1)" />
    </marker>
    <linearGradient
       osb:paint="solid"
       id="linearGradient5207">
      <stop
         id="stop5209"
         offset="0"
         style="stop-color:#000015;stop-opacity:1;" />
    </linearGradient>
    <clipPath
       id="clipPath3006-9-8"
       clipPathUnits="userSpaceOnUse">
      <path
         inkscape:export-ydpi="90"
         inkscape:export-xdpi="90"
         transform="matrix(1.2020779,0,0,1.2020779,-93.20363,-75.172465)"
         d="m 483,275.5 a 192.5,192.5 0 1 1 -385,0 192.5,192.5 0 1 1 385,0 z"
         sodipodi:ry="192.5"
         sodipodi:rx="192.5"
         sodipodi:cy="275.5"
         sodipodi:cx="290.5"
         id="path3008-1-1"
         style="fill:#ffffff;fill-opacity:1;stroke:none;display:inline"
         sodipodi:type="arc" />
    </clipPath>
    <mask
       id="mask3818-4"
       maskUnits="userSpaceOnUse">
      <path
         sodipodi:type="arc"
         style="fill:#ffffff;fill-opacity:1;stroke:none;display:inline"
         id="path3820-9"
         sodipodi:cx="290.5"
         sodipodi:cy="275.5"
         sodipodi:rx="192.5"
         sodipodi:ry="192.5"
         d="m 483,275.5 a 192.5,192.5 0 1 1 -385,0 192.5,192.5 0 1 1 385,0 z"
         transform="matrix(1.2020779,0,0,1.2020779,-93.20363,-75.172466)"
         inkscape:export-xdpi="90"
         inkscape:export-ydpi="90" />
    </mask>
    <clipPath
       id="clipPath3006"
       clipPathUnits="userSpaceOnUse">
      <path
         inkscape:export-ydpi="90"
         inkscape:export-xdpi="90"
         transform="matrix(1.2020779,0,0,1.2020779,-93.20363,-75.172465)"
         d="m 483,275.5 a 192.5,192.5 0 1 1 -385,0 192.5,192.5 0 1 1 385,0 z"
         sodipodi:ry="192.5"
         sodipodi:rx="192.5"
         sodipodi:cy="275.5"
         sodipodi:cx="290.5"
         id="path3008"
         style="fill:#ffffff;fill-opacity:1;stroke:none;display:inline"
         sodipodi:type="arc" />
    </clipPath>
    <clipPath
       id="clipPath3006-9"
       clipPathUnits="userSpaceOnUse">
      <path
         inkscape:export-ydpi="90"
         inkscape:export-xdpi="90"
         transform="matrix(1.2020779,0,0,1.2020779,-93.20363,-75.172465)"
         d="m 483,275.5 a 192.5,192.5 0 1 1 -385,0 192.5,192.5 0 1 1 385,0 z"
         sodipodi:ry="192.5"
         sodipodi:rx="192.5"
         sodipodi:cy="275.5"
         sodipodi:cx="290.5"
         id="path3008-1"
         style="fill:#ffffff;fill-opacity:1;stroke:none;display:inline"
         sodipodi:type="arc" />
    </clipPath>
    <mask
       maskUnits="userSpaceOnUse"
       id="mask3818-0">
      <path
         inkscape:export-ydpi="90"
         inkscape:export-xdpi="90"
         transform="matrix(1.2020779,0,0,1.2020779,-93.20363,-75.172466)"
         d="m 483,275.5 a 192.5,192.5 0 1 1 -385,0 192.5,192.5 0 1 1 385,0 z"
         sodipodi:ry="192.5"
         sodipodi:rx="192.5"
         sodipodi:cy="275.5"
         sodipodi:cx="290.5"
         id="path3820-8"
         style="fill:#ffffff;fill-opacity:1;stroke:none;display:inline"
         sodipodi:type="arc" />
    </mask>
    <mask
       maskUnits="userSpaceOnUse"
       id="mask3818-2">
      <path
         inkscape:export-ydpi="90"
         inkscape:export-xdpi="90"
         transform="matrix(1.2020779,0,0,1.2020779,-93.20363,-75.172466)"
         d="m 483,275.5 a 192.5,192.5 0 1 1 -385,0 192.5,192.5 0 1 1 385,0 z"
         sodipodi:ry="192.5"
         sodipodi:rx="192.5"
         sodipodi:cy="275.5"
         sodipodi:cx="290.5"
         id="path3820-2-2"
         style="fill:#ffffff;fill-opacity:1;stroke:none;display:inline"
         sodipodi:type="arc" />
    </mask>
    <clipPath
       id="clipPath3934"
       clipPathUnits="userSpaceOnUse">
      <path
         id="path3936"
         d="m 0,0 0,1024 1024,0 L 1024,0 0,0 z m 278.4375,333.84375 119.78125,0 c 9.83697,42.31453 19.85954,84.58596 29.9375,126.84375 9.86978,-42.28798 20.05132,-84.50237 29.6875,-126.84375 l 108.90625,0 c 9.63586,42.34141 19.8178,84.55578 29.6875,126.84375 10.07827,-42.25772 20.10031,-84.52927 29.9375,-126.84375 l 119.1875,0 c -26.26221,110.73099 -52.49625,221.46929 -78.28125,332.3125 l -122.8125,0 c -10.59439,-45.55681 -21.46638,-91.04874 -32.375,-136.53125 -10.66279,45.51136 -21.5615,90.96897 -32,136.53125 l -122.8125,0 c -25.71418,-110.03502 -52.0286,-219.92873 -78.25,-329.84375 l -0.59375,-2.46875 z"
         style="fill:#ff3232;fill-opacity:1;stroke:none"
         inkscape:connector-curvature="0" />
    </clipPath>
    <clipPath
       id="clipPath3929"
       clipPathUnits="userSpaceOnUse">
      <path
         inkscape:connector-curvature="0"
         style="fill:#ff3232;fill-opacity:1;stroke:none"
         d="m 0,0 0,1024 1024,0 L 1024,0 0,0 z m 278.4375,333.84375 119.78125,0 c 9.83697,42.31453 19.85954,84.58596 29.9375,126.84375 9.86978,-42.28798 20.05132,-84.50237 29.6875,-126.84375 l 108.90625,0 c 9.63586,42.34141 19.8178,84.55578 29.6875,126.84375 10.07827,-42.25772 20.10031,-84.52927 29.9375,-126.84375 l 119.1875,0 c -26.26221,110.73099 -52.49625,221.46929 -78.28125,332.3125 l -122.8125,0 c -10.59439,-45.55681 -21.46638,-91.04874 -32.375,-136.53125 -10.66279,45.51136 -21.5615,90.96897 -32,136.53125 l -122.8125,0 c -25.71418,-110.03502 -52.0286,-219.92873 -78.25,-329.84375 l -0.59375,-2.46875 z"
         id="path3931" />
    </clipPath>
    <mask
       maskUnits="userSpaceOnUse"
       id="mask3818">
      <path
         inkscape:export-ydpi="90"
         inkscape:export-xdpi="90"
         transform="matrix(1.2020779,0,0,1.2020779,-93.20363,-75.172466)"
         d="m 483,275.5 a 192.5,192.5 0 1 1 -385,0 192.5,192.5 0 1 1 385,0 z"
         sodipodi:ry="192.5"
         sodipodi:rx="192.5"
         sodipodi:cy="275.5"
         sodipodi:cx="290.5"
         id="path3820"
         style="fill:#ffffff;fill-opacity:1;stroke:none;display:inline"
         sodipodi:type="arc" />
    </mask>
    <linearGradient
       inkscape:collect="always"
       xlink:href="#linearGradient4573"
       id="linearGradient4575"
       x1="408.84314"
       y1="89.26915"
       x2="420.61133"
       y2="138.41306"
       gradientUnits="userSpaceOnUse"
       gradientTransform="matrix(0.99657796,0,0,1,1.2520606,0)" />
    <linearGradient
       inkscape:collect="always"
       xlink:href="#linearGradient8384"
       id="linearGradient6771"
       gradientUnits="userSpaceOnUse"
       gradientTransform="matrix(0.99657796,0,0,1,1.3692481,-0.00390625)"
       x1="408.84314"
       y1="89.26915"
       x2="420.61133"
       y2="138.41306" />
  </defs>
  <metadata
     id="metadata4713">
    <rdf:RDF>
      <cc:Work
         rdf:about="">
        <dc:format>image/svg+xml</dc:format>
        <dc:type
           rdf:resource="http://purl.org/dc/dcmitype/StillImage" />
        <dc:title></dc:title>
      </cc:Work>
    </rdf:RDF>
  </metadata>
  <g
     id="layer1"
     inkscape:groupmode="layer"
     inkscape:label="Capa 1">
    <path
       style="opacity:1;fill:#394050;fill-opacity:1;fill-rule:evenodd;stroke:#ccd7dc;stroke-width:2;stroke-linejoin:round;stroke-miterlimit:4;stroke-dasharray:none;stroke-dashoffset:0;stroke-opacity:1;paint-order:normal"
       d="m 97.583979,29.700195 c -11.07875,0 -19.99804,9.65194 -19.99804,21.64062 V 460.66113 c 0,11.9887 8.91929,21.63867 19.99804,21.63867 H 414.41602 c 11.07874,0 19.99804,-9.64997 19.99804,-21.63867 V 113.7959 c -0.33411,-0.32981 -0.46874,-0.43168 -0.81445,-0.77345 -9.64188,-9.53205 -23.80681,-23.701345 -37.64453,-37.822255 -6.91884,-7.06045 -13.75546,-14.10994 -19.9043,-20.56055 -6.14876,-6.45062 -11.60929,-12.30327 -15.77539,-16.97265 -3.0827,-3.45513 -4.82334,-5.68286 -6.625,-7.9668 z"
       id="path4506"
       inkscape:connector-curvature="0"
       sodipodi:nodetypes="ssssssccccccs" />
    <g
       id="g4584"
       transform="matrix(0.3829248,0,0,0.3829248,74.406719,31.973725)"
       style="fill:#75abd3;fill-opacity:1;stroke:#9dc4df;stroke-opacity:1" />
    <path
       style="opacity:1;fill:#ccd7dc;fill-opacity:1;fill-rule:evenodd;stroke:#7794a1;stroke-width:0.94694382;stroke-linecap:square;stroke-linejoin:miter;stroke-miterlimit:4;stroke-dasharray:none;stroke-dashoffset:0;stroke-opacity:1;paint-order:markers fill stroke"
       d="M 135.57422 380.81641 C 131.59838 380.81641 128.00545 381.34045 124.79688 382.38672 C 121.5883 383.36324 118.83305 384.86197 116.53125 386.88477 C 114.2992 388.83781 112.55631 391.24565 111.30078 394.10547 C 110.04525 396.96528 109.41797 400.24262 109.41797 403.93945 C 109.41797 406.93877 109.80109 409.55506 110.56836 411.78711 C 111.40538 414.01916 112.5567 416.00621 114.02148 417.75 C 115.48627 419.42404 117.22916 420.889 119.25195 422.14453 C 121.3445 423.40006 123.64715 424.4819 126.1582 425.38867 L 132.01562 427.58594 C 132.9224 427.9347 133.79579 428.31782 134.63281 428.73633 C 135.53958 429.08509 136.34155 429.53964 137.03906 430.09766 C 137.73658 430.65567 138.29438 431.35243 138.71289 432.18945 C 139.1314 432.95672 139.33984 433.89765 139.33984 435.01367 C 139.33984 437.66423 138.32944 439.54804 136.30664 440.66406 C 134.3536 441.71034 131.59835 442.23438 128.04102 442.23438 C 123.29791 442.23437 117.71792 440.83889 111.30078 438.04883 C 110.32426 440.90864 109.48658 443.73338 108.78906 446.52344 C 108.09155 449.24375 107.60322 451.82432 107.32422 454.26562 C 111.16055 455.73041 114.71777 456.81225 117.99609 457.50977 C 121.34417 458.20728 125.18126 458.55469 129.50586 458.55469 C 134.24897 458.55469 138.43347 457.99688 142.06055 456.88086 C 145.75738 455.69508 148.86199 454.05739 151.37305 451.96484 C 153.8841 449.80255 155.76791 447.25574 157.02344 444.32617 C 158.34872 441.32685 159.00977 437.97808 159.00977 434.28125 C 159.00977 430.86342 158.55716 427.96921 157.65039 425.59766 C 156.74362 423.15635 155.45333 421.09982 153.7793 419.42578 C 152.10526 417.68199 150.08249 416.21703 147.71094 415.03125 C 145.40914 413.77572 142.79285 412.55492 139.86328 411.36914 L 134.8418 409.38086 C 133.02826 408.68334 131.45809 407.84566 130.13281 406.86914 C 128.80753 405.89262 128.14453 404.39389 128.14453 402.37109 C 128.14453 401.18532 128.38869 400.20867 128.87695 399.44141 C 129.36521 398.60439 129.99445 397.9771 130.76172 397.55859 C 131.59874 397.07033 132.50395 396.72097 133.48047 396.51172 C 134.52674 396.30246 135.60858 396.19727 136.72461 396.19727 C 140.35169 396.19727 143.38682 396.61611 145.82812 397.45312 C 148.26943 398.29014 150.39544 399.09211 152.20898 399.85938 C 153.32501 397.48782 154.23217 394.97673 154.92969 392.32617 C 155.69695 389.60586 156.22099 387.13049 156.5 384.89844 C 152.73342 383.57316 149.1762 382.5608 145.82812 381.86328 C 142.5498 381.16577 139.13155 380.81641 135.57422 380.81641 z M 192.97266 401.95117 C 188.64806 401.95117 184.81097 402.64989 181.46289 404.04492 C 178.11482 405.43995 175.29008 407.39324 172.98828 409.9043 C 170.68648 412.3456 168.94164 415.3093 167.75586 418.79688 C 166.57008 422.28445 165.97852 426.12155 165.97852 430.30664 C 165.97852 434.63124 166.57008 438.53586 167.75586 442.02344 C 168.94164 445.44126 170.68648 448.40691 172.98828 450.91797 C 175.35983 453.35927 178.25405 455.24308 181.67188 456.56836 C 185.0897 457.89364 189.03004 458.55469 193.49414 458.55469 C 196.1447 458.55469 198.79671 458.38196 201.44727 458.0332 C 204.09782 457.68445 207.0258 456.88053 210.23438 455.625 C 210.23438 452.62568 209.88697 449.97563 209.18945 447.67383 C 208.49194 445.30228 207.54906 443.17431 206.36328 441.29102 C 204.34049 442.05828 202.56188 442.61804 201.02734 442.9668 C 199.56256 443.31555 197.81967 443.48828 195.79688 443.48828 C 194.19259 443.48828 192.65814 443.27984 191.19336 442.86133 C 189.79833 442.44282 188.54181 441.74605 187.42578 440.76953 C 186.37951 439.79301 185.50806 438.46701 184.81055 436.79297 C 184.18278 435.04918 183.86914 432.88745 183.86914 430.30664 C 183.86914 425.42403 184.95098 422.00578 187.11328 420.05273 C 189.34533 418.02994 192.13435 417.01758 195.48242 417.01758 C 196.38919 417.01758 197.22687 417.0533 197.99414 417.12305 C 198.83116 417.12305 199.66884 417.19253 200.50586 417.33203 C 201.34288 417.47153 202.21432 417.68193 203.12109 417.96094 C 204.09762 418.17019 205.1775 418.48383 206.36328 418.90234 C 207.54906 416.67029 208.42246 414.40336 208.98047 412.10156 C 209.53848 409.73001 209.74692 407.35788 209.60742 404.98633 C 207.93338 404.35856 206.39894 403.83452 205.00391 403.41602 C 203.67863 402.99751 202.35262 402.68386 201.02734 402.47461 C 199.77182 402.26535 198.48153 402.12639 197.15625 402.05664 C 195.83097 401.98689 194.43744 401.95117 192.97266 401.95117 z M 238.03516 401.95117 C 234.89634 401.95117 231.54756 402.09209 227.99023 402.37109 C 224.50266 402.6501 221.12012 402.99751 217.8418 403.41602 L 217.8418 457.19531 C 219.65534 457.54407 221.25927 457.75251 222.6543 457.82227 C 224.04933 457.96177 225.33961 458.0332 226.52539 458.0332 C 227.64142 458.0332 228.9317 457.96177 230.39648 457.82227 C 231.86127 457.75251 233.50091 457.54407 235.31445 457.19531 L 235.31445 416.07617 C 236.01197 415.93667 237.02433 415.86719 238.34961 415.86719 C 240.72116 415.86719 242.43029 416.46071 243.47656 417.64648 C 244.59259 418.76251 245.15039 420.22748 245.15039 422.04102 C 245.15039 423.85456 244.69583 425.56368 243.78906 427.16797 C 242.88229 428.7025 241.20888 430.16747 238.76758 431.5625 L 237.30273 432.39844 L 248.91602 457.08984 C 250.10179 457.36885 251.60248 457.57925 253.41602 457.71875 C 255.22956 457.85825 257.11141 457.92773 259.06445 457.92773 C 260.66874 457.92773 262.30838 457.85825 263.98242 457.71875 C 265.72621 457.57925 267.29638 457.36885 268.69141 457.08984 L 256.76367 434.28125 C 257.25193 433.86274 257.87922 433.30494 258.64648 432.60742 C 259.41375 431.90991 260.14623 431.00274 260.84375 429.88672 C 261.54127 428.70094 262.13479 427.30741 262.62305 425.70312 C 263.11131 424.09884 263.35547 422.21503 263.35547 420.05273 C 263.35547 414.33311 261.2275 409.90445 256.97266 406.76562 C 252.78756 403.55705 246.4751 401.95117 238.03516 401.95117 z M 324.36133 401.95117 C 321.22251 401.95117 317.94322 402.09209 314.52539 402.37109 C 311.17732 402.58035 307.89998 402.92775 304.69141 403.41602 L 304.69141 457.19531 C 306.50495 457.54407 308.07316 457.75251 309.39844 457.82227 C 310.79347 457.96177 312.08375 458.0332 313.26953 458.0332 C 314.38556 458.0332 315.64208 457.96177 317.03711 457.82227 C 318.50189 457.75251 320.14154 457.54407 321.95508 457.19531 L 321.95508 444.32617 C 322.16433 444.39592 322.68642 444.4654 323.52344 444.53516 C 324.36046 444.60491 325.37282 444.64063 326.55859 444.64062 C 329.48816 444.64063 332.34666 444.29127 335.13672 443.59375 C 337.99653 442.82648 340.54334 441.60568 342.77539 439.93164 C 345.00744 438.2576 346.78605 436.06015 348.11133 433.33984 C 349.50636 430.61953 350.20312 427.27271 350.20312 423.29688 C 350.20312 418.90253 349.43688 415.34531 347.90234 412.625 C 346.43756 409.83494 344.48427 407.67125 342.04297 406.13672 C 339.60166 404.53243 336.84641 403.45254 333.77734 402.89453 C 330.70828 402.26677 327.5699 401.95117 324.36133 401.95117 z M 284.1582 402.26562 C 282.76317 402.26562 281.29821 402.33511 279.76367 402.47461 C 278.29889 402.61411 276.79821 402.85827 275.26367 403.20703 L 275.26367 457.19531 C 277.00746 457.47432 278.61334 457.68276 280.07812 457.82227 C 281.54291 457.96177 282.86696 458.0332 284.05273 458.0332 C 285.23851 458.0332 286.56451 457.96177 288.0293 457.82227 C 289.49408 457.68276 291.13373 457.47432 292.94727 457.19531 L 292.94727 403.20703 C 291.48248 402.85827 289.9818 402.61411 288.44727 402.47461 C 286.91273 402.33511 285.48348 402.26562 284.1582 402.26562 z M 355.1875 403.20703 C 354.83874 404.60206 354.59458 405.89235 354.45508 407.07812 C 354.38533 408.2639 354.34961 409.41523 354.34961 410.53125 C 354.34961 411.64727 354.38533 412.83236 354.45508 414.08789 C 354.59458 415.27367 354.83874 416.56591 355.1875 417.96094 L 370.67188 417.96094 L 370.67188 457.19531 C 372.41566 457.47432 374.01959 457.68276 375.48438 457.82227 C 376.94916 457.96177 378.27516 458.0332 379.46094 458.0332 C 380.64671 458.0332 381.97076 457.96177 383.43555 457.82227 C 384.90033 457.68276 386.53998 457.47432 388.35352 457.19531 L 388.35352 417.96094 L 403.83789 417.96094 C 404.18665 416.56591 404.39705 415.27367 404.4668 414.08789 C 404.6063 412.83236 404.67578 411.64727 404.67578 410.53125 C 404.67578 409.41523 404.6063 408.2639 404.4668 407.07812 C 404.39705 405.89235 404.18665 404.60206 403.83789 403.20703 L 355.1875 403.20703 z M 323.52344 415.44922 L 324.7793 415.44922 C 327.0811 415.44922 328.99867 416.14598 330.5332 417.54102 C 332.13749 418.8663 332.93945 420.78582 332.93945 423.29688 C 332.93945 426.22644 332.13749 428.31869 330.5332 429.57422 C 328.99867 430.76 327.01162 431.35156 324.57031 431.35156 L 323.21094 431.35156 C 322.72268 431.28181 322.30384 431.21233 321.95508 431.14258 L 321.95508 415.55273 C 322.51309 415.48298 323.03518 415.44922 323.52344 415.44922 z "
       id="rect4610-3" />
    <path
       style="opacity:1;fill:url(#linearGradient6771);fill-opacity:1;fill-rule:evenodd;stroke:none;stroke-width:8.77774811;stroke-linecap:square;stroke-linejoin:miter;stroke-miterlimit:4;stroke-dasharray:none;stroke-dashoffset:0;stroke-opacity:1;paint-order:markers fill stroke"
       d="m 433.40658,182.37194 v -69.47028 c 0,-0.0394 -0.0309,-0.0705 -0.0703,-0.0705 h -67.33747 c 4.09851,4.50878 8.40749,9.2132 13.77948,14.86279 7.205,7.57734 15.21697,15.8602 23.32513,24.15489 11.13885,11.3951 20.83136,21.05949 30.30308,30.52302 z"
       id="path4566"
       inkscape:connector-curvature="0" />
    <path
       style="opacity:1;fill:#ccd7dc;fill-opacity:1;fill-rule:evenodd;stroke:none;stroke-width:1.05391276;stroke-linejoin:round;stroke-miterlimit:4;stroke-dasharray:none;stroke-dashoffset:0;stroke-opacity:1;paint-order:normal"
       d="m 435.00048,114.60612 c -1.83541,-2.30475 -3.6077,-4.55306 -6.74972,-8.04125 -4.24635,-4.71409 -9.8132,-10.623129 -16.08223,-17.137261 C 405.8996,82.913483 398.92921,75.794273 391.8744,68.663457 377.76477,54.401804 363.32068,40.090503 353.48814,30.462087 c -0.35278,-0.345219 -0.4898,-0.448268 -0.83055,-0.781422 l -0.24394,62.802323 c -0.0467,12.055462 9.04538,21.800782 20.38588,21.850482 z"
       id="rect4485"
       inkscape:connector-curvature="0" />
    <path
       style="opacity:1;fill:#5b6782;fill-opacity:1;fill-rule:evenodd;stroke:none;stroke-width:1.47641361;stroke-linecap:square;stroke-linejoin:miter;stroke-miterlimit:4;stroke-dasharray:none;stroke-dashoffset:0;stroke-opacity:1;paint-order:markers fill stroke"
       d="m 218.09515,66.046453 c -1.04689,0 -2.33272,0.09481 -3.85547,0.28516 -1.52275,0.09517 -3.04561,0.38156 -4.56836,0.85742 v 12.84766 c -7.99445,1.42758 -14.2755,4.66291 -18.84375,9.70703 -4.47308,4.94894 -6.70899,11.611187 -6.70899,19.986327 0,3.99722 0.52343,7.47154 1.57032,10.42187 1.14206,2.85516 2.61556,5.37745 4.42382,7.56641 1.90344,2.09378 4.1413,3.90107 6.71094,5.42382 2.56965,1.52276 5.28156,2.90339 8.13672,4.14063 l 7.56641,3.14063 c 3.23584,1.3324 5.94776,2.80785 8.13672,4.42578 2.28412,1.52275 3.42578,3.75865 3.42578,6.70898 0,3.33102 -1.28388,5.80591 -3.85352,7.42383 -2.56964,1.52275 -6.23359,2.2832 -10.99219,2.2832 -3.33101,0 -6.80534,-0.42665 -10.42187,-1.2832 -3.61653,-0.95172 -7.66168,-2.37977 -12.13477,-4.2832 -1.3324,3.99722 -2.47406,7.75598 -3.42578,11.27734 -0.85655,3.52136 -1.47478,6.99568 -1.85547,10.42187 2.56965,1.0469 4.94777,1.95152 7.13672,2.7129 2.18896,0.76137 4.37941,1.3796 6.56836,1.85546 2.28413,0.47586 4.56744,0.80771 6.85156,0.99805 2.3793,0.28552 4.949,0.42969 7.70899,0.42969 v 14.98828 c 1.52275,0.47586 3.04561,0.76225 4.56836,0.85742 1.52275,0.19035 2.80858,0.28516 3.85547,0.28516 1.04689,0 2.33076,-0.0948 3.85351,-0.28516 1.61793,-0.0952 3.14078,-0.38156 4.56836,-0.85742 v -16.84375 c 7.8041,-2.18896 13.75136,-6.04448 17.84375,-11.56445 4.18757,-5.51998 6.28321,-12.13483 6.28321,-19.84375 0,-4.85377 -0.6676,-8.94633 -2,-12.27735 -1.23724,-3.33102 -2.94972,-6.13775 -5.13868,-8.42187 -2.18895,-2.28413 -4.71124,-4.18819 -7.5664,-5.71094 -2.85516,-1.52275 -5.90088,-2.90144 -9.13672,-4.13867 l -7.99414,-2.99805 c -2.28413,-0.85655 -4.42522,-1.95079 -6.42383,-3.2832 -1.90344,-1.42758 -2.85547,-3.52322 -2.85547,-6.28321 0,-1.52275 0.28639,-2.71181 0.85742,-3.56835 0.66621,-0.95172 1.47406,-1.66477 2.42578,-2.14063 1.0469,-0.57103 2.14114,-0.90483 3.28321,-1 1.23723,-0.19034 2.47565,-0.28516 3.71289,-0.28516 4.94894,0 8.99214,0.47602 12.13281,1.42774 3.14067,0.95172 6.33056,2.14078 9.56641,3.56836 3.23584,-7.137897 5.18536,-13.894967 5.85156,-20.271487 -3.80688,-1.3324 -7.42342,-2.42665 -10.84961,-3.2832 -3.33102,-0.85655 -6.66117,-1.47478 -9.99219,-1.85547 v -12.41992 c -1.42758,-0.47586 -2.95043,-0.76225 -4.56836,-0.85742 -1.52275,-0.19035 -2.80662,-0.28516 -3.85351,-0.28516 z m -52.79297,44.826167 c -1.33241,1.23724 -2.52147,2.23667 -3.56836,2.99805 -1.04689,0.6662 -2.04633,1.23703 -2.99805,1.71289 -0.85655,0.38069 -1.6644,0.66708 -2.42578,0.85742 -0.76138,0.0952 -1.57119,0.14258 -2.42773,0.14258 -1.90344,0 -3.7601,-0.28639 -5.56836,-0.85742 l -5.42383,-1.71289 c -2.09378,-0.76138 -4.14006,-1.42702 -6.13867,-1.99805 -1.99861,-0.57103 -4.0923,-0.85742 -6.28125,-0.85742 -4.56826,0 -8.66081,0.99944 -12.27735,2.99805 -3.61653,1.90344 -6.56743,4.18674 -8.85156,6.85156 0.76138,2.85516 1.9998,5.66384 3.71289,8.42383 1.80827,2.66481 3.85455,5.1871 6.13867,7.5664 1.42758,-1.23723 2.61664,-2.23667 3.56836,-2.99804 1.04689,-0.76138 1.99892,-1.33221 2.85547,-1.71289 0.85655,-0.38069 1.66441,-0.61968 2.42578,-0.71485 0.85655,-0.0952 1.71377,-0.14258 2.57031,-0.14258 1.61793,0 3.283,0.28639 4.9961,0.85743 1.71309,0.47586 3.52234,0.99928 5.42578,1.57031 2.09378,0.76137 4.18747,1.42701 6.28125,1.99805 2.18895,0.57103 4.42486,0.85742 6.70898,0.85742 4.56826,0 8.66081,-0.90463 12.27735,-2.71289 3.61653,-1.90344 6.61484,-4.23611 8.99414,-6.9961 -0.85655,-2.66481 -2.14237,-5.42414 -3.85547,-8.27929 -1.61792,-2.85516 -3.6642,-5.47227 -6.13867,-7.85157 z m 95.32422,71.23633 c -0.47586,2.09378 -0.80771,3.80627 -0.99805,5.13867 -0.19034,1.42758 -0.28516,2.666 -0.28516,3.71289 0,1.33241 0.0474,2.7111 0.14258,4.13868 0.19035,1.52275 0.52219,3.28459 0.99805,5.2832 h 68.95312 c 0.47586,-2.28413 0.80771,-4.09337 0.99805,-5.42578 0.19034,-1.23724 0.28711,-2.37889 0.28711,-3.42578 0,-1.42758 -0.0968,-2.85563 -0.28711,-4.28321 -0.0952,-1.42758 -0.37961,-3.14006 -0.85547,-5.13867 z"
       id="rect5522"
       inkscape:connector-curvature="0" />
  </g>
</svg>
