<?xml version="1.0" encoding="UTF-8" standalone="no"?>
<!-- Created with Inkscape (http://www.inkscape.org/) -->

<svg
   xmlns:osb="http://www.openswatchbook.org/uri/2009/osb"
   xmlns:dc="http://purl.org/dc/elements/1.1/"
   xmlns:cc="http://creativecommons.org/ns#"
   xmlns:rdf="http://www.w3.org/1999/02/22-rdf-syntax-ns#"
   xmlns:svg="http://www.w3.org/2000/svg"
   xmlns="http://www.w3.org/2000/svg"
   xmlns:xlink="http://www.w3.org/1999/xlink"
   xmlns:sodipodi="http://sodipodi.sourceforge.net/DTD/sodipodi-0.dtd"
   xmlns:inkscape="http://www.inkscape.org/namespaces/inkscape"
   width="512px"
   height="512px"
   viewBox="0 0 512 512"
   version="1.1"
   id="SVGRoot"
   inkscape:version="0.92.1 r15371"
   sodipodi:docname="javascript.svg">
  <sodipodi:namedview
     id="base"
     pagecolor="#ffffff"
     bordercolor="#666666"
     borderopacity="1.0"
     inkscape:pageopacity="0.0"
     inkscape:pageshadow="2"
     inkscape:zoom="1"
     inkscape:cx="-8.33857"
     inkscape:cy="235.69379"
     inkscape:document-units="px"
     inkscape:current-layer="layer1"
     showgrid="false"
     inkscape:window-width="1280"
     inkscape:window-height="947"
     inkscape:window-x="0"
     inkscape:window-y="0"
     inkscape:window-maximized="1" />
  <defs
     id="defs4710">
    <linearGradient
       inkscape:collect="always"
       id="linearGradient4573">
      <stop
         style="stop-color:#181818;stop-opacity:0.30645162"
         offset="0"
         id="stop4569" />
      <stop
         style="stop-color:#404040;stop-opacity:0"
         offset="1"
         id="stop4571" />
    </linearGradient>
    <marker
       inkscape:stockid="DotM"
       orient="auto"
       refY="0.0"
       refX="0.0"
       id="DotM"
       style="overflow:visible"
       inkscape:isstock="true">
      <path
         id="path4618"
         d="M -2.5,-1.0 C -2.5,1.7600000 -4.7400000,4.0 -7.5,4.0 C -10.260000,4.0 -12.5,1.7600000 -12.5,-1.0 C -12.5,-3.7600000 -10.260000,-6.0 -7.5,-6.0 C -4.7400000,-6.0 -2.5,-3.7600000 -2.5,-1.0 z "
         style="fill-rule:evenodd;stroke:#000000;stroke-width:1.0pt"
         transform="scale(0.4) translate(7.4, 1)" />
    </marker>
    <linearGradient
       osb:paint="solid"
       id="linearGradient5207">
      <stop
         id="stop5209"
         offset="0"
         style="stop-color:#000015;stop-opacity:1;" />
    </linearGradient>
    <clipPath
       id="clipPath3006-9-8"
       clipPathUnits="userSpaceOnUse">
      <path
         inkscape:export-ydpi="90"
         inkscape:export-xdpi="90"
         transform="matrix(1.2020779,0,0,1.2020779,-93.20363,-75.172465)"
         d="m 483,275.5 a 192.5,192.5 0 1 1 -385,0 192.5,192.5 0 1 1 385,0 z"
         sodipodi:ry="192.5"
         sodipodi:rx="192.5"
         sodipodi:cy="275.5"
         sodipodi:cx="290.5"
         id="path3008-1-1"
         style="fill:#ffffff;fill-opacity:1;stroke:none;display:inline"
         sodipodi:type="arc" />
    </clipPath>
    <mask
       id="mask3818-4"
       maskUnits="userSpaceOnUse">
      <path
         sodipodi:type="arc"
         style="fill:#ffffff;fill-opacity:1;stroke:none;display:inline"
         id="path3820-9"
         sodipodi:cx="290.5"
         sodipodi:cy="275.5"
         sodipodi:rx="192.5"
         sodipodi:ry="192.5"
         d="m 483,275.5 a 192.5,192.5 0 1 1 -385,0 192.5,192.5 0 1 1 385,0 z"
         transform="matrix(1.2020779,0,0,1.2020779,-93.20363,-75.172466)"
         inkscape:export-xdpi="90"
         inkscape:export-ydpi="90" />
    </mask>
    <clipPath
       id="clipPath3006"
       clipPathUnits="userSpaceOnUse">
      <path
         inkscape:export-ydpi="90"
         inkscape:export-xdpi="90"
         transform="matrix(1.2020779,0,0,1.2020779,-93.20363,-75.172465)"
         d="m 483,275.5 a 192.5,192.5 0 1 1 -385,0 192.5,192.5 0 1 1 385,0 z"
         sodipodi:ry="192.5"
         sodipodi:rx="192.5"
         sodipodi:cy="275.5"
         sodipodi:cx="290.5"
         id="path3008"
         style="fill:#ffffff;fill-opacity:1;stroke:none;display:inline"
         sodipodi:type="arc" />
    </clipPath>
    <clipPath
       id="clipPath3006-9"
       clipPathUnits="userSpaceOnUse">
      <path
         inkscape:export-ydpi="90"
         inkscape:export-xdpi="90"
         transform="matrix(1.2020779,0,0,1.2020779,-93.20363,-75.172465)"
         d="m 483,275.5 a 192.5,192.5 0 1 1 -385,0 192.5,192.5 0 1 1 385,0 z"
         sodipodi:ry="192.5"
         sodipodi:rx="192.5"
         sodipodi:cy="275.5"
         sodipodi:cx="290.5"
         id="path3008-1"
         style="fill:#ffffff;fill-opacity:1;stroke:none;display:inline"
         sodipodi:type="arc" />
    </clipPath>
    <mask
       maskUnits="userSpaceOnUse"
       id="mask3818-0">
      <path
         inkscape:export-ydpi="90"
         inkscape:export-xdpi="90"
         transform="matrix(1.2020779,0,0,1.2020779,-93.20363,-75.172466)"
         d="m 483,275.5 a 192.5,192.5 0 1 1 -385,0 192.5,192.5 0 1 1 385,0 z"
         sodipodi:ry="192.5"
         sodipodi:rx="192.5"
         sodipodi:cy="275.5"
         sodipodi:cx="290.5"
         id="path3820-8"
         style="fill:#ffffff;fill-opacity:1;stroke:none;display:inline"
         sodipodi:type="arc" />
    </mask>
    <mask
       maskUnits="userSpaceOnUse"
       id="mask3818-2">
      <path
         inkscape:export-ydpi="90"
         inkscape:export-xdpi="90"
         transform="matrix(1.2020779,0,0,1.2020779,-93.20363,-75.172466)"
         d="m 483,275.5 a 192.5,192.5 0 1 1 -385,0 192.5,192.5 0 1 1 385,0 z"
         sodipodi:ry="192.5"
         sodipodi:rx="192.5"
         sodipodi:cy="275.5"
         sodipodi:cx="290.5"
         id="path3820-2-2"
         style="fill:#ffffff;fill-opacity:1;stroke:none;display:inline"
         sodipodi:type="arc" />
    </mask>
    <clipPath
       id="clipPath3934"
       clipPathUnits="userSpaceOnUse">
      <path
         id="path3936"
         d="m 0,0 0,1024 1024,0 L 1024,0 0,0 z m 278.4375,333.84375 119.78125,0 c 9.83697,42.31453 19.85954,84.58596 29.9375,126.84375 9.86978,-42.28798 20.05132,-84.50237 29.6875,-126.84375 l 108.90625,0 c 9.63586,42.34141 19.8178,84.55578 29.6875,126.84375 10.07827,-42.25772 20.10031,-84.52927 29.9375,-126.84375 l 119.1875,0 c -26.26221,110.73099 -52.49625,221.46929 -78.28125,332.3125 l -122.8125,0 c -10.59439,-45.55681 -21.46638,-91.04874 -32.375,-136.53125 -10.66279,45.51136 -21.5615,90.96897 -32,136.53125 l -122.8125,0 c -25.71418,-110.03502 -52.0286,-219.92873 -78.25,-329.84375 l -0.59375,-2.46875 z"
         style="fill:#ff3232;fill-opacity:1;stroke:none"
         inkscape:connector-curvature="0" />
    </clipPath>
    <clipPath
       id="clipPath3929"
       clipPathUnits="userSpaceOnUse">
      <path
         inkscape:connector-curvature="0"
         style="fill:#ff3232;fill-opacity:1;stroke:none"
         d="m 0,0 0,1024 1024,0 L 1024,0 0,0 z m 278.4375,333.84375 119.78125,0 c 9.83697,42.31453 19.85954,84.58596 29.9375,126.84375 9.86978,-42.28798 20.05132,-84.50237 29.6875,-126.84375 l 108.90625,0 c 9.63586,42.34141 19.8178,84.55578 29.6875,126.84375 10.07827,-42.25772 20.10031,-84.52927 29.9375,-126.84375 l 119.1875,0 c -26.26221,110.73099 -52.49625,221.46929 -78.28125,332.3125 l -122.8125,0 c -10.59439,-45.55681 -21.46638,-91.04874 -32.375,-136.53125 -10.66279,45.51136 -21.5615,90.96897 -32,136.53125 l -122.8125,0 c -25.71418,-110.03502 -52.0286,-219.92873 -78.25,-329.84375 l -0.59375,-2.46875 z"
         id="path3931" />
    </clipPath>
    <mask
       maskUnits="userSpaceOnUse"
       id="mask3818">
      <path
         inkscape:export-ydpi="90"
         inkscape:export-xdpi="90"
         transform="matrix(1.2020779,0,0,1.2020779,-93.20363,-75.172466)"
         d="m 483,275.5 a 192.5,192.5 0 1 1 -385,0 192.5,192.5 0 1 1 385,0 z"
         sodipodi:ry="192.5"
         sodipodi:rx="192.5"
         sodipodi:cy="275.5"
         sodipodi:cx="290.5"
         id="path3820"
         style="fill:#ffffff;fill-opacity:1;stroke:none;display:inline"
         sodipodi:type="arc" />
    </mask>
    <linearGradient
       inkscape:collect="always"
       xlink:href="#linearGradient4573"
       id="linearGradient4575"
       x1="408.84314"
       y1="89.26915"
       x2="420.61133"
       y2="138.41306"
       gradientUnits="userSpaceOnUse"
       gradientTransform="matrix(0.99657796,0,0,1,1.2520606,0)" />
    <linearGradient
       inkscape:collect="always"
       xlink:href="#linearGradient4573"
       id="linearGradient6771"
       gradientUnits="userSpaceOnUse"
       gradientTransform="matrix(0.99657796,0,0,1,1.2520606,0)"
       x1="408.84314"
       y1="89.26915"
       x2="420.61133"
       y2="138.41306" />
  </defs>
  <metadata
     id="metadata4713">
    <rdf:RDF>
      <cc:Work
         rdf:about="">
        <dc:format>image/svg+xml</dc:format>
        <dc:type
           rdf:resource="http://purl.org/dc/dcmitype/StillImage" />
        <dc:title />
      </cc:Work>
    </rdf:RDF>
  </metadata>
  <g
     id="layer1"
     inkscape:groupmode="layer"
     inkscape:label="Capa 1">
    <path
       style="opacity:1;fill:#c75e00;fill-opacity:1;fill-rule:evenodd;stroke:#f17100;stroke-width:2;stroke-linejoin:round;stroke-miterlimit:4;stroke-dasharray:none;stroke-dashoffset:0;stroke-opacity:1;paint-order:normal"
       d="m 97.583979,29.700195 c -11.07875,0 -19.99804,9.65194 -19.99804,21.64062 V 460.66113 c 0,11.9887 8.91929,21.63867 19.99804,21.63867 H 414.41602 c 11.07874,0 19.99804,-9.64997 19.99804,-21.63867 V 113.7959 c -0.33411,-0.32981 -0.46874,-0.43168 -0.81445,-0.77345 -9.64188,-9.53205 -23.80681,-23.701345 -37.64453,-37.822255 -6.91884,-7.06045 -13.75546,-14.10994 -19.9043,-20.56055 -6.14876,-6.45062 -11.60929,-12.30327 -15.77539,-16.97265 -3.0827,-3.45513 -4.82334,-5.68286 -6.625,-7.9668 z"
       id="path4506"
       inkscape:connector-curvature="0"
       sodipodi:nodetypes="ssssssccccccs" />
    <g
       id="g4584"
       transform="matrix(0.3829248,0,0,0.3829248,74.406719,31.973725)"
       style="fill:#75abd3;fill-opacity:1;stroke:#9dc4df;stroke-opacity:1" />
    <path
       style="opacity:1;fill:url(#linearGradient6771);fill-opacity:1;fill-rule:evenodd;stroke:none;stroke-width:8.77774811;stroke-linecap:square;stroke-linejoin:miter;stroke-miterlimit:4;stroke-dasharray:none;stroke-dashoffset:0;stroke-opacity:1;paint-order:markers fill stroke"
       d="m 433.28939,182.37584 v -69.47028 c 0,-0.0394 -0.0309,-0.0705 -0.0703,-0.0705 h -67.33747 c 4.09851,4.50878 8.40749,9.2132 13.77948,14.86279 7.205,7.57734 15.21697,15.8602 23.32513,24.15489 11.13885,11.3951 20.83136,21.05949 30.30308,30.52302 z"
       id="path4566"
       inkscape:connector-curvature="0" />
    <path
       style="opacity:1;fill:#f17100;fill-opacity:1;fill-rule:evenodd;stroke:none;stroke-width:1.05391276;stroke-linejoin:round;stroke-miterlimit:4;stroke-dasharray:none;stroke-dashoffset:0;stroke-opacity:1;paint-order:normal"
       d="m 435.00048,114.60612 c -1.83541,-2.30475 -3.6077,-4.55306 -6.74972,-8.04125 -4.24635,-4.71409 -9.8132,-10.623129 -16.08223,-17.137261 C 405.8996,82.913483 398.92921,75.794273 391.8744,68.663457 377.76477,54.401804 363.32068,40.090503 353.48814,30.462087 c -0.35278,-0.345219 -0.4898,-0.448268 -0.83055,-0.781422 l -0.24394,62.802323 c -0.0467,12.055462 9.04538,21.800782 20.38588,21.850482 z"
       id="rect4485"
       inkscape:connector-curvature="0" />
    <g
       id="g4735"
       transform="matrix(0.67569786,0,0,0.67569786,153.7192,95.680712)"
       style="fill:#fffcf9;fill-opacity:1">
      <path
         id="path4704"
         d="m 102.681,291.324 c 0,0 -14.178,8.245 10.09,11.035 29.4,3.354 44.426,2.873 76.825,-3.259 0,0 8.518,5.341 20.414,9.967 -72.63,31.128 -164.376,-1.803 -107.329,-17.743"
         style="fill:#fffcf9;fill-opacity:1"
         inkscape:connector-curvature="0" />
      <path
         id="path4706"
         d="m 93.806,250.704 c 0,0 -15.902,11.771 8.384,14.283 31.406,3.24 56.208,3.505 99.125,-4.759 0,0 5.936,6.018 15.27,9.309 -87.814,25.678 -185.623,2.025 -122.779,-18.833"
         style="fill:#fffcf9;fill-opacity:1"
         inkscape:connector-curvature="0" />
      <path
         id="path4708"
         d="m 168.625,181.799 c 17.896,20.604 -4.702,39.145 -4.702,39.145 0,0 45.441,-23.458 24.572,-52.833 -19.491,-27.394 -34.438,-41.005 46.479,-87.934 0,0 -127.013,31.722 -66.349,101.622"
         style="fill:#fffcf9;fill-opacity:1"
         inkscape:connector-curvature="0" />
      <path
         id="path4710"
         d="m 264.684,321.369 c 0,0 10.492,8.645 -11.555,15.333 -41.923,12.7 -174.488,16.535 -211.314,0.506 -13.238,-5.759 11.587,-13.751 19.396,-15.428 8.144,-1.766 12.798,-1.437 12.798,-1.437 -14.722,-10.371 -95.157,20.364 -40.857,29.166 148.084,24.015 269.943,-10.814 231.532,-28.14"
         style="fill:#fffcf9;fill-opacity:1"
         inkscape:connector-curvature="0" />
      <path
         id="path4712"
         d="m 109.499,208.617 c 0,0 -67.431,16.016 -23.879,21.832 18.389,2.462 55.047,1.905 89.193,-0.956 27.906,-2.354 55.927,-7.359 55.927,-7.359 0,0 -9.84,4.214 -16.959,9.075 -68.475,18.009 -200.756,9.631 -162.674,-8.79 32.206,-15.568 58.392,-13.802 58.392,-13.802"
         style="fill:#fffcf9;fill-opacity:1"
         inkscape:connector-curvature="0" />
      <path
         id="path4714"
         d="m 230.462,276.231 c 69.608,-36.171 37.424,-70.931 14.96,-66.248 -5.506,1.146 -7.961,2.139 -7.961,2.139 0,0 2.044,-3.202 5.948,-4.588 44.441,-15.624 78.619,46.081 -14.346,70.52 0,0.001 1.077,-0.962 1.399,-1.823"
         style="fill:#fffcf9;fill-opacity:1"
         inkscape:connector-curvature="0" />
      <path
         id="path4716"
         d="m 188.495,4.399 c 0,0 38.55,38.563 -36.563,97.862 -60.233,47.568 -13.735,74.69 -0.025,105.678 C 116.748,176.217 90.946,148.292 108.256,122.302 133.663,84.151 204.049,65.654 188.495,4.399"
         style="fill:#fffcf9;fill-opacity:1"
         inkscape:connector-curvature="0" />
      <path
         id="path4718"
         d="m 116.339,374.246 c 66.815,4.277 169.417,-2.373 171.847,-33.988 0,0 -4.671,11.985 -55.219,21.503 -57.028,10.732 -127.364,9.479 -169.081,2.601 10e-4,-0.001 8.54,7.068 52.453,9.884"
         style="fill:#fffcf9;fill-opacity:1"
         inkscape:connector-curvature="0" />
    </g>
    <path
       style="opacity:1;fill:#ffffff;fill-opacity:1;fill-rule:evenodd;stroke:#b45500;stroke-width:0.98143142;stroke-linecap:square;stroke-linejoin:miter;stroke-miterlimit:4;stroke-dasharray:none;stroke-dashoffset:0;stroke-opacity:1;paint-order:markers fill stroke"
       d="M 136.28516 360.85352 C 132.10006 360.85352 128.64609 361.37755 125.92578 362.42383 C 123.27522 363.4701 121.14921 364.96883 119.54492 366.92188 C 117.94064 368.87492 116.78931 371.28081 116.0918 374.14062 C 115.39428 376.93069 114.97544 380.10478 114.83594 383.66211 L 114.52148 394.125 C 114.45173 395.93854 114.27901 397.54247 114 398.9375 C 113.72099 400.33253 113.23267 401.58905 112.53516 402.70508 C 111.83764 403.8211 110.89476 404.83151 109.70898 405.73828 C 108.59296 406.5753 107.16371 407.41298 105.41992 408.25 L 105.41992 413.0625 C 107.16371 413.89952 108.59296 414.77096 109.70898 415.67773 C 110.89476 416.5845 111.83764 417.59687 112.53516 418.71289 C 113.23267 419.75916 113.72099 420.97997 114 422.375 C 114.27901 423.77003 114.45173 425.37396 114.52148 427.1875 L 114.83594 437.75391 C 114.97544 441.31124 115.39428 444.48533 116.0918 447.27539 C 116.78931 450.1352 117.94064 452.5411 119.54492 454.49414 C 121.14921 456.44718 123.27522 457.94787 125.92578 458.99414 C 128.64609 460.04041 132.10006 460.5625 136.28516 460.5625 L 138.27344 460.5625 C 138.97095 460.5625 139.91188 460.49302 141.09766 460.35352 C 141.72542 457.56345 142.03906 455.15756 142.03906 453.13477 C 142.03906 451.11197 141.72542 448.67036 141.09766 445.81055 L 137.85352 445.81055 C 136.45848 445.81055 135.34288 445.56639 134.50586 445.07812 C 133.66884 444.58986 133.04156 443.85738 132.62305 442.88086 C 132.20454 441.83459 131.92466 440.5443 131.78516 439.00977 C 131.7154 437.47523 131.68164 435.62714 131.68164 433.46484 C 131.68164 429.69826 131.54072 426.55988 131.26172 424.04883 C 130.98271 421.53777 130.56582 419.44552 130.00781 417.77148 C 129.4498 416.0277 128.75108 414.63221 127.91406 413.58594 C 127.07704 412.46991 126.1004 411.49327 124.98438 410.65625 C 126.1004 409.81923 127.07704 408.8783 127.91406 407.83203 C 128.75108 406.71601 129.4498 405.32052 130.00781 403.64648 C 130.56582 401.97245 130.98271 399.8802 131.26172 397.36914 C 131.54072 394.85808 131.68164 391.71776 131.68164 387.95117 C 131.68164 385.78887 131.7154 383.94078 131.78516 382.40625 C 131.92466 380.87172 132.20454 379.61715 132.62305 378.64062 C 133.04156 377.59435 133.66884 376.82615 134.50586 376.33789 C 135.34288 375.84963 136.45848 375.60547 137.85352 375.60547 L 141.09766 375.60547 C 141.72542 372.81541 142.03906 370.3738 142.03906 368.28125 C 142.03906 366.32821 141.72542 363.92231 141.09766 361.0625 C 139.91188 360.923 138.97095 360.85352 138.27344 360.85352 L 136.28516 360.85352 z M 199.17578 360.85352 C 198.54802 360.85352 197.64085 360.923 196.45508 361.0625 C 195.82731 363.92231 195.51367 366.32821 195.51367 368.28125 C 195.51367 370.3738 195.82731 372.81541 196.45508 375.60547 L 199.69922 375.60547 C 201.09425 375.60547 202.20986 375.84963 203.04688 376.33789 C 203.88389 376.82615 204.51118 377.59435 204.92969 378.64062 C 205.3482 379.61715 205.59236 380.87172 205.66211 382.40625 C 205.80161 383.94078 205.87109 385.78887 205.87109 387.95117 C 205.87109 391.71776 206.01201 394.85808 206.29102 397.36914 C 206.57002 399.8802 206.98691 401.97245 207.54492 403.64648 C 208.10293 405.32052 208.80165 406.71601 209.63867 407.83203 C 210.47569 408.8783 211.45233 409.81923 212.56836 410.65625 C 211.45233 411.49327 210.47569 412.46991 209.63867 413.58594 C 208.80165 414.63221 208.10293 416.0277 207.54492 417.77148 C 206.98691 419.44552 206.57002 421.53777 206.29102 424.04883 C 206.01201 426.55988 205.87109 429.69826 205.87109 433.46484 C 205.87109 435.62714 205.80161 437.47523 205.66211 439.00977 C 205.59236 440.5443 205.3482 441.83459 204.92969 442.88086 C 204.51118 443.85738 203.88389 444.58986 203.04688 445.07812 C 202.20986 445.56639 201.09425 445.81055 199.69922 445.81055 L 196.45508 445.81055 C 195.82731 448.67036 195.51367 451.11197 195.51367 453.13477 C 195.51367 455.15756 195.82731 457.56345 196.45508 460.35352 C 197.64085 460.49302 198.54802 460.5625 199.17578 460.5625 L 201.26758 460.5625 C 205.45267 460.5625 208.87093 460.04041 211.52148 458.99414 C 214.2418 457.94787 216.40353 456.44718 218.00781 454.49414 C 219.6121 452.5411 220.76342 450.1352 221.46094 447.27539 C 222.15845 444.48533 222.57729 441.31124 222.7168 437.75391 L 223.03125 427.1875 C 223.101 425.37396 223.27373 423.77003 223.55273 422.375 C 223.83174 420.97997 224.32006 419.75916 225.01758 418.71289 C 225.71509 417.59687 226.62226 416.5845 227.73828 415.67773 C 228.92406 414.77096 230.38902 413.89952 232.13281 413.0625 L 232.13281 408.25 C 230.38902 407.41298 228.92406 406.5753 227.73828 405.73828 C 226.62226 404.83151 225.71509 403.8211 225.01758 402.70508 C 224.32006 401.58905 223.83174 400.33253 223.55273 398.9375 C 223.27373 397.54247 223.101 395.93854 223.03125 394.125 L 222.7168 383.66211 C 222.57729 380.10478 222.15845 376.93069 221.46094 374.14062 C 220.76342 371.28081 219.6121 368.87492 218.00781 366.92188 C 216.40353 364.96883 214.2418 363.4701 211.52148 362.42383 C 208.87093 361.37755 205.45267 360.85352 201.26758 360.85352 L 199.17578 360.85352 z "
       id="rect4610-3" />
  </g>
</svg>
