<?xml version="1.0" encoding="UTF-8" standalone="no"?>
<!-- Created with Inkscape (http://www.inkscape.org/) -->

<svg
   xmlns:osb="http://www.openswatchbook.org/uri/2009/osb"
   xmlns:dc="http://purl.org/dc/elements/1.1/"
   xmlns:cc="http://creativecommons.org/ns#"
   xmlns:rdf="http://www.w3.org/1999/02/22-rdf-syntax-ns#"
   xmlns:svg="http://www.w3.org/2000/svg"
   xmlns="http://www.w3.org/2000/svg"
   xmlns:xlink="http://www.w3.org/1999/xlink"
   xmlns:sodipodi="http://sodipodi.sourceforge.net/DTD/sodipodi-0.dtd"
   xmlns:inkscape="http://www.inkscape.org/namespaces/inkscape"
   width="512px"
   height="512px"
   viewBox="0 0 512 512"
   version="1.1"
   id="SVGRoot"
   inkscape:version="0.92.1 r15371"
   sodipodi:docname="texi.svg">
  <sodipodi:namedview
     id="base"
     pagecolor="#ffffff"
     bordercolor="#666666"
     borderopacity="1.0"
     inkscape:pageopacity="0.0"
     inkscape:pageshadow="2"
     inkscape:zoom="0.70710678"
     inkscape:cx="345.53432"
     inkscape:cy="314.64205"
     inkscape:document-units="px"
     inkscape:current-layer="layer1"
     showgrid="false"
     inkscape:window-width="1280"
     inkscape:window-height="947"
     inkscape:window-x="0"
     inkscape:window-y="0"
     inkscape:window-maximized="1" />
  <defs
     id="defs4710">
    <linearGradient
       id="linearGradient8384"
       inkscape:collect="always">
      <stop
         id="stop8380"
         offset="0"
         style="stop-color:#181818;stop-opacity:0.1827957" />
      <stop
         id="stop8382"
         offset="1"
         style="stop-color:#404040;stop-opacity:0" />
    </linearGradient>
    <linearGradient
       inkscape:collect="always"
       id="linearGradient4573">
      <stop
         style="stop-color:#181818;stop-opacity:0.30645162"
         offset="0"
         id="stop4569" />
      <stop
         style="stop-color:#404040;stop-opacity:0"
         offset="1"
         id="stop4571" />
    </linearGradient>
    <marker
       inkscape:stockid="DotM"
       orient="auto"
       refY="0.0"
       refX="0.0"
       id="DotM"
       style="overflow:visible"
       inkscape:isstock="true">
      <path
         id="path4618"
         d="M -2.5,-1.0 C -2.5,1.7600000 -4.7400000,4.0 -7.5,4.0 C -10.260000,4.0 -12.5,1.7600000 -12.5,-1.0 C -12.5,-3.7600000 -10.260000,-6.0 -7.5,-6.0 C -4.7400000,-6.0 -2.5,-3.7600000 -2.5,-1.0 z "
         style="fill-rule:evenodd;stroke:#000000;stroke-width:1.0pt"
         transform="scale(0.4) translate(7.4, 1)" />
    </marker>
    <linearGradient
       osb:paint="solid"
       id="linearGradient5207">
      <stop
         id="stop5209"
         offset="0"
         style="stop-color:#000015;stop-opacity:1;" />
    </linearGradient>
    <clipPath
       id="clipPath3006-9-8"
       clipPathUnits="userSpaceOnUse">
      <path
         inkscape:export-ydpi="90"
         inkscape:export-xdpi="90"
         transform="matrix(1.2020779,0,0,1.2020779,-93.20363,-75.172465)"
         d="m 483,275.5 a 192.5,192.5 0 1 1 -385,0 192.5,192.5 0 1 1 385,0 z"
         sodipodi:ry="192.5"
         sodipodi:rx="192.5"
         sodipodi:cy="275.5"
         sodipodi:cx="290.5"
         id="path3008-1-1"
         style="fill:#ffffff;fill-opacity:1;stroke:none;display:inline"
         sodipodi:type="arc" />
    </clipPath>
    <mask
       id="mask3818-4"
       maskUnits="userSpaceOnUse">
      <path
         sodipodi:type="arc"
         style="fill:#ffffff;fill-opacity:1;stroke:none;display:inline"
         id="path3820-9"
         sodipodi:cx="290.5"
         sodipodi:cy="275.5"
         sodipodi:rx="192.5"
         sodipodi:ry="192.5"
         d="m 483,275.5 a 192.5,192.5 0 1 1 -385,0 192.5,192.5 0 1 1 385,0 z"
         transform="matrix(1.2020779,0,0,1.2020779,-93.20363,-75.172466)"
         inkscape:export-xdpi="90"
         inkscape:export-ydpi="90" />
    </mask>
    <clipPath
       id="clipPath3006"
       clipPathUnits="userSpaceOnUse">
      <path
         inkscape:export-ydpi="90"
         inkscape:export-xdpi="90"
         transform="matrix(1.2020779,0,0,1.2020779,-93.20363,-75.172465)"
         d="m 483,275.5 a 192.5,192.5 0 1 1 -385,0 192.5,192.5 0 1 1 385,0 z"
         sodipodi:ry="192.5"
         sodipodi:rx="192.5"
         sodipodi:cy="275.5"
         sodipodi:cx="290.5"
         id="path3008"
         style="fill:#ffffff;fill-opacity:1;stroke:none;display:inline"
         sodipodi:type="arc" />
    </clipPath>
    <clipPath
       id="clipPath3006-9"
       clipPathUnits="userSpaceOnUse">
      <path
         inkscape:export-ydpi="90"
         inkscape:export-xdpi="90"
         transform="matrix(1.2020779,0,0,1.2020779,-93.20363,-75.172465)"
         d="m 483,275.5 a 192.5,192.5 0 1 1 -385,0 192.5,192.5 0 1 1 385,0 z"
         sodipodi:ry="192.5"
         sodipodi:rx="192.5"
         sodipodi:cy="275.5"
         sodipodi:cx="290.5"
         id="path3008-1"
         style="fill:#ffffff;fill-opacity:1;stroke:none;display:inline"
         sodipodi:type="arc" />
    </clipPath>
    <mask
       maskUnits="userSpaceOnUse"
       id="mask3818-0">
      <path
         inkscape:export-ydpi="90"
         inkscape:export-xdpi="90"
         transform="matrix(1.2020779,0,0,1.2020779,-93.20363,-75.172466)"
         d="m 483,275.5 a 192.5,192.5 0 1 1 -385,0 192.5,192.5 0 1 1 385,0 z"
         sodipodi:ry="192.5"
         sodipodi:rx="192.5"
         sodipodi:cy="275.5"
         sodipodi:cx="290.5"
         id="path3820-8"
         style="fill:#ffffff;fill-opacity:1;stroke:none;display:inline"
         sodipodi:type="arc" />
    </mask>
    <mask
       maskUnits="userSpaceOnUse"
       id="mask3818-2">
      <path
         inkscape:export-ydpi="90"
         inkscape:export-xdpi="90"
         transform="matrix(1.2020779,0,0,1.2020779,-93.20363,-75.172466)"
         d="m 483,275.5 a 192.5,192.5 0 1 1 -385,0 192.5,192.5 0 1 1 385,0 z"
         sodipodi:ry="192.5"
         sodipodi:rx="192.5"
         sodipodi:cy="275.5"
         sodipodi:cx="290.5"
         id="path3820-2-2"
         style="fill:#ffffff;fill-opacity:1;stroke:none;display:inline"
         sodipodi:type="arc" />
    </mask>
    <clipPath
       id="clipPath3934"
       clipPathUnits="userSpaceOnUse">
      <path
         id="path3936"
         d="m 0,0 0,1024 1024,0 L 1024,0 0,0 z m 278.4375,333.84375 119.78125,0 c 9.83697,42.31453 19.85954,84.58596 29.9375,126.84375 9.86978,-42.28798 20.05132,-84.50237 29.6875,-126.84375 l 108.90625,0 c 9.63586,42.34141 19.8178,84.55578 29.6875,126.84375 10.07827,-42.25772 20.10031,-84.52927 29.9375,-126.84375 l 119.1875,0 c -26.26221,110.73099 -52.49625,221.46929 -78.28125,332.3125 l -122.8125,0 c -10.59439,-45.55681 -21.46638,-91.04874 -32.375,-136.53125 -10.66279,45.51136 -21.5615,90.96897 -32,136.53125 l -122.8125,0 c -25.71418,-110.03502 -52.0286,-219.92873 -78.25,-329.84375 l -0.59375,-2.46875 z"
         style="fill:#ff3232;fill-opacity:1;stroke:none"
         inkscape:connector-curvature="0" />
    </clipPath>
    <clipPath
       id="clipPath3929"
       clipPathUnits="userSpaceOnUse">
      <path
         inkscape:connector-curvature="0"
         style="fill:#ff3232;fill-opacity:1;stroke:none"
         d="m 0,0 0,1024 1024,0 L 1024,0 0,0 z m 278.4375,333.84375 119.78125,0 c 9.83697,42.31453 19.85954,84.58596 29.9375,126.84375 9.86978,-42.28798 20.05132,-84.50237 29.6875,-126.84375 l 108.90625,0 c 9.63586,42.34141 19.8178,84.55578 29.6875,126.84375 10.07827,-42.25772 20.10031,-84.52927 29.9375,-126.84375 l 119.1875,0 c -26.26221,110.73099 -52.49625,221.46929 -78.28125,332.3125 l -122.8125,0 c -10.59439,-45.55681 -21.46638,-91.04874 -32.375,-136.53125 -10.66279,45.51136 -21.5615,90.96897 -32,136.53125 l -122.8125,0 c -25.71418,-110.03502 -52.0286,-219.92873 -78.25,-329.84375 l -0.59375,-2.46875 z"
         id="path3931" />
    </clipPath>
    <mask
       maskUnits="userSpaceOnUse"
       id="mask3818">
      <path
         inkscape:export-ydpi="90"
         inkscape:export-xdpi="90"
         transform="matrix(1.2020779,0,0,1.2020779,-93.20363,-75.172466)"
         d="m 483,275.5 a 192.5,192.5 0 1 1 -385,0 192.5,192.5 0 1 1 385,0 z"
         sodipodi:ry="192.5"
         sodipodi:rx="192.5"
         sodipodi:cy="275.5"
         sodipodi:cx="290.5"
         id="path3820"
         style="fill:#ffffff;fill-opacity:1;stroke:none;display:inline"
         sodipodi:type="arc" />
    </mask>
    <linearGradient
       inkscape:collect="always"
       xlink:href="#linearGradient4573"
       id="linearGradient4575"
       x1="408.84314"
       y1="89.26915"
       x2="420.61133"
       y2="138.41306"
       gradientUnits="userSpaceOnUse"
       gradientTransform="matrix(0.99657796,0,0,1,1.2520606,0)" />
    <linearGradient
       inkscape:collect="always"
       xlink:href="#linearGradient8384"
       id="linearGradient6771"
       gradientUnits="userSpaceOnUse"
       gradientTransform="matrix(0.99657796,0,0,1,1.2520606,0)"
       x1="408.84314"
       y1="89.26915"
       x2="420.61133"
       y2="138.41306" />
  </defs>
  <metadata
     id="metadata4713">
    <rdf:RDF>
      <cc:Work
         rdf:about="">
        <dc:format>image/svg+xml</dc:format>
        <dc:type
           rdf:resource="http://purl.org/dc/dcmitype/StillImage" />
        <dc:title></dc:title>
      </cc:Work>
    </rdf:RDF>
  </metadata>
  <g
     id="layer1"
     inkscape:groupmode="layer"
     inkscape:label="Capa 1">
    <path
       style="opacity:1;fill:#f5f7f8;fill-opacity:1;fill-rule:evenodd;stroke:#c5d2d7;stroke-width:2;stroke-linejoin:round;stroke-miterlimit:4;stroke-dasharray:none;stroke-dashoffset:0;stroke-opacity:1;paint-order:normal"
       d="m 97.583979,29.700195 c -11.07875,0 -19.99804,9.65194 -19.99804,21.64062 V 460.66113 c 0,11.9887 8.91929,21.63867 19.99804,21.63867 H 414.41602 c 11.07874,0 19.99804,-9.64997 19.99804,-21.63867 V 113.7959 c -0.33411,-0.32981 -0.46874,-0.43168 -0.81445,-0.77345 -9.64188,-9.53205 -23.80681,-23.701345 -37.64453,-37.822255 -6.91884,-7.06045 -13.75546,-14.10994 -19.9043,-20.56055 -6.14876,-6.45062 -11.60929,-12.30327 -15.77539,-16.97265 -3.0827,-3.45513 -4.82334,-5.68286 -6.625,-7.9668 z"
       id="path4506"
       inkscape:connector-curvature="0"
       sodipodi:nodetypes="ssssssccccccs" />
    <g
       id="g4584"
       transform="matrix(0.3829248,0,0,0.3829248,74.406719,31.973725)"
       style="fill:#75abd3;fill-opacity:1;stroke:#9dc4df;stroke-opacity:1" />
    <path
       style="opacity:1;fill:#c5d2d7;fill-opacity:1;fill-rule:evenodd;stroke:#c3d0d6;stroke-width:1.14248979;stroke-linecap:square;stroke-linejoin:miter;stroke-miterlimit:4;stroke-dasharray:none;stroke-dashoffset:0;stroke-opacity:1;paint-order:markers fill stroke"
       d="M 243.63672 401.95117 C 239.17262 401.95117 235.268 402.71937 231.91992 404.25391 C 228.57185 405.71869 225.78088 407.74146 223.54883 410.32227 C 221.31678 412.90307 219.64337 415.93625 218.52734 419.42383 C 217.41132 422.91141 216.85352 426.6433 216.85352 430.61914 C 216.85352 434.66473 217.3756 438.39663 218.42188 441.81445 C 219.5379 445.23228 221.21326 448.19793 223.44531 450.70898 C 225.74711 453.15029 228.67509 455.06786 232.23242 456.46289 C 235.8595 457.85792 240.18492 458.55469 245.20703 458.55469 C 251.69393 458.55469 258.04211 457.40336 264.25 455.10156 C 264.18025 452.38125 263.76141 449.76692 262.99414 447.25586 C 262.29663 444.7448 261.45894 442.58112 260.48242 440.76758 C 258.04112 441.7441 255.56574 442.47658 253.05469 442.96484 C 250.54363 443.4531 248.2767 443.69727 246.25391 443.69727 C 243.11509 443.69727 240.56828 443.1057 238.61523 441.91992 C 236.73194 440.73415 235.40789 438.71138 234.64062 435.85156 L 266.44727 435.85156 C 266.58677 434.87504 266.72573 433.65424 266.86523 432.18945 C 267.07449 430.65492 267.17969 428.94579 267.17969 427.0625 C 267.17969 423.43542 266.61993 420.08665 265.50391 417.01758 C 264.45763 413.87876 262.92319 411.2287 260.90039 409.06641 C 258.8776 406.83436 256.40222 405.09147 253.47266 403.83594 C 250.61284 402.58041 247.33355 401.95117 243.63672 401.95117 z M 340.55078 402.26562 C 339.15575 402.26562 337.69078 402.33511 336.15625 402.47461 C 334.69147 402.61411 333.19078 402.85827 331.65625 403.20703 L 331.65625 457.19531 C 333.40004 457.47432 335.00592 457.68276 336.4707 457.82227 C 337.93549 457.96177 339.25954 458.03125 340.44531 458.03125 C 341.63109 458.03125 342.95709 457.96177 344.42188 457.82227 C 345.88666 457.68276 347.5263 457.47432 349.33984 457.19531 L 349.33984 403.20703 C 347.87506 402.85827 346.37438 402.61411 344.83984 402.47461 C 343.30531 402.33511 341.87606 402.26562 340.55078 402.26562 z M 282.36133 402.58008 C 280.05953 402.58008 278.00104 402.64956 276.1875 402.78906 C 274.44371 402.92857 273.18914 403.06753 272.42188 403.20703 L 281.83789 429.1543 L 270.32812 457.08984 C 271.09539 457.22935 272.3162 457.40403 273.99023 457.61328 C 275.73402 457.82254 277.75679 457.92773 280.05859 457.92773 C 281.87213 457.92773 283.5475 457.82254 285.08203 457.61328 C 286.61657 457.47378 287.66269 457.33482 288.2207 457.19531 L 297.8457 430.41016 L 307.47266 457.19531 C 308.03067 457.33482 309.11056 457.47378 310.71484 457.61328 C 312.31913 457.82254 314.13345 457.92773 316.15625 457.92773 C 318.2488 457.92773 320.09689 457.82254 321.70117 457.61328 C 323.37521 457.47378 324.59601 457.33482 325.36328 457.19531 L 313.85352 429.1543 L 323.26953 403.20703 C 322.50226 403.06753 321.21198 402.92857 319.39844 402.78906 C 317.5849 402.64956 315.52836 402.58008 313.22656 402.58008 C 311.41302 402.58008 309.66818 402.64956 307.99414 402.78906 C 306.38985 402.92857 305.30997 403.06753 304.75195 403.20703 L 297.8457 428.31836 L 290.83594 403.20703 C 290.27793 403.06753 289.16232 402.92857 287.48828 402.78906 C 285.884 402.64956 284.17487 402.58008 282.36133 402.58008 z M 163.49805 403.20703 C 163.14929 404.60206 162.90513 405.89235 162.76562 407.07812 C 162.69587 408.2639 162.66016 409.41523 162.66016 410.53125 C 162.66016 411.64727 162.69587 412.83236 162.76562 414.08789 C 162.90513 415.27367 163.14929 416.56395 163.49805 417.95898 L 178.98242 417.95898 L 178.98242 457.19531 C 180.72621 457.47432 182.33014 457.68276 183.79492 457.82227 C 185.2597 457.96177 186.58571 458.03125 187.77148 458.03125 C 188.95726 458.03125 190.28326 457.96177 191.74805 457.82227 C 193.21283 457.68276 194.85052 457.47432 196.66406 457.19531 L 196.66406 417.95898 L 212.15039 417.95898 C 212.49915 416.56395 212.70759 415.27367 212.77734 414.08789 C 212.91685 412.83236 212.98633 411.64727 212.98633 410.53125 C 212.98633 409.41523 212.91685 408.2639 212.77734 407.07812 C 212.70759 405.89235 212.49915 404.60206 212.15039 403.20703 L 163.49805 403.20703 z M 243.00977 415.24023 C 245.59057 415.24023 247.54386 416.07596 248.86914 417.75 C 250.26417 419.35429 251.03042 421.37705 251.16992 423.81836 L 234.42969 423.81836 C 234.70869 420.88879 235.65157 418.72706 237.25586 417.33203 C 238.86015 415.937 240.77772 415.24023 243.00977 415.24023 z "
       id="rect4610" />
    <path
       style="opacity:1;fill:url(#linearGradient6771);fill-opacity:1;fill-rule:evenodd;stroke:none;stroke-width:8.77774811;stroke-linecap:square;stroke-linejoin:miter;stroke-miterlimit:4;stroke-dasharray:none;stroke-dashoffset:0;stroke-opacity:1;paint-order:markers fill stroke"
       d="m 433.28939,182.37584 v -69.47028 c 0,-0.0394 -0.0309,-0.0705 -0.0703,-0.0705 h -67.33747 c 4.09851,4.50878 8.40749,9.2132 13.77948,14.86279 7.205,7.57734 15.21697,15.8602 23.32513,24.15489 11.13885,11.3951 20.83136,21.05949 30.30308,30.52302 z"
       id="path4566"
       inkscape:connector-curvature="0" />
    <path
       style="opacity:1;fill:#c5d2d7;fill-opacity:1;fill-rule:evenodd;stroke:none;stroke-width:1.05391276;stroke-linejoin:round;stroke-miterlimit:4;stroke-dasharray:none;stroke-dashoffset:0;stroke-opacity:1;paint-order:normal"
       d="m 435.00048,114.60612 c -1.83541,-2.30475 -3.6077,-4.55306 -6.74972,-8.04125 -4.24635,-4.71409 -9.8132,-10.623129 -16.08223,-17.137261 C 405.8996,82.913483 398.92921,75.794273 391.8744,68.663457 377.76477,54.401804 363.32068,40.090503 353.48814,30.462087 c -0.35278,-0.345219 -0.4898,-0.448268 -0.83055,-0.781422 l -0.24394,62.802323 c -0.0467,12.055462 9.04538,21.800782 20.38588,21.850482 z"
       id="rect4485"
       inkscape:connector-curvature="0" />
    <path
       style="opacity:1;fill:#d5dee2;fill-opacity:1;fill-rule:evenodd;stroke:#c3d0d6;stroke-width:1.4995563;stroke-linecap:square;stroke-linejoin:miter;stroke-miterlimit:4;stroke-dasharray:none;stroke-dashoffset:0;stroke-opacity:1;paint-order:markers fill stroke"
       d="M 256 174.65234 C 252.60741 174.65234 249.13058 174.8009 245.56836 175.09766 C 242.17577 175.39441 238.52843 175.84009 234.62695 176.43359 C 234.11806 179.84624 233.69277 183.11067 233.35352 186.22656 C 233.01426 189.34245 232.8457 192.30977 232.8457 195.12891 C 232.8457 197.94804 233.01426 200.91536 233.35352 204.03125 C 233.69277 206.99876 234.11806 210.18892 234.62695 213.60156 C 238.52843 214.19507 242.17577 214.64075 245.56836 214.9375 C 249.13058 215.23425 252.60741 215.38281 256 215.38281 C 259.39259 215.38281 262.78514 215.23425 266.17773 214.9375 C 269.73995 214.64075 273.47157 214.19507 277.37305 213.60156 C 277.88194 210.18892 278.30723 206.99876 278.64648 204.03125 C 278.98574 200.91536 279.1543 197.94804 279.1543 195.12891 C 279.1543 192.30977 278.98574 189.34245 278.64648 186.22656 C 278.30723 183.11067 277.88194 179.84624 277.37305 176.43359 C 273.47157 175.84009 269.73995 175.39441 266.17773 175.09766 C 262.78514 174.8009 259.39259 174.65234 256 174.65234 z M 256 230.29297 C 250.74149 230.29297 243.95638 230.96149 235.64453 232.29688 L 233.35352 336.01172 C 237.59425 336.60522 241.58065 336.97662 245.3125 337.125 C 249.04435 337.27338 252.60741 337.34766 256 337.34766 C 259.39259 337.34766 262.95565 337.27338 266.6875 337.125 C 270.58898 336.97662 274.57538 336.60522 278.64648 336.01172 L 276.35547 232.29688 C 267.87399 230.96149 261.08888 230.29297 256 230.29297 z "
       id="rect8395" />
  </g>
</svg>
