<?xml version="1.0" encoding="UTF-8" standalone="no"?>
<!-- Created with Inkscape (http://www.inkscape.org/) -->

<svg
   xmlns:osb="http://www.openswatchbook.org/uri/2009/osb"
   xmlns:dc="http://purl.org/dc/elements/1.1/"
   xmlns:cc="http://creativecommons.org/ns#"
   xmlns:rdf="http://www.w3.org/1999/02/22-rdf-syntax-ns#"
   xmlns:svg="http://www.w3.org/2000/svg"
   xmlns="http://www.w3.org/2000/svg"
   xmlns:xlink="http://www.w3.org/1999/xlink"
   xmlns:sodipodi="http://sodipodi.sourceforge.net/DTD/sodipodi-0.dtd"
   xmlns:inkscape="http://www.inkscape.org/namespaces/inkscape"
   width="512px"
   height="512px"
   viewBox="0 0 512 512"
   version="1.1"
   id="SVGRoot"
   inkscape:version="0.92.1 r15371"
   sodipodi:docname="theme.svg">
  <sodipodi:namedview
     id="base"
     pagecolor="#ffffff"
     bordercolor="#666666"
     borderopacity="1.0"
     inkscape:pageopacity="0.0"
     inkscape:pageshadow="2"
     inkscape:zoom="1"
     inkscape:cx="126.569"
     inkscape:cy="291.5581"
     inkscape:document-units="px"
     inkscape:current-layer="layer1"
     showgrid="false"
     inkscape:window-width="1280"
     inkscape:window-height="947"
     inkscape:window-x="0"
     inkscape:window-y="0"
     inkscape:window-maximized="1" />
  <defs
     id="defs4710">
    <linearGradient
       inkscape:collect="always"
       id="linearGradient4573">
      <stop
         style="stop-color:#181818;stop-opacity:0.30645162"
         offset="0"
         id="stop4569" />
      <stop
         style="stop-color:#404040;stop-opacity:0"
         offset="1"
         id="stop4571" />
    </linearGradient>
    <marker
       inkscape:stockid="DotM"
       orient="auto"
       refY="0.0"
       refX="0.0"
       id="DotM"
       style="overflow:visible"
       inkscape:isstock="true">
      <path
         id="path4618"
         d="M -2.5,-1.0 C -2.5,1.7600000 -4.7400000,4.0 -7.5,4.0 C -10.260000,4.0 -12.5,1.7600000 -12.5,-1.0 C -12.5,-3.7600000 -10.260000,-6.0 -7.5,-6.0 C -4.7400000,-6.0 -2.5,-3.7600000 -2.5,-1.0 z "
         style="fill-rule:evenodd;stroke:#000000;stroke-width:1.0pt"
         transform="scale(0.4) translate(7.4, 1)" />
    </marker>
    <linearGradient
       osb:paint="solid"
       id="linearGradient5207">
      <stop
         id="stop5209"
         offset="0"
         style="stop-color:#000015;stop-opacity:1;" />
    </linearGradient>
    <clipPath
       id="clipPath3006-9-8"
       clipPathUnits="userSpaceOnUse">
      <path
         inkscape:export-ydpi="90"
         inkscape:export-xdpi="90"
         transform="matrix(1.2020779,0,0,1.2020779,-93.20363,-75.172465)"
         d="m 483,275.5 a 192.5,192.5 0 1 1 -385,0 192.5,192.5 0 1 1 385,0 z"
         sodipodi:ry="192.5"
         sodipodi:rx="192.5"
         sodipodi:cy="275.5"
         sodipodi:cx="290.5"
         id="path3008-1-1"
         style="fill:#ffffff;fill-opacity:1;stroke:none;display:inline"
         sodipodi:type="arc" />
    </clipPath>
    <mask
       id="mask3818-4"
       maskUnits="userSpaceOnUse">
      <path
         sodipodi:type="arc"
         style="fill:#ffffff;fill-opacity:1;stroke:none;display:inline"
         id="path3820-9"
         sodipodi:cx="290.5"
         sodipodi:cy="275.5"
         sodipodi:rx="192.5"
         sodipodi:ry="192.5"
         d="m 483,275.5 a 192.5,192.5 0 1 1 -385,0 192.5,192.5 0 1 1 385,0 z"
         transform="matrix(1.2020779,0,0,1.2020779,-93.20363,-75.172466)"
         inkscape:export-xdpi="90"
         inkscape:export-ydpi="90" />
    </mask>
    <clipPath
       id="clipPath3006"
       clipPathUnits="userSpaceOnUse">
      <path
         inkscape:export-ydpi="90"
         inkscape:export-xdpi="90"
         transform="matrix(1.2020779,0,0,1.2020779,-93.20363,-75.172465)"
         d="m 483,275.5 a 192.5,192.5 0 1 1 -385,0 192.5,192.5 0 1 1 385,0 z"
         sodipodi:ry="192.5"
         sodipodi:rx="192.5"
         sodipodi:cy="275.5"
         sodipodi:cx="290.5"
         id="path3008"
         style="fill:#ffffff;fill-opacity:1;stroke:none;display:inline"
         sodipodi:type="arc" />
    </clipPath>
    <clipPath
       id="clipPath3006-9"
       clipPathUnits="userSpaceOnUse">
      <path
         inkscape:export-ydpi="90"
         inkscape:export-xdpi="90"
         transform="matrix(1.2020779,0,0,1.2020779,-93.20363,-75.172465)"
         d="m 483,275.5 a 192.5,192.5 0 1 1 -385,0 192.5,192.5 0 1 1 385,0 z"
         sodipodi:ry="192.5"
         sodipodi:rx="192.5"
         sodipodi:cy="275.5"
         sodipodi:cx="290.5"
         id="path3008-1"
         style="fill:#ffffff;fill-opacity:1;stroke:none;display:inline"
         sodipodi:type="arc" />
    </clipPath>
    <mask
       maskUnits="userSpaceOnUse"
       id="mask3818-0">
      <path
         inkscape:export-ydpi="90"
         inkscape:export-xdpi="90"
         transform="matrix(1.2020779,0,0,1.2020779,-93.20363,-75.172466)"
         d="m 483,275.5 a 192.5,192.5 0 1 1 -385,0 192.5,192.5 0 1 1 385,0 z"
         sodipodi:ry="192.5"
         sodipodi:rx="192.5"
         sodipodi:cy="275.5"
         sodipodi:cx="290.5"
         id="path3820-8"
         style="fill:#ffffff;fill-opacity:1;stroke:none;display:inline"
         sodipodi:type="arc" />
    </mask>
    <mask
       maskUnits="userSpaceOnUse"
       id="mask3818-2">
      <path
         inkscape:export-ydpi="90"
         inkscape:export-xdpi="90"
         transform="matrix(1.2020779,0,0,1.2020779,-93.20363,-75.172466)"
         d="m 483,275.5 a 192.5,192.5 0 1 1 -385,0 192.5,192.5 0 1 1 385,0 z"
         sodipodi:ry="192.5"
         sodipodi:rx="192.5"
         sodipodi:cy="275.5"
         sodipodi:cx="290.5"
         id="path3820-2-2"
         style="fill:#ffffff;fill-opacity:1;stroke:none;display:inline"
         sodipodi:type="arc" />
    </mask>
    <clipPath
       id="clipPath3934"
       clipPathUnits="userSpaceOnUse">
      <path
         id="path3936"
         d="m 0,0 0,1024 1024,0 L 1024,0 0,0 z m 278.4375,333.84375 119.78125,0 c 9.83697,42.31453 19.85954,84.58596 29.9375,126.84375 9.86978,-42.28798 20.05132,-84.50237 29.6875,-126.84375 l 108.90625,0 c 9.63586,42.34141 19.8178,84.55578 29.6875,126.84375 10.07827,-42.25772 20.10031,-84.52927 29.9375,-126.84375 l 119.1875,0 c -26.26221,110.73099 -52.49625,221.46929 -78.28125,332.3125 l -122.8125,0 c -10.59439,-45.55681 -21.46638,-91.04874 -32.375,-136.53125 -10.66279,45.51136 -21.5615,90.96897 -32,136.53125 l -122.8125,0 c -25.71418,-110.03502 -52.0286,-219.92873 -78.25,-329.84375 l -0.59375,-2.46875 z"
         style="fill:#ff3232;fill-opacity:1;stroke:none"
         inkscape:connector-curvature="0" />
    </clipPath>
    <clipPath
       id="clipPath3929"
       clipPathUnits="userSpaceOnUse">
      <path
         inkscape:connector-curvature="0"
         style="fill:#ff3232;fill-opacity:1;stroke:none"
         d="m 0,0 0,1024 1024,0 L 1024,0 0,0 z m 278.4375,333.84375 119.78125,0 c 9.83697,42.31453 19.85954,84.58596 29.9375,126.84375 9.86978,-42.28798 20.05132,-84.50237 29.6875,-126.84375 l 108.90625,0 c 9.63586,42.34141 19.8178,84.55578 29.6875,126.84375 10.07827,-42.25772 20.10031,-84.52927 29.9375,-126.84375 l 119.1875,0 c -26.26221,110.73099 -52.49625,221.46929 -78.28125,332.3125 l -122.8125,0 c -10.59439,-45.55681 -21.46638,-91.04874 -32.375,-136.53125 -10.66279,45.51136 -21.5615,90.96897 -32,136.53125 l -122.8125,0 c -25.71418,-110.03502 -52.0286,-219.92873 -78.25,-329.84375 l -0.59375,-2.46875 z"
         id="path3931" />
    </clipPath>
    <mask
       maskUnits="userSpaceOnUse"
       id="mask3818">
      <path
         inkscape:export-ydpi="90"
         inkscape:export-xdpi="90"
         transform="matrix(1.2020779,0,0,1.2020779,-93.20363,-75.172466)"
         d="m 483,275.5 a 192.5,192.5 0 1 1 -385,0 192.5,192.5 0 1 1 385,0 z"
         sodipodi:ry="192.5"
         sodipodi:rx="192.5"
         sodipodi:cy="275.5"
         sodipodi:cx="290.5"
         id="path3820"
         style="fill:#ffffff;fill-opacity:1;stroke:none;display:inline"
         sodipodi:type="arc" />
    </mask>
    <linearGradient
       inkscape:collect="always"
       xlink:href="#linearGradient4573"
       id="linearGradient4575"
       x1="407.42407"
       y1="116.84631"
       x2="422.0304"
       y2="156.79784"
       gradientUnits="userSpaceOnUse"
       gradientTransform="matrix(0.99657796,0,0,1,1.2520606,0)" />
  </defs>
  <metadata
     id="metadata4713">
    <rdf:RDF>
      <cc:Work
         rdf:about="">
        <dc:format>image/svg+xml</dc:format>
        <dc:type
           rdf:resource="http://purl.org/dc/dcmitype/StillImage" />
        <dc:title></dc:title>
      </cc:Work>
    </rdf:RDF>
  </metadata>
  <g
     id="layer1"
     inkscape:groupmode="layer"
     inkscape:label="Capa 1">
    <path
       style="opacity:1;fill:#1e5656;fill-opacity:1;fill-rule:evenodd;stroke:#339191;stroke-width:2;stroke-linejoin:round;stroke-miterlimit:4;stroke-dasharray:none;stroke-dashoffset:0;stroke-opacity:1;paint-order:normal"
       d="m 97.583979,29.700195 c -11.07875,0 -19.99804,9.65194 -19.99804,21.64062 V 460.66113 c 0,11.9887 8.91929,21.63867 19.99804,21.63867 H 414.41602 c 11.07874,0 19.99804,-9.64997 19.99804,-21.63867 V 113.7959 c -0.33411,-0.32981 -0.46874,-0.43168 -0.81445,-0.77345 -9.64188,-9.53205 -23.80681,-23.701345 -37.64453,-37.822255 -6.91884,-7.06045 -13.75546,-14.10994 -19.9043,-20.56055 -6.14876,-6.45062 -11.60929,-12.30327 -15.77539,-16.97265 -3.0827,-3.45513 -4.82334,-5.68286 -6.625,-7.9668 z"
       id="path4506"
       inkscape:connector-curvature="0"
       sodipodi:nodetypes="ssssssccccccs" />
    <g
       id="g4584"
       transform="matrix(0.3829248,0,0,0.3829248,74.406719,31.973725)"
       style="fill:#75abd3;fill-opacity:1;stroke:#9dc4df;stroke-opacity:1" />
    <path
       inkscape:connector-curvature="0"
       style="fill:#226161;fill-opacity:1;fill-rule:evenodd;stroke:none;stroke-width:1;stroke-linecap:butt;stroke-linejoin:round;stroke-miterlimit:4;stroke-dasharray:none;stroke-opacity:1"
       d="m 431.75198,467.82095 c 0.489,-1.27003 0.877,-2.59782 1.1367,-3.97851 0.2656,-1.41123 0.4043,-2.87251 0.4043,-4.3711 V 167.88931 L 128.14647,128.84245 93.080067,402.89712 c -1.5056,11.76681 6.7547,22.45137 18.521503,23.95703 z"
       id="path820-5" />
    <path
       style="fill:#2a7979;fill-opacity:1;fill-rule:evenodd;stroke:none;stroke-width:1;stroke-linecap:butt;stroke-linejoin:round;stroke-miterlimit:4;stroke-dasharray:none;stroke-opacity:1"
       d="m 156.49366,50.269531 c -10.41557,0.24539 -19.3211,8.029688 -20.68555,18.69336 L 128.146,128.8418 433.29249,167.88867 v -55.2832 c -0.3341,-0.32981 -0.46875,-0.43167 -0.81445,-0.77344 -7.7404,-7.65223 -19.15981,-19.15813 -30.22071,-30.36328 L 159.7671,50.439453 c -1.10314,-0.141156 -2.19597,-0.195307 -3.27344,-0.169922 z m 242.23438,51.080079 a 22.572706,23.22336 0 0 1 22.57226,23.22266 22.572706,23.22336 0 0 1 -22.57226,23.22461 22.572706,23.22336 0 0 1 -22.57227,-23.22461 22.572706,23.22336 0 0 1 22.57227,-23.22266 z"
       id="rect2993-3"
       inkscape:connector-curvature="0" />
    <path
       inkscape:connector-curvature="0"
       style="opacity:1;fill:#266c6c;fill-opacity:1;fill-rule:evenodd;stroke:none;stroke-width:1.02083051;stroke-linecap:round;stroke-linejoin:round;stroke-miterlimit:4;stroke-dasharray:none;stroke-dashoffset:0;stroke-opacity:1;paint-order:normal"
       d="m 433.29311,203.11001 -0.17718,-38.75687 -304.439,-40.28366 -4.58693,37.80859 z"
       id="rect4540-5"
       sodipodi:nodetypes="ccccc" />
    <g
       id="g4561"
       transform="matrix(0.37762279,0,0,0.37762279,167.37363,162.22644)"
       style="fill:#f1f4f5;fill-opacity:1;stroke:#277070;stroke-opacity:1">
      <g
         id="g4504"
         style="fill:#f1f4f5;fill-opacity:1;stroke:#277070;stroke-opacity:1">
        <g
           id="palette"
           style="fill:#f1f4f5;fill-opacity:1;stroke:#277070;stroke-opacity:1">
          <path
             id="path4501"
             d="M 229.5,0 C 102,0 0,102 0,229.5 0,357 102,459 229.5,459 c 20.4,0 38.25,-17.85 38.25,-38.25 0,-10.2 -2.55,-17.85 -10.2,-25.5 -5.1,-7.65 -10.2,-15.3 -10.2,-25.5 0,-20.4 17.851,-38.25 38.25,-38.25 h 45.9 C 402.9,331.5 459,275.4 459,204 459,91.8 357,0 229.5,0 Z M 89.25,229.5 C 68.85,229.5 51,211.65 51,191.25 51,170.85 68.85,153 89.25,153 c 20.4,0 38.25,17.85 38.25,38.25 0,20.4 -17.85,38.25 -38.25,38.25 z m 76.5,-102 c -20.4,0 -38.25,-17.85 -38.25,-38.25 0,-20.4 17.85,-38.25 38.25,-38.25 20.4,0 38.25,17.85 38.25,38.25 0,20.4 -17.85,38.25 -38.25,38.25 z m 127.5,0 C 272.85,127.5 255,109.65 255,89.25 255,68.85 272.85,51 293.25,51 c 20.4,0 38.25,17.85 38.25,38.25 0,20.4 -17.85,38.25 -38.25,38.25 z m 76.5,102 c -20.4,0 -38.25,-17.85 -38.25,-38.25 0,-20.4 17.85,-38.25 38.25,-38.25 20.4,0 38.25,17.85 38.25,38.25 0,20.4 -17.85,38.25 -38.25,38.25 z"
             inkscape:connector-curvature="0"
             style="fill:#f1f4f5;fill-opacity:1;stroke:#277070;stroke-opacity:1" />
        </g>
      </g>
      <g
         id="g4506"
         style="fill:#f1f4f5;fill-opacity:1;stroke:#277070;stroke-opacity:1" />
      <g
         id="g4508"
         style="fill:#f1f4f5;fill-opacity:1;stroke:#277070;stroke-opacity:1" />
      <g
         id="g4510"
         style="fill:#f1f4f5;fill-opacity:1;stroke:#277070;stroke-opacity:1" />
      <g
         id="g4512"
         style="fill:#f1f4f5;fill-opacity:1;stroke:#277070;stroke-opacity:1" />
      <g
         id="g4514"
         style="fill:#f1f4f5;fill-opacity:1;stroke:#277070;stroke-opacity:1" />
      <g
         id="g4516"
         style="fill:#f1f4f5;fill-opacity:1;stroke:#277070;stroke-opacity:1" />
      <g
         id="g4518"
         style="fill:#f1f4f5;fill-opacity:1;stroke:#277070;stroke-opacity:1" />
      <g
         id="g4520"
         style="fill:#f1f4f5;fill-opacity:1;stroke:#277070;stroke-opacity:1" />
      <g
         id="g4522"
         style="fill:#f1f4f5;fill-opacity:1;stroke:#277070;stroke-opacity:1" />
      <g
         id="g4524"
         style="fill:#f1f4f5;fill-opacity:1;stroke:#277070;stroke-opacity:1" />
      <g
         id="g4526"
         style="fill:#f1f4f5;fill-opacity:1;stroke:#277070;stroke-opacity:1" />
      <g
         id="g4528"
         style="fill:#f1f4f5;fill-opacity:1;stroke:#277070;stroke-opacity:1" />
      <g
         id="g4530"
         style="fill:#f1f4f5;fill-opacity:1;stroke:#277070;stroke-opacity:1" />
      <g
         id="g4532"
         style="fill:#f1f4f5;fill-opacity:1;stroke:#277070;stroke-opacity:1" />
      <g
         id="g4534"
         style="fill:#f1f4f5;fill-opacity:1;stroke:#277070;stroke-opacity:1" />
    </g>
    <g
       transform="matrix(0.07199782,0,0,0.07199782,248.90222,269.39634)"
       id="layer1-6"
       inkscape:label="Camada 1"
       style="fill:#f1f4f5;fill-opacity:1;stroke:#277070;stroke-opacity:1">
      <g
         id="g3861"
         transform="matrix(2.0086469,0,0,2.0086469,-1890.9288,644.28405)"
         style="fill:#f1f4f5;fill-opacity:1;stroke:#277070;stroke-opacity:1">
        <path
           transform="matrix(0.52516433,0,0,0.52516433,961.78994,-828.86591)"
           inkscape:connector-curvature="0"
           id="path3021"
           d="m 1927.4375,-26.8125 c -3.3524,0.07344 -7.1708,1.598694 -10.625,6.15625 -4.903,6.835632 -643.3635,893.27659 -788.7187,1155.06245 3.4659,1.1301 7.0146,2.2863 10.5937,3.5626 22.4324,7.9982 47.2268,18.9279 73.6875,33.8124 31.47,17.7026 65.3159,40.999 100.4375,71.5313 C 1472.4187,984.45499 1934.4139,-0.05262994 1938,-7.65625 c 3.3155,-8.514706 0.048,-14.635407 -3.3438,-17 -0.2121,-0.147763 -0.4414,-0.293145 -0.6874,-0.4375 -1.6144,-0.947662 -3.9239,-1.775867 -6.5313,-1.71875 z m -816.9063,1194.7813 c -2.4601,5.1291 -4.5491,9.8079 -6.25,13.9687 -54.017,132.1446 -134.99557,290.7891 -157.4062,351.2813 42.95377,6.6425 80.2702,30.3115 104.8438,63.9062 41.8408,-48.8743 140.6832,-196.2132 229.3437,-306.9062 3.3793,-4.2192 7.1429,-9.3124 11.2187,-15.1876 -31.8717,-28.1815 -62.4543,-49.8259 -90.8124,-66.4062 -27.4402,-16.0436 -52.8034,-27.3693 -75.3438,-35.4062 -5.3875,-1.921 -10.5648,-3.6866 -15.5938,-5.25 z"
           style="fill:#f1f4f5;fill-opacity:1;stroke:#277070;stroke-opacity:1" />
        <g
           id="g3795"
           style="fill:#f1f4f5;fill-opacity:1;stroke:#277070;stroke-opacity:1">
          <path
             inkscape:connector-curvature="0"
             transform="matrix(0.52516433,0,0,0.52516433,961.78994,-828.86591)"
             style="fill:#f1f4f5;fill-opacity:1;stroke:#277070;stroke-opacity:1"
             d="m 912.875,1881 c -0.67953,-0.042 -1.19085,-0.018 -1.875,-0.062 -6.62109,-0.4269 -13.47754,-0.9658 -20.40625,-1.625 -6.92871,-0.6592 -13.92857,-1.4375 -20.9375,-2.375 -7.00893,-0.9375 -14.01326,-2.0194 -20.875,-3.2813 -6.86174,-1.2618 -13.60659,-2.7114 -20.09375,-4.3437 -6.48716,-1.6323 -12.70857,-3.4513 -18.59375,-5.5 -2.94259,-1.0243 -5.81304,-2.1129 -8.5625,-3.25 -2.74946,-1.1371 -5.37835,-2.3382 -7.90625,-3.5937 -2.5279,-1.2556 -4.94083,-2.5577 -7.21875,-3.9376 -2.27792,-1.3798 -4.43799,-2.8339 -6.4375,-4.3437 -1.99951,-1.5098 -3.83857,-3.0732 -5.53125,-4.7187 -1.69268,-1.6456 -3.23633,-3.3692 -4.59375,-5.1563 -1.35742,-1.7871 -2.53751,-3.6594 -3.53125,-5.5937 -0.99374,-1.9344 -1.80462,-3.9439 -2.40625,-6.0313 -0.60163,-2.0874 -1.0064,-4.2538 -1.1875,-6.5 -0.1811,-2.2462 -0.14286,-4.558 0.125,-6.9687 0.26786,-2.4108 0.38008,-4.7882 0.3125,-7.0938 -0.0676,-2.3056 -0.30559,-4.5475 -0.6875,-6.75 -0.38191,-2.2025 -0.91861,-4.3362 -1.59375,-6.4375 -0.67514,-2.1013 -1.49023,-4.1543 -2.4375,-6.1563 -0.94727,-2.0019 -2.02046,-3.9704 -3.21875,-5.875 -1.19829,-1.9045 -2.50928,-3.7534 -3.9375,-5.5624 -1.42822,-1.8091 -2.98795,-3.5658 -4.625,-5.2813 -1.63705,-1.7155 -3.36272,-3.4074 -5.1875,-5.0313 -1.82478,-1.6238 -3.72735,-3.1845 -5.71875,-4.7187 -1.9914,-1.5342 -4.08182,-3.0224 -6.21875,-4.4687 -0.88724,-0.6006 -1.90275,-1.1019 -2.8125,-1.6876 -32.24035,71.6399 -83.6371,116.0111 -189.28125,135.6876 -17.30144,3.2224 -11.59123,24.3125 0,24.3124 124.7355,0 268.22893,-0.586 375.4375,-33.6562 z"
             id="path3793" />
          <path
             inkscape:connector-curvature="0"
             style="fill:#f1f4f5;fill-opacity:1;stroke:#277070;stroke-opacity:1"
             d="m 909.9375,1549.3125 c -78.85856,0 -144.44172,56.8714 -157.9375,131.8437 -7.27251,27.1414 -15.40977,51.5651 -25.28125,73.5 0.90975,0.5857 1.92526,1.087 2.8125,1.6876 2.13693,1.4463 4.22735,2.9345 6.21875,4.4687 1.9914,1.5342 3.89397,3.0949 5.71875,4.7187 1.82478,1.6239 3.55045,3.3158 5.1875,5.0313 1.63705,1.7155 3.19678,3.4722 4.625,5.2813 1.42822,1.809 2.73921,3.6579 3.9375,5.5624 1.19829,1.9046 2.27148,3.8731 3.21875,5.875 0.94727,2.002 1.76236,4.055 2.4375,6.1563 0.67514,2.1013 1.21184,4.235 1.59375,6.4375 0.38191,2.2025 0.61992,4.4444 0.6875,6.75 0.0676,2.3056 -0.0446,4.683 -0.3125,7.0938 -0.26786,2.4107 -0.3061,4.7225 -0.125,6.9687 0.1811,2.2462 0.58587,4.4126 1.1875,6.5 0.60163,2.0874 1.41251,4.0969 2.40625,6.0313 0.99374,1.9343 2.17383,3.8066 3.53125,5.5937 1.35742,1.7871 2.90107,3.5107 4.59375,5.1563 1.69268,1.6455 3.53174,3.2089 5.53125,4.7187 1.99951,1.5098 4.15958,2.9639 6.4375,4.3437 2.27792,1.3799 4.69085,2.682 7.21875,3.9376 2.5279,1.2555 5.15679,2.4566 7.90625,3.5937 2.74946,1.1371 5.61991,2.2257 8.5625,3.25 5.88518,2.0487 12.10659,3.8677 18.59375,5.5 6.48716,1.6323 13.23201,3.0819 20.09375,4.3437 6.86174,1.2619 13.86607,2.3438 20.875,3.2813 7.00893,0.9375 14.00879,1.7158 20.9375,2.375 6.92871,0.6592 13.78516,1.1981 20.40625,1.625 0.68415,0.044 1.19547,0.021 1.875,0.062 61.84157,-19.076 111.6529,-48.902 138.7188,-95.7812 11.9903,-22.4815 18.7812,-48.1795 18.7812,-75.4376 0,-88.6258 -71.81153,-160.4687 -160.4375,-160.4687 z"
             id="path3849"
             transform="matrix(0.52516433,0,0,0.52516433,961.78994,-828.86591)" />
        </g>
      </g>
    </g>
    <path
       style="opacity:1;fill:url(#linearGradient4575);fill-opacity:1;fill-rule:evenodd;stroke:none;stroke-width:8.77774811;stroke-linecap:square;stroke-linejoin:miter;stroke-miterlimit:4;stroke-dasharray:none;stroke-dashoffset:0;stroke-opacity:1;paint-order:markers fill stroke"
       d="m 433.28939,182.37584 v -69.47028 c 0,-0.0394 -0.0309,-0.0705 -0.0703,-0.0705 h -67.33747 c 4.09851,4.50878 8.40749,9.2132 13.77948,14.86279 7.205,7.57734 15.21697,15.8602 23.32513,24.15489 11.13885,11.3951 20.83136,21.05949 30.30308,30.52302 z"
       id="path4566"
       inkscape:connector-curvature="0" />
    <path
       style="opacity:1;fill:#339191;fill-opacity:1;fill-rule:evenodd;stroke:none;stroke-width:1.05391276;stroke-linejoin:round;stroke-miterlimit:4;stroke-dasharray:none;stroke-dashoffset:0;stroke-opacity:1;paint-order:normal"
       d="m 435.00048,114.60612 c -1.83541,-2.30475 -3.6077,-4.55306 -6.74972,-8.04125 -4.24635,-4.71409 -9.8132,-10.623129 -16.08223,-17.137261 C 405.8996,82.913483 398.92921,75.794273 391.8744,68.663457 377.76477,54.401804 363.32068,40.090503 353.48814,30.462087 c -0.35278,-0.345219 -0.4898,-0.448268 -0.83055,-0.781422 l -0.24394,62.802323 c -0.0467,12.055462 9.04538,21.800782 20.38588,21.850482 z"
       id="rect4485"
       inkscape:connector-curvature="0" />
    <path
       style="opacity:1;fill:#f1f4f5;fill-opacity:1;fill-rule:evenodd;stroke:#277070;stroke-width:1;stroke-linecap:square;stroke-linejoin:miter;stroke-miterlimit:4;stroke-dasharray:none;stroke-dashoffset:0;stroke-opacity:1;paint-order:markers fill stroke"
       d="M 103.22266 376.07227 C 102.59489 379.14133 102.28125 381.8271 102.28125 384.12891 C 102.28125 386.63996 102.59489 389.39521 103.22266 392.39453 L 120.69531 392.39453 L 120.69531 450.98633 C 124.32239 451.61409 127.427 451.92773 130.00781 451.92773 C 132.44912 451.92773 135.51801 451.61409 139.21484 450.98633 L 139.21484 392.39453 L 156.6875 392.39453 C 157.24551 389.18596 157.52539 386.43071 157.52539 384.12891 C 157.52539 382.94313 157.45396 381.68661 157.31445 380.36133 C 157.17495 379.03605 156.96651 377.6068 156.6875 376.07227 L 103.22266 376.07227 z M 241.90625 395.95117 C 237.44215 395.95117 233.53557 396.71937 230.1875 398.25391 C 226.83943 399.71869 224.05041 401.74146 221.81836 404.32227 C 219.58631 406.90307 217.91095 409.93625 216.79492 413.42383 C 215.6789 416.91141 215.12109 420.6433 215.12109 424.61914 C 215.12109 428.66473 215.64513 432.39663 216.69141 435.81445 C 217.80743 439.23228 219.48084 442.19793 221.71289 444.70898 C 224.01469 447.15029 226.94462 449.06786 230.50195 450.46289 C 234.12903 451.85792 238.45445 452.55469 243.47656 452.55469 C 249.96346 452.55469 256.30969 451.40336 262.51758 449.10156 C 262.44783 446.38125 262.02899 443.76692 261.26172 441.25586 C 260.5642 438.7448 259.72847 436.58112 258.75195 434.76758 C 256.31065 435.7441 253.83332 436.47658 251.32227 436.96484 C 248.81121 437.4531 246.54428 437.69727 244.52148 437.69727 C 241.38266 437.69727 238.83781 437.1057 236.88477 435.91992 C 235.00147 434.73415 233.67547 432.71138 232.9082 429.85156 L 264.71484 429.85156 C 264.85435 428.87504 264.99331 427.65424 265.13281 426.18945 C 265.34207 424.65492 265.44727 422.94579 265.44727 421.0625 C 265.44727 417.43542 264.88946 414.08665 263.77344 411.01758 C 262.72716 407.87876 261.19272 405.2287 259.16992 403.06641 C 257.14713 400.83436 254.67175 399.09147 251.74219 397.83594 C 248.88237 396.58041 245.60308 395.95117 241.90625 395.95117 z M 386.17773 395.95117 C 381.71363 395.95117 377.80706 396.71937 374.45898 398.25391 C 371.11091 399.71869 368.32189 401.74146 366.08984 404.32227 C 363.85779 406.90307 362.18243 409.93625 361.06641 413.42383 C 359.95038 416.91141 359.39258 420.6433 359.39258 424.61914 C 359.39258 428.66473 359.91662 432.39663 360.96289 435.81445 C 362.07892 439.23228 363.75233 442.19793 365.98438 444.70898 C 368.28618 447.15029 371.21611 449.06786 374.77344 450.46289 C 378.40052 451.85792 382.72398 452.55469 387.74609 452.55469 C 394.23299 452.55469 400.58117 451.40336 406.78906 449.10156 C 406.71931 446.38125 406.30047 443.76692 405.5332 441.25586 C 404.83569 438.7448 403.99996 436.58112 403.02344 434.76758 C 400.58213 435.7441 398.10481 436.47658 395.59375 436.96484 C 393.08269 437.4531 390.81576 437.69727 388.79297 437.69727 C 385.65415 437.69727 383.10929 437.1057 381.15625 435.91992 C 379.27296 434.73415 377.94695 432.71138 377.17969 429.85156 L 408.98633 429.85156 C 409.12583 428.87504 409.26479 427.65424 409.4043 426.18945 C 409.61355 424.65492 409.71875 422.94579 409.71875 421.0625 C 409.71875 417.43542 409.16095 414.08665 408.04492 411.01758 C 406.99865 407.87876 405.4642 405.2287 403.44141 403.06641 C 401.41861 400.83436 398.94128 399.09147 396.01172 397.83594 C 393.1519 396.58041 389.87457 395.95117 386.17773 395.95117 z M 295.69531 396.16016 C 290.46395 396.16016 286.14048 396.579 282.72266 397.41602 C 279.30483 398.18328 276.3749 398.98525 273.93359 399.82227 L 273.93359 451.19531 C 275.74713 451.54407 277.38678 451.75251 278.85156 451.82227 C 280.31635 451.96177 281.6404 452.03125 282.82617 452.03125 C 283.9422 452.03125 285.23444 451.96177 286.69922 451.82227 C 288.164 451.75251 289.80169 451.54407 291.61523 451.19531 L 291.61523 412.06445 C 291.82449 411.92495 292.34853 411.78599 293.18555 411.64648 C 294.09232 411.50698 294.92805 411.4375 295.69531 411.4375 C 298.55513 411.4375 300.57985 412.23946 301.76562 413.84375 C 302.9514 415.44804 303.54297 418.09809 303.54297 421.79492 L 303.54297 451.19531 C 305.35651 451.54407 306.99615 451.75251 308.46094 451.82227 C 309.92572 451.96177 311.25172 452.03125 312.4375 452.03125 C 313.55352 452.03125 314.84381 451.96177 316.30859 451.82227 C 317.77338 451.75251 319.41107 451.54407 321.22461 451.19531 L 321.22461 420.64453 C 321.22461 417.50571 320.91097 414.71474 320.2832 412.27344 C 320.63196 412.13393 321.2612 411.95925 322.16797 411.75 C 323.14449 411.54075 324.11918 411.4375 325.0957 411.4375 C 327.95552 411.4375 330.014 412.23946 331.26953 413.84375 C 332.52506 415.44804 333.15234 418.09809 333.15234 421.79492 L 333.15234 451.19531 C 334.96588 451.54407 336.60553 451.75251 338.07031 451.82227 C 339.5351 451.96177 340.8611 452.03125 342.04688 452.03125 C 343.1629 452.03125 344.45319 451.96177 345.91797 451.82227 C 347.38275 451.75251 349.02044 451.54407 350.83398 451.19531 L 350.83398 419.91211 C 350.83398 414.75049 350.06774 410.59976 348.5332 407.46094 C 347.06842 404.32212 345.15085 401.91622 342.7793 400.24219 C 340.4775 398.56815 337.86121 397.48631 334.93164 396.99805 C 332.07183 396.44003 329.28086 396.16016 326.56055 396.16016 C 323.49148 396.16016 320.73623 396.50952 318.29492 397.20703 C 315.85362 397.90455 313.7276 398.70651 311.91406 399.61328 C 309.54251 398.21825 306.96194 397.31109 304.17188 396.89258 C 301.38181 396.40432 298.55513 396.16016 295.69531 396.16016 z M 164.09961 396.26562 C 162.70458 396.26562 161.23961 396.33511 159.70508 396.47461 C 158.2403 396.61411 156.74157 396.85827 155.20703 397.20703 L 155.20703 451.19531 C 156.95082 451.47432 158.55475 451.68276 160.01953 451.82227 C 161.48431 451.96177 162.80836 452.03125 163.99414 452.03125 C 165.17992 452.03125 166.50592 451.96177 167.9707 451.82227 C 169.43549 451.68276 171.07513 451.47432 172.88867 451.19531 L 172.88867 431.31641 L 188.37305 431.31641 L 188.37305 451.19531 C 190.11684 451.47432 191.72076 451.68276 193.18555 451.82227 C 194.65033 451.96177 195.97633 452.03125 197.16211 452.03125 C 198.34789 452.03125 199.67194 451.96177 201.13672 451.82227 C 202.6015 451.68276 204.24115 451.47432 206.05469 451.19531 L 206.05469 397.20703 C 204.5899 396.85827 203.09117 396.61411 201.55664 396.47461 C 200.02211 396.33511 198.5909 396.26562 197.26562 396.26562 C 195.87059 396.26562 194.40758 396.33511 192.87305 396.47461 C 191.40826 396.61411 189.90758 396.85827 188.37305 397.20703 L 188.37305 415.62109 L 172.88867 415.62109 L 172.88867 397.20703 C 171.42389 396.85827 169.92321 396.61411 168.38867 396.47461 C 166.85414 396.33511 165.42489 396.26562 164.09961 396.26562 z M 241.2793 409.24023 C 243.8601 409.24023 245.81339 410.07596 247.13867 411.75 C 248.5337 413.35429 249.29995 415.37705 249.43945 417.81836 L 232.69922 417.81836 C 232.97822 414.88879 233.91915 412.72706 235.52344 411.33203 C 237.12772 409.937 239.04725 409.24023 241.2793 409.24023 z M 385.55078 409.24023 C 388.13159 409.24023 390.08292 410.07596 391.4082 411.75 C 392.80323 413.35429 393.57143 415.37705 393.71094 417.81836 L 376.9707 417.81836 C 377.24971 414.88879 378.19064 412.72706 379.79492 411.33203 C 381.39921 409.937 383.31873 409.24023 385.55078 409.24023 z "
       id="rect4604" />
  </g>
</svg>
