<?xml version="1.0" encoding="UTF-8" standalone="no"?>
<!-- Created with Inkscape (http://www.inkscape.org/) -->

<svg
   xmlns:osb="http://www.openswatchbook.org/uri/2009/osb"
   xmlns:dc="http://purl.org/dc/elements/1.1/"
   xmlns:cc="http://creativecommons.org/ns#"
   xmlns:rdf="http://www.w3.org/1999/02/22-rdf-syntax-ns#"
   xmlns:svg="http://www.w3.org/2000/svg"
   xmlns="http://www.w3.org/2000/svg"
   xmlns:xlink="http://www.w3.org/1999/xlink"
   xmlns:sodipodi="http://sodipodi.sourceforge.net/DTD/sodipodi-0.dtd"
   xmlns:inkscape="http://www.inkscape.org/namespaces/inkscape"
   width="512px"
   height="512px"
   viewBox="0 0 512 512"
   version="1.1"
   id="SVGRoot"
   inkscape:version="0.92.1 r15371"
   sodipodi:docname="wmp.svg">
  <sodipodi:namedview
     id="base"
     pagecolor="#ffffff"
     bordercolor="#666666"
     borderopacity="1.0"
     inkscape:pageopacity="0.0"
     inkscape:pageshadow="2"
     inkscape:zoom="0.25"
     inkscape:cx="567.68722"
     inkscape:cy="478.8444"
     inkscape:document-units="px"
     inkscape:current-layer="layer1"
     showgrid="false"
     inkscape:window-width="1280"
     inkscape:window-height="947"
     inkscape:window-x="0"
     inkscape:window-y="0"
     inkscape:window-maximized="1" />
  <defs
     id="defs4710">
    <linearGradient
       id="linearGradient8384"
       inkscape:collect="always">
      <stop
         id="stop8380"
         offset="0"
         style="stop-color:#181818;stop-opacity:0.62365592" />
      <stop
         id="stop8382"
         offset="1"
         style="stop-color:#404040;stop-opacity:0" />
    </linearGradient>
    <linearGradient
       inkscape:collect="always"
       id="linearGradient4573">
      <stop
         style="stop-color:#181818;stop-opacity:0.30645162"
         offset="0"
         id="stop4569" />
      <stop
         style="stop-color:#404040;stop-opacity:0"
         offset="1"
         id="stop4571" />
    </linearGradient>
    <marker
       inkscape:stockid="DotM"
       orient="auto"
       refY="0.0"
       refX="0.0"
       id="DotM"
       style="overflow:visible"
       inkscape:isstock="true">
      <path
         id="path4618"
         d="M -2.5,-1.0 C -2.5,1.7600000 -4.7400000,4.0 -7.5,4.0 C -10.260000,4.0 -12.5,1.7600000 -12.5,-1.0 C -12.5,-3.7600000 -10.260000,-6.0 -7.5,-6.0 C -4.7400000,-6.0 -2.5,-3.7600000 -2.5,-1.0 z "
         style="fill-rule:evenodd;stroke:#000000;stroke-width:1.0pt"
         transform="scale(0.4) translate(7.4, 1)" />
    </marker>
    <linearGradient
       osb:paint="solid"
       id="linearGradient5207">
      <stop
         id="stop5209"
         offset="0"
         style="stop-color:#000015;stop-opacity:1;" />
    </linearGradient>
    <clipPath
       id="clipPath3006-9-8"
       clipPathUnits="userSpaceOnUse">
      <path
         inkscape:export-ydpi="90"
         inkscape:export-xdpi="90"
         transform="matrix(1.2020779,0,0,1.2020779,-93.20363,-75.172465)"
         d="m 483,275.5 a 192.5,192.5 0 1 1 -385,0 192.5,192.5 0 1 1 385,0 z"
         sodipodi:ry="192.5"
         sodipodi:rx="192.5"
         sodipodi:cy="275.5"
         sodipodi:cx="290.5"
         id="path3008-1-1"
         style="fill:#ffffff;fill-opacity:1;stroke:none;display:inline"
         sodipodi:type="arc" />
    </clipPath>
    <mask
       id="mask3818-4"
       maskUnits="userSpaceOnUse">
      <path
         sodipodi:type="arc"
         style="fill:#ffffff;fill-opacity:1;stroke:none;display:inline"
         id="path3820-9"
         sodipodi:cx="290.5"
         sodipodi:cy="275.5"
         sodipodi:rx="192.5"
         sodipodi:ry="192.5"
         d="m 483,275.5 a 192.5,192.5 0 1 1 -385,0 192.5,192.5 0 1 1 385,0 z"
         transform="matrix(1.2020779,0,0,1.2020779,-93.20363,-75.172466)"
         inkscape:export-xdpi="90"
         inkscape:export-ydpi="90" />
    </mask>
    <clipPath
       id="clipPath3006"
       clipPathUnits="userSpaceOnUse">
      <path
         inkscape:export-ydpi="90"
         inkscape:export-xdpi="90"
         transform="matrix(1.2020779,0,0,1.2020779,-93.20363,-75.172465)"
         d="m 483,275.5 a 192.5,192.5 0 1 1 -385,0 192.5,192.5 0 1 1 385,0 z"
         sodipodi:ry="192.5"
         sodipodi:rx="192.5"
         sodipodi:cy="275.5"
         sodipodi:cx="290.5"
         id="path3008"
         style="fill:#ffffff;fill-opacity:1;stroke:none;display:inline"
         sodipodi:type="arc" />
    </clipPath>
    <clipPath
       id="clipPath3006-9"
       clipPathUnits="userSpaceOnUse">
      <path
         inkscape:export-ydpi="90"
         inkscape:export-xdpi="90"
         transform="matrix(1.2020779,0,0,1.2020779,-93.20363,-75.172465)"
         d="m 483,275.5 a 192.5,192.5 0 1 1 -385,0 192.5,192.5 0 1 1 385,0 z"
         sodipodi:ry="192.5"
         sodipodi:rx="192.5"
         sodipodi:cy="275.5"
         sodipodi:cx="290.5"
         id="path3008-1"
         style="fill:#ffffff;fill-opacity:1;stroke:none;display:inline"
         sodipodi:type="arc" />
    </clipPath>
    <mask
       maskUnits="userSpaceOnUse"
       id="mask3818-0">
      <path
         inkscape:export-ydpi="90"
         inkscape:export-xdpi="90"
         transform="matrix(1.2020779,0,0,1.2020779,-93.20363,-75.172466)"
         d="m 483,275.5 a 192.5,192.5 0 1 1 -385,0 192.5,192.5 0 1 1 385,0 z"
         sodipodi:ry="192.5"
         sodipodi:rx="192.5"
         sodipodi:cy="275.5"
         sodipodi:cx="290.5"
         id="path3820-8"
         style="fill:#ffffff;fill-opacity:1;stroke:none;display:inline"
         sodipodi:type="arc" />
    </mask>
    <mask
       maskUnits="userSpaceOnUse"
       id="mask3818-2">
      <path
         inkscape:export-ydpi="90"
         inkscape:export-xdpi="90"
         transform="matrix(1.2020779,0,0,1.2020779,-93.20363,-75.172466)"
         d="m 483,275.5 a 192.5,192.5 0 1 1 -385,0 192.5,192.5 0 1 1 385,0 z"
         sodipodi:ry="192.5"
         sodipodi:rx="192.5"
         sodipodi:cy="275.5"
         sodipodi:cx="290.5"
         id="path3820-2-2"
         style="fill:#ffffff;fill-opacity:1;stroke:none;display:inline"
         sodipodi:type="arc" />
    </mask>
    <clipPath
       id="clipPath3934"
       clipPathUnits="userSpaceOnUse">
      <path
         id="path3936"
         d="m 0,0 0,1024 1024,0 L 1024,0 0,0 z m 278.4375,333.84375 119.78125,0 c 9.83697,42.31453 19.85954,84.58596 29.9375,126.84375 9.86978,-42.28798 20.05132,-84.50237 29.6875,-126.84375 l 108.90625,0 c 9.63586,42.34141 19.8178,84.55578 29.6875,126.84375 10.07827,-42.25772 20.10031,-84.52927 29.9375,-126.84375 l 119.1875,0 c -26.26221,110.73099 -52.49625,221.46929 -78.28125,332.3125 l -122.8125,0 c -10.59439,-45.55681 -21.46638,-91.04874 -32.375,-136.53125 -10.66279,45.51136 -21.5615,90.96897 -32,136.53125 l -122.8125,0 c -25.71418,-110.03502 -52.0286,-219.92873 -78.25,-329.84375 l -0.59375,-2.46875 z"
         style="fill:#ff3232;fill-opacity:1;stroke:none"
         inkscape:connector-curvature="0" />
    </clipPath>
    <clipPath
       id="clipPath3929"
       clipPathUnits="userSpaceOnUse">
      <path
         inkscape:connector-curvature="0"
         style="fill:#ff3232;fill-opacity:1;stroke:none"
         d="m 0,0 0,1024 1024,0 L 1024,0 0,0 z m 278.4375,333.84375 119.78125,0 c 9.83697,42.31453 19.85954,84.58596 29.9375,126.84375 9.86978,-42.28798 20.05132,-84.50237 29.6875,-126.84375 l 108.90625,0 c 9.63586,42.34141 19.8178,84.55578 29.6875,126.84375 10.07827,-42.25772 20.10031,-84.52927 29.9375,-126.84375 l 119.1875,0 c -26.26221,110.73099 -52.49625,221.46929 -78.28125,332.3125 l -122.8125,0 c -10.59439,-45.55681 -21.46638,-91.04874 -32.375,-136.53125 -10.66279,45.51136 -21.5615,90.96897 -32,136.53125 l -122.8125,0 c -25.71418,-110.03502 -52.0286,-219.92873 -78.25,-329.84375 l -0.59375,-2.46875 z"
         id="path3931" />
    </clipPath>
    <mask
       maskUnits="userSpaceOnUse"
       id="mask3818">
      <path
         inkscape:export-ydpi="90"
         inkscape:export-xdpi="90"
         transform="matrix(1.2020779,0,0,1.2020779,-93.20363,-75.172466)"
         d="m 483,275.5 a 192.5,192.5 0 1 1 -385,0 192.5,192.5 0 1 1 385,0 z"
         sodipodi:ry="192.5"
         sodipodi:rx="192.5"
         sodipodi:cy="275.5"
         sodipodi:cx="290.5"
         id="path3820"
         style="fill:#ffffff;fill-opacity:1;stroke:none;display:inline"
         sodipodi:type="arc" />
    </mask>
    <linearGradient
       inkscape:collect="always"
       xlink:href="#linearGradient4573"
       id="linearGradient4575"
       x1="408.84314"
       y1="89.26915"
       x2="420.61133"
       y2="138.41306"
       gradientUnits="userSpaceOnUse"
       gradientTransform="matrix(0.99657796,0,0,1,1.2520606,0)" />
    <linearGradient
       inkscape:collect="always"
       xlink:href="#linearGradient8384"
       id="linearGradient6771"
       gradientUnits="userSpaceOnUse"
       gradientTransform="matrix(0.99657796,0,0,1,1.3692481,-0.00390625)"
       x1="408.84314"
       y1="89.26915"
       x2="420.61133"
       y2="138.41306" />
  </defs>
  <metadata
     id="metadata4713">
    <rdf:RDF>
      <cc:Work
         rdf:about="">
        <dc:format>image/svg+xml</dc:format>
        <dc:type
           rdf:resource="http://purl.org/dc/dcmitype/StillImage" />
        <dc:title></dc:title>
      </cc:Work>
    </rdf:RDF>
  </metadata>
  <g
     id="layer1"
     inkscape:groupmode="layer"
     inkscape:label="Capa 1">
    <path
       style="opacity:1;fill:#f5f7f8;fill-opacity:1;fill-rule:evenodd;stroke:#007cac;stroke-width:2;stroke-linejoin:round;stroke-miterlimit:4;stroke-dasharray:none;stroke-dashoffset:0;stroke-opacity:1;paint-order:normal"
       d="m 97.583979,29.700195 c -11.07875,0 -19.99804,9.65194 -19.99804,21.64062 V 460.66113 c 0,11.9887 8.91929,21.63867 19.99804,21.63867 H 414.41602 c 11.07874,0 19.99804,-9.64997 19.99804,-21.63867 V 113.7959 c -0.33411,-0.32981 -0.46874,-0.43168 -0.81445,-0.77345 -9.64188,-9.53205 -23.80681,-23.701345 -37.64453,-37.822255 -6.91884,-7.06045 -13.75546,-14.10994 -19.9043,-20.56055 -6.14876,-6.45062 -11.60929,-12.30327 -15.77539,-16.97265 -3.0827,-3.45513 -4.82334,-5.68286 -6.625,-7.9668 z"
       id="path4506"
       inkscape:connector-curvature="0"
       sodipodi:nodetypes="ssssssccccccs" />
    <g
       id="g4584"
       transform="matrix(0.3829248,0,0,0.3829248,74.406719,31.973725)"
       style="fill:#75abd3;fill-opacity:1;stroke:#9dc4df;stroke-opacity:1" />
    <path
       style="opacity:1;fill:#e7e7e7;fill-opacity:0.80924857;fill-rule:evenodd;stroke:none;stroke-width:1.98158312;stroke-linejoin:round;stroke-miterlimit:4;stroke-dasharray:none;stroke-dashoffset:0;stroke-opacity:1;paint-order:normal"
       d="M 149.06831,30.367094 H 98.30698 c -10.92316,0 -19.71718,9.609969 -19.71718,21.54651 V 459.45377 c 0,12.46781 7.57527,21.54457 19.71718,21.54457 h 50.76133 z"
       id="path4626"
       inkscape:connector-curvature="0"
       sodipodi:nodetypes="csssscc" />
    <path
       style="opacity:1;fill:#e7e7e7;fill-opacity:0.80924857;fill-rule:evenodd;stroke:none;stroke-width:1.98420691;stroke-linejoin:round;stroke-miterlimit:4;stroke-dasharray:none;stroke-dashoffset:0;stroke-opacity:1;paint-order:normal"
       d="m 363.0016,481.0013 h 50.71312 c 10.91112,0 19.69548,-9.64408 19.69548,-21.62546 V 112.72418 c -0.32905,-0.32961 -0.46165,-0.43336 -0.80213,-0.77493 -9.496,-9.52623 -23.44662,-23.686887 -37.07497,-37.799182 -6.81416,-7.056143 -13.54734,-14.101329 -19.60315,-20.548003 -5.03898,-5.364288 -9.17197,-9.912752 -12.92835,-14.112479 z"
       id="path4654"
       inkscape:connector-curvature="0" />
    <g
       id="g4518"
       transform="matrix(0.40614177,0,0,0.40614177,100.98722,184.11176)"
       style="fill:#007cac;fill-opacity:1">
      <g
         id="g4495"
         style="fill:#007cac;fill-opacity:1" />
      <g
         id="g4529"
         style="fill:#007cac;fill-opacity:1">
        <path
           style="fill:#007cac;fill-opacity:1"
           inkscape:connector-curvature="0"
           d="m 477.31299,236.76255 c -34.857,45.476 -88.576,74.66 -148.756,74.66 -105.114,0 -190.321,-88.299 -190.321,-197.038 0,-108.7180034 85.207,-197.037968 190.321,-197.037968 v 0 c 104.857,0 190.075,88.3199646 190.075,197.037968 0,27.136 -5.417,52.962 -14.981,76.718 z m -152.095,-277.360968 c -21.975,0 -39.782,17.837985 -39.782,39.80296456 0,21.94500044 17.808,39.78200044 39.782,39.78200044 21.954,0 39.742,-17.838 39.742,-39.78200044 0,-21.96497956 -17.797,-39.80296456 -39.742,-39.80296456 z m 98.355,53.482965 c -21.904,0 -39.752,17.817 -39.752,39.803 0,21.945 17.858,39.742 39.752,39.742 21.975,0 39.824,-17.797 39.824,-39.742 -0.01,-21.986 -17.849,-39.803 -39.824,-39.803 z m 1.823,113.644003 c -21.924,0 -39.731,17.817 -39.731,39.782 0,21.965 17.817,39.783 39.731,39.783 21.965,0 39.803,-17.817 39.803,-39.783 0,-21.966 -17.849,-39.783 -39.803,-39.783 v 0 z m -94.249,63.273 c -21.975,0 -39.782,17.817 -39.782,39.762 0,21.965 17.797,39.762 39.782,39.762 21.934,0 39.772,-17.797 39.772,-39.762 0,-21.934 -17.838,-39.762 -39.772,-39.762 z m -94.525,-52.674 c -21.965,0 -39.803,17.797 -39.803,39.762 0,21.965 17.838,39.782 39.803,39.782 21.965,0 39.762,-17.817 39.762,-39.783 0,-21.966 -17.797,-39.762 -39.762,-39.762 v 0 z m -5.182,-115.446003 c -21.924,0 -39.751,17.776 -39.751,39.762 0,21.924 17.828,39.762003 39.751,39.762003 21.975,0 39.772,-17.838003 39.772,-39.762003 -0.01,-21.975 -17.808,-39.762 -39.772,-39.762 z m 99.758,77.486 c -8.018,0 -14.53,6.697003 -14.53,14.439003 0,8.018 6.512,14.459 14.53,14.459 7.751,0 14.213,-6.441 14.213,-14.459 -0.01,-7.742 -6.462,-14.439003 -14.213,-14.439003 z m -2.642,-161.197965 c -93.993,0 -170.445,79.062965 -170.445,176.424968 0,97.382 76.452,176.405 170.445,176.405 94.014,0 170.199,-79.022 170.199,-176.405 0,-97.372003 -76.185,-176.424968 -170.199,-176.424968 z"
           id="path4497" />
        <path
           style="fill:#007cac;fill-opacity:1"
           inkscape:connector-curvature="0"
           d="m 505.38999,204.10655 c 0,0 21.965,48.363 71.342,10.476 -17.603,30.843 -30.157,44.442 -52.275,83.702 -47.483,16.261 -63.242,-15.237 -64.717,-31.877 25.712,-15.421 45.65,-62.3 45.65,-62.3 z"
           id="path4499" />
        <path
           style="fill:#007cac;fill-opacity:1"
           inkscape:connector-curvature="0"
           d="m 534.74899,294.84355 c 0,0 42.916,1.024 37.12,31.98 l 53.238,-82.238 c 0,0 -4.844,-49.398 -41.636,-27.095 z"
           id="path4501" />
        <path
           style="fill:#007cac;fill-opacity:1"
           inkscape:connector-curvature="0"
           d="m 502.09399,211.92055 c 3.298,-7.824 39.618,-64.676 16.456,-157.184003 0,0 47.237,60.457003 20.88,179.097003 -3.298,-1.065 -14.295,27.484 -18.698,24.217 -4.403,-3.308 -18.637,-46.131 -18.637,-46.131 z"
           id="path4503" />
      </g>
    </g>
    <rect
       style="opacity:1;fill:#f3f8fa;fill-opacity:1;fill-rule:evenodd;stroke:none;stroke-width:0.85548168;stroke-linejoin:round;stroke-miterlimit:4;stroke-dasharray:none;stroke-dashoffset:0;stroke-opacity:1;paint-order:normal"
       id="rect4630"
       width="51.264717"
       height="48"
       x="90.676102"
       y="74.657669"
       ry="10.253048" />
    <rect
       ry="10.253048"
       y="182.65768"
       x="90.676102"
       height="48"
       width="51.264717"
       id="rect4634"
       style="opacity:1;fill:#f3f8fa;fill-opacity:1;fill-rule:evenodd;stroke:none;stroke-width:0.85548168;stroke-linejoin:round;stroke-miterlimit:4;stroke-dasharray:none;stroke-dashoffset:0;stroke-opacity:1;paint-order:normal" />
    <rect
       ry="10.253048"
       y="290.65768"
       x="90.676102"
       height="48"
       width="51.264717"
       id="rect4638"
       style="opacity:1;fill:#f3f8fa;fill-opacity:1;fill-rule:evenodd;stroke:none;stroke-width:0.85548168;stroke-linejoin:round;stroke-miterlimit:4;stroke-dasharray:none;stroke-dashoffset:0;stroke-opacity:1;paint-order:normal" />
    <rect
       style="opacity:1;fill:#f3f8fa;fill-opacity:1;fill-rule:evenodd;stroke:none;stroke-width:0.85548168;stroke-linejoin:round;stroke-miterlimit:4;stroke-dasharray:none;stroke-dashoffset:0;stroke-opacity:1;paint-order:normal"
       id="rect4640"
       width="51.264717"
       height="48"
       x="90.676102"
       y="398.65765"
       ry="10.253048" />
    <rect
       style="opacity:1;fill:#f3f8fa;fill-opacity:1;fill-rule:evenodd;stroke:none;stroke-width:0.84872633;stroke-linejoin:round;stroke-miterlimit:4;stroke-dasharray:none;stroke-dashoffset:0;stroke-opacity:1;paint-order:normal"
       id="rect4660"
       width="50.48909"
       height="47.970715"
       x="370.63422"
       y="181.84625"
       ry="10.246793" />
    <rect
       style="opacity:1;fill:#f3f8fa;fill-opacity:1;fill-rule:evenodd;stroke:none;stroke-width:0.84872633;stroke-linejoin:round;stroke-miterlimit:4;stroke-dasharray:none;stroke-dashoffset:0;stroke-opacity:1;paint-order:normal"
       id="rect4664"
       width="50.48909"
       height="47.970715"
       x="370.63422"
       y="289.78036"
       ry="10.246793" />
    <rect
       ry="10.246793"
       y="397.71448"
       x="370.63422"
       height="47.970715"
       width="50.48909"
       id="rect4666"
       style="opacity:1;fill:#f3f8fa;fill-opacity:1;fill-rule:evenodd;stroke:none;stroke-width:0.84872633;stroke-linejoin:round;stroke-miterlimit:4;stroke-dasharray:none;stroke-dashoffset:0;stroke-opacity:1;paint-order:normal" />
    <path
       inkscape:connector-curvature="0"
       style="opacity:1;fill:#f3f8fa;fill-opacity:1;fill-rule:evenodd;stroke:none;stroke-width:0.84872633;stroke-linejoin:round;stroke-miterlimit:4;stroke-dasharray:none;stroke-dashoffset:0;stroke-opacity:1;paint-order:normal"
       d="m 380.91733,73.73961 c -5.59291,-0.12415 -10.09877,4.56898 -10.09877,10.2457 v 27.29974 0.17764 c 0,5.67672 4.50452,10.24764 10.09877,10.24764 h 30.29245 c 5.47194,0 9.83849,-4.39459 10.02952,-9.89825 0.004,-0.12301 0.0691,-0.22529 0.0692,-0.34939 l 0.0154,-12.27768 C 418.30329,95.87408 401.04732,78.48833 396.83461,74.09295 Z"
       id="path4668"
       sodipodi:nodetypes="sscssscsccs" />
    <path
       style="opacity:1;fill:#007cac;fill-opacity:1;fill-rule:evenodd;stroke:#eaf2f6;stroke-width:1.02979696;stroke-linecap:square;stroke-linejoin:miter;stroke-miterlimit:4;stroke-dasharray:none;stroke-dashoffset:0;stroke-opacity:1;paint-order:markers fill stroke"
       d="M 304.44922 380.81641 C 299.42711 380.81641 295.24065 381.0268 291.89258 381.44531 C 288.61425 381.79407 286.1746 382.072 284.57031 382.28125 L 284.57031 456.98633 C 288.19739 457.61409 291.23057 457.92773 293.67188 457.92773 C 294.9274 457.92773 296.28717 457.85825 297.75195 457.71875 C 299.21674 457.57925 300.85638 457.33509 302.66992 456.98633 L 302.66992 432.60742 C 303.22793 432.74692 304.16886 432.88784 305.49414 433.02734 C 306.88917 433.0971 308.25089 433.13086 309.57617 433.13086 C 312.92425 433.13086 316.16782 432.71202 319.30664 431.875 C 322.51521 431.03798 325.33995 429.6425 327.78125 427.68945 C 330.29231 425.73641 332.27936 423.12207 333.74414 419.84375 C 335.27867 416.56543 336.04688 412.45041 336.04688 407.49805 C 336.04688 401.91792 335.104 397.38406 333.2207 393.89648 C 331.33741 390.40891 328.86204 387.72314 325.79297 385.83984 C 322.79365 383.8868 319.41112 382.5608 315.64453 381.86328 C 311.87795 381.16577 308.14605 380.81641 304.44922 380.81641 z M 111.48828 381.44531 C 110.09325 381.44531 108.48932 381.51479 106.67578 381.6543 C 104.86224 381.7938 102.97843 382.03796 101.02539 382.38672 L 118.70703 456.98633 C 119.7533 457.19558 121.04359 457.40403 122.57812 457.61328 C 124.11266 457.82254 125.8575 457.92773 127.81055 457.92773 C 129.76359 457.92773 131.57596 457.78877 133.25 457.50977 C 134.99379 457.30051 136.18083 457.12583 136.80859 456.98633 L 147.375 413.66992 L 157.31445 456.98633 C 157.94222 457.12583 159.16302 457.30051 160.97656 457.50977 C 162.85985 457.78877 164.77743 457.92773 166.73047 457.92773 C 168.68351 457.92773 170.46212 457.82254 172.06641 457.61328 C 173.74044 457.40403 175.10216 457.19558 176.14844 456.98633 L 194.14453 382.28125 C 192.19149 381.93249 190.44664 381.72405 188.91211 381.6543 C 187.37758 381.51479 185.91261 381.44531 184.51758 381.44531 C 183.1923 381.44531 181.90201 381.51479 180.64648 381.6543 C 179.39096 381.72405 177.85651 381.93249 176.04297 382.28125 L 167.35938 430.61914 L 156.47852 382.28125 C 155.43224 382.072 154.17572 381.89927 152.71094 381.75977 C 151.24615 381.55051 149.81691 381.44531 148.42188 381.44531 C 146.81759 381.44531 145.24742 381.55051 143.71289 381.75977 C 142.17836 381.89927 140.78287 382.072 139.52734 382.28125 C 137.85331 389.81442 136.14613 397.76653 134.40234 406.13672 C 132.65855 414.43715 130.91371 422.42498 129.16992 430.09766 L 120.48633 382.28125 C 118.67279 381.93249 117.03314 381.72405 115.56836 381.6543 C 114.17333 381.51479 112.81356 381.44531 111.48828 381.44531 z M 212.50391 381.44531 C 211.03912 381.44531 209.4352 381.55051 207.69141 381.75977 C 206.01737 381.89927 204.4472 382.072 202.98242 382.28125 L 199.94922 456.98633 C 203.15779 457.61409 205.98252 457.92773 208.42383 457.92773 C 211.07439 457.92773 213.8634 457.61409 216.79297 456.98633 L 217.94531 414.08789 L 228.19727 442.23438 C 229.38304 442.51338 230.53437 442.72183 231.65039 442.86133 C 232.76642 442.93108 233.84826 442.9668 234.89453 442.9668 C 235.9408 442.9668 237.09213 442.89536 238.34766 442.75586 C 239.60318 442.61636 240.85775 442.44363 242.11328 442.23438 L 253.62305 413.66992 L 255.08789 456.98633 C 258.43597 457.61409 261.33018 457.92773 263.77148 457.92773 C 266.00353 457.92773 267.78214 457.82254 269.10742 457.61328 C 270.50245 457.40403 271.75898 457.19558 272.875 456.98633 L 269.31641 382.28125 C 267.85162 382.072 266.35289 381.89927 264.81836 381.75977 C 263.28383 381.55051 261.78314 381.44531 260.31836 381.44531 C 258.92333 381.44531 257.49408 381.55051 256.0293 381.75977 C 254.63427 381.89927 253.23878 382.072 251.84375 382.28125 L 236.46289 421.20312 L 221.60742 382.28125 C 220.21239 382.072 218.67794 381.89927 217.00391 381.75977 C 215.39962 381.55051 213.89894 381.44531 212.50391 381.44531 z M 304.34375 396.40625 L 305.80859 396.40625 C 307.34313 396.40625 308.80809 396.58093 310.20312 396.92969 C 311.59816 397.27845 312.81896 397.90573 313.86523 398.8125 C 314.91151 399.64952 315.71347 400.80084 316.27148 402.26562 C 316.89925 403.66066 317.21289 405.4055 317.21289 407.49805 C 317.21289 411.05538 316.27196 413.70543 314.38867 415.44922 C 312.50538 417.19301 310.06377 418.06445 307.06445 418.06445 C 306.15768 418.06445 305.28624 418.03069 304.44922 417.96094 C 303.6122 417.89119 303.01868 417.78599 302.66992 417.64648 L 302.66992 396.51172 C 303.22793 396.44197 303.78574 396.40625 304.34375 396.40625 z "
       id="rect4610-3" />
    <path
       style="opacity:1;fill:#007cac;fill-opacity:1;fill-rule:evenodd;stroke:none;stroke-width:1.05391276;stroke-linejoin:round;stroke-miterlimit:4;stroke-dasharray:none;stroke-dashoffset:0;stroke-opacity:1;paint-order:normal"
       d="m 435.00048,114.60612 c -1.83541,-2.30475 -3.6077,-4.55306 -6.74972,-8.04125 -4.24635,-4.71409 -9.8132,-10.623129 -16.08223,-17.137261 C 405.8996,82.913483 398.92921,75.794273 391.8744,68.663457 377.76477,54.401804 363.32068,40.090503 353.48814,30.462087 c -0.35278,-0.345219 -0.4898,-0.448268 -0.83055,-0.781422 l -0.24394,62.802323 c -0.0467,12.055462 9.04538,21.800782 20.38588,21.850482 z"
       id="rect4485"
       inkscape:connector-curvature="0" />
    <path
       style="opacity:1;fill:url(#linearGradient6771);fill-opacity:1;fill-rule:evenodd;stroke:none;stroke-width:8.77774811;stroke-linecap:square;stroke-linejoin:miter;stroke-miterlimit:4;stroke-dasharray:none;stroke-dashoffset:0;stroke-opacity:1;paint-order:markers fill stroke"
       d="m 433.40658,182.37194 v -69.47028 c 0,-0.0394 -0.0309,-0.0705 -0.0703,-0.0705 h -67.33747 c 4.09851,4.50878 8.40749,9.2132 13.77948,14.86279 7.205,7.57734 15.21697,15.8602 23.32513,24.15489 11.13885,11.3951 20.83136,21.05949 30.30308,30.52302 z"
       id="path4566"
       inkscape:connector-curvature="0" />
  </g>
</svg>
