<?xml version="1.0" encoding="UTF-8" standalone="no"?>
<!-- Created with Inkscape (http://www.inkscape.org/) -->

<svg
   xmlns:osb="http://www.openswatchbook.org/uri/2009/osb"
   xmlns:dc="http://purl.org/dc/elements/1.1/"
   xmlns:cc="http://creativecommons.org/ns#"
   xmlns:rdf="http://www.w3.org/1999/02/22-rdf-syntax-ns#"
   xmlns:svg="http://www.w3.org/2000/svg"
   xmlns="http://www.w3.org/2000/svg"
   xmlns:xlink="http://www.w3.org/1999/xlink"
   xmlns:sodipodi="http://sodipodi.sourceforge.net/DTD/sodipodi-0.dtd"
   xmlns:inkscape="http://www.inkscape.org/namespaces/inkscape"
   width="512px"
   height="512px"
   viewBox="0 0 512 512"
   version="1.1"
   id="SVGRoot"
   inkscape:version="0.92.1 r15371"
   sodipodi:docname="podcast.svg">
  <sodipodi:namedview
     id="base"
     pagecolor="#ffffff"
     bordercolor="#666666"
     borderopacity="1.0"
     inkscape:pageopacity="0.0"
     inkscape:pageshadow="2"
     inkscape:zoom="1"
     inkscape:cx="245.30911"
     inkscape:cy="230.89906"
     inkscape:document-units="px"
     inkscape:current-layer="layer1"
     showgrid="false"
     inkscape:window-width="1280"
     inkscape:window-height="947"
     inkscape:window-x="0"
     inkscape:window-y="0"
     inkscape:window-maximized="1" />
  <defs
     id="defs4710">
    <linearGradient
       id="linearGradient8384"
       inkscape:collect="always">
      <stop
         id="stop8380"
         offset="0"
         style="stop-color:#181818;stop-opacity:0.37096775" />
      <stop
         id="stop8382"
         offset="1"
         style="stop-color:#404040;stop-opacity:0" />
    </linearGradient>
    <linearGradient
       inkscape:collect="always"
       id="linearGradient4573">
      <stop
         style="stop-color:#181818;stop-opacity:0.30645162"
         offset="0"
         id="stop4569" />
      <stop
         style="stop-color:#404040;stop-opacity:0"
         offset="1"
         id="stop4571" />
    </linearGradient>
    <marker
       inkscape:stockid="DotM"
       orient="auto"
       refY="0.0"
       refX="0.0"
       id="DotM"
       style="overflow:visible"
       inkscape:isstock="true">
      <path
         id="path4618"
         d="M -2.5,-1.0 C -2.5,1.7600000 -4.7400000,4.0 -7.5,4.0 C -10.260000,4.0 -12.5,1.7600000 -12.5,-1.0 C -12.5,-3.7600000 -10.260000,-6.0 -7.5,-6.0 C -4.7400000,-6.0 -2.5,-3.7600000 -2.5,-1.0 z "
         style="fill-rule:evenodd;stroke:#000000;stroke-width:1.0pt"
         transform="scale(0.4) translate(7.4, 1)" />
    </marker>
    <linearGradient
       osb:paint="solid"
       id="linearGradient5207">
      <stop
         id="stop5209"
         offset="0"
         style="stop-color:#000015;stop-opacity:1;" />
    </linearGradient>
    <clipPath
       id="clipPath3006-9-8"
       clipPathUnits="userSpaceOnUse">
      <path
         inkscape:export-ydpi="90"
         inkscape:export-xdpi="90"
         transform="matrix(1.2020779,0,0,1.2020779,-93.20363,-75.172465)"
         d="m 483,275.5 a 192.5,192.5 0 1 1 -385,0 192.5,192.5 0 1 1 385,0 z"
         sodipodi:ry="192.5"
         sodipodi:rx="192.5"
         sodipodi:cy="275.5"
         sodipodi:cx="290.5"
         id="path3008-1-1"
         style="fill:#ffffff;fill-opacity:1;stroke:none;display:inline"
         sodipodi:type="arc" />
    </clipPath>
    <mask
       id="mask3818-4"
       maskUnits="userSpaceOnUse">
      <path
         sodipodi:type="arc"
         style="fill:#ffffff;fill-opacity:1;stroke:none;display:inline"
         id="path3820-9"
         sodipodi:cx="290.5"
         sodipodi:cy="275.5"
         sodipodi:rx="192.5"
         sodipodi:ry="192.5"
         d="m 483,275.5 a 192.5,192.5 0 1 1 -385,0 192.5,192.5 0 1 1 385,0 z"
         transform="matrix(1.2020779,0,0,1.2020779,-93.20363,-75.172466)"
         inkscape:export-xdpi="90"
         inkscape:export-ydpi="90" />
    </mask>
    <clipPath
       id="clipPath3006"
       clipPathUnits="userSpaceOnUse">
      <path
         inkscape:export-ydpi="90"
         inkscape:export-xdpi="90"
         transform="matrix(1.2020779,0,0,1.2020779,-93.20363,-75.172465)"
         d="m 483,275.5 a 192.5,192.5 0 1 1 -385,0 192.5,192.5 0 1 1 385,0 z"
         sodipodi:ry="192.5"
         sodipodi:rx="192.5"
         sodipodi:cy="275.5"
         sodipodi:cx="290.5"
         id="path3008"
         style="fill:#ffffff;fill-opacity:1;stroke:none;display:inline"
         sodipodi:type="arc" />
    </clipPath>
    <clipPath
       id="clipPath3006-9"
       clipPathUnits="userSpaceOnUse">
      <path
         inkscape:export-ydpi="90"
         inkscape:export-xdpi="90"
         transform="matrix(1.2020779,0,0,1.2020779,-93.20363,-75.172465)"
         d="m 483,275.5 a 192.5,192.5 0 1 1 -385,0 192.5,192.5 0 1 1 385,0 z"
         sodipodi:ry="192.5"
         sodipodi:rx="192.5"
         sodipodi:cy="275.5"
         sodipodi:cx="290.5"
         id="path3008-1"
         style="fill:#ffffff;fill-opacity:1;stroke:none;display:inline"
         sodipodi:type="arc" />
    </clipPath>
    <mask
       maskUnits="userSpaceOnUse"
       id="mask3818-0">
      <path
         inkscape:export-ydpi="90"
         inkscape:export-xdpi="90"
         transform="matrix(1.2020779,0,0,1.2020779,-93.20363,-75.172466)"
         d="m 483,275.5 a 192.5,192.5 0 1 1 -385,0 192.5,192.5 0 1 1 385,0 z"
         sodipodi:ry="192.5"
         sodipodi:rx="192.5"
         sodipodi:cy="275.5"
         sodipodi:cx="290.5"
         id="path3820-8"
         style="fill:#ffffff;fill-opacity:1;stroke:none;display:inline"
         sodipodi:type="arc" />
    </mask>
    <mask
       maskUnits="userSpaceOnUse"
       id="mask3818-2">
      <path
         inkscape:export-ydpi="90"
         inkscape:export-xdpi="90"
         transform="matrix(1.2020779,0,0,1.2020779,-93.20363,-75.172466)"
         d="m 483,275.5 a 192.5,192.5 0 1 1 -385,0 192.5,192.5 0 1 1 385,0 z"
         sodipodi:ry="192.5"
         sodipodi:rx="192.5"
         sodipodi:cy="275.5"
         sodipodi:cx="290.5"
         id="path3820-2-2"
         style="fill:#ffffff;fill-opacity:1;stroke:none;display:inline"
         sodipodi:type="arc" />
    </mask>
    <clipPath
       id="clipPath3934"
       clipPathUnits="userSpaceOnUse">
      <path
         id="path3936"
         d="m 0,0 0,1024 1024,0 L 1024,0 0,0 z m 278.4375,333.84375 119.78125,0 c 9.83697,42.31453 19.85954,84.58596 29.9375,126.84375 9.86978,-42.28798 20.05132,-84.50237 29.6875,-126.84375 l 108.90625,0 c 9.63586,42.34141 19.8178,84.55578 29.6875,126.84375 10.07827,-42.25772 20.10031,-84.52927 29.9375,-126.84375 l 119.1875,0 c -26.26221,110.73099 -52.49625,221.46929 -78.28125,332.3125 l -122.8125,0 c -10.59439,-45.55681 -21.46638,-91.04874 -32.375,-136.53125 -10.66279,45.51136 -21.5615,90.96897 -32,136.53125 l -122.8125,0 c -25.71418,-110.03502 -52.0286,-219.92873 -78.25,-329.84375 l -0.59375,-2.46875 z"
         style="fill:#ff3232;fill-opacity:1;stroke:none"
         inkscape:connector-curvature="0" />
    </clipPath>
    <clipPath
       id="clipPath3929"
       clipPathUnits="userSpaceOnUse">
      <path
         inkscape:connector-curvature="0"
         style="fill:#ff3232;fill-opacity:1;stroke:none"
         d="m 0,0 0,1024 1024,0 L 1024,0 0,0 z m 278.4375,333.84375 119.78125,0 c 9.83697,42.31453 19.85954,84.58596 29.9375,126.84375 9.86978,-42.28798 20.05132,-84.50237 29.6875,-126.84375 l 108.90625,0 c 9.63586,42.34141 19.8178,84.55578 29.6875,126.84375 10.07827,-42.25772 20.10031,-84.52927 29.9375,-126.84375 l 119.1875,0 c -26.26221,110.73099 -52.49625,221.46929 -78.28125,332.3125 l -122.8125,0 c -10.59439,-45.55681 -21.46638,-91.04874 -32.375,-136.53125 -10.66279,45.51136 -21.5615,90.96897 -32,136.53125 l -122.8125,0 c -25.71418,-110.03502 -52.0286,-219.92873 -78.25,-329.84375 l -0.59375,-2.46875 z"
         id="path3931" />
    </clipPath>
    <mask
       maskUnits="userSpaceOnUse"
       id="mask3818">
      <path
         inkscape:export-ydpi="90"
         inkscape:export-xdpi="90"
         transform="matrix(1.2020779,0,0,1.2020779,-93.20363,-75.172466)"
         d="m 483,275.5 a 192.5,192.5 0 1 1 -385,0 192.5,192.5 0 1 1 385,0 z"
         sodipodi:ry="192.5"
         sodipodi:rx="192.5"
         sodipodi:cy="275.5"
         sodipodi:cx="290.5"
         id="path3820"
         style="fill:#ffffff;fill-opacity:1;stroke:none;display:inline"
         sodipodi:type="arc" />
    </mask>
    <linearGradient
       inkscape:collect="always"
       xlink:href="#linearGradient4573"
       id="linearGradient4575"
       x1="408.84314"
       y1="89.26915"
       x2="420.61133"
       y2="138.41306"
       gradientUnits="userSpaceOnUse"
       gradientTransform="matrix(0.99657796,0,0,1,1.2520606,0)" />
    <linearGradient
       inkscape:collect="always"
       xlink:href="#linearGradient8384"
       id="linearGradient6771"
       gradientUnits="userSpaceOnUse"
       gradientTransform="matrix(0.99657796,0,0,1,1.3692481,-0.00390625)"
       x1="408.84314"
       y1="89.26915"
       x2="420.61133"
       y2="138.41306" />
  </defs>
  <metadata
     id="metadata4713">
    <rdf:RDF>
      <cc:Work
         rdf:about="">
        <dc:format>image/svg+xml</dc:format>
        <dc:type
           rdf:resource="http://purl.org/dc/dcmitype/StillImage" />
        <dc:title />
      </cc:Work>
    </rdf:RDF>
  </metadata>
  <g
     id="layer1"
     inkscape:groupmode="layer"
     inkscape:label="Capa 1">
    <path
       style="opacity:1;fill:#f5f5f8;fill-opacity:1;fill-rule:evenodd;stroke:#75abd3;stroke-width:2;stroke-linejoin:round;stroke-miterlimit:4;stroke-dasharray:none;stroke-dashoffset:0;stroke-opacity:1;paint-order:normal"
       d="m 97.583979,29.700195 c -11.07875,0 -19.99804,9.65194 -19.99804,21.64062 V 460.66113 c 0,11.9887 8.91929,21.63867 19.99804,21.63867 H 414.41602 c 11.07874,0 19.99804,-9.64997 19.99804,-21.63867 V 113.7959 c -0.33411,-0.32981 -0.46874,-0.43168 -0.81445,-0.77345 -9.64188,-9.53205 -23.80681,-23.701345 -37.64453,-37.822255 -6.91884,-7.06045 -13.75546,-14.10994 -19.9043,-20.56055 -6.14876,-6.45062 -11.60929,-12.30327 -15.77539,-16.97265 -3.0827,-3.45513 -4.82334,-5.68286 -6.625,-7.9668 z"
       id="path4506"
       inkscape:connector-curvature="0"
       sodipodi:nodetypes="ssssssccccccs" />
    <g
       id="g4584"
       transform="matrix(0.3829248,0,0,0.3829248,74.406719,31.973725)"
       style="fill:#75abd3;fill-opacity:1;stroke:#9dc4df;stroke-opacity:1" />
    <path
       style="opacity:1;fill:#75abd3;fill-opacity:1;fill-rule:evenodd;stroke:#e7e7ea;stroke-width:0.851;stroke-linecap:square;stroke-linejoin:miter;stroke-miterlimit:4;stroke-dasharray:none;stroke-dashoffset:0;stroke-opacity:1;paint-order:markers fill stroke"
       d="M 130.94922 401.95117 C 126.62462 401.95117 122.78753 402.64989 119.43945 404.04492 C 116.09138 405.43995 113.26665 407.39324 110.96484 409.9043 C 108.66304 412.3456 106.92015 415.3093 105.73438 418.79688 C 104.5486 422.28445 103.95508 426.12155 103.95508 430.30664 C 103.95508 434.63124 104.5486 438.53586 105.73438 442.02344 C 106.92015 445.44126 108.66304 448.40691 110.96484 450.91797 C 113.3364 453.35927 116.23061 455.24308 119.64844 456.56836 C 123.06626 457.89364 127.00856 458.55469 131.47266 458.55469 C 134.12322 458.55469 136.77327 458.38196 139.42383 458.0332 C 142.07439 457.68445 145.00432 456.88053 148.21289 455.625 C 148.21289 452.62568 147.86353 449.97563 147.16602 447.67383 C 146.4685 445.30228 145.52757 443.17431 144.3418 441.29102 C 142.319 442.05828 140.54039 442.61804 139.00586 442.9668 C 137.54108 443.31555 135.79623 443.48828 133.77344 443.48828 C 132.16915 443.48828 130.6347 443.27984 129.16992 442.86133 C 127.77489 442.44282 126.52032 441.74605 125.4043 440.76953 C 124.35802 439.79301 123.48462 438.46701 122.78711 436.79297 C 122.15935 435.04918 121.8457 432.88745 121.8457 430.30664 C 121.8457 425.42403 122.92755 422.00578 125.08984 420.05273 C 127.32189 418.02994 130.11091 417.01758 133.45898 417.01758 C 134.36575 417.01758 135.20344 417.0533 135.9707 417.12305 C 136.80772 417.12305 137.6454 417.19253 138.48242 417.33203 C 139.31944 417.47153 140.19089 417.68193 141.09766 417.96094 C 142.07418 418.17019 143.15602 418.48383 144.3418 418.90234 C 145.52757 416.67029 146.39902 414.40336 146.95703 412.10156 C 147.51504 409.73001 147.72349 407.35788 147.58398 404.98633 C 145.90995 404.35856 144.3755 403.83452 142.98047 403.41602 C 141.65519 402.99751 140.33114 402.68386 139.00586 402.47461 C 137.75033 402.26535 136.45809 402.12639 135.13281 402.05664 C 133.80753 401.98689 132.414 401.95117 130.94922 401.95117 z M 175.59375 401.95117 C 172.94319 401.95117 169.94378 402.23105 166.5957 402.78906 C 163.31738 403.34707 160.00432 404.18476 156.65625 405.30078 C 156.65625 406.69581 156.69001 407.95038 156.75977 409.06641 C 156.89927 410.11268 157.07395 411.1588 157.2832 412.20508 C 157.56221 413.1816 157.91157 414.15824 158.33008 415.13477 C 158.81834 416.11129 159.37614 417.19313 160.00391 418.37891 C 162.37546 417.54189 164.67811 416.94837 166.91016 416.59961 C 169.14221 416.1811 171.09354 415.97266 172.76758 415.97266 C 174.02311 415.97266 175.24391 416.0759 176.42969 416.28516 C 177.61546 416.42466 178.69731 416.74025 179.67383 417.22852 C 180.65035 417.64702 181.45231 418.27431 182.08008 419.11133 C 182.70784 419.94835 183.0572 420.99447 183.12695 422.25 L 176.74414 422.25 C 174.09358 422.25 171.37405 422.52793 168.58398 423.08594 C 165.79392 423.5742 163.24711 424.48136 160.94531 425.80664 C 158.64351 427.13192 156.7597 428.91053 155.29492 431.14258 C 153.83014 433.37463 153.09766 436.19936 153.09766 439.61719 C 153.09766 443.10477 153.69118 446.07041 154.87695 448.51172 C 156.13248 450.88327 157.84161 452.80084 160.00391 454.26562 C 162.1662 455.73041 164.74678 456.77653 167.74609 457.4043 C 170.81516 458.10181 174.16393 458.45117 177.79102 458.45117 C 181.97611 458.45117 185.95217 458.06805 189.71875 457.30078 C 193.48533 456.53351 196.69319 455.76531 199.34375 454.99805 L 199.34375 424.3418 C 199.34375 420.43571 198.78595 417.08889 197.66992 414.29883 C 196.5539 411.43901 194.94997 409.10065 192.85742 407.28711 C 190.83463 405.47357 188.3573 404.14952 185.42773 403.3125 C 182.49817 402.40573 179.22083 401.95117 175.59375 401.95117 z M 231.0918 401.95117 C 227.74372 401.95117 224.67483 402.37001 221.88477 403.20703 C 219.16445 404.04405 216.79233 405.26485 214.76953 406.86914 C 212.74674 408.40367 211.17852 410.28748 210.0625 412.51953 C 208.94648 414.75158 208.38672 417.22695 208.38672 419.94727 C 208.38672 424.27186 209.60752 427.69012 212.04883 430.20117 C 214.49013 432.71223 217.55903 434.49084 221.25586 435.53711 L 228.37109 437.52539 C 229.55687 437.87415 230.603 438.29299 231.50977 438.78125 C 232.41654 439.19976 232.87109 439.86276 232.87109 440.76953 C 232.87109 441.46705 232.62693 442.02485 232.13867 442.44336 C 231.72016 442.86187 231.16236 443.20928 230.46484 443.48828 C 229.76733 443.69754 228.96341 443.83845 228.05664 443.9082 C 227.14987 443.97795 226.27842 444.01172 225.44141 444.01172 C 223.0001 444.01172 220.55849 443.76756 218.11719 443.2793 C 215.67588 442.72128 213.33947 441.91932 211.10742 440.87305 C 208.87537 445.75566 207.58509 450.56939 207.23633 455.3125 C 210.4449 456.49828 213.48003 457.334 216.33984 457.82227 C 219.19966 458.31053 222.30232 458.55469 225.65039 458.55469 C 229.69598 458.55469 233.2532 458.06637 236.32227 457.08984 C 239.46109 456.11332 242.07738 454.78927 244.16992 453.11523 C 246.33222 451.4412 247.93615 449.45219 248.98242 447.15039 C 250.09845 444.84859 250.65625 442.37322 250.65625 439.72266 C 250.65625 437.14185 250.30884 434.9444 249.61133 433.13086 C 248.91381 431.31732 247.93717 429.78287 246.68164 428.52734 C 245.49586 427.27182 244.0309 426.26141 242.28711 425.49414 C 240.61307 424.65712 238.72927 423.9584 236.63672 423.40039 L 229.83594 421.62109 C 228.85942 421.34209 227.98797 420.99468 227.2207 420.57617 C 226.45344 420.15766 226.07031 419.56414 226.07031 418.79688 C 226.07031 416.98333 227.708 416.07617 230.98633 416.07617 C 233.21838 416.07617 235.65999 416.38981 238.31055 417.01758 C 240.96111 417.64534 243.22804 418.34406 245.11133 419.11133 C 246.08785 417.15828 246.9593 414.92512 247.72656 412.41406 C 248.49383 409.83325 248.94839 407.42736 249.08789 405.19531 C 246.01882 404.14904 242.91421 403.34707 239.77539 402.78906 C 236.63657 402.23105 233.74236 401.95117 231.0918 401.95117 z M 255.35938 403.20703 C 255.01062 404.60206 254.76646 405.89235 254.62695 407.07812 C 254.5572 408.2639 254.52148 409.41523 254.52148 410.53125 C 254.52148 411.64727 254.5572 412.83236 254.62695 414.08789 C 254.76646 415.27367 255.01062 416.56591 255.35938 417.96094 L 270.84375 417.96094 L 270.84375 457.19531 C 272.58754 457.47432 274.19147 457.68276 275.65625 457.82227 C 277.12103 457.96177 278.44704 458.0332 279.63281 458.0332 C 280.81859 458.0332 282.14264 457.96177 283.60742 457.82227 C 285.0722 457.68276 286.71185 457.47432 288.52539 457.19531 L 288.52539 417.96094 L 304.00977 417.96094 C 304.35852 416.56591 304.56892 415.27367 304.63867 414.08789 C 304.77817 412.83236 304.84766 411.64727 304.84766 410.53125 C 304.84766 409.41523 304.77817 408.2639 304.63867 407.07812 C 304.56892 405.89235 304.35852 404.60206 304.00977 403.20703 L 255.35938 403.20703 z M 177.16211 433.33984 L 183.12695 433.33984 L 183.12695 444.84961 C 182.56894 444.98911 181.6975 445.12808 180.51172 445.26758 C 179.32594 445.40708 178.41878 445.47656 177.79102 445.47656 C 176.88425 445.47656 175.87188 445.40708 174.75586 445.26758 C 173.70959 445.12808 172.69918 444.85015 171.72266 444.43164 C 170.81589 444.01313 170.04769 443.41961 169.41992 442.65234 C 168.79216 441.81533 168.47852 440.69972 168.47852 439.30469 C 168.47852 437.4214 169.3162 435.95643 170.99023 434.91016 C 172.66427 433.86388 174.7208 433.33984 177.16211 433.33984 z "
       id="rect4610-3" />
    <path
       style="opacity:1;fill:url(#linearGradient6771);fill-opacity:1;fill-rule:evenodd;stroke:none;stroke-width:8.77774811;stroke-linecap:square;stroke-linejoin:miter;stroke-miterlimit:4;stroke-dasharray:none;stroke-dashoffset:0;stroke-opacity:1;paint-order:markers fill stroke"
       d="m 433.40658,182.37194 v -69.47028 c 0,-0.0394 -0.0309,-0.0705 -0.0703,-0.0705 h -67.33747 c 4.09851,4.50878 8.40749,9.2132 13.77948,14.86279 7.205,7.57734 15.21697,15.8602 23.32513,24.15489 11.13885,11.3951 20.83136,21.05949 30.30308,30.52302 z"
       id="path4566"
       inkscape:connector-curvature="0" />
    <path
       style="opacity:1;fill:#75abd3;fill-opacity:1;fill-rule:evenodd;stroke:none;stroke-width:1.05391276;stroke-linejoin:round;stroke-miterlimit:4;stroke-dasharray:none;stroke-dashoffset:0;stroke-opacity:1;paint-order:normal"
       d="m 435.00048,114.60612 c -1.83541,-2.30475 -3.6077,-4.55306 -6.74972,-8.04125 -4.24635,-4.71409 -9.8132,-10.623129 -16.08223,-17.137261 C 405.8996,82.913483 398.92921,75.794273 391.8744,68.663457 377.76477,54.401804 363.32068,40.090503 353.48814,30.462087 c -0.35278,-0.345219 -0.4898,-0.448268 -0.83055,-0.781422 l -0.24394,62.802323 c -0.0467,12.055462 9.04538,21.800782 20.38588,21.850482 z"
       id="rect4485"
       inkscape:connector-curvature="0" />
    <rect
       style="fill:#75abd3;fill-opacity:1;fill-rule:evenodd;stroke:none;stroke-width:0.75082463;stroke-miterlimit:2.01260185"
       y="121.06036"
       x="228.74361"
       id="shape0"
       stroke-miterlimit="2.01260185242"
       width="54.512798"
       height="114.10731"
       rx="27.256399"
       ry="30.889748" />
    <path
       style="fill:#75abd3;fill-opacity:1;fill-rule:evenodd;stroke:none;stroke-width:0;stroke-linecap:square;stroke-linejoin:bevel;stroke-opacity:1"
       d="m 215.01717,207.32645 -17.08788,0.076 c 1.51237,35.39423 24.83402,55.22775 50.1998,58.68715 v 22.78383 c -11.14964,1.87662 -21.83027,7.54345 -29.95301,16.93435 l 76.01849,0.25278 c -7.94618,-9.67383 -18.56149,-15.38436 -29.72662,-17.2259 V 266.0508 c 24.74126,-3.49417 47.40917,-22.76529 49.60276,-58.62201 l -17.35926,-0.10235 c -2.91951,55.2188 -78.44199,55.61809 -81.69429,0 z"
       id="shape01"
       inkscape:connector-curvature="0" />
    <path
       style="opacity:1;fill:#75abd3;fill-opacity:1;fill-rule:evenodd;stroke:#e7e7ea;stroke-width:0.91101676;stroke-linecap:square;stroke-linejoin:miter;stroke-miterlimit:4;stroke-dasharray:none;stroke-dashoffset:0;stroke-opacity:1;paint-order:markers fill stroke"
       d="M 127.2168 296.16406 C 121.12657 296.16406 116.05038 296.41826 111.99023 296.92578 C 108.01467 297.34871 105.05486 297.68569 103.10938 297.93945 L 103.10938 388.53125 C 107.50787 389.29253 111.18791 389.67383 114.14844 389.67383 C 115.67099 389.67383 117.31939 389.58909 119.0957 389.41992 C 120.87202 389.25075 122.85935 388.95418 125.05859 388.53125 L 125.05859 358.96875 C 125.73529 359.13792 126.87723 359.30739 128.48438 359.47656 C 130.1761 359.56115 131.82645 359.60352 133.43359 359.60352 C 137.49374 359.60352 141.42603 359.09512 145.23242 358.08008 C 149.1234 357.06504 152.54924 355.37428 155.50977 353.00586 C 158.55488 350.63744 160.96587 347.4658 162.74219 343.49023 C 164.60309 339.51467 165.5332 334.52322 165.5332 328.51758 C 165.5332 321.75066 164.39126 316.25276 162.10742 312.02344 C 159.82359 307.79412 156.82141 304.53774 153.09961 302.25391 C 149.46239 299.88549 145.36064 298.27751 140.79297 297.43164 C 136.2253 296.58578 131.69988 296.16406 127.2168 296.16406 z M 127.08984 315.06836 L 128.86523 315.06836 C 130.72614 315.06836 132.50358 315.28019 134.19531 315.70312 C 135.88704 316.12606 137.36597 316.8867 138.63477 317.98633 C 139.90356 319.00137 140.878 320.39751 141.55469 322.17383 C 142.31597 323.86556 142.69531 325.97998 142.69531 328.51758 C 142.69531 332.83149 141.55337 336.0455 139.26953 338.16016 C 136.9857 340.27482 134.02589 341.33203 130.38867 341.33203 C 129.28905 341.33203 128.23183 341.28966 127.2168 341.20508 C 126.20176 341.12049 125.48153 340.99534 125.05859 340.82617 L 125.05859 315.19531 C 125.73529 315.11073 126.41315 315.06836 127.08984 315.06836 z M 202.66406 321.79297 C 197.33512 321.79297 192.64023 322.63835 188.58008 324.33008 C 184.51993 325.93722 181.09409 328.26348 178.30273 331.30859 C 175.59597 334.35371 173.52391 338.03375 172.08594 342.34766 C 170.73255 346.57698 170.05664 351.27187 170.05664 356.43164 C 170.05664 361.50683 170.73255 366.15935 172.08594 370.38867 C 173.52391 374.53341 175.59597 378.12872 178.30273 381.17383 C 181.09409 384.13435 184.51993 386.41825 188.58008 388.02539 C 192.64023 389.63253 197.33512 390.43555 202.66406 390.43555 C 208.07759 390.43555 212.81485 389.63253 216.875 388.02539 C 220.93515 386.41825 224.31862 384.13435 227.02539 381.17383 C 229.81674 378.12872 231.8888 374.53341 233.24219 370.38867 C 234.68016 366.15935 235.39844 361.50683 235.39844 356.43164 C 235.39844 351.27187 234.68016 346.57698 233.24219 342.34766 C 231.8888 338.03375 229.81674 334.35371 227.02539 331.30859 C 224.31862 328.26348 220.93515 325.93722 216.875 324.33008 C 212.81485 322.63835 208.07759 321.79297 202.66406 321.79297 z M 268.79102 321.79297 C 265.32297 321.79297 261.60056 322.0048 257.625 322.42773 C 253.64944 322.76608 249.88466 323.14738 246.33203 323.57031 L 246.33203 388.78516 C 249.88466 389.29267 253.26814 389.67398 256.48242 389.92773 C 259.78129 390.26608 263.5037 390.43555 267.64844 390.43555 C 274.7537 390.43555 280.80237 389.63253 285.79297 388.02539 C 290.86816 386.33366 294.96991 383.96503 298.09961 380.91992 C 301.31389 377.87481 303.64016 374.19477 305.07812 369.88086 C 306.60068 365.56695 307.36133 360.74496 307.36133 355.41602 C 307.36133 350.34083 306.64305 345.73067 305.20508 341.58594 C 303.76711 337.4412 301.48321 333.93063 298.35352 331.05469 C 295.22382 328.09416 291.20484 325.81027 286.29883 324.20312 C 281.4774 322.59598 275.64252 321.79297 268.79102 321.79297 z M 202.66406 339.68359 C 206.38587 339.68359 209.13579 341.12211 210.91211 343.99805 C 212.77301 346.87399 213.70312 351.01811 213.70312 356.43164 C 213.70313 361.76059 212.77301 365.86234 210.91211 368.73828 C 209.13579 371.61422 206.38587 373.05273 202.66406 373.05273 C 198.94226 373.05273 196.19233 371.61422 194.41602 368.73828 C 192.6397 365.86234 191.75195 361.76059 191.75195 356.43164 C 191.75195 351.01811 192.6397 346.87399 194.41602 343.99805 C 196.19233 341.12211 198.94226 339.68359 202.66406 339.68359 z M 272.4707 339.81055 C 276.70003 339.81055 279.9564 341.07959 282.24023 343.61719 C 284.52407 346.07019 285.66602 350.00248 285.66602 355.41602 C 285.66602 361.50624 284.4817 365.90456 282.11328 368.61133 C 279.82945 371.23351 276.31887 372.54492 271.58203 372.54492 C 270.48241 372.54492 269.63703 372.50256 269.04492 372.41797 C 268.5374 372.33338 268.11374 372.29102 267.77539 372.29102 L 267.77539 340.19141 C 268.19832 340.10682 268.83187 340.02209 269.67773 339.9375 C 270.5236 339.85291 271.45567 339.81055 272.4707 339.81055 z "
       id="rect4551" />
  </g>
</svg>
