<?xml version="1.0" encoding="UTF-8" standalone="no"?>
<!-- Created with Inkscape (http://www.inkscape.org/) -->

<svg
   xmlns:osb="http://www.openswatchbook.org/uri/2009/osb"
   xmlns:dc="http://purl.org/dc/elements/1.1/"
   xmlns:cc="http://creativecommons.org/ns#"
   xmlns:rdf="http://www.w3.org/1999/02/22-rdf-syntax-ns#"
   xmlns:svg="http://www.w3.org/2000/svg"
   xmlns="http://www.w3.org/2000/svg"
   xmlns:xlink="http://www.w3.org/1999/xlink"
   xmlns:sodipodi="http://sodipodi.sourceforge.net/DTD/sodipodi-0.dtd"
   xmlns:inkscape="http://www.inkscape.org/namespaces/inkscape"
   width="512px"
   height="512px"
   viewBox="0 0 512 512"
   version="1.1"
   id="SVGRoot"
   inkscape:version="0.92.1 r15371"
   sodipodi:docname="xls.svg">
  <sodipodi:namedview
     id="base"
     pagecolor="#ffffff"
     bordercolor="#666666"
     borderopacity="1.0"
     inkscape:pageopacity="0.0"
     inkscape:pageshadow="2"
     inkscape:zoom="0.5"
     inkscape:cx="176.09449"
     inkscape:cy="250.73937"
     inkscape:document-units="px"
     inkscape:current-layer="layer1"
     showgrid="false"
     inkscape:window-width="1232"
     inkscape:window-height="531"
     inkscape:window-x="33"
     inkscape:window-y="68"
     inkscape:window-maximized="0" />
  <defs
     id="defs4710">
    <linearGradient
       id="linearGradient8384"
       inkscape:collect="always">
      <stop
         id="stop8380"
         offset="0"
         style="stop-color:#181818;stop-opacity:0.62365592" />
      <stop
         id="stop8382"
         offset="1"
         style="stop-color:#404040;stop-opacity:0" />
    </linearGradient>
    <linearGradient
       inkscape:collect="always"
       id="linearGradient4573">
      <stop
         style="stop-color:#181818;stop-opacity:0.30645162"
         offset="0"
         id="stop4569" />
      <stop
         style="stop-color:#404040;stop-opacity:0"
         offset="1"
         id="stop4571" />
    </linearGradient>
    <marker
       inkscape:stockid="DotM"
       orient="auto"
       refY="0.0"
       refX="0.0"
       id="DotM"
       style="overflow:visible"
       inkscape:isstock="true">
      <path
         id="path4618"
         d="M -2.5,-1.0 C -2.5,1.7600000 -4.7400000,4.0 -7.5,4.0 C -10.260000,4.0 -12.5,1.7600000 -12.5,-1.0 C -12.5,-3.7600000 -10.260000,-6.0 -7.5,-6.0 C -4.7400000,-6.0 -2.5,-3.7600000 -2.5,-1.0 z "
         style="fill-rule:evenodd;stroke:#000000;stroke-width:1.0pt"
         transform="scale(0.4) translate(7.4, 1)" />
    </marker>
    <linearGradient
       osb:paint="solid"
       id="linearGradient5207">
      <stop
         id="stop5209"
         offset="0"
         style="stop-color:#000015;stop-opacity:1;" />
    </linearGradient>
    <clipPath
       id="clipPath3006-9-8"
       clipPathUnits="userSpaceOnUse">
      <path
         inkscape:export-ydpi="90"
         inkscape:export-xdpi="90"
         transform="matrix(1.2020779,0,0,1.2020779,-93.20363,-75.172465)"
         d="m 483,275.5 a 192.5,192.5 0 1 1 -385,0 192.5,192.5 0 1 1 385,0 z"
         sodipodi:ry="192.5"
         sodipodi:rx="192.5"
         sodipodi:cy="275.5"
         sodipodi:cx="290.5"
         id="path3008-1-1"
         style="fill:#ffffff;fill-opacity:1;stroke:none;display:inline"
         sodipodi:type="arc" />
    </clipPath>
    <mask
       id="mask3818-4"
       maskUnits="userSpaceOnUse">
      <path
         sodipodi:type="arc"
         style="fill:#ffffff;fill-opacity:1;stroke:none;display:inline"
         id="path3820-9"
         sodipodi:cx="290.5"
         sodipodi:cy="275.5"
         sodipodi:rx="192.5"
         sodipodi:ry="192.5"
         d="m 483,275.5 a 192.5,192.5 0 1 1 -385,0 192.5,192.5 0 1 1 385,0 z"
         transform="matrix(1.2020779,0,0,1.2020779,-93.20363,-75.172466)"
         inkscape:export-xdpi="90"
         inkscape:export-ydpi="90" />
    </mask>
    <clipPath
       id="clipPath3006"
       clipPathUnits="userSpaceOnUse">
      <path
         inkscape:export-ydpi="90"
         inkscape:export-xdpi="90"
         transform="matrix(1.2020779,0,0,1.2020779,-93.20363,-75.172465)"
         d="m 483,275.5 a 192.5,192.5 0 1 1 -385,0 192.5,192.5 0 1 1 385,0 z"
         sodipodi:ry="192.5"
         sodipodi:rx="192.5"
         sodipodi:cy="275.5"
         sodipodi:cx="290.5"
         id="path3008"
         style="fill:#ffffff;fill-opacity:1;stroke:none;display:inline"
         sodipodi:type="arc" />
    </clipPath>
    <clipPath
       id="clipPath3006-9"
       clipPathUnits="userSpaceOnUse">
      <path
         inkscape:export-ydpi="90"
         inkscape:export-xdpi="90"
         transform="matrix(1.2020779,0,0,1.2020779,-93.20363,-75.172465)"
         d="m 483,275.5 a 192.5,192.5 0 1 1 -385,0 192.5,192.5 0 1 1 385,0 z"
         sodipodi:ry="192.5"
         sodipodi:rx="192.5"
         sodipodi:cy="275.5"
         sodipodi:cx="290.5"
         id="path3008-1"
         style="fill:#ffffff;fill-opacity:1;stroke:none;display:inline"
         sodipodi:type="arc" />
    </clipPath>
    <mask
       maskUnits="userSpaceOnUse"
       id="mask3818-0">
      <path
         inkscape:export-ydpi="90"
         inkscape:export-xdpi="90"
         transform="matrix(1.2020779,0,0,1.2020779,-93.20363,-75.172466)"
         d="m 483,275.5 a 192.5,192.5 0 1 1 -385,0 192.5,192.5 0 1 1 385,0 z"
         sodipodi:ry="192.5"
         sodipodi:rx="192.5"
         sodipodi:cy="275.5"
         sodipodi:cx="290.5"
         id="path3820-8"
         style="fill:#ffffff;fill-opacity:1;stroke:none;display:inline"
         sodipodi:type="arc" />
    </mask>
    <mask
       maskUnits="userSpaceOnUse"
       id="mask3818-2">
      <path
         inkscape:export-ydpi="90"
         inkscape:export-xdpi="90"
         transform="matrix(1.2020779,0,0,1.2020779,-93.20363,-75.172466)"
         d="m 483,275.5 a 192.5,192.5 0 1 1 -385,0 192.5,192.5 0 1 1 385,0 z"
         sodipodi:ry="192.5"
         sodipodi:rx="192.5"
         sodipodi:cy="275.5"
         sodipodi:cx="290.5"
         id="path3820-2-2"
         style="fill:#ffffff;fill-opacity:1;stroke:none;display:inline"
         sodipodi:type="arc" />
    </mask>
    <clipPath
       id="clipPath3934"
       clipPathUnits="userSpaceOnUse">
      <path
         id="path3936"
         d="m 0,0 0,1024 1024,0 L 1024,0 0,0 z m 278.4375,333.84375 119.78125,0 c 9.83697,42.31453 19.85954,84.58596 29.9375,126.84375 9.86978,-42.28798 20.05132,-84.50237 29.6875,-126.84375 l 108.90625,0 c 9.63586,42.34141 19.8178,84.55578 29.6875,126.84375 10.07827,-42.25772 20.10031,-84.52927 29.9375,-126.84375 l 119.1875,0 c -26.26221,110.73099 -52.49625,221.46929 -78.28125,332.3125 l -122.8125,0 c -10.59439,-45.55681 -21.46638,-91.04874 -32.375,-136.53125 -10.66279,45.51136 -21.5615,90.96897 -32,136.53125 l -122.8125,0 c -25.71418,-110.03502 -52.0286,-219.92873 -78.25,-329.84375 l -0.59375,-2.46875 z"
         style="fill:#ff3232;fill-opacity:1;stroke:none"
         inkscape:connector-curvature="0" />
    </clipPath>
    <clipPath
       id="clipPath3929"
       clipPathUnits="userSpaceOnUse">
      <path
         inkscape:connector-curvature="0"
         style="fill:#ff3232;fill-opacity:1;stroke:none"
         d="m 0,0 0,1024 1024,0 L 1024,0 0,0 z m 278.4375,333.84375 119.78125,0 c 9.83697,42.31453 19.85954,84.58596 29.9375,126.84375 9.86978,-42.28798 20.05132,-84.50237 29.6875,-126.84375 l 108.90625,0 c 9.63586,42.34141 19.8178,84.55578 29.6875,126.84375 10.07827,-42.25772 20.10031,-84.52927 29.9375,-126.84375 l 119.1875,0 c -26.26221,110.73099 -52.49625,221.46929 -78.28125,332.3125 l -122.8125,0 c -10.59439,-45.55681 -21.46638,-91.04874 -32.375,-136.53125 -10.66279,45.51136 -21.5615,90.96897 -32,136.53125 l -122.8125,0 c -25.71418,-110.03502 -52.0286,-219.92873 -78.25,-329.84375 l -0.59375,-2.46875 z"
         id="path3931" />
    </clipPath>
    <mask
       maskUnits="userSpaceOnUse"
       id="mask3818">
      <path
         inkscape:export-ydpi="90"
         inkscape:export-xdpi="90"
         transform="matrix(1.2020779,0,0,1.2020779,-93.20363,-75.172466)"
         d="m 483,275.5 a 192.5,192.5 0 1 1 -385,0 192.5,192.5 0 1 1 385,0 z"
         sodipodi:ry="192.5"
         sodipodi:rx="192.5"
         sodipodi:cy="275.5"
         sodipodi:cx="290.5"
         id="path3820"
         style="fill:#ffffff;fill-opacity:1;stroke:none;display:inline"
         sodipodi:type="arc" />
    </mask>
    <linearGradient
       inkscape:collect="always"
       xlink:href="#linearGradient4573"
       id="linearGradient4575"
       x1="408.84314"
       y1="89.26915"
       x2="420.61133"
       y2="138.41306"
       gradientUnits="userSpaceOnUse"
       gradientTransform="matrix(0.99657796,0,0,1,1.2520606,0)" />
    <linearGradient
       inkscape:collect="always"
       xlink:href="#linearGradient8384"
       id="linearGradient6771"
       gradientUnits="userSpaceOnUse"
       gradientTransform="matrix(0.99657796,0,0,1,1.2520606,0)"
       x1="408.84314"
       y1="89.26915"
       x2="420.61133"
       y2="138.41306" />
  </defs>
  <metadata
     id="metadata4713">
    <rdf:RDF>
      <cc:Work
         rdf:about="">
        <dc:format>image/svg+xml</dc:format>
        <dc:type
           rdf:resource="http://purl.org/dc/dcmitype/StillImage" />
        <dc:title></dc:title>
      </cc:Work>
    </rdf:RDF>
  </metadata>
  <g
     id="layer1"
     inkscape:groupmode="layer"
     inkscape:label="Capa 1">
    <path
       style="opacity:1;fill:#fcfffc;fill-opacity:1;fill-rule:evenodd;stroke:#268c26;stroke-width:2;stroke-linejoin:round;stroke-miterlimit:4;stroke-dasharray:none;stroke-dashoffset:0;stroke-opacity:1;paint-order:normal"
       d="m 97.583979,29.700195 c -11.07875,0 -19.99804,9.65194 -19.99804,21.64062 V 460.66113 c 0,11.9887 8.91929,21.63867 19.99804,21.63867 H 414.41602 c 11.07874,0 19.99804,-9.64997 19.99804,-21.63867 V 113.7959 c -0.33411,-0.32981 -0.46874,-0.43168 -0.81445,-0.77345 -9.64188,-9.53205 -23.80681,-23.701345 -37.64453,-37.822255 -6.91884,-7.06045 -13.75546,-14.10994 -19.9043,-20.56055 -6.14876,-6.45062 -11.60929,-12.30327 -15.77539,-16.97265 -3.0827,-3.45513 -4.82334,-5.68286 -6.625,-7.9668 z"
       id="path4506"
       inkscape:connector-curvature="0"
       sodipodi:nodetypes="ssssssccccccs" />
    <g
       id="g4584"
       transform="matrix(0.3829248,0,0,0.3829248,74.406719,31.973725)"
       style="fill:#75abd3;fill-opacity:1;stroke:#9dc4df;stroke-opacity:1" />
    <path
       style="opacity:1;fill:#268c26;fill-opacity:1;fill-rule:evenodd;stroke:#94d587;stroke-width:0.85055965;stroke-linecap:square;stroke-linejoin:miter;stroke-miterlimit:4;stroke-dasharray:none;stroke-dashoffset:0;stroke-opacity:1;paint-order:markers fill stroke"
       d="M 250.72266 380.81641 C 246.74682 380.81641 243.15388 381.34045 239.94531 382.38672 C 236.73674 383.36324 233.98344 384.86197 231.68164 386.88477 C 229.44959 388.83781 227.70475 391.24565 226.44922 394.10547 C 225.19369 396.96528 224.56641 400.24262 224.56641 403.93945 C 224.56641 406.93877 224.94953 409.55506 225.7168 411.78711 C 226.55382 414.01916 227.70514 416.00621 229.16992 417.75 C 230.6347 419.42404 232.3776 420.889 234.40039 422.14453 C 236.49294 423.40006 238.79558 424.4819 241.30664 425.38867 L 247.16602 427.58594 C 248.07279 427.9347 248.94423 428.31782 249.78125 428.73633 C 250.68802 429.08509 251.48998 429.53769 252.1875 430.0957 C 252.88502 430.65372 253.44282 431.35243 253.86133 432.18945 C 254.27984 432.95672 254.49023 433.89765 254.49023 435.01367 C 254.49023 437.66423 253.47787 439.54804 251.45508 440.66406 C 249.50203 441.71034 246.74678 442.23242 243.18945 442.23242 C 238.44635 442.23242 232.86636 440.83889 226.44922 438.04883 C 225.4727 440.90864 224.63502 443.73338 223.9375 446.52344 C 223.23998 449.24375 222.75166 451.82432 222.47266 454.26562 C 226.30899 455.73041 229.86621 456.81225 233.14453 457.50977 C 236.49261 458.20728 240.3297 458.55469 244.6543 458.55469 C 249.3974 458.55469 253.5819 457.99688 257.20898 456.88086 C 260.90582 455.69508 264.01043 454.05544 266.52148 451.96289 C 269.03254 449.80059 270.91635 447.25574 272.17188 444.32617 C 273.49715 441.32685 274.16016 437.97808 274.16016 434.28125 C 274.16016 430.86342 273.7056 427.96921 272.79883 425.59766 C 271.89206 423.15635 270.60177 421.09787 268.92773 419.42383 C 267.2537 417.68004 265.23093 416.21507 262.85938 415.0293 C 260.55757 413.77377 257.94128 412.55492 255.01172 411.36914 L 249.99023 409.38086 C 248.17669 408.68334 246.60848 407.84566 245.2832 406.86914 C 243.95792 405.89262 243.29492 404.39389 243.29492 402.37109 C 243.29492 401.18532 243.53908 400.20867 244.02734 399.44141 C 244.5156 398.60439 245.14289 397.97515 245.91016 397.55664 C 246.74717 397.06838 247.65434 396.72097 248.63086 396.51172 C 249.67713 396.30246 250.75702 396.19727 251.87305 396.19727 C 255.50013 396.19727 258.53526 396.61611 260.97656 397.45312 C 263.41787 398.29014 265.54583 399.09211 267.35938 399.85938 C 268.4754 397.48782 269.38061 394.97673 270.07812 392.32617 C 270.84539 389.60586 271.36943 387.13049 271.64844 384.89844 C 267.88185 383.57316 264.32464 382.5608 260.97656 381.86328 C 257.69824 381.16577 254.27999 380.81641 250.72266 380.81641 z M 115.35938 381.44531 C 113.54583 381.44531 111.76723 381.51479 110.02344 381.6543 C 108.3494 381.72405 106.60651 381.93249 104.79297 382.28125 L 117.13867 418.16992 L 101.9668 456.98633 C 105.52413 457.61409 109.04758 457.92773 112.53516 457.92773 C 113.72093 457.92773 115.25538 457.82254 117.13867 457.61328 C 119.02196 457.47378 120.52069 457.26533 121.63672 456.98633 L 134.40234 419.63281 L 147.27148 456.98633 C 148.38751 457.26533 149.88624 457.47378 151.76953 457.61328 C 153.65282 457.82254 155.18727 457.92773 156.37305 457.92773 C 159.86062 457.92773 163.38408 457.61409 166.94141 456.98633 L 151.875 418.16992 L 164.11523 382.28125 C 162.30169 381.93249 160.5588 381.72405 158.88477 381.6543 C 157.21073 381.51479 155.46588 381.44531 153.65234 381.44531 C 152.46657 381.44531 150.93212 381.51479 149.04883 381.6543 C 147.16554 381.7938 145.66681 382.00224 144.55078 382.28125 L 134.40234 418.58789 L 124.46289 382.28125 C 123.34687 382.072 121.84618 381.89732 119.96289 381.75781 C 118.0796 381.54856 116.54515 381.44531 115.35938 381.44531 z M 183.63281 381.44531 C 182.44704 381.44531 181.08532 381.51479 179.55078 381.6543 C 178.01625 381.7938 176.30907 382.00224 174.42578 382.28125 L 174.42578 457.29883 L 217.11328 457.29883 C 217.46204 455.48529 217.67048 453.95084 217.74023 452.69531 C 217.87974 451.37003 217.94922 450.11546 217.94922 448.92969 C 217.94922 447.88341 217.87974 446.73209 217.74023 445.47656 C 217.67048 444.15128 217.46204 442.61684 217.11328 440.87305 L 192.94336 440.87305 L 192.94336 382.28125 C 191.12982 382.00224 189.42069 381.7938 187.81641 381.6543 C 186.28187 381.51479 184.88834 381.44531 183.63281 381.44531 z "
       id="rect4610" />
    <path
       style="opacity:1;fill:url(#linearGradient6771);fill-opacity:1;fill-rule:evenodd;stroke:none;stroke-width:8.77774811;stroke-linecap:square;stroke-linejoin:miter;stroke-miterlimit:4;stroke-dasharray:none;stroke-dashoffset:0;stroke-opacity:1;paint-order:markers fill stroke"
       d="m 433.28939,182.37584 v -69.47028 c 0,-0.0394 -0.0309,-0.0705 -0.0703,-0.0705 h -67.33747 c 4.09851,4.50878 8.40749,9.2132 13.77948,14.86279 7.205,7.57734 15.21697,15.8602 23.32513,24.15489 11.13885,11.3951 20.83136,21.05949 30.30308,30.52302 z"
       id="path4566"
       inkscape:connector-curvature="0" />
    <path
       style="opacity:1;fill:#268c26;fill-opacity:1;fill-rule:evenodd;stroke:none;stroke-width:1.05391276;stroke-linejoin:round;stroke-miterlimit:4;stroke-dasharray:none;stroke-dashoffset:0;stroke-opacity:1;paint-order:normal"
       d="m 435.00048,114.60612 c -1.83541,-2.30475 -3.6077,-4.55306 -6.74972,-8.04125 -4.24635,-4.71409 -9.8132,-10.623129 -16.08223,-17.137261 C 405.8996,82.913483 398.92921,75.794273 391.8744,68.663457 377.76477,54.401804 363.32068,40.090503 353.48814,30.462087 c -0.35278,-0.345219 -0.4898,-0.448268 -0.83055,-0.781422 l -0.24394,62.802323 c -0.0467,12.055462 9.04538,21.800782 20.38588,21.850482 z"
       id="rect4485"
       inkscape:connector-curvature="0" />
    <g
       transform="matrix(1,0,0,1.3630556,-445.45268,-109.9287)"
       id="g5015"
       style="stroke:none">
      <g
         transform="translate(41.142882,-90.289382)"
         id="g4843"
         style="fill:#acbec6;fill-opacity:1;stroke:none">
        <rect
           style="opacity:1;fill:#6ad76a;fill-opacity:1;fill-rule:evenodd;stroke:none;stroke-width:1.6762296;stroke-linejoin:round;stroke-miterlimit:4;stroke-dasharray:none;stroke-dashoffset:0;stroke-opacity:1;paint-order:normal"
           id="rect4837"
           width="71.996925"
           height="18.371382"
           x="544.34937"
           y="380.49359" />
        <rect
           y="357.01703"
           x="544.34937"
           height="18.371382"
           width="71.996925"
           id="rect5130"
           style="opacity:1;fill:#6ad76a;fill-opacity:1;fill-rule:evenodd;stroke:none;stroke-width:1.6762296;stroke-linejoin:round;stroke-miterlimit:4;stroke-dasharray:none;stroke-dashoffset:0;stroke-opacity:1;paint-order:normal" />
        <rect
           y="380.49359"
           x="622.34937"
           height="18.371382"
           width="71.996925"
           id="rect5132"
           style="opacity:1;fill:#6ad76a;fill-opacity:1;fill-rule:evenodd;stroke:none;stroke-width:1.6762296;stroke-linejoin:round;stroke-miterlimit:4;stroke-dasharray:none;stroke-dashoffset:0;stroke-opacity:1;paint-order:normal" />
        <rect
           y="357.01703"
           x="622.34937"
           height="18.371382"
           width="71.996925"
           id="rect5138"
           style="opacity:1;fill:#6ad76a;fill-opacity:1;fill-rule:evenodd;stroke:none;stroke-width:1.6762296;stroke-linejoin:round;stroke-miterlimit:4;stroke-dasharray:none;stroke-dashoffset:0;stroke-opacity:1;paint-order:normal" />
        <rect
           style="opacity:1;fill:#6ad76a;fill-opacity:1;fill-rule:evenodd;stroke:none;stroke-width:1.6762296;stroke-linejoin:round;stroke-miterlimit:4;stroke-dasharray:none;stroke-dashoffset:0;stroke-opacity:1;paint-order:normal"
           id="rect5140"
           width="71.996925"
           height="18.371382"
           x="622.34937"
           y="333.54047" />
        <rect
           style="opacity:1;fill:#6ad76a;fill-opacity:1;fill-rule:evenodd;stroke:none;stroke-width:1.6762296;stroke-linejoin:round;stroke-miterlimit:4;stroke-dasharray:none;stroke-dashoffset:0;stroke-opacity:1;paint-order:normal"
           id="rect5142"
           width="71.996925"
           height="18.371382"
           x="544.34937"
           y="333.54047" />
        <rect
           style="opacity:1;fill:#6ad76a;fill-opacity:1;fill-rule:evenodd;stroke:none;stroke-width:1.6762296;stroke-linejoin:round;stroke-miterlimit:4;stroke-dasharray:none;stroke-dashoffset:0;stroke-opacity:1;paint-order:normal"
           id="rect5146"
           width="71.996925"
           height="18.371382"
           x="700.34937"
           y="357.01703" />
        <rect
           y="333.54047"
           x="700.34937"
           height="18.371382"
           width="71.996925"
           id="rect5148"
           style="opacity:1;fill:#6ad76a;fill-opacity:1;fill-rule:evenodd;stroke:none;stroke-width:1.6762296;stroke-linejoin:round;stroke-miterlimit:4;stroke-dasharray:none;stroke-dashoffset:0;stroke-opacity:1;paint-order:normal" />
        <rect
           y="310.0639"
           x="622.34937"
           height="18.371382"
           width="71.996925"
           id="rect5150"
           style="opacity:1;fill:#268c26;fill-opacity:1;fill-rule:evenodd;stroke:none;stroke-width:1.6762296;stroke-linejoin:round;stroke-miterlimit:4;stroke-dasharray:none;stroke-dashoffset:0;stroke-opacity:1;paint-order:normal" />
        <rect
           y="310.0639"
           x="544.34937"
           height="18.371382"
           width="71.996925"
           id="rect5152"
           style="opacity:1;fill:#268c26;fill-opacity:1;fill-rule:evenodd;stroke:none;stroke-width:1.6762296;stroke-linejoin:round;stroke-miterlimit:4;stroke-dasharray:none;stroke-dashoffset:0;stroke-opacity:1;paint-order:normal" />
        <rect
           style="opacity:1;fill:#268c26;fill-opacity:1;fill-rule:evenodd;stroke:none;stroke-width:1.6762296;stroke-linejoin:round;stroke-miterlimit:4;stroke-dasharray:none;stroke-dashoffset:0;stroke-opacity:1;paint-order:normal"
           id="rect5154"
           width="71.996925"
           height="18.371382"
           x="700.34937"
           y="310.0639" />
      </g>
    </g>
    <rect
       style="fill:#d9f5d9;fill-opacity:1;stroke:none;stroke-width:3.50236893;stroke-linecap:round;stroke-linejoin:round;stroke-miterlimit:4;stroke-dasharray:none;stroke-opacity:1"
       id="rect2997"
       width="114.80023"
       height="85.045166"
       x="296.23077"
       y="285.47992"
       transform="matrix(0.99999986,5.2631278e-4,-6.6188717e-4,0.99999978,0,0)" />
    <path
       style="fill:#6ad76a;fill-opacity:1;stroke:none;stroke-width:0.15021271px;stroke-linecap:butt;stroke-linejoin:miter;stroke-opacity:1"
       d="m 296.16551,338.31378 -0.1822,32.36715 114.78574,-0.083 0.009,-26.90476 -14.38379,6.93614 -25.69213,-16.78678 -22.04176,17.37794 -18.90339,-12.11554 -13.82966,-43.64439 -19.76183,42.85305 z"
       id="path3787"
       inkscape:connector-curvature="0"
       sodipodi:nodetypes="ccccccccccc" />
    <path
       sodipodi:nodetypes="ccccccccccc"
       inkscape:connector-curvature="0"
       id="path5156"
       d="m 296.16551,338.31378 -0.1822,32.36715 114.78574,-0.083 0.009,-26.90476 -22.59808,19.079 -18.90641,-10.35821 -19.18462,-20.83635 -17.47482,31.45589 -20.97251,-6.14439 -15.47612,-18.57552 z"
       style="fill:#268c26;fill-opacity:1;stroke:none;stroke-width:0.15021271px;stroke-linecap:butt;stroke-linejoin:miter;stroke-opacity:1" />
  </g>
</svg>
