<?xml version="1.0" encoding="UTF-8" standalone="no"?>
<!-- Created with Inkscape (http://www.inkscape.org/) -->

<svg
   xmlns:osb="http://www.openswatchbook.org/uri/2009/osb"
   xmlns:dc="http://purl.org/dc/elements/1.1/"
   xmlns:cc="http://creativecommons.org/ns#"
   xmlns:rdf="http://www.w3.org/1999/02/22-rdf-syntax-ns#"
   xmlns:svg="http://www.w3.org/2000/svg"
   xmlns="http://www.w3.org/2000/svg"
   xmlns:xlink="http://www.w3.org/1999/xlink"
   xmlns:sodipodi="http://sodipodi.sourceforge.net/DTD/sodipodi-0.dtd"
   xmlns:inkscape="http://www.inkscape.org/namespaces/inkscape"
   width="512px"
   height="512px"
   viewBox="0 0 512 512"
   version="1.1"
   id="SVGRoot"
   inkscape:version="0.92.1 r15371"
   sodipodi:docname="xmcd.svg">
  <sodipodi:namedview
     id="base"
     pagecolor="#ffffff"
     bordercolor="#666666"
     borderopacity="1.0"
     inkscape:pageopacity="0.0"
     inkscape:pageshadow="2"
     inkscape:zoom="1.4142136"
     inkscape:cx="267.3785"
     inkscape:cy="235.71053"
     inkscape:document-units="px"
     inkscape:current-layer="layer1"
     showgrid="false"
     inkscape:window-width="1280"
     inkscape:window-height="947"
     inkscape:window-x="0"
     inkscape:window-y="0"
     inkscape:window-maximized="1" />
  <defs
     id="defs4710">
    <linearGradient
       inkscape:collect="always"
       id="linearGradient4573">
      <stop
         style="stop-color:#181818;stop-opacity:0.30645162"
         offset="0"
         id="stop4569" />
      <stop
         style="stop-color:#404040;stop-opacity:0"
         offset="1"
         id="stop4571" />
    </linearGradient>
    <marker
       inkscape:stockid="DotM"
       orient="auto"
       refY="0.0"
       refX="0.0"
       id="DotM"
       style="overflow:visible"
       inkscape:isstock="true">
      <path
         id="path4618"
         d="M -2.5,-1.0 C -2.5,1.7600000 -4.7400000,4.0 -7.5,4.0 C -10.260000,4.0 -12.5,1.7600000 -12.5,-1.0 C -12.5,-3.7600000 -10.260000,-6.0 -7.5,-6.0 C -4.7400000,-6.0 -2.5,-3.7600000 -2.5,-1.0 z "
         style="fill-rule:evenodd;stroke:#000000;stroke-width:1.0pt"
         transform="scale(0.4) translate(7.4, 1)" />
    </marker>
    <linearGradient
       osb:paint="solid"
       id="linearGradient5207">
      <stop
         id="stop5209"
         offset="0"
         style="stop-color:#000015;stop-opacity:1;" />
    </linearGradient>
    <clipPath
       id="clipPath3006-9-8"
       clipPathUnits="userSpaceOnUse">
      <path
         inkscape:export-ydpi="90"
         inkscape:export-xdpi="90"
         transform="matrix(1.2020779,0,0,1.2020779,-93.20363,-75.172465)"
         d="m 483,275.5 a 192.5,192.5 0 1 1 -385,0 192.5,192.5 0 1 1 385,0 z"
         sodipodi:ry="192.5"
         sodipodi:rx="192.5"
         sodipodi:cy="275.5"
         sodipodi:cx="290.5"
         id="path3008-1-1"
         style="fill:#ffffff;fill-opacity:1;stroke:none;display:inline"
         sodipodi:type="arc" />
    </clipPath>
    <mask
       id="mask3818-4"
       maskUnits="userSpaceOnUse">
      <path
         sodipodi:type="arc"
         style="fill:#ffffff;fill-opacity:1;stroke:none;display:inline"
         id="path3820-9"
         sodipodi:cx="290.5"
         sodipodi:cy="275.5"
         sodipodi:rx="192.5"
         sodipodi:ry="192.5"
         d="m 483,275.5 a 192.5,192.5 0 1 1 -385,0 192.5,192.5 0 1 1 385,0 z"
         transform="matrix(1.2020779,0,0,1.2020779,-93.20363,-75.172466)"
         inkscape:export-xdpi="90"
         inkscape:export-ydpi="90" />
    </mask>
    <clipPath
       id="clipPath3006"
       clipPathUnits="userSpaceOnUse">
      <path
         inkscape:export-ydpi="90"
         inkscape:export-xdpi="90"
         transform="matrix(1.2020779,0,0,1.2020779,-93.20363,-75.172465)"
         d="m 483,275.5 a 192.5,192.5 0 1 1 -385,0 192.5,192.5 0 1 1 385,0 z"
         sodipodi:ry="192.5"
         sodipodi:rx="192.5"
         sodipodi:cy="275.5"
         sodipodi:cx="290.5"
         id="path3008"
         style="fill:#ffffff;fill-opacity:1;stroke:none;display:inline"
         sodipodi:type="arc" />
    </clipPath>
    <clipPath
       id="clipPath3006-9"
       clipPathUnits="userSpaceOnUse">
      <path
         inkscape:export-ydpi="90"
         inkscape:export-xdpi="90"
         transform="matrix(1.2020779,0,0,1.2020779,-93.20363,-75.172465)"
         d="m 483,275.5 a 192.5,192.5 0 1 1 -385,0 192.5,192.5 0 1 1 385,0 z"
         sodipodi:ry="192.5"
         sodipodi:rx="192.5"
         sodipodi:cy="275.5"
         sodipodi:cx="290.5"
         id="path3008-1"
         style="fill:#ffffff;fill-opacity:1;stroke:none;display:inline"
         sodipodi:type="arc" />
    </clipPath>
    <mask
       maskUnits="userSpaceOnUse"
       id="mask3818-0">
      <path
         inkscape:export-ydpi="90"
         inkscape:export-xdpi="90"
         transform="matrix(1.2020779,0,0,1.2020779,-93.20363,-75.172466)"
         d="m 483,275.5 a 192.5,192.5 0 1 1 -385,0 192.5,192.5 0 1 1 385,0 z"
         sodipodi:ry="192.5"
         sodipodi:rx="192.5"
         sodipodi:cy="275.5"
         sodipodi:cx="290.5"
         id="path3820-8"
         style="fill:#ffffff;fill-opacity:1;stroke:none;display:inline"
         sodipodi:type="arc" />
    </mask>
    <mask
       maskUnits="userSpaceOnUse"
       id="mask3818-2">
      <path
         inkscape:export-ydpi="90"
         inkscape:export-xdpi="90"
         transform="matrix(1.2020779,0,0,1.2020779,-93.20363,-75.172466)"
         d="m 483,275.5 a 192.5,192.5 0 1 1 -385,0 192.5,192.5 0 1 1 385,0 z"
         sodipodi:ry="192.5"
         sodipodi:rx="192.5"
         sodipodi:cy="275.5"
         sodipodi:cx="290.5"
         id="path3820-2-2"
         style="fill:#ffffff;fill-opacity:1;stroke:none;display:inline"
         sodipodi:type="arc" />
    </mask>
    <clipPath
       id="clipPath3934"
       clipPathUnits="userSpaceOnUse">
      <path
         id="path3936"
         d="m 0,0 0,1024 1024,0 L 1024,0 0,0 z m 278.4375,333.84375 119.78125,0 c 9.83697,42.31453 19.85954,84.58596 29.9375,126.84375 9.86978,-42.28798 20.05132,-84.50237 29.6875,-126.84375 l 108.90625,0 c 9.63586,42.34141 19.8178,84.55578 29.6875,126.84375 10.07827,-42.25772 20.10031,-84.52927 29.9375,-126.84375 l 119.1875,0 c -26.26221,110.73099 -52.49625,221.46929 -78.28125,332.3125 l -122.8125,0 c -10.59439,-45.55681 -21.46638,-91.04874 -32.375,-136.53125 -10.66279,45.51136 -21.5615,90.96897 -32,136.53125 l -122.8125,0 c -25.71418,-110.03502 -52.0286,-219.92873 -78.25,-329.84375 l -0.59375,-2.46875 z"
         style="fill:#ff3232;fill-opacity:1;stroke:none"
         inkscape:connector-curvature="0" />
    </clipPath>
    <clipPath
       id="clipPath3929"
       clipPathUnits="userSpaceOnUse">
      <path
         inkscape:connector-curvature="0"
         style="fill:#ff3232;fill-opacity:1;stroke:none"
         d="m 0,0 0,1024 1024,0 L 1024,0 0,0 z m 278.4375,333.84375 119.78125,0 c 9.83697,42.31453 19.85954,84.58596 29.9375,126.84375 9.86978,-42.28798 20.05132,-84.50237 29.6875,-126.84375 l 108.90625,0 c 9.63586,42.34141 19.8178,84.55578 29.6875,126.84375 10.07827,-42.25772 20.10031,-84.52927 29.9375,-126.84375 l 119.1875,0 c -26.26221,110.73099 -52.49625,221.46929 -78.28125,332.3125 l -122.8125,0 c -10.59439,-45.55681 -21.46638,-91.04874 -32.375,-136.53125 -10.66279,45.51136 -21.5615,90.96897 -32,136.53125 l -122.8125,0 c -25.71418,-110.03502 -52.0286,-219.92873 -78.25,-329.84375 l -0.59375,-2.46875 z"
         id="path3931" />
    </clipPath>
    <mask
       maskUnits="userSpaceOnUse"
       id="mask3818">
      <path
         inkscape:export-ydpi="90"
         inkscape:export-xdpi="90"
         transform="matrix(1.2020779,0,0,1.2020779,-93.20363,-75.172466)"
         d="m 483,275.5 a 192.5,192.5 0 1 1 -385,0 192.5,192.5 0 1 1 385,0 z"
         sodipodi:ry="192.5"
         sodipodi:rx="192.5"
         sodipodi:cy="275.5"
         sodipodi:cx="290.5"
         id="path3820"
         style="fill:#ffffff;fill-opacity:1;stroke:none;display:inline"
         sodipodi:type="arc" />
    </mask>
    <linearGradient
       inkscape:collect="always"
       xlink:href="#linearGradient4573"
       id="linearGradient4575"
       x1="408.84314"
       y1="89.26915"
       x2="420.61133"
       y2="138.41306"
       gradientUnits="userSpaceOnUse"
       gradientTransform="matrix(0.99657796,0,0,1,1.2520606,0)" />
    <linearGradient
       inkscape:collect="always"
       xlink:href="#linearGradient4573"
       id="linearGradient6771"
       gradientUnits="userSpaceOnUse"
       gradientTransform="matrix(0.99657796,0,0,1,1.2520606,0)"
       x1="408.84314"
       y1="89.26915"
       x2="420.61133"
       y2="138.41306" />
  </defs>
  <metadata
     id="metadata4713">
    <rdf:RDF>
      <cc:Work
         rdf:about="">
        <dc:format>image/svg+xml</dc:format>
        <dc:type
           rdf:resource="http://purl.org/dc/dcmitype/StillImage" />
        <dc:title></dc:title>
      </cc:Work>
    </rdf:RDF>
  </metadata>
  <g
     id="layer1"
     inkscape:groupmode="layer"
     inkscape:label="Capa 1">
    <path
       style="opacity:1;fill:#607b89;fill-opacity:1;fill-rule:evenodd;stroke:#ccd7dc;stroke-width:2;stroke-linejoin:round;stroke-miterlimit:4;stroke-dasharray:none;stroke-dashoffset:0;stroke-opacity:1;paint-order:normal"
       d="m 97.583979,29.700195 c -11.07875,0 -19.99804,9.65194 -19.99804,21.64062 V 460.66113 c 0,11.9887 8.91929,21.63867 19.99804,21.63867 H 414.41602 c 11.07874,0 19.99804,-9.64997 19.99804,-21.63867 V 113.7959 c -0.33411,-0.32981 -0.46874,-0.43168 -0.81445,-0.77345 -9.64188,-9.53205 -23.80681,-23.701345 -37.64453,-37.822255 -6.91884,-7.06045 -13.75546,-14.10994 -19.9043,-20.56055 -6.14876,-6.45062 -11.60929,-12.30327 -15.77539,-16.97265 -3.0827,-3.45513 -4.82334,-5.68286 -6.625,-7.9668 z"
       id="path4506"
       inkscape:connector-curvature="0"
       sodipodi:nodetypes="ssssssccccccs" />
    <g
       id="g4584"
       transform="matrix(0.3829248,0,0,0.3829248,74.406719,31.973725)"
       style="fill:#75abd3;fill-opacity:1;stroke:#9dc4df;stroke-opacity:1" />
    <path
       style="opacity:1;fill:#ccd7dc;fill-opacity:1;fill-rule:evenodd;stroke:#7794a1;stroke-width:1.14248979;stroke-linecap:square;stroke-linejoin:miter;stroke-miterlimit:4;stroke-dasharray:none;stroke-dashoffset:0;stroke-opacity:1;paint-order:markers fill stroke"
       d="M 305.29297 401.95117 C 300.96837 401.95117 297.13128 402.64989 293.7832 404.04492 C 290.43513 405.43995 287.6104 407.39324 285.30859 409.9043 C 283.00679 412.3456 281.2639 415.3093 280.07812 418.79688 C 278.89235 422.28445 278.29883 426.12155 278.29883 430.30664 C 278.29883 434.63124 278.89235 438.53586 280.07812 442.02344 C 281.2639 445.44126 283.00679 448.40691 285.30859 450.91797 C 287.68015 453.35927 290.57436 455.24113 293.99219 456.56641 C 297.41001 457.89169 301.35231 458.55469 305.81641 458.55469 C 308.46697 458.55469 311.11702 458.38001 313.76758 458.03125 C 316.41814 457.68249 319.34807 456.88053 322.55664 455.625 C 322.55664 452.62568 322.20728 449.97563 321.50977 447.67383 C 320.81225 445.30228 319.87132 443.17431 318.68555 441.29102 C 316.66275 442.05828 314.88414 442.61609 313.34961 442.96484 C 311.88483 443.3136 310.13998 443.48828 308.11719 443.48828 C 306.5129 443.48828 304.97845 443.27984 303.51367 442.86133 C 302.11864 442.44282 300.86407 441.7441 299.74805 440.76758 C 298.70177 439.79106 297.82837 438.46701 297.13086 436.79297 C 296.5031 435.04918 296.18945 432.88745 296.18945 430.30664 C 296.18945 425.42403 297.2713 422.00578 299.43359 420.05273 C 301.66564 418.02994 304.45466 417.01758 307.80273 417.01758 C 308.7095 417.01758 309.54719 417.0533 310.31445 417.12305 C 311.15147 417.12305 311.98915 417.19253 312.82617 417.33203 C 313.66319 417.47153 314.53464 417.67998 315.44141 417.95898 C 316.41793 418.16824 317.49977 418.48383 318.68555 418.90234 C 319.87132 416.67029 320.74277 414.40336 321.30078 412.10156 C 321.85879 409.73001 322.06724 407.35788 321.92773 404.98633 C 320.2537 404.35856 318.71925 403.83452 317.32422 403.41602 C 315.99894 402.99751 314.67489 402.68386 313.34961 402.47461 C 312.09408 402.26535 310.8038 402.12639 309.47852 402.05664 C 308.15324 401.98689 306.75775 401.95117 305.29297 401.95117 z M 348.68164 401.95117 C 345.82183 401.95117 342.75293 402.12585 339.47461 402.47461 C 336.19629 402.75362 333.09167 403.06726 330.16211 403.41602 L 330.16211 457.19531 C 333.09167 457.61382 335.88264 457.92746 338.5332 458.13672 C 341.25351 458.41572 344.32241 458.55469 347.74023 458.55469 C 353.59937 458.55469 358.58583 457.89169 362.70117 456.56641 C 366.88627 455.17138 370.27075 453.22004 372.85156 450.70898 C 375.50212 448.19793 377.41969 445.1628 378.60547 441.60547 C 379.861 438.04814 380.48828 434.07208 380.48828 429.67773 C 380.48828 425.49264 379.89476 421.69126 378.70898 418.27344 C 377.52321 414.85561 375.64135 411.9614 373.06055 409.58984 C 370.47974 407.14854 367.16668 405.26473 363.12109 403.93945 C 359.14525 402.61417 354.33152 401.95117 348.68164 401.95117 z M 214.60156 402.16016 C 209.3702 402.16016 205.04673 402.579 201.62891 403.41602 C 198.21108 404.18328 195.28115 404.98525 192.83984 405.82227 L 192.83984 457.19531 C 194.65338 457.54407 196.29303 457.75251 197.75781 457.82227 C 199.2226 457.96177 200.54665 458.03125 201.73242 458.03125 C 202.84845 458.03125 204.13873 457.96177 205.60352 457.82227 C 207.0683 457.75251 208.70794 457.54407 210.52148 457.19531 L 210.52148 418.06445 C 210.73074 417.92495 211.25478 417.78599 212.0918 417.64648 C 212.99857 417.50698 213.8343 417.4375 214.60156 417.4375 C 217.46138 417.4375 219.48415 418.23946 220.66992 419.84375 C 221.8557 421.44804 222.44922 424.09809 222.44922 427.79492 L 222.44922 457.19531 C 224.26276 457.54407 225.9024 457.75251 227.36719 457.82227 C 228.83197 457.96177 230.15602 458.03125 231.3418 458.03125 C 232.45782 458.03125 233.74811 457.96177 235.21289 457.82227 C 236.67767 457.75251 238.31732 457.54407 240.13086 457.19531 L 240.13086 426.64453 C 240.13086 423.50571 239.81722 420.71474 239.18945 418.27344 C 239.53821 418.13393 240.1655 417.95925 241.07227 417.75 C 242.04879 417.54075 243.02543 417.4375 244.00195 417.4375 C 246.86177 417.4375 248.92025 418.23946 250.17578 419.84375 C 251.43131 421.44804 252.05859 424.09809 252.05859 427.79492 L 252.05859 457.19531 C 253.87213 457.54407 255.51178 457.75251 256.97656 457.82227 C 258.44135 457.96177 259.7654 458.03125 260.95117 458.03125 C 262.0672 458.03125 263.35748 457.96177 264.82227 457.82227 C 266.28705 457.75251 267.92669 457.54407 269.74023 457.19531 L 269.74023 425.91211 C 269.74023 420.75049 268.97399 416.59976 267.43945 413.46094 C 265.97467 410.32212 264.05515 407.91622 261.68359 406.24219 C 259.38179 404.56815 256.76746 403.48631 253.83789 402.99805 C 250.97808 402.44003 248.18711 402.16016 245.4668 402.16016 C 242.39773 402.16016 239.64248 402.50952 237.20117 403.20703 C 234.75987 403.90455 232.6319 404.70651 230.81836 405.61328 C 228.44681 404.21825 225.86623 403.31109 223.07617 402.89258 C 220.28611 402.40432 217.46138 402.16016 214.60156 402.16016 z M 143.54297 402.58008 C 141.24117 402.58008 139.18463 402.64956 137.37109 402.78906 C 135.6273 402.92857 134.37078 403.06753 133.60352 403.20703 L 143.01953 429.1543 L 131.51172 457.08984 C 132.27899 457.22935 133.49979 457.40403 135.17383 457.61328 C 136.91762 457.82254 138.94039 457.92773 141.24219 457.92773 C 143.05573 457.92773 144.72914 457.82254 146.26367 457.61328 C 147.79821 457.47378 148.84433 457.33482 149.40234 457.19531 L 159.0293 430.41016 L 168.6543 457.19531 C 169.21231 457.33482 170.29415 457.47378 171.89844 457.61328 C 173.50272 457.82254 175.3151 457.92773 177.33789 457.92773 C 179.43044 457.92773 181.27853 457.82254 182.88281 457.61328 C 184.55685 457.47378 185.77765 457.33482 186.54492 457.19531 L 175.03711 429.1543 L 184.45312 403.20703 C 183.68586 403.06753 182.39557 402.92857 180.58203 402.78906 C 178.76849 402.64956 176.71 402.58008 174.4082 402.58008 C 172.59466 402.58008 170.85177 402.64956 169.17773 402.78906 C 167.57345 402.92857 166.49161 403.06753 165.93359 403.20703 L 159.0293 428.31836 L 152.01758 403.20703 C 151.45957 403.06753 150.34396 402.92857 148.66992 402.78906 C 147.06564 402.64956 145.35651 402.58008 143.54297 402.58008 z M 351.7168 416.80859 C 355.20437 416.80859 357.88819 417.85472 359.77148 419.94727 C 361.65478 421.97006 362.59766 425.21363 362.59766 429.67773 C 362.59766 434.69985 361.62101 438.32654 359.66797 440.55859 C 357.78468 442.72089 354.89046 443.80273 350.98438 443.80273 C 350.0776 443.80273 349.37889 443.76702 348.89062 443.69727 C 348.47212 443.62751 348.12471 443.59375 347.8457 443.59375 L 347.8457 417.12305 C 348.19446 417.0533 348.71655 416.98381 349.41406 416.91406 C 350.11158 416.84431 350.87978 416.80859 351.7168 416.80859 z "
       id="rect4610" />
    <path
       style="opacity:1;fill:url(#linearGradient6771);fill-opacity:1;fill-rule:evenodd;stroke:none;stroke-width:8.77774811;stroke-linecap:square;stroke-linejoin:miter;stroke-miterlimit:4;stroke-dasharray:none;stroke-dashoffset:0;stroke-opacity:1;paint-order:markers fill stroke"
       d="m 433.28939,182.37584 v -69.47028 c 0,-0.0394 -0.0309,-0.0705 -0.0703,-0.0705 h -67.33747 c 4.09851,4.50878 8.40749,9.2132 13.77948,14.86279 7.205,7.57734 15.21697,15.8602 23.32513,24.15489 11.13885,11.3951 20.83136,21.05949 30.30308,30.52302 z"
       id="path4566"
       inkscape:connector-curvature="0" />
    <path
       style="opacity:1;fill:#ccd7dc;fill-opacity:1;fill-rule:evenodd;stroke:none;stroke-width:1.05391276;stroke-linejoin:round;stroke-miterlimit:4;stroke-dasharray:none;stroke-dashoffset:0;stroke-opacity:1;paint-order:normal"
       d="m 435.00048,114.60612 c -1.83541,-2.30475 -3.6077,-4.55306 -6.74972,-8.04125 -4.24635,-4.71409 -9.8132,-10.623129 -16.08223,-17.137261 C 405.8996,82.913483 398.92921,75.794273 391.8744,68.663457 377.76477,54.401804 363.32068,40.090503 353.48814,30.462087 c -0.35278,-0.345219 -0.4898,-0.448268 -0.83055,-0.781422 l -0.24394,62.802323 c -0.0467,12.055462 9.04538,21.800782 20.38588,21.850482 z"
       id="rect4485"
       inkscape:connector-curvature="0" />
    <rect
       y="204.98415"
       x="132.42857"
       height="17.142857"
       width="247.14285"
       id="rect4507-6"
       style="opacity:1;fill:#ccd7dc;fill-opacity:1;fill-rule:evenodd;stroke:none;stroke-width:3;stroke-linejoin:round;stroke-miterlimit:4;stroke-dasharray:none;stroke-dashoffset:0;stroke-opacity:1;paint-order:normal" />
    <rect
       y="162.53969"
       x="132.42857"
       height="17.142857"
       width="223.90935"
       id="rect4518"
       style="opacity:1;fill:#ccd7dc;fill-opacity:1;fill-rule:evenodd;stroke:none;stroke-width:2.85550761;stroke-linejoin:round;stroke-miterlimit:4;stroke-dasharray:none;stroke-dashoffset:0;stroke-opacity:1;paint-order:normal" />
    <path
       inkscape:connector-curvature="0"
       id="path894"
       style="opacity:1;fill:#ccd7dc;fill-opacity:1;fill-rule:evenodd;stroke:none;stroke-width:0.83292258"
       d="m 272.00115,371.59517 c -33.37103,8.83716 -67.58792,-11.05169 -76.42507,-44.42271 -8.83715,-33.37099 11.05172,-67.58785 44.42274,-76.42502 l 14.91672,56.32876 c -2.26173,0.59894 -3.6096,2.91781 -3.01066,5.17953 0.59917,2.26252 2.91783,3.60958 5.17953,3.01064 z M 239.99882,250.74744 c 33.37183,-8.83736 67.58791,11.05167 76.42505,44.42266 8.83715,33.37102 -11.05088,67.58769 -44.42272,76.42507 l -14.91674,-56.3288 c 2.26173,-0.59895 3.60981,-2.917 3.01065,-5.17953 -0.59893,-2.26171 -2.9178,-3.60959 -5.17952,-3.01064 z" />
    <path
       inkscape:connector-curvature="0"
       id="path2420"
       style="opacity:1;fill:#7794a1;fill-opacity:1;fill-rule:evenodd;stroke:none;stroke-width:0.83292258"
       d="m 261.71673,332.75994 c -11.92295,3.15738 -24.14792,-3.94915 -27.3053,-15.87209 -3.15737,-11.92292 3.94839,-24.14766 15.87131,-27.30505 l 4.63267,17.49388 c -2.26174,0.59895 -3.60958,2.91782 -3.01087,5.17873 0.59916,2.26252 2.9178,3.60958 5.17954,3.01064 z M 250.28274,289.5828 c 11.92295,-3.15738 24.1485,3.94814 27.30587,15.87107 3.15738,11.92293 -3.94896,24.1487 -15.87188,27.30607 l -4.63265,-17.49389 c 2.26171,-0.59893 3.60979,-2.91701 3.01064,-5.17953 -0.59872,-2.2609 -2.9176,-3.60877 -5.17931,-3.00984 z" />
    <path
       sodipodi:nodetypes="cscccscc"
       inkscape:connector-curvature="0"
       id="path2428"
       style="opacity:1;fill:#485c66;fill-opacity:1;fill-rule:evenodd;stroke:none;stroke-width:0.83292258"
       d="m 258.01788,318.79142 c -4.20861,1.11451 -8.52353,-1.39356 -9.63804,-5.60218 -1.11429,-4.20781 1.39359,-8.52353 5.60219,-9.63804 z m -4.03585,-15.24022 c 4.20862,-1.1145 8.52376,1.39438 9.63805,5.60218 1.1145,4.20863 -1.39358,8.52354 -5.6022,9.63804 z" />
  </g>
</svg>
