<?xml version="1.0" encoding="UTF-8" standalone="no"?>
<!-- Created with Inkscape (http://www.inkscape.org/) -->

<svg
   xmlns:osb="http://www.openswatchbook.org/uri/2009/osb"
   xmlns:dc="http://purl.org/dc/elements/1.1/"
   xmlns:cc="http://creativecommons.org/ns#"
   xmlns:rdf="http://www.w3.org/1999/02/22-rdf-syntax-ns#"
   xmlns:svg="http://www.w3.org/2000/svg"
   xmlns="http://www.w3.org/2000/svg"
   xmlns:xlink="http://www.w3.org/1999/xlink"
   xmlns:sodipodi="http://sodipodi.sourceforge.net/DTD/sodipodi-0.dtd"
   xmlns:inkscape="http://www.inkscape.org/namespaces/inkscape"
   width="512px"
   height="512px"
   viewBox="0 0 512 512"
   version="1.1"
   id="SVGRoot"
   inkscape:version="0.92.1 r15371"
   sodipodi:docname="xsd.svg">
  <sodipodi:namedview
     id="base"
     pagecolor="#ffffff"
     bordercolor="#666666"
     borderopacity="1.0"
     inkscape:pageopacity="0.0"
     inkscape:pageshadow="2"
     inkscape:zoom="0.7071068"
     inkscape:cx="425.20933"
     inkscape:cy="203.2687"
     inkscape:document-units="px"
     inkscape:current-layer="layer1"
     showgrid="false"
     inkscape:window-width="1280"
     inkscape:window-height="947"
     inkscape:window-x="0"
     inkscape:window-y="0"
     inkscape:window-maximized="1" />
  <defs
     id="defs4710">
    <linearGradient
       inkscape:collect="always"
       id="linearGradient4573">
      <stop
         style="stop-color:#181818;stop-opacity:0.30645162"
         offset="0"
         id="stop4569" />
      <stop
         style="stop-color:#404040;stop-opacity:0"
         offset="1"
         id="stop4571" />
    </linearGradient>
    <marker
       inkscape:stockid="DotM"
       orient="auto"
       refY="0.0"
       refX="0.0"
       id="DotM"
       style="overflow:visible"
       inkscape:isstock="true">
      <path
         id="path4618"
         d="M -2.5,-1.0 C -2.5,1.7600000 -4.7400000,4.0 -7.5,4.0 C -10.260000,4.0 -12.5,1.7600000 -12.5,-1.0 C -12.5,-3.7600000 -10.260000,-6.0 -7.5,-6.0 C -4.7400000,-6.0 -2.5,-3.7600000 -2.5,-1.0 z "
         style="fill-rule:evenodd;stroke:#000000;stroke-width:1.0pt"
         transform="scale(0.4) translate(7.4, 1)" />
    </marker>
    <linearGradient
       osb:paint="solid"
       id="linearGradient5207">
      <stop
         id="stop5209"
         offset="0"
         style="stop-color:#000015;stop-opacity:1;" />
    </linearGradient>
    <clipPath
       id="clipPath3006-9-8"
       clipPathUnits="userSpaceOnUse">
      <path
         inkscape:export-ydpi="90"
         inkscape:export-xdpi="90"
         transform="matrix(1.2020779,0,0,1.2020779,-93.20363,-75.172465)"
         d="m 483,275.5 a 192.5,192.5 0 1 1 -385,0 192.5,192.5 0 1 1 385,0 z"
         sodipodi:ry="192.5"
         sodipodi:rx="192.5"
         sodipodi:cy="275.5"
         sodipodi:cx="290.5"
         id="path3008-1-1"
         style="fill:#ffffff;fill-opacity:1;stroke:none;display:inline"
         sodipodi:type="arc" />
    </clipPath>
    <mask
       id="mask3818-4"
       maskUnits="userSpaceOnUse">
      <path
         sodipodi:type="arc"
         style="fill:#ffffff;fill-opacity:1;stroke:none;display:inline"
         id="path3820-9"
         sodipodi:cx="290.5"
         sodipodi:cy="275.5"
         sodipodi:rx="192.5"
         sodipodi:ry="192.5"
         d="m 483,275.5 a 192.5,192.5 0 1 1 -385,0 192.5,192.5 0 1 1 385,0 z"
         transform="matrix(1.2020779,0,0,1.2020779,-93.20363,-75.172466)"
         inkscape:export-xdpi="90"
         inkscape:export-ydpi="90" />
    </mask>
    <clipPath
       id="clipPath3006"
       clipPathUnits="userSpaceOnUse">
      <path
         inkscape:export-ydpi="90"
         inkscape:export-xdpi="90"
         transform="matrix(1.2020779,0,0,1.2020779,-93.20363,-75.172465)"
         d="m 483,275.5 a 192.5,192.5 0 1 1 -385,0 192.5,192.5 0 1 1 385,0 z"
         sodipodi:ry="192.5"
         sodipodi:rx="192.5"
         sodipodi:cy="275.5"
         sodipodi:cx="290.5"
         id="path3008"
         style="fill:#ffffff;fill-opacity:1;stroke:none;display:inline"
         sodipodi:type="arc" />
    </clipPath>
    <clipPath
       id="clipPath3006-9"
       clipPathUnits="userSpaceOnUse">
      <path
         inkscape:export-ydpi="90"
         inkscape:export-xdpi="90"
         transform="matrix(1.2020779,0,0,1.2020779,-93.20363,-75.172465)"
         d="m 483,275.5 a 192.5,192.5 0 1 1 -385,0 192.5,192.5 0 1 1 385,0 z"
         sodipodi:ry="192.5"
         sodipodi:rx="192.5"
         sodipodi:cy="275.5"
         sodipodi:cx="290.5"
         id="path3008-1"
         style="fill:#ffffff;fill-opacity:1;stroke:none;display:inline"
         sodipodi:type="arc" />
    </clipPath>
    <mask
       maskUnits="userSpaceOnUse"
       id="mask3818-0">
      <path
         inkscape:export-ydpi="90"
         inkscape:export-xdpi="90"
         transform="matrix(1.2020779,0,0,1.2020779,-93.20363,-75.172466)"
         d="m 483,275.5 a 192.5,192.5 0 1 1 -385,0 192.5,192.5 0 1 1 385,0 z"
         sodipodi:ry="192.5"
         sodipodi:rx="192.5"
         sodipodi:cy="275.5"
         sodipodi:cx="290.5"
         id="path3820-8"
         style="fill:#ffffff;fill-opacity:1;stroke:none;display:inline"
         sodipodi:type="arc" />
    </mask>
    <mask
       maskUnits="userSpaceOnUse"
       id="mask3818-2">
      <path
         inkscape:export-ydpi="90"
         inkscape:export-xdpi="90"
         transform="matrix(1.2020779,0,0,1.2020779,-93.20363,-75.172466)"
         d="m 483,275.5 a 192.5,192.5 0 1 1 -385,0 192.5,192.5 0 1 1 385,0 z"
         sodipodi:ry="192.5"
         sodipodi:rx="192.5"
         sodipodi:cy="275.5"
         sodipodi:cx="290.5"
         id="path3820-2-2"
         style="fill:#ffffff;fill-opacity:1;stroke:none;display:inline"
         sodipodi:type="arc" />
    </mask>
    <clipPath
       id="clipPath3934"
       clipPathUnits="userSpaceOnUse">
      <path
         id="path3936"
         d="m 0,0 0,1024 1024,0 L 1024,0 0,0 z m 278.4375,333.84375 119.78125,0 c 9.83697,42.31453 19.85954,84.58596 29.9375,126.84375 9.86978,-42.28798 20.05132,-84.50237 29.6875,-126.84375 l 108.90625,0 c 9.63586,42.34141 19.8178,84.55578 29.6875,126.84375 10.07827,-42.25772 20.10031,-84.52927 29.9375,-126.84375 l 119.1875,0 c -26.26221,110.73099 -52.49625,221.46929 -78.28125,332.3125 l -122.8125,0 c -10.59439,-45.55681 -21.46638,-91.04874 -32.375,-136.53125 -10.66279,45.51136 -21.5615,90.96897 -32,136.53125 l -122.8125,0 c -25.71418,-110.03502 -52.0286,-219.92873 -78.25,-329.84375 l -0.59375,-2.46875 z"
         style="fill:#ff3232;fill-opacity:1;stroke:none"
         inkscape:connector-curvature="0" />
    </clipPath>
    <clipPath
       id="clipPath3929"
       clipPathUnits="userSpaceOnUse">
      <path
         inkscape:connector-curvature="0"
         style="fill:#ff3232;fill-opacity:1;stroke:none"
         d="m 0,0 0,1024 1024,0 L 1024,0 0,0 z m 278.4375,333.84375 119.78125,0 c 9.83697,42.31453 19.85954,84.58596 29.9375,126.84375 9.86978,-42.28798 20.05132,-84.50237 29.6875,-126.84375 l 108.90625,0 c 9.63586,42.34141 19.8178,84.55578 29.6875,126.84375 10.07827,-42.25772 20.10031,-84.52927 29.9375,-126.84375 l 119.1875,0 c -26.26221,110.73099 -52.49625,221.46929 -78.28125,332.3125 l -122.8125,0 c -10.59439,-45.55681 -21.46638,-91.04874 -32.375,-136.53125 -10.66279,45.51136 -21.5615,90.96897 -32,136.53125 l -122.8125,0 c -25.71418,-110.03502 -52.0286,-219.92873 -78.25,-329.84375 l -0.59375,-2.46875 z"
         id="path3931" />
    </clipPath>
    <mask
       maskUnits="userSpaceOnUse"
       id="mask3818">
      <path
         inkscape:export-ydpi="90"
         inkscape:export-xdpi="90"
         transform="matrix(1.2020779,0,0,1.2020779,-93.20363,-75.172466)"
         d="m 483,275.5 a 192.5,192.5 0 1 1 -385,0 192.5,192.5 0 1 1 385,0 z"
         sodipodi:ry="192.5"
         sodipodi:rx="192.5"
         sodipodi:cy="275.5"
         sodipodi:cx="290.5"
         id="path3820"
         style="fill:#ffffff;fill-opacity:1;stroke:none;display:inline"
         sodipodi:type="arc" />
    </mask>
    <linearGradient
       inkscape:collect="always"
       xlink:href="#linearGradient4573"
       id="linearGradient4575"
       x1="408.84314"
       y1="89.26915"
       x2="420.61133"
       y2="138.41306"
       gradientUnits="userSpaceOnUse"
       gradientTransform="matrix(0.99657796,0,0,1,1.2520606,0)" />
  </defs>
  <metadata
     id="metadata4713">
    <rdf:RDF>
      <cc:Work
         rdf:about="">
        <dc:format>image/svg+xml</dc:format>
        <dc:type
           rdf:resource="http://purl.org/dc/dcmitype/StillImage" />
        <dc:title></dc:title>
      </cc:Work>
    </rdf:RDF>
  </metadata>
  <g
     id="layer1"
     inkscape:groupmode="layer"
     inkscape:label="Capa 1">
    <path
       style="opacity:1;fill:#eff0f0;fill-opacity:1;fill-rule:evenodd;stroke:#157990;stroke-width:2;stroke-linejoin:round;stroke-miterlimit:4;stroke-dasharray:none;stroke-dashoffset:0;stroke-opacity:1;paint-order:normal"
       d="m 97.583979,29.700195 c -11.07875,0 -19.99804,9.65194 -19.99804,21.64062 V 460.66113 c 0,11.9887 8.91929,21.63867 19.99804,21.63867 H 414.41602 c 11.07874,0 19.99804,-9.64997 19.99804,-21.63867 V 113.7959 c -0.33411,-0.32981 -0.46874,-0.43168 -0.81445,-0.77345 -9.64188,-9.53205 -23.80681,-23.701345 -37.64453,-37.822255 -6.91884,-7.06045 -13.75546,-14.10994 -19.9043,-20.56055 -6.14876,-6.45062 -11.60929,-12.30327 -15.77539,-16.97265 -3.0827,-3.45513 -4.82334,-5.68286 -6.625,-7.9668 z"
       id="path4506"
       inkscape:connector-curvature="0"
       sodipodi:nodetypes="ssssssccccccs" />
    <g
       id="g4584"
       transform="matrix(0.3829248,0,0,0.3829248,74.406719,31.973725)"
       style="fill:#75abd3;fill-opacity:1;stroke:#9dc4df;stroke-opacity:1" />
    <path
       style="opacity:1;fill:#157990;fill-opacity:1;fill-rule:evenodd;stroke:#e4f7fb;stroke-width:1.14248979;stroke-linecap:square;stroke-linejoin:miter;stroke-miterlimit:4;stroke-dasharray:none;stroke-dashoffset:0;stroke-opacity:1;paint-order:markers fill stroke"
       d="M 199.43164 380.81641 C 195.4558 380.81641 191.86287 381.34045 188.6543 382.38672 C 185.44573 383.36324 182.69047 384.86197 180.38867 386.88477 C 178.15662 388.83781 176.41373 391.24565 175.1582 394.10547 C 173.90268 396.96528 173.27344 400.24262 173.27344 403.93945 C 173.27344 406.93877 173.65851 409.55506 174.42578 411.78711 C 175.2628 414.01916 176.41217 416.00621 177.87695 417.75 C 179.34174 419.42404 181.08658 420.889 183.10938 422.14453 C 185.20192 423.40006 187.50262 424.4819 190.01367 425.38867 L 195.87305 427.58594 C 196.77982 427.9347 197.65322 428.31782 198.49023 428.73633 C 199.397 429.08509 200.19897 429.53769 200.89648 430.0957 C 201.594 430.65372 202.1518 431.35243 202.57031 432.18945 C 202.98882 432.95672 203.19727 433.89765 203.19727 435.01367 C 203.19727 437.66423 202.18686 439.54804 200.16406 440.66406 C 198.21102 441.71034 195.45577 442.23242 191.89844 442.23242 C 187.15533 442.23242 181.57535 440.83889 175.1582 438.04883 C 174.18168 440.90864 173.344 443.73338 172.64648 446.52344 C 171.94897 449.24375 171.46065 451.82432 171.18164 454.26562 C 175.01798 455.73041 178.57519 456.81225 181.85352 457.50977 C 185.20159 458.20728 189.03868 458.55469 193.36328 458.55469 C 198.10639 458.55469 202.29089 457.99688 205.91797 456.88086 C 209.6148 455.69508 212.71941 454.05544 215.23047 451.96289 C 217.74152 449.80059 219.62338 447.25574 220.87891 444.32617 C 222.20419 441.32685 222.86719 437.97808 222.86719 434.28125 C 222.86719 430.86342 222.41458 427.96921 221.50781 425.59766 C 220.60104 423.15635 219.31076 421.09787 217.63672 419.42383 C 215.96268 417.68004 213.93991 416.21507 211.56836 415.0293 C 209.26656 413.77377 206.65027 412.55492 203.7207 411.36914 L 198.69922 409.38086 C 196.88568 408.68334 195.31551 407.84566 193.99023 406.86914 C 192.66495 405.89262 192.00195 404.39389 192.00195 402.37109 C 192.00195 401.18532 192.24611 400.20867 192.73438 399.44141 C 193.22264 398.60439 193.84992 397.97515 194.61719 397.55664 C 195.45421 397.06838 196.36137 396.72097 197.33789 396.51172 C 198.38416 396.30246 199.46601 396.19727 200.58203 396.19727 C 204.20911 396.19727 207.24229 396.61611 209.68359 397.45312 C 212.1249 398.29014 214.25287 399.09211 216.06641 399.85938 C 217.18243 397.48782 218.08959 394.97673 218.78711 392.32617 C 219.55438 389.60586 220.07646 387.13049 220.35547 384.89844 C 216.58888 383.57316 213.03167 382.5608 209.68359 381.86328 C 206.40527 381.16577 202.98897 380.81641 199.43164 380.81641 z M 254.30273 380.81641 C 252.41944 380.81641 250.46615 380.88589 248.44336 381.02539 C 246.49032 381.09514 244.57275 381.20034 242.68945 381.33984 C 240.80616 381.47935 239.06327 381.65403 237.45898 381.86328 C 235.8547 382.00278 234.5287 382.14175 233.48242 382.28125 L 233.48242 456.98633 C 236.62124 457.40484 239.79533 457.75224 243.00391 458.03125 C 246.28223 458.38001 249.66477 458.55469 253.15234 458.55469 C 266.82365 458.55469 277.14594 455.48579 284.12109 449.34766 C 291.09625 443.13977 294.58398 433.40905 294.58398 420.15625 C 294.58398 407.11271 291.16768 397.31251 284.33203 390.75586 C 277.49638 384.12946 267.48578 380.81641 254.30273 380.81641 z M 115.35938 381.44531 C 113.54583 381.44531 111.76723 381.51479 110.02344 381.6543 C 108.3494 381.72405 106.60651 381.93249 104.79297 382.28125 L 117.13867 418.16992 L 101.9668 456.98633 C 105.52413 457.61409 109.04758 457.92773 112.53516 457.92773 C 113.72093 457.92773 115.25538 457.82254 117.13867 457.61328 C 119.02196 457.47378 120.52069 457.26533 121.63672 456.98633 L 134.40234 419.63281 L 147.27148 456.98633 C 148.38751 457.26533 149.88624 457.47378 151.76953 457.61328 C 153.65282 457.82254 155.18727 457.92773 156.37305 457.92773 C 159.86062 457.92773 163.38408 457.61409 166.94141 456.98633 L 151.875 418.16992 L 164.11523 382.28125 C 162.30169 381.93249 160.5588 381.72405 158.88477 381.6543 C 157.21073 381.51479 155.46588 381.44531 153.65234 381.44531 C 152.46657 381.44531 150.93212 381.51479 149.04883 381.6543 C 147.16554 381.7938 145.66681 382.00224 144.55078 382.28125 L 134.40234 418.58789 L 124.46289 382.28125 C 123.34687 382.072 121.84618 381.89732 119.96289 381.75781 C 118.0796 381.54856 116.54515 381.44531 115.35938 381.44531 z M 256.29102 397.24414 C 258.80207 397.24414 261.20796 397.62726 263.50977 398.39453 C 265.81157 399.09205 267.80057 400.31285 269.47461 402.05664 C 271.2184 403.73068 272.61193 406.03137 273.6582 408.96094 C 274.70448 411.8905 275.22852 415.55292 275.22852 419.94727 C 275.22852 424.41137 274.70448 428.07378 273.6582 430.93359 C 272.68168 433.79341 271.32191 436.06034 269.57812 437.73438 C 267.83434 439.40841 265.74209 440.5935 263.30078 441.29102 C 260.92923 441.91878 258.38437 442.23242 255.66406 442.23242 L 253.67578 442.23242 C 253.04802 442.23242 252.49021 442.19866 252.00195 442.12891 L 252.00195 397.34766 L 253.25586 397.34766 C 253.88362 397.2779 254.89598 397.24414 256.29102 397.24414 z "
       id="rect4610" />
    <path
       style="opacity:1;fill:url(#linearGradient4575);fill-opacity:1;fill-rule:evenodd;stroke:none;stroke-width:8.77774811;stroke-linecap:square;stroke-linejoin:miter;stroke-miterlimit:4;stroke-dasharray:none;stroke-dashoffset:0;stroke-opacity:1;paint-order:markers fill stroke"
       d="m 433.28939,182.37584 v -69.47028 c 0,-0.0394 -0.0309,-0.0705 -0.0703,-0.0705 h -67.33747 c 4.09851,4.50878 8.40749,9.2132 13.77948,14.86279 7.205,7.57734 15.21697,15.8602 23.32513,24.15489 11.13885,11.3951 20.83136,21.05949 30.30308,30.52302 z"
       id="path4566"
       inkscape:connector-curvature="0" />
    <path
       style="opacity:1;fill:#157990;fill-opacity:1;fill-rule:evenodd;stroke:none;stroke-width:1.05391276;stroke-linejoin:round;stroke-miterlimit:4;stroke-dasharray:none;stroke-dashoffset:0;stroke-opacity:1;paint-order:normal"
       d="m 435.00048,114.60612 c -1.83541,-2.30475 -3.6077,-4.55306 -6.74972,-8.04125 -4.24635,-4.71409 -9.8132,-10.623129 -16.08223,-17.137261 C 405.8996,82.913483 398.92921,75.794273 391.8744,68.663457 377.76477,54.401804 363.32068,40.090503 353.48814,30.462087 c -0.35278,-0.345219 -0.4898,-0.448268 -0.83055,-0.781422 l -0.24394,62.802323 c -0.0467,12.055462 9.04538,21.800782 20.38588,21.850482 z"
       id="rect4485"
       inkscape:connector-curvature="0" />
    <g
       transform="matrix(0.74507172,0,0,0.74507172,125.73663,87.868262)"
       id="g8"
       style="fill:#157990;fill-opacity:1;stroke:none;stroke-opacity:1">
      <path
         inkscape:connector-curvature="0"
         d="m 174.833,197.204 c 24.125,0 80.846,-29.034 80.846,-98.603 C 255.679,44.145 248.329,0 174.833,0 101.339,0 93.987,44.145 93.987,98.602 c 0.001,69.568 56.721,98.602 80.846,98.602 z M 106.07,82.145 c 5.68,-10.983 17.963,-23.674 44.381,-23.111 0,0 15.747,38.194 93.05,21.042 0.312,6.101 0.41,12.326 0.41,18.526 0,34.005 -15.016,55.075 -27.612,66.762 -15.871,14.727 -33.493,20.072 -41.465,20.072 -7.972,0 -25.594,-5.345 -41.465,-20.072 -12.597,-11.687 -27.612,-32.757 -27.612,-66.762 -0.001,-5.501 0.078,-11.021 0.313,-16.457 z"
         id="path2"
         style="fill:#157990;fill-opacity:1;stroke:none;stroke-opacity:1" />
      <path
         inkscape:connector-curvature="0"
         d="m 324.926,298.327 c -4.128,-25.664 -12.624,-58.724 -29.668,-70.472 -11.64,-8.026 -52.248,-29.721 -69.589,-38.985 l -0.293,-0.156 c -1.982,-1.059 -4.402,-0.847 -6.169,0.541 -9.084,7.131 -19.034,11.937 -29.574,14.284 -1.807,0.402 -3.304,1.662 -4.009,3.374 l -10.791,26.206 -10.791,-26.206 c -0.705,-1.712 -2.202,-2.971 -4.009,-3.374 -10.54,-2.347 -20.49,-7.153 -29.574,-14.284 -1.769,-1.388 -4.189,-1.6 -6.17,-0.541 -17.134,9.156 -58.238,31.294 -69.83,39.107 -19.62,13.217 -28.198,61.052 -29.719,70.507 -0.15,0.938 -0.063,1.897 0.253,2.792 0.703,1.982 18.709,48.548 149.84,48.548 131.131,0 149.137,-46.565 149.84,-48.548 0.317,-0.896 0.404,-1.856 0.253,-2.793 z M 159.66,282.743 c 0,0.397 -0.234,0.757 -0.599,0.916 l -16.174,7.085 16.174,7.084 c 0.364,0.159 0.599,0.52 0.599,0.916 v 5.301 c 0,0.341 -0.174,0.658 -0.462,0.842 -0.163,0.105 -0.351,0.158 -0.538,0.158 -0.144,0 -0.287,-0.031 -0.422,-0.094 l -24.001,-11.15 c -0.352,-0.164 -0.579,-0.518 -0.579,-0.907 v -4.3 c 0,-0.39 0.227,-0.744 0.579,-0.907 l 24.001,-11.15 c 0.311,-0.143 0.672,-0.12 0.96,0.064 0.288,0.184 0.462,0.502 0.462,0.844 z m 24.408,-12.667 -10.701,36.252 c -0.125,0.424 -0.516,0.717 -0.959,0.717 h -5.051 c -0.314,0 -0.611,-0.149 -0.801,-0.402 -0.188,-0.252 -0.247,-0.578 -0.158,-0.881 l 10.701,-36.252 c 0.125,-0.426 0.516,-0.717 0.959,-0.717 h 5.051 c 0.314,0 0.611,0.148 0.801,0.4 0.188,0.253 0.247,0.58 0.158,0.883 z m 31.941,22.968 c 0,0.392 -0.229,0.746 -0.584,0.909 l -24.002,11 c -0.133,0.061 -0.274,0.092 -0.416,0.092 -0.188,0 -0.377,-0.054 -0.54,-0.158 -0.286,-0.185 -0.46,-0.502 -0.46,-0.842 v -5.301 c 0,-0.4 0.238,-0.762 0.605,-0.919 l 16.523,-7.081 -16.523,-7.082 c -0.367,-0.157 -0.605,-0.52 -0.605,-0.919 v -5.3 c 0,-0.341 0.174,-0.658 0.46,-0.842 0.287,-0.184 0.648,-0.209 0.956,-0.068 l 24.002,11.001 c 0.355,0.163 0.584,0.518 0.584,0.909 z"
         id="path4"
         style="fill:#157990;fill-opacity:1;stroke:none;stroke-opacity:1" />
    </g>
  </g>
</svg>
