<?xml version="1.0" encoding="UTF-8" standalone="no"?>
<!-- Generator: Adobe Illustrator 19.0.0, SVG Export Plug-In . SVG Version: 6.00 Build 0)  -->

<svg
   xmlns:dc="http://purl.org/dc/elements/1.1/"
   xmlns:cc="http://creativecommons.org/ns#"
   xmlns:rdf="http://www.w3.org/1999/02/22-rdf-syntax-ns#"
   xmlns:svg="http://www.w3.org/2000/svg"
   xmlns="http://www.w3.org/2000/svg"
   xmlns:sodipodi="http://sodipodi.sourceforge.net/DTD/sodipodi-0.dtd"
   xmlns:inkscape="http://www.inkscape.org/namespaces/inkscape"
   version="1.1"
   id="Layer_1"
   x="0px"
   y="0px"
   viewBox="0 0 496.158 496.158"
   style="enable-background:new 0 0 496.158 496.158;"
   xml:space="preserve"
   sodipodi:docname="audio-volume-050.svg"
   inkscape:version="0.92.1 r15371"><metadata
     id="metadata69"><rdf:RDF><cc:Work
         rdf:about=""><dc:format>image/svg+xml</dc:format><dc:type
           rdf:resource="http://purl.org/dc/dcmitype/StillImage" /><dc:title /></cc:Work></rdf:RDF></metadata><defs
     id="defs67"><inkscape:path-effect
       only_selected="false"
       apply_with_weight="true"
       apply_no_weight="true"
       helper_size="0"
       steps="2"
       weight="33.333333"
       is_visible="true"
       id="path-effect4549"
       effect="bspline" /><inkscape:path-effect
       effect="bspline"
       id="path-effect4545"
       is_visible="true"
       weight="33.333333"
       steps="2"
       helper_size="0"
       apply_no_weight="true"
       apply_with_weight="true"
       only_selected="false" /><inkscape:path-effect
       only_selected="false"
       apply_with_weight="true"
       apply_no_weight="true"
       helper_size="0"
       steps="2"
       weight="33.333333"
       is_visible="true"
       id="path-effect4541"
       effect="bspline" /><inkscape:path-effect
       effect="bspline"
       id="path-effect4537"
       is_visible="true"
       weight="33.333333"
       steps="2"
       helper_size="0"
       apply_no_weight="true"
       apply_with_weight="true"
       only_selected="false" /><inkscape:path-effect
       only_selected="false"
       apply_with_weight="true"
       apply_no_weight="true"
       helper_size="0"
       steps="2"
       weight="33.333333"
       is_visible="true"
       id="path-effect4533"
       effect="bspline" /><inkscape:path-effect
       effect="bspline"
       id="path-effect4529"
       is_visible="true"
       weight="33.333333"
       steps="2"
       helper_size="0"
       apply_no_weight="true"
       apply_with_weight="true"
       only_selected="false" /><inkscape:path-effect
       only_selected="false"
       apply_with_weight="true"
       apply_no_weight="true"
       helper_size="0"
       steps="2"
       weight="33.333333"
       is_visible="true"
       id="path-effect4525"
       effect="bspline" /><inkscape:path-effect
       effect="bspline"
       id="path-effect4521"
       is_visible="true"
       weight="33.333333"
       steps="2"
       helper_size="0"
       apply_no_weight="true"
       apply_with_weight="true"
       only_selected="false" /><inkscape:path-effect
       only_selected="false"
       apply_with_weight="true"
       apply_no_weight="true"
       helper_size="0"
       steps="2"
       weight="33.333333"
       is_visible="true"
       id="path-effect4517"
       effect="bspline" /><inkscape:path-effect
       effect="bspline"
       id="path-effect4513"
       is_visible="true"
       weight="33.333333"
       steps="2"
       helper_size="0"
       apply_no_weight="true"
       apply_with_weight="true"
       only_selected="false" /></defs><sodipodi:namedview
     pagecolor="#ffffff"
     bordercolor="#666666"
     borderopacity="1"
     objecttolerance="10"
     gridtolerance="10"
     guidetolerance="10"
     inkscape:pageopacity="0"
     inkscape:pageshadow="2"
     inkscape:window-width="1280"
     inkscape:window-height="947"
     id="namedview65"
     showgrid="false"
     inkscape:zoom="1.3453553"
     inkscape:cx="42.232331"
     inkscape:cy="221.07473"
     inkscape:window-x="0"
     inkscape:window-y="0"
     inkscape:window-maximized="1"
     inkscape:current-layer="Layer_1"
     showguides="false" /><g
     id="g10"
     transform="matrix(1.3906067,0,0,1.3906067,-96.896458,-129.58893)"
     style="fill:#d6e5e4;fill-opacity:1"><path
       style="fill:#d6e5e4;fill-opacity:1"
       d="M 393.396,118.399 H 104.392 c -12.578,0 -22.783,10.198 -22.783,22.775 0,12.585 10.205,22.783 22.783,22.783 h 289.005 c 12.577,0 22.783,-10.198 22.783,-22.783 0,-12.577 -10.206,-22.775 -22.784,-22.775 z"
       id="path4"
       inkscape:connector-curvature="0" /><path
       style="fill:#d6e5e4;fill-opacity:1"
       d="M 316.776,413.808 H 181.011 c -5.914,0 -10.703,2.456 -10.703,5.478 0,3.03 4.789,5.485 10.703,5.485 h 135.766 c 5.906,0 10.703,-2.456 10.703,-5.485 -0.001,-3.022 -4.797,-5.478 -10.704,-5.478 z"
       id="path6"
       inkscape:connector-curvature="0" /><path
       style="fill:#d6e5e4;fill-opacity:1"
       d="M 379.503,163.047 H 116.334 c -22.745,28.652 -36.363,64.877 -36.363,104.292 0,65.067 37.028,121.452 91.141,149.338 h 153.606 c 54.112,-27.886 91.141,-84.271 91.141,-149.338 -10e-4,-39.415 -13.619,-75.64 -36.356,-104.292 z"
       id="path8"
       inkscape:connector-curvature="0" /></g><path
     style="fill:#3e9aff;stroke-width:1.39060676;fill-opacity:1"
     d="M 31.447266 262.24805 C 32.836932 278.58606 36.058632 294.39095 40.859375 309.50195 C 42.655993 315.15706 44.572422 320.76197 46.804688 326.20898 C 52.407228 339.87991 59.286549 352.8956 67.425781 365.01172 C 76.196021 378.06716 86.294023 390.15785 97.609375 401.00586 C 112.69085 415.46444 129.78326 427.84232 148.53125 437.50391 L 347.19141 437.50391 C 370.20914 425.64148 390.76647 409.72755 408.08594 390.80273 C 414.23807 384.08036 419.80626 376.84507 425.08594 369.39062 C 433.84728 357.02038 441.28232 343.66538 447.36133 329.59375 C 453.13136 316.23732 457.60263 302.19665 460.61719 287.62305 C 461.41226 283.77935 462.08178 279.8902 462.66992 275.97461 C 459.35958 276.18572 456.01161 276.51836 452.73633 276.61328 C 445.99126 276.80876 439.32385 276.74951 432.72656 276.5 C 426.12928 276.25049 419.60302 275.81024 413.14258 275.24219 C 406.68214 274.67414 400.28766 273.9789 393.95312 273.21875 C 387.61861 272.4586 381.34455 271.63441 375.125 270.80859 C 362.68591 269.15695 350.46471 267.49943 338.41992 266.34375 C 332.39753 265.76591 326.41874 265.31302 320.47852 265.04883 C 314.53829 264.78464 308.63657 264.70887 302.76758 264.88477 C 296.89859 265.06066 291.06393 265.48955 285.25 266.10156 C 279.43607 266.71357 273.64337 267.51008 267.86328 268.42383 C 256.3031 270.25133 244.79034 272.54718 233.23828 274.77539 C 227.46225 275.8895 221.67495 276.98728 215.86914 278 C 210.06333 279.01272 204.23766 279.93984 198.38086 280.7168 C 192.52406 281.49375 186.63798 282.12052 180.70898 282.52734 C 174.77998 282.93416 168.80952 283.12113 162.78711 283.02344 C 156.7647 282.92574 150.68944 282.54212 144.58008 281.94141 C 138.47072 281.3407 132.32614 280.52293 126.16406 279.55664 C 120.00199 278.59035 113.82314 277.47568 107.64258 276.28125 C 101.46202 275.08682 95.280045 273.81249 89.115234 272.52734 C 76.785614 269.95706 64.522154 267.34289 52.460938 265.23438 C 46.430329 264.18011 40.449266 263.2522 34.537109 262.51953 C 33.494196 262.39029 32.485866 262.36477 31.447266 262.24805 z "
     id="path4552" /><g
     id="g34" /><g
     id="g36" /><g
     id="g38" /><g
     id="g40" /><g
     id="g42" /><g
     id="g44" /><g
     id="g46" /><g
     id="g48" /><g
     id="g50" /><g
     id="g52" /><g
     id="g54" /><g
     id="g56" /><g
     id="g58" /><g
     id="g60" /><g
     id="g62" /><path
     style="fill:#87c69e;stroke-width:1.39060676"
     d="m 290.73009,288.31493 c 31.3415,50.39004 4.96308,116.67609 4.96308,116.67609 l 17.55362,-1.14863 c 37.52415,-96.32318 -22.5167,-115.52746 -22.5167,-115.52746 z"
     id="path14"
     inkscape:connector-curvature="0" /><path
     style="fill:#84af92;stroke-width:1.39060676"
     d="m 285.60154,330.62554 c 22.1023,34.76795 4.22884,80.96669 4.22884,80.96669 l 12.17058,-0.92058 c 25.42307,-67.11902 -16.39942,-80.04611 -16.39942,-80.04611 z"
     id="path16"
     inkscape:connector-curvature="0" /><path
     style="fill:#77b78d;stroke-width:1.39060676"
     d="m 352.3298,323.33876 c 0,0 -48.88539,7.62191 -31.42215,86.85036 l 13.46385,3.01622 c 0,0 -12.45288,-54.58827 17.9583,-89.86658 z"
     id="path18"
     inkscape:connector-curvature="0" /><path
     style="fill:#606060;stroke-width:1.39060676"
     d="m 336.55198,412.57678 c -1.80919,-8.90545 -9.68141,-15.60816 -19.12919,-15.60816 -8.34086,0 -15.40514,5.2551 -18.19191,12.61836 -1.1709,-0.21276 -2.36265,-0.36156 -3.59612,-0.36156 -1.53383,0 -3.00093,0.22389 -4.4263,0.55347 -3.21368,-6.36203 -9.74538,-10.76609 -17.36312,-10.76609 -5.22312,0 -9.947,2.08592 -13.45829,5.43589 -3.54326,-4.92554 -9.28786,-8.16008 -15.81954,-8.16008 -7.16997,0 -13.38459,3.92569 -16.76793,9.69113 -0.54235,-0.0417 -1.06382,-0.15992 -1.61729,-0.15992 -5.2982,0 -10.0958,2.13875 -13.61682,5.56382 -3.50989,-3.42507 -8.31027,-5.56382 -13.61821,-5.56382 -3.45705,0 -6.65962,0.97899 -9.47838,2.56429 -3.2554,-2.43635 -7.25618,-3.92568 -11.62825,-3.92568 -7.11712,0 -13.29837,3.86171 -16.70258,9.56458 -0.1071,0 -0.21276,-0.032 -0.31845,-0.032 -10.75635,0 -19.48101,8.71355 -19.5116,19.46849 2.40435,1.36141 4.767,2.77704 7.22282,4.04249 h 198.6593 c 0.30871,-0.15991 0.60631,-0.34069 0.91362,-0.51035 0.66054,-1.95797 1.0958,-4.02163 1.0958,-6.2021 10e-4,-8.3506 -5.26483,-15.42461 -12.64756,-18.21278 z"
     id="path20"
     inkscape:connector-curvature="0" /><g
     id="g30"
     transform="matrix(1.3458513,-0.34995875,0.34995875,1.3458513,-163.2068,23.061542)"><path
       style="fill:#dd0364;fill-opacity:1"
       d="m 195.906,243.607 c -39.76,0 -57.96,24.52 -57.96,32.323 0,7.245 18.2,32.32 57.96,32.32 39.748,0 98.08,-26.861 98.08,-32.32 0,-6.479 -58.332,-32.323 -98.08,-32.323 z"
       id="path22"
       inkscape:connector-curvature="0" /><path
       style="fill:#dd0364;fill-opacity:1"
       d="m 318.502,243.607 c 0,0 -38.864,14.475 -38.864,32.323 0,17.853 38.864,32.32 38.864,32.32 l -14.888,-32.871 z"
       id="path24"
       inkscape:connector-curvature="0" /><path
       style="fill:#dd0364;fill-opacity:1"
       d="m 200.516,246.951 44.588,16.724 v -34.554 c -22.295,-2.23 -44.588,17.83 -44.588,17.83 z"
       id="path26"
       inkscape:connector-curvature="0" /><path
       style="fill:#dd0364;fill-opacity:1"
       d="m 200.516,298.048 c 0,0 22.294,20.063 44.588,17.83 v -34.55 z"
       id="path28"
       inkscape:connector-curvature="0" /></g><path
     style="fill:#191919;stroke-width:1.39060676"
     d="m 170.74125,307.07831 c -6.21379,1.61576 -9.95562,7.95826 -8.33846,14.17744 1.61576,6.21379 7.97319,9.93019 14.18698,8.31443 6.18822,-1.60911 9.92602,-7.95056 8.31027,-14.16434 -1.61716,-6.21919 -7.97057,-9.93663 -14.15879,-8.32753 z"
     id="path32"
     inkscape:connector-curvature="0" /></svg>