<?xml version="1.0" encoding="UTF-8" standalone="no"?>
<!-- Generator: Adobe Illustrator 19.0.0, SVG Export Plug-In . SVG Version: 6.00 Build 0)  -->

<svg
   xmlns:dc="http://purl.org/dc/elements/1.1/"
   xmlns:cc="http://creativecommons.org/ns#"
   xmlns:rdf="http://www.w3.org/1999/02/22-rdf-syntax-ns#"
   xmlns:svg="http://www.w3.org/2000/svg"
   xmlns="http://www.w3.org/2000/svg"
   xmlns:sodipodi="http://sodipodi.sourceforge.net/DTD/sodipodi-0.dtd"
   xmlns:inkscape="http://www.inkscape.org/namespaces/inkscape"
   version="1.1"
   id="Layer_1"
   x="0px"
   y="0px"
   viewBox="0 0 496.158 496.158"
   style="enable-background:new 0 0 496.158 496.158;"
   xml:space="preserve"
   sodipodi:docname="audio-volume-040.svg"
   inkscape:version="0.92.1 r15371"><metadata
     id="metadata69"><rdf:RDF><cc:Work
         rdf:about=""><dc:format>image/svg+xml</dc:format><dc:type
           rdf:resource="http://purl.org/dc/dcmitype/StillImage" /><dc:title /></cc:Work></rdf:RDF></metadata><defs
     id="defs67"><inkscape:path-effect
       only_selected="false"
       apply_with_weight="true"
       apply_no_weight="true"
       helper_size="0"
       steps="2"
       weight="33.333333"
       is_visible="true"
       id="path-effect4549"
       effect="bspline" /><inkscape:path-effect
       effect="bspline"
       id="path-effect4545"
       is_visible="true"
       weight="33.333333"
       steps="2"
       helper_size="0"
       apply_no_weight="true"
       apply_with_weight="true"
       only_selected="false" /><inkscape:path-effect
       only_selected="false"
       apply_with_weight="true"
       apply_no_weight="true"
       helper_size="0"
       steps="2"
       weight="33.333333"
       is_visible="true"
       id="path-effect4541"
       effect="bspline" /><inkscape:path-effect
       effect="bspline"
       id="path-effect4537"
       is_visible="true"
       weight="33.333333"
       steps="2"
       helper_size="0"
       apply_no_weight="true"
       apply_with_weight="true"
       only_selected="false" /><inkscape:path-effect
       only_selected="false"
       apply_with_weight="true"
       apply_no_weight="true"
       helper_size="0"
       steps="2"
       weight="33.333333"
       is_visible="true"
       id="path-effect4533"
       effect="bspline" /><inkscape:path-effect
       effect="bspline"
       id="path-effect4529"
       is_visible="true"
       weight="33.333333"
       steps="2"
       helper_size="0"
       apply_no_weight="true"
       apply_with_weight="true"
       only_selected="false" /><inkscape:path-effect
       only_selected="false"
       apply_with_weight="true"
       apply_no_weight="true"
       helper_size="0"
       steps="2"
       weight="33.333333"
       is_visible="true"
       id="path-effect4525"
       effect="bspline" /><inkscape:path-effect
       effect="bspline"
       id="path-effect4521"
       is_visible="true"
       weight="33.333333"
       steps="2"
       helper_size="0"
       apply_no_weight="true"
       apply_with_weight="true"
       only_selected="false" /><inkscape:path-effect
       only_selected="false"
       apply_with_weight="true"
       apply_no_weight="true"
       helper_size="0"
       steps="2"
       weight="33.333333"
       is_visible="true"
       id="path-effect4517"
       effect="bspline" /><inkscape:path-effect
       effect="bspline"
       id="path-effect4513"
       is_visible="true"
       weight="33.333333"
       steps="2"
       helper_size="0"
       apply_no_weight="true"
       apply_with_weight="true"
       only_selected="false" /></defs><sodipodi:namedview
     pagecolor="#ffffff"
     bordercolor="#666666"
     borderopacity="1"
     objecttolerance="10"
     gridtolerance="10"
     guidetolerance="10"
     inkscape:pageopacity="0"
     inkscape:pageshadow="2"
     inkscape:window-width="1280"
     inkscape:window-height="947"
     id="namedview65"
     showgrid="false"
     inkscape:zoom="1.3453553"
     inkscape:cx="42.232331"
     inkscape:cy="219.58813"
     inkscape:window-x="0"
     inkscape:window-y="0"
     inkscape:window-maximized="1"
     inkscape:current-layer="Layer_1"
     showguides="false" /><g
     id="g10"
     transform="matrix(1.3906067,0,0,1.3906067,-96.896458,-129.58893)"
     style="fill:#d6e5e4;fill-opacity:1"><path
       style="fill:#d6e5e4;fill-opacity:1"
       d="M 393.396,118.399 H 104.392 c -12.578,0 -22.783,10.198 -22.783,22.775 0,12.585 10.205,22.783 22.783,22.783 h 289.005 c 12.577,0 22.783,-10.198 22.783,-22.783 0,-12.577 -10.206,-22.775 -22.784,-22.775 z"
       id="path4"
       inkscape:connector-curvature="0" /><path
       style="fill:#d6e5e4;fill-opacity:1"
       d="M 316.776,413.808 H 181.011 c -5.914,0 -10.703,2.456 -10.703,5.478 0,3.03 4.789,5.485 10.703,5.485 h 135.766 c 5.906,0 10.703,-2.456 10.703,-5.485 -0.001,-3.022 -4.797,-5.478 -10.704,-5.478 z"
       id="path6"
       inkscape:connector-curvature="0" /><path
       style="fill:#d6e5e4;fill-opacity:1"
       d="M 379.503,163.047 H 116.334 c -22.745,28.652 -36.363,64.877 -36.363,104.292 0,65.067 37.028,121.452 91.141,149.338 h 153.606 c 54.112,-27.886 91.141,-84.271 91.141,-149.338 -10e-4,-39.415 -13.619,-75.64 -36.356,-104.292 z"
       id="path8"
       inkscape:connector-curvature="0" /></g><path
     style="fill:#3e9aff;stroke-width:1.39060676;fill-opacity:1"
     d="M 460.61719 287.62305 C 453.96829 289.38511 447.33623 291.09037 440.74414 292.66406 C 433.53916 294.38407 426.37267 295.97795 419.25391 297.41211 C 412.13514 298.84627 405.06415 300.12029 398.05078 301.20508 C 391.03741 302.28987 384.08217 303.18552 377.19336 303.85742 C 370.30455 304.52932 363.4814 304.97835 356.73633 305.17383 C 349.99126 305.3693 343.32385 305.31005 336.72656 305.06055 C 330.12928 304.81104 323.60302 304.37078 317.14258 303.80273 C 310.68214 303.23469 304.28766 302.53945 297.95312 301.7793 C 291.61861 301.01914 285.34455 300.19496 279.125 299.36914 C 266.68591 297.7175 254.46471 296.05998 242.41992 294.9043 C 236.39753 294.32646 230.41874 293.87357 224.47852 293.60938 C 218.53829 293.34518 212.63657 293.26942 206.76758 293.44531 C 200.89859 293.62121 195.06393 294.0501 189.25 294.66211 C 183.43607 295.27412 177.64337 296.07061 171.86328 296.98438 C 160.3031 298.81187 148.79034 301.10773 137.23828 303.33594 C 131.46225 304.45004 125.67495 305.54783 119.86914 306.56055 C 114.06333 307.57327 108.23766 308.50039 102.38086 309.27734 C 96.524058 310.0543 90.637984 310.68107 84.708984 311.08789 C 78.779985 311.49471 72.809517 311.68168 66.787109 311.58398 C 60.764702 311.48629 54.689437 311.10266 48.580078 310.50195 C 46.01879 310.25011 43.431676 309.82506 40.859375 309.50195 C 42.655993 315.15706 44.572422 320.76197 46.804688 326.20898 C 52.407228 339.87991 59.286549 352.8956 67.425781 365.01172 C 76.196021 378.06716 86.294023 390.15785 97.609375 401.00586 C 112.69085 415.46444 129.78326 427.84232 148.53125 437.50391 L 347.19141 437.50391 C 370.20914 425.64148 390.76647 409.72755 408.08594 390.80273 C 414.23807 384.08036 419.80626 376.84507 425.08594 369.39062 C 433.84728 357.02038 441.28232 343.66538 447.36133 329.59375 C 453.13136 316.23732 457.60263 302.19665 460.61719 287.62305 z "
     id="path4552" /><g
     id="g34" /><g
     id="g36" /><g
     id="g38" /><g
     id="g40" /><g
     id="g42" /><g
     id="g44" /><g
     id="g46" /><g
     id="g48" /><g
     id="g50" /><g
     id="g52" /><g
     id="g54" /><g
     id="g56" /><g
     id="g58" /><g
     id="g60" /><g
     id="g62" /><path
     style="fill:#87c69e;stroke-width:1.39060676"
     d="m 290.73009,288.31493 c 31.3415,50.39004 4.96308,116.67609 4.96308,116.67609 l 17.55362,-1.14863 c 37.52415,-96.32318 -22.5167,-115.52746 -22.5167,-115.52746 z"
     id="path14"
     inkscape:connector-curvature="0" /><path
     style="fill:#84af92;stroke-width:1.39060676"
     d="m 285.60154,330.62554 c 22.1023,34.76795 4.22884,80.96669 4.22884,80.96669 l 12.17058,-0.92058 c 25.42307,-67.11902 -16.39942,-80.04611 -16.39942,-80.04611 z"
     id="path16"
     inkscape:connector-curvature="0" /><path
     style="fill:#77b78d;stroke-width:1.39060676"
     d="m 352.3298,323.33876 c 0,0 -48.88539,7.62191 -31.42215,86.85036 l 13.46385,3.01622 c 0,0 -12.45288,-54.58827 17.9583,-89.86658 z"
     id="path18"
     inkscape:connector-curvature="0" /><path
     style="fill:#606060;stroke-width:1.39060676"
     d="m 336.55198,412.57678 c -1.80919,-8.90545 -9.68141,-15.60816 -19.12919,-15.60816 -8.34086,0 -15.40514,5.2551 -18.19191,12.61836 -1.1709,-0.21276 -2.36265,-0.36156 -3.59612,-0.36156 -1.53383,0 -3.00093,0.22389 -4.4263,0.55347 -3.21368,-6.36203 -9.74538,-10.76609 -17.36312,-10.76609 -5.22312,0 -9.947,2.08592 -13.45829,5.43589 -3.54326,-4.92554 -9.28786,-8.16008 -15.81954,-8.16008 -7.16997,0 -13.38459,3.92569 -16.76793,9.69113 -0.54235,-0.0417 -1.06382,-0.15992 -1.61729,-0.15992 -5.2982,0 -10.0958,2.13875 -13.61682,5.56382 -3.50989,-3.42507 -8.31027,-5.56382 -13.61821,-5.56382 -3.45705,0 -6.65962,0.97899 -9.47838,2.56429 -3.2554,-2.43635 -7.25618,-3.92568 -11.62825,-3.92568 -7.11712,0 -13.29837,3.86171 -16.70258,9.56458 -0.1071,0 -0.21276,-0.032 -0.31845,-0.032 -10.75635,0 -19.48101,8.71355 -19.5116,19.46849 2.40435,1.36141 4.767,2.77704 7.22282,4.04249 h 198.6593 c 0.30871,-0.15991 0.60631,-0.34069 0.91362,-0.51035 0.66054,-1.95797 1.0958,-4.02163 1.0958,-6.2021 10e-4,-8.3506 -5.26483,-15.42461 -12.64756,-18.21278 z"
     id="path20"
     inkscape:connector-curvature="0" /><g
     id="g30"
     transform="matrix(1.3905069,-0.01666159,0.01666159,1.3905069,-74.129641,-42.361736)"><path
       style="fill:#dd0364;fill-opacity:1"
       d="m 195.906,243.607 c -39.76,0 -57.96,24.52 -57.96,32.323 0,7.245 18.2,32.32 57.96,32.32 39.748,0 98.08,-26.861 98.08,-32.32 0,-6.479 -58.332,-32.323 -98.08,-32.323 z"
       id="path22"
       inkscape:connector-curvature="0" /><path
       style="fill:#dd0364;fill-opacity:1"
       d="m 318.502,243.607 c 0,0 -38.864,14.475 -38.864,32.323 0,17.853 38.864,32.32 38.864,32.32 l -14.888,-32.871 z"
       id="path24"
       inkscape:connector-curvature="0" /><path
       style="fill:#dd0364;fill-opacity:1"
       d="m 200.516,246.951 44.588,16.724 v -34.554 c -22.295,-2.23 -44.588,17.83 -44.588,17.83 z"
       id="path26"
       inkscape:connector-curvature="0" /><path
       style="fill:#dd0364;fill-opacity:1"
       d="m 200.516,298.048 c 0,0 22.294,20.063 44.588,17.83 v -34.55 z"
       id="path28"
       inkscape:connector-curvature="0" /></g><path
     style="fill:#191919;stroke-width:1.39060676"
     d="m 181.8775,313.51346 c -6.41994,0.0769 -11.57487,5.33578 -11.49786,11.76132 0.0769,6.41995 5.35636,11.55376 11.77633,11.47684 6.39354,-0.0766 11.54429,-5.3354 11.46737,-11.75535 -0.077,-6.42555 -5.35227,-11.55942 -11.74584,-11.48281 z"
     id="path32"
     inkscape:connector-curvature="0" /></svg>