<?xml version="1.0" encoding="UTF-8" standalone="no"?>
<!-- Generator: Adobe Illustrator 19.0.0, SVG Export Plug-In . SVG Version: 6.00 Build 0)  -->

<svg
   xmlns:dc="http://purl.org/dc/elements/1.1/"
   xmlns:cc="http://creativecommons.org/ns#"
   xmlns:rdf="http://www.w3.org/1999/02/22-rdf-syntax-ns#"
   xmlns:svg="http://www.w3.org/2000/svg"
   xmlns="http://www.w3.org/2000/svg"
   xmlns:sodipodi="http://sodipodi.sourceforge.net/DTD/sodipodi-0.dtd"
   xmlns:inkscape="http://www.inkscape.org/namespaces/inkscape"
   version="1.1"
   id="Layer_1"
   x="0px"
   y="0px"
   viewBox="0 0 496.158 496.158"
   style="enable-background:new 0 0 496.158 496.158;"
   xml:space="preserve"
   sodipodi:docname="volume1.svg"
   inkscape:version="0.92.1 r15371"><metadata
     id="metadata69"><rdf:RDF><cc:Work
         rdf:about=""><dc:format>image/svg+xml</dc:format><dc:type
           rdf:resource="http://purl.org/dc/dcmitype/StillImage" /><dc:title></dc:title></cc:Work></rdf:RDF></metadata><defs
     id="defs67"><inkscape:path-effect
       only_selected="false"
       apply_with_weight="true"
       apply_no_weight="true"
       helper_size="0"
       steps="2"
       weight="33.333333"
       is_visible="true"
       id="path-effect4549"
       effect="bspline" /><inkscape:path-effect
       effect="bspline"
       id="path-effect4545"
       is_visible="true"
       weight="33.333333"
       steps="2"
       helper_size="0"
       apply_no_weight="true"
       apply_with_weight="true"
       only_selected="false" /><inkscape:path-effect
       only_selected="false"
       apply_with_weight="true"
       apply_no_weight="true"
       helper_size="0"
       steps="2"
       weight="33.333333"
       is_visible="true"
       id="path-effect4541"
       effect="bspline" /><inkscape:path-effect
       effect="bspline"
       id="path-effect4537"
       is_visible="true"
       weight="33.333333"
       steps="2"
       helper_size="0"
       apply_no_weight="true"
       apply_with_weight="true"
       only_selected="false" /><inkscape:path-effect
       only_selected="false"
       apply_with_weight="true"
       apply_no_weight="true"
       helper_size="0"
       steps="2"
       weight="33.333333"
       is_visible="true"
       id="path-effect4533"
       effect="bspline" /><inkscape:path-effect
       effect="bspline"
       id="path-effect4529"
       is_visible="true"
       weight="33.333333"
       steps="2"
       helper_size="0"
       apply_no_weight="true"
       apply_with_weight="true"
       only_selected="false" /><inkscape:path-effect
       only_selected="false"
       apply_with_weight="true"
       apply_no_weight="true"
       helper_size="0"
       steps="2"
       weight="33.333333"
       is_visible="true"
       id="path-effect4525"
       effect="bspline" /><inkscape:path-effect
       effect="bspline"
       id="path-effect4521"
       is_visible="true"
       weight="33.333333"
       steps="2"
       helper_size="0"
       apply_no_weight="true"
       apply_with_weight="true"
       only_selected="false" /><inkscape:path-effect
       only_selected="false"
       apply_with_weight="true"
       apply_no_weight="true"
       helper_size="0"
       steps="2"
       weight="33.333333"
       is_visible="true"
       id="path-effect4517"
       effect="bspline" /><inkscape:path-effect
       effect="bspline"
       id="path-effect4513"
       is_visible="true"
       weight="33.333333"
       steps="2"
       helper_size="0"
       apply_no_weight="true"
       apply_with_weight="true"
       only_selected="false" /></defs><sodipodi:namedview
     pagecolor="#ffffff"
     bordercolor="#666666"
     borderopacity="1"
     objecttolerance="10"
     gridtolerance="10"
     guidetolerance="10"
     inkscape:pageopacity="0"
     inkscape:pageshadow="2"
     inkscape:window-width="1280"
     inkscape:window-height="947"
     id="namedview65"
     showgrid="false"
     inkscape:zoom="0.67267767"
     inkscape:cx="26.14196"
     inkscape:cy="493.3227"
     inkscape:window-x="0"
     inkscape:window-y="0"
     inkscape:window-maximized="1"
     inkscape:current-layer="Layer_1"
     showguides="false" /><g
     id="g10"
     transform="matrix(1.3906067,0,0,1.3906067,-96.896458,-129.58893)"
     style="fill:#d6e5e4;fill-opacity:1"><path
       style="fill:#d6e5e4;fill-opacity:1"
       d="M 393.396,118.399 H 104.392 c -12.578,0 -22.783,10.198 -22.783,22.775 0,12.585 10.205,22.783 22.783,22.783 h 289.005 c 12.577,0 22.783,-10.198 22.783,-22.783 0,-12.577 -10.206,-22.775 -22.784,-22.775 z"
       id="path4"
       inkscape:connector-curvature="0" /><path
       style="fill:#d6e5e4;fill-opacity:1"
       d="M 316.776,413.808 H 181.011 c -5.914,0 -10.703,2.456 -10.703,5.478 0,3.03 4.789,5.485 10.703,5.485 h 135.766 c 5.906,0 10.703,-2.456 10.703,-5.485 -0.001,-3.022 -4.797,-5.478 -10.704,-5.478 z"
       id="path6"
       inkscape:connector-curvature="0" /><path
       style="fill:#d6e5e4;fill-opacity:1"
       d="M 379.503,163.047 H 116.334 c -22.745,28.652 -36.363,64.877 -36.363,104.292 0,65.067 37.028,121.452 91.141,149.338 h 153.606 c 54.112,-27.886 91.141,-84.271 91.141,-149.338 -10e-4,-39.415 -13.619,-75.64 -36.356,-104.292 z"
       id="path8"
       inkscape:connector-curvature="0" /></g><path
     style="fill:#3e9aff;stroke-width:1.39060676;fill-opacity:1"
     d="M 408.08594 390.80273 C 405.41215 391.26684 402.70858 391.82914 400.05078 392.24023 C 393.03741 393.32503 386.08217 394.22068 379.19336 394.89258 C 372.30455 395.56448 365.4814 396.01351 358.73633 396.20898 C 351.99126 396.40446 345.32385 396.34521 338.72656 396.0957 C 332.12928 395.8462 325.60302 395.40594 319.14258 394.83789 C 312.68214 394.26984 306.28765 393.57461 299.95312 392.81445 C 293.6186 392.0543 287.34455 391.23012 281.125 390.4043 C 268.68591 388.75266 256.46471 387.09513 244.41992 385.93945 C 238.39753 385.36161 232.41874 384.90872 226.47852 384.64453 C 220.53829 384.38034 214.63657 384.30458 208.76758 384.48047 C 202.89859 384.65636 197.06393 385.08526 191.25 385.69727 C 185.43607 386.30928 179.64337 387.10578 173.86328 388.01953 C 162.3031 389.84703 150.79034 392.14288 139.23828 394.37109 C 133.46225 395.4852 127.67495 396.58298 121.86914 397.5957 C 116.06333 398.60842 110.23766 399.53554 104.38086 400.3125 C 102.13667 400.61021 99.863202 400.75641 97.609375 401.00586 C 112.69085 415.46444 129.78326 427.84232 148.53125 437.50391 L 347.19141 437.50391 C 370.20914 425.64148 390.76647 409.72755 408.08594 390.80273 z "
     id="path4552" /><g
     id="g34" /><g
     id="g36" /><g
     id="g38" /><g
     id="g40" /><g
     id="g42" /><g
     id="g44" /><g
     id="g46" /><g
     id="g48" /><g
     id="g50" /><g
     id="g52" /><g
     id="g54" /><g
     id="g56" /><g
     id="g58" /><g
     id="g60" /><g
     id="g62" /><path
     style="fill:#87c69e;stroke-width:1.39060676"
     d="m 215.97863,346.87326 c 58.06693,12.23426 87.67631,77.14146 87.67631,77.14146 l 11.31553,-13.46877 c -43.58539,-93.7365 -98.99184,-63.67269 -98.99184,-63.67269 z"
     id="path14"
     inkscape:connector-curvature="0" /><path
     style="fill:#84af92;stroke-width:1.39060676"
     d="m 243.81824,370.97959 c 39.4092,12.00989 55.90904,58.71684 55.90904,58.71684 l 8.64063,-8.62032 c -24.38456,-67.50325 -64.54967,-50.09652 -64.54967,-50.09652 z"
     id="path16"
     inkscape:connector-curvature="0" /><path
     style="fill:#77b78d;stroke-width:1.39060676"
     d="m 387.34472,390.48533 c 0,0 -34.46554,-35.49649 -89.04197,24.53288 l 5.31719,12.73187 c 0,0 37.35997,-41.70354 83.72478,-37.26475 z"
     id="path18"
     inkscape:connector-curvature="0" /><g
     id="g30"
     transform="matrix(1.2998629,-0.4941088,0.4941088,1.2998629,-174.3527,109.86391)"><path
       style="fill:#dd0364;fill-opacity:1"
       d="m 195.906,243.607 c -39.76,0 -57.96,24.52 -57.96,32.323 0,7.245 18.2,32.32 57.96,32.32 39.748,0 98.08,-26.861 98.08,-32.32 0,-6.479 -58.332,-32.323 -98.08,-32.323 z"
       id="path22"
       inkscape:connector-curvature="0" /><path
       style="fill:#dd0364;fill-opacity:1"
       d="m 318.502,243.607 c 0,0 -38.864,14.475 -38.864,32.323 0,17.853 38.864,32.32 38.864,32.32 l -14.888,-32.871 z"
       id="path24"
       inkscape:connector-curvature="0" /><path
       style="fill:#dd0364;fill-opacity:1"
       d="m 200.516,246.951 44.588,16.724 v -34.554 c -22.295,-2.23 -44.588,17.83 -44.588,17.83 z"
       id="path26"
       inkscape:connector-curvature="0" /><path
       style="fill:#dd0364;fill-opacity:1"
       d="m 200.516,298.048 c 0,0 22.294,20.063 44.588,17.83 v -34.55 z"
       id="path28"
       inkscape:connector-curvature="0" /></g><path
     style="fill:#191919;stroke-width:1.39060676"
     d="m 188.47586,355.91726 c -6.00145,2.2813 -9.03206,8.99278 -6.74877,14.99946 2.2813,6.00145 9.00487,9.00514 15.00633,6.72385 5.97676,-2.27192 9.00347,-8.98192 6.72218,-14.98337 -2.28329,-6.00668 -9.00296,-9.01186 -14.97974,-6.73994 z"
     id="path32"
     inkscape:connector-curvature="0" /><g
     inkscape:groupmode="layer"
     id="layer1"
     inkscape:label="pedrecillas"><path
       style="enable-background:new 0 0 496.15800000000001546 496.15800000000001546;fill:#606060;stroke-width:1.39060676"
       d="m 336.55198,412.57678 c -1.80919,-8.90545 -9.68141,-15.60816 -19.12919,-15.60816 -8.34086,0 -15.40514,5.2551 -18.19191,12.61836 -1.1709,-0.21276 -2.36265,-0.36156 -3.59612,-0.36156 -1.53383,0 -3.00093,0.22389 -4.4263,0.55347 -3.21368,-6.36203 -9.74538,-10.76609 -17.36312,-10.76609 -5.22312,0 -9.947,2.08592 -13.45829,5.43589 -3.54326,-4.92554 -9.28786,-8.16008 -15.81954,-8.16008 -7.16997,0 -13.38459,3.92569 -16.76793,9.69113 -0.54235,-0.0417 -1.06382,-0.15992 -1.61729,-0.15992 -5.2982,0 -10.0958,2.13875 -13.61682,5.56382 -3.50989,-3.42507 -8.31027,-5.56382 -13.61821,-5.56382 -3.45705,0 -6.65962,0.97899 -9.47838,2.56429 -3.2554,-2.43635 -7.25618,-3.92568 -11.62825,-3.92568 -7.11712,0 -13.29837,3.86171 -16.70258,9.56458 -0.1071,0 -0.21276,-0.032 -0.31845,-0.032 -10.75635,0 -19.48101,8.71355 -19.5116,19.46849 2.40435,1.36141 4.767,2.77704 7.22282,4.04249 h 198.6593 c 0.30871,-0.15991 0.60631,-0.34069 0.91362,-0.51035 0.66054,-1.95797 1.0958,-4.02163 1.0958,-6.2021 10e-4,-8.3506 -5.26483,-15.42461 -12.64756,-18.21278 z"
       id="path20"
       inkscape:connector-curvature="0" /></g></svg>